<svg width="355" height="437" viewBox="0 0 355 437" fill="none" xmlns="http://www.w3.org/2000/svg">
<rect x="-13.4123" y="4.4843" width="159.467" height="63.5979" rx="31.7989" transform="matrix(-0.894832 -0.446402 -0.446402 0.894832 451.905 93.0155)" fill="#86AC3B" stroke="#012758" stroke-width="20"/>
<circle cx="13.4217" cy="13.4217" r="10" transform="matrix(-0.993916 -0.110144 -0.110144 0.993916 284.374 25.832)" fill="#89B03D" stroke="#012758" stroke-width="6.84335"/>
<path d="M290.369 10.2199L379.142 51.6952L350.7 106.417C345.957 105.12 322.764 95.2959 267.941 66.3797C236.255 32.0024 268.037 9.80288 290.369 10.2199Z" fill="#8EB540" stroke="#012758" stroke-width="20"/>
<rect x="-13.4123" y="4.4843" width="159.467" height="63.5979" rx="31.7989" transform="matrix(-0.894832 -0.446402 -0.446402 0.894832 355.718 119.814)" fill="#86AC3B" stroke="#012758" stroke-width="20"/>
<rect x="12.2474" y="7.07107" width="159.467" height="136.698" rx="68.3491" transform="matrix(0.258819 0.965926 0.965926 -0.258819 312.371 151.815)" fill="#8FB03F" stroke="#012758" stroke-width="20"/>
<rect x="-7.07107" y="12.2474" width="159.467" height="63.5979" rx="31.7989" transform="matrix(-0.965926 0.258819 0.258819 0.965926 445.361 75.9935)" fill="#86AC3B" stroke="#012758" stroke-width="20"/>
<rect x="6.61305" y="12.5007" width="87.9225" height="38.1805" rx="19.0903" transform="matrix(-0.294382 0.955688 0.955688 0.294382 240.063 99.6462)" fill="#BE8F65" stroke="#012758" stroke-width="20"/>
<circle cx="36.4303" cy="36.4303" r="26.4303" transform="matrix(-0.993916 -0.110144 -0.110144 0.993916 408.864 45.7217)" fill="#89B03D" stroke="#012758" stroke-width="20"/>
<circle cx="13.4217" cy="13.4217" r="10" transform="matrix(-0.993916 -0.110144 -0.110144 0.993916 380.616 66.2402)" fill="#89B03D" stroke="#012758" stroke-width="6.84335"/>
<circle cx="5.89122" cy="5.89122" r="5.89122" transform="matrix(-0.999315 -0.0370012 -0.0370012 0.999315 267.831 130.96)" fill="#012758"/>
<circle cx="5.89122" cy="5.89122" r="5.89122" transform="matrix(-0.993916 -0.110144 -0.110144 0.993916 287.01 32.7168)" fill="#4E7411"/>
<circle cx="5.89122" cy="5.89122" r="5.89122" transform="matrix(-0.999315 -0.0370012 -0.0370012 0.999315 239.273 96.6104)" fill="#4E7411"/>
<circle cx="5.89122" cy="5.89122" r="5.89122" transform="matrix(-0.999315 -0.0370012 -0.0370012 0.999315 259.796 157.048)" fill="#012758"/>
<circle cx="5.89122" cy="5.89122" r="5.89122" transform="matrix(-0.999315 -0.0370012 -0.0370012 0.999315 253.227 178.375)" fill="#012758"/>
<path d="M103.987 384.578C132.807 366.394 144.561 329.533 126.935 301.597C109.309 273.661 70.9788 268.4 42.1584 286.584C13.338 304.768 1.58469 341.628 19.2107 369.564C36.8367 397.501 75.1665 402.762 103.987 384.578Z" fill="#6ED5A6" stroke="#012758" stroke-width="20"/>
<path d="M94.1002 296.84C69.4336 287.227 40.7096 301.83 29.9434 329.457" stroke="#FCF6EA" stroke-width="20" stroke-linecap="round"/>
<circle cx="110.788" cy="310.848" r="8.23969" fill="#FCF6EA"/>
<path fill-rule="evenodd" clip-rule="evenodd" d="M123.738 317.75C130.649 338.734 121.076 363.719 99.4091 377.39C78.1219 390.821 52.0038 389.013 35.9551 374.464C64.1742 368.081 100.599 351.992 123.738 317.75Z" fill="#24A98E"/>
<path d="M78.8749 272.42C65.9646 307.828 54.7159 383.091 113.004 400.885C171.293 418.678 114.538 322.655 78.8749 272.42Z" fill="#6ED5A6" stroke="#012758" stroke-width="20"/>
<circle cx="96.3783" cy="93.1029" r="40.6781" fill="#FDE7D2" stroke="#062855" stroke-width="20"/>
<circle cx="96.3796" cy="93.1042" r="19.5573" fill="#022656"/>
<mask id="path-22-outside-1_85_181" maskUnits="userSpaceOnUse" x="22.2236" y="56.9512" width="349" height="367" fill="black">
<rect fill="white" x="22.2236" y="56.9512" width="349" height="367"/>
<path fill-rule="evenodd" clip-rule="evenodd" d="M83.9417 276.406C58.4961 255.844 42.2236 224.381 42.2236 189.118C42.2236 127.17 92.4424 76.9512 154.39 76.9512C196.479 76.9512 233.152 100.132 252.341 134.423C279.717 144.447 304.937 163.219 323.484 189.738C368.522 254.131 357.163 339.813 298.112 381.115C239.061 422.416 154.681 403.696 109.643 339.303C95.9277 319.693 87.4426 298.11 83.9417 276.406Z"/>
</mask>
<path fill-rule="evenodd" clip-rule="evenodd" d="M83.9417 276.406C58.4961 255.844 42.2236 224.381 42.2236 189.118C42.2236 127.17 92.4424 76.9512 154.39 76.9512C196.479 76.9512 233.152 100.132 252.341 134.423C279.717 144.447 304.937 163.219 323.484 189.738C368.522 254.131 357.163 339.813 298.112 381.115C239.061 422.416 154.681 403.696 109.643 339.303C95.9277 319.693 87.4426 298.11 83.9417 276.406Z" fill="#6ED5A6"/>
<path d="M83.9417 276.406L103.686 273.221L102.467 265.663L96.5122 260.85L83.9417 276.406ZM252.341 134.423L234.888 144.189L238.507 150.655L245.464 153.203L252.341 134.423ZM323.484 189.738L307.095 201.201V201.201L323.484 189.738ZM298.112 381.115L286.649 364.725H286.649L298.112 381.115ZM109.643 339.303L93.2539 350.766H93.2539L109.643 339.303ZM96.5122 260.85C75.5635 243.922 62.2236 218.085 62.2236 189.118H22.2236C22.2236 230.677 41.4288 267.766 71.3712 291.962L96.5122 260.85ZM62.2236 189.118C62.2236 138.216 103.488 96.9512 154.39 96.9512V56.9512C81.3967 56.9512 22.2236 116.124 22.2236 189.118H62.2236ZM154.39 96.9512C188.948 96.9512 219.092 115.961 234.888 144.189L269.794 124.656C247.213 84.3029 204.009 56.9512 154.39 56.9512V96.9512ZM245.464 153.203C269.002 161.822 290.899 178.044 307.095 201.201L339.874 178.275C318.974 148.395 290.431 127.072 259.218 115.642L245.464 153.203ZM307.095 201.201C346.757 257.908 335.341 330.669 286.649 364.725L309.575 397.504C378.984 348.957 390.287 250.355 339.874 178.275L307.095 201.201ZM286.649 364.725C237.957 398.782 165.694 384.547 126.032 327.84L93.2539 350.766C143.668 422.845 240.165 446.05 309.575 397.504L286.649 364.725ZM126.032 327.84C114.055 310.715 106.71 291.964 103.686 273.221L64.1969 279.591C68.1753 304.255 77.8007 328.672 93.2539 350.766L126.032 327.84Z" fill="#012758" mask="url(#path-22-outside-1_85_181)"/>
<path fill-rule="evenodd" clip-rule="evenodd" d="M42.2236 189.119C42.2236 224.383 58.4962 255.845 83.9418 276.408C87.4426 298.111 95.9278 319.695 109.643 339.304C151.436 399.057 227.105 419.482 284.976 389.115L126.265 172.484L49.8056 148.497C44.9097 161.093 42.2236 174.793 42.2236 189.119Z" fill="#FFF3E5"/>
<path d="M202.919 99.2393C174.002 72.4562 121.94 78.0728 96.1064 105.965" stroke="#FCF6EA" stroke-width="20" stroke-linecap="round"/>
<line x1="251.286" y1="184.564" x2="252.075" y2="185.272" stroke="#012758" stroke-width="20" stroke-linecap="round"/>
<line x1="281.197" y1="184.935" x2="282.335" y2="185.895" stroke="#012758" stroke-width="20" stroke-linecap="round"/>
<line x1="249.558" y1="150.025" x2="253.229" y2="153.252" stroke="#012758" stroke-width="20" stroke-linecap="round"/>
<circle cx="218.304" cy="93.1029" r="40.6781" fill="#FDE7D2" stroke="#062855" stroke-width="20"/>
<circle cx="218.304" cy="93.1042" r="19.5573" fill="#022656"/>
<circle cx="106.755" cy="130.341" r="12.3329" fill="#022656"/>
<circle cx="156.389" cy="130.341" r="12.3329" fill="#022656"/>
<path d="M56.2793 148.021C78.7766 162.081 138.343 183.454 196.632 156.457" stroke="#012758" stroke-width="20" stroke-linecap="round"/>
<path d="M354.74 384.578C383.56 366.394 395.314 329.533 377.688 301.597C360.061 273.661 321.732 268.4 292.911 286.584C264.091 304.768 252.338 341.628 269.964 369.564C287.59 397.501 325.919 402.762 354.74 384.578Z" fill="#6ED5A6" stroke="#012758" stroke-width="20"/>
<path d="M344.853 296.84C320.187 287.227 291.463 301.83 280.696 329.457" stroke="#FCF6EA" stroke-width="20" stroke-linecap="round"/>
<circle cx="361.54" cy="310.848" r="8.23969" fill="#FCF6EA"/>
<path fill-rule="evenodd" clip-rule="evenodd" d="M374.49 317.75C381.401 338.734 371.828 363.719 350.161 377.39C328.874 390.821 302.756 389.013 286.707 374.464C314.926 368.081 351.35 351.992 374.49 317.75Z" fill="#24A98E"/>
<circle cx="283.369" cy="398.746" r="13.2749" fill="#6ED5A6" stroke="#012758" stroke-width="10"/>
<circle cx="308.713" cy="407.635" r="13.2749" fill="#6ED5A6" stroke="#012758" stroke-width="10"/>
<circle cx="337.789" cy="406.484" r="13.2749" fill="#6ED5A6" stroke="#012758" stroke-width="10"/>
<path d="M206.977 280.477L205.851 282.199L205.497 284.226C202.558 301.015 197.86 326.455 193.318 348.201C191.044 359.093 188.834 368.933 186.924 376.26C185.963 379.946 185.123 382.821 184.431 384.815C184.208 385.457 184.026 385.934 183.887 386.271C181.036 389.29 179.428 392.617 178.545 394.766H169.3L171.371 406.504C171.732 408.549 172.719 411.831 175.739 414.307C179.013 416.993 182.688 417.144 185.015 416.813C187.166 416.508 188.965 415.709 190.037 415.185C191.205 414.613 192.328 413.947 193.178 413.435C193.446 413.273 193.695 413.122 193.927 412.982C194.62 412.563 195.162 412.235 195.611 411.975L198.316 411.795C199.698 411.703 200.46 411.685 200.942 411.705C201.308 412.048 201.903 412.69 202.849 413.894L205.013 416.648L208.422 417.45C209.205 417.634 210.017 417.841 210.901 418.069C210.985 418.09 211.07 418.112 211.156 418.134C211.939 418.336 212.795 418.556 213.617 418.754C215.181 419.131 217.72 419.717 220.14 419.717C221.311 419.717 223.642 419.605 226.054 418.352C229.085 416.779 231.378 413.837 231.923 410.114C232.358 407.149 231.529 404.678 230.988 403.354C230.376 401.859 229.55 400.459 228.723 399.219C228.424 398.771 228.147 398.356 227.887 397.969C226.938 396.553 226.235 395.503 225.633 394.495C225.341 394.005 225.133 393.622 224.984 393.319C225.092 393.178 225.229 393.009 225.401 392.813C228.97 388.733 239.354 374.086 248.769 357.717C253.53 349.439 258.212 340.434 261.732 331.831C265.153 323.472 267.902 314.494 267.902 306.595V306.157L267.864 305.721C266.367 288.661 253.811 278.18 242.009 273.787C236.038 271.564 229.57 270.588 223.636 271.236C217.935 271.858 211.058 274.236 206.977 280.477ZM183.592 386.911C183.591 386.907 183.618 386.852 183.673 386.758C183.62 386.868 183.593 386.915 183.592 386.911ZM177.567 397.21C177.567 397.209 177.576 397.19 177.595 397.157C177.577 397.194 177.567 397.21 177.567 397.21ZM197.236 411.179C197.233 411.185 197.168 411.21 197.048 411.242C197.179 411.19 197.239 411.174 197.236 411.179ZM181.085 397.293C181.086 397.292 181.107 397.283 181.148 397.267C181.105 397.286 181.085 397.294 181.085 397.293Z" fill="#6DD4A6" stroke="#012758" stroke-width="20" stroke-linecap="round"/>
<circle cx="177.082" cy="406.985" r="13.2749" transform="rotate(-8.19615 177.082 406.985)" fill="#6ED5A6" stroke="#012758" stroke-width="10"/>
<circle cx="87.9396" cy="401.264" r="13.2749" transform="rotate(-8.19615 87.9396 401.264)" fill="#6ED5A6" stroke="#012758" stroke-width="10"/>
<circle cx="205.106" cy="415.775" r="13.2749" transform="rotate(-8.19615 205.106 415.775)" fill="#6ED5A6" stroke="#012758" stroke-width="10"/>
<circle cx="115.962" cy="410.053" r="13.2749" transform="rotate(-8.19615 115.962 410.053)" fill="#6ED5A6" stroke="#012758" stroke-width="10"/>
<circle cx="232.05" cy="406.886" r="13.2749" transform="rotate(-8.19615 232.05 406.886)" fill="#6ED5A6" stroke="#012758" stroke-width="10"/>
<circle cx="142.907" cy="401.164" r="13.2749" transform="rotate(-8.19615 142.907 401.164)" fill="#6ED5A6" stroke="#012758" stroke-width="10"/>
<rect x="6.61305" y="12.5007" width="87.9225" height="38.1805" rx="19.0903" transform="matrix(-0.294382 0.955688 0.955688 0.294382 313.36 154.653)" fill="#BE8F65" stroke="#012758" stroke-width="20"/>
<circle cx="5.89122" cy="5.89122" r="5.89122" transform="matrix(-0.999315 -0.0370012 -0.0370012 0.999315 341.13 185.967)" fill="#012758"/>
<circle cx="5.89122" cy="5.89122" r="5.89122" transform="matrix(-0.999315 -0.0370012 -0.0370012 0.999315 333.094 212.056)" fill="#012758"/>
<circle cx="5.89122" cy="5.89122" r="5.89122" transform="matrix(-0.999315 -0.0370012 -0.0370012 0.999315 326.523 233.382)" fill="#012758"/>
</svg>
