<svg width="234" height="196" viewBox="0 0 234 196" fill="none" xmlns="http://www.w3.org/2000/svg">
<rect x="-4.74317" y="1.5854" width="75.5986" height="30.8758" rx="15.4379" transform="matrix(-0.899405 -0.437116 -0.455786 0.890089 210.626 41.516)" fill="#86AC3B" stroke="#012758" stroke-width="7"/>
<mask id="path-2-inside-1_162_1067" fill="white">
<ellipse cx="6.2069" cy="6.05072" rx="6.2069" ry="6.05072" transform="matrix(-0.994223 -0.107338 -0.113022 0.993593 130.583 10.6523)"/>
</mask>
<ellipse cx="6.2069" cy="6.05072" rx="6.2069" ry="6.05072" transform="matrix(-0.994223 -0.107338 -0.113022 0.993593 130.583 10.6523)" fill="#89B03D"/>
<path d="M124.517 16.0832C124.595 15.3963 124.103 15.0837 123.835 15.0549L122.253 28.9652C115.17 28.2004 109.764 21.908 110.598 14.5805L124.517 16.0832ZM123.835 15.0549C123.568 15.026 123.018 15.226 122.94 15.9129L136.859 17.4157C136.025 24.7432 129.337 29.7299 122.253 28.9652L123.835 15.0549ZM122.94 15.9129C122.861 16.5999 123.354 16.9124 123.621 16.9413L125.203 3.03096C132.287 3.79571 137.692 10.0881 136.859 17.4157L122.94 15.9129ZM123.621 16.9413C123.888 16.9701 124.438 16.7701 124.517 16.0832L110.598 14.5805C111.431 7.25291 118.12 2.26621 125.203 3.03096L123.621 16.9413Z" fill="#012758" mask="url(#path-2-inside-1_162_1067)"/>
<path d="M133.356 3.61612L174.422 22.3078L161.265 46.9692C159.071 46.3846 148.342 41.9574 122.981 28.9257C108.323 13.4328 123.026 3.42819 133.356 3.61612Z" fill="#8EB540" stroke="#012758" stroke-width="7"/>
<rect x="-4.74317" y="1.5854" width="75.5986" height="30.8758" rx="15.4379" transform="matrix(-0.899405 -0.437116 -0.455786 0.890089 166.129 53.5941)" fill="#86AC3B" stroke="#012758" stroke-width="7"/>
<rect x="4.31469" y="2.49066" width="74.0256" height="65.3643" rx="32.6822" transform="matrix(0.265192 0.964196 0.967577 -0.252578 143.256 67.7081)" fill="#8FB03F" stroke="#012758" stroke-width="7"/>
<rect x="-2.45835" y="4.25871" width="75.8791" height="30.7427" rx="15.3713" transform="matrix(-0.967577 0.252578 0.265192 0.964196 206.986 33.0185)" fill="#86AC3B" stroke="#012758" stroke-width="7"/>
<rect x="2.29715" y="4.34316" width="41.7504" height="19.8547" rx="9.92733" transform="matrix(-0.301472 0.953475 0.957802 0.287428 110.481 43.6946)" fill="#BE8F65" stroke="#012758" stroke-width="7"/>
<rect x="-4.31469" y="-2.49066" width="30.2608" height="13.5466" rx="6.7733" transform="matrix(-0.265192 -0.964195 -0.967577 0.252578 195.929 110.46)" fill="#BE8F65" stroke="#012758" stroke-width="7"/>
<rect x="-4.31469" y="-2.49066" width="14.4564" height="13.5466" rx="6.7733" transform="matrix(-0.265192 -0.964195 -0.967577 0.252578 191.772 95.2209)" fill="#6ED5A6" stroke="#012758" stroke-width="7"/>
<path d="M156.295 32.6924C155.497 39.701 160.691 46.1653 168.104 46.9656C175.517 47.7659 182.038 42.5663 182.835 35.5577C183.632 28.5491 178.438 22.0848 171.025 21.2845C163.612 20.4841 157.092 25.6837 156.295 32.6924Z" fill="#89B03D" stroke="#012758" stroke-width="7"/>
<mask id="path-12-inside-2_162_1067" fill="white">
<ellipse cx="6.2069" cy="6.05072" rx="6.2069" ry="6.05072" transform="matrix(-0.994223 -0.107338 -0.113022 0.993593 175.104 28.8623)"/>
</mask>
<ellipse cx="6.2069" cy="6.05072" rx="6.2069" ry="6.05072" transform="matrix(-0.994223 -0.107338 -0.113022 0.993593 175.104 28.8623)" fill="#89B03D"/>
<path d="M169.038 34.2931C169.116 33.6062 168.624 33.2937 168.357 33.2648L166.775 47.1751C159.691 46.4104 154.285 40.118 155.119 32.7904L169.038 34.2931ZM168.357 33.2648C168.09 33.236 167.539 33.436 167.461 34.1229L181.38 35.6256C180.547 42.9532 173.858 47.9399 166.775 47.1751L168.357 33.2648ZM167.461 34.1229C167.383 34.8098 167.875 35.1224 168.142 35.1512L169.725 21.2409C176.808 22.0057 182.214 28.2981 181.38 35.6256L167.461 34.1229ZM168.142 35.1512C168.41 35.1801 168.96 34.9801 169.038 34.2931L155.119 32.7904C155.953 25.4629 162.641 20.4762 169.725 21.2409L168.142 35.1512Z" fill="#012758" mask="url(#path-12-inside-2_162_1067)"/>
<ellipse cx="2.72516" cy="2.6551" rx="2.72516" ry="2.6551" transform="matrix(-0.99935 -0.0360485 -0.0379789 0.999278 122.93 58.0298)" fill="#012758"/>
<ellipse cx="2.72441" cy="2.65586" rx="2.72441" ry="2.65586" transform="matrix(-0.994223 -0.107338 -0.113022 0.993593 131.802 13.7549)" fill="#4E7411"/>
<ellipse cx="2.72516" cy="2.6551" rx="2.72516" ry="2.6551" transform="matrix(-0.99935 -0.0360485 -0.0379789 0.999278 109.719 42.5498)" fill="#4E7411"/>
<ellipse cx="2.72526" cy="2.655" rx="2.72526" ry="2.655" transform="matrix(-1 5.05607e-09 5.3272e-09 1 182.506 59.8594)" fill="#4E7411"/>
<ellipse cx="2.72516" cy="2.6551" rx="2.72516" ry="2.6551" transform="matrix(-0.99935 -0.0360485 -0.0379789 0.999278 119.213 69.7871)" fill="#012758"/>
<ellipse cx="2.72516" cy="2.6551" rx="2.72516" ry="2.6551" transform="matrix(-0.99935 -0.0360485 -0.0379789 0.999278 116.174 79.3984)" fill="#012758"/>
<path d="M46.5713 171.455C59.4583 163.534 64.6235 147.55 56.8221 135.504C49.0207 123.458 31.9885 121.118 19.1014 129.039C6.21438 136.961 1.04921 152.945 8.85062 164.991C16.652 177.037 33.6843 179.376 46.5713 171.455Z" fill="#6ED5A6" stroke="#012758" stroke-width="7"/>
<path d="M42.5645 132.787C31.1538 128.455 17.8661 135.036 12.8857 147.486" stroke="#FCF6EA" stroke-width="7" stroke-linecap="round"/>
<ellipse cx="50.2843" cy="139.1" rx="3.81165" ry="3.71338" fill="#FCF6EA"/>
<path fill-rule="evenodd" clip-rule="evenodd" d="M56.275 142.21C59.472 151.667 55.0437 162.927 45.0204 169.088C35.1731 175.141 23.0911 174.326 15.667 167.77C28.7211 164.893 45.5707 157.642 56.275 142.21Z" fill="#24A98E"/>
<path d="M35.5491 121.938C29.5856 137.864 24.3897 171.718 51.3139 179.721C78.2381 187.725 52.0224 144.534 35.5491 121.938Z" fill="#6ED5A6" stroke="#012758" stroke-width="7"/>
<path d="M43.5503 58.3834C53.2279 58.3834 61.2216 50.7073 61.2216 41.0577C61.2216 31.408 53.2279 23.7319 43.5503 23.7319C33.8726 23.7319 25.8789 31.408 25.8789 41.0577C25.8789 50.7073 33.8726 58.3834 43.5503 58.3834Z" fill="#FDE7D2" stroke="#062855" stroke-width="7"/>
<ellipse cx="43.5502" cy="40.8847" rx="8.98672" ry="8.8139" fill="#022656"/>
<mask id="path-27-outside-3_162_1067" maskUnits="userSpaceOnUse" x="11.5664" y="26.6895" width="157" height="161" fill="black">
<rect fill="white" x="11.5664" y="26.6895" width="157" height="161"/>
<path fill-rule="evenodd" clip-rule="evenodd" d="M37.8649 123.578C26.094 114.311 18.5664 100.132 18.5664 84.2397C18.5664 56.3216 41.7974 33.6895 70.4543 33.6895C89.9242 33.6895 106.889 44.1365 115.766 59.5904C128.43 64.1081 140.096 72.5682 148.676 84.5193C169.511 113.539 164.256 152.154 136.939 170.767C109.623 189.38 70.5886 180.944 49.7543 151.924C43.4096 143.086 39.4844 133.359 37.8649 123.578Z"/>
</mask>
<path fill-rule="evenodd" clip-rule="evenodd" d="M37.8649 123.578C26.094 114.311 18.5664 100.132 18.5664 84.2397C18.5664 56.3216 41.7974 33.6895 70.4543 33.6895C89.9242 33.6895 106.889 44.1365 115.766 59.5904C128.43 64.1081 140.096 72.5682 148.676 84.5193C169.511 113.539 164.256 152.154 136.939 170.767C109.623 189.38 70.5886 180.944 49.7543 151.924C43.4096 143.086 39.4844 133.359 37.8649 123.578Z" fill="#6ED5A6"/>
<path d="M37.8649 123.578L44.7709 122.434L44.3275 119.757L42.1949 118.078L37.8649 123.578ZM115.766 59.5904L109.696 63.077L110.982 65.3159L113.414 66.1835L115.766 59.5904ZM148.676 84.5193L154.363 80.4369L148.676 84.5193ZM136.939 170.767L140.881 176.552L136.939 170.767ZM49.7543 151.924L55.4406 147.841L55.4406 147.841L49.7543 151.924ZM42.1949 118.078C32.0048 110.055 25.5664 97.8559 25.5664 84.2397H11.5664C11.5664 102.408 20.1831 118.566 33.5349 129.078L42.1949 118.078ZM25.5664 84.2397C25.5664 60.3588 45.49 40.6895 70.4543 40.6895V26.6895C38.1049 26.6895 11.5664 52.2844 11.5664 84.2397H25.5664ZM70.4543 40.6895C87.3791 40.6895 102.049 49.7626 109.696 63.077L121.836 56.1039C111.73 38.5103 92.4693 26.6895 70.4543 26.6895V40.6895ZM113.414 66.1835C124.76 70.2311 135.255 77.8271 142.99 88.6017L154.363 80.4369C144.938 67.3094 132.099 57.985 118.118 52.9974L113.414 66.1835ZM142.99 88.6017C161.846 114.866 156.633 148.877 132.998 164.982L140.881 176.552C171.878 155.431 177.175 112.212 154.363 80.4369L142.99 88.6017ZM132.998 164.982C109.22 181.184 74.3527 174.184 55.4406 147.841L44.0679 156.006C66.8245 187.704 110.025 197.577 140.881 176.552L132.998 164.982ZM55.4406 147.841C49.7209 139.875 46.2143 131.152 44.7709 122.434L30.9589 124.721C32.7544 135.566 37.0983 146.298 44.0679 156.006L55.4406 147.841Z" fill="#012758" mask="url(#path-27-outside-3_162_1067)"/>
<path fill-rule="evenodd" clip-rule="evenodd" d="M18.5645 84.2398C18.5645 100.132 26.092 114.311 37.863 123.578C39.4824 133.359 43.4076 143.086 49.7523 151.924C69.0854 178.853 104.09 188.058 130.861 174.372L57.4417 76.743L22.0718 65.9326C19.807 71.6092 18.5645 77.7832 18.5645 84.2398Z" fill="#FFF3E5"/>
<path d="M92.9024 43.7336C79.5254 31.6633 55.4417 34.1945 43.4912 46.7646" stroke="#FCF6EA" stroke-width="7" stroke-linecap="round"/>
<line x1="3.5" y1="-3.5" x2="6.13103" y2="-3.5" transform="matrix(0.753036 0.65798 -0.677306 0.735702 108.745 82.5337)" stroke="#012758" stroke-width="7" stroke-linecap="round"/>
<line x1="3.5" y1="-3.5" x2="6.33459" y2="-3.5" transform="matrix(0.772295 0.635264 -0.654935 0.755686 122.595 82.8901)" stroke="#012758" stroke-width="7" stroke-linecap="round"/>
<line x1="3.5" y1="-3.5" x2="7.88452" y2="-3.5" transform="matrix(0.759621 0.650366 -0.669819 0.742524 107.948 67.0322)" stroke="#012758" stroke-width="7" stroke-linecap="round"/>
<path d="M100.063 58.3834C109.686 58.3834 117.562 50.6672 117.562 41.0577C117.562 31.4481 109.686 23.7319 100.063 23.7319C90.4399 23.7319 82.5645 31.4481 82.5645 41.0577C82.5645 50.6672 90.4399 58.3834 100.063 58.3834Z" fill="#FDE7D2" stroke="#062855" stroke-width="7"/>
<ellipse cx="99.891" cy="40.8847" rx="8.98672" ry="8.8139" fill="#022656"/>
<ellipse cx="48.2178" cy="57.648" rx="5.70311" ry="5.53029" fill="#022656"/>
<ellipse cx="71.375" cy="57.648" rx="5.70311" ry="5.53029" fill="#022656"/>
<path d="M25.2314 65.5981C35.5919 71.9586 63.0236 81.6265 89.8667 69.4144" stroke="#012758" stroke-width="7" stroke-linecap="round"/>
<path d="M162.567 171.455C175.454 163.534 180.62 147.55 172.818 135.504C165.017 123.458 147.985 121.118 135.098 129.039C122.21 136.961 117.045 152.945 124.847 164.991C132.648 177.037 149.68 179.376 162.567 171.455Z" fill="#6ED5A6" stroke="#012758" stroke-width="7"/>
<path d="M158.559 132.787C147.148 128.455 133.86 135.036 128.88 147.486" stroke="#FCF6EA" stroke-width="7" stroke-linecap="round"/>
<ellipse cx="166.278" cy="139.1" rx="3.81165" ry="3.71338" fill="#FCF6EA"/>
<path fill-rule="evenodd" clip-rule="evenodd" d="M172.269 142.212C175.465 151.669 171.037 162.928 161.014 169.089C151.167 175.141 139.085 174.327 131.661 167.77C144.715 164.894 161.565 157.643 172.269 142.212Z" fill="#24A98E"/>
<path d="M135.102 178.624C135.102 181.204 132.946 183.419 130.133 183.419C127.321 183.419 125.165 181.204 125.165 178.624C125.165 176.043 127.321 173.828 130.133 173.828C132.946 173.828 135.102 176.043 135.102 178.624Z" fill="#6ED5A6" stroke="#012758" stroke-width="7"/>
<path d="M147.2 182.772C147.2 185.223 145.024 187.567 141.886 187.567C138.748 187.567 136.572 185.223 136.572 182.772C136.572 180.32 138.748 177.976 141.886 177.976C145.024 177.976 147.2 180.32 147.2 182.772Z" fill="#6ED5A6" stroke="#012758" stroke-width="7"/>
<path d="M159.989 182.253C159.989 184.737 157.912 186.876 155.194 186.876C152.476 186.876 150.398 184.737 150.398 182.253C150.398 179.769 152.476 177.63 155.194 177.63C157.912 177.63 159.989 179.769 159.989 182.253Z" fill="#6ED5A6" stroke="#012758" stroke-width="7"/>
<path d="M95.7457 125.929L95.3367 126.538L95.207 127.26C93.8467 134.833 91.6713 146.308 89.5675 156.122C88.5142 161.035 87.4883 165.487 86.5986 168.812C86.1518 170.481 85.7556 171.805 85.4235 172.738C85.276 173.152 85.1586 173.439 85.0743 173.622C83.4875 175.196 82.7834 177 82.4433 177.871C82.4359 177.89 82.4288 177.908 82.4217 177.926H78.6733L79.4203 182.05C79.5698 182.875 79.9625 184.084 81.078 184.976C82.2652 185.924 83.5894 185.979 84.4496 185.86C85.2579 185.749 85.9575 185.452 86.4161 185.233C86.9073 184.999 87.3895 184.721 87.7804 184.491C87.9035 184.419 88.0196 184.35 88.1296 184.286C88.6984 183.95 89.1014 183.712 89.4511 183.546L89.6472 183.658L90.6925 183.59C92.1947 183.492 92.4165 183.582 92.4617 183.601L92.4627 183.601L92.4631 183.601C92.4773 183.607 92.794 183.726 93.7835 184.953L94.5444 185.896L95.7258 186.167C96.2518 186.288 96.5849 186.372 96.9385 186.462C97.2644 186.545 97.6076 186.632 98.1352 186.756C98.8686 186.928 99.9124 187.157 100.869 187.157C101.332 187.157 102.183 187.112 103.053 186.672C104.138 186.124 104.997 185.079 105.204 183.703C105.37 182.603 105.055 181.671 104.833 181.141C104.584 180.549 104.241 179.978 103.879 179.45C103.746 179.255 103.621 179.073 103.502 178.901C103.06 178.258 102.715 177.757 102.422 177.278C102.058 176.683 101.931 176.367 101.888 176.206C101.885 176.194 101.882 176.184 101.88 176.175C101.911 176.099 102.029 175.851 102.425 175.41C104.011 173.644 108.776 167.108 113.117 159.755C115.306 156.046 117.449 152.029 119.055 148.205C120.624 144.47 121.838 140.56 121.838 137.183V137.026L121.823 136.87C121.173 129.645 115.728 125.203 110.565 123.331C107.949 122.382 105.147 121.979 102.618 122.248C100.183 122.507 97.3899 123.479 95.7457 125.929ZM84.979 173.808C84.9788 173.807 84.9871 173.792 85.0042 173.765C84.9877 173.796 84.9791 173.809 84.979 173.808ZM89.9077 183.369C89.9066 183.37 89.8847 183.377 89.8449 183.384C89.8888 183.37 89.9087 183.367 89.9077 183.369ZM83.2622 178.976C83.2622 178.976 83.2636 178.976 83.2664 178.975C83.2635 178.976 83.2621 178.976 83.2622 178.976Z" fill="#6DD4A6" stroke="#012758" stroke-width="7" stroke-linecap="round"/>
<path d="M85.8521 181.739C86.223 184.247 84.4334 186.724 81.644 187.116C78.8546 187.507 76.4201 185.623 76.0492 183.114C75.6783 180.606 77.468 178.128 80.2573 177.737C83.0467 177.346 85.4813 179.23 85.8521 181.739Z" fill="#6ED5A6" stroke="#012758" stroke-width="7"/>
<path d="M44.6148 179.16C44.9857 181.669 43.1961 184.146 40.4067 184.537C37.6173 184.929 35.1828 183.044 34.8119 180.536C34.441 178.027 36.2307 175.55 39.02 175.158C41.8094 174.767 44.2439 176.651 44.6148 179.16Z" fill="#6ED5A6" stroke="#012758" stroke-width="7"/>
<path d="M98.816 185.7C99.1869 188.209 97.3972 190.686 94.6078 191.077C91.8184 191.469 89.3839 189.584 89.013 187.076C88.6422 184.567 90.4318 182.09 93.2212 181.698C96.0106 181.307 98.4451 183.191 98.816 185.7Z" fill="#6ED5A6" stroke="#012758" stroke-width="7"/>
<path d="M57.5787 183.121C57.9496 185.63 56.1599 188.107 53.3705 188.499C50.5811 188.89 48.1466 187.006 47.7757 184.497C47.4049 181.988 49.1945 179.511 51.9839 179.12C54.7733 178.728 57.2078 180.613 57.5787 183.121Z" fill="#6ED5A6" stroke="#012758" stroke-width="7"/>
<path d="M111.28 181.694C111.651 184.202 109.861 186.68 107.072 187.071C104.282 187.462 101.848 185.578 101.477 183.069C101.106 180.561 102.896 178.083 105.685 177.692C108.474 177.301 110.909 179.185 111.28 181.694Z" fill="#6ED5A6" stroke="#012758" stroke-width="7"/>
<path d="M70.0426 179.115C70.4135 181.624 68.6238 184.101 65.8344 184.492C63.045 184.884 60.6105 182.999 60.2396 180.491C59.8687 177.982 61.6584 175.505 64.4478 175.113C67.2372 174.722 69.6717 176.606 70.0426 179.115Z" fill="#6ED5A6" stroke="#012758" stroke-width="7"/>
<rect x="2.29715" y="4.34316" width="41.7504" height="19.8547" rx="9.92733" transform="matrix(-0.301472 0.953475 0.957802 0.287428 144.388 68.4851)" fill="#BE8F65" stroke="#012758" stroke-width="7"/>
<ellipse cx="2.72516" cy="2.6551" rx="2.72516" ry="2.6551" transform="matrix(-0.99935 -0.0360485 -0.0379789 0.999278 156.838 82.8198)" fill="#012758"/>
<ellipse cx="2.72516" cy="2.6551" rx="2.72516" ry="2.6551" transform="matrix(-0.99935 -0.0360485 -0.0379789 0.999278 153.12 94.5767)" fill="#012758"/>
<ellipse cx="2.72516" cy="2.6551" rx="2.72516" ry="2.6551" transform="matrix(-0.99935 -0.0360485 -0.0379789 0.999278 150.081 104.188)" fill="#012758"/>
<path d="M20.0475 65.1219C20.0475 67.693 35.8575 82.1241 56.4287 82.1241C76.9999 82.1241 90.9043 72.5828 90.9043 70.0117C90.9043 66.1834 87.2709 67.3929 80.9709 69.49C74.9466 71.4953 66.4842 74.3123 56.4287 74.3123C45.3801 74.3123 35.7049 69.4424 29.115 66.1255C23.4353 63.2667 20.0475 61.5615 20.0475 65.1219Z" fill="#1E1E1E"/>
<path d="M20.0475 65.1219C20.0475 67.693 35.8575 82.1241 56.4287 82.1241C76.9999 82.1241 90.9043 72.5828 90.9043 70.0117C90.9043 66.1834 87.2709 67.3929 80.9709 69.49C74.9466 71.4953 66.4842 74.3123 56.4287 74.3123C45.3801 74.3123 35.7049 69.4424 29.115 66.1255C23.4353 63.2667 20.0475 61.5615 20.0475 65.1219Z" stroke="#012758"/>
<path d="M131.486 46.6929C131.598 45.9359 131.073 45.25 130.313 45.1608L118.906 43.8225L118.499 46.5639L129.906 47.9022C130.666 47.9913 131.373 47.4499 131.486 46.6929Z" fill="#F7CE45"/>
<path d="M118.854 39.9789C118.854 34.6568 114.539 30.3423 109.217 30.3423H77.5023C72.4118 30.3423 68.2852 34.4689 68.2852 39.5594C68.2852 49.7404 76.5385 57.9937 86.7195 57.9937H109.217C114.539 57.9937 118.854 53.6793 118.854 48.3571V39.9789Z" fill="#FAAFAF" fill-opacity="0.5"/>
<path d="M117.649 39.9789C117.649 35.322 113.874 31.5469 109.217 31.5469H77.5023C73.0771 31.5469 69.4898 35.1342 69.4898 39.5594C69.4898 49.0751 77.2038 56.7891 86.7195 56.7891H109.217C113.874 56.7891 117.649 53.014 117.649 48.3571V39.9789Z" stroke="black" stroke-opacity="0.5" stroke-width="2.40916"/>
<path d="M10.7148 39.6332C10.7148 34.311 15.0293 29.9966 20.3515 29.9966H44.2863C49.3768 29.9966 53.5034 34.1232 53.5034 39.2137C53.5034 49.3947 45.2501 57.648 35.0692 57.648H20.3515C15.0293 57.648 10.7148 53.3336 10.7148 48.0114V39.6332Z" fill="#FAAFAF" fill-opacity="0.5"/>
<path d="M11.9194 39.6332C11.9194 34.9763 15.6946 31.2012 20.3515 31.2012H44.2863C48.7115 31.2012 52.2989 34.7885 52.2989 39.2137C52.2989 48.7294 44.5849 56.4434 35.0692 56.4434H20.3515C15.6946 56.4434 11.9194 52.6683 11.9194 48.0114V39.6332Z" stroke="black" stroke-opacity="0.5" stroke-width="2.40916"/>
<path d="M50.7801 41.8949C50.7801 40.6685 55.134 39.6743 60.5048 39.6743C65.8756 39.6743 70.2295 40.6685 70.2295 41.8949C70.2295 43.1212 65.8756 41.893 60.5048 41.893C55.134 41.893 50.7801 43.1212 50.7801 41.8949Z" fill="#F7CE45"/>
</svg>
