<svg width="276" height="73" viewBox="0 0 276 73" fill="none" xmlns="http://www.w3.org/2000/svg">
<path d="M234.201 59.4146C214.014 67.5326 199.938 68.37 165.271 71.0693C130.605 73.7686 94.5375 72.9249 64.5552 68.7134C34.5729 64.5019 12.9785 57.2459 4.25436 48.4517C-4.4698 39.6574 0.346273 30.0003 17.7029 21.4847C35.0596 12.9692 63.6238 6.24924 97.4666 2.71977C131.309 -0.809697 167.832 -0.877643 199.452 2.53005C231.073 5.93774 255.364 12.5593 267.283 21.0204C279.201 29.4815 277.833 39.1322 263.461 47.9695L163.729 39.7103L234.201 59.4146Z" fill="url(#paint0_linear_85_178)"/>
<defs>
<linearGradient id="paint0_linear_85_178" x1="275.324" y1="32.7564" x2="0.00766248" y2="39.8877" gradientUnits="userSpaceOnUse">
<stop stop-color="#7EE9BF"/>
<stop offset="1" stop-color="#00D07E"/>
</linearGradient>
</defs>
</svg>
