<svg width="445" height="117" viewBox="0 0 445 117" fill="none" xmlns="http://www.w3.org/2000/svg">
<path d="M75.6677 103.463C112.105 114.596 137.092 114.7 198.686 115.969C260.281 117.238 324.047 112.759 376.749 103.463C429.451 94.1658 467.041 80.7652 481.717 66.0421C496.394 51.3189 487.029 36.4042 455.566 24.3935C424.104 12.3829 372.961 4.19883 312.752 1.5401C252.543 -1.11863 187.893 1.95215 132.221 10.1151C76.5491 18.278 34.1309 30.9061 13.771 45.3783C-6.58888 59.8504 -3.32671 75.0551 22.8804 87.8363L198.687 66.0421L75.6677 103.463Z" fill="url(#paint0_linear_85_180)"/>
<defs>
<linearGradient id="paint0_linear_85_180" x1="0.559717" y1="64.7129" x2="488.489" y2="52.0744" gradientUnits="userSpaceOnUse">
<stop stop-color="#7EE9BF"/>
<stop offset="1" stop-color="#00D07E"/>
</linearGradient>
</defs>
</svg>
