<svg width="1690" height="987" viewBox="0 0 1690 987" fill="none" xmlns="http://www.w3.org/2000/svg">
<path fill-rule="evenodd" clip-rule="evenodd" d="M287.389 788.707C256.932 748.228 325.649 703.939 404.692 689.375C520.337 730.078 565.476 715.393 621.477 707.584C724.567 723.303 778.273 744.318 814.231 758.926C855.151 775.55 838.274 811.265 830.62 843.021C820.464 885.16 761.507 895.095 664.483 872.455C572.475 858.426 550.409 862.288 480.202 851.673C420.317 842.62 295.389 821.533 287.389 788.707Z" fill="url(#paint0_linear_164_50)" stroke="#012758" stroke-width="5"/>
<path fill-rule="evenodd" clip-rule="evenodd" d="M1457.32 733.591C1498.14 767.173 1475.03 815.193 1429.95 837.223C1332.44 812.851 1309.93 831.243 1276.71 844.56C1200.25 841.606 1153.89 828.359 1122.58 819C1086.95 808.348 1079.99 773.884 1068.92 744.052C1054.23 704.466 1088.33 688.883 1164.28 698.824C1232.52 701.461 1245.22 695.498 1297.24 697.427C1341.62 699.073 1435.31 704.514 1457.32 733.591Z" fill="url(#paint1_linear_164_50)" stroke="#012758" stroke-width="5"/>
<ellipse cx="433.102" cy="249.627" rx="123.691" ry="106.554" fill="#D9D9D9"/>
<ellipse cx="314.358" cy="487.243" rx="92.7683" ry="79.9154" fill="#D9D9D9"/>
<path d="M796.753 477.119C737.382 513.88 660.596 580.877 609.361 580.877C410.219 601.655 538.239 477.119 576.583 414.253C627.297 348.722 632.96 414.253 684.194 414.253C763.357 414.253 821.492 447.817 796.753 477.119Z" fill="url(#paint2_linear_164_50)" stroke="#012758" stroke-width="5" stroke-linejoin="round"/>
<path d="M1162.94 323.424C1150.03 331.084 1133.33 345.044 1122.19 345.044C1078.89 349.374 1106.73 323.424 1115.07 310.324C1126.09 296.67 1126.12 313.766 1137.26 313.766C1154.47 313.766 1168.32 317.318 1162.94 323.424Z" fill="#FFF3E5" stroke="#012758" stroke-width="5"/>
<ellipse cx="1014.45" cy="487.243" rx="92.7683" ry="79.9154" fill="#D9D9D9"/>
<ellipse cx="1364.49" cy="487.243" rx="92.7683" ry="79.9154" fill="#D9D9D9"/>
<path fill-rule="evenodd" clip-rule="evenodd" d="M137.773 278.194C129.183 234.779 215.236 205.714 268.694 173.759C306.572 151.118 345.099 128.407 393.337 125.43C443.524 122.333 489.082 135.11 520.282 158.235C554.289 183.44 575.432 216.401 564.532 252.317C552.399 292.292 518.923 334.167 461.453 352.073C405.973 369.359 349.459 322.836 300.181 318.655C217.876 319.831 146.383 321.709 137.773 278.194Z" fill="url(#paint3_linear_164_50)" stroke="#012758" stroke-width="5"/>
<path fill-rule="evenodd" clip-rule="evenodd" d="M6.81896 362.261C4.56774 351.059 25.4811 343.8 38.4237 335.712C47.5943 329.981 56.9234 324.233 68.6937 323.593C80.9396 322.927 92.1111 326.337 99.8126 332.374C108.207 338.954 113.487 347.497 110.952 356.717C108.13 366.98 100.102 377.675 86.1302 382.135C72.6419 386.441 58.6753 374.313 46.6258 373.107C26.529 373.194 9.07543 373.49 6.81896 362.261Z" fill="url(#paint4_linear_164_50)" stroke="#012758" stroke-width="5"/>
<path fill-rule="evenodd" clip-rule="evenodd" d="M1652.73 69.6269C1720.7 70.8701 1651.26 105.1 1645.9 125.183C1642.11 139.413 1638.13 153.742 1623.96 160.081C1609.23 166.676 1586.03 157.442 1567.83 150.127C1547.99 142.153 1533.62 137.436 1524.1 119.943C1513.51 100.473 1508.98 77.9339 1520.67 63.8379C1531.96 50.2302 1562.61 61.1736 1569.59 63.244C1597.91 71.6513 1623.68 71.6856 1652.73 69.6269Z" fill="url(#paint5_linear_164_50)" stroke="#012758" stroke-width="5"/>
<path fill-rule="evenodd" clip-rule="evenodd" d="M10.5002 433.442C9.06435 426.471 20.7861 422.195 27.9881 417.319C33.0911 413.863 38.2836 410.4 44.9307 410.13C51.8465 409.849 58.2138 412.084 62.6569 415.91C67.4998 420.081 70.6099 425.436 69.31 431.126C67.8633 437.46 63.4787 444.006 55.6417 446.621C48.0762 449.146 40.0015 441.474 33.1697 440.597C21.8056 440.434 11.9393 440.43 10.5002 433.442Z" fill="url(#paint6_linear_164_50)" stroke="#012758" stroke-width="5"/>
<path fill-rule="evenodd" clip-rule="evenodd" d="M1609.92 612.66C1607.17 627.366 1573.3 628.451 1550.42 633.571C1534.2 637.198 1517.75 640.786 1500.52 637.136C1482.6 633.337 1468.39 624.904 1460.55 614.53C1452.01 603.223 1448.99 590.663 1457.54 580.215C1467.06 568.587 1484.28 558.387 1506.71 558.144C1528.35 557.909 1541.93 578.182 1558.58 584.221C1587.46 591.699 1612.66 597.92 1609.92 612.66Z" fill="url(#paint7_linear_164_50)" stroke="#012758" stroke-width="5"/>
<path fill-rule="evenodd" clip-rule="evenodd" d="M1615.33 495.251C1638.01 496.913 1643.47 510.607 1653.82 520.023C1661.16 526.695 1668.47 533.46 1664.85 540.266C1661.09 547.347 1649.86 552.755 1634.96 555.518C1618.71 558.531 1599.95 559.273 1583.09 555.43C1564.34 551.153 1546.89 543.826 1544 534.779C1541.21 526.045 1570.52 521.343 1577.84 514.862C1585.97 503.506 1592.6 493.585 1615.33 495.251Z" fill="#FFF3E5" stroke="#012758" stroke-width="5"/>
<path fill-rule="evenodd" clip-rule="evenodd" d="M332.912 398.1C363.992 417.956 401.292 403.704 423.347 420.148C445.357 436.558 440.904 462.844 438.327 485.855C436.026 506.416 428.98 526.553 409.757 541.533C390 556.93 362.924 565.013 334.306 566.918C302.389 569.043 270.424 565.839 243.89 552.577C210.769 536.023 171.741 515.373 172.116 485.855C172.49 456.399 205.408 424.851 238.906 408.832C305.7 385.391 319.306 386.989 332.912 398.1Z" fill="url(#paint8_linear_164_50)" stroke="#012758" stroke-width="5"/>
<path fill-rule="evenodd" clip-rule="evenodd" d="M1047.81 390.83C1073.4 390.909 1110.69 386.867 1131.93 399.538C1161.79 417.348 1174.79 446.079 1183.77 477.027C1193.98 512.232 1184.16 556.61 1150.92 577.804C1118.91 598.217 1076.91 568.817 1037.54 570.268C994.417 571.859 891.835 607.784 858.958 582.932C826.437 558.348 926.522 496.318 910.871 474.802C869.789 414.355 898.736 416.665 955.469 403.637C997.855 393.904 1022.15 390.75 1047.81 390.83Z" fill="url(#paint9_linear_164_50)" stroke="#012758" stroke-width="5" stroke-linejoin="round"/>
<path fill-rule="evenodd" clip-rule="evenodd" d="M447.504 589.631C452.79 589.644 460.497 588.939 464.887 591.151C471.056 594.261 473.741 599.277 475.597 604.681C477.708 610.828 475.679 618.576 468.811 622.277C462.196 625.841 453.515 620.708 445.381 620.961C436.47 621.239 415.272 627.511 408.478 623.172C401.758 618.88 422.44 608.049 419.206 604.292C410.716 593.738 416.698 594.141 428.421 591.867C437.18 590.167 442.201 589.617 447.504 589.631Z" fill="#FFF3E5" stroke="#012758" stroke-width="5" stroke-linejoin="round"/>
<path fill-rule="evenodd" clip-rule="evenodd" d="M1236.38 640.812C1231.78 638.577 1224.65 635.951 1222.08 632.174C1218.45 626.866 1218.95 621.358 1220.4 615.862C1222.04 609.61 1228.2 603.701 1236.29 603.36C1244.08 603.032 1248.75 611.162 1255.99 614.362C1263.93 617.868 1285.98 621.309 1289.45 627.953C1292.88 634.526 1268.7 635.279 1269.39 639.918C1270.82 652.7 1265.83 649.832 1254.31 646.886C1245.7 644.686 1241 643.055 1236.38 640.812Z" fill="#FFF3E5" stroke="#012758" stroke-width="5" stroke-linejoin="round"/>
<path fill-rule="evenodd" clip-rule="evenodd" d="M780.692 610.505C774.378 612.132 765.561 615.607 759.142 613.619C750.119 610.825 744.235 604.052 739.133 596.433C733.33 587.765 731.609 575.376 737.825 567.62C743.812 560.15 756.911 565.231 766.48 562.309C776.962 559.109 798.898 542.982 809.322 547.446C819.633 551.863 800.749 574.744 806.615 579.435C822.383 592.8 815.031 594.054 802.261 601.161C792.72 606.471 787.025 608.872 780.692 610.505Z" fill="#FFF3E5" stroke="#012758" stroke-width="5" stroke-linejoin="round"/>
<path fill-rule="evenodd" clip-rule="evenodd" d="M1657.94 361.671C1664.7 367.415 1676.2 374.336 1676.83 383.507C1677.7 396.397 1669.77 409.333 1659.9 422.147C1648.67 436.723 1628.49 450.028 1611.27 450.003C1594.69 449.979 1595.18 430.327 1584.15 422.039C1572.07 412.959 1530.61 402.586 1531.73 386.562C1532.83 370.711 1583.96 371.41 1588.33 360.4C1601.36 330.112 1608.13 337.386 1628.35 345.512C1643.46 351.583 1651.16 355.91 1657.94 361.671Z" fill="url(#paint10_linear_164_50)" stroke="#012758" stroke-width="5" stroke-linejoin="round"/>
<path fill-rule="evenodd" clip-rule="evenodd" d="M157.338 605.518C162.624 605.531 172.454 613.447 176.843 615.659C183.013 618.769 188.563 622.908 190.419 628.312C192.53 634.459 173.786 637.93 166.918 641.631C165.062 643.762 165.472 645.216 157.338 645.469C148.427 645.747 127.229 652.019 120.435 647.68C113.715 643.388 131.807 632.068 128.573 628.312C120.084 617.757 124.676 614.186 136.399 611.911C145.158 610.211 152.035 605.504 157.338 605.518Z" fill="#FFF3E5" stroke="#012758" stroke-width="5" stroke-linejoin="round"/>
<path fill-rule="evenodd" clip-rule="evenodd" d="M1340.38 404.811C1420.16 387.762 1461.57 390.703 1495.75 408.546C1533.07 428.024 1569.6 457.794 1558.58 487.734C1547.94 516.624 1482.48 516.514 1448.54 536.809C1416.97 555.682 1414.51 596.016 1371.59 599.526C1328.6 603.043 1303.49 598.706 1275.82 577.429C1251.57 558.782 1258.5 542.266 1272 487.734C1268.95 461.438 1225.7 427.662 1254.17 408.546C1282.65 389.431 1298.32 405.78 1340.38 404.811Z" fill="url(#paint11_linear_164_50)" stroke="#012758" stroke-width="5"/>
<path fill-rule="evenodd" clip-rule="evenodd" d="M667.161 336.215C636.996 308.302 659.833 257.806 676.66 215.566C689.884 182.368 714.044 152.86 748.573 131.846C783.477 110.603 823.015 99.3286 860.044 103.958C902.183 109.227 937.882 126.616 956.401 157.832C980.974 199.253 1012.3 251.75 974.549 296.97C937.085 341.842 866.021 328.936 807.283 336.436C757.181 342.832 697.794 364.56 667.161 336.215Z" fill="url(#paint12_linear_164_50)" stroke="#012758" stroke-width="5"/>
<path fill-rule="evenodd" clip-rule="evenodd" d="M1485.45 152.429C1515.59 183.488 1584.36 207.315 1556.97 250.571C1529.29 294.294 1444.52 291.274 1384.54 311.807C1341.79 326.442 1327.83 354.083 1287.74 349.663C1247.69 345.248 1214.86 312.851 1192.86 290.676C1163.37 260.94 1099.11 244.857 1112.08 202.319C1125.45 158.458 1192.18 123.45 1250.57 101.389C1302.7 81.6893 1356.84 82.1603 1403.34 92.2632C1444.01 101.102 1462.01 128.282 1485.45 152.429Z" fill="url(#paint13_linear_164_50)" stroke="#012758" stroke-width="5"/>
<path fill-rule="evenodd" clip-rule="evenodd" d="M188.437 566.07C179.766 583.664 150.62 579.843 129.038 582.635C113.747 584.613 98.2725 586.506 85.2636 579.415C71.729 572.038 63.3402 559.548 61.1895 545.651C58.8453 530.505 61.7108 514.662 73.4625 503.166C86.5422 490.371 105.524 480.498 124.613 483.609C143.041 486.612 145.777 513.506 157.261 523.434C178.482 536.983 197.128 548.434 188.437 566.07Z" fill="url(#paint14_linear_164_50)" stroke="#012758" stroke-width="5"/>
<defs>
<linearGradient id="paint0_linear_164_50" x1="611.796" y1="755.376" x2="580.621" y2="919.162" gradientUnits="userSpaceOnUse">
<stop offset="0.245856" stop-color="#FFF3E5"/>
<stop offset="1" stop-color="#999289"/>
</linearGradient>
<linearGradient id="paint1_linear_164_50" x1="1326.15" y1="706.211" x2="1282.62" y2="928.913" gradientUnits="userSpaceOnUse">
<stop offset="0.354141" stop-color="#FFF3E5"/>
<stop offset="0.942419" stop-color="#999289"/>
</linearGradient>
<linearGradient id="paint2_linear_164_50" x1="651.417" y1="388.869" x2="651.417" y2="583.187" gradientUnits="userSpaceOnUse">
<stop offset="0.720719" stop-color="#FFF3E5"/>
<stop offset="1" stop-color="#999289"/>
</linearGradient>
<linearGradient id="paint3_linear_164_50" x1="339.773" y1="134.14" x2="301.381" y2="359.697" gradientUnits="userSpaceOnUse">
<stop offset="0.608091" stop-color="#FFF3E5"/>
<stop offset="1" stop-color="#999289"/>
</linearGradient>
<linearGradient id="paint4_linear_164_50" x1="58.856" y1="325.092" x2="50.4287" y2="386.002" gradientUnits="userSpaceOnUse">
<stop offset="0.500363" stop-color="#FFF3E5"/>
<stop offset="1" stop-color="#999289"/>
</linearGradient>
<linearGradient id="paint5_linear_164_50" x1="1630.7" y1="26.8381" x2="1577.55" y2="166.263" gradientUnits="userSpaceOnUse">
<stop offset="0.727706" stop-color="#FFF3E5"/>
<stop offset="1" stop-color="#999289"/>
</linearGradient>
<linearGradient id="paint6_linear_164_50" x1="50.887" y1="408.792" x2="28.9882" y2="451.566" gradientUnits="userSpaceOnUse">
<stop offset="0.491517" stop-color="#FFF3E5"/>
<stop offset="1" stop-color="#999289"/>
</linearGradient>
<linearGradient id="paint7_linear_164_50" x1="1536.52" y1="560.769" x2="1529.01" y2="640.277" gradientUnits="userSpaceOnUse">
<stop offset="0.429104" stop-color="#FFF3E5"/>
<stop offset="1" stop-color="#999289"/>
</linearGradient>
<linearGradient id="paint8_linear_164_50" x1="306.318" y1="390.278" x2="306.318" y2="567.52" gradientUnits="userSpaceOnUse">
<stop offset="0.617217" stop-color="#FFF3E5"/>
<stop offset="1" stop-color="#999289"/>
</linearGradient>
<linearGradient id="paint9_linear_164_50" x1="1020.02" y1="390.278" x2="1020.02" y2="591.665" gradientUnits="userSpaceOnUse">
<stop offset="0.640585" stop-color="#FFF3E5"/>
<stop offset="1" stop-color="#999289"/>
</linearGradient>
<linearGradient id="paint10_linear_164_50" x1="1620.15" y1="329.49" x2="1597.26" y2="450.541" gradientUnits="userSpaceOnUse">
<stop offset="0.519985" stop-color="#FFF3E5"/>
<stop offset="1" stop-color="#999289"/>
</linearGradient>
<linearGradient id="paint11_linear_164_50" x1="1402.54" y1="393.475" x2="1402.54" y2="600.621" gradientUnits="userSpaceOnUse">
<stop offset="0.744906" stop-color="#FFF3E5"/>
<stop offset="1" stop-color="#999289"/>
</linearGradient>
<linearGradient id="paint12_linear_164_50" x1="827.659" y1="58.9713" x2="871.299" y2="434.337" gradientUnits="userSpaceOnUse">
<stop offset="0.51718" stop-color="#FFF3E5"/>
<stop offset="0.824564" stop-color="#999289"/>
</linearGradient>
<linearGradient id="paint13_linear_164_50" x1="1331.35" y1="61.1395" x2="1279.51" y2="358.485" gradientUnits="userSpaceOnUse">
<stop offset="0.694964" stop-color="#FFF3E5"/>
<stop offset="1" stop-color="#999289"/>
</linearGradient>
<linearGradient id="paint14_linear_164_50" x1="148.717" y1="491.357" x2="115.882" y2="590.204" gradientUnits="userSpaceOnUse">
<stop offset="0.63528" stop-color="#FFF3E5"/>
<stop offset="1" stop-color="#999289"/>
</linearGradient>
</defs>
</svg>
