<svg width="812" height="227" viewBox="0 0 812 227" fill="none" xmlns="http://www.w3.org/2000/svg">
<mask id="path-1-outside-1_158_292" maskUnits="userSpaceOnUse" x="191.453" y="50.1388" width="116.511" height="122.954" fill="black">
<rect fill="white" x="191.453" y="50.1388" width="116.511" height="122.954"/>
<path d="M271.147 115.282C274.726 95.5506 269.463 84.4054 255.358 81.8462C241.252 79.287 232.409 87.873 228.829 107.604C225.25 127.335 230.512 138.481 244.618 141.04C258.724 143.599 267.567 135.013 271.147 115.282ZM275.167 151.916C265.935 158.827 254.685 161.079 241.419 158.672C228.153 156.265 218.412 150.205 212.195 140.491C205.994 130.693 204.234 118.406 206.915 103.628C209.596 88.8509 215.553 78.0068 224.786 71.0959C234.034 64.1011 245.291 61.8072 258.557 64.214C271.823 66.6209 281.556 72.7232 287.758 82.5209C293.974 92.2347 295.742 104.48 293.061 119.258C290.38 134.035 284.415 144.921 275.167 151.916Z"/>
</mask>
<path d="M271.147 115.282C274.726 95.5506 269.463 84.4054 255.358 81.8462C241.252 79.287 232.409 87.873 228.829 107.604C225.25 127.335 230.512 138.481 244.618 141.04C258.724 143.599 267.567 135.013 271.147 115.282ZM275.167 151.916C265.935 158.827 254.685 161.079 241.419 158.672C228.153 156.265 218.412 150.205 212.195 140.491C205.994 130.693 204.234 118.406 206.915 103.628C209.596 88.8509 215.553 78.0068 224.786 71.0959C234.034 64.1011 245.291 61.8072 258.557 64.214C271.823 66.6209 281.556 72.7232 287.758 82.5209C293.974 92.2347 295.742 104.48 293.061 119.258C290.38 134.035 284.415 144.921 275.167 151.916Z" fill="url(#paint0_linear_158_292)"/>
<path d="M275.167 151.916L278.164 155.919L278.174 155.911L278.184 155.904L275.167 151.916ZM212.195 140.491L207.971 143.165L207.977 143.176L207.984 143.186L212.195 140.491ZM224.786 71.0959L227.782 75.0988L227.792 75.0913L227.802 75.0837L224.786 71.0959ZM287.758 82.5209L283.533 85.1949L283.539 85.2055L283.546 85.216L287.758 82.5209ZM276.066 116.174C277.936 105.871 277.683 96.9306 274.405 89.9895C270.965 82.7045 264.595 78.4404 256.25 76.9265L254.465 86.7659C260.227 87.8112 263.54 90.3992 265.363 94.2595C267.348 98.4636 267.937 104.961 266.227 114.389L276.066 116.174ZM256.25 76.9265C247.906 75.4126 240.443 77.1669 234.663 82.7791C229.156 88.1264 225.779 96.4084 223.91 106.712L233.749 108.497C235.46 99.0689 238.294 93.1923 241.629 89.9535C244.692 86.9797 248.704 85.7206 254.465 86.7659L256.25 76.9265ZM223.91 106.712C222.04 117.015 222.293 125.955 225.57 132.897C229.011 140.182 235.381 144.446 243.726 145.96L245.511 136.12C239.749 135.075 236.436 132.487 234.613 128.627C232.628 124.422 232.039 117.925 233.749 108.497L223.91 106.712ZM243.726 145.96C252.07 147.473 259.533 145.719 265.313 140.107C270.82 134.76 274.197 126.478 276.066 116.174L266.227 114.389C264.516 123.817 261.682 129.694 258.347 132.932C255.284 135.906 251.272 137.165 245.511 136.12L243.726 145.96ZM272.171 147.913C264.241 153.849 254.463 155.957 242.312 153.752L240.527 163.592C254.908 166.201 267.628 163.805 278.164 155.919L272.171 147.913ZM242.312 153.752C230.161 151.548 221.746 146.139 216.407 137.796L207.984 143.186C215.077 154.27 226.146 160.983 240.527 163.592L242.312 153.752ZM216.42 137.817C211.069 129.362 209.309 118.44 211.835 104.521L201.995 102.736C199.159 118.372 200.919 132.024 207.971 143.165L216.42 137.817ZM211.835 104.521C214.361 90.599 219.836 81.0463 227.782 75.0988L221.789 67.0931C211.27 74.9673 204.832 87.1028 201.995 102.736L211.835 104.521ZM227.802 75.0837C235.75 69.072 245.529 66.932 257.664 69.1337L259.449 59.2943C245.053 56.6824 232.317 59.1303 221.769 67.1082L227.802 75.0837ZM257.664 69.1337C269.8 71.3354 278.203 76.7742 283.533 85.1949L291.983 79.8469C284.91 68.6721 273.846 61.9063 259.449 59.2943L257.664 69.1337ZM283.546 85.216C288.896 93.5758 290.667 104.443 288.141 118.365L297.98 120.15C300.817 104.517 299.052 90.8935 291.969 79.8257L283.546 85.216ZM288.141 118.365C285.616 132.284 280.131 141.892 272.151 147.928L278.184 155.904C288.699 147.95 295.144 135.786 297.98 120.15L288.141 118.365Z" fill="#012758" mask="url(#path-1-outside-1_158_292)"/>
<mask id="path-3-outside-2_158_292" maskUnits="userSpaceOnUse" x="502.578" y="51.2951" width="109.642" height="116.762" fill="black">
<rect fill="white" x="502.578" y="51.2951" width="109.642" height="116.762"/>
<path d="M579.005 107.184C576.909 87.2406 568.732 78.0181 554.475 79.5167C540.217 81.0152 534.136 91.7362 536.233 111.68C538.329 131.623 546.505 140.846 560.763 139.347C575.02 137.849 581.101 127.128 579.005 107.184ZM593.136 141.221C586.212 150.444 576.045 155.76 562.636 157.169C549.227 158.578 538.178 155.492 529.487 147.911C520.787 140.245 515.652 128.944 514.083 114.008C512.513 99.0713 515.19 86.992 522.115 77.7696C529.03 68.4624 539.193 63.1042 552.601 61.6948C566.01 60.2855 577.064 63.4138 585.764 71.0798C594.455 78.6609 599.585 89.9197 601.155 104.856C602.725 119.792 600.052 131.914 593.136 141.221Z"/>
</mask>
<path d="M579.005 107.184C576.909 87.2406 568.732 78.0181 554.475 79.5167C540.217 81.0152 534.136 91.7362 536.233 111.68C538.329 131.623 546.505 140.846 560.763 139.347C575.02 137.849 581.101 127.128 579.005 107.184ZM593.136 141.221C586.212 150.444 576.045 155.76 562.636 157.169C549.227 158.578 538.178 155.492 529.487 147.911C520.787 140.245 515.652 128.944 514.083 114.008C512.513 99.0713 515.19 86.992 522.115 77.7696C529.03 68.4624 539.193 63.1042 552.601 61.6948C566.01 60.2855 577.064 63.4138 585.764 71.0798C594.455 78.6609 599.585 89.9197 601.155 104.856C602.725 119.792 600.052 131.914 593.136 141.221Z" fill="url(#paint1_linear_158_292)"/>
<path d="M593.136 141.221L597.135 144.224L597.142 144.214L597.15 144.204L593.136 141.221ZM529.487 147.911L526.181 151.663L526.191 151.671L526.2 151.679L529.487 147.911ZM522.115 77.7696L526.113 80.7718L526.121 80.7618L526.128 80.7517L522.115 77.7696ZM585.764 71.0798L582.458 74.8312L582.468 74.8394L582.477 74.8477L585.764 71.0798ZM583.978 106.661C582.883 96.2473 580.134 87.7362 575.041 81.9926C569.697 75.9644 562.386 73.6576 553.952 74.5441L554.997 84.4893C560.821 83.8772 564.727 85.4324 567.559 88.6267C570.643 92.1055 573.031 98.1774 574.032 107.707L583.978 106.661ZM553.952 74.5441C545.518 75.4305 538.846 79.2069 534.872 86.2146C531.085 92.8915 530.165 101.788 531.26 112.202L541.205 111.157C540.204 101.628 541.276 95.1921 543.57 91.148C545.676 87.4347 549.174 85.1013 554.997 84.4893L553.952 74.5441ZM531.26 112.202C532.354 122.616 535.104 131.128 540.196 136.871C545.541 142.899 552.852 145.206 561.286 144.32L560.24 134.374C554.417 134.987 550.511 133.431 547.678 130.237C544.594 126.758 542.207 120.686 541.205 111.157L531.26 112.202ZM561.286 144.32C569.72 143.433 576.391 139.657 580.366 132.649C584.153 125.972 585.072 117.076 583.978 106.661L574.032 107.707C575.034 117.236 573.961 123.672 571.667 127.716C569.561 131.429 566.064 133.762 560.24 134.374L561.286 144.32ZM589.138 138.219C583.19 146.141 574.395 150.905 562.113 152.196L563.159 162.142C577.694 160.614 589.233 154.747 597.135 144.224L589.138 138.219ZM562.113 152.196C549.832 153.487 540.238 150.655 532.774 144.143L526.2 151.679C536.117 160.33 548.623 163.669 563.159 162.142L562.113 152.196ZM532.792 144.16C525.285 137.545 520.534 127.554 519.055 113.485L509.11 114.53C510.771 130.334 516.289 142.946 526.181 151.663L532.792 144.16ZM519.055 113.485C517.576 99.4134 520.154 88.7086 526.113 80.7718L518.116 74.7674C510.226 85.2753 507.449 98.7292 509.11 114.53L519.055 113.485ZM526.128 80.7517C532.072 72.7526 540.858 67.9567 553.124 66.6674L552.079 56.7222C537.527 58.2517 525.989 64.1722 518.101 74.7875L526.128 80.7517ZM553.124 66.6674C565.39 65.3782 574.981 68.2426 582.458 74.8312L589.07 67.3284C579.147 58.5851 566.63 55.1928 552.079 56.7222L553.124 66.6674ZM582.477 74.8477C589.957 81.3721 594.703 91.307 596.182 105.379L606.128 104.333C604.467 88.5323 598.953 75.9498 589.051 67.3119L582.477 74.8477ZM596.182 105.379C597.661 119.447 595.09 130.208 589.123 138.239L597.15 144.204C605.013 133.62 607.789 120.138 606.128 104.333L596.182 105.379Z" fill="#012758" mask="url(#path-3-outside-2_158_292)"/>
<mask id="path-5-outside-3_158_292" maskUnits="userSpaceOnUse" x="310.71" y="56.8312" width="99.9184" height="116.92" fill="black">
<rect fill="white" x="310.71" y="56.8312" width="99.9184" height="116.92"/>
<path d="M340.857 166.549C338.925 166.892 337.118 166.477 335.436 165.302C333.753 164.128 332.741 162.575 332.397 160.642L318.599 83.0108C318.256 81.0784 318.672 79.2711 319.846 77.589C321.02 75.9068 322.574 74.8941 324.506 74.5506L330.681 73.4531C335.47 72.6019 339.33 74.0826 342.261 77.8952L377.619 123.223C377.634 123.307 377.683 123.342 377.767 123.327C377.851 123.312 377.886 123.263 377.871 123.179L369.135 74.0288C368.792 72.0964 369.208 70.2892 370.382 68.607C371.556 66.9249 373.11 65.9121 375.042 65.5687L381.217 64.4711C383.15 64.1277 384.957 64.5431 386.639 65.7176C388.321 66.892 389.334 68.4454 389.678 70.3778L403.475 148.009C403.819 149.942 403.403 151.749 402.229 153.431C401.054 155.113 399.501 156.126 397.569 156.469L391.393 157.567C386.604 158.418 382.744 156.937 379.813 153.125L344.456 107.797C344.441 107.713 344.391 107.678 344.307 107.693C344.223 107.708 344.189 107.757 344.204 107.841L352.939 156.991C353.283 158.924 352.867 160.731 351.693 162.413C350.518 164.095 348.965 165.108 347.033 165.451L340.857 166.549Z"/>
</mask>
<path d="M340.857 166.549C338.925 166.892 337.118 166.477 335.436 165.302C333.753 164.128 332.741 162.575 332.397 160.642L318.599 83.0108C318.256 81.0784 318.672 79.2711 319.846 77.589C321.02 75.9068 322.574 74.8941 324.506 74.5506L330.681 73.4531C335.47 72.6019 339.33 74.0826 342.261 77.8952L377.619 123.223C377.634 123.307 377.683 123.342 377.767 123.327C377.851 123.312 377.886 123.263 377.871 123.179L369.135 74.0288C368.792 72.0964 369.208 70.2892 370.382 68.607C371.556 66.9249 373.11 65.9121 375.042 65.5687L381.217 64.4711C383.15 64.1277 384.957 64.5431 386.639 65.7176C388.321 66.892 389.334 68.4454 389.678 70.3778L403.475 148.009C403.819 149.942 403.403 151.749 402.229 153.431C401.054 155.113 399.501 156.126 397.569 156.469L391.393 157.567C386.604 158.418 382.744 156.937 379.813 153.125L344.456 107.797C344.441 107.713 344.391 107.678 344.307 107.693C344.223 107.708 344.189 107.757 344.204 107.841L352.939 156.991C353.283 158.924 352.867 160.731 351.693 162.413C350.518 164.095 348.965 165.108 347.033 165.451L340.857 166.549Z" fill="url(#paint2_linear_158_292)"/>
<path d="M335.436 165.302L332.573 169.402L335.436 165.302ZM319.846 77.589L315.746 74.7267L315.746 74.7267L319.846 77.589ZM342.261 77.8952L338.297 80.9427L338.308 80.9566L338.319 80.9705L342.261 77.8952ZM377.619 123.223L382.542 122.348L382.325 121.127L381.561 120.148L377.619 123.223ZM370.382 68.607L366.282 65.7447L366.282 65.7447L370.382 68.607ZM386.639 65.7176L389.501 61.6179L389.501 61.6179L386.639 65.7176ZM379.813 153.125L383.777 150.077L383.767 150.063L383.756 150.049L379.813 153.125ZM344.456 107.797L339.533 108.672L339.75 109.893L340.513 110.872L344.456 107.797ZM351.693 162.413L355.792 165.275L355.792 165.275L351.693 162.413ZM339.982 161.626C339.42 161.726 338.948 161.656 338.298 161.203L332.573 169.402C335.288 171.297 338.43 172.059 341.732 171.472L339.982 161.626ZM338.298 161.203C337.648 160.749 337.42 160.33 337.32 159.767L327.474 161.517C328.061 164.82 329.859 167.507 332.573 169.402L338.298 161.203ZM337.32 159.767L323.522 82.1358L313.677 83.8857L327.474 161.517L337.32 159.767ZM323.522 82.1358C323.422 81.5735 323.492 81.101 323.946 80.4513L315.746 74.7267C313.851 77.4413 313.09 80.5833 313.677 83.8857L323.522 82.1358ZM323.946 80.4513C324.399 79.8016 324.819 79.5734 325.381 79.4735L323.631 69.6278C320.329 70.2147 317.642 72.0121 315.746 74.7267L323.946 80.4513ZM325.381 79.4735L331.556 78.3759L329.806 68.5302L323.631 69.6278L325.381 79.4735ZM331.556 78.3759C333.215 78.081 334.436 78.2324 335.377 78.5935C336.315 78.9533 337.3 79.6454 338.297 80.9427L346.225 74.8478C344.292 72.3324 341.881 70.3778 338.959 69.2569C336.04 68.1373 332.936 67.9739 329.806 68.5302L331.556 78.3759ZM338.319 80.9705L373.677 126.299L381.561 120.148L346.204 74.82L338.319 80.9705ZM372.696 124.098C372.838 124.899 373.309 126.368 374.805 127.412C376.3 128.456 377.841 128.392 378.642 128.25L376.892 118.404C377.609 118.277 379.084 118.203 380.53 119.213C381.976 120.222 382.414 121.632 382.542 122.348L372.696 124.098ZM378.642 128.25C379.443 128.107 380.912 127.636 381.956 126.141C383 124.645 382.936 123.104 382.794 122.304L372.948 124.054C372.821 123.337 372.747 121.862 373.757 120.416C374.766 118.97 376.176 118.532 376.892 118.404L378.642 128.25ZM382.794 122.304L374.058 73.1539L364.213 74.9038L372.948 124.054L382.794 122.304ZM374.058 73.1539C373.958 72.5915 374.028 72.119 374.482 71.4693L366.282 65.7447C364.387 68.4593 363.626 71.6013 364.213 74.9038L374.058 73.1539ZM374.482 71.4693C374.935 70.8196 375.355 70.5915 375.917 70.4915L374.167 60.6458C370.865 61.2328 368.178 63.0302 366.282 65.7447L374.482 71.4693ZM375.917 70.4915L382.092 69.394L380.342 59.5483L374.167 60.6458L375.917 70.4915ZM382.092 69.394C382.655 69.294 383.127 69.3636 383.777 69.8172L389.501 61.6179C386.787 59.7227 383.645 58.9613 380.342 59.5483L382.092 69.394ZM383.777 69.8172C384.427 70.2709 384.655 70.6904 384.755 71.2528L394.6 69.5028C394.013 66.2004 392.216 63.5132 389.501 61.6179L383.777 69.8172ZM384.755 71.2528L398.552 148.884L408.398 147.134L394.6 69.5028L384.755 71.2528ZM398.552 148.884C398.652 149.446 398.583 149.919 398.129 150.569L406.328 156.293C408.224 153.579 408.985 150.437 408.398 147.134L398.552 148.884ZM398.129 150.569C397.676 151.218 397.256 151.447 396.694 151.546L398.444 161.392C401.746 160.805 404.433 159.008 406.328 156.293L398.129 150.569ZM396.694 151.546L390.518 152.644L392.268 162.49L398.444 161.392L396.694 151.546ZM390.518 152.644C388.859 152.939 387.639 152.788 386.697 152.426C385.759 152.067 384.775 151.375 383.777 150.077L375.849 156.172C377.783 158.688 380.194 160.642 383.116 161.763C386.034 162.883 389.138 163.046 392.268 162.49L390.518 152.644ZM383.756 150.049L348.398 104.721L340.513 110.872L375.871 156.2L383.756 150.049ZM349.379 106.922C349.236 106.121 348.765 104.652 347.27 103.608C345.774 102.564 344.233 102.628 343.432 102.77L345.182 112.616C344.465 112.743 342.991 112.817 341.545 111.807C340.099 110.798 339.66 109.388 339.533 108.672L349.379 106.922ZM343.432 102.77C342.632 102.912 341.163 103.383 340.119 104.879C339.075 106.374 339.138 107.915 339.281 108.716L349.127 106.966C349.254 107.683 349.328 109.158 348.318 110.604C347.308 112.05 345.899 112.488 345.182 112.616L343.432 102.77ZM339.281 108.716L348.016 157.866L357.862 156.116L349.127 106.966L339.281 108.716ZM348.016 157.866C348.116 158.428 348.047 158.901 347.593 159.551L355.792 165.275C357.688 162.561 358.449 159.419 357.862 156.116L348.016 157.866ZM347.593 159.551C347.14 160.2 346.72 160.428 346.158 160.528L347.908 170.374C351.21 169.787 353.897 167.99 355.792 165.275L347.593 159.551ZM346.158 160.528L339.982 161.626L341.732 171.472L347.908 170.374L346.158 160.528Z" fill="#012758" mask="url(#path-5-outside-3_158_292)"/>
<mask id="path-7-outside-4_158_292" maskUnits="userSpaceOnUse" x="611.647" y="60.3439" width="92.8345" height="114.413" fill="black">
<rect fill="white" x="611.647" y="60.3439" width="92.8345" height="114.413"/>
<path d="M648.976 87.3436L645.816 111.716C645.718 112.477 646.007 112.902 646.684 112.99L652.777 113.78C658.701 114.547 663.387 113.907 666.836 111.859C670.297 109.726 672.317 106.417 672.899 101.932C674.04 93.131 668.813 87.9791 657.22 86.4762C654.596 86.1361 652.289 86.0091 650.299 86.0953C649.516 86.1659 649.074 86.5819 648.976 87.3436ZM625.205 161.188C623.259 160.936 621.66 159.997 620.408 158.372C619.155 156.747 618.656 154.961 618.908 153.015L628.962 75.456C629.236 73.3404 630.149 71.6087 631.7 70.261C633.337 68.9242 635.181 68.3028 637.234 68.3969C644.864 68.6116 652.657 69.2345 660.612 70.2657C673.306 71.9112 682.429 75.5462 687.981 81.1707C693.629 86.7215 695.882 93.8974 694.742 102.698C694.007 108.368 691.693 113.274 687.8 117.416C683.918 121.473 679.185 124.13 673.602 125.385C673.517 125.374 673.469 125.411 673.458 125.495C673.436 125.665 673.51 125.76 673.679 125.782C677.519 128.689 680.383 134.137 682.273 142.127L687.008 162.359C687.392 164.044 686.983 165.54 685.781 166.847C684.579 168.154 683.131 168.698 681.439 168.478L673.696 167.474C671.495 167.189 669.589 166.297 667.976 164.797C666.364 163.297 665.351 161.488 664.937 159.369L660.96 140.267C660.236 136.559 659.11 133.961 657.582 132.472C656.054 130.984 653.513 130.009 649.958 129.548L644.627 128.857C643.95 128.769 643.562 129.106 643.463 129.868L640.106 155.763C639.854 157.709 638.915 159.309 637.29 160.561C635.665 161.813 633.879 162.313 631.933 162.061L625.205 161.188Z"/>
</mask>
<path d="M648.976 87.3436L645.816 111.716C645.718 112.477 646.007 112.902 646.684 112.99L652.777 113.78C658.701 114.547 663.387 113.907 666.836 111.859C670.297 109.726 672.317 106.417 672.899 101.932C674.04 93.131 668.813 87.9791 657.22 86.4762C654.596 86.1361 652.289 86.0091 650.299 86.0953C649.516 86.1659 649.074 86.5819 648.976 87.3436ZM625.205 161.188C623.259 160.936 621.66 159.997 620.408 158.372C619.155 156.747 618.656 154.961 618.908 153.015L628.962 75.456C629.236 73.3404 630.149 71.6087 631.7 70.261C633.337 68.9242 635.181 68.3028 637.234 68.3969C644.864 68.6116 652.657 69.2345 660.612 70.2657C673.306 71.9112 682.429 75.5462 687.981 81.1707C693.629 86.7215 695.882 93.8974 694.742 102.698C694.007 108.368 691.693 113.274 687.8 117.416C683.918 121.473 679.185 124.13 673.602 125.385C673.517 125.374 673.469 125.411 673.458 125.495C673.436 125.665 673.51 125.76 673.679 125.782C677.519 128.689 680.383 134.137 682.273 142.127L687.008 162.359C687.392 164.044 686.983 165.54 685.781 166.847C684.579 168.154 683.131 168.698 681.439 168.478L673.696 167.474C671.495 167.189 669.589 166.297 667.976 164.797C666.364 163.297 665.351 161.488 664.937 159.369L660.96 140.267C660.236 136.559 659.11 133.961 657.582 132.472C656.054 130.984 653.513 130.009 649.958 129.548L644.627 128.857C643.95 128.769 643.562 129.106 643.463 129.868L640.106 155.763C639.854 157.709 638.915 159.309 637.29 160.561C635.665 161.813 633.879 162.313 631.933 162.061L625.205 161.188Z" fill="url(#paint3_linear_158_292)"/>
<path d="M666.836 111.859L669.389 116.158L669.425 116.137L669.46 116.115L666.836 111.859ZM650.299 86.0953L650.083 81.1L649.967 81.105L649.851 81.1155L650.299 86.0953ZM620.408 158.372L616.447 161.424L620.408 158.372ZM631.7 70.261L628.537 66.389L628.478 66.4368L628.421 66.4863L631.7 70.261ZM637.234 68.3969L637.005 73.3916L637.049 73.3937L637.093 73.3949L637.234 68.3969ZM687.981 81.1707L684.423 84.6833L684.449 84.7102L684.476 84.7367L687.981 81.1707ZM687.8 117.416L691.413 120.873L691.428 120.857L691.443 120.84L687.8 117.416ZM673.602 125.385L672.959 130.344L673.836 130.457L674.698 130.263L673.602 125.385ZM673.679 125.782L676.697 121.796L675.639 120.994L674.322 120.824L673.679 125.782ZM682.273 142.127L687.142 140.988L687.139 140.976L682.273 142.127ZM687.008 162.359L691.883 161.248L691.879 161.234L691.876 161.22L687.008 162.359ZM685.781 166.847L689.461 170.231L689.461 170.231L685.781 166.847ZM664.937 159.369L669.844 158.411L669.838 158.38L669.832 158.35L664.937 159.369ZM660.96 140.267L656.052 141.226L656.058 141.256L656.065 141.287L660.96 140.267ZM657.582 132.472L661.071 128.891L661.071 128.891L657.582 132.472ZM644.017 86.7008L640.858 111.073L650.775 112.358L653.934 87.9863L644.017 86.7008ZM640.858 111.073C640.727 112.084 640.72 113.795 641.826 115.419C643.016 117.167 644.777 117.784 646.041 117.948L647.327 108.031C647.914 108.107 649.191 108.468 650.092 109.792C650.909 110.991 650.807 112.109 650.775 112.358L640.858 111.073ZM646.041 117.948L652.134 118.738L653.42 108.821L647.327 108.031L646.041 117.948ZM652.134 118.738C658.647 119.582 664.608 118.997 669.389 116.158L664.283 107.56C662.166 108.817 658.754 109.513 653.42 108.821L652.134 118.738ZM669.46 116.115C674.359 113.096 677.107 108.364 677.857 102.575L667.94 101.289C667.528 104.471 666.234 106.357 664.213 107.603L669.46 116.115ZM677.857 102.575C678.582 96.9868 677.309 91.8139 673.345 87.9065C669.614 84.2284 664.146 82.3321 657.862 81.5177L656.577 91.4347C661.887 92.1231 664.83 93.5543 666.325 95.0281C667.587 96.2727 668.357 98.0763 667.94 101.289L677.857 102.575ZM657.862 81.5177C655.041 81.1519 652.436 80.9981 650.083 81.1L650.516 91.0907C652.143 91.0202 654.152 91.1203 656.577 91.4347L657.862 81.5177ZM649.851 81.1155C648.677 81.2211 647.201 81.643 645.95 82.8229C644.687 84.0146 644.175 85.487 644.017 86.7008L653.934 87.9863C653.876 88.4385 653.634 89.3221 652.811 90.0977C652.002 90.8614 651.137 91.0401 650.747 91.0752L649.851 81.1155ZM625.848 156.23C625.282 156.157 624.852 155.948 624.368 155.321L616.447 161.424C618.468 164.047 621.236 165.716 624.563 166.147L625.848 156.23ZM624.368 155.321C623.885 154.693 623.793 154.224 623.866 153.658L613.949 152.372C613.518 155.699 614.426 158.801 616.447 161.424L624.368 155.321ZM623.866 153.658L633.92 76.0988L624.003 74.8132L613.949 152.372L623.866 153.658ZM633.92 76.0988C634.044 75.1469 634.39 74.5474 634.979 74.0357L628.421 66.4863C625.908 68.67 624.428 71.5339 624.003 74.8132L633.92 76.0988ZM634.864 74.1329C635.576 73.5514 636.22 73.3557 637.005 73.3916L637.463 63.4021C634.142 63.25 631.097 64.297 628.537 66.389L634.864 74.1329ZM637.093 73.3949C644.548 73.6047 652.172 74.2136 659.969 75.2242L661.255 65.3072C653.142 64.2555 645.181 63.6185 637.375 63.3989L637.093 73.3949ZM659.969 75.2242C672.191 76.8086 680.008 80.2115 684.423 84.6833L691.539 77.658C684.849 70.881 674.42 67.0139 661.255 65.3072L659.969 75.2242ZM684.476 84.7367C688.861 89.0463 690.75 94.593 689.783 102.056L699.7 103.341C701.014 93.2018 698.397 84.3967 691.486 77.6046L684.476 84.7367ZM689.783 102.056C689.182 106.69 687.325 110.621 684.156 113.992L691.443 120.84C696.06 115.928 698.831 110.047 699.7 103.341L689.783 102.056ZM684.187 113.96C681 117.291 677.148 119.463 672.505 120.507L674.698 130.263C681.223 128.797 686.837 125.656 691.413 120.873L684.187 113.96ZM674.244 120.427C673.438 120.322 671.896 120.33 670.451 121.444C669.006 122.557 668.604 124.046 668.5 124.853L678.417 126.138C678.323 126.86 677.951 128.289 676.554 129.365C675.157 130.442 673.681 130.437 672.959 130.344L674.244 120.427ZM668.5 124.853C668.39 125.702 668.405 127.277 669.536 128.746C670.668 130.215 672.188 130.631 673.036 130.741L674.322 120.824C675.002 120.912 676.4 121.269 677.458 122.642C678.516 124.016 678.505 125.459 678.417 126.138L668.5 124.853ZM670.661 129.769C673.115 131.627 675.613 135.693 677.408 143.278L687.139 140.976C685.153 132.582 681.922 125.752 676.697 121.796L670.661 129.769ZM677.405 143.266L682.139 163.498L691.876 161.22L687.142 140.988L677.405 143.266ZM682.133 163.47C682.141 163.509 682.145 163.534 682.146 163.546C682.148 163.557 682.147 163.558 682.147 163.548C682.147 163.538 682.148 163.521 682.151 163.498C682.154 163.475 682.159 163.451 682.166 163.426C682.173 163.401 682.18 163.38 682.187 163.364C682.194 163.347 682.199 163.339 682.198 163.339C682.198 163.34 682.192 163.35 682.177 163.37C682.162 163.391 682.138 163.422 682.1 163.462L689.461 170.231C691.74 167.754 692.644 164.589 691.883 161.248L682.133 163.47ZM682.1 163.462C682.021 163.548 681.976 163.581 681.97 163.585C681.966 163.587 681.971 163.584 681.983 163.577C681.996 163.571 682.013 163.562 682.035 163.554C682.057 163.546 682.079 163.539 682.1 163.534C682.121 163.529 682.138 163.527 682.148 163.526C682.171 163.524 682.152 163.529 682.082 163.52L680.796 173.437C684.175 173.875 687.212 172.677 689.461 170.231L682.1 163.462ZM682.082 163.52L674.338 162.516L673.053 172.433L680.796 173.437L682.082 163.52ZM674.338 162.516C673.163 162.364 672.225 161.92 671.381 161.136L664.571 168.458C666.953 170.673 669.827 172.015 673.053 172.433L674.338 162.516ZM671.381 161.136C670.526 160.34 670.051 159.47 669.844 158.411L660.03 160.327C660.65 163.505 662.202 166.254 664.571 168.458L671.381 161.136ZM669.832 158.35L665.855 139.248L656.065 141.287L660.042 160.388L669.832 158.35ZM665.867 139.309C665.08 135.279 663.7 131.453 661.071 128.891L654.092 136.053C654.519 136.469 655.391 137.84 656.052 141.226L665.867 139.309ZM661.071 128.891C658.398 126.286 654.567 125.104 650.601 124.59L649.316 134.507C652.459 134.914 653.71 135.681 654.092 136.054L661.071 128.891ZM650.601 124.59L645.27 123.898L643.984 133.815L649.316 134.507L650.601 124.59ZM645.27 123.898C644.006 123.735 642.146 123.882 640.549 125.269C639.066 126.558 638.636 128.214 638.505 129.225L648.422 130.511C648.39 130.76 648.203 131.867 647.107 132.819C645.899 133.868 644.571 133.892 643.984 133.815L645.27 123.898ZM638.505 129.225L635.148 155.12L645.065 156.406L648.422 130.511L638.505 129.225ZM635.148 155.12C635.075 155.687 634.866 156.117 634.239 156.6L640.342 164.522C642.965 162.501 644.634 159.732 645.065 156.406L635.148 155.12ZM634.239 156.6C633.611 157.084 633.142 157.176 632.576 157.102L631.29 167.019C634.617 167.45 637.719 166.542 640.342 164.522L634.239 156.6ZM632.576 157.102L625.848 156.23L624.563 166.147L631.29 167.019L632.576 157.102Z" fill="#012758" mask="url(#path-7-outside-4_158_292)"/>
<mask id="path-9-outside-5_158_292" maskUnits="userSpaceOnUse" x="9.15574" y="43.0523" width="93.8161" height="119.214" fill="black">
<rect fill="white" x="9.15574" y="43.0523" width="93.8161" height="119.214"/>
<path d="M56.3018 111.904C45.0993 110.578 36.6772 107.892 31.0355 103.848C25.3778 99.7201 21.8577 94.0525 20.475 86.8453C18.9638 78.9676 20.4977 72.2435 25.0769 66.673C29.7238 61.0026 37.1593 57.1867 47.3836 55.2253C55.0936 53.7462 62.2602 53.2837 68.8832 53.8378C71.0071 54.0386 72.8325 54.9483 74.3594 56.567C75.9541 58.0857 76.9605 59.9346 77.3785 62.1135L78.0779 65.759C78.3994 67.4351 77.9363 68.8707 76.6884 70.0659C75.4406 71.2611 73.9642 71.7181 72.2594 71.4369C64.6536 70.2893 57.8338 70.2943 51.7998 71.4519C44.0897 72.931 40.8135 76.6875 41.971 82.7215C42.9517 87.8336 47.0033 90.836 54.1257 91.7288C66.3661 93.0299 75.1572 95.601 80.4992 99.442C85.925 103.267 89.3695 108.993 90.8325 116.619C94.2891 134.637 84.6618 145.824 61.9506 150.181C54.7433 151.564 47.9895 151.687 41.689 150.549C39.533 150.181 37.6915 149.187 36.1646 147.569C34.7053 145.85 33.7587 143.86 33.3246 141.597L32.5529 137.574C32.2635 136.066 32.7169 134.806 33.9131 133.794C35.0932 132.699 36.418 132.358 37.8875 132.771C44.584 134.614 51.1169 134.925 57.4861 133.703C61.9278 132.851 65.1192 131.37 67.0604 129.26C69.0693 127.05 69.7683 124.353 69.1574 121.168C68.6268 118.402 67.3966 116.292 65.4667 114.838C63.5368 113.383 60.4818 112.406 56.3018 111.904Z"/>
</mask>
<path d="M56.3018 111.904C45.0993 110.578 36.6772 107.892 31.0355 103.848C25.3778 99.7201 21.8577 94.0525 20.475 86.8453C18.9638 78.9676 20.4977 72.2435 25.0769 66.673C29.7238 61.0026 37.1593 57.1867 47.3836 55.2253C55.0936 53.7462 62.2602 53.2837 68.8832 53.8378C71.0071 54.0386 72.8325 54.9483 74.3594 56.567C75.9541 58.0857 76.9605 59.9346 77.3785 62.1135L78.0779 65.759C78.3994 67.4351 77.9363 68.8707 76.6884 70.0659C75.4406 71.2611 73.9642 71.7181 72.2594 71.4369C64.6536 70.2893 57.8338 70.2943 51.7998 71.4519C44.0897 72.931 40.8135 76.6875 41.971 82.7215C42.9517 87.8336 47.0033 90.836 54.1257 91.7288C66.3661 93.0299 75.1572 95.601 80.4992 99.442C85.925 103.267 89.3695 108.993 90.8325 116.619C94.2891 134.637 84.6618 145.824 61.9506 150.181C54.7433 151.564 47.9895 151.687 41.689 150.549C39.533 150.181 37.6915 149.187 36.1646 147.569C34.7053 145.85 33.7587 143.86 33.3246 141.597L32.5529 137.574C32.2635 136.066 32.7169 134.806 33.9131 133.794C35.0932 132.699 36.418 132.358 37.8875 132.771C44.584 134.614 51.1169 134.925 57.4861 133.703C61.9278 132.851 65.1192 131.37 67.0604 129.26C69.0693 127.05 69.7683 124.353 69.1574 121.168C68.6268 118.402 67.3966 116.292 65.4667 114.838C63.5368 113.383 60.4818 112.406 56.3018 111.904Z" fill="url(#paint4_linear_158_292)"/>
<path d="M56.3018 111.904L56.8974 106.94L56.8897 106.939L56.3018 111.904ZM31.0355 103.848L28.0885 107.887L28.1054 107.9L28.1225 107.912L31.0355 103.848ZM25.0769 66.673L28.9394 69.8481L28.9442 69.8422L25.0769 66.673ZM68.8832 53.8378L69.3538 48.86L69.3269 48.8575L69.3001 48.8552L68.8832 53.8378ZM74.3594 56.567L70.7224 59.998L70.8143 60.0954L70.9112 60.1877L74.3594 56.567ZM76.6884 70.0659L80.1469 73.6768L80.1469 73.6768L76.6884 70.0659ZM72.2594 71.4369L73.073 66.5036L73.0392 66.498L73.0054 66.4929L72.2594 71.4369ZM54.1257 91.7288L53.5039 96.6899L53.5505 96.6958L53.5972 96.7008L54.1257 91.7288ZM80.4992 99.442L77.5803 103.502L77.5993 103.515L77.6184 103.529L80.4992 99.442ZM41.689 150.549L42.5773 145.629L42.5542 145.625L42.5312 145.621L41.689 150.549ZM36.1646 147.569L32.3532 150.805L32.4378 150.905L32.5275 151L36.1646 147.569ZM33.9131 133.794L37.1415 137.612L37.2297 137.538L37.3144 137.459L33.9131 133.794ZM37.8875 132.771L36.534 137.584L36.5472 137.588L36.5605 137.592L37.8875 132.771ZM67.0604 129.26L70.7402 132.645L70.7503 132.634L70.7603 132.623L67.0604 129.26ZM56.8897 106.939C46.0577 105.656 38.6021 103.12 33.9486 99.7844L28.1225 107.912C34.7523 112.664 44.1408 115.499 55.7139 116.869L56.8897 106.939ZM33.9826 99.8089C29.4007 96.4659 26.5421 91.9323 25.3855 85.9032L15.5646 87.7873C17.1732 96.1727 21.355 102.974 28.0885 107.887L33.9826 99.8089ZM25.3855 85.9032C24.1187 79.3002 25.4178 74.132 28.9394 69.8481L21.2144 63.4979C15.5776 70.3549 13.8088 78.635 15.5646 87.7873L25.3855 85.9032ZM28.9442 69.8422C32.5922 65.3907 38.7755 61.9678 48.3256 60.1358L46.4416 50.3148C35.5432 52.4056 26.8553 56.6145 21.2096 63.5037L28.9442 69.8422ZM48.3256 60.1358C55.6667 58.7275 62.3708 58.3104 68.4663 58.8204L69.3001 48.8552C62.1496 48.257 54.5206 48.765 46.4416 50.3148L48.3256 60.1358ZM68.4126 58.8156C69.2726 58.8969 69.989 59.2206 70.7224 59.998L77.9965 53.1359C75.6759 50.6761 72.7416 49.1803 69.3538 48.86L68.4126 58.8156ZM70.9112 60.1877C71.7452 60.982 72.2448 61.8918 72.468 63.0555L82.289 61.1715C81.6762 57.9773 80.1631 55.1895 77.8077 52.9463L70.9112 60.1877ZM72.468 63.0555L73.1674 66.701L82.9883 64.817L82.289 61.1715L72.468 63.0555ZM73.1674 66.701C73.1809 66.7713 73.1753 66.7818 73.1771 66.7437C73.1789 66.7027 73.1879 66.6359 73.2132 66.5577C73.2383 66.4797 73.2685 66.4248 73.2856 66.3984C73.3012 66.3746 73.292 66.3956 73.2299 66.455L80.1469 73.6768C82.6012 71.3262 83.6342 68.1837 82.9883 64.817L73.1674 66.701ZM73.2299 66.455C73.1594 66.5225 73.1204 66.5465 73.1169 66.5487C73.1151 66.5498 73.1334 66.539 73.1668 66.5286C73.2001 66.5183 73.2213 66.5169 73.2193 66.517C73.2151 66.5172 73.1694 66.5194 73.073 66.5036L71.4458 76.3703C74.7034 76.9075 77.7625 75.9606 80.1469 73.6768L73.2299 66.455ZM73.0054 66.4929C64.9744 65.2811 57.5686 65.254 50.8578 66.5414L52.7418 76.3623C58.099 75.3346 64.3329 75.2975 71.5134 76.3809L73.0054 66.4929ZM50.8578 66.5414C46.4966 67.378 42.4803 69.0096 39.7919 72.0921C36.9088 75.3979 36.2666 79.5248 37.0606 83.6635L46.8815 81.7794C46.5179 79.8841 46.9351 79.1158 47.3283 78.665C47.916 77.9911 49.3929 77.0048 52.7418 76.3623L50.8578 66.5414ZM37.0606 83.6635C37.7787 87.4069 39.7 90.5508 42.7683 92.8246C45.7163 95.0092 49.43 96.1793 53.5039 96.6899L54.7476 86.7676C51.6991 86.3855 49.8258 85.608 48.7222 84.7902C47.7389 84.0615 47.1441 83.1481 46.8815 81.7794L37.0606 83.6635ZM53.5972 96.7008C65.607 97.9774 73.3228 100.44 77.5803 103.502L83.4181 95.3825C76.9917 90.7618 67.1251 88.0825 54.6543 86.7568L53.5972 96.7008ZM77.6184 103.529C81.8079 106.482 84.6585 110.974 85.922 117.561L95.7429 115.677C94.0804 107.011 90.0422 100.052 83.3801 95.3554L77.6184 103.529ZM85.922 117.561C87.4397 125.472 85.994 131.102 82.4145 135.262C78.6513 139.635 71.8466 143.192 61.0085 145.271L62.8926 155.092C74.7657 152.814 84.1303 148.599 89.9944 141.784C96.0422 134.756 97.6819 125.784 95.7429 115.677L85.922 117.561ZM61.0085 145.271C54.3182 146.554 48.1904 146.642 42.5773 145.629L40.8008 155.47C47.7885 156.731 55.1684 156.574 62.8926 155.092L61.0085 145.271ZM42.5312 145.621C41.4644 145.438 40.598 144.982 39.8016 144.138L32.5275 151C34.7851 153.393 37.6016 154.923 40.8469 155.478L42.5312 145.621ZM39.9759 144.332C39.0874 143.286 38.5104 142.09 38.235 140.655L28.4141 142.539C29.0069 145.629 30.3232 148.414 32.3532 150.805L39.9759 144.332ZM38.235 140.655L37.4633 136.632L27.6424 138.516L28.4141 142.539L38.235 140.655ZM37.4633 136.632C37.4623 136.627 37.5 136.859 37.3805 137.191C37.2631 137.517 37.0986 137.649 37.1415 137.612L30.6846 129.976C28.1432 132.125 27.0044 135.19 27.6424 138.516L37.4633 136.632ZM37.3144 137.459C37.4032 137.377 37.3124 137.489 37.0382 137.559C36.9107 137.592 36.7875 137.604 36.6834 137.601C36.5824 137.598 36.5292 137.583 36.534 137.584L39.2409 127.958C35.9861 127.043 32.8837 127.928 30.5117 130.129L37.3144 137.459ZM36.5605 137.592C43.9428 139.624 51.2529 139.99 58.4281 138.614L56.5441 128.793C50.9809 129.86 45.2252 129.605 39.2145 127.95L36.5605 137.592ZM58.4281 138.614C63.3571 137.668 67.7622 135.882 70.7402 132.645L63.3806 125.875C62.4762 126.858 60.4985 128.034 56.5441 128.793L58.4281 138.614ZM70.7603 132.623C73.9287 129.137 74.9458 124.803 74.0678 120.226L64.2469 122.11C64.5908 123.902 64.21 124.962 63.3605 125.897L70.7603 132.623ZM74.0678 120.226C73.3448 116.457 71.5572 113.167 68.476 110.845L62.4574 118.831C63.236 119.418 63.9089 120.348 64.2469 122.11L74.0678 120.226ZM68.476 110.845C65.4944 108.598 61.3876 107.478 56.8974 106.94L55.7063 116.868C59.5761 117.333 61.5791 118.169 62.4574 118.831L68.476 110.845Z" fill="#012758" mask="url(#path-9-outside-5_158_292)"/>
<mask id="path-11-outside-6_158_292" maskUnits="userSpaceOnUse" x="709.364" y="67.6046" width="93.8161" height="119.214" fill="black">
<rect fill="white" x="709.364" y="67.6046" width="93.8161" height="119.214"/>
<path d="M756.51 136.456C745.307 135.13 736.885 132.445 731.244 128.4C725.586 124.272 722.066 118.605 720.683 111.398C719.172 103.52 720.706 96.7957 725.285 91.2252C729.932 85.5549 737.367 81.739 747.592 79.7775C755.302 78.2985 762.468 77.836 769.091 78.3901C771.215 78.5909 773.04 79.5006 774.567 81.1192C776.162 82.638 777.169 84.4868 777.587 86.6657L778.286 90.3113C778.607 91.9874 778.144 93.423 776.896 94.6182C775.649 95.8133 774.172 96.2703 772.467 95.9892C764.862 94.8416 758.042 94.8465 752.008 96.0041C744.298 97.4832 741.021 101.24 742.179 107.274C743.16 112.386 747.211 115.388 754.334 116.281C766.574 117.582 775.365 120.153 780.707 123.994C786.133 127.819 789.577 133.545 791.04 141.171C794.497 159.189 784.87 170.377 762.159 174.734C754.951 176.116 748.197 176.239 741.897 175.102C739.741 174.733 737.9 173.74 736.373 172.121C734.913 170.402 733.967 168.412 733.533 166.149L732.761 162.126C732.471 160.618 732.925 159.358 734.121 158.346C735.301 157.251 736.626 156.91 738.095 157.323C744.792 159.167 751.325 159.477 757.694 158.256C762.136 157.404 765.327 155.922 767.268 153.812C769.277 151.602 769.976 148.905 769.365 145.72C768.835 142.955 767.605 140.845 765.675 139.39C763.745 137.936 760.69 136.958 756.51 136.456Z"/>
</mask>
<path d="M756.51 136.456C745.307 135.13 736.885 132.445 731.244 128.4C725.586 124.272 722.066 118.605 720.683 111.398C719.172 103.52 720.706 96.7957 725.285 91.2252C729.932 85.5549 737.367 81.739 747.592 79.7775C755.302 78.2985 762.468 77.836 769.091 78.3901C771.215 78.5909 773.04 79.5006 774.567 81.1192C776.162 82.638 777.169 84.4868 777.587 86.6657L778.286 90.3113C778.607 91.9874 778.144 93.423 776.896 94.6182C775.649 95.8133 774.172 96.2703 772.467 95.9892C764.862 94.8416 758.042 94.8465 752.008 96.0041C744.298 97.4832 741.021 101.24 742.179 107.274C743.16 112.386 747.211 115.388 754.334 116.281C766.574 117.582 775.365 120.153 780.707 123.994C786.133 127.819 789.577 133.545 791.04 141.171C794.497 159.189 784.87 170.377 762.159 174.734C754.951 176.116 748.197 176.239 741.897 175.102C739.741 174.733 737.9 173.74 736.373 172.121C734.913 170.402 733.967 168.412 733.533 166.149L732.761 162.126C732.471 160.618 732.925 159.358 734.121 158.346C735.301 157.251 736.626 156.91 738.095 157.323C744.792 159.167 751.325 159.477 757.694 158.256C762.136 157.404 765.327 155.922 767.268 153.812C769.277 151.602 769.976 148.905 769.365 145.72C768.835 142.955 767.605 140.845 765.675 139.39C763.745 137.936 760.69 136.958 756.51 136.456Z" fill="url(#paint5_linear_158_292)"/>
<path d="M756.51 136.456L757.105 131.492L757.098 131.491L756.51 136.456ZM731.244 128.4L728.296 132.44L728.313 132.452L728.33 132.464L731.244 128.4ZM725.285 91.2252L729.147 94.4003L729.152 94.3945L725.285 91.2252ZM769.091 78.3901L769.562 73.4123L769.535 73.4097L769.508 73.4075L769.091 78.3901ZM774.567 81.1192L770.93 84.5503L771.022 84.6476L771.119 84.7399L774.567 81.1192ZM776.896 94.6182L780.355 98.2291L780.355 98.2291L776.896 94.6182ZM772.467 95.9892L773.281 91.0558L773.247 91.0502L773.213 91.0451L772.467 95.9892ZM754.334 116.281L753.712 121.242L753.758 121.248L753.805 121.253L754.334 116.281ZM780.707 123.994L777.788 128.054L777.807 128.067L777.826 128.081L780.707 123.994ZM741.897 175.102L742.785 170.181L742.762 170.177L742.739 170.173L741.897 175.102ZM736.373 172.121L732.561 175.357L732.646 175.457L732.736 175.552L736.373 172.121ZM734.121 158.346L737.35 162.164L737.438 162.09L737.522 162.011L734.121 158.346ZM738.095 157.323L736.742 162.137L736.755 162.14L736.768 162.144L738.095 157.323ZM767.268 153.812L770.948 157.197L770.958 157.186L770.968 157.175L767.268 153.812ZM757.098 131.491C746.266 130.208 738.81 127.672 734.157 124.337L728.33 132.464C734.96 137.217 744.349 140.051 755.922 141.422L757.098 131.491ZM734.191 124.361C729.609 121.018 726.75 116.485 725.593 110.455L715.773 112.34C717.381 120.725 721.563 127.527 728.296 132.44L734.191 124.361ZM725.593 110.455C724.327 103.852 725.626 98.6843 729.147 94.4003L721.422 88.0501C715.786 94.9072 714.017 103.187 715.773 112.34L725.593 110.455ZM729.152 94.3945C732.8 89.9429 738.984 86.5201 748.534 84.688L746.65 74.8671C735.751 76.9578 727.063 81.1668 721.418 88.056L729.152 94.3945ZM748.534 84.688C755.875 83.2797 762.579 82.8627 768.674 83.3727L769.508 73.4075C762.358 72.8092 754.729 73.3172 746.65 74.8671L748.534 84.688ZM768.621 83.3679C769.481 83.4492 770.197 83.7728 770.93 84.5503L778.204 77.6882C775.884 75.2283 772.95 73.7325 769.562 73.4123L768.621 83.3679ZM771.119 84.7399C771.953 85.5342 772.453 86.444 772.676 87.6078L782.497 85.7237C781.884 82.5295 780.371 79.7417 778.016 77.4985L771.119 84.7399ZM772.676 87.6078L773.375 91.2533L783.196 89.3692L782.497 85.7237L772.676 87.6078ZM773.375 91.2533C773.389 91.3236 773.383 91.3341 773.385 91.2959C773.387 91.2549 773.396 91.1881 773.421 91.1099C773.446 91.032 773.476 90.9771 773.494 90.9507C773.509 90.9268 773.5 90.9478 773.438 91.0073L780.355 98.2291C782.809 95.8784 783.842 92.736 783.196 89.3692L773.375 91.2533ZM773.438 91.0072C773.367 91.0748 773.328 91.0988 773.325 91.1009C773.323 91.102 773.341 91.0912 773.375 91.0809C773.408 91.0706 773.429 91.0691 773.427 91.0692C773.423 91.0695 773.377 91.0717 773.281 91.0558L771.654 100.923C774.911 101.46 777.971 100.513 780.355 98.2291L773.438 91.0072ZM773.213 91.0451C765.182 89.8334 757.777 89.8062 751.066 91.0936L752.95 100.915C758.307 99.8868 764.541 99.8498 771.721 100.933L773.213 91.0451ZM751.066 91.0936C746.705 91.9303 742.688 93.5618 740 96.6444C737.117 99.9501 736.475 104.077 737.269 108.216L747.09 106.332C746.726 104.436 747.143 103.668 747.536 103.217C748.124 102.543 749.601 101.557 752.95 100.915L751.066 91.0936ZM737.269 108.216C737.987 111.959 739.908 115.103 742.976 117.377C745.924 119.561 749.638 120.732 753.712 121.242L754.956 111.32C751.907 110.938 750.034 110.16 748.93 109.342C747.947 108.614 747.352 107.7 747.09 106.332L737.269 108.216ZM753.805 121.253C765.815 122.53 773.531 124.993 777.788 128.054L783.626 119.935C777.2 115.314 767.333 112.635 754.862 111.309L753.805 121.253ZM777.826 128.081C782.016 131.034 784.866 135.527 786.13 142.113L795.951 140.229C794.288 131.563 790.25 124.604 783.588 119.908L777.826 128.081ZM786.13 142.113C787.648 150.024 786.202 155.654 782.623 159.814C778.859 164.187 772.055 167.744 761.217 169.823L763.101 179.644C774.974 177.366 784.338 173.151 790.202 166.337C796.25 159.309 797.89 150.336 795.951 140.229L786.13 142.113ZM761.217 169.823C754.526 171.107 748.398 171.194 742.785 170.181L741.009 180.022C747.997 181.283 755.376 181.126 763.101 179.644L761.217 169.823ZM742.739 170.173C741.672 169.991 740.806 169.534 740.01 168.69L732.736 175.552C734.993 177.945 737.81 179.476 741.055 180.03L742.739 170.173ZM740.184 168.885C739.295 167.838 738.718 166.643 738.443 165.207L728.622 167.091C729.215 170.181 730.531 172.967 732.561 175.357L740.184 168.885ZM738.443 165.207L737.671 161.184L727.85 163.068L728.622 167.091L738.443 165.207ZM737.671 161.184C737.67 161.179 737.708 161.411 737.589 161.743C737.471 162.069 737.307 162.201 737.35 162.164L730.893 154.528C728.351 156.678 727.212 159.743 727.85 163.068L737.671 161.184ZM737.522 162.011C737.611 161.929 737.52 162.041 737.246 162.111C737.119 162.144 736.996 162.156 736.891 162.153C736.79 162.151 736.737 162.135 736.742 162.137L739.449 152.51C736.194 151.595 733.092 152.48 730.72 154.682L737.522 162.011ZM736.768 162.144C744.151 164.176 751.461 164.543 758.636 163.166L756.752 153.345C751.189 154.412 745.433 154.157 739.422 152.503L736.768 162.144ZM758.636 163.166C763.565 162.22 767.97 160.435 770.948 157.197L763.589 150.427C762.684 151.41 760.706 152.587 756.752 153.345L758.636 163.166ZM770.968 157.175C774.137 153.69 775.154 149.355 774.276 144.778L764.455 146.662C764.799 148.455 764.418 149.515 763.569 150.449L770.968 157.175ZM774.276 144.778C773.553 141.009 771.765 137.719 768.684 135.397L762.665 143.383C763.444 143.97 764.117 144.9 764.455 146.662L774.276 144.778ZM768.684 135.397C765.702 133.15 761.596 132.031 757.105 131.492L755.914 141.421C759.784 141.885 761.787 142.721 762.665 143.383L768.684 135.397Z" fill="#012758" mask="url(#path-11-outside-6_158_292)"/>
<mask id="path-13-outside-7_158_292" maskUnits="userSpaceOnUse" x="421.072" y="60.1865" width="75" height="107" fill="black">
<rect fill="white" x="421.072" y="60.1865" width="75" height="107"/>
<path d="M457.064 122.811C446.312 119.397 438.547 115.173 433.768 110.139C428.99 105.019 426.6 98.7892 426.6 91.4505C426.6 83.4292 429.374 77.1145 434.92 72.5065C440.552 67.8132 448.574 65.4665 458.984 65.4665C466.835 65.4665 473.96 66.3625 480.36 68.1545C482.408 68.7519 484.03 69.9892 485.224 71.8665C486.504 73.6585 487.144 75.6639 487.144 77.8825V81.5945C487.144 83.3012 486.419 84.6239 484.968 85.5625C483.518 86.5012 481.982 86.6719 480.36 86.0745C473.107 83.5145 466.408 82.2345 460.264 82.2345C452.414 82.2345 448.488 85.3065 448.488 91.4505C448.488 96.6559 451.902 100.368 458.728 102.587C470.504 106.171 478.654 110.352 483.176 115.131C487.784 119.909 490.088 126.181 490.088 133.947C490.088 152.293 478.526 161.467 455.4 161.467C448.062 161.467 441.406 160.315 435.432 158.011C433.384 157.243 431.763 155.92 430.568 154.043C429.459 152.08 428.904 149.947 428.904 147.643V143.547C428.904 142.011 429.587 140.859 430.952 140.091C432.318 139.237 433.683 139.152 435.048 139.835C441.278 142.907 447.635 144.443 454.12 144.443C458.643 144.443 462.056 143.589 464.36 141.883C466.75 140.091 467.944 137.573 467.944 134.331C467.944 131.515 467.134 129.211 465.512 127.419C463.891 125.627 461.075 124.091 457.064 122.811Z"/>
</mask>
<path d="M457.064 122.811C446.312 119.397 438.547 115.173 433.768 110.139C428.99 105.019 426.6 98.7892 426.6 91.4505C426.6 83.4292 429.374 77.1145 434.92 72.5065C440.552 67.8132 448.574 65.4665 458.984 65.4665C466.835 65.4665 473.96 66.3625 480.36 68.1545C482.408 68.7519 484.03 69.9892 485.224 71.8665C486.504 73.6585 487.144 75.6639 487.144 77.8825V81.5945C487.144 83.3012 486.419 84.6239 484.968 85.5625C483.518 86.5012 481.982 86.6719 480.36 86.0745C473.107 83.5145 466.408 82.2345 460.264 82.2345C452.414 82.2345 448.488 85.3065 448.488 91.4505C448.488 96.6559 451.902 100.368 458.728 102.587C470.504 106.171 478.654 110.352 483.176 115.131C487.784 119.909 490.088 126.181 490.088 133.947C490.088 152.293 478.526 161.467 455.4 161.467C448.062 161.467 441.406 160.315 435.432 158.011C433.384 157.243 431.763 155.92 430.568 154.043C429.459 152.08 428.904 149.947 428.904 147.643V143.547C428.904 142.011 429.587 140.859 430.952 140.091C432.318 139.237 433.683 139.152 435.048 139.835C441.278 142.907 447.635 144.443 454.12 144.443C458.643 144.443 462.056 143.589 464.36 141.883C466.75 140.091 467.944 137.573 467.944 134.331C467.944 131.515 467.134 129.211 465.512 127.419C463.891 125.627 461.075 124.091 457.064 122.811Z" fill="url(#paint6_linear_158_292)"/>
<path d="M457.064 122.811L458.584 118.047L458.577 118.045L457.064 122.811ZM433.768 110.139L430.113 113.55L430.127 113.565L430.142 113.581L433.768 110.139ZM434.92 72.5065L438.115 76.3525L438.121 76.3476L434.92 72.5065ZM480.36 68.1545L481.76 63.3545L481.734 63.347L481.708 63.3397L480.36 68.1545ZM485.224 71.8665L481.006 74.5509L481.078 74.6638L481.156 74.7727L485.224 71.8665ZM484.968 85.5625L487.685 89.7604L487.685 89.7604L484.968 85.5625ZM480.36 86.0745L482.089 81.3828L482.057 81.371L482.024 81.3596L480.36 86.0745ZM458.728 102.587L457.183 107.342L457.228 107.356L457.272 107.37L458.728 102.587ZM483.176 115.131L479.545 118.567L479.561 118.584L479.577 118.601L483.176 115.131ZM435.432 158.011L437.232 153.346L437.21 153.337L437.188 153.329L435.432 158.011ZM430.568 154.043L426.215 156.503L426.28 156.617L426.35 156.727L430.568 154.043ZM430.952 140.091L433.404 144.448L433.504 144.392L433.602 144.331L430.952 140.091ZM435.048 139.835L432.812 144.307L432.824 144.313L432.837 144.319L435.048 139.835ZM464.36 141.883L467.336 145.9L467.348 145.891L467.36 145.883L464.36 141.883ZM458.577 118.045C448.181 114.744 441.336 110.849 437.395 106.696L430.142 113.581C435.757 119.497 444.444 124.05 455.551 127.576L458.577 118.045ZM437.424 106.727C433.554 102.58 431.6 97.5895 431.6 91.4505H421.6C421.6 99.9889 424.426 107.457 430.113 113.55L437.424 106.727ZM431.6 91.4505C431.6 84.7271 433.85 79.8962 438.115 76.3525L431.725 68.6606C424.897 74.3328 421.6 82.1313 421.6 91.4505H431.6ZM438.121 76.3476C442.543 72.6631 449.26 70.4665 458.984 70.4665V60.4665C447.887 60.4665 438.562 62.9633 431.719 68.6654L438.121 76.3476ZM458.984 70.4665C466.459 70.4665 473.122 71.3201 479.012 72.9693L481.708 63.3397C474.799 61.405 467.211 60.4665 458.984 60.4665V70.4665ZM478.96 72.9545C479.789 73.1964 480.432 73.6492 481.006 74.5509L489.443 69.1821C487.627 66.3292 485.027 64.3073 481.76 63.3545L478.96 72.9545ZM481.156 74.7727C481.825 75.7099 482.144 76.6976 482.144 77.8825H492.144C492.144 74.6301 491.184 71.6071 489.293 68.9603L481.156 74.7727ZM482.144 77.8825V81.5945H492.144V77.8825H482.144ZM482.144 81.5945C482.144 81.6661 482.137 81.6754 482.146 81.6382C482.155 81.5983 482.177 81.5344 482.216 81.4624C482.256 81.3905 482.296 81.3423 482.317 81.3196C482.337 81.2991 482.324 81.318 482.252 81.3647L487.685 89.7604C490.538 87.9142 492.144 85.0227 492.144 81.5945H482.144ZM482.252 81.3647C482.17 81.4177 482.127 81.4339 482.123 81.4354C482.121 81.4361 482.141 81.429 482.176 81.4251C482.211 81.4212 482.232 81.4238 482.23 81.4236C482.226 81.423 482.18 81.4166 482.089 81.3828L478.632 90.7662C481.73 91.9076 484.913 91.554 487.685 89.7604L482.252 81.3647ZM482.024 81.3596C474.366 78.6565 467.097 77.2345 460.264 77.2345V87.2345C465.719 87.2345 471.848 88.3726 478.696 90.7895L482.024 81.3596ZM460.264 77.2345C455.824 77.2345 451.572 78.0801 448.351 80.601C444.896 83.3043 443.488 87.2364 443.488 91.4505H453.488C453.488 89.5207 454.043 88.8447 454.514 88.476C455.218 87.9249 456.854 87.2345 460.264 87.2345V77.2345ZM443.488 91.4505C443.488 95.2622 444.783 98.7118 447.368 101.523C449.851 104.224 453.278 106.073 457.183 107.342L460.274 97.8314C457.352 96.8817 455.659 95.7652 454.729 94.7542C453.9 93.8533 453.488 92.8441 453.488 91.4505H443.488ZM457.272 107.37C468.827 110.886 475.94 114.759 479.545 118.567L486.808 111.694C481.367 105.945 472.182 101.455 460.184 97.8032L457.272 107.37ZM479.577 118.601C483.135 122.291 485.088 127.24 485.088 133.947H495.088C495.088 125.122 492.433 117.527 486.775 111.66L479.577 118.601ZM485.088 133.947C485.088 142.002 482.608 147.259 478.309 150.67C473.789 154.255 466.436 156.467 455.4 156.467V166.467C467.49 166.467 477.481 164.091 484.524 158.504C491.787 152.741 495.088 144.238 495.088 133.947H485.088ZM455.4 156.467C448.588 156.467 442.553 155.398 437.232 153.346L433.633 162.676C440.258 165.231 447.535 166.467 455.4 166.467V156.467ZM437.188 153.329C436.175 152.949 435.41 152.337 434.787 151.358L426.35 156.727C428.116 159.502 430.594 161.536 433.677 162.692L437.188 153.329ZM434.921 151.582C434.246 150.387 433.904 149.104 433.904 147.643H423.904C423.904 150.789 424.672 153.773 426.215 156.503L434.921 151.582ZM433.904 147.643V143.547H423.904V147.643H433.904ZM433.904 143.547C433.904 143.541 433.898 143.776 433.718 144.08C433.541 144.378 433.355 144.476 433.404 144.448L428.501 135.733C425.6 137.364 423.904 140.16 423.904 143.547H433.904ZM433.602 144.331C433.705 144.266 433.595 144.359 433.312 144.377C433.181 144.385 433.058 144.373 432.956 144.351C432.857 144.329 432.808 144.304 432.812 144.307L437.284 135.362C434.26 133.85 431.047 134.135 428.302 135.851L433.602 144.331ZM432.837 144.319C439.704 147.705 446.814 149.443 454.12 149.443V139.443C448.456 139.443 442.851 138.108 437.26 135.35L432.837 144.319ZM454.12 149.443C459.139 149.443 463.802 148.518 467.336 145.9L461.384 137.865C460.311 138.66 458.147 139.443 454.12 139.443V149.443ZM467.36 145.883C471.129 143.056 472.944 138.991 472.944 134.331H462.944C462.944 136.156 462.371 137.125 461.36 137.883L467.36 145.883ZM472.944 134.331C472.944 130.493 471.809 126.925 469.22 124.064L461.805 130.773C462.459 131.496 462.944 132.536 462.944 134.331H472.944ZM469.22 124.064C466.715 121.296 462.893 119.422 458.584 118.047L455.544 127.574C459.257 128.759 461.067 129.958 461.805 130.773L469.22 124.064Z" fill="#012758" mask="url(#path-13-outside-7_158_292)"/>
<mask id="path-15-outside-8_158_292" maskUnits="userSpaceOnUse" x="108.753" y="50.4786" width="86.6093" height="109.944" fill="black">
<rect fill="white" x="108.753" y="50.4786" width="86.6093" height="109.944"/>
<path d="M141.046 75.8903L139.246 103.736C139.207 104.332 139.566 104.74 140.321 104.96C143.194 105.488 145.482 105.807 147.186 105.917C153.317 106.314 158.134 105.214 161.636 102.619C165.23 99.9437 167.192 96.0516 167.522 90.9422C168.178 80.8087 162.076 75.3262 149.218 74.4947C147.089 74.357 144.733 74.4184 142.151 74.679C141.459 74.8053 141.091 75.209 141.046 75.8903ZM122.073 151.111C120.114 150.984 118.458 150.15 117.104 148.609C115.75 147.067 115.136 145.318 115.263 143.359L120.31 65.314C120.442 63.2703 121.242 61.4835 122.709 59.9536C124.176 58.4238 125.937 57.6398 127.991 57.6016C135.274 57.3885 142.279 57.4994 149.006 57.9345C176.256 59.6967 189.225 70.7113 187.914 90.9783C187.204 101.963 183.471 110.102 176.715 115.394C170.05 120.607 160.587 122.817 148.324 122.024C145.089 121.815 142.074 121.492 139.28 121.054C138.514 121.005 138.109 121.321 138.064 122.002L136.594 144.738C136.467 146.697 135.634 148.353 134.092 149.707C132.551 151.061 130.801 151.675 128.842 151.548L122.073 151.111Z"/>
</mask>
<path d="M141.046 75.8903L139.246 103.736C139.207 104.332 139.566 104.74 140.321 104.96C143.194 105.488 145.482 105.807 147.186 105.917C153.317 106.314 158.134 105.214 161.636 102.619C165.23 99.9437 167.192 96.0516 167.522 90.9422C168.178 80.8087 162.076 75.3262 149.218 74.4947C147.089 74.357 144.733 74.4184 142.151 74.679C141.459 74.8053 141.091 75.209 141.046 75.8903ZM122.073 151.111C120.114 150.984 118.458 150.15 117.104 148.609C115.75 147.067 115.136 145.318 115.263 143.359L120.31 65.314C120.442 63.2703 121.242 61.4835 122.709 59.9536C124.176 58.4238 125.937 57.6398 127.991 57.6016C135.274 57.3885 142.279 57.4994 149.006 57.9345C176.256 59.6967 189.225 70.7113 187.914 90.9783C187.204 101.963 183.471 110.102 176.715 115.394C170.05 120.607 160.587 122.817 148.324 122.024C145.089 121.815 142.074 121.492 139.28 121.054C138.514 121.005 138.109 121.321 138.064 122.002L136.594 144.738C136.467 146.697 135.634 148.353 134.092 149.707C132.551 151.061 130.801 151.675 128.842 151.548L122.073 151.111Z" fill="url(#paint7_linear_158_292)"/>
<path d="M140.321 104.96L138.924 109.761L139.168 109.832L139.418 109.878L140.321 104.96ZM161.636 102.619L164.613 106.636L164.622 106.629L161.636 102.619ZM142.151 74.679L141.649 69.7043L141.45 69.7243L141.254 69.7602L142.151 74.679ZM117.104 148.609L113.347 151.909L117.104 148.609ZM122.709 59.9536L126.317 63.4144L126.317 63.4144L122.709 59.9536ZM127.991 57.6016L128.084 62.6008L128.111 62.6003L128.138 62.5995L127.991 57.6016ZM176.715 115.394L179.796 119.333L179.799 119.33L176.715 115.394ZM139.28 121.054L140.053 116.115L139.829 116.079L139.603 116.065L139.28 121.054ZM136.057 75.5676L134.256 103.413L144.235 104.059L146.036 76.2129L136.057 75.5676ZM134.256 103.413C134.161 104.889 134.583 106.485 135.729 107.789C136.758 108.96 138.021 109.498 138.924 109.761L141.718 100.159C141.866 100.202 142.572 100.426 143.242 101.189C144.03 102.086 144.292 103.179 144.235 104.059L134.256 103.413ZM139.418 109.878C142.368 110.42 144.876 110.778 146.863 110.907L147.508 100.927C146.089 100.836 144.02 100.556 141.224 100.042L139.418 109.878ZM146.863 110.907C153.697 111.349 159.836 110.176 164.613 106.636L158.66 98.6013C156.431 100.252 152.937 101.279 147.508 100.927L146.863 110.907ZM164.622 106.629C169.568 102.948 172.102 97.6045 172.512 91.2649L162.533 90.6196C162.282 94.4986 160.892 96.9396 158.651 98.608L164.622 106.629ZM172.512 91.2649C172.912 85.0707 171.238 79.5176 166.779 75.5111C162.535 71.6975 156.49 69.9545 149.54 69.5051L148.895 79.4842C154.804 79.8664 158.238 81.2804 160.096 82.9494C161.738 84.4253 162.787 86.6802 162.533 90.6196L172.512 91.2649ZM149.54 69.5051C147.085 69.3463 144.449 69.4218 141.649 69.7043L142.653 79.6538C145.018 79.4151 147.092 79.3677 148.895 79.4842L149.54 69.5051ZM141.254 69.7602C140.143 69.9628 138.771 70.49 137.661 71.7076C136.537 72.94 136.133 74.3831 136.057 75.5676L146.036 76.2129C146.004 76.7161 145.806 77.6167 145.05 78.4454C144.308 79.2593 143.467 79.5215 143.048 79.5979L141.254 69.7602ZM122.395 146.121C121.825 146.084 121.383 145.904 120.86 145.309L113.347 151.909C115.532 154.396 118.403 155.884 121.75 156.1L122.395 146.121ZM120.86 145.309C120.337 144.713 120.215 144.252 120.252 143.682L110.273 143.036C110.057 146.384 111.162 149.421 113.347 151.909L120.86 145.309ZM120.252 143.682L125.299 65.6367L115.32 64.9913L110.273 143.036L120.252 143.682ZM125.299 65.6367C125.353 64.8131 125.635 64.1261 126.317 63.4144L119.1 56.4929C116.848 58.8409 115.531 61.7275 115.32 64.9913L125.299 65.6367ZM126.317 63.4144C126.896 62.8109 127.406 62.6134 128.084 62.6008L127.899 52.6025C124.468 52.6662 121.455 54.0367 119.1 56.4929L126.317 63.4144ZM128.138 62.5995C135.276 62.3906 142.124 62.4999 148.683 62.9241L149.328 52.9449C142.433 52.499 135.271 52.3864 127.845 52.6038L128.138 62.5995ZM148.683 62.9241C161.835 63.7746 170.631 66.8248 175.934 71.3282C180.973 75.6076 183.5 81.7553 182.925 90.6556L192.904 91.301C193.639 79.9343 190.337 70.4412 182.407 63.706C174.74 57.1948 163.427 53.8566 149.328 52.9449L148.683 62.9241ZM182.925 90.6556C182.279 100.648 178.968 107.278 173.632 111.458L179.799 119.33C187.974 112.926 192.129 103.279 192.904 91.301L182.925 90.6556ZM173.635 111.456C168.295 115.633 160.23 117.784 148.647 117.035L148.002 127.014C160.944 127.851 171.806 125.582 179.796 119.333L173.635 111.456ZM148.647 117.035C145.541 116.834 142.678 116.525 140.053 116.115L138.507 125.994C141.47 126.458 144.636 126.796 148.002 127.014L148.647 117.035ZM139.603 116.065C138.586 115.999 136.877 116.103 135.328 117.311C133.66 118.611 133.157 120.407 133.075 121.679L143.054 122.325C143.016 122.915 142.738 124.214 141.475 125.198C140.331 126.09 139.208 126.06 138.957 126.044L139.603 116.065ZM133.075 121.679L131.605 144.416L141.584 145.061L143.054 122.325L133.075 121.679ZM131.605 144.416C131.568 144.986 131.388 145.428 130.792 145.951L137.392 153.464C139.879 151.279 141.367 148.408 141.584 145.061L131.605 144.416ZM130.792 145.951C130.197 146.474 129.735 146.596 129.165 146.559L128.52 156.538C131.867 156.754 134.905 155.649 137.392 153.464L130.792 145.951ZM129.165 146.559L122.395 146.121L121.75 156.1L128.52 156.538L129.165 146.559Z" fill="#012758" mask="url(#path-15-outside-8_158_292)"/>
<defs>
<linearGradient id="paint0_linear_158_292" x1="267.427" y1="16.7552" x2="233.509" y2="203.703" gradientUnits="userSpaceOnUse">
<stop offset="0.37" stop-color="#FFF6E5"/>
<stop offset="0.78" stop-color="#C6BCB1"/>
</linearGradient>
<linearGradient id="paint1_linear_158_292" x1="547.809" y1="13.6526" x2="567.67" y2="202.612" gradientUnits="userSpaceOnUse">
<stop offset="0.37" stop-color="#FFF6E5"/>
<stop offset="0.78" stop-color="#C6BCB1"/>
</linearGradient>
<linearGradient id="paint2_linear_158_292" x1="344.362" y1="20.6848" x2="377.611" y2="207.753" gradientUnits="userSpaceOnUse">
<stop offset="0.37" stop-color="#FFF6E5"/>
<stop offset="0.78" stop-color="#C6BCB1"/>
</linearGradient>
<linearGradient id="paint3_linear_158_292" x1="668.358" y1="22.5859" x2="643.932" y2="211.009" gradientUnits="userSpaceOnUse">
<stop offset="0.37" stop-color="#FFF6E5"/>
<stop offset="0.78" stop-color="#C6BCB1"/>
</linearGradient>
<linearGradient id="paint4_linear_158_292" x1="37.8828" y1="7.88755" x2="73.6796" y2="194.485" gradientUnits="userSpaceOnUse">
<stop offset="0.37" stop-color="#FFF6E5"/>
<stop offset="0.78" stop-color="#C6BCB1"/>
</linearGradient>
<linearGradient id="paint5_linear_158_292" x1="738.091" y1="32.4398" x2="773.888" y2="219.037" gradientUnits="userSpaceOnUse">
<stop offset="0.37" stop-color="#FFF6E5"/>
<stop offset="0.78" stop-color="#C6BCB1"/>
</linearGradient>
<linearGradient id="paint6_linear_158_292" x1="458.572" y1="17.1865" x2="458.572" y2="207.187" gradientUnits="userSpaceOnUse">
<stop offset="0.37" stop-color="#FFF6E5"/>
<stop offset="0.78" stop-color="#C6BCB1"/>
</linearGradient>
<linearGradient id="paint7_linear_158_292" x1="155.726" y1="9.98822" x2="143.465" y2="199.592" gradientUnits="userSpaceOnUse">
<stop offset="0.37" stop-color="#FFF6E5"/>
<stop offset="0.78" stop-color="#C6BCB1"/>
</linearGradient>
</defs>
</svg>
