<svg width="1728" height="740" viewBox="0 0 1728 740" fill="none" xmlns="http://www.w3.org/2000/svg">
<path fill-rule="evenodd" clip-rule="evenodd" d="M647.099 534.033C666.825 529.836 685.297 521.47 700.935 509.54C725.187 515.687 751.608 511.655 777.814 507.656L779.007 507.474L779.977 507.327C788.07 506.094 796.524 505.217 805.042 504.333C837.777 500.937 871.46 497.442 889.286 473.29C893.485 472.52 897.681 471.712 901.864 470.907L903.652 470.563C910.368 469.272 917.361 468.167 924.431 467.051C937.092 465.051 950 463.012 962.008 459.792C991.941 475.058 1026.47 480.31 1058.95 470.959C1063.85 469.548 1068.51 467.76 1072.95 465.637C1080.81 468.225 1089.05 469.816 1097.72 470.166C1103.17 470.386 1108.62 470.25 1114.03 469.772C1121.13 478.776 1128.81 487.382 1136.24 495.5C1161.85 523.509 1194.82 543.621 1232.77 544.445C1252.93 544.883 1272.83 540.976 1290.79 532.949C1312.98 544.493 1339.63 546.628 1366.05 548.745L1368.23 548.92C1376.39 549.576 1384.82 550.661 1393.32 551.754C1425.96 555.955 1459.54 560.277 1482.43 540.856C1486.7 541.07 1490.97 541.246 1495.22 541.422L1497.04 541.497C1503.87 541.78 1510.93 542.308 1518.06 542.842L1518.06 542.842L1518.06 542.842L1518.07 542.842L1518.07 542.842L1518.07 542.842L1518.07 542.842L1518.07 542.842L1518.07 542.842L1518.07 542.843C1530.86 543.799 1543.89 544.775 1556.31 544.394C1581.95 566.118 1614.35 579.148 1648.11 577.494C1691.31 575.377 1724 542.814 1750.33 508.505C1775.87 475.227 1798.99 435.548 1788.14 395.028C1778.17 357.794 1740.68 339.578 1705.68 322.57L1705.63 322.546C1703.67 321.594 1701.72 320.646 1699.78 319.7C1697.94 318.797 1696.08 317.886 1694.22 316.973L1694.16 316.944L1694.16 316.941C1658.78 299.556 1621.13 281.051 1584.87 295.66C1571.08 301.214 1559.28 309.677 1549.31 320.102C1516.69 302.204 1478.06 304.328 1443.19 317.359C1430.68 322.034 1417.85 327.31 1405.79 333.61C1381.8 323.809 1356.45 318.664 1331.63 322.814C1321.26 310.133 1308.34 299.978 1292.7 294.07C1265.75 283.892 1239.58 296.557 1213.37 310.122C1212.62 307.608 1211.85 305.111 1211.05 302.633C1200.36 269.479 1176.48 244.916 1146.55 227.086C1111.68 206.309 1073.08 184.483 1034.64 197.53C1030.68 198.876 1026.77 200.416 1022.95 202.136C1001.98 197.857 980.901 195.12 961.484 198.995C930.436 188 895.221 194.811 865.31 210.166C858.02 213.909 851.325 218.343 845.199 223.363C831.473 207.253 813.932 194.482 793.855 186.962C756.459 172.957 717.815 191.756 682.377 210.163C648.8 227.603 615.651 248.904 604.814 285.155C604.56 286.002 604.316 286.852 604.08 287.703C593.869 293.967 584.159 302.103 574.481 310.404C573.181 308.127 571.854 305.874 570.508 303.646C552.498 273.826 523.625 255.394 490.407 244.901C451.699 232.674 409.123 220.281 374.7 241.795C361.403 250.105 349.595 260.838 339.943 273.196C332.6 268.142 324.464 264.272 315.314 262.025C278.84 253.07 241.364 268.568 212.776 292.925C206.539 298.239 201.039 304.09 196.228 310.381C179.173 297.849 159.171 289.44 137.904 286.725C98.293 281.668 64.9893 308.827 34.7173 334.87C6.03438 359.545 -21.3471 387.88 -23.5829 425.65C-25.9905 466.322 -9.30573 507.291 23.0445 532.06C54.9571 556.493 97.3922 557.468 136.505 548.217C163.887 541.741 189.711 529.639 209.282 510.819C230.966 517.555 255.517 508.626 280.156 499.666C290.932 495.747 301.724 491.822 312.301 489.198C322.487 486.672 333.42 485.118 344.338 483.567C366.442 480.427 388.489 477.295 404.177 466.109C433.053 485.182 464.788 499.244 498.61 492.703C503.966 491.667 509.24 490.285 514.397 488.579C523.372 495.715 532.827 502.329 541.916 508.529C573.273 529.918 609.974 541.933 647.099 534.033Z" fill="#253A04"/>
<path d="M700.935 509.54L702.066 505.081L699.912 504.535L698.145 505.883L700.935 509.54ZM647.099 534.033L648.057 538.533L647.099 534.033ZM777.814 507.656L777.121 503.109H777.12L777.814 507.656ZM779.007 507.474L778.314 502.927L778.313 502.927L779.007 507.474ZM779.977 507.327L779.284 502.779L779.284 502.779L779.977 507.327ZM805.042 504.333L804.567 499.758L805.042 504.333ZM889.286 473.29L888.456 468.765L886.665 469.094L885.585 470.558L889.286 473.29ZM901.864 470.907L900.995 466.39L900.995 466.39L901.864 470.907ZM903.652 470.563L902.784 466.046L902.783 466.046L903.652 470.563ZM924.431 467.051L925.148 471.594L924.431 467.051ZM962.008 459.792L964.097 455.694L962.523 454.891L960.816 455.349L962.008 459.792ZM1058.95 470.959L1060.23 475.379L1058.95 470.959ZM1072.95 465.637L1074.39 461.268L1072.63 460.689L1070.96 461.487L1072.95 465.637ZM1097.72 470.166L1097.53 474.762H1097.53L1097.72 470.166ZM1114.03 469.772L1117.64 466.924L1116.1 464.971L1113.62 465.19L1114.03 469.772ZM1136.24 495.5L1132.84 498.605L1136.24 495.5ZM1232.77 544.445L1232.67 549.044L1232.77 544.445ZM1290.79 532.949L1292.91 528.868L1290.94 527.843L1288.91 528.75L1290.79 532.949ZM1366.05 548.745L1366.42 544.16L1366.42 544.16L1366.05 548.745ZM1368.23 548.92L1368.6 544.335L1368.6 544.335L1368.23 548.92ZM1393.32 551.754L1393.9 547.192L1393.32 551.754ZM1482.43 540.856L1482.66 536.262L1480.84 536.171L1479.46 537.349L1482.43 540.856ZM1495.22 541.422L1495.41 536.826L1495.41 536.825L1495.22 541.422ZM1497.04 541.497L1497.23 536.901H1497.23L1497.04 541.497ZM1518.06 542.842L1518.44 538.258L1518.43 538.256L1518.41 538.255L1518.06 542.842ZM1518.07 542.843L1517.69 547.427L1517.71 547.428L1517.73 547.43L1518.07 542.843ZM1556.31 544.394L1559.29 540.884L1557.94 539.742L1556.17 539.796L1556.31 544.394ZM1648.11 577.494L1647.89 572.899L1648.11 577.494ZM1750.33 508.505L1753.98 511.305L1750.33 508.505ZM1788.14 395.028L1792.59 393.839V393.839L1788.14 395.028ZM1705.68 322.57L1703.67 326.707L1703.67 326.707L1705.68 322.57ZM1705.63 322.546L1707.64 318.409L1707.64 318.408L1705.63 322.546ZM1699.78 319.7L1697.76 323.832L1697.76 323.832L1699.78 319.7ZM1694.22 316.973L1696.25 312.844L1696.25 312.843L1694.22 316.973ZM1694.16 316.944L1692.13 321.07L1692.14 321.074L1694.16 316.944ZM1694.16 316.941L1696.19 312.815L1696.19 312.812L1694.16 316.941ZM1584.87 295.66L1586.59 299.926V299.926L1584.87 295.66ZM1549.31 320.102L1547.1 324.135L1550.19 325.834L1552.63 323.281L1549.31 320.102ZM1443.19 317.359L1444.8 321.668L1443.19 317.359ZM1405.79 333.61L1404.05 337.868L1406.03 338.676L1407.92 337.687L1405.79 333.61ZM1331.63 322.814L1328.07 325.727L1329.76 327.791L1332.39 327.352L1331.63 322.814ZM1292.7 294.07L1291.08 298.374L1292.7 294.07ZM1213.37 310.122L1208.96 311.427L1210.54 316.766L1215.48 314.207L1213.37 310.122ZM1211.05 302.633L1206.67 304.045V304.045L1211.05 302.633ZM1146.55 227.086L1144.2 231.038L1146.55 227.086ZM1034.64 197.53L1033.16 193.174V193.174L1034.64 197.53ZM1022.95 202.136L1022.03 206.643L1023.48 206.94L1024.84 206.331L1022.95 202.136ZM961.484 198.995L959.949 203.331L961.142 203.754L962.384 203.506L961.484 198.995ZM865.31 210.166L863.209 206.074V206.074L865.31 210.166ZM845.199 223.363L841.698 226.346L844.625 229.781L848.115 226.921L845.199 223.363ZM793.855 186.962L795.468 182.655V182.655L793.855 186.962ZM682.377 210.163L684.498 214.245L682.377 210.163ZM604.814 285.155L600.406 283.837V283.837L604.814 285.155ZM604.08 287.703L606.485 291.624L608.029 290.677L608.513 288.931L604.08 287.703ZM574.481 310.404L570.487 312.685L573.249 317.52L577.476 313.895L574.481 310.404ZM570.508 303.646L566.571 306.024V306.024L570.508 303.646ZM490.407 244.901L491.793 240.515L490.407 244.901ZM374.7 241.795L377.138 245.696L374.7 241.795ZM339.943 273.196L337.335 276.985L340.902 279.44L343.568 276.027L339.943 273.196ZM315.314 262.025L316.411 257.558L315.314 262.025ZM212.776 292.925L209.793 289.423L212.776 292.925ZM196.228 310.381L193.504 314.088L197.14 316.76L199.881 313.176L196.228 310.381ZM137.904 286.725L137.322 291.288L137.904 286.725ZM34.7173 334.87L31.7173 331.383L34.7173 334.87ZM-23.5829 425.65L-18.9909 425.922L-23.5829 425.65ZM23.0445 532.06L20.2481 535.712H20.2481L23.0445 532.06ZM136.505 548.217L137.564 552.694L136.505 548.217ZM209.282 510.819L210.647 506.426L208.052 505.62L206.094 507.503L209.282 510.819ZM280.156 499.666L278.584 495.343L280.156 499.666ZM312.301 489.198L311.194 484.734L312.301 489.198ZM344.338 483.567L344.985 488.122H344.985L344.338 483.567ZM404.177 466.109L406.712 462.271L404.078 460.531L401.507 462.364L404.177 466.109ZM498.61 492.703L499.484 497.22L498.61 492.703ZM514.397 488.579L517.26 484.979L515.314 483.431L512.953 484.212L514.397 488.579ZM541.916 508.529L539.324 512.329L541.916 508.529ZM698.145 505.883C683.068 517.385 665.227 525.473 646.142 529.534L648.057 538.533C668.422 534.199 687.525 525.556 703.725 513.197L698.145 505.883ZM777.12 503.109C750.7 507.14 725.248 510.957 702.066 505.081L699.805 513.999C725.125 520.416 752.516 516.17 778.508 512.204L777.12 503.109ZM778.313 502.927L777.121 503.109L778.508 512.204L779.7 512.022L778.313 502.927ZM779.284 502.779L778.314 502.927L779.7 512.022L780.67 511.874L779.284 502.779ZM804.567 499.758C796.071 500.639 787.505 501.527 779.284 502.779L780.669 511.874C788.635 510.661 796.977 509.794 805.516 508.909L804.567 499.758ZM885.585 470.558C877.482 481.536 865.651 488.025 851.462 492.18C837.197 496.358 821.03 498.05 804.567 499.758L805.516 508.909C821.789 507.22 838.83 505.466 854.048 501.01C869.34 496.531 883.264 489.196 892.987 476.022L885.585 470.558ZM900.995 466.39C896.809 467.196 892.632 467.999 888.456 468.765L890.116 477.814C894.338 477.04 898.554 476.229 902.734 475.424L900.995 466.39ZM902.783 466.046L900.995 466.39L902.733 475.424L904.521 475.08L902.783 466.046ZM923.713 462.507C916.658 463.621 909.588 464.738 902.784 466.046L904.521 475.08C911.148 473.806 918.064 472.713 925.148 471.594L923.713 462.507ZM960.816 455.349C949.085 458.495 936.423 460.499 923.713 462.507L925.148 471.594C937.762 469.602 950.916 467.529 963.199 464.235L960.816 455.349ZM1057.68 466.538C1026.5 475.516 993.166 470.519 964.097 455.694L959.918 463.889C990.717 479.598 1026.45 485.103 1060.23 475.379L1057.68 466.538ZM1070.96 461.487C1066.75 463.502 1062.33 465.2 1057.68 466.538L1060.23 475.379C1065.37 473.897 1070.27 472.017 1074.93 469.786L1070.96 461.487ZM1097.9 465.57C1089.68 465.238 1081.86 463.73 1074.39 461.268L1071.51 470.006C1079.75 472.719 1088.41 474.394 1097.53 474.762L1097.9 465.57ZM1113.62 465.19C1108.41 465.651 1103.15 465.782 1097.9 465.57L1097.53 474.762C1103.18 474.99 1108.83 474.849 1114.43 474.354L1113.62 465.19ZM1139.63 492.396C1132.22 484.296 1124.63 475.791 1117.64 466.924L1110.42 472.62C1117.62 481.761 1125.4 490.468 1132.84 498.605L1139.63 492.396ZM1232.87 539.846C1196.57 539.058 1164.71 519.816 1139.63 492.396L1132.84 498.605C1159 527.203 1193.07 548.184 1232.67 549.044L1232.87 539.846ZM1288.91 528.75C1271.6 536.488 1252.38 540.27 1232.87 539.846L1232.67 549.044C1253.49 549.496 1274.06 545.463 1292.67 537.149L1288.91 528.75ZM1366.42 544.16C1339.78 542.025 1314.13 539.904 1292.91 528.868L1288.67 537.03C1311.84 549.083 1339.48 551.231 1365.68 553.331L1366.42 544.16ZM1368.6 544.335L1366.42 544.16L1365.68 553.331L1367.86 553.505L1368.6 544.335ZM1393.9 547.192C1385.43 546.102 1376.89 545.001 1368.6 544.335L1367.86 553.505C1375.89 554.151 1384.21 555.221 1392.73 556.317L1393.9 547.192ZM1479.46 537.349C1469.05 546.176 1456.05 549.779 1441.29 550.57C1426.44 551.365 1410.32 549.304 1393.9 547.192L1392.73 556.317C1408.95 558.405 1425.94 560.605 1441.78 559.757C1457.69 558.904 1472.92 554.957 1485.41 544.364L1479.46 537.349ZM1495.41 536.825C1491.15 536.65 1486.9 536.474 1482.66 536.262L1482.2 545.451C1486.49 545.665 1490.78 545.842 1495.03 546.018L1495.41 536.825ZM1497.23 536.901L1495.41 536.826L1495.03 546.018L1496.85 546.093L1497.23 536.901ZM1518.41 538.255C1511.29 537.722 1504.15 537.187 1497.23 536.901L1496.85 546.093C1503.59 546.372 1510.57 546.894 1517.72 547.429L1518.41 538.255ZM1518.45 538.258L1518.44 538.258L1517.68 547.426L1517.68 547.426L1518.45 538.258ZM1518.45 538.258L1518.45 538.258L1517.68 547.426L1517.68 547.426L1518.45 538.258ZM1518.45 538.258L1518.45 538.258L1517.68 547.426L1517.68 547.426L1518.45 538.258ZM1518.45 538.258L1518.45 538.258L1517.68 547.426L1517.69 547.426L1518.45 538.258ZM1518.45 538.258L1518.45 538.258L1517.69 547.426L1517.69 547.426L1518.45 538.258ZM1518.45 538.258L1518.45 538.258L1517.69 547.426L1517.69 547.426L1518.45 538.258ZM1518.45 538.258L1518.45 538.258L1517.69 547.426L1517.69 547.426L1518.45 538.258ZM1518.45 538.258L1518.45 538.258L1517.69 547.426L1517.69 547.427L1518.45 538.258ZM1518.45 538.258L1518.45 538.258L1517.69 547.427L1517.69 547.427L1518.45 538.258ZM1556.17 539.796C1544.03 540.168 1531.25 539.216 1518.42 538.255L1517.73 547.43C1530.46 548.383 1543.74 549.381 1556.45 548.992L1556.17 539.796ZM1647.89 572.899C1615.48 574.487 1584.18 561.98 1559.29 540.884L1553.34 547.903C1579.72 570.255 1613.23 583.808 1648.34 582.088L1647.89 572.899ZM1746.68 505.704C1720.39 539.963 1688.83 570.893 1647.89 572.899L1648.34 582.088C1693.78 579.862 1727.61 545.665 1753.98 511.305L1746.68 505.704ZM1783.7 396.218C1793.92 434.382 1772.24 472.396 1746.68 505.704L1753.98 511.305C1779.49 478.058 1804.07 436.715 1792.59 393.839L1783.7 396.218ZM1703.67 326.707C1721.26 335.253 1738.95 343.87 1753.53 354.884C1768.02 365.837 1779.07 378.912 1783.7 396.218L1792.59 393.839C1787.25 373.91 1774.57 359.26 1759.07 347.544C1743.65 335.89 1725.1 326.894 1707.69 318.432L1703.67 326.707ZM1703.62 326.682L1703.67 326.707L1707.69 318.433L1707.64 318.409L1703.62 326.682ZM1697.76 323.832C1699.7 324.782 1701.66 325.732 1703.62 326.683L1707.64 318.408C1705.68 317.456 1703.73 316.511 1701.8 315.567L1697.76 323.832ZM1692.19 321.101C1694.05 322.015 1695.91 322.927 1697.76 323.832L1701.8 315.567C1699.96 314.667 1698.11 313.758 1696.25 312.844L1692.19 321.101ZM1692.14 321.074L1692.2 321.102L1696.25 312.843L1696.19 312.814L1692.14 321.074ZM1692.12 321.067L1692.13 321.07L1696.2 312.818L1696.19 312.815L1692.12 321.067ZM1586.59 299.926C1603.49 293.116 1620.88 293.933 1638.64 298.743C1656.51 303.579 1674.36 312.335 1692.13 321.069L1696.19 312.812C1678.58 304.162 1659.92 294.973 1641.05 289.863C1622.08 284.726 1602.51 283.594 1583.15 291.393L1586.59 299.926ZM1552.63 323.281C1562.2 313.274 1573.47 305.209 1586.59 299.926L1583.15 291.393C1568.69 297.218 1556.35 306.08 1545.98 316.924L1552.63 323.281ZM1444.8 321.668C1478.87 308.933 1516.02 307.085 1547.1 324.135L1551.52 316.07C1517.36 297.324 1477.24 299.722 1441.58 313.05L1444.8 321.668ZM1407.92 337.687C1419.75 331.512 1432.38 326.312 1444.8 321.668L1441.58 313.05C1428.99 317.756 1415.96 323.108 1403.66 329.532L1407.92 337.687ZM1332.39 327.352C1356.09 323.388 1380.54 328.266 1404.05 337.868L1407.53 329.351C1383.05 319.353 1356.81 313.94 1330.87 318.277L1332.39 327.352ZM1291.08 298.374C1305.84 303.951 1318.12 313.566 1328.07 325.727L1335.19 319.902C1324.39 306.7 1310.84 296.004 1294.33 289.767L1291.08 298.374ZM1215.48 314.207C1242.05 300.458 1266.34 289.031 1291.08 298.374L1294.33 289.767C1265.16 278.753 1237.11 292.657 1211.25 306.036L1215.48 314.207ZM1206.67 304.045C1207.46 306.49 1208.22 308.952 1208.96 311.427L1217.78 308.817C1217.02 306.265 1216.24 303.732 1215.43 301.221L1206.67 304.045ZM1144.2 231.038C1173.47 248.476 1196.42 272.249 1206.67 304.045L1215.43 301.222C1204.3 266.709 1179.49 241.357 1148.91 223.134L1144.2 231.038ZM1036.12 201.886C1054.07 195.794 1072.23 197.758 1090.45 203.977C1108.75 210.223 1126.73 220.626 1144.2 231.038L1148.91 223.134C1131.51 212.769 1112.76 201.87 1093.42 195.271C1074.01 188.644 1053.66 186.219 1033.16 193.174L1036.12 201.886ZM1024.84 206.331C1028.53 204.67 1032.3 203.185 1036.12 201.886L1033.16 193.174C1029.06 194.568 1025.02 196.161 1021.06 197.941L1024.84 206.331ZM962.384 203.506C980.85 199.821 1001.17 202.385 1022.03 206.643L1023.87 197.629C1002.8 193.328 980.952 190.419 960.584 194.484L962.384 203.506ZM867.411 214.258C896.637 199.255 930.494 192.901 959.949 203.331L963.02 194.659C930.377 183.1 893.804 190.368 863.209 206.074L867.411 214.258ZM848.115 226.921C853.996 222.102 860.418 217.848 867.411 214.258L863.209 206.074C855.622 209.969 848.655 214.584 842.284 219.805L848.115 226.921ZM792.241 191.27C811.539 198.498 828.444 210.791 841.698 226.346L848.701 220.379C834.502 203.715 816.325 190.466 795.468 182.655L792.241 191.27ZM684.498 214.245C702.247 205.025 720.375 195.942 738.621 190.838C756.79 185.755 774.743 184.717 792.241 191.27L795.468 182.655C775.571 175.203 755.503 176.561 736.142 181.978C716.858 187.373 697.944 196.893 680.257 206.08L684.498 214.245ZM609.221 286.472C619.451 252.253 650.875 231.709 684.498 214.245L680.257 206.08C646.726 223.497 611.851 245.554 600.406 283.837L609.221 286.472ZM608.513 288.931C608.741 288.11 608.977 287.29 609.221 286.472L600.406 283.837C600.144 284.714 599.891 285.594 599.647 286.475L608.513 288.931ZM577.476 313.895C587.173 305.578 596.627 297.672 606.485 291.624L601.675 283.782C591.111 290.262 581.146 298.627 571.486 306.912L577.476 313.895ZM566.571 306.024C567.899 308.223 569.206 310.444 570.487 312.685L578.475 308.122C577.155 305.811 575.809 303.525 574.446 301.268L566.571 306.024ZM489.021 249.288C521.51 259.55 549.299 277.426 566.571 306.024L574.446 301.268C555.698 270.227 525.741 251.238 491.793 240.515L489.021 249.288ZM377.138 245.696C393.21 235.651 411.34 233.398 430.498 235.274C449.738 237.158 469.625 243.161 489.021 249.288L491.793 240.515C472.481 234.415 451.726 228.108 431.395 226.117C410.983 224.119 390.612 226.426 372.262 237.894L377.138 245.696ZM343.568 276.027C352.899 264.081 364.308 253.714 377.138 245.696L372.262 237.894C358.498 246.497 346.292 257.595 336.318 270.364L343.568 276.027ZM342.551 269.406C334.794 264.068 326.152 259.95 316.411 257.558L314.217 266.493C322.776 268.594 330.405 272.216 337.335 276.985L342.551 269.406ZM316.411 257.558C277.966 248.119 239.009 264.531 209.793 289.423L215.76 296.426C243.72 272.604 279.715 258.021 314.217 266.493L316.411 257.558ZM209.793 289.423C203.301 294.955 197.578 301.044 192.574 307.587L199.881 313.176C204.5 307.137 209.776 301.524 215.76 296.426L209.793 289.423ZM198.952 306.675C181.31 293.711 160.579 284.982 138.487 282.162L137.322 291.288C157.762 293.898 177.036 301.987 193.504 314.088L198.952 306.675ZM138.487 282.162C117.411 279.471 98.1897 285.395 80.5864 295.107C63.0531 304.781 46.8266 318.384 31.7173 331.383L37.7172 338.357C52.88 325.313 68.4414 312.315 85.0307 303.163C101.55 294.049 118.786 288.922 137.322 291.288L138.487 282.162ZM31.7173 331.383C3.07362 356.025 -25.8137 385.491 -28.1749 425.378L-18.9909 425.922C-16.8804 390.269 8.99514 363.066 37.7172 338.357L31.7173 331.383ZM-28.1749 425.378C-30.6629 467.41 -13.4412 509.919 20.2481 535.712L25.8409 528.407C-5.17026 504.664 -21.3181 465.234 -18.9909 425.922L-28.1749 425.378ZM20.2481 535.712C53.743 561.356 97.8454 562.088 137.564 552.694L135.446 543.741C96.9389 552.848 56.1711 551.629 25.8409 528.407L20.2481 535.712ZM137.564 552.694C165.524 546.081 192.161 533.665 212.47 514.134L206.094 507.503C187.261 525.613 162.249 537.402 135.446 543.741L137.564 552.694ZM207.917 515.212C219.792 518.9 232.218 518.227 244.558 515.63C256.864 513.04 269.477 508.444 281.728 503.989L278.584 495.343C266.196 499.848 254.214 504.196 242.663 506.627C231.148 509.05 220.456 509.473 210.647 506.426L207.917 515.212ZM281.728 503.989C292.551 500.053 303.11 496.218 313.409 493.663L311.194 484.734C300.338 487.426 289.312 491.441 278.584 495.343L281.728 503.989ZM313.409 493.663C323.326 491.203 334.019 489.68 344.985 488.122L343.691 479.013C332.82 480.557 321.649 482.14 311.194 484.734L313.409 493.663ZM344.985 488.122C366.754 485.029 390.062 481.823 406.848 469.855L401.507 462.364C386.916 472.767 366.129 475.826 343.691 479.013L344.985 488.122ZM497.737 488.187C465.738 494.375 435.311 481.16 406.712 462.271L401.642 469.948C430.795 489.203 463.837 504.113 499.484 497.22L497.737 488.187ZM512.953 484.212C507.98 485.857 502.897 487.189 497.737 488.187L499.484 497.22C505.036 496.146 510.501 494.714 515.842 492.947L512.953 484.212ZM544.508 504.729C535.44 498.543 526.099 492.006 517.26 484.979L511.534 492.18C520.646 499.425 530.215 506.115 539.324 512.329L544.508 504.729ZM646.142 529.534C610.632 537.09 575.206 525.668 544.508 504.729L539.324 512.329C571.339 534.167 609.316 546.776 648.057 538.533L646.142 529.534Z" fill="#142100"/>
<path d="M364.202 351.635C340.513 340.544 328.527 314.099 339.568 291.895C350.609 269.692 379.401 262.339 403.09 273.43C426.78 284.521 438.765 310.966 427.724 333.17C416.683 355.373 387.891 362.726 364.202 351.635Z" fill="#FC9898" stroke="#012758" stroke-width="11.9685"/>
<path d="M363.498 284.401C382.279 274.716 406.425 283.438 417.429 303.881" stroke="#FCF6EA" stroke-width="11.9685" stroke-linecap="round"/>
<ellipse cx="6.59925" cy="6.42912" rx="6.59925" ry="6.42912" transform="matrix(-0.993593 0.113015 0.113015 0.993593 357.283 289.637)" fill="#FCF6EA"/>
<path fill-rule="evenodd" clip-rule="evenodd" d="M341.754 303.295C338.106 320.189 347.927 338.691 366.374 347.328C384.498 355.814 405.123 352.049 416.611 339.317C393.593 336.923 363.188 327.747 341.754 303.295Z" fill="#D68181"/>
<path d="M373.443 264.365C386.818 290.596 402.38 347.816 357.63 366.852C312.88 385.888 349.526 306.459 373.443 264.365Z" fill="#FC9898" stroke="#012758" stroke-width="11.9685"/>
<path d="M347.238 156.526C330.63 158.415 315.415 146.802 313.532 130.245C311.649 113.689 323.866 98.9557 340.475 97.0666C357.083 95.1775 372.297 106.79 374.18 123.347C376.064 139.904 363.846 154.637 347.238 156.526Z" fill="#FDE7D2" stroke="#062855" stroke-width="11.9685"/>
<ellipse cx="15.559" cy="15.2598" rx="15.559" ry="15.2598" transform="matrix(-0.993593 0.113015 0.113015 0.993593 357.556 109.578)" fill="#022656"/>
<mask id="path-10-outside-1_150_230" maskUnits="userSpaceOnUse" x="125.704" y="95.9537" width="301.789" height="307.953" fill="black">
<rect fill="white" x="125.704" y="95.9537" width="301.789" height="307.953"/>
<path fill-rule="evenodd" clip-rule="evenodd" d="M369.785 267.639C388.22 249.394 398.395 223.53 395.286 196.192C389.823 148.166 345.431 113.779 296.135 119.386C262.641 123.195 235.501 144.487 223.255 172.808C202.354 183.058 183.941 199.894 171.519 222.131C141.358 276.129 157.953 341.528 208.586 368.202C259.219 394.876 324.717 372.726 354.879 318.728C364.064 302.283 368.913 284.782 369.785 267.639Z"/>
</mask>
<path fill-rule="evenodd" clip-rule="evenodd" d="M369.785 267.639C388.22 249.394 398.395 223.53 395.286 196.192C389.823 148.166 345.431 113.779 296.135 119.386C262.641 123.195 235.501 144.487 223.255 172.808C202.354 183.058 183.941 199.894 171.519 222.131C141.358 276.129 157.953 341.528 208.586 368.202C259.219 394.876 324.717 372.726 354.879 318.728C364.064 302.283 368.913 284.782 369.785 267.639Z" fill="#FC9898"/>
<path d="M369.785 267.639L357.832 267.031L358.068 262.396L361.366 259.132L369.785 267.639ZM223.255 172.808L234.24 177.558L232.488 181.611L228.525 183.554L223.255 172.808ZM171.519 222.131L181.968 227.968L171.519 222.131ZM208.586 368.202L214.165 357.613L208.586 368.202ZM354.879 318.728L344.43 312.891L354.879 318.728ZM361.366 259.132C377.357 243.307 386.063 221.016 383.394 197.545L407.177 194.839C410.727 226.044 399.084 255.481 378.204 276.146L361.366 259.132ZM383.394 197.545C378.711 156.377 340.511 126.384 297.487 131.278L294.782 107.494C350.352 101.173 400.935 139.955 407.177 194.839L383.394 197.545ZM297.487 131.278C268.318 134.595 244.812 153.109 234.24 177.558L212.269 168.058C226.19 135.864 256.965 111.795 294.782 107.494L297.487 131.278ZM228.525 183.554C209.771 192.751 193.182 207.892 181.968 227.968L161.071 216.295C174.699 191.896 194.937 173.365 217.985 162.062L228.525 183.554ZM181.968 227.968C154.635 276.903 170.269 334.488 214.165 357.613L203.008 378.791C145.637 348.567 128.081 275.356 161.071 216.295L181.968 227.968ZM214.165 357.613C258.319 380.874 317.016 361.969 344.43 312.891L365.328 324.564C332.418 383.483 260.12 408.879 203.008 378.791L214.165 357.613ZM344.43 312.891C352.722 298.047 357.054 282.334 357.832 267.031L381.738 268.247C380.773 287.23 375.407 306.52 365.328 324.564L344.43 312.891Z" fill="#012758" mask="url(#path-10-outside-1_150_230)"/>
<path fill-rule="evenodd" clip-rule="evenodd" d="M395.286 196.192C398.396 223.53 388.221 249.394 369.786 267.639C368.914 284.782 364.065 302.283 354.879 318.727C326.891 368.834 268.476 391.518 219.746 373.214L326.942 190.902L385.671 165.386C390.677 174.708 394.023 185.085 395.286 196.192Z" fill="#FFF3E5"/>
<path d="M259.48 141.057C280.13 117.676 322.055 117.318 345.072 136.603" stroke="#FCF6EA" stroke-width="11.9685" stroke-linecap="round"/>
<line x1="5.98425" y1="-5.98425" x2="10.6903" y2="-5.98425" transform="matrix(-0.67385 0.738869 0.756112 0.654443 239.822 210.901)" stroke="#012758" stroke-width="11.9685" stroke-linecap="round"/>
<line x1="5.98425" y1="-5.98425" x2="11.0428" y2="-5.98425" transform="matrix(-0.695553 0.718475 0.736142 0.676827 216.062 214.225)" stroke="#012758" stroke-width="11.9685" stroke-linecap="round"/>
<line x1="5.98425" y1="-5.98425" x2="13.7262" y2="-5.98425" transform="matrix(-0.681253 0.732048 0.749444 0.662067 238.156 184.08)" stroke="#012758" stroke-width="11.9685" stroke-linecap="round"/>
<path d="M250.018 167.583C233.504 169.462 218.485 157.758 216.609 141.269C214.734 124.781 226.741 110.003 243.254 108.124C259.768 106.246 274.787 117.95 276.663 134.438C278.538 150.927 266.531 165.705 250.018 167.583Z" fill="#FDE7D2" stroke="#062855" stroke-width="11.9685"/>
<ellipse cx="15.559" cy="15.2598" rx="15.559" ry="15.2598" transform="matrix(-0.993593 0.113015 0.113015 0.993593 260.636 120.603)" fill="#022656"/>
<ellipse cx="9.87401" cy="9.5748" rx="9.87401" ry="9.5748" transform="matrix(-0.993593 0.113015 0.113015 0.993593 347.803 145.62)" fill="#022656"/>
<ellipse cx="9.87401" cy="9.5748" rx="9.87401" ry="9.5748" transform="matrix(-0.993593 0.113015 0.113015 0.993593 307.966 150.151)" fill="#022656"/>
<path d="M380.169 165.428C363.591 178.397 318.293 200.395 269.727 184.64" stroke="#012758" stroke-width="11.9685" stroke-linecap="round"/>
<path d="M164.663 374.331C140.973 363.24 128.988 336.795 140.029 314.592C151.07 292.388 179.862 285.035 203.551 296.126C227.241 307.217 239.226 333.662 228.185 355.866C217.144 378.069 188.352 385.422 164.663 374.331Z" fill="#FC9898" stroke="#012758" stroke-width="11.9685"/>
<path d="M163.958 307.097C182.739 297.412 206.885 306.134 217.889 326.577" stroke="#FCF6EA" stroke-width="11.9685" stroke-linecap="round"/>
<ellipse cx="6.59925" cy="6.42912" rx="6.59925" ry="6.42912" transform="matrix(-0.993593 0.113015 0.113015 0.993593 157.743 312.333)" fill="#FCF6EA"/>
<path fill-rule="evenodd" clip-rule="evenodd" d="M142.222 325.992C138.574 342.885 148.395 361.387 166.842 370.024C184.966 378.51 205.591 374.745 217.079 362.013C194.06 359.619 163.656 350.444 142.222 325.992Z" fill="#D68181"/>
<path d="M210.233 381.704C210.936 387.886 216.651 392.417 223.112 391.682C229.574 390.947 234.125 385.248 233.422 379.066C232.719 372.885 227.004 368.353 220.542 369.088C214.081 369.823 209.529 375.522 210.233 381.704Z" fill="#FC9898" stroke="#012758" stroke-width="5.98425"/>
<path d="M190.234 391.206C190.925 397.278 196.804 401.902 203.708 401.116C210.612 400.331 215.303 394.505 214.612 388.433C213.921 382.361 208.042 377.737 201.138 378.522C194.234 379.307 189.543 385.134 190.234 391.206Z" fill="#FC9898" stroke="#012758" stroke-width="5.98425"/>
<path d="M168.129 392.817C168.814 398.833 174.379 403.248 180.678 402.532C186.976 401.815 191.408 396.263 190.724 390.247C190.039 384.23 184.474 379.815 178.175 380.532C171.877 381.248 167.445 386.8 168.129 392.817Z" fill="#FC9898" stroke="#012758" stroke-width="5.98425"/>
<path d="M269.855 282.888L270.668 283.844L271.028 285.046C274.849 297.807 280.837 317.123 286.377 333.594C289.15 341.84 291.787 349.3 293.969 354.846C295.064 357.632 296.005 359.833 296.761 361.376C297.1 362.069 297.362 362.546 297.545 362.847C300.575 365.233 302.134 368.187 302.892 369.624C302.917 369.671 302.941 369.717 302.965 369.762L309.374 369.033L308.902 376.183C308.807 377.622 308.371 379.758 306.645 381.491C304.808 383.336 302.564 383.687 301.073 383.651C299.672 383.617 298.419 383.246 297.59 382.96C296.703 382.655 295.822 382.272 295.104 381.954C294.879 381.854 294.666 381.759 294.464 381.668C293.4 381.194 292.649 380.858 292.002 380.64L291.673 380.88L289.884 380.966C287.264 381.093 286.897 381.294 286.809 381.341L286.809 381.342L286.807 381.342C286.766 381.364 286.236 381.646 284.774 383.951L283.663 385.701L281.708 386.389C280.829 386.699 280.27 386.91 279.677 387.135C279.132 387.342 278.558 387.559 277.679 387.874C276.45 388.314 274.707 388.909 273.071 389.095C272.28 389.185 270.82 389.273 269.254 388.693C267.302 387.969 265.638 386.358 265.019 384.057C264.525 382.216 264.879 380.567 265.156 379.617C265.466 378.557 265.942 377.513 266.46 376.535C266.651 376.175 266.83 375.838 267 375.519C267.635 374.326 268.132 373.394 268.543 372.511C269.055 371.414 269.215 370.837 269.259 370.542C269.264 370.507 269.267 370.48 269.268 370.461C269.213 370.35 268.969 369.933 268.154 369.21C265.086 366.488 255.614 356.18 246.709 344.382C242.218 338.432 237.748 331.943 234.239 325.684C230.811 319.568 227.964 313.09 227.305 307.297L227.275 307.03L227.269 306.761C226.975 294.245 235.446 285.56 243.945 281.337C248.251 279.198 252.98 277.959 257.37 277.927C261.6 277.896 266.568 279.019 269.855 282.888ZM297.741 363.141C297.741 363.139 297.724 363.115 297.69 363.073C297.724 363.122 297.741 363.143 297.741 363.141ZM291.206 380.433C291.208 380.436 291.246 380.443 291.315 380.447C291.238 380.432 291.204 380.431 291.206 380.433Z" fill="#FC9898" stroke="#012758" stroke-width="11.9685" stroke-linecap="round"/>
<path d="M294.786 376.83C294.58 382.983 299.546 388.233 306.041 388.403C312.537 388.573 317.846 383.592 318.052 377.439C318.259 371.286 313.293 366.036 306.797 365.866C300.302 365.696 294.993 370.677 294.786 376.83Z" fill="#FC9898" stroke="#012758" stroke-width="5.98425"/>
<path d="M365.219 364.325C365.013 370.479 369.978 375.728 376.474 375.898C382.97 376.068 388.278 371.087 388.485 364.934C388.691 358.781 383.726 353.531 377.23 353.361C370.734 353.191 365.425 358.172 365.219 364.325Z" fill="#FC9898" stroke="#012758" stroke-width="5.98425"/>
<path d="M273.263 386.181C273.057 392.334 278.022 397.583 284.518 397.753C291.014 397.923 296.322 392.942 296.529 386.789C296.735 380.636 291.77 375.386 285.274 375.216C278.778 375.046 273.469 380.027 273.263 386.181Z" fill="#FC9898" stroke="#012758" stroke-width="5.98425"/>
<path d="M343.696 373.676C343.489 379.83 348.455 385.079 354.951 385.249C361.446 385.419 366.755 380.438 366.961 374.285C367.168 368.132 362.202 362.882 355.706 362.712C349.211 362.542 343.902 367.523 343.696 373.676Z" fill="#FC9898" stroke="#012758" stroke-width="5.98425"/>
<path d="M251.035 381.728C250.828 387.881 255.794 393.131 262.289 393.301C268.785 393.471 274.094 388.49 274.3 382.337C274.507 376.184 269.541 370.934 263.045 370.764C256.55 370.594 251.241 375.575 251.035 381.728Z" fill="#FC9898" stroke="#012758" stroke-width="5.98425"/>
<path d="M321.467 369.223C321.261 375.377 326.226 380.626 332.722 380.796C339.218 380.966 344.526 375.985 344.733 369.832C344.939 363.679 339.974 358.429 333.478 358.259C326.982 358.089 321.674 363.07 321.467 369.223Z" fill="#FC9898" stroke="#012758" stroke-width="5.98425"/>
<ellipse cx="4.71818" cy="4.59687" rx="4.71818" ry="4.59687" transform="matrix(0.988873 -0.148759 0.150669 0.988584 157.143 220.804)" fill="#012758"/>
<ellipse cx="4.71818" cy="4.59687" rx="4.71818" ry="4.59687" transform="matrix(0.988873 -0.148759 0.150669 0.988584 165.84 240.302)" fill="#012758"/>
<ellipse cx="4.71818" cy="4.59687" rx="4.71818" ry="4.59687" transform="matrix(0.988873 -0.148759 0.150669 0.988584 172.947 256.241)" fill="#012758"/>
<path d="M226.075 95.8427C225.547 100.689 225.701 101.956 225.69 110.943" stroke="#062855" stroke-width="5.98425" stroke-linecap="round"/>
<path d="M243.622 94.0634C243.068 98.2649 243.177 99.3589 242.99 107.138" stroke="#062855" stroke-width="5.98425" stroke-linecap="round"/>
<path d="M259.836 93.6497C259.283 97.8513 259.392 98.9452 259.205 106.724" stroke="#062855" stroke-width="5.98425" stroke-linecap="round"/>
<path d="M328.857 85.9582C328.329 90.8049 328.484 92.0711 328.473 101.059" stroke="#062855" stroke-width="5.98425" stroke-linecap="round"/>
<path d="M346.404 84.1792C345.851 88.3808 345.96 89.4747 345.772 97.2539" stroke="#062855" stroke-width="5.98425" stroke-linecap="round"/>
<path d="M362.619 83.7654C362.065 87.967 362.174 89.0609 361.987 96.8401" stroke="#062855" stroke-width="5.98425" stroke-linecap="round"/>
<path fill-rule="evenodd" clip-rule="evenodd" d="M1443.8 497.011C1478.67 510.043 1517.3 512.166 1549.92 494.268C1559.88 504.693 1571.69 513.156 1585.48 518.711C1621.74 533.319 1659.39 514.814 1694.77 497.43C1696.65 496.505 1698.52 495.584 1700.39 494.671C1702.34 493.716 1704.31 492.76 1706.29 491.801C1741.29 474.793 1778.78 456.577 1788.75 419.342C1799.6 378.822 1776.48 339.143 1750.94 305.866C1724.61 271.557 1691.92 238.993 1648.72 236.877C1614.96 235.223 1582.56 248.253 1556.92 269.977C1544.5 269.596 1531.46 270.571 1518.68 271.528C1511.54 272.062 1504.48 272.59 1497.65 272.874L1495.83 272.949L1495.83 272.949C1491.58 273.125 1487.31 273.301 1483.04 273.514C1460.15 254.093 1426.57 258.415 1393.92 262.616C1385.43 263.709 1377 264.794 1368.84 265.45L1366.66 265.625C1340.24 267.742 1313.59 269.877 1291.4 281.421C1273.44 273.395 1253.54 269.487 1233.38 269.925C1195.43 270.75 1162.46 290.861 1136.85 318.87C1129.42 326.989 1121.74 335.594 1114.64 344.598C1109.23 344.12 1103.78 343.984 1098.33 344.204C1089.66 344.554 1081.42 346.146 1073.56 348.734C1069.12 346.611 1064.46 344.822 1059.56 343.412C1027.08 334.061 992.551 339.312 962.617 354.579C950.61 351.358 937.702 349.32 925.04 347.32C917.971 346.203 910.978 345.098 904.262 343.807L902.474 343.463C898.291 342.658 894.095 341.851 889.895 341.08C872.07 316.928 838.386 313.434 805.652 310.037C797.134 309.154 788.68 308.276 780.586 307.044C779.866 306.934 779.145 306.824 778.424 306.714C752.218 302.715 725.796 298.684 701.545 304.831C685.906 292.9 667.434 284.534 647.709 280.337C610.583 272.437 573.882 284.453 542.526 305.841C533.437 312.041 523.982 318.655 515.007 325.791C509.849 324.085 504.576 322.703 499.219 321.667C465.397 315.126 433.662 329.189 404.786 348.261C389.098 337.075 367.051 333.943 344.947 330.803C334.029 329.252 323.097 327.699 312.911 325.172C302.334 322.549 291.541 318.624 280.766 314.705C256.126 305.744 231.575 296.816 209.891 303.552C190.32 284.731 164.496 272.629 137.114 266.153C98.0015 256.902 55.5664 257.878 23.6539 282.311C-8.69635 307.079 -25.3811 348.048 -22.9735 388.72C-20.7377 426.491 6.64375 454.825 35.3266 479.5C65.5987 505.543 98.9024 532.703 138.514 527.645C159.78 524.93 179.782 516.522 196.837 503.989C201.649 510.28 207.148 516.131 213.386 521.446C241.974 545.803 279.45 561.3 315.923 552.345C325.073 550.099 333.209 546.229 340.552 541.175C350.205 553.532 362.012 564.265 375.309 572.575C409.732 594.089 452.308 581.696 491.016 569.469C524.234 558.976 553.107 540.544 571.117 510.725C572.463 508.496 573.79 506.243 575.09 503.967C584.769 512.268 594.478 520.404 604.689 526.667C604.925 527.519 605.17 528.368 605.423 529.216C616.26 565.467 649.41 586.767 682.987 604.208C718.424 622.615 757.068 641.414 794.464 627.408C814.541 619.889 832.082 607.117 845.809 591.008C851.935 596.028 858.63 600.462 865.92 604.204C895.83 619.559 931.045 626.37 962.093 615.375C981.51 619.25 1002.59 616.514 1023.56 612.235C1027.38 613.955 1031.29 615.494 1035.25 616.841C1073.69 629.887 1112.29 608.061 1147.16 587.284C1177.09 569.454 1200.97 544.892 1211.66 511.737C1212.46 509.26 1213.23 506.762 1213.98 504.249C1240.19 517.813 1266.36 530.479 1293.31 520.3C1308.95 514.393 1321.87 504.237 1332.24 491.556C1357.06 495.706 1382.41 490.561 1406.4 480.761C1418.46 487.061 1431.29 492.336 1443.8 497.011Z" fill="#3D5D09"/>
<path d="M1549.92 494.268L1553.24 491.089L1550.8 488.536L1547.7 490.235L1549.92 494.268ZM1443.8 497.011L1442.19 501.32L1443.8 497.011ZM1585.48 518.711L1587.2 514.444L1585.48 518.711ZM1694.77 497.43L1696.8 501.558L1694.77 497.43ZM1700.39 494.671L1698.37 490.538L1698.37 490.538L1700.39 494.671ZM1706.29 491.801L1704.28 487.663V487.663L1706.29 491.801ZM1788.75 419.342L1793.2 420.532V420.532L1788.75 419.342ZM1750.94 305.866L1754.59 303.065L1750.94 305.866ZM1648.72 236.877L1648.95 232.282L1648.72 236.877ZM1556.92 269.977L1556.78 274.575L1558.55 274.629L1559.9 273.486L1556.92 269.977ZM1518.68 271.528L1519.02 276.115L1518.68 271.528ZM1497.65 272.874L1497.84 277.47L1497.84 277.47L1497.65 272.874ZM1495.83 272.949L1495.64 268.353L1495.64 268.353L1495.83 272.949ZM1495.83 272.949L1496.02 277.545L1496.02 277.545L1495.83 272.949ZM1483.04 273.514L1480.07 277.022L1481.45 278.199L1483.27 278.108L1483.04 273.514ZM1393.92 262.616L1393.34 258.054L1393.92 262.616ZM1368.84 265.45L1369.21 270.036L1369.21 270.035L1368.84 265.45ZM1366.66 265.625L1367.03 270.21L1367.03 270.21L1366.66 265.625ZM1291.4 281.421L1289.52 285.621L1291.55 286.527L1293.52 285.502L1291.4 281.421ZM1233.38 269.925L1233.28 265.326L1233.38 269.925ZM1136.85 318.87L1140.24 321.974V321.974L1136.85 318.87ZM1114.64 344.598L1114.23 349.18L1116.71 349.399L1118.25 347.446L1114.64 344.598ZM1098.33 344.204L1098.14 339.608L1098.33 344.204ZM1073.56 348.734L1071.57 352.883L1073.24 353.681L1075 353.103L1073.56 348.734ZM1059.56 343.412L1060.83 338.991V338.991L1059.56 343.412ZM962.617 354.579L961.426 359.022L963.133 359.479L964.707 358.676L962.617 354.579ZM925.04 347.32L924.323 351.863L925.04 347.32ZM904.262 343.807L903.393 348.324L903.394 348.324L904.262 343.807ZM902.474 343.463L901.605 347.98L901.605 347.98L902.474 343.463ZM889.895 341.08L886.194 343.812L887.275 345.276L889.065 345.605L889.895 341.08ZM805.652 310.037L805.177 314.613L805.652 310.037ZM780.586 307.044L781.279 302.496V302.496L780.586 307.044ZM778.424 306.714L777.73 311.261L778.424 306.714ZM701.545 304.831L698.755 308.488L700.521 309.835L702.675 309.29L701.545 304.831ZM647.709 280.337L646.751 284.836L647.709 280.337ZM542.526 305.841L545.118 309.642L542.526 305.841ZM515.007 325.791L513.562 330.158L515.923 330.939L517.869 329.392L515.007 325.791ZM499.219 321.667L498.346 326.183L499.219 321.667ZM404.786 348.261L402.116 352.006L404.687 353.839L407.322 352.099L404.786 348.261ZM344.947 330.803L345.594 326.249L344.947 330.803ZM312.911 325.172L314.018 320.707L312.911 325.172ZM280.766 314.705L279.193 319.028L280.766 314.705ZM209.891 303.552L206.703 306.867L208.661 308.751L211.256 307.945L209.891 303.552ZM137.114 266.153L138.173 261.677L137.114 266.153ZM23.6539 282.311L26.4503 285.963L23.6539 282.311ZM-22.9735 388.72L-18.3816 388.449L-22.9735 388.72ZM35.3266 479.5L32.3267 482.988L35.3266 479.5ZM138.514 527.645L137.931 523.082L138.514 527.645ZM196.837 503.989L200.491 501.194L197.749 497.61L194.113 500.282L196.837 503.989ZM213.386 521.446L210.403 524.947L213.386 521.446ZM315.923 552.345L314.827 547.878L315.923 552.345ZM340.552 541.175L344.177 538.343L341.511 534.93L337.944 537.386L340.552 541.175ZM375.309 572.575L377.747 568.674L375.309 572.575ZM491.016 569.469L489.631 565.083L491.016 569.469ZM571.117 510.725L575.055 513.103L571.117 510.725ZM575.09 503.967L578.085 500.475L573.858 496.85L571.096 501.685L575.09 503.967ZM604.689 526.667L609.122 525.439L608.639 523.693L607.095 522.746L604.689 526.667ZM605.423 529.216L601.016 530.533V530.533L605.423 529.216ZM682.987 604.208L680.866 608.29L682.987 604.208ZM794.464 627.408L792.851 623.1L794.464 627.408ZM845.809 591.008L848.724 587.45L845.234 584.59L842.307 588.024L845.809 591.008ZM865.92 604.204L868.02 600.112L865.92 604.204ZM962.093 615.375L962.994 610.864L961.752 610.616L960.558 611.039L962.093 615.375ZM1023.56 612.235L1025.44 608.04L1024.09 607.431L1022.64 607.728L1023.56 612.235ZM1035.25 616.841L1033.77 621.197L1035.25 616.841ZM1147.16 587.284L1144.81 583.333L1147.16 587.284ZM1211.66 511.737L1207.28 510.325V510.325L1211.66 511.737ZM1213.98 504.249L1216.09 500.163L1211.15 497.604L1209.57 502.943L1213.98 504.249ZM1293.31 520.3L1294.94 524.603L1293.31 520.3ZM1332.24 491.556L1333 487.019L1330.37 486.579L1328.68 488.644L1332.24 491.556ZM1406.4 480.761L1408.53 476.683L1406.63 475.695L1404.66 476.502L1406.4 480.761ZM1547.7 490.235C1516.63 507.286 1479.48 505.437 1445.41 492.702L1442.19 501.32C1477.85 514.648 1517.97 517.047 1552.13 498.301L1547.7 490.235ZM1587.2 514.444C1574.08 509.161 1562.81 501.097 1553.24 491.089L1546.59 497.447C1556.96 508.29 1569.3 517.152 1583.76 522.978L1587.2 514.444ZM1692.74 493.301C1674.97 502.035 1657.11 510.791 1639.25 515.627C1621.49 520.438 1604.1 521.254 1587.2 514.444L1583.76 522.978C1603.12 530.776 1622.69 529.644 1641.66 524.508C1660.53 519.398 1679.19 510.209 1696.8 501.558L1692.74 493.301ZM1698.37 490.538C1696.5 491.454 1694.62 492.377 1692.74 493.301L1696.8 501.558C1698.68 500.633 1700.55 499.714 1702.41 498.803L1698.37 490.538ZM1704.28 487.663C1702.3 488.622 1700.33 489.58 1698.37 490.538L1702.41 498.804C1704.36 497.851 1706.32 496.898 1708.3 495.938L1704.28 487.663ZM1784.31 418.152C1779.68 435.459 1768.62 448.534 1754.13 459.487C1739.56 470.501 1721.87 479.117 1704.28 487.663L1708.3 495.938C1725.71 487.476 1744.26 478.481 1759.68 466.826C1775.18 455.11 1787.86 440.46 1793.2 420.532L1784.31 418.152ZM1747.29 308.666C1772.85 341.974 1794.53 379.989 1784.31 418.152L1793.2 420.532C1804.68 377.655 1780.1 336.312 1754.59 303.065L1747.29 308.666ZM1648.5 241.471C1689.44 243.477 1721 274.408 1747.29 308.666L1754.59 303.065C1728.22 268.705 1694.39 234.509 1648.95 232.282L1648.5 241.471ZM1559.9 273.486C1584.79 252.39 1616.09 239.883 1648.5 241.471L1648.95 232.282C1613.84 230.562 1580.32 244.115 1553.95 266.467L1559.9 273.486ZM1519.02 276.115C1531.86 275.155 1544.64 274.202 1556.78 274.575L1557.06 265.379C1544.35 264.989 1531.07 265.988 1518.34 266.941L1519.02 276.115ZM1497.84 277.47C1504.76 277.183 1511.9 276.648 1519.02 276.115L1518.34 266.941C1511.19 267.476 1504.2 267.998 1497.46 268.278L1497.84 277.47ZM1496.02 277.545L1497.84 277.47L1497.46 268.278L1495.64 268.353L1496.02 277.545ZM1496.02 277.545L1496.02 277.545L1495.64 268.353L1495.64 268.353L1496.02 277.545ZM1483.27 278.108C1487.51 277.896 1491.76 277.721 1496.02 277.545L1495.64 268.353C1491.39 268.528 1487.1 268.705 1482.81 268.92L1483.27 278.108ZM1394.51 267.179C1410.93 265.066 1427.05 263.005 1441.89 263.8C1456.66 264.591 1469.66 268.194 1480.07 277.022L1486.02 270.006C1473.53 259.413 1458.3 255.466 1442.39 254.614C1426.55 253.765 1409.56 255.966 1393.34 258.054L1394.51 267.179ZM1369.21 270.035C1377.5 269.369 1386.04 268.269 1394.51 267.179L1393.34 258.054C1384.82 259.15 1376.5 260.219 1368.47 260.865L1369.21 270.035ZM1367.03 270.21L1369.21 270.036L1368.47 260.865L1366.29 261.04L1367.03 270.21ZM1293.52 285.502C1314.74 274.467 1340.39 272.345 1367.03 270.21L1366.29 261.04C1340.08 263.14 1312.45 265.287 1289.28 277.34L1293.52 285.502ZM1233.48 274.524C1252.99 274.1 1272.21 277.883 1289.52 285.621L1293.28 277.221C1274.67 268.907 1254.1 264.874 1233.28 265.326L1233.48 274.524ZM1140.24 321.974C1165.32 294.554 1197.18 275.313 1233.48 274.524L1233.28 265.326C1193.68 266.187 1159.61 287.168 1133.45 315.765L1140.24 321.974ZM1118.25 347.446C1125.24 338.579 1132.83 330.075 1140.24 321.974L1133.45 315.765C1126.01 323.902 1118.23 332.609 1111.02 341.75L1118.25 347.446ZM1098.51 348.801C1103.76 348.589 1109.01 348.72 1114.23 349.18L1115.04 340.016C1109.44 339.521 1103.79 339.38 1098.14 339.608L1098.51 348.801ZM1075 353.103C1082.47 350.64 1090.29 349.132 1098.51 348.801L1098.14 339.608C1089.02 339.976 1080.36 341.651 1072.12 344.365L1075 353.103ZM1058.29 347.832C1062.94 349.171 1067.36 350.868 1071.57 352.883L1075.54 344.584C1070.88 342.354 1065.98 340.474 1060.83 338.991L1058.29 347.832ZM964.707 358.676C993.776 343.851 1027.11 338.854 1058.29 347.832L1060.83 338.991C1027.06 329.267 991.327 334.773 960.527 350.481L964.707 358.676ZM924.323 351.863C937.032 353.871 949.694 355.875 961.426 359.022L963.809 350.136C951.526 346.842 938.372 344.768 925.758 342.776L924.323 351.863ZM903.394 348.324C910.198 349.633 917.268 350.749 924.323 351.863L925.758 342.776C918.674 341.657 911.758 340.564 905.131 339.29L903.394 348.324ZM901.605 347.98L903.393 348.324L905.131 339.29L903.343 338.946L901.605 347.98ZM889.065 345.605C893.242 346.371 897.418 347.175 901.605 347.98L903.343 338.946C899.163 338.142 894.948 337.33 890.725 336.556L889.065 345.605ZM805.177 314.613C821.64 316.321 837.807 318.012 852.072 322.19C866.261 326.345 878.092 332.834 886.194 343.812L893.596 338.349C883.873 325.174 869.95 317.84 854.657 313.361C839.44 308.904 822.398 307.15 806.126 305.462L805.177 314.613ZM779.894 311.591C788.115 312.844 796.68 313.731 805.177 314.613L806.126 305.462C797.587 304.576 789.245 303.709 781.279 302.496L779.894 311.591ZM777.73 311.261C778.451 311.371 779.172 311.482 779.894 311.591L781.279 302.496C780.559 302.387 779.839 302.277 779.118 302.167L777.73 311.261ZM702.675 309.29C725.858 303.414 751.309 307.23 777.73 311.261L779.118 302.167C753.126 298.201 725.734 293.954 700.415 300.372L702.675 309.29ZM646.751 284.836C665.837 288.897 683.677 296.986 698.755 308.488L704.335 301.173C688.135 288.815 669.032 280.171 648.666 275.838L646.751 284.836ZM545.118 309.642C575.815 288.702 611.241 277.28 646.751 284.836L648.666 275.838C609.926 267.595 571.949 280.203 539.933 302.041L545.118 309.642ZM517.869 329.392C526.708 322.364 536.049 315.827 545.118 309.642L539.933 302.041C530.824 308.255 521.255 314.946 512.144 322.19L517.869 329.392ZM516.451 321.424C511.11 319.657 505.645 318.225 500.093 317.151L498.346 326.183C503.506 327.181 508.589 328.513 513.562 330.158L516.451 321.424ZM500.093 317.151C464.446 310.257 431.405 325.167 402.251 344.423L407.322 352.099C435.92 333.21 466.348 319.995 498.346 326.183L500.093 317.151ZM344.301 335.357C366.738 338.545 387.525 341.603 402.116 352.006L407.457 344.515C390.671 332.547 367.363 329.341 345.594 326.249L344.301 335.357ZM311.803 329.637C322.258 332.23 333.43 333.813 344.301 335.357L345.594 326.249C334.628 324.691 323.936 323.168 314.018 320.707L311.803 329.637ZM279.193 319.028C289.922 322.929 300.948 326.944 311.803 329.637L314.018 320.707C303.719 318.153 293.16 314.318 282.338 310.382L279.193 319.028ZM211.256 307.945C221.066 304.897 231.757 305.32 243.273 307.743C254.824 310.174 266.806 314.523 279.193 319.028L282.338 310.382C270.086 305.926 257.473 301.33 245.168 298.741C232.827 296.144 220.401 295.47 208.527 299.159L211.256 307.945ZM136.056 270.63C162.858 276.969 187.87 288.757 206.703 306.867L213.08 300.236C192.77 280.705 166.134 268.29 138.173 261.677L136.056 270.63ZM26.4503 285.963C56.7805 262.742 97.5483 261.522 136.056 270.63L138.173 261.677C98.4548 252.283 54.3524 253.014 20.8575 278.658L26.4503 285.963ZM-18.3816 388.449C-20.7087 349.136 -4.56088 309.706 26.4503 285.963L20.8575 278.658C-12.8318 304.452 -30.0536 346.961 -27.5655 388.992L-18.3816 388.449ZM38.3266 476.013C9.60451 451.304 -16.2711 424.101 -18.3816 388.449L-27.5655 388.992C-25.2043 428.88 3.68299 458.346 32.3267 482.988L38.3266 476.013ZM137.931 523.082C119.396 525.449 102.159 520.322 85.6401 511.208C69.0508 502.055 53.4893 489.058 38.3266 476.013L32.3267 482.988C47.436 495.986 63.6624 509.59 81.1958 519.263C98.7991 528.975 118.02 534.899 139.096 532.208L137.931 523.082ZM194.113 500.282C177.645 512.384 158.372 520.473 137.931 523.082L139.096 532.208C161.188 529.388 181.919 520.66 199.561 507.696L194.113 500.282ZM216.369 517.944C210.386 512.846 205.11 507.233 200.491 501.194L193.183 506.784C198.187 513.326 203.911 519.416 210.403 524.947L216.369 517.944ZM314.827 547.878C280.324 556.349 244.329 541.766 216.369 517.944L210.403 524.947C239.618 549.839 278.575 566.252 317.02 556.812L314.827 547.878ZM337.944 537.386C331.014 542.155 323.385 545.776 314.827 547.878L317.02 556.812C326.761 554.421 335.404 550.302 343.16 544.964L337.944 537.386ZM336.927 544.007C346.901 556.775 359.107 567.874 372.871 576.476L377.747 568.674C364.918 560.656 353.509 550.289 344.177 538.343L336.927 544.007ZM372.871 576.476C391.222 587.945 411.592 590.252 432.004 588.253C452.335 586.262 473.091 579.955 492.402 573.856L489.631 565.083C470.234 571.21 450.348 577.213 431.107 579.097C411.949 580.973 393.819 578.719 377.747 568.674L372.871 576.476ZM492.402 573.856C526.35 563.132 556.307 544.144 575.055 513.103L567.18 508.346C549.908 536.944 522.119 554.821 489.631 565.083L492.402 573.856ZM575.055 513.103C576.418 510.845 577.764 508.559 579.084 506.249L571.096 501.685C569.815 503.926 568.508 506.148 567.18 508.346L575.055 513.103ZM607.095 522.746C597.236 516.699 587.782 508.792 578.085 500.475L572.095 507.458C581.755 515.743 591.721 524.108 602.284 530.588L607.095 522.746ZM609.83 527.898C609.586 527.08 609.35 526.261 609.122 525.439L600.256 527.895C600.5 528.777 600.754 529.656 601.016 530.533L609.83 527.898ZM685.107 600.126C651.484 582.661 620.06 562.117 609.83 527.898L601.016 530.533C612.461 568.816 647.335 590.873 680.866 608.29L685.107 600.126ZM792.851 623.1C775.352 629.654 757.399 628.616 739.23 623.533C720.984 618.428 702.857 609.345 685.107 600.126L680.866 608.29C698.554 617.477 717.467 626.997 736.752 632.393C756.113 637.809 776.18 639.168 796.077 631.716L792.851 623.1ZM842.307 588.024C829.053 603.58 812.149 615.873 792.851 623.1L796.077 631.716C816.934 623.904 835.111 610.655 849.31 593.991L842.307 588.024ZM868.02 600.112C861.028 596.522 854.605 592.269 848.724 587.45L842.893 594.566C849.264 599.786 856.231 604.401 863.819 608.296L868.02 600.112ZM960.558 611.039C931.103 621.47 897.247 615.116 868.02 600.112L863.819 608.296C894.413 624.003 930.987 631.271 963.629 619.711L960.558 611.039ZM1022.64 607.728C1001.78 611.985 981.459 614.549 962.994 610.864L961.193 619.886C981.561 623.951 1003.41 621.042 1024.48 616.742L1022.64 607.728ZM1036.73 612.485C1032.9 611.186 1029.14 609.7 1025.44 608.04L1021.67 616.43C1025.63 618.209 1029.67 619.802 1033.77 621.197L1036.73 612.485ZM1144.81 583.333C1127.33 593.744 1109.35 604.147 1091.06 610.393C1072.84 616.612 1054.68 618.576 1036.73 612.485L1033.77 621.197C1054.27 628.152 1074.62 625.726 1094.03 619.1C1113.36 612.5 1132.12 601.602 1149.52 591.236L1144.81 583.333ZM1207.28 510.325C1197.03 542.121 1174.08 565.894 1144.81 583.333L1149.52 591.236C1180.1 573.014 1204.91 547.662 1216.04 513.149L1207.28 510.325ZM1209.57 502.943C1208.83 505.419 1208.07 507.881 1207.28 510.325L1216.04 513.149C1216.85 510.639 1217.63 508.105 1218.39 505.554L1209.57 502.943ZM1291.69 515.997C1266.95 525.34 1242.66 513.912 1216.09 500.163L1211.86 508.334C1237.72 521.714 1265.77 535.618 1294.94 524.603L1291.69 515.997ZM1328.68 488.644C1318.73 500.804 1306.45 510.419 1291.69 515.997L1294.94 524.603C1311.45 518.366 1325 507.67 1335.8 494.468L1328.68 488.644ZM1404.66 476.502C1381.15 486.104 1356.7 490.982 1333 487.019L1331.48 496.093C1357.42 500.43 1383.66 495.017 1408.14 485.019L1404.66 476.502ZM1445.41 492.702C1432.99 488.059 1420.35 482.859 1408.53 476.683L1404.27 484.838C1416.57 491.263 1429.6 496.614 1442.19 501.32L1445.41 492.702Z" fill="#2D4603"/>
<path fill-rule="evenodd" clip-rule="evenodd" d="M122.307 312.401C156.065 310.747 188.472 323.777 214.108 345.501C226.533 345.12 239.565 346.095 252.348 347.052C259.485 347.586 266.545 348.115 273.378 348.398L275.197 348.473C279.453 348.649 283.723 348.825 287.987 349.038C310.876 329.617 344.463 333.94 377.104 338.141C385.598 339.234 394.028 340.318 402.188 340.975L403.276 341.062L404.368 341.149C430.794 343.267 457.436 345.401 479.631 356.945C497.589 348.919 517.487 345.012 537.65 345.45C575.597 346.274 608.565 366.385 634.182 394.394C641.607 402.513 649.293 411.119 656.392 420.122C661.803 419.645 667.253 419.509 672.704 419.729C681.373 420.079 689.614 421.67 697.471 424.258C701.909 422.135 706.569 420.346 711.468 418.936C743.947 409.585 778.479 414.836 808.412 430.103C820.419 426.883 833.328 424.844 845.989 422.844L845.99 422.844L845.99 422.844L845.991 422.844L845.991 422.844C853.06 421.727 860.052 420.623 866.768 419.331L868.556 418.987C872.739 418.182 876.935 417.375 881.134 416.605C898.96 392.452 932.643 388.958 965.378 385.562C973.896 384.678 982.35 383.801 990.443 382.568C991.164 382.458 991.885 382.348 992.606 382.238C1018.81 378.24 1045.23 374.208 1069.48 380.355C1085.12 368.425 1103.6 360.058 1123.32 355.861C1160.45 347.962 1197.15 359.977 1228.5 381.366C1237.59 387.566 1247.05 394.179 1256.02 401.315C1261.18 399.609 1266.45 398.227 1271.81 397.192C1305.63 390.651 1337.37 404.713 1366.24 423.786C1381.93 412.6 1403.98 409.467 1426.08 406.327C1437 404.776 1447.93 403.223 1458.12 400.697C1468.7 398.073 1479.49 394.148 1490.26 390.229C1514.9 381.269 1539.45 372.34 1561.14 379.076C1580.71 360.256 1606.53 348.153 1633.92 341.677C1673.03 332.427 1715.46 333.402 1747.38 357.835C1779.73 382.603 1796.41 423.573 1794 464.245C1791.77 502.015 1764.39 530.349 1735.7 555.025C1705.43 581.067 1672.13 608.227 1632.52 603.17C1611.25 600.455 1591.25 592.046 1574.19 579.513C1569.38 585.804 1563.88 591.656 1557.64 596.97C1529.06 621.327 1491.58 636.825 1455.11 627.87C1445.96 625.623 1437.82 621.753 1430.48 616.699C1420.82 629.057 1409.02 639.79 1395.72 648.1C1361.3 669.613 1318.72 657.22 1280.01 644.994C1246.79 634.501 1217.92 616.068 1199.91 586.249C1198.57 584.021 1197.24 581.767 1195.94 579.491C1186.26 587.792 1176.55 595.928 1166.34 602.192C1166.1 603.043 1165.86 603.893 1165.61 604.74C1154.77 640.991 1121.62 662.291 1088.04 679.732C1052.61 698.139 1013.96 716.938 976.565 702.932C956.488 695.413 938.947 682.642 925.221 666.532C919.095 671.552 912.4 675.986 905.11 679.729C875.2 695.083 839.985 701.895 808.936 690.9C789.519 694.775 768.437 692.038 747.471 687.759C743.648 689.479 739.744 691.018 735.777 692.365C697.338 705.412 658.738 683.586 623.865 662.809C593.938 644.978 570.061 620.416 559.369 587.261C558.57 584.784 557.796 582.287 557.052 579.773C530.841 593.337 504.671 606.003 477.718 595.824C462.076 589.917 449.162 579.761 438.791 567.08C413.969 571.231 388.623 566.085 364.631 556.285C352.566 562.585 339.736 567.861 327.229 572.535C292.362 585.567 253.727 587.691 221.111 569.792C211.145 580.218 199.339 588.681 185.552 594.235C149.29 608.844 111.637 590.339 76.2621 572.954C74.3811 572.029 72.5065 571.108 70.6389 570.195C68.6907 569.243 66.7293 568.29 64.7599 567.333L64.7432 567.325C29.7374 550.317 -7.75434 532.101 -17.7232 494.867C-28.5717 454.346 -5.44824 414.668 20.0899 381.39C46.42 347.081 79.1106 314.517 122.307 312.401Z" fill="#4E7411"/>
<path d="M214.108 345.501L211.134 349.01L212.482 350.153L214.249 350.099L214.108 345.501ZM122.307 312.401L122.532 316.996L122.307 312.401ZM252.348 347.052L252.004 351.639L252.348 347.052ZM273.378 348.398L273.187 352.994L273.188 352.994L273.378 348.398ZM275.197 348.473L275.007 353.069L275.007 353.069L275.197 348.473ZM287.987 349.038L287.757 353.633L289.575 353.723L290.963 352.546L287.987 349.038ZM377.104 338.141L377.691 333.578L377.104 338.141ZM402.188 340.975L401.819 345.56L401.82 345.56L402.188 340.975ZM403.276 341.062L402.908 345.647L402.909 345.647L403.276 341.062ZM404.368 341.149L404.001 345.735L404.001 345.735L404.368 341.149ZM479.631 356.945L477.509 361.027L479.48 362.052L481.508 361.145L479.631 356.945ZM537.65 345.45L537.55 350.049L537.65 345.45ZM634.182 394.394L637.576 391.29L634.182 394.394ZM656.392 420.122L652.78 422.971L654.32 424.923L656.797 424.705L656.392 420.122ZM672.704 419.729L672.89 415.132L672.704 419.729ZM697.471 424.258L696.032 428.627L697.788 429.206L699.456 428.408L697.471 424.258ZM711.468 418.936L710.195 414.516L711.468 418.936ZM808.412 430.103L806.322 434.201L807.897 435.004L809.604 434.546L808.412 430.103ZM845.989 422.844L846.707 427.388L846.726 427.385L846.745 427.381L845.989 422.844ZM845.991 422.844L845.274 418.3L845.254 418.303L845.235 418.306L845.991 422.844ZM866.768 419.331L867.636 423.849L867.637 423.849L866.768 419.331ZM868.556 418.987L869.425 423.505L869.425 423.505L868.556 418.987ZM881.134 416.605L881.964 421.129L883.755 420.801L884.835 419.336L881.134 416.605ZM965.378 385.562L965.853 390.137L965.378 385.562ZM990.443 382.568L989.751 378.021L989.751 378.021L990.443 382.568ZM992.606 382.238L991.912 377.691L992.606 382.238ZM1069.48 380.355L1068.35 384.814L1070.51 385.36L1072.27 384.012L1069.48 380.355ZM1123.32 355.861L1122.36 351.362L1123.32 355.861ZM1228.5 381.366L1231.1 377.566L1228.5 381.366ZM1256.02 401.315L1253.16 404.916L1255.11 406.464L1257.47 405.683L1256.02 401.315ZM1271.81 397.192L1270.94 392.675L1271.81 397.192ZM1366.24 423.786L1363.71 427.624L1366.34 429.364L1368.91 427.531L1366.24 423.786ZM1426.08 406.327L1426.73 410.882L1426.08 406.327ZM1458.12 400.697L1457.01 396.232L1458.12 400.697ZM1490.26 390.229L1488.69 385.906L1490.26 390.229ZM1561.14 379.076L1559.77 383.469L1562.37 384.275L1564.33 382.392L1561.14 379.076ZM1633.92 341.677L1634.97 346.154L1633.92 341.677ZM1747.38 357.835L1750.17 354.183V354.183L1747.38 357.835ZM1794 464.245L1798.59 464.516L1794 464.245ZM1735.7 555.025L1732.7 551.538V551.538L1735.7 555.025ZM1632.52 603.17L1631.93 607.733L1632.52 603.17ZM1574.19 579.513L1576.92 575.807L1573.28 573.135L1570.54 576.719L1574.19 579.513ZM1557.64 596.97L1554.66 593.469L1557.64 596.97ZM1455.11 627.87L1456.2 623.402L1455.11 627.87ZM1430.48 616.699L1433.09 612.91L1429.52 610.455L1426.85 613.867L1430.48 616.699ZM1395.72 648.1L1398.16 652.001L1395.72 648.1ZM1280.01 644.994L1281.4 640.607L1280.01 644.994ZM1199.91 586.249L1195.97 588.627V588.627L1199.91 586.249ZM1195.94 579.491L1199.93 577.209L1197.17 572.375L1192.94 576L1195.94 579.491ZM1166.34 602.192L1163.93 598.271L1162.39 599.218L1161.91 600.964L1166.34 602.192ZM1165.61 604.74L1170.01 606.057V606.057L1165.61 604.74ZM1088.04 679.732L1090.16 683.814L1088.04 679.732ZM976.565 702.932L974.952 707.24L976.565 702.932ZM925.221 666.532L928.722 663.549L925.795 660.114L922.305 662.974L925.221 666.532ZM905.11 679.729L907.211 683.821L905.11 679.729ZM808.936 690.9L810.472 686.564L809.278 686.141L808.036 686.389L808.936 690.9ZM747.471 687.759L748.391 683.252L746.938 682.955L745.584 683.564L747.471 687.759ZM735.777 692.365L737.255 696.721L735.777 692.365ZM623.865 662.809L626.22 658.857L623.865 662.809ZM559.369 587.261L563.747 585.85V585.849L559.369 587.261ZM557.052 579.773L561.463 578.468L559.883 573.128L554.938 575.688L557.052 579.773ZM477.718 595.824L476.093 600.128L477.718 595.824ZM438.791 567.08L442.351 564.168L440.663 562.103L438.032 562.543L438.791 567.08ZM364.631 556.285L366.371 552.026L364.394 551.219L362.502 552.207L364.631 556.285ZM327.229 572.535L325.619 568.227L327.229 572.535ZM221.111 569.792L223.324 565.76L220.228 564.06L217.787 566.614L221.111 569.792ZM185.552 594.235L183.833 589.968L185.552 594.235ZM76.2621 572.954L74.2331 577.082H74.2332L76.2621 572.954ZM70.6389 570.195L68.6187 574.328H68.6187L70.6389 570.195ZM64.7599 567.333L66.7702 563.196L66.7671 563.194L64.7599 567.333ZM64.7432 567.325L62.733 571.462L62.7361 571.464L64.7432 567.325ZM-17.7232 494.867L-13.2797 493.677L-17.7232 494.867ZM20.0899 381.39L16.4406 378.59L20.0899 381.39ZM217.082 341.992C190.705 319.639 157.187 306.087 122.082 307.807L122.532 316.996C154.943 315.408 186.239 327.914 211.134 349.01L217.082 341.992ZM252.691 342.465C239.957 341.512 226.678 340.513 213.967 340.903L214.249 350.099C226.389 349.727 239.173 350.679 252.004 351.639L252.691 342.465ZM273.568 343.802C266.825 343.522 259.843 343 252.691 342.465L252.004 351.639C259.127 352.172 266.264 352.707 273.187 352.994L273.568 343.802ZM275.387 343.877L273.568 343.802L273.188 352.994L275.007 353.069L275.387 343.877ZM288.217 344.444C283.929 344.23 279.64 344.053 275.387 343.877L275.007 353.069C279.267 353.245 283.517 353.42 287.757 353.633L288.217 344.444ZM377.691 333.578C361.466 331.49 344.476 329.289 328.642 330.138C312.73 330.99 297.496 334.937 285.011 345.531L290.963 352.546C301.367 343.718 314.371 340.116 329.135 339.325C343.977 338.529 360.101 340.59 376.517 342.703L377.691 333.578ZM402.557 336.389C394.525 335.744 386.207 334.674 377.691 333.578L376.517 342.703C384.989 343.793 393.53 344.893 401.819 345.56L402.557 336.389ZM403.644 336.477L402.556 336.389L401.82 345.56L402.908 345.647L403.644 336.477ZM404.736 336.564L403.644 336.477L402.909 345.647L404.001 345.735L404.736 336.564ZM481.754 352.864C458.58 340.812 430.945 338.664 404.736 336.564L404.001 345.735C430.642 347.869 456.291 349.991 477.509 361.027L481.754 352.864ZM537.75 340.851C516.933 340.399 496.357 344.431 477.754 352.746L481.508 361.145C498.821 353.407 518.042 349.625 537.55 350.049L537.75 340.851ZM637.576 391.29C611.422 362.692 577.348 341.711 537.75 340.851L537.55 350.049C573.846 350.837 605.709 370.078 630.787 397.499L637.576 391.29ZM660.005 417.274C652.797 408.133 645.018 399.427 637.576 391.29L630.787 397.499C638.195 405.599 645.789 414.104 652.78 422.971L660.005 417.274ZM672.89 415.132C667.239 414.904 661.592 415.045 655.988 415.54L656.797 424.705C662.014 424.244 667.268 424.113 672.519 424.325L672.89 415.132ZM698.91 419.889C690.672 417.176 682.01 415.501 672.89 415.132L672.519 424.325C680.737 424.657 688.556 426.165 696.032 428.627L698.91 419.889ZM710.195 414.516C705.046 415.998 700.149 417.878 695.486 420.108L699.456 428.408C703.669 426.392 708.091 424.695 712.74 423.357L710.195 414.516ZM810.502 426.005C779.703 410.297 743.97 404.792 710.195 414.516L712.74 423.357C743.924 414.379 777.254 419.376 806.322 434.201L810.502 426.005ZM845.271 418.3C832.658 420.293 819.504 422.366 807.221 425.66L809.604 434.546C821.335 431.4 833.997 429.395 846.707 427.388L845.271 418.3ZM845.234 418.306L845.233 418.307L846.745 427.381L846.746 427.381L845.234 418.306ZM845.234 418.306L845.234 418.306L846.746 427.381L846.747 427.381L845.234 418.306ZM845.235 418.306L845.234 418.306L846.747 427.381L846.747 427.381L845.235 418.306ZM845.235 418.306L845.235 418.306L846.747 427.381L846.748 427.381L845.235 418.306ZM865.899 414.814C859.272 416.088 852.357 417.181 845.274 418.3L846.709 427.387C853.763 426.273 860.832 425.157 867.636 423.849L865.899 414.814ZM867.687 414.47L865.899 414.814L867.637 423.849L869.425 423.505L867.687 414.47ZM880.304 412.08C876.082 412.855 871.866 413.666 867.686 414.47L869.425 423.505C873.611 422.699 877.788 421.895 881.964 421.129L880.304 412.08ZM964.903 380.986C948.631 382.674 931.589 384.428 916.372 388.885C901.08 393.364 887.156 400.699 877.433 413.873L884.835 419.336C892.938 408.358 904.769 401.87 918.958 397.714C933.223 393.537 949.39 391.845 965.853 390.137L964.903 380.986ZM989.751 378.021C981.785 379.234 973.443 380.1 964.903 380.986L965.853 390.137C974.349 389.256 982.915 388.368 991.136 387.116L989.751 378.021ZM991.912 377.691C991.191 377.801 990.471 377.911 989.751 378.021L991.136 387.116C991.857 387.006 992.579 386.896 993.3 386.786L991.912 377.691ZM1070.61 375.896C1045.3 369.478 1017.9 373.725 991.912 377.691L993.3 386.786C1019.72 382.754 1045.17 378.938 1068.35 384.814L1070.61 375.896ZM1122.36 351.362C1102 355.695 1082.9 364.339 1066.69 376.698L1072.27 384.012C1087.35 372.51 1105.19 364.422 1124.28 360.361L1122.36 351.362ZM1231.1 377.566C1199.08 355.728 1161.1 343.119 1122.36 351.362L1124.28 360.361C1159.79 352.805 1195.21 364.227 1225.91 385.166L1231.1 377.566ZM1258.89 397.715C1249.77 390.47 1240.21 383.779 1231.1 377.566L1225.91 385.166C1234.98 391.352 1244.32 397.888 1253.16 404.916L1258.89 397.715ZM1257.47 405.683C1262.44 404.038 1267.52 402.706 1272.68 401.708L1270.94 392.675C1265.38 393.749 1259.92 395.181 1254.58 396.948L1257.47 405.683ZM1272.68 401.708C1304.68 395.52 1335.11 408.735 1363.71 427.624L1368.78 419.947C1339.62 400.692 1306.58 385.781 1270.94 392.675L1272.68 401.708ZM1425.44 401.773C1403.67 404.866 1380.36 408.072 1363.57 420.04L1368.91 427.531C1383.5 417.128 1404.29 414.069 1426.73 410.882L1425.44 401.773ZM1457.01 396.232C1447.09 398.692 1436.4 400.215 1425.44 401.773L1426.73 410.882C1437.6 409.337 1448.77 407.755 1459.23 405.161L1457.01 396.232ZM1488.69 385.906C1477.87 389.842 1467.31 393.677 1457.01 396.232L1459.23 405.161C1470.08 402.469 1481.11 398.454 1491.84 394.552L1488.69 385.906ZM1562.5 374.683C1550.63 370.995 1538.2 371.668 1525.86 374.265C1513.56 376.855 1500.94 381.451 1488.69 385.906L1491.84 394.552C1504.22 390.047 1516.21 385.699 1527.76 383.268C1539.27 380.844 1549.96 380.422 1559.77 383.469L1562.5 374.683ZM1632.86 337.201C1604.9 343.814 1578.26 356.23 1557.95 375.76L1564.33 382.392C1583.16 364.281 1608.17 352.493 1634.97 346.154L1632.86 337.201ZM1750.17 354.183C1716.68 328.538 1672.57 327.807 1632.86 337.201L1634.97 346.154C1673.48 337.047 1714.25 338.266 1744.58 361.488L1750.17 354.183ZM1798.59 464.516C1801.08 422.485 1783.86 379.976 1750.17 354.183L1744.58 361.488C1775.59 385.231 1791.74 424.66 1789.41 463.973L1798.59 464.516ZM1738.7 558.512C1767.35 533.87 1796.23 504.404 1798.59 464.516L1789.41 463.973C1787.3 499.626 1761.42 526.828 1732.7 551.538L1738.7 558.512ZM1631.93 607.733C1653.01 610.423 1672.23 604.499 1689.83 594.787C1707.37 585.114 1723.59 571.51 1738.7 558.512L1732.7 551.538C1717.54 564.582 1701.98 577.579 1685.39 586.732C1668.87 595.846 1651.63 600.973 1633.1 598.607L1631.93 607.733ZM1571.47 583.22C1589.11 596.184 1609.84 604.912 1631.93 607.733L1633.1 598.607C1612.66 595.997 1593.38 587.908 1576.92 575.807L1571.47 583.22ZM1560.63 600.471C1567.12 594.94 1572.84 588.851 1577.85 582.308L1570.54 576.719C1565.92 582.758 1560.64 588.371 1554.66 593.469L1560.63 600.471ZM1454.01 632.337C1492.45 641.776 1531.41 625.363 1560.63 600.471L1554.66 593.469C1526.7 617.29 1490.71 631.873 1456.2 623.402L1454.01 632.337ZM1427.87 620.488C1435.63 625.827 1444.27 629.945 1454.01 632.337L1456.2 623.402C1447.64 621.301 1440.01 617.679 1433.09 612.91L1427.87 620.488ZM1426.85 613.867C1417.52 625.814 1406.11 636.181 1393.28 644.199L1398.16 652.001C1411.92 643.398 1424.13 632.3 1434.1 619.531L1426.85 613.867ZM1393.28 644.199C1377.21 654.244 1359.08 656.497 1339.92 654.621C1320.68 652.737 1300.8 646.734 1281.4 640.607L1278.63 649.38C1297.94 655.48 1318.69 661.787 1339.03 663.777C1359.44 665.776 1379.81 663.469 1398.16 652.001L1393.28 644.199ZM1281.4 640.607C1248.91 630.345 1221.12 612.469 1203.85 583.871L1195.97 588.627C1214.72 619.668 1244.68 638.657 1278.63 649.38L1281.4 640.607ZM1203.85 583.871C1202.52 581.672 1201.21 579.451 1199.93 577.209L1191.94 581.773C1193.27 584.084 1194.61 586.369 1195.97 588.627L1203.85 583.871ZM1168.75 606.113C1179.31 599.633 1189.27 591.268 1198.93 582.983L1192.94 576C1183.25 584.317 1173.79 592.223 1163.93 598.271L1168.75 606.113ZM1170.01 606.057C1170.28 605.18 1170.53 604.301 1170.77 603.419L1161.91 600.964C1161.68 601.785 1161.44 602.605 1161.2 603.422L1170.01 606.057ZM1090.16 683.814C1123.69 666.397 1158.57 644.341 1170.01 606.057L1161.2 603.422C1150.97 637.641 1119.55 658.185 1085.92 675.65L1090.16 683.814ZM974.952 707.24C994.849 714.692 1014.92 713.333 1034.28 707.917C1053.56 702.522 1072.48 693.002 1090.16 683.814L1085.92 675.65C1068.17 684.87 1050.05 693.952 1031.8 699.057C1013.63 704.14 995.677 705.178 978.179 698.625L974.952 707.24ZM921.719 669.515C935.918 686.179 954.095 699.429 974.952 707.24L978.179 698.625C958.881 691.397 941.976 679.104 928.722 663.549L921.719 669.515ZM907.211 683.821C914.798 679.926 921.765 675.311 928.136 670.09L922.305 662.974C916.424 667.793 910.002 672.046 903.009 675.636L907.211 683.821ZM807.401 695.236C840.043 706.795 876.616 699.527 907.211 683.821L903.009 675.636C873.783 690.64 839.927 696.994 810.472 686.564L807.401 695.236ZM746.552 692.266C767.623 696.567 789.469 699.475 809.836 695.411L808.036 686.389C789.57 690.074 769.251 687.509 748.391 683.252L746.552 692.266ZM737.255 696.721C741.363 695.327 745.403 693.733 749.359 691.954L745.584 683.564C741.892 685.225 738.125 686.71 734.298 688.009L737.255 696.721ZM621.511 666.761C638.908 677.126 657.665 688.024 676.997 694.624C696.407 701.25 716.764 703.676 737.255 696.721L734.298 688.009C716.351 694.101 698.188 692.137 679.97 685.918C661.674 679.672 643.694 669.268 626.22 658.857L621.511 666.761ZM554.991 588.673C566.121 623.186 590.926 648.538 621.511 666.761L626.22 658.857C596.95 641.418 574.001 617.646 563.747 585.85L554.991 588.673ZM552.641 581.078C553.396 583.63 554.182 586.163 554.991 588.673L563.747 585.849C562.959 583.405 562.195 580.943 561.463 578.468L552.641 581.078ZM476.093 600.128C505.259 611.142 533.312 597.238 559.166 583.858L554.938 575.688C528.37 589.437 504.083 600.864 479.344 591.521L476.093 600.128ZM435.23 569.992C446.028 583.194 459.577 593.891 476.093 600.128L479.344 591.521C464.575 585.944 452.297 576.328 442.351 564.168L435.23 569.992ZM362.892 560.543C387.369 570.542 413.61 575.954 439.549 571.617L438.032 562.543C414.328 566.507 389.878 561.629 366.371 552.026L362.892 560.543ZM328.84 576.844C341.431 572.138 354.457 566.787 366.76 560.362L362.502 552.207C350.675 558.383 338.042 563.583 325.619 568.227L328.84 576.844ZM218.898 573.825C253.059 592.571 293.179 590.173 328.84 576.844L325.619 568.227C291.546 580.961 254.395 582.81 223.324 565.76L218.898 573.825ZM187.271 598.502C201.731 592.676 214.07 583.814 224.436 572.971L217.787 566.614C208.219 576.621 196.947 584.685 183.833 589.968L187.271 598.502ZM74.2332 577.082C91.8356 585.733 110.498 594.922 129.372 600.032C148.342 605.168 167.913 606.3 187.271 598.502L183.833 589.968C166.929 596.778 149.543 595.962 131.777 591.152C113.914 586.315 96.063 577.56 78.291 568.825L74.2332 577.082ZM68.6187 574.328C70.4812 575.238 72.3514 576.157 74.2331 577.082L78.291 568.825C76.4107 567.901 74.5318 566.978 72.6591 566.063L68.6187 574.328ZM62.7497 571.471C64.7198 572.428 66.6763 573.378 68.6187 574.328L72.6591 566.063C70.7051 565.107 68.7387 564.152 66.7702 563.196L62.7497 571.471ZM62.7361 571.464L62.7528 571.472L66.7671 563.194L66.7504 563.186L62.7361 571.464ZM-22.1667 496.056C-16.8312 515.985 -4.15185 530.635 11.3473 542.35C26.766 554.005 45.3168 563.001 62.733 571.462L66.7535 563.187C49.1638 554.641 31.4659 546.025 16.8949 535.011C2.40459 524.058 -8.64633 510.983 -13.2797 493.677L-22.1667 496.056ZM16.4406 378.59C-9.07394 411.836 -33.6461 453.18 -22.1667 496.056L-13.2797 493.677C-23.4974 455.513 -1.82253 417.499 23.7391 384.191L16.4406 378.59ZM122.082 307.807C76.6352 310.033 42.8095 344.23 16.4406 378.59L23.7391 384.191C50.0304 349.932 81.586 319.002 122.532 316.996L122.082 307.807Z" fill="#335004"/>
</svg>
