<svg width="367" height="351" viewBox="0 0 367 351" fill="none" xmlns="http://www.w3.org/2000/svg">
<path fill-rule="evenodd" clip-rule="evenodd" d="M314.57 247.966C324.401 238.578 331.314 224.658 332.863 204.658C331.496 204.847 330.062 205.159 328.55 205.591C321.721 207.54 314.311 202.393 315.479 195.387C316.501 189.251 323.499 186.336 329.135 188.969C330.486 189.6 331.797 190.144 333.083 190.605C332.508 176.387 329.626 159.66 323.841 140.046C303.946 151.099 254.793 180.708 225.291 202.407C229.394 204.576 233.893 205.778 239.458 206.184C245.662 206.636 250.348 212.596 248.245 218.451C245.845 225.135 236.866 226.011 231.856 220.977C227.898 217 224.061 214.83 219.855 214.374C217.554 214.124 215.127 213.234 213.068 211.915C208.112 216.07 204.522 219.622 202.848 222.275C194.582 235.366 221.666 253.788 236.241 261.362C256.292 266.461 283.523 267.544 304.021 255.807C302.755 254.714 301.39 253.858 299.9 253.226C294.002 250.726 288.601 243.253 292.415 238.107C295.469 233.986 301.775 234.686 304.762 238.856C307.486 242.659 310.584 245.593 314.57 247.966Z" fill="#4E7411"/>
<path d="M332.863 204.658L337.897 205.048C338.015 203.524 337.436 202.029 336.324 200.981C335.211 199.934 333.683 199.447 332.17 199.657L332.863 204.658ZM314.57 247.966L311.989 252.304C313.936 253.463 316.418 253.182 318.057 251.617L314.57 247.966ZM328.55 205.591L327.165 200.736L327.165 200.736L328.55 205.591ZM315.479 195.387L320.458 196.217L315.479 195.387ZM329.135 188.969L326.998 193.543L326.998 193.543L329.135 188.969ZM333.083 190.605L331.38 195.358C332.96 195.924 334.719 195.668 336.072 194.674C337.425 193.68 338.195 192.078 338.127 190.401L333.083 190.605ZM323.841 140.046L328.683 138.618C328.25 137.147 327.172 135.954 325.753 135.373C324.334 134.793 322.729 134.888 321.389 135.633L323.841 140.046ZM225.291 202.407L222.299 198.34C220.899 199.37 220.128 201.047 220.256 202.781C220.384 204.514 221.395 206.059 222.932 206.871L225.291 202.407ZM239.458 206.184L239.825 201.149L239.825 201.149L239.458 206.184ZM248.245 218.451L243.494 216.745L243.494 216.745L248.245 218.451ZM231.856 220.977L228.277 224.538L228.277 224.538L231.856 220.977ZM219.855 214.374L219.311 219.393L219.311 219.393L219.855 214.374ZM213.068 211.915L215.791 207.664C213.933 206.473 211.516 206.628 209.824 208.046L213.068 211.915ZM202.848 222.275L198.579 219.579L198.579 219.579L202.848 222.275ZM236.241 261.362L233.913 265.842C234.257 266.021 234.621 266.159 234.997 266.255L236.241 261.362ZM304.021 255.807L306.529 260.188C307.951 259.374 308.889 257.921 309.046 256.291C309.203 254.661 308.56 253.056 307.32 251.986L304.021 255.807ZM299.9 253.226L297.93 257.874L297.93 257.874L299.9 253.226ZM292.415 238.107L296.471 241.113L292.415 238.107ZM304.762 238.856L308.866 235.916L308.866 235.916L304.762 238.856ZM327.83 204.268C326.36 223.236 319.874 235.921 311.084 244.314L318.057 251.617C328.928 241.236 336.267 226.08 337.897 205.048L327.83 204.268ZM329.936 210.446C331.258 210.068 332.459 209.811 333.557 209.658L332.17 199.657C330.534 199.884 328.866 200.251 327.165 200.736L329.936 210.446ZM310.499 194.557C309.56 200.192 312.152 205.012 315.988 207.887C319.755 210.71 324.937 211.872 329.936 210.446L327.165 200.736C325.334 201.259 323.397 200.822 322.043 199.807C320.759 198.844 320.23 197.587 320.458 196.217L310.499 194.557ZM331.272 184.395C323.227 180.636 312.177 184.483 310.499 194.557L320.458 196.217C320.661 194.999 321.427 194.045 322.656 193.49C323.933 192.913 325.551 192.867 326.998 193.543L331.272 184.395ZM334.787 185.853C333.662 185.45 332.496 184.967 331.272 184.395L326.998 193.543C328.476 194.233 329.932 194.839 331.38 195.358L334.787 185.853ZM318.999 141.474C324.696 160.791 327.484 177.1 328.039 190.809L338.127 190.401C337.531 175.675 334.556 158.53 328.683 138.618L318.999 141.474ZM228.282 206.474C257.546 184.951 306.495 155.458 326.293 144.459L321.389 135.633C301.397 146.74 252.041 176.466 222.299 198.34L228.282 206.474ZM239.825 201.149C234.821 200.784 231.026 199.729 227.65 197.944L222.932 206.871C227.761 209.424 232.964 210.773 239.091 211.219L239.825 201.149ZM252.996 220.157C256.448 210.545 248.681 201.794 239.825 201.149L239.091 211.219C240.683 211.335 242.073 212.165 242.907 213.292C243.708 214.376 243.911 215.583 243.494 216.745L252.996 220.157ZM228.277 224.538C231.944 228.223 237.034 229.738 241.7 229.112C246.451 228.475 251.066 225.534 252.996 220.157L243.494 216.745C243.024 218.052 241.949 218.891 240.358 219.105C238.681 219.33 236.777 218.766 235.434 217.416L228.277 224.538ZM219.311 219.393C221.991 219.683 224.818 221.062 228.277 224.538L235.434 217.416C230.977 212.937 226.132 209.976 220.399 209.355L219.311 219.393ZM210.344 216.165C213.003 217.87 216.168 219.052 219.311 219.393L220.399 209.355C218.939 209.196 217.25 208.599 215.791 207.664L210.344 216.165ZM207.117 224.97C208.328 223.051 211.356 219.938 216.311 215.783L209.824 208.046C204.867 212.203 200.717 216.194 198.579 219.579L207.117 224.97ZM238.569 256.882C231.515 253.217 221.55 246.972 214.458 240.229C210.886 236.833 208.372 233.615 207.158 230.825C206.015 228.199 206.187 226.443 207.117 224.97L198.579 219.579C195.376 224.652 195.834 230.108 197.9 234.855C199.894 239.437 203.512 243.753 207.5 247.546C215.527 255.179 226.391 261.933 233.913 265.842L238.569 256.882ZM301.512 251.426C282.647 262.228 256.956 261.42 237.485 256.469L234.997 266.255C255.628 271.501 284.399 272.86 306.529 260.188L301.512 251.426ZM307.32 251.986C305.672 250.563 303.862 249.422 301.87 248.578L297.93 257.874C298.917 258.293 299.837 258.865 300.721 259.628L307.32 251.986ZM301.87 248.578C299.934 247.758 297.961 246.016 296.901 244.158C295.844 242.304 296.206 241.471 296.471 241.113L288.359 235.101C284.81 239.889 285.966 245.365 288.13 249.16C290.292 252.95 293.968 256.195 297.93 257.874L301.87 248.578ZM296.471 241.113C296.83 240.628 297.389 240.341 298.222 240.406C299.119 240.475 300.061 240.963 300.657 241.795L308.866 235.916C304.359 229.623 293.911 227.608 288.359 235.101L296.471 241.113ZM300.657 241.795C303.755 246.121 307.359 249.549 311.989 252.304L317.152 243.627C313.81 241.638 311.216 239.197 308.866 235.916L300.657 241.795Z" fill="#294105"/>
<path fill-rule="evenodd" clip-rule="evenodd" d="M209.545 250.617C208.702 249.793 208.143 248.672 208.044 247.405C205.023 208.944 199.522 150.441 192.837 99.9404C189.493 74.6765 185.866 51.5127 182.123 33.891C180.249 25.068 178.372 17.7567 176.525 12.3114C175.604 9.59572 174.725 7.44845 173.907 5.85302C164.223 24.8712 155.823 42.5478 148.598 58.9666C156.73 67.2014 163.3 71.3831 172.888 74.7853L150.372 67.2936C149.652 67.054 148.999 66.6402 148.471 66.0946C147.771 65.3712 147.084 64.6701 146.407 63.9885C142.754 72.4408 139.419 80.5514 136.386 88.3323C140.164 93.7264 146.683 96.0432 157.21 96.5569L133.405 96.1356C128.394 109.524 124.315 121.891 121.083 133.303C125.849 133.889 131.318 134.181 137.958 134.304C138.448 134.313 138.934 134.455 139.348 134.716C142.055 136.418 139.785 141.369 136.656 140.709C131.204 139.559 125.934 138.865 119.695 138.338C114.492 157.754 111.825 174.293 111.234 188.308C117.925 188.666 124.317 187.075 130.811 183.495C139.368 178.777 151.984 184.107 151.401 193.861C150.935 201.671 142.28 206.115 135.221 202.74C126.975 198.797 119.2 196.301 111.11 195.283C111.654 263.545 165.896 265.547 209.545 250.617ZM186.216 9.4515C188.201 15.3846 190.131 22.9952 192 31.7934C195.823 49.7956 199.491 73.2608 202.847 98.6155C209.563 149.352 215.081 208.045 218.11 246.615C218.149 247.115 218.114 247.604 218.014 248.07C259.279 241.51 274.681 215.292 274.857 182.243C269.033 184.131 263.885 187.308 258.551 192.337C252.965 197.602 243.638 196.894 240.067 190.099C235.99 182.342 242.681 173.446 251.437 173.088C258.354 172.805 263.527 171.126 267.449 167.681C269.158 166.18 271.302 164.946 273.577 164.115C270.793 144.12 263.671 122.643 254.183 102.062C253.372 102.348 252.528 102.561 251.663 102.692C246.283 103.506 242.12 105.523 238.446 108.956C234.01 113.102 226.285 112.881 223.812 107.336C220.739 100.442 231.112 93.0555 237.622 89.2343C239.222 88.295 240.722 86.9444 242.158 85.1749C242.861 84.3085 243.667 83.5465 244.542 82.8955C226.886 50.5221 204.56 22.5636 186.216 9.4515Z" fill="#4E7411"/>
<path d="M208.044 247.405L213.077 247.01L213.077 247.01L208.044 247.405ZM209.545 250.617L211.179 255.394C212.837 254.827 214.083 253.44 214.469 251.731C214.856 250.022 214.328 248.234 213.075 247.008L209.545 250.617ZM192.837 99.9404L187.832 100.603L187.832 100.603L192.837 99.9404ZM182.123 33.891L187.062 32.8422L182.123 33.891ZM176.525 12.3114L171.744 13.9332L171.744 13.9332L176.525 12.3114ZM173.907 5.85302L178.399 3.55005C177.534 1.86242 175.796 0.801938 173.9 0.804515C172.004 0.807092 170.268 1.8723 169.408 3.56226L173.907 5.85302ZM148.598 58.9666L143.977 56.9331C143.143 58.8284 143.55 61.0407 145.005 62.514L148.598 58.9666ZM172.888 74.7853L171.294 79.5756C173.921 80.4497 176.762 79.0448 177.662 76.4265C178.562 73.8081 177.186 70.9534 174.576 70.0275L172.888 74.7853ZM150.372 67.2936L151.966 62.5034L151.966 62.5033L150.372 67.2936ZM148.471 66.0946L152.099 62.5836L152.099 62.5836L148.471 66.0946ZM146.407 63.9885L149.988 60.43C148.808 59.2416 147.114 58.7164 145.468 59.0281C143.822 59.3397 142.438 60.4477 141.773 61.9855L146.407 63.9885ZM136.386 88.3323L131.682 86.4991C131.07 88.0715 131.283 89.8462 132.251 91.2285L136.386 88.3323ZM157.21 96.5569L157.121 101.605C159.878 101.653 162.164 99.4807 162.256 96.7245C162.347 93.9684 160.21 91.6487 157.456 91.5143L157.21 96.5569ZM133.405 96.1356L133.494 91.0879C131.356 91.0501 129.426 92.3633 128.677 94.366L133.405 96.1356ZM121.083 133.303L116.226 131.927C115.824 133.346 116.062 134.868 116.878 136.096C117.693 137.324 119.004 138.134 120.467 138.314L121.083 133.303ZM137.958 134.304L137.865 139.352L137.865 139.352L137.958 134.304ZM139.348 134.716L136.66 138.99L136.661 138.99L139.348 134.716ZM136.656 140.709L137.698 135.769L136.656 140.709ZM119.695 138.338L120.12 133.307C117.685 133.101 115.452 134.67 114.819 137.031L119.695 138.338ZM111.234 188.308L106.19 188.095C106.073 190.858 108.202 193.201 110.964 193.349L111.234 188.308ZM130.811 183.495L128.373 179.074L130.811 183.495ZM135.221 202.74L137.399 198.185L135.221 202.74ZM111.11 195.283L111.74 190.274C110.295 190.093 108.843 190.543 107.755 191.511C106.667 192.478 106.05 193.868 106.061 195.324L111.11 195.283ZM192 31.7934L187.062 32.8422L192 31.7934ZM186.216 9.4515L189.152 5.34432C187.372 4.07194 184.974 4.09112 183.215 5.39181C181.455 6.69251 180.734 8.97861 181.428 11.0536L186.216 9.4515ZM202.847 98.6155L207.852 97.953L202.847 98.6155ZM218.11 246.615L213.077 247.01L213.077 247.01L218.11 246.615ZM218.014 248.07L213.078 247.012C212.729 248.64 213.205 250.335 214.35 251.543C215.495 252.752 217.162 253.318 218.807 253.056L218.014 248.07ZM274.857 182.243L279.905 182.269C279.914 180.649 279.144 179.123 277.836 178.167C276.528 177.211 274.84 176.94 273.299 177.44L274.857 182.243ZM258.551 192.337L255.087 188.664L255.087 188.664L258.551 192.337ZM240.067 190.099L244.536 187.75L244.536 187.75L240.067 190.099ZM251.437 173.088L251.23 168.044L251.23 168.044L251.437 173.088ZM267.449 167.681L270.781 171.474L267.449 167.681ZM273.577 164.115L275.308 168.857C277.543 168.041 278.905 165.775 278.577 163.419L273.577 164.115ZM254.183 102.062L258.767 99.9486C257.677 97.5824 254.964 96.435 252.507 97.3L254.183 102.062ZM251.663 102.692L250.908 97.7001L250.908 97.7001L251.663 102.692ZM238.446 108.956L234.999 105.268L238.446 108.956ZM223.812 107.336L228.423 105.28L228.423 105.28L223.812 107.336ZM237.622 89.2343L235.066 84.8805L237.622 89.2343ZM242.158 85.1749L238.238 81.9932L238.238 81.9932L242.158 85.1749ZM244.542 82.8955L247.555 86.9459C249.573 85.4445 250.178 82.6865 248.974 80.4782L244.542 82.8955ZM203.011 247.8C203.209 250.331 204.332 252.581 206.015 254.226L213.075 247.008C213.072 247.006 213.073 247.005 213.075 247.009C213.076 247.012 213.077 247.014 213.077 247.016C213.078 247.017 213.077 247.016 213.077 247.01L203.011 247.8ZM187.832 100.603C194.501 150.986 199.995 209.394 203.011 247.8L213.077 247.01C210.052 208.494 204.542 149.897 197.842 99.2779L187.832 100.603ZM177.185 34.9399C180.887 52.3712 184.494 75.3843 187.832 100.603L197.842 99.2779C194.492 73.9687 190.845 50.6542 187.062 32.8422L177.185 34.9399ZM171.744 13.9332C173.499 19.1074 175.329 26.1997 177.185 34.9399L187.062 32.8422C185.17 23.9363 183.245 16.406 181.306 10.6897L171.744 13.9332ZM169.414 8.15599C170.079 9.45381 170.868 11.3504 171.744 13.9332L181.306 10.6897C180.339 7.84105 179.37 5.4431 178.399 3.55005L169.414 8.15599ZM153.218 61.0001C160.401 44.6781 168.76 27.0876 178.406 8.14377L169.408 3.56226C159.686 22.6549 151.245 40.4176 143.977 56.9331L153.218 61.0001ZM174.576 70.0275C165.762 66.8997 159.83 63.1557 152.19 55.4192L145.005 62.514C153.63 71.2471 160.838 75.8665 171.2 79.5431L174.576 70.0275ZM148.778 72.0839L171.294 79.5756L174.482 69.995L151.966 62.5034L148.778 72.0839ZM144.844 69.6056C145.927 70.7251 147.274 71.5834 148.778 72.084L151.966 62.5033C152.03 62.5245 152.072 62.5553 152.099 62.5836L144.844 69.6056ZM142.826 67.5469C143.486 68.2113 144.157 68.8964 144.844 69.6056L152.099 62.5836C151.385 61.846 150.683 61.1289 149.988 60.43L142.826 67.5469ZM141.09 90.1656C144.099 82.4454 147.411 74.3914 151.041 65.9915L141.773 61.9855C138.097 70.4901 134.739 78.6574 131.682 86.4991L141.09 90.1656ZM157.456 91.5143C147.328 91.0202 142.901 88.8342 140.521 85.4361L132.251 91.2285C137.427 98.6187 146.038 101.066 156.964 101.599L157.456 91.5143ZM133.315 101.183L157.121 101.605L157.299 91.5091L133.494 91.0879L133.315 101.183ZM125.941 134.679C129.13 123.417 133.164 111.182 138.133 97.9053L128.677 94.366C123.623 107.867 119.5 120.366 116.226 131.927L125.941 134.679ZM138.052 129.257C131.49 129.135 126.217 128.848 121.699 128.292L120.467 138.314C125.48 138.93 131.145 139.227 137.865 139.352L138.052 129.257ZM142.036 130.443C140.826 129.682 139.44 129.282 138.052 129.257L137.865 139.352C137.456 139.344 137.041 139.229 136.66 138.99L142.036 130.443ZM135.614 145.649C140.352 146.648 143.604 143.294 144.788 140.683C145.971 138.075 146.382 133.176 142.036 130.442L136.661 138.99C136.011 138.581 135.634 137.9 135.534 137.317C135.453 136.846 135.562 136.58 135.593 136.513C135.626 136.44 135.723 136.254 136.021 136.061C136.381 135.826 137.003 135.622 137.698 135.769L135.614 145.649ZM119.27 143.368C125.367 143.883 130.421 144.554 135.614 145.649L137.698 135.769C131.986 134.565 126.501 133.846 120.12 133.307L119.27 143.368ZM116.278 188.521C116.85 174.963 119.439 158.799 124.572 139.645L114.819 137.031C109.546 156.709 106.801 173.623 106.19 188.095L116.278 188.521ZM110.964 193.349C118.71 193.764 126.032 191.894 133.248 187.916L128.373 179.074C122.601 182.256 117.139 183.568 111.503 183.266L110.964 193.349ZM133.248 187.916C135.937 186.434 139.506 186.459 142.376 187.815C145.179 189.14 146.499 191.257 146.362 193.56L156.441 194.162C156.886 186.711 152.19 181.286 146.691 178.687C141.259 176.119 134.242 175.838 128.373 179.074L133.248 187.916ZM146.362 193.56C146.138 197.315 141.667 200.226 137.399 198.185L133.043 207.294C142.892 212.004 155.733 206.028 156.441 194.162L146.362 193.56ZM137.399 198.185C128.774 194.061 120.476 191.374 111.74 190.274L110.479 200.292C117.925 201.229 125.176 203.532 133.043 207.294L137.399 198.185ZM207.911 245.841C186.51 253.161 163.4 255.979 145.938 249.421C137.352 246.197 130.093 240.702 124.888 232.192C119.646 223.622 116.289 211.662 116.158 195.243L106.061 195.324C106.202 213.035 109.83 226.924 116.275 237.461C122.757 248.059 131.889 254.931 142.388 258.873C163.094 266.65 188.93 263.004 211.179 255.394L207.911 245.841ZM196.938 30.7445C195.052 21.8632 193.076 14.0426 191.003 7.84939L181.428 11.0536C183.327 16.7267 185.211 24.1272 187.062 32.8422L196.938 30.7445ZM207.852 97.953C204.49 72.553 200.802 48.9371 196.938 30.7445L187.062 32.8422C190.845 50.6542 194.492 73.9687 197.842 99.2779L207.852 97.953ZM223.143 246.219C220.11 207.595 214.583 148.807 207.852 97.953L197.842 99.2779C204.542 149.897 210.052 208.494 213.077 247.01L223.143 246.219ZM222.95 249.128C223.152 248.19 223.221 247.211 223.143 246.219L213.077 247.01C213.077 247.015 213.077 247.017 213.077 247.016C213.077 247.016 213.077 247.014 213.078 247.012L222.95 249.128ZM269.808 182.216C269.724 198.002 266.007 211.609 257.872 221.973C249.79 232.27 236.883 239.959 217.221 243.084L218.807 253.056C240.41 249.622 255.836 240.921 265.815 228.207C275.742 215.559 279.813 199.532 279.905 182.269L269.808 182.216ZM262.014 196.01C266.905 191.399 271.422 188.664 276.414 187.045L273.299 177.44C266.644 179.599 260.865 183.216 255.087 188.664L262.014 196.01ZM235.598 192.448C241.027 202.776 254.494 203.1 262.014 196.01L255.087 188.664C251.437 192.105 246.25 191.011 244.536 187.75L235.598 192.448ZM251.23 168.044C245.207 168.29 239.918 171.456 236.798 175.932C233.629 180.478 232.554 186.656 235.598 192.448L244.536 187.75C243.503 185.785 243.735 183.637 245.081 181.706C246.476 179.705 248.91 178.244 251.643 178.132L251.23 168.044ZM264.117 163.888C261.349 166.32 257.441 167.79 251.23 168.044L251.643 178.132C259.267 177.821 265.705 175.932 270.781 171.474L264.117 163.888ZM271.846 159.373C269.046 160.395 266.344 161.932 264.117 163.888L270.781 171.474C271.971 170.428 273.558 169.497 275.308 168.857L271.846 159.373ZM249.598 104.176C258.947 124.455 265.88 145.445 268.577 164.811L278.577 163.419C275.706 142.795 268.395 120.831 258.767 99.9486L249.598 104.176ZM252.419 107.683C253.606 107.504 254.757 107.212 255.859 106.824L252.507 97.3C251.987 97.4829 251.451 97.6178 250.908 97.7001L252.419 107.683ZM241.893 112.645C244.79 109.937 248.003 108.352 252.419 107.683L250.908 97.7001C244.563 98.6607 239.45 101.108 234.999 105.268L241.893 112.645ZM219.202 109.392C221.324 114.151 225.704 116.459 229.979 116.811C234.161 117.156 238.612 115.711 241.893 112.645L234.999 105.268C233.844 106.347 232.215 106.864 230.807 106.748C229.492 106.64 228.773 106.065 228.423 105.28L219.202 109.392ZM235.066 84.8805C231.691 86.8619 226.979 89.9499 223.461 93.6578C220.214 97.0801 216.306 102.897 219.202 109.392L228.423 105.28C228.245 104.881 227.987 103.557 230.786 100.608C233.313 97.9435 237.043 95.4279 240.177 93.5881L235.066 84.8805ZM238.238 81.9932C237.088 83.4108 236.029 84.3152 235.066 84.8805L240.177 93.5881C242.415 92.2747 244.356 90.478 246.078 88.3566L238.238 81.9932ZM241.528 78.845C240.33 79.7362 239.217 80.7871 238.238 81.9932L246.078 88.3567C246.505 87.83 247.003 87.3569 247.555 86.9459L241.528 78.845ZM183.28 13.5587C200.742 26.04 222.624 53.2512 240.11 85.3127L248.974 80.4782C231.148 47.7931 208.379 19.0873 189.152 5.34432L183.28 13.5587Z" fill="#294105"/>
<path fill-rule="evenodd" clip-rule="evenodd" d="M164.156 276.153C164.212 274.976 163.859 273.774 163.07 272.778C139.112 242.539 103.334 195.926 73.8678 154.372C59.1268 133.584 46.0226 114.141 36.7741 98.682C32.1435 90.9416 28.5441 84.3064 26.1923 79.0594C25.0193 76.4423 24.2022 74.2706 23.7159 72.5449C43.7533 79.8916 61.9371 87.1286 78.4044 94.2432C78.0487 105.812 76.0797 113.347 71.369 122.364L82.7703 101.553C83.1351 100.887 83.3315 100.14 83.3472 99.3809C83.3679 98.3743 83.3941 97.3931 83.4266 96.4326C91.8551 100.14 99.8178 103.814 107.334 107.452C108.237 113.976 105.037 120.109 97.6719 127.649L114.83 111.142C127.612 117.543 139.016 123.83 149.15 129.993C146.057 133.665 142.248 137.6 137.466 142.209C137.113 142.549 136.854 142.984 136.728 143.457C135.903 146.546 140.934 148.629 142.778 146.016C145.991 141.464 149.38 137.369 153.593 132.738C170.618 143.425 183.826 153.729 193.797 163.596C189.137 168.412 183.37 171.596 176.176 173.391C166.695 175.758 161.077 188.247 168.141 194.999C173.798 200.405 183.164 197.771 186.039 190.495C189.399 181.994 193.398 174.875 198.634 168.624C244.685 219.015 206.301 257.392 164.156 276.153ZM17.145 83.5584C19.7274 89.2571 23.4918 96.1472 28.1093 103.866C37.5576 119.659 50.8375 139.349 65.6314 160.212C95.235 201.961 131.13 248.724 155.156 279.048C155.468 279.442 155.826 279.776 156.217 280.05C121.515 303.322 92.3881 294.59 69.7704 270.493C75.3229 267.914 81.2569 266.738 88.5883 266.794C96.2637 266.851 102.616 259.985 100.61 252.576C98.3189 244.118 87.3624 242.152 80.7028 247.848C75.4414 252.348 70.5084 254.637 65.2901 254.782C63.0168 254.844 60.6054 255.399 58.3729 256.338C46.8071 239.792 37.4116 219.208 30.3595 197.67C31.1478 197.328 31.911 196.91 32.6342 196.417C37.1309 193.353 41.5537 191.998 46.5824 192.014C52.6534 192.033 58.1642 186.614 56.2027 180.869C53.7639 173.725 41.1365 175.372 33.7662 177.001C31.9544 177.402 29.9364 177.433 27.6798 177.113C26.5749 176.957 25.4661 176.947 24.3817 177.065C15.2906 141.328 12.6252 105.65 17.145 83.5584Z" fill="#4E7411"/>
<path d="M163.07 272.778L167.027 269.643L167.027 269.643L163.07 272.778ZM164.156 276.153L166.209 280.766C164.608 281.478 162.752 281.31 161.305 280.32C159.859 279.331 159.029 277.662 159.113 275.911L164.156 276.153ZM73.8678 154.372L77.986 151.452L73.8678 154.372ZM36.7741 98.682L41.1066 96.0902L36.7741 98.682ZM26.1923 79.0594L30.7992 76.9945L30.7992 76.9945L26.1923 79.0594ZM23.7159 72.5449L18.8567 73.9144C18.3423 72.0891 18.8942 70.1294 20.2856 68.8408C21.677 67.5523 23.6732 67.1522 25.4538 67.805L23.7159 72.5449ZM78.4044 94.2432L80.4067 89.6088C82.3075 90.43 83.5141 92.3287 83.4505 94.3984L78.4044 94.2432ZM71.369 122.364L75.7966 124.79C74.4663 127.218 71.4285 128.122 68.9873 126.815C66.546 125.509 65.6123 122.48 66.8943 120.026L71.369 122.364ZM82.7703 101.553L87.1979 103.979L87.1979 103.979L82.7703 101.553ZM83.3472 99.3809L78.2997 99.2767L78.2997 99.2766L83.3472 99.3809ZM83.4266 96.4326L78.381 96.2619C78.4377 94.5876 79.3212 93.0504 80.7395 92.1587C82.1578 91.267 83.926 91.1369 85.4595 91.8115L83.4266 96.4326ZM107.334 107.452L109.534 102.908C111.053 103.643 112.104 105.089 112.335 106.76L107.334 107.452ZM97.6719 127.649L101.172 131.288C99.185 133.199 96.0312 133.163 94.0887 131.206C92.1461 129.248 92.1335 126.095 94.0604 124.122L97.6719 127.649ZM114.83 111.142L111.329 107.504C112.87 106.021 115.178 105.67 117.09 106.628L114.83 111.142ZM149.15 129.993L151.774 125.679C153.033 126.445 153.895 127.723 154.133 129.178C154.371 130.632 153.961 132.118 153.011 133.245L149.15 129.993ZM137.466 142.209L140.969 145.844L140.969 145.844L137.466 142.209ZM136.728 143.457L131.85 142.154L131.85 142.154L136.728 143.457ZM142.778 146.016L138.653 143.105L142.778 146.016ZM153.593 132.738L149.859 129.341C151.503 127.532 154.207 127.162 156.277 128.462L153.593 132.738ZM193.797 163.596L197.348 160.008C199.314 161.954 199.348 165.119 197.425 167.107L193.797 163.596ZM176.176 173.391L177.398 178.29L177.398 178.29L176.176 173.391ZM186.039 190.495L190.734 192.35L186.039 190.495ZM198.634 168.624L194.764 165.382C195.699 164.266 197.07 163.608 198.525 163.576C199.98 163.545 201.379 164.143 202.361 165.218L198.634 168.624ZM28.1093 103.866L32.4417 101.274L32.4417 101.274L28.1093 103.866ZM17.145 83.5584L12.1989 82.5465C12.6375 80.4028 14.4071 78.7857 16.5815 78.5415C18.756 78.2973 20.8402 79.4816 21.7433 81.4746L17.145 83.5584ZM65.6314 160.212L61.5131 163.133L65.6314 160.212ZM155.156 279.048L159.113 275.913L159.113 275.913L155.156 279.048ZM156.217 280.05L159.114 275.915C160.477 276.871 161.282 278.437 161.265 280.102C161.248 281.766 160.411 283.316 159.029 284.243L156.217 280.05ZM69.7704 270.493L66.0893 273.948C64.9805 272.766 64.506 271.124 64.8139 269.533C65.1217 267.943 66.1744 266.596 67.644 265.914L69.7704 270.493ZM88.5883 266.794L88.6263 261.745L88.5883 266.794ZM100.61 252.576L95.7367 253.896L95.7367 253.896L100.61 252.576ZM80.7028 247.848L83.9842 251.684L83.9842 251.684L80.7028 247.848ZM65.2901 254.782L65.1505 249.735L65.1505 249.735L65.2901 254.782ZM58.3729 256.338L60.3312 260.992C58.1381 261.915 55.5982 261.181 54.235 259.231L58.3729 256.338ZM30.3595 197.67L25.5616 199.241C24.7509 196.765 25.9576 194.079 28.3472 193.04L30.3595 197.67ZM32.6342 196.417L35.477 200.589L35.4769 200.589L32.6342 196.417ZM46.5824 192.014L46.5985 186.965L46.5824 192.014ZM56.2027 180.869L60.9805 179.238L56.2027 180.869ZM33.7662 177.001L32.6763 172.072L32.6763 172.072L33.7662 177.001ZM27.6798 177.113L26.9726 182.112L26.9726 182.112L27.6798 177.113ZM24.3817 177.065L24.9298 182.084C22.4292 182.357 20.1092 180.747 19.489 178.31L24.3817 177.065ZM167.027 269.643C168.604 271.633 169.312 274.045 169.199 276.396L159.113 275.911C159.113 275.907 159.113 275.907 159.114 275.912C159.115 275.914 159.116 275.916 159.116 275.918C159.117 275.92 159.117 275.918 159.113 275.913L167.027 269.643ZM77.986 151.452C107.383 192.909 143.103 239.447 167.027 269.643L159.113 275.913C135.121 245.632 99.2844 198.943 69.7496 157.292L77.986 151.452ZM41.1066 96.0902C50.2551 111.383 63.2715 130.701 77.986 151.452L69.7496 157.292C54.9822 136.467 41.7901 116.9 32.4417 101.274L41.1066 96.0902ZM30.7992 76.9945C33.034 81.9804 36.5194 88.4224 41.1066 96.0902L32.4417 101.274C27.7676 93.4607 24.0543 86.6325 21.5854 81.1242L30.7992 76.9945ZM28.5751 71.1755C28.9707 72.5792 29.6836 74.5055 30.7992 76.9945L21.5854 81.1243C20.355 78.3792 19.4338 75.962 18.8567 73.9144L28.5751 71.1755ZM76.402 98.8777C60.0319 91.805 41.937 84.6028 21.978 77.2849L25.4538 67.805C45.5696 75.1803 63.8424 82.4522 80.4067 89.6088L76.402 98.8777ZM66.8943 120.026C71.225 111.736 73.0241 104.956 73.3582 94.0881L83.4505 94.3984C83.0733 106.667 80.9344 114.957 75.8437 124.702L66.8943 120.026ZM87.1979 103.979L75.7966 124.79L66.9414 119.938L78.3427 99.1272L87.1979 103.979ZM88.3946 99.4851C88.3624 101.043 87.9597 102.588 87.1979 103.979L78.3427 99.1272C78.3105 99.1861 78.3005 99.2372 78.2997 99.2767L88.3946 99.4851ZM88.4723 96.6034C88.4406 97.5394 88.415 98.4983 88.3946 99.4852L78.2997 99.2766C78.3209 98.2503 78.3477 97.2468 78.381 96.2619L88.4723 96.6034ZM105.135 111.996C97.6771 108.387 89.77 104.738 81.3938 101.054L85.4595 91.8115C93.9401 95.5421 101.959 99.2415 109.534 102.908L105.135 111.996ZM94.0604 124.122C101.146 116.868 102.902 112.254 102.334 108.144L112.335 106.76C113.572 115.698 108.927 123.351 101.283 131.177L94.0604 124.122ZM118.33 114.78L101.172 131.288L94.1717 124.011L111.329 107.504L118.33 114.78ZM146.527 134.306C136.526 128.224 125.245 122.003 112.569 115.656L117.09 106.628C129.98 113.082 141.507 119.436 151.774 125.679L146.527 134.306ZM133.962 138.574C138.688 134.02 142.357 130.222 145.289 126.74L153.011 133.245C149.757 137.109 145.808 141.18 140.969 145.844L133.962 138.574ZM131.85 142.154C132.219 140.774 132.963 139.538 133.962 138.574L140.969 145.844C141.264 145.561 141.489 145.194 141.605 144.76L131.85 142.154ZM146.903 148.927C144.111 152.883 139.446 152.639 136.802 151.531C134.16 150.425 130.525 147.114 131.85 142.154L141.605 144.76C141.803 144.018 141.616 143.263 141.293 142.767C141.032 142.367 140.77 142.246 140.702 142.218C140.628 142.187 140.431 142.118 140.081 142.178C139.657 142.251 139.063 142.525 138.653 143.105L146.903 148.927ZM157.328 136.135C153.211 140.661 149.964 144.591 146.903 148.927L138.653 143.105C142.019 138.337 145.55 134.078 149.859 129.341L157.328 136.135ZM190.245 167.185C180.6 157.639 167.704 147.557 150.909 137.013L156.277 128.462C173.531 139.293 187.052 149.819 197.348 160.008L190.245 167.185ZM197.425 167.107C192.03 172.682 185.393 176.294 177.398 178.29L174.953 168.493C181.348 166.897 186.244 164.142 190.168 160.086L197.425 167.107ZM177.398 178.29C174.419 179.033 171.821 181.48 170.641 184.427C169.488 187.305 169.961 189.755 171.629 191.349L164.653 198.649C159.257 193.491 159.006 186.321 161.267 180.674C163.5 175.097 168.451 170.116 174.953 168.493L177.398 178.29ZM171.629 191.349C174.349 193.948 179.605 193.039 181.344 188.639L190.734 192.35C186.722 202.503 173.246 206.861 164.653 198.649L171.629 191.349ZM181.344 188.639C184.858 179.748 189.11 172.132 194.764 165.382L202.504 171.865C197.686 177.618 193.94 184.24 190.734 192.35L181.344 188.639ZM162.103 271.541C182.766 262.342 201.618 248.682 209.952 231.994C214.049 223.789 215.629 214.823 213.653 205.046C211.662 195.198 205.984 184.15 194.907 172.029L202.361 165.218C214.31 178.293 221.103 190.938 223.55 203.045C226.011 215.223 223.996 226.471 218.985 236.505C209.103 256.293 187.69 271.203 166.209 280.766L162.103 271.541ZM23.7769 106.458C19.1157 98.6661 15.2422 91.5907 12.5466 85.6422L21.7433 81.4746C24.2126 86.9235 27.8679 93.6284 32.4417 101.274L23.7769 106.458ZM61.5131 163.133C46.6928 142.232 33.3251 122.418 23.7769 106.458L32.4417 101.274C41.7901 116.9 54.9822 136.467 69.7496 157.292L61.5131 163.133ZM151.199 282.184C127.139 251.817 91.1855 204.978 61.5131 163.133L69.7496 157.292C99.2844 198.943 135.121 245.632 159.113 275.913L151.199 282.184ZM153.319 284.184C152.533 283.633 151.817 282.963 151.199 282.184L159.113 275.913C159.116 275.917 159.118 275.918 159.117 275.918C159.117 275.918 159.116 275.917 159.114 275.915L153.319 284.184ZM73.4515 267.038C84.2552 278.548 96.2384 285.989 109.251 288.049C122.18 290.095 136.87 286.946 153.405 275.857L159.029 284.243C140.861 296.426 123.637 300.548 107.673 298.021C91.7923 295.508 77.9033 286.535 66.0893 273.948L73.4515 267.038ZM88.5502 271.842C81.8284 271.791 76.6567 272.861 71.8969 275.071L67.644 265.914C73.9891 262.967 80.6854 261.685 88.6263 261.745L88.5502 271.842ZM105.483 251.257C108.533 262.519 98.8849 271.92 88.5502 271.842L88.6263 261.745C93.6426 261.783 96.6996 257.452 95.7367 253.896L105.483 251.257ZM77.4214 244.011C82.0028 240.092 88.0331 238.814 93.3648 239.97C98.7801 241.145 103.772 244.941 105.483 251.257L95.7367 253.896C95.1564 251.753 93.5248 250.337 91.2243 249.838C88.8401 249.321 86.0623 249.907 83.9842 251.684L77.4214 244.011ZM65.1505 249.735C68.8341 249.633 72.6976 248.051 77.4214 244.011L83.9842 251.684C78.1853 256.644 72.1828 259.641 65.4298 259.828L65.1505 249.735ZM56.4146 251.685C59.1618 250.529 62.188 249.817 65.1505 249.735L65.4298 259.828C63.8456 259.872 62.049 260.269 60.3312 260.992L56.4146 251.685ZM35.1574 196.099C42.106 217.321 51.3087 237.42 62.5107 253.446L54.235 259.231C42.3056 242.164 32.7172 221.095 25.5616 199.241L35.1574 196.099ZM35.4769 200.589C34.4853 201.265 33.4432 201.835 32.3718 202.3L28.3472 193.04C28.8525 192.821 29.3367 192.555 29.7914 192.245L35.4769 200.589ZM46.5664 197.062C42.601 197.05 39.1681 198.074 35.477 200.589L29.7913 192.245C35.0938 188.632 40.5064 186.946 46.5985 186.965L46.5664 197.062ZM60.9805 179.238C62.6643 184.17 61.0251 188.841 58.1322 192.008C55.3021 195.106 51.0573 197.077 46.5664 197.062L46.5985 186.965C48.1786 186.971 49.7246 186.241 50.6773 185.198C51.5672 184.224 51.7027 183.313 51.425 182.5L60.9805 179.238ZM32.6763 172.072C36.498 171.227 42.0518 170.283 47.1529 170.607C51.8611 170.905 58.6828 172.508 60.9805 179.238L51.425 182.5C51.2838 182.086 50.5725 180.94 46.5146 180.683C42.8497 180.451 38.4046 181.146 34.856 181.931L32.6763 172.072ZM28.387 172.115C30.1949 172.37 31.586 172.313 32.6763 172.072L34.856 181.931C32.3227 182.491 29.6779 182.495 26.9726 182.112L28.387 172.115ZM23.8336 172.046C25.3179 171.884 26.8488 171.897 28.387 172.115L26.9726 182.112C26.3009 182.017 25.6143 182.009 24.9298 182.084L23.8336 172.046ZM22.091 84.5704C17.7887 105.599 20.2708 140.428 29.2744 175.82L19.489 178.31C10.3104 142.229 7.46168 105.7 12.1989 82.5465L22.091 84.5704Z" fill="#294105"/>
<path fill-rule="evenodd" clip-rule="evenodd" d="M39.8525 255.518C29.3547 273.433 24.7203 301.462 30.8812 343.815C42.4632 339.393 63.4208 330.751 85.321 321.004C81.5896 319.693 79.0447 315.862 80.2997 311.91C82.2383 305.804 91.4589 305.807 96.9391 309.124C99.5793 310.722 102.617 311.475 106.225 311.472C117.433 306.224 128.176 300.945 137.282 296.067C133.528 293.338 129.245 291.509 123.794 290.318C117.717 288.99 113.924 282.426 116.836 276.929C120.16 270.653 129.173 271.059 133.418 276.753C136.771 281.252 140.261 283.944 144.36 284.992C146.603 285.566 148.879 286.791 150.73 288.39C156.226 284.979 160.283 281.972 162.317 279.584C172.356 267.798 148.16 245.72 134.807 236.155C109.719 225.802 71.4201 220.536 48.1801 244.489C53.6237 247.833 57.8449 255.937 53.3619 260.468C49.7543 264.114 43.6108 262.526 41.2463 257.974C40.8038 257.123 40.3406 256.305 39.8525 255.518Z" fill="#4E7411"/>
<path d="M30.8812 343.815L25.8853 344.542C26.1059 346.059 27.0037 347.393 28.3256 348.169C29.6475 348.945 31.2502 349.078 32.6822 348.532L30.8812 343.815ZM39.8525 255.518L44.1428 252.857C43.2102 251.353 41.5584 250.448 39.7891 250.47C38.0198 250.492 36.3913 251.439 35.4967 252.966L39.8525 255.518ZM85.321 321.004L87.3738 325.616C89.2634 324.775 90.449 322.867 90.3653 320.8C90.2817 318.733 88.9459 316.927 86.9945 316.241L85.321 321.004ZM80.2997 311.91L85.1115 313.437L80.2997 311.91ZM96.9391 309.124L99.5532 304.805L99.5532 304.805L96.9391 309.124ZM106.225 311.472L106.23 316.52C106.968 316.52 107.697 316.357 108.365 316.044L106.225 311.472ZM137.282 296.067L139.666 300.517C141.198 299.696 142.2 298.145 142.319 296.412C142.437 294.678 141.656 293.005 140.251 291.983L137.282 296.067ZM123.794 290.318L122.716 295.25L123.794 290.318ZM116.836 276.929L121.297 279.292L121.297 279.292L116.836 276.929ZM133.418 276.753L137.465 273.736L137.465 273.736L133.418 276.753ZM144.36 284.992L143.11 289.884L144.36 284.992ZM150.73 288.39L147.431 292.211C149.102 293.654 151.517 293.843 153.392 292.679L150.73 288.39ZM162.317 279.584L166.16 282.858L162.317 279.584ZM134.807 236.155L137.747 232.051C137.432 231.825 137.092 231.636 136.733 231.488L134.807 236.155ZM48.1801 244.489L44.5567 240.974C43.4899 242.073 42.9801 243.598 43.1709 245.118C43.3617 246.638 44.2325 247.99 45.538 248.791L48.1801 244.489ZM53.3619 260.468L49.7733 256.917L53.3619 260.468ZM41.2463 257.974L45.7263 255.647L45.7263 255.647L41.2463 257.974ZM35.8771 343.088C29.7943 301.272 34.535 274.578 44.2082 258.07L35.4967 252.966C24.1745 272.287 19.6463 301.652 25.8853 344.542L35.8771 343.088ZM83.2682 316.392C61.4284 326.112 40.5571 334.716 29.0802 339.099L32.6822 348.532C44.3694 344.069 65.4132 335.39 87.3738 325.616L83.2682 316.392ZM75.488 310.382C73.2242 317.511 77.9535 323.766 83.6475 325.767L86.9945 316.241C86.2134 315.966 85.616 315.441 85.2974 314.897C85.0096 314.405 84.9537 313.935 85.1115 313.437L75.488 310.382ZM99.5532 304.805C95.8719 302.577 91.0893 301.497 86.7511 301.964C82.4074 302.431 77.2917 304.701 75.488 310.382L85.1115 313.437C85.2464 313.013 85.7102 312.231 87.8315 312.003C89.9584 311.774 92.5262 312.354 94.3251 313.443L99.5532 304.805ZM106.22 306.423C103.352 306.426 101.26 305.838 99.5532 304.805L94.3251 313.443C97.8983 315.606 101.881 316.525 106.23 316.52L106.22 306.423ZM134.898 291.616C125.901 296.436 115.246 301.673 104.084 306.9L108.365 316.044C119.621 310.774 130.452 305.453 139.666 300.517L134.898 291.616ZM122.716 295.25C127.617 296.321 131.224 297.904 134.314 300.15L140.251 291.983C135.832 288.771 130.873 286.697 124.872 285.386L122.716 295.25ZM112.375 274.566C107.594 283.591 114.041 293.355 122.716 295.25L124.872 285.386C123.312 285.045 122.053 284.027 121.388 282.792C120.749 281.606 120.719 280.383 121.297 279.292L112.375 274.566ZM137.465 273.736C134.359 269.568 129.535 267.346 124.827 267.304C120.034 267.261 115.049 269.517 112.375 274.566L121.297 279.292C121.948 278.064 123.13 277.386 124.736 277.4C126.427 277.416 128.232 278.244 129.37 279.771L137.465 273.736ZM145.611 280.101C142.999 279.434 140.396 277.667 137.465 273.736L129.37 279.771C133.147 284.836 137.523 288.455 143.11 289.884L145.611 280.101ZM154.03 284.568C151.639 282.504 148.673 280.884 145.611 280.101L143.11 289.884C144.533 290.248 146.119 291.078 147.431 292.211L154.03 284.568ZM158.474 276.311C157.002 278.038 153.563 280.69 148.068 284.1L153.392 292.679C158.889 289.268 163.564 285.906 166.16 282.858L158.474 276.311ZM131.867 240.259C138.329 244.888 147.308 252.483 153.371 260.165C156.425 264.033 158.457 267.575 159.264 270.509C160.023 273.271 159.603 274.985 158.474 276.311L166.16 282.858C170.05 278.291 170.371 272.825 169 267.834C167.675 263.014 164.707 258.229 161.297 253.909C154.434 245.214 144.638 236.987 137.747 232.051L131.867 240.259ZM51.8035 248.005C62.2452 237.243 76.2085 232.866 90.9247 232.504C105.682 232.142 120.825 235.846 132.882 240.821L136.733 231.488C123.702 226.111 107.151 222.006 90.6767 222.41C74.1613 222.816 57.355 227.783 44.5567 240.974L51.8035 248.005ZM45.538 248.791C47.3341 249.894 49.0202 251.896 49.7907 253.87C50.558 255.835 50.0865 256.6 49.7733 256.917L56.9505 264.019C61.1203 259.805 60.7796 254.253 59.1962 250.197C57.616 246.15 54.4697 242.428 50.8222 240.187L45.538 248.791ZM49.7733 256.917C49.3486 257.346 48.7553 257.55 47.9392 257.368C47.062 257.172 46.1982 256.555 45.7263 255.647L36.7663 260.302C40.3347 267.171 50.391 270.648 56.9505 264.019L49.7733 256.917ZM45.7263 255.647C45.2286 254.689 44.7024 253.759 44.1428 252.857L35.5622 258.179C35.9787 258.851 36.3791 259.557 36.7663 260.302L45.7263 255.647Z" fill="#294105"/>
<path d="M29.5003 345.722C54.2215 310.629 109.983 240.194 135.262 239.2" stroke="#294105" stroke-width="10.097" stroke-linecap="round"/>
</svg>
