<svg width="236" height="71" viewBox="0 0 236 71" fill="none" xmlns="http://www.w3.org/2000/svg">
<mask id="path-1-outside-1_150_441" maskUnits="userSpaceOnUse" x="0.533203" y="-0.264771" width="235" height="71" fill="black">
<rect fill="white" x="0.533203" y="-0.264771" width="235" height="71"/>
<path fill-rule="evenodd" clip-rule="evenodd" d="M16.8129 45.6734C11.3917 42.4273 8.39755 38.8647 8.39755 35.1272C8.39755 19.999 57.4527 7.73523 117.965 7.73523C178.478 7.73523 227.533 19.999 227.533 35.1272C227.533 50.2553 178.478 62.5191 117.965 62.5191C88.1994 62.5191 61.2057 59.5518 41.4592 54.7357L67.7009 38.6592L16.8129 45.6734Z"/>
</mask>
<path fill-rule="evenodd" clip-rule="evenodd" d="M16.8129 45.6734C11.3917 42.4273 8.39755 38.8647 8.39755 35.1272C8.39755 19.999 57.4527 7.73523 117.965 7.73523C178.478 7.73523 227.533 19.999 227.533 35.1272C227.533 50.2553 178.478 62.5191 117.965 62.5191C88.1994 62.5191 61.2057 59.5518 41.4592 54.7357L67.7009 38.6592L16.8129 45.6734Z" fill="#6BD1A9"/>
<path d="M16.8129 45.6734L17.843 53.1467C16.1416 53.3812 14.4111 53.0281 12.9375 52.1458L16.8129 45.6734ZM41.4592 54.7357L39.6716 62.0648C36.7119 61.343 34.4769 58.9118 34.0059 55.902C33.5349 52.8921 34.9205 49.8944 37.5182 48.303L41.4592 54.7357ZM67.7009 38.6592L66.6708 31.1859C70.2081 30.6983 73.6027 32.7575 74.8046 36.1198C76.0066 39.4821 74.6866 43.2266 71.6418 45.0919L67.7009 38.6592ZM15.9415 35.1272C15.9415 34.8505 15.8014 35.0535 16.4382 35.8409C17.1203 36.6844 18.4315 37.8496 20.6884 39.201L12.9375 52.1458C7.09962 48.6503 0.853607 43.1339 0.853607 35.1272H15.9415ZM117.965 15.2792C88.1401 15.2792 61.3916 18.3087 42.3189 23.0769C32.7245 25.4755 25.4954 28.2116 20.8465 30.9593C15.6927 34.0056 15.9415 35.659 15.9415 35.1272H0.853607C0.853607 27.0313 7.23434 21.4786 13.1693 17.9707C19.6094 14.1642 28.4261 10.9978 38.6595 8.43944C59.2426 3.29368 87.278 0.191278 117.965 0.191278V15.2792ZM219.989 35.1272C219.989 35.659 220.238 34.0056 215.084 30.9593C210.435 28.2116 203.206 25.4755 193.612 23.0769C174.539 18.3087 147.791 15.2792 117.965 15.2792V0.191278C148.653 0.191278 176.688 3.29368 197.271 8.43944C207.505 10.9978 216.321 14.1642 222.761 17.9707C228.696 21.4786 235.077 27.0313 235.077 35.1272H219.989ZM117.965 54.9752C147.791 54.9752 174.539 51.9457 193.612 47.1775C203.206 44.7789 210.435 42.0428 215.084 39.295C220.238 36.2488 219.989 34.5954 219.989 35.1272H235.077C235.077 43.2231 228.696 48.7757 222.761 52.2837C216.321 56.0902 207.505 59.2566 197.271 61.8149C176.688 66.9607 148.653 70.0631 117.965 70.0631V54.9752ZM43.2467 47.4066C62.2601 52.0439 88.6275 54.9752 117.965 54.9752V70.0631C87.7713 70.0631 60.1512 67.0597 39.6716 62.0648L43.2467 47.4066ZM37.5182 48.303L63.76 32.2264L71.6418 45.0919L45.4001 61.1685L37.5182 48.303ZM68.731 46.1325L17.843 53.1467L15.7829 38.2001L66.6708 31.1859L68.731 46.1325Z" fill="#012758" mask="url(#path-1-outside-1_150_441)"/>
<path d="M10.9649 35.6957C11.2956 24.6921 37.04 15.9699 73.8902 12.7223C87.6804 11.507 103.026 11.0584 119.177 11.5438" stroke="#FDFFFE" stroke-width="3.77198" stroke-linecap="round"/>
<path d="M53.719 27.3204C53.719 37.6848 87.3271 46.0869 128.785 46.0869C170.242 46.0869 203.851 37.6848 203.851 27.3204C203.851 16.956 170.242 8.55396 128.785 8.55396C87.3271 8.55396 53.719 16.956 53.719 27.3204Z" fill="#41B795"/>
<path d="M73.1521 27.3203C73.1521 35.0016 98.0596 41.2285 128.785 41.2285C159.51 41.2285 184.417 35.0016 184.417 27.3203C184.417 19.6391 159.51 13.4122 128.785 13.4122C98.0596 13.4122 73.1521 19.6391 73.1521 27.3203Z" fill="#1C8B82"/>
</svg>
