<svg width="269" height="297" viewBox="0 0 269 297" fill="none" xmlns="http://www.w3.org/2000/svg">
<g clip-path="url(#clip0_150_799)">
<path d="M175.087 265.382C158.423 255.139 151.752 234.476 161.832 218.911C171.913 203.347 193.928 200.316 210.592 210.56C227.257 220.803 233.928 241.465 223.847 257.03C213.767 272.595 191.752 275.626 175.087 265.382Z" fill="#FC9898" stroke="#012758" stroke-width="8.95039"/>
<path d="M180.246 215.365C195.019 209.756 212.224 218.277 218.672 234.397" stroke="#FCF6EA" stroke-width="8.95039" stroke-linecap="round"/>
<ellipse cx="4.93511" cy="4.80788" rx="4.93511" ry="4.80788" transform="matrix(-1 0 0 1 175.186 218.73)" fill="#FCF6EA"/>
<path fill-rule="evenodd" clip-rule="evenodd" d="M162.495 227.566C158.356 239.811 164.089 254.389 177.067 262.366C189.817 270.203 205.46 269.148 215.072 260.659C198.171 256.934 176.354 247.547 162.495 227.566Z" fill="#D68181"/>
<path d="M189.327 201.318C197.048 221.939 203.776 265.771 168.916 276.133C134.056 286.496 167.998 230.574 189.327 201.318Z" fill="#FC9898" stroke="#012758" stroke-width="8.95039"/>
<path d="M178.968 118.975C166.468 118.975 156.145 109.06 156.145 96.599C156.145 84.1376 166.468 74.223 178.968 74.223C191.468 74.223 201.792 84.1376 201.792 96.599C201.792 109.06 191.468 118.975 178.968 118.975Z" fill="#FDE7D2" stroke="#062855" stroke-width="8.95039"/>
<ellipse cx="11.6355" cy="11.4117" rx="11.6355" ry="11.4117" transform="matrix(-1 0 0 1 190.604 84.9634)" fill="#022656"/>
<mask id="path-8-outside-1_150_799" maskUnits="userSpaceOnUse" x="17.3184" y="78.0596" width="203" height="209" fill="black">
<rect fill="white" x="17.3184" y="78.0596" width="203" height="209"/>
<path fill-rule="evenodd" clip-rule="evenodd" d="M186.332 203.442C201.572 191.444 211.318 173.085 211.318 152.509C211.318 116.362 181.24 87.0596 144.137 87.0596C118.928 87.0596 96.9624 100.586 85.4694 120.595C69.0732 126.444 53.968 137.398 42.8591 152.871C15.8839 190.445 22.6877 240.441 58.0558 264.54C93.4238 288.64 143.963 277.717 170.938 240.143C179.153 228.701 184.235 216.106 186.332 203.442Z"/>
</mask>
<path fill-rule="evenodd" clip-rule="evenodd" d="M186.332 203.442C201.572 191.444 211.318 173.085 211.318 152.509C211.318 116.362 181.24 87.0596 144.137 87.0596C118.928 87.0596 96.9624 100.586 85.4694 120.595C69.0732 126.444 53.968 137.398 42.8591 152.871C15.8839 190.445 22.6877 240.441 58.0558 264.54C93.4238 288.64 143.963 277.717 170.938 240.143C179.153 228.701 184.235 216.106 186.332 203.442Z" fill="#FC9898"/>
<path d="M186.332 203.442L177.502 201.98L178.069 198.556L180.795 196.409L186.332 203.442ZM85.4694 120.595L93.2306 125.053L91.5863 127.916L88.4768 129.025L85.4694 120.595ZM42.8591 152.871L35.5884 147.651V147.651L42.8591 152.871ZM58.0558 264.54L53.0159 271.937L58.0558 264.54ZM170.938 240.143L163.667 234.923L170.938 240.143ZM180.795 196.409C194.014 186.003 202.368 170.175 202.368 152.509H220.269C220.269 175.995 209.13 196.885 191.868 210.475L180.795 196.409ZM202.368 152.509C202.368 121.524 176.519 96.01 144.137 96.01V78.1092C185.961 78.1092 220.269 111.2 220.269 152.509H202.368ZM144.137 96.01C122.182 96.01 103.152 107.78 93.2306 125.053L77.7083 116.137C90.7727 93.3921 115.674 78.1092 144.137 78.1092V96.01ZM88.4768 129.025C73.7652 134.273 60.1587 144.122 50.1298 158.091L35.5884 147.651C47.7773 130.674 64.3813 118.615 82.4621 112.165L88.4768 129.025ZM50.1298 158.091C25.6839 192.142 32.434 236.251 63.0957 257.144L53.0159 271.937C12.9415 244.63 6.084 188.748 35.5884 147.651L50.1298 158.091ZM63.0957 257.144C93.9382 278.159 139.15 269.073 163.667 234.923L178.209 245.363C148.776 286.36 92.9095 299.12 53.0159 271.937L63.0957 257.144ZM163.667 234.923C171.083 224.594 175.63 213.285 177.502 201.98L195.162 204.904C192.84 218.928 187.223 232.807 178.209 245.363L163.667 234.923Z" fill="#012758" mask="url(#path-8-outside-1_150_799)"/>
<path fill-rule="evenodd" clip-rule="evenodd" d="M211.318 152.509C211.318 173.086 201.572 191.444 186.332 203.442C184.235 216.106 179.153 228.701 170.938 240.143C145.907 275.009 100.585 286.927 65.9229 269.207L160.982 142.803L206.777 128.806C209.71 136.156 211.318 144.15 211.318 152.509Z" fill="#FFF3E5"/>
<path d="M115.07 100.064C132.39 84.4364 163.572 87.7137 179.045 103.989" stroke="#FCF6EA" stroke-width="8.95039" stroke-linecap="round"/>
<line x1="4.47519" y1="-4.47519" x2="7.99453" y2="-4.47519" transform="matrix(-0.753036 0.65798 0.677306 0.735702 94.5586 150.3)" stroke="#012758" stroke-width="8.95039" stroke-linecap="round"/>
<line x1="4.47519" y1="-4.47519" x2="8.25809" y2="-4.47519" transform="matrix(-0.772295 0.635264 0.654935 0.755686 76.626 150.762)" stroke="#012758" stroke-width="8.95039" stroke-linecap="round"/>
<line x1="4.47519" y1="-4.47519" x2="10.2648" y2="-4.47519" transform="matrix(-0.759621 0.650366 0.669819 0.742524 95.5889 130.23)" stroke="#012758" stroke-width="8.95039" stroke-linecap="round"/>
<path d="M253.422 86.0292C253.953 90.935 254.325 99.5096 251.867 107.726C249.433 115.86 244.271 123.548 233.691 127.143C225.021 130.088 214.635 128.239 202.753 123.725C193.492 120.207 183.642 115.206 173.333 109.971C170.441 108.503 167.514 107.016 164.553 105.539C137.649 91.2194 113.091 88.1393 95.6473 85.9515C94.55 85.8139 93.4808 85.6798 92.441 85.5467C88.0351 84.9825 84.2164 84.4438 80.9957 83.741C77.7566 83.0341 75.2968 82.1958 73.5327 81.1192C71.833 80.0819 70.8362 78.863 70.3571 77.3013C69.866 75.7006 69.8379 73.4763 70.6187 70.3062C71.6207 68.4767 73.4271 66.4415 76.0597 64.2705C78.7757 62.0307 82.2619 59.735 86.3832 57.4471C94.6252 52.8718 105.252 48.4131 116.963 44.5392C140.329 36.8103 167.691 31.5131 188.592 32.1375C211.244 37.8542 226.786 45.3195 236.979 54.3033C247.133 63.252 252.097 73.8086 253.422 86.0292Z" fill="#FFF3E5" stroke="#012758" stroke-width="4.47519"/>
<path d="M116.325 35.3578C116.67 23.4052 126.351 13.8357 138.307 13.6297L158.797 13.2768L184.444 14.7126C195.406 15.3263 204.303 23.8025 205.447 34.7217L209.445 72.8785C210.128 79.3882 206.016 85.441 199.713 87.2059L193.538 88.9349C191.699 89.4501 189.801 89.7275 187.89 89.7604L170.154 90.0659L136.131 87.4401C124.227 86.5215 115.142 76.4196 115.486 64.4859L116.325 35.3578Z" fill="#FFF3E5" stroke="#012758" stroke-width="4.47519"/>
<path d="M206.349 124.902C198.691 123.282 127.516 83.5309 106.284 85.998C99.6487 86.769 71.3119 82.0794 71.1787 74.3445C71.0454 66.6096 87.1394 56.2076 98.1061 56.0187C104.154 55.9145 125.957 59.4615 145.906 71.3061C169.114 87.0172 195.533 114.581 206.349 124.902Z" fill="#FFF3E5" stroke="#012758" stroke-width="4.47519"/>
<path d="M200.81 25.3207C198.56 44.8087 148.876 20.1615 137.52 23.4902" stroke="#012758" stroke-width="3.58016" stroke-linecap="round"/>
<path d="M144.355 60.2241C150.95 59.3858 176.695 58.9412 155.772 34.0627" stroke="#012758" stroke-width="3.58016" stroke-linecap="round"/>
<path d="M105.798 118.975C93.3694 118.975 83.1986 109.009 83.1986 96.599C83.1986 84.1889 93.3694 74.223 105.798 74.223C118.227 74.223 128.398 84.1889 128.398 96.599C128.398 109.009 118.227 118.975 105.798 118.975Z" fill="#FDE7D2" stroke="#062855" stroke-width="8.95039"/>
<ellipse cx="11.6355" cy="11.4117" rx="11.6355" ry="11.4117" transform="matrix(-1 0 0 1 117.657 84.9634)" fill="#022656"/>
<ellipse cx="7.38407" cy="7.16031" rx="7.38407" ry="7.16031" transform="matrix(-1 0 0 1 180.311 110.919)" fill="#022656"/>
<ellipse cx="7.38407" cy="7.16031" rx="7.38407" ry="7.16031" transform="matrix(-1 0 0 1 150.327 110.919)" fill="#022656"/>
<path d="M202.687 128.373C189.272 136.608 153.755 149.126 119 133.314" stroke="#012758" stroke-width="8.95039" stroke-linecap="round"/>
<path d="M24.9007 265.382C8.23599 255.139 1.56549 234.476 11.6459 218.911C21.7263 203.347 43.7411 200.316 60.4058 210.56C77.0705 220.803 83.741 241.465 73.6606 257.03C63.5802 272.595 41.5654 275.626 24.9007 265.382Z" fill="#FC9898" stroke="#012758" stroke-width="8.95039"/>
<path d="M30.059 215.365C44.8329 209.756 62.037 218.277 68.4854 234.397" stroke="#FCF6EA" stroke-width="8.95039" stroke-linecap="round"/>
<ellipse cx="4.93511" cy="4.80788" rx="4.93511" ry="4.80788" transform="matrix(-1 0 0 1 24.999 218.73)" fill="#FCF6EA"/>
<path fill-rule="evenodd" clip-rule="evenodd" d="M12.3075 227.566C8.1688 239.81 13.9024 254.389 26.8796 262.366C39.6294 270.203 55.2725 269.148 64.8848 260.659C47.9832 256.934 26.1671 247.547 12.3075 227.566Z" fill="#D68181"/>
<path d="M58.1373 274.712C58.1373 279.364 62.0006 283.215 66.8639 283.215C71.7272 283.215 75.5905 279.364 75.5905 274.712C75.5905 270.059 71.7272 266.209 66.8639 266.209C62.0006 266.209 58.1373 270.059 58.1373 274.712Z" fill="#FC9898" stroke="#012758" stroke-width="4.47519"/>
<path d="M42.4747 280.082C42.4747 284.652 46.4523 288.585 51.6488 288.585C56.8453 288.585 60.8229 284.652 60.8229 280.082C60.8229 275.512 56.8453 271.579 51.6488 271.579C46.4523 271.579 42.4747 275.512 42.4747 280.082Z" fill="#FC9898" stroke="#012758" stroke-width="4.47519"/>
<path d="M25.9158 279.411C25.9158 283.939 29.6781 287.69 34.4187 287.69C39.1594 287.69 42.9216 283.939 42.9216 279.411C42.9216 274.883 39.1594 271.132 34.4187 271.132C29.6781 271.132 25.9158 274.883 25.9158 279.411Z" fill="#FC9898" stroke="#012758" stroke-width="4.47519"/>
<path d="M110.792 206.328L111.315 207.107L111.48 208.03C113.242 217.835 116.058 232.693 118.782 245.4C120.146 251.762 121.475 257.527 122.627 261.833C123.206 263.996 123.719 265.711 124.15 266.921C124.344 267.465 124.498 267.841 124.608 268.08C126.658 270.109 127.567 272.436 128.009 273.567C128.023 273.605 128.037 273.641 128.051 273.676H132.875L131.92 278.949C131.728 280.011 131.224 281.561 129.794 282.703C128.273 283.918 126.576 283.989 125.472 283.837C124.434 283.693 123.534 283.311 122.942 283.029C122.309 282.727 121.686 282.368 121.18 282.071C121.021 281.978 120.87 281.889 120.728 281.805C119.978 281.362 119.448 281.05 118.986 280.833L118.721 280.983L117.385 280.896C115.427 280.769 115.137 280.887 115.068 280.915L115.068 280.915L115.067 280.916C115.034 280.928 114.616 281.093 113.335 282.682L112.362 283.888L110.852 284.234C110.172 284.39 109.739 284.5 109.279 284.617C108.857 284.725 108.412 284.838 107.732 284.997C106.782 285.22 105.436 285.515 104.205 285.515C103.609 285.515 102.517 285.457 101.402 284.893C100.014 284.191 98.9132 282.853 98.6481 281.091C98.4361 279.682 98.8389 278.486 99.1251 277.804C99.4448 277.042 99.8868 276.307 100.354 275.624C100.526 275.373 100.688 275.137 100.841 274.914C101.414 274.082 101.862 273.431 102.242 272.81C102.715 272.038 102.883 271.623 102.94 271.407C102.947 271.382 102.952 271.362 102.954 271.348C102.922 271.261 102.777 270.93 102.232 270.324C100.182 268.042 94.0158 259.583 88.3961 250.064C85.5618 245.263 82.7886 240.064 80.7108 235.116C78.6803 230.282 77.1125 225.228 77.1125 220.868V220.667L77.1306 220.467C77.9701 211.142 84.9988 205.405 91.6705 202.986C95.0509 201.76 98.6696 201.239 101.934 201.586C105.079 201.921 108.676 203.175 110.792 206.328ZM124.729 268.315C124.729 268.314 124.719 268.294 124.697 268.261C124.718 268.3 124.729 268.316 124.729 268.315ZM118.412 280.612C118.413 280.614 118.441 280.623 118.492 280.631C118.436 280.614 118.411 280.61 118.412 280.612Z" fill="#FC9898" stroke="#012758" stroke-width="8.95039" stroke-linecap="round"/>
<path d="M121.377 278.237C120.703 282.792 123.949 287.112 128.761 287.787C133.573 288.463 137.939 285.21 138.612 280.656C139.286 276.101 136.04 271.781 131.228 271.105C126.415 270.43 122.05 273.683 121.377 278.237Z" fill="#FC9898" stroke="#012758" stroke-width="4.47519"/>
<path d="M174.768 274.898C174.095 279.453 177.341 283.773 182.153 284.449C186.965 285.124 191.331 281.871 192.004 277.317C192.677 272.762 189.431 268.442 184.619 267.767C179.807 267.091 175.441 270.344 174.768 274.898Z" fill="#FC9898" stroke="#012758" stroke-width="4.47519"/>
<path d="M104.592 283.366C103.919 287.92 107.165 292.241 111.977 292.916C116.789 293.591 121.155 290.339 121.828 285.784C122.502 281.229 119.256 276.909 114.443 276.234C109.631 275.559 105.266 278.811 104.592 283.366Z" fill="#FC9898" stroke="#012758" stroke-width="4.47519"/>
<path d="M157.984 280.027C157.311 284.581 160.556 288.902 165.369 289.577C170.181 290.252 174.546 287 175.22 282.445C175.893 277.891 172.647 273.57 167.835 272.895C163.023 272.22 158.657 275.472 157.984 280.027Z" fill="#FC9898" stroke="#012758" stroke-width="4.47519"/>
<path d="M88.4537 278.179C87.7803 282.734 91.0262 287.054 95.8384 287.729C100.651 288.405 105.016 285.152 105.689 280.598C106.363 276.043 103.117 271.723 98.3047 271.047C93.4925 270.372 89.127 273.624 88.4537 278.179Z" fill="#FC9898" stroke="#012758" stroke-width="4.47519"/>
<path d="M141.845 274.84C141.172 279.394 144.418 283.715 149.23 284.39C154.042 285.065 158.408 281.813 159.081 277.258C159.754 272.704 156.509 268.383 151.696 267.708C146.884 267.033 142.519 270.285 141.845 274.84Z" fill="#FC9898" stroke="#012758" stroke-width="4.47519"/>
<ellipse cx="3.52839" cy="3.43767" rx="3.52839" ry="3.43767" transform="matrix(0.99935 -0.0360485 0.0379789 0.999278 32.29 150.67)" fill="#012758"/>
<ellipse cx="3.52839" cy="3.43767" rx="3.52839" ry="3.43767" transform="matrix(0.99935 -0.0360485 0.0379789 0.999278 37.1025 165.893)" fill="#012758"/>
<ellipse cx="3.52839" cy="3.43767" rx="3.52839" ry="3.43767" transform="matrix(0.99935 -0.0360485 0.0379789 0.999278 41.0371 178.337)" fill="#012758"/>
<path d="M94.0686 63.6445C93.2668 67.2012 93.2746 68.1551 92.5068 74.8325" stroke="#062855" stroke-width="4.47519" stroke-linecap="round"/>
<path d="M107.257 63.8057C106.491 66.8808 106.479 67.7029 105.683 73.4673" stroke="#062855" stroke-width="4.47519" stroke-linecap="round"/>
<path d="M119.34 64.8682C118.574 67.9433 118.562 68.7654 117.766 74.5298" stroke="#062855" stroke-width="4.47519" stroke-linecap="round"/>
</g>
<defs>
<clipPath id="clip0_150_799">
<rect width="268.7" height="296.417" fill="white" transform="translate(0.137695 0.232422)"/>
</clipPath>
</defs>
</svg>
