<svg width="327" height="274" viewBox="0 0 327 274" fill="none" xmlns="http://www.w3.org/2000/svg">
<g clip-path="url(#clip0_150_977)">
<rect x="-6.52974" y="2.18257" width="105.507" height="43.1629" rx="21.4415" transform="matrix(-0.899405 -0.437116 -0.455786 0.890089 293.76 58.351)" fill="#86AC3B" stroke="#012758" stroke-width="9.63663"/>
<mask id="path-2-inside-1_150_977" fill="white">
<ellipse cx="8.65251" cy="8.43479" rx="8.65251" ry="8.43479" transform="matrix(-0.994223 -0.107338 -0.113022 0.993593 182.035 15.2935)"/>
</mask>
<ellipse cx="8.65251" cy="8.43479" rx="8.65251" ry="8.43479" transform="matrix(-0.994223 -0.107338 -0.113022 0.993593 182.035 15.2935)" fill="#89B03D"/>
<path d="M173.458 22.8511C173.504 22.4427 173.359 22.0859 173.19 21.8807C173.025 21.6802 172.804 21.5717 172.615 21.5513L170.437 40.7011C160.626 39.6419 153.142 30.9275 154.296 20.7823L173.458 22.8511ZM172.615 21.5513C172.427 21.531 172.186 21.5896 171.98 21.7501C171.77 21.9143 171.547 22.2314 171.501 22.6398L190.663 24.7086C189.509 34.8537 180.248 41.7603 170.437 40.7011L172.615 21.5513ZM171.501 22.6398C171.454 23.0482 171.6 23.4051 171.769 23.6102C171.933 23.8107 172.155 23.9193 172.343 23.9396L174.522 4.78984C184.333 5.84903 191.817 14.5634 190.663 24.7086L171.501 22.6398ZM172.343 23.9396C172.532 23.9599 172.773 23.9014 172.979 23.7409C173.189 23.5766 173.411 23.2595 173.458 22.8511L154.296 20.7823C155.45 10.6372 164.711 3.73064 174.522 4.78984L172.343 23.9396Z" fill="#012758" mask="url(#path-2-inside-1_150_977)"/>
<path d="M185.901 5.48468L243.147 31.5411L224.806 65.9196C221.747 65.1046 206.791 58.9329 171.437 40.7666C151.004 19.1693 171.5 5.22269 185.901 5.48468Z" fill="#8EB540" stroke="#012758" stroke-width="9.63663"/>
<rect x="-6.52974" y="2.18257" width="105.507" height="43.1629" rx="21.4415" transform="matrix(-0.899405 -0.437116 -0.455786 0.890089 231.731 75.1879)" fill="#86AC3B" stroke="#012758" stroke-width="9.63663"/>
<rect x="5.93987" y="3.4288" width="103.314" height="91.2403" rx="39.6166" transform="matrix(0.265192 0.964196 0.967577 -0.252578 199.687 94.8484)" fill="#8FB03F" stroke="#012758" stroke-width="9.63663"/>
<rect x="-3.38431" y="5.8628" width="105.898" height="42.9772" rx="21.4415" transform="matrix(-0.967577 0.252578 0.265192 0.964196 288.645 46.4588)" fill="#86AC3B" stroke="#012758" stroke-width="9.63663"/>
<rect x="3.1624" y="5.97906" width="58.3221" height="27.7992" rx="13.8996" transform="matrix(-0.301472 0.953475 0.957802 0.287428 154.033 61.3395)" fill="#BE8F65" stroke="#012758" stroke-width="9.63663"/>
<rect x="-5.93987" y="-3.4288" width="42.3054" height="19.0056" rx="9.50281" transform="matrix(-0.265192 -0.964195 -0.967577 0.252578 273.265 154.531)" fill="#BE8F65" stroke="#012758" stroke-width="9.63663"/>
<rect x="-5.93987" y="-3.4288" width="20.274" height="19.0056" rx="9.50281" transform="matrix(-0.265192 -0.964195 -0.967577 0.252578 267.469 133.288)" fill="#6ED5A6" stroke="#012758" stroke-width="9.63663"/>
<path d="M217.817 46.0113C216.702 55.8162 223.967 64.8561 234.333 65.9753C244.699 67.0944 253.82 59.8236 254.935 50.0186C256.051 40.2137 248.785 31.1738 238.419 30.0547C228.053 28.9356 218.932 36.2064 217.817 46.0113Z" fill="#89B03D" stroke="#012758" stroke-width="9.63663"/>
<mask id="path-12-inside-2_150_977" fill="white">
<ellipse cx="8.65251" cy="8.43479" rx="8.65251" ry="8.43479" transform="matrix(-0.994223 -0.107338 -0.113022 0.993593 244.098 40.6787)"/>
</mask>
<ellipse cx="8.65251" cy="8.43479" rx="8.65251" ry="8.43479" transform="matrix(-0.994223 -0.107338 -0.113022 0.993593 244.098 40.6787)" fill="#89B03D"/>
<path d="M235.52 48.2363C235.567 47.8279 235.421 47.4711 235.253 47.2659C235.088 47.0654 234.866 46.9569 234.678 46.9366L232.499 66.0863C222.689 65.0272 215.204 56.3128 216.358 46.1676L235.52 48.2363ZM234.678 46.9366C234.489 46.9162 234.248 46.9748 234.043 47.1353C233.832 47.2995 233.61 47.6167 233.563 48.0251L252.725 50.0938C251.571 60.239 242.31 67.1455 232.499 66.0863L234.678 46.9366ZM233.563 48.0251C233.517 48.4335 233.662 48.7903 233.831 48.9955C233.996 49.196 234.218 49.3045 234.406 49.3249L236.584 30.1751C246.395 31.2343 253.879 39.9487 252.725 50.0938L233.563 48.0251ZM234.406 49.3249C234.594 49.3452 234.835 49.2866 235.041 49.1261C235.252 48.9619 235.474 48.6447 235.52 48.2363L216.358 46.1676C217.512 36.0224 226.773 29.1159 236.584 30.1751L234.406 49.3249Z" fill="#012758" mask="url(#path-12-inside-2_150_977)"/>
<ellipse cx="3.79892" cy="3.70124" rx="3.79892" ry="3.70124" transform="matrix(-0.99935 -0.0360485 -0.0379789 0.999278 171.366 81.3384)" fill="#012758"/>
<ellipse cx="3.79787" cy="3.70231" rx="3.79787" ry="3.70231" transform="matrix(-0.994223 -0.107338 -0.113022 0.993593 183.733 19.6187)" fill="#4E7411"/>
<ellipse cx="3.79892" cy="3.70124" rx="3.79892" ry="3.70124" transform="matrix(-0.99935 -0.0360485 -0.0379789 0.999278 152.95 59.7588)" fill="#4E7411"/>
<ellipse cx="3.79905" cy="3.70111" rx="3.79905" ry="3.70111" transform="matrix(-1 5.05607e-09 5.3272e-09 1 254.416 83.8887)" fill="#4E7411"/>
<ellipse cx="3.79892" cy="3.70124" rx="3.79892" ry="3.70124" transform="matrix(-0.99935 -0.0360485 -0.0379789 0.999278 166.185 97.728)" fill="#012758"/>
<ellipse cx="3.79892" cy="3.70124" rx="3.79892" ry="3.70124" transform="matrix(-0.99935 -0.0360485 -0.0379789 0.999278 161.948 111.126)" fill="#012758"/>
<path d="M64.8881 239.404C82.8305 228.375 90.0124 206.128 79.1591 189.37C68.3058 172.612 44.6031 169.349 26.6607 180.378C8.71828 191.406 1.53634 213.653 12.3896 230.411C23.2429 247.17 46.9457 250.432 64.8881 239.404Z" fill="#6ED5A6" stroke="#012758" stroke-width="9.63663"/>
<path d="M59.3355 185.551C43.4288 179.512 24.9057 188.686 17.9629 206.042" stroke="#FCF6EA" stroke-width="9.63663" stroke-linecap="round"/>
<ellipse cx="70.0967" cy="194.351" rx="5.31349" ry="5.17651" fill="#FCF6EA"/>
<path fill-rule="evenodd" clip-rule="evenodd" d="M78.4483 198.688C82.9046 211.87 76.7315 227.567 62.759 236.156C49.0317 244.593 32.1891 243.458 21.8398 234.317C40.0374 230.307 63.5261 220.2 78.4483 198.688Z" fill="#24A98E"/>
<path d="M49.5565 170.428C41.2433 192.629 34.0001 239.822 71.5329 250.979C109.066 262.136 72.5206 201.927 49.5565 170.428Z" fill="#6ED5A6" stroke="#012758" stroke-width="9.63663"/>
<path d="M60.7102 81.7706C74.1688 81.7706 85.2836 71.0959 85.2836 57.679C85.2836 44.2621 74.1688 33.5874 60.7102 33.5874C47.2515 33.5874 36.1368 44.2621 36.1368 57.679C36.1368 71.0959 47.2515 81.7706 60.7102 81.7706Z" fill="#FDE7D2" stroke="#062855" stroke-width="9.63663"/>
<ellipse cx="60.7102" cy="57.4381" rx="12.5276" ry="12.2867" fill="#022656"/>
<mask id="path-27-outside-3_150_977" maskUnits="userSpaceOnUse" x="15.8809" y="37.4077" width="219" height="225" fill="black">
<rect fill="white" x="15.8809" y="37.4077" width="219" height="225"/>
<path fill-rule="evenodd" clip-rule="evenodd" d="M52.7835 172.714C36.3745 159.795 25.8809 140.029 25.8809 117.876C25.8809 78.9572 58.2652 47.4077 98.2134 47.4077C125.355 47.4077 149.004 61.9709 161.379 83.514C179.032 89.8116 195.296 101.605 207.256 118.265C236.3 158.72 228.974 212.549 190.895 238.496C152.815 264.443 98.4008 252.683 69.3574 212.228C60.5128 199.909 55.0411 186.349 52.7835 172.714Z"/>
</mask>
<path fill-rule="evenodd" clip-rule="evenodd" d="M52.7835 172.714C36.3745 159.795 25.8809 140.029 25.8809 117.876C25.8809 78.9572 58.2652 47.4077 98.2134 47.4077C125.355 47.4077 149.004 61.9709 161.379 83.514C179.032 89.8116 195.296 101.605 207.256 118.265C236.3 158.72 228.974 212.549 190.895 238.496C152.815 264.443 98.4008 252.683 69.3574 212.228C60.5128 199.909 55.0411 186.349 52.7835 172.714Z" fill="#6ED5A6"/>
<path d="M52.7835 172.714L62.2907 171.14L61.6803 167.453L58.7444 165.142L52.7835 172.714ZM161.379 83.514L153.022 88.3137L154.793 91.396L158.141 92.5903L161.379 83.514ZM207.256 118.265L199.428 123.885L207.256 118.265ZM190.895 238.496L185.468 230.532L190.895 238.496ZM69.3574 212.228L61.5293 217.848H61.5293L69.3574 212.228ZM58.7444 165.142C44.5117 153.937 35.5175 136.896 35.5175 117.876H16.2442C16.2442 143.163 28.2372 165.654 46.8225 180.285L58.7444 165.142ZM35.5175 117.876C35.5175 84.5151 63.3486 57.0443 98.2134 57.0443V37.7711C53.1819 37.7711 16.2442 73.3994 16.2442 117.876H35.5175ZM98.2134 57.0443C121.851 57.0443 142.34 69.7162 153.022 88.3137L169.735 78.7142C155.669 54.2257 128.858 37.7711 98.2134 37.7711V57.0443ZM158.141 92.5903C173.981 98.2409 188.63 108.845 199.428 123.885L215.085 112.645C201.961 94.3655 184.084 81.3822 164.617 74.4376L158.141 92.5903ZM199.428 123.885C225.748 160.547 218.481 208.038 185.468 230.532L196.321 246.46C239.468 217.06 246.851 156.893 215.085 112.645L199.428 123.885ZM185.468 230.532C152.261 253.159 103.583 243.376 77.1855 206.608L61.5293 217.848C93.2189 261.989 153.369 275.727 196.321 246.46L185.468 230.532ZM77.1855 206.608C69.2014 195.487 64.3059 183.311 62.2907 171.14L43.2763 174.288C45.7762 189.387 51.8243 204.33 61.5293 217.848L77.1855 206.608Z" fill="#012758" mask="url(#path-27-outside-3_150_977)"/>
<path fill-rule="evenodd" clip-rule="evenodd" d="M25.8799 117.876C25.8799 140.03 36.3735 159.796 52.7825 172.714C55.0401 186.349 60.5119 199.909 69.3564 212.228C96.3069 249.768 145.103 262.599 182.423 243.521L80.0749 107.425L30.7691 92.3555C27.612 100.269 25.8799 108.875 25.8799 117.876Z" fill="#FFF3E5"/>
<path d="M129.508 61.4095C110.86 44.5833 77.2871 48.1119 60.6279 65.6348" stroke="#FCF6EA" stroke-width="9.63663" stroke-linecap="round"/>
<line x1="4.81831" y1="-4.81831" x2="8.60748" y2="-4.81831" transform="matrix(0.753036 0.65798 -0.677306 0.735702 151.592 115.497)" stroke="#012758" stroke-width="9.63663" stroke-linecap="round"/>
<line x1="4.81831" y1="-4.81831" x2="8.89125" y2="-4.81831" transform="matrix(0.772295 0.635264 -0.654935 0.755686 170.899 115.994)" stroke="#012758" stroke-width="9.63663" stroke-linecap="round"/>
<line x1="4.81831" y1="-4.81831" x2="11.0519" y2="-4.81831" transform="matrix(0.759621 0.650366 -0.669819 0.742524 150.481 93.8882)" stroke="#012758" stroke-width="9.63663" stroke-linecap="round"/>
<path d="M139.49 81.7706C152.872 81.7706 163.822 71.0407 163.822 57.679C163.822 44.3174 152.872 33.5874 139.49 33.5874C126.108 33.5874 115.157 44.3174 115.157 57.679C115.157 71.0407 126.108 81.7706 139.49 81.7706Z" fill="#FDE7D2" stroke="#062855" stroke-width="9.63663"/>
<ellipse cx="139.249" cy="57.4381" rx="12.5276" ry="12.2867" fill="#022656"/>
<ellipse cx="67.2158" cy="80.8065" rx="7.95022" ry="7.7093" fill="#022656"/>
<ellipse cx="99.4971" cy="80.8065" rx="7.95022" ry="7.7093" fill="#022656"/>
<path d="M35.1729 91.8892C49.6155 100.756 87.8557 114.233 125.275 97.2091" stroke="#012758" stroke-width="9.63663" stroke-linecap="round"/>
<path d="M226.588 239.404C244.531 228.375 251.713 206.128 240.859 189.37C230.006 172.612 206.303 169.349 188.361 180.378C170.418 191.406 163.237 213.653 174.09 230.411C184.943 247.17 208.646 250.432 226.588 239.404Z" fill="#6ED5A6" stroke="#012758" stroke-width="9.63663"/>
<path d="M221.034 185.551C205.127 179.512 186.604 188.686 179.661 206.042" stroke="#FCF6EA" stroke-width="9.63663" stroke-linecap="round"/>
<ellipse cx="231.795" cy="194.351" rx="5.31349" ry="5.17651" fill="#FCF6EA"/>
<path fill-rule="evenodd" clip-rule="evenodd" d="M240.146 198.689C244.602 211.872 238.429 227.567 224.457 236.156C210.73 244.593 193.887 243.458 183.538 234.318C201.735 230.308 225.224 220.201 240.146 198.689Z" fill="#24A98E"/>
<path d="M190.804 249.448C190.804 254.457 186.645 258.603 181.408 258.603C176.172 258.603 172.013 254.457 172.013 249.448C172.013 244.438 176.172 240.293 181.408 240.293C186.645 240.293 190.804 244.438 190.804 249.448Z" fill="#6ED5A6" stroke="#012758" stroke-width="4.81831"/>
<path d="M207.669 255.23C207.669 260.151 203.386 264.385 197.792 264.385C192.197 264.385 187.914 260.151 187.914 255.23C187.914 250.309 192.197 246.075 197.792 246.075C203.386 246.075 207.669 250.309 207.669 255.23Z" fill="#6ED5A6" stroke="#012758" stroke-width="4.81831"/>
<path d="M225.497 254.507C225.497 259.383 221.446 263.421 216.342 263.421C211.238 263.421 207.187 259.383 207.187 254.507C207.187 249.632 211.238 245.593 216.342 245.593C221.446 245.593 225.497 249.632 225.497 254.507Z" fill="#6ED5A6" stroke="#012758" stroke-width="4.81831"/>
<path d="M133.521 176.024L132.958 176.863L132.779 177.858C130.883 188.414 127.85 204.412 124.917 218.093C123.449 224.943 122.019 231.15 120.778 235.786C120.155 238.114 119.602 239.961 119.139 241.263C118.93 241.849 118.764 242.255 118.645 242.512C116.438 244.696 115.46 247.202 114.984 248.42C114.968 248.46 114.953 248.499 114.938 248.537H109.744L110.773 254.214C110.98 255.357 111.523 257.026 113.061 258.256C114.699 259.564 116.526 259.641 117.715 259.476C118.833 259.322 119.802 258.911 120.439 258.607C121.121 258.282 121.791 257.896 122.336 257.575C122.507 257.475 122.669 257.379 122.823 257.289C123.63 256.812 124.201 256.476 124.698 256.242L124.983 256.404L126.422 256.31C128.53 256.174 128.842 256.3 128.917 256.331L128.917 256.331L128.918 256.331C128.953 256.345 129.403 256.522 130.782 258.233L131.83 259.532L133.456 259.905C134.188 260.072 134.655 260.191 135.149 260.317C135.604 260.432 136.083 260.554 136.815 260.726C137.838 260.966 139.287 261.284 140.612 261.284C141.254 261.284 142.43 261.221 143.63 260.614C145.125 259.858 146.31 258.418 146.596 256.52C146.824 255.003 146.39 253.715 146.082 252.981C145.738 252.161 145.262 251.369 144.759 250.634C144.573 250.363 144.399 250.11 144.234 249.87C143.617 248.974 143.136 248.273 142.726 247.604C142.217 246.773 142.036 246.326 141.974 246.094C141.967 246.066 141.962 246.045 141.959 246.03C141.994 245.936 142.151 245.581 142.737 244.928C144.944 242.471 151.583 233.363 157.634 223.114C160.685 217.945 163.671 212.347 165.908 207.021C168.094 201.815 169.782 196.374 169.782 191.68V191.463L169.763 191.248C168.859 181.208 161.291 175.031 154.108 172.426C150.469 171.106 146.572 170.546 143.058 170.92C139.671 171.28 135.799 172.63 133.521 176.024ZM118.515 242.765C118.515 242.763 118.526 242.742 118.549 242.706C118.527 242.748 118.515 242.766 118.515 242.765ZM125.316 256.004C125.315 256.007 125.285 256.016 125.231 256.025C125.291 256.006 125.318 256.002 125.316 256.004Z" fill="#6DD4A6" stroke="#012758" stroke-width="9.63663" stroke-linecap="round"/>
<path d="M122.124 253.447C122.849 258.351 119.354 263.003 114.173 263.73C108.992 264.457 104.292 260.955 103.567 256.051C102.842 251.148 106.337 246.496 111.518 245.769C116.699 245.042 121.399 248.544 122.124 253.447Z" fill="#6ED5A6" stroke="#012758" stroke-width="4.81831"/>
<path d="M64.6388 249.853C65.3638 254.757 61.869 259.408 56.6879 260.135C51.5067 260.862 46.8065 257.361 46.0815 252.457C45.3565 247.553 48.8513 242.901 54.0324 242.174C59.2136 241.447 63.9138 244.949 64.6388 249.853Z" fill="#6ED5A6" stroke="#012758" stroke-width="4.81831"/>
<path d="M140.195 258.969C140.92 263.873 137.426 268.525 132.245 269.252C127.063 269.979 122.363 266.477 121.638 261.573C120.913 256.67 124.408 252.018 129.589 251.291C134.77 250.564 139.47 254.066 140.195 258.969Z" fill="#6ED5A6" stroke="#012758" stroke-width="4.81831"/>
<path d="M82.7111 255.375C83.4361 260.279 79.9413 264.93 74.7601 265.657C69.579 266.384 64.8788 262.883 64.1537 257.979C63.4287 253.075 66.9235 248.423 72.1047 247.696C77.2859 246.969 81.9861 250.471 82.7111 255.375Z" fill="#6ED5A6" stroke="#012758" stroke-width="4.81831"/>
<path d="M157.571 253.385C158.296 258.289 154.802 262.94 149.62 263.667C144.439 264.394 139.739 260.893 139.014 255.989C138.289 251.085 141.784 246.433 146.965 245.706C152.146 244.979 156.846 248.481 157.571 253.385Z" fill="#6ED5A6" stroke="#012758" stroke-width="4.81831"/>
<path d="M100.086 249.79C100.811 254.694 97.3163 259.346 92.1351 260.073C86.954 260.8 82.2538 257.298 81.5287 252.394C80.8037 247.49 84.2985 242.839 89.4797 242.112C94.6609 241.385 99.3611 244.886 100.086 249.79Z" fill="#6ED5A6" stroke="#012758" stroke-width="4.81831"/>
<rect x="3.1624" y="5.97906" width="58.3221" height="27.7992" rx="13.8996" transform="matrix(-0.301472 0.953475 0.957802 0.287428 201.3 95.8976)" fill="#BE8F65" stroke="#012758" stroke-width="9.63663"/>
<ellipse cx="3.79892" cy="3.70124" rx="3.79892" ry="3.70124" transform="matrix(-0.99935 -0.0360485 -0.0379789 0.999278 218.635 115.896)" fill="#012758"/>
<ellipse cx="3.79892" cy="3.70124" rx="3.79892" ry="3.70124" transform="matrix(-0.99935 -0.0360485 -0.0379789 0.999278 213.452 132.286)" fill="#012758"/>
<ellipse cx="3.79892" cy="3.70124" rx="3.79892" ry="3.70124" transform="matrix(-0.99935 -0.0360485 -0.0379789 0.999278 209.216 145.685)" fill="#012758"/>
<path d="M78.6622 117.335C63.7702 117.335 50.6638 112.118 41.3076 106.483C36.6245 103.663 32.8309 100.708 30.1781 98.1862C28.8562 96.9296 27.7784 95.7436 27.0104 94.7021C26.6277 94.1832 26.2892 93.6563 26.0368 93.1403C25.808 92.6727 25.5371 91.9915 25.5371 91.2247C25.5371 89.5975 25.9501 87.653 27.7391 86.6137C29.3085 85.702 31.1454 86.0104 32.4828 86.3819C33.956 86.7912 35.6579 87.5292 37.4681 88.3916C38.7556 89.005 40.1812 89.7225 41.6964 90.4852C42.3257 90.8019 42.9704 91.1265 43.6272 91.4545C52.7072 95.9905 64.9396 101.627 78.6622 101.627C92.285 101.627 103.768 97.8056 112.176 95.0073C112.347 94.9504 112.517 94.8938 112.685 94.8377C114.783 94.1402 116.725 93.5006 118.435 93.0281C120.121 92.562 121.741 92.2115 123.168 92.1657C124.573 92.1206 126.217 92.3583 127.481 93.5444C128.76 94.7443 129.131 96.4222 129.131 98.0412C129.131 98.7813 128.89 99.4276 128.646 99.9094C128.393 100.411 128.056 100.889 127.687 101.334C126.951 102.222 125.935 103.157 124.718 104.098C122.272 105.988 118.781 108.079 114.43 110.027C105.717 113.926 93.3678 117.335 78.6622 117.335Z" fill="#1E1E1E" stroke="#012758" stroke-width="4.81831"/>
<path d="M183.293 65.5348C183.45 64.4795 182.718 63.5233 181.659 63.3989L165.757 61.5334L165.189 65.3549L181.091 67.2204C182.15 67.3447 183.136 66.59 183.293 65.5348Z" fill="#F7CE45"/>
<path d="M165.684 52.3783C165.684 47.0562 161.369 42.7417 156.047 42.7417H104.827C99.5051 42.7417 95.1906 47.0562 95.1906 52.3783V62.015C95.1906 72.6593 103.82 81.2882 114.464 81.2882H156.047C161.369 81.2882 165.684 76.9737 165.684 71.6516V52.3783Z" fill="#FAAFAF" fill-opacity="0.5"/>
<path d="M164.479 52.3783C164.479 47.7214 160.704 43.9463 156.047 43.9463H104.827C100.17 43.9463 96.3952 47.7214 96.3952 52.3783V62.015C96.3952 71.994 104.485 80.0836 114.464 80.0836H156.047C160.704 80.0836 164.479 76.3085 164.479 71.6516V52.3783Z" stroke="black" stroke-opacity="0.5" stroke-width="2.40916"/>
<path d="M14.9365 51.8964C14.9365 46.5742 19.251 42.2598 24.5732 42.2598H64.9478C70.27 42.2598 74.5845 46.5742 74.5845 51.8964V61.533C74.5845 72.1773 65.9555 80.8063 55.3112 80.8063H24.5731C19.251 80.8063 14.9365 76.4918 14.9365 71.1697V51.8964Z" fill="#FAAFAF" fill-opacity="0.5"/>
<path d="M16.1411 51.8964C16.1411 47.2395 19.9163 43.4643 24.5732 43.4643H64.9478C69.6047 43.4643 73.3799 47.2395 73.3799 51.8964V61.533C73.3799 71.5121 65.2903 79.6017 55.3112 79.6017H24.5731C19.9163 79.6017 16.1411 75.8265 16.1411 71.1697V51.8964Z" stroke="black" stroke-opacity="0.5" stroke-width="2.40916"/>
<path d="M70.7887 58.8463C70.7887 57.1367 76.8581 55.7508 84.345 55.7508C91.832 55.7508 97.9014 57.1367 97.9014 58.8463C97.9014 60.5559 91.832 58.8437 84.345 58.8437C76.8581 58.8437 70.7887 60.5559 70.7887 58.8463Z" fill="#F7CE45"/>
</g>
<defs>
<clipPath id="clip0_150_977">
<rect width="326.2" height="272.931" fill="white" transform="matrix(-1 0 0 1 326.199 0.34082)"/>
</clipPath>
</defs>
</svg>
