<svg width="576" height="1054" viewBox="0 0 576 1054" fill="none" xmlns="http://www.w3.org/2000/svg">
<path d="M130.073 127.228C199.79 127.228 256.307 137.248 256.307 149.608C256.307 152.661 252.858 155.572 246.612 158.224L187.982 152.493L218.216 165.628C195.466 169.563 164.366 171.987 130.073 171.987C60.3551 171.987 3.83789 161.967 3.83789 149.608C3.83789 137.248 60.3551 127.228 130.073 127.228ZM130.073 127.228C150.586 122.964 194.536 104.061 206.229 62.5604C166.997 50.4796 130.073 80.3262 130.073 127.228ZM445.73 252.641C515.448 252.641 571.965 262.66 571.965 275.02C571.965 278.074 568.515 280.984 562.27 283.636L503.64 277.906L533.874 291.04C511.124 294.975 480.024 297.4 445.73 297.4C376.013 297.4 319.495 287.38 319.495 275.02C319.495 262.66 376.013 252.641 445.73 252.641ZM445.73 252.641C466.243 248.377 510.194 229.474 521.886 187.973C482.655 175.892 445.73 205.739 445.73 252.641ZM130.073 628.879C199.79 628.879 256.307 638.898 256.307 651.258C256.307 654.311 252.858 657.222 246.612 659.874L187.982 654.143L218.216 667.278C195.466 671.213 164.366 673.637 130.073 673.637C60.3551 673.637 3.83789 663.618 3.83789 651.258C3.83789 638.898 60.3551 628.879 130.073 628.879ZM130.073 628.879C150.586 624.615 194.536 605.712 206.229 564.211C166.997 552.13 130.073 581.977 130.073 628.879ZM445.73 754.291C515.448 754.291 571.965 764.311 571.965 776.671C571.965 779.724 568.515 782.635 562.27 785.287L503.64 779.556L533.874 792.691C511.124 796.626 480.024 799.05 445.73 799.05C376.013 799.05 319.495 789.03 319.495 776.671C319.495 764.311 376.013 754.291 445.73 754.291ZM445.73 754.291C466.243 750.027 510.194 731.124 521.886 689.623C482.655 677.543 445.73 707.389 445.73 754.291ZM130.073 378.053C199.79 378.053 256.307 388.073 256.307 400.433C256.307 403.486 252.858 406.397 246.612 409.049L187.982 403.318L218.216 416.453C195.466 420.388 164.366 422.812 130.073 422.812C60.3551 422.812 3.83789 412.793 3.83789 400.433C3.83789 388.073 60.3551 378.053 130.073 378.053ZM130.073 378.053C150.586 373.79 194.536 354.887 206.229 313.386C166.997 301.305 130.073 331.151 130.073 378.053ZM445.73 503.466C515.448 503.466 571.965 513.486 571.965 525.845C571.965 528.899 568.515 531.81 562.27 534.462L503.64 528.731L533.874 541.866C511.124 545.8 480.024 548.225 445.73 548.225C376.013 548.225 319.495 538.205 319.495 525.845C319.495 513.486 376.013 503.466 445.73 503.466ZM445.73 503.466C466.243 499.202 510.194 480.299 521.886 438.798C482.655 426.717 445.73 456.564 445.73 503.466ZM130.073 879.704C199.79 879.704 256.307 889.723 256.307 902.083C256.307 905.137 252.858 908.047 246.612 910.699L187.982 904.969L218.216 918.103C195.466 922.038 164.366 924.463 130.073 924.463C60.3551 924.463 3.83789 914.443 3.83789 902.083C3.83789 889.723 60.3551 879.704 130.073 879.704ZM130.073 879.704C150.586 875.44 194.536 856.537 206.229 815.036C166.997 802.955 130.073 832.802 130.073 879.704ZM445.73 1005.12C515.448 1005.12 571.965 1015.14 571.965 1027.5C571.965 1030.55 568.515 1033.46 562.27 1036.11L503.64 1030.38L533.874 1043.52C511.124 1047.45 480.024 1049.88 445.73 1049.88C376.013 1049.88 319.495 1039.86 319.495 1027.5C319.495 1015.14 376.013 1005.12 445.73 1005.12ZM445.73 1005.12C466.243 1000.85 510.194 981.951 521.886 940.45C482.655 928.369 445.73 958.216 445.73 1005.12ZM128.722 99.2383C106.388 92.8196 75.1215 65.1273 128.722 5.70801C165.945 60.7259 154.033 90.9856 128.722 99.2383ZM123.056 117.279C106.132 109.936 75.2087 82.0318 86.9012 29.1605C110.748 46.2158 139.978 66.1135 123.056 117.279ZM129.804 117.279C146.727 109.936 177.651 82.0318 165.958 29.1605C142.112 46.2158 112.882 66.1135 129.804 117.279ZM122.786 127.228C102.273 122.964 58.3236 104.061 46.6311 62.5604C85.8625 50.4796 122.786 80.3263 122.786 127.228ZM444.38 224.651C422.046 218.232 390.779 190.54 444.38 131.121C481.603 186.139 469.691 216.398 444.38 224.651ZM438.713 242.692C421.79 235.349 390.866 207.444 402.559 154.573C426.405 171.628 455.635 191.526 438.713 242.692ZM445.462 242.692C462.385 235.349 493.309 207.444 481.616 154.573C457.769 171.628 428.54 191.526 445.462 242.692ZM438.444 252.641C417.931 248.377 373.981 229.474 362.289 187.973C401.52 175.892 438.444 205.739 438.444 252.641ZM128.722 600.889C106.388 594.47 75.1215 566.778 128.722 507.358C165.945 562.376 154.033 592.636 128.722 600.889ZM123.056 618.93C106.132 611.586 75.2087 583.682 86.9012 530.811C110.748 547.866 139.978 567.764 123.056 618.93ZM129.804 618.93C146.727 611.586 177.651 583.682 165.958 530.811C142.112 547.866 112.882 567.764 129.804 618.93ZM122.786 628.879C102.273 624.615 58.3236 605.712 46.6311 564.211C85.8625 552.13 122.786 581.977 122.786 628.879ZM444.38 726.301C422.046 719.883 390.779 692.19 444.38 632.771C481.603 687.789 469.691 718.049 444.38 726.301ZM438.713 744.342C421.79 736.999 390.866 709.095 402.559 656.224C426.405 673.279 455.635 693.177 438.713 744.342ZM445.462 744.342C462.385 736.999 493.309 709.095 481.616 656.224C457.769 673.279 428.54 693.177 445.462 744.342ZM438.444 754.291C417.931 750.027 373.981 731.124 362.289 689.623C401.52 677.543 438.444 707.389 438.444 754.291ZM128.722 350.064C106.388 343.645 75.1215 315.952 128.722 256.533C165.945 311.551 154.033 341.811 128.722 350.064ZM123.056 368.104C106.132 360.761 75.2087 332.857 86.9012 279.986C110.748 297.041 139.978 316.939 123.056 368.104ZM129.804 368.104C146.727 360.761 177.651 332.857 165.958 279.986C142.112 297.041 112.882 316.939 129.804 368.104ZM122.786 378.053C102.273 373.79 58.3236 354.887 46.6311 313.386C85.8625 301.305 122.786 331.151 122.786 378.053ZM444.38 475.476C422.046 469.057 390.779 441.365 444.38 381.946C481.603 436.964 469.691 467.223 444.38 475.476ZM438.713 493.517C421.79 486.174 390.866 458.27 402.559 405.398C426.405 422.454 455.635 442.351 438.713 493.517ZM445.462 493.517C462.385 486.174 493.309 458.27 481.616 405.398C457.769 422.454 428.54 442.351 445.462 493.517ZM438.444 503.466C417.931 499.202 373.981 480.299 362.289 438.798C401.52 426.717 438.444 456.564 438.444 503.466ZM128.722 851.714C106.388 845.295 75.1215 817.603 128.722 758.184C165.945 813.201 154.033 843.461 128.722 851.714ZM123.056 869.755C106.132 862.412 75.2087 834.507 86.9012 781.636C110.748 798.691 139.978 818.589 123.056 869.755ZM129.804 869.755C146.727 862.412 177.651 834.507 165.958 781.636C142.112 798.691 112.882 818.589 129.804 869.755ZM122.786 879.704C102.273 875.44 58.3236 856.537 46.6311 815.036C85.8625 802.955 122.786 832.802 122.786 879.704ZM444.38 977.128C422.046 970.709 390.779 943.017 444.38 883.598C481.603 938.616 469.691 968.875 444.38 977.128ZM438.713 995.169C421.79 987.826 390.866 959.921 402.559 907.05C426.405 924.105 455.635 944.003 438.713 995.169ZM445.462 995.169C462.385 987.826 493.309 959.921 481.616 907.05C457.769 924.105 428.54 944.003 445.462 995.169ZM438.444 1005.12C417.931 1000.85 373.981 981.951 362.289 940.45C401.52 928.369 438.444 958.216 438.444 1005.12Z" stroke="url(#paint0_linear_150_750)" stroke-width="6.56"/>
<defs>
<linearGradient id="paint0_linear_150_750" x1="287.901" y1="5.70801" x2="287.901" y2="1049.88" gradientUnits="userSpaceOnUse">
<stop stop-color="#FC9898"/>
<stop offset="1" stop-color="#FC9898" stop-opacity="0"/>
</linearGradient>
</defs>
</svg>
