<svg width="1670" height="1565" viewBox="0 0 1670 1565" fill="none" xmlns="http://www.w3.org/2000/svg">
<circle cx="852.586" cy="759.118" r="740.926" fill="url(#paint0_linear_150_51)"/>
<circle cx="857.138" cy="841.138" r="719.204" transform="rotate(-176.164 857.138 841.138)" stroke="url(#paint1_linear_150_51)" stroke-width="9.2" stroke-linecap="round" stroke-linejoin="round" stroke-dasharray="276 276"/>
<circle cx="849.966" cy="774.5" r="689.23" stroke="url(#paint2_linear_150_51)" stroke-width="9.2"/>
<circle cx="651.206" cy="651.206" r="651.206" transform="matrix(0.965926 0.258819 0.258819 -0.965926 70.0996 1271.39)" stroke="url(#paint3_linear_150_51)" stroke-width="9.2" stroke-linecap="round" stroke-linejoin="round" stroke-dasharray="276 276"/>
<circle cx="849.966" cy="748.776" r="700.442" stroke="url(#paint4_linear_150_51)" stroke-width="9.2"/>
<circle cx="857.138" cy="858.471" r="661.729" transform="rotate(180 857.138 858.471)" stroke="url(#paint5_linear_150_51)" stroke-width="9.2" stroke-linecap="round" stroke-linejoin="round" stroke-dasharray="280.6 280.6"/>
<path fill-rule="evenodd" clip-rule="evenodd" d="M357.213 392.338C351.677 385.267 344.366 379.491 335.404 378.918C327.916 378.439 320.486 380.722 314.691 385.297C311.302 381.901 307.366 379.457 302.579 379.407C294.828 379.326 289.567 385.911 284.661 392.184C283.78 392.156 282.901 392.145 282.028 392.147C273.475 392.164 264.636 393.931 259.097 400.448C256.7 403.269 255.178 406.556 254.353 410.058C254.085 410.042 253.816 410.027 253.547 410.014C247.615 409.723 241.272 409.612 237.035 413.774C235.762 415.024 234.679 416.436 233.801 417.961C232.492 417.834 231.165 417.791 229.877 417.776C224.978 417.72 219.898 418.444 216.573 422.043C214.956 423.793 213.707 425.896 212.967 428.142C212.723 428.131 212.479 428.124 212.235 428.121C209.242 428.075 206.168 428.546 204.246 430.099C203.518 430.688 202.993 431.367 202.663 432.092C202.508 432.088 202.353 432.092 202.2 432.103C201.318 432.168 200.602 432.729 200.047 433.417C199.867 433.64 199.707 433.878 199.578 434.127C199.462 434.094 199.341 434.072 199.216 434.065C198.531 434.024 197.838 434.295 197.418 434.838C197.096 435.254 197.039 435.783 197.1 436.307H389.964C389.987 436.262 390.01 436.216 390.032 436.171C390.054 436.216 390.076 436.262 390.099 436.307H485.618C485.291 435.786 484.783 435.377 484.221 435.075C483.376 434.622 482.4 434.333 481.514 434.694C481.327 434.168 481.039 433.67 480.684 433.223C479.911 432.253 478.807 431.499 477.573 431.532C477.7 430.09 477.529 428.71 476.651 427.539C474.941 425.259 471.746 425.061 468.897 425.109C468.191 425.121 467.485 425.174 466.795 425.281C466.127 421.902 464.205 418.665 461.954 415.903C458.643 411.839 454.018 408.969 448.778 408.846C448.053 408.829 447.337 408.865 446.633 408.949C445.549 405.435 443.782 402.143 441.332 399.333C435.055 392.131 425.019 389.931 415.496 390.699C406.585 391.417 398.668 396.071 393.282 403.208C389.469 408.261 387.048 414.201 386.637 420.336C384.682 418.69 382.299 417.637 379.711 417.583C379.384 417.576 379.059 417.585 378.736 417.61C376.481 411.403 370.973 406.987 364.526 405.676C363.086 400.905 360.391 396.398 357.213 392.338Z" fill="#FFE8C5"/>
<path d="M335.404 378.918L335.111 383.508L335.404 378.918ZM357.213 392.338L353.591 395.174L353.591 395.174L357.213 392.338ZM314.691 385.297L311.435 388.547L314.327 391.445L317.541 388.908L314.691 385.297ZM302.579 379.407L302.531 384.007L302.579 379.407ZM284.661 392.184L284.514 396.782L286.847 396.857L288.284 395.018L284.661 392.184ZM282.028 392.147L282.018 387.547H282.018L282.028 392.147ZM259.097 400.448L255.592 397.469L259.097 400.448ZM254.353 410.058L254.073 414.65L257.942 414.886L258.831 411.112L254.353 410.058ZM253.547 410.014L253.322 414.609L253.322 414.609L253.547 410.014ZM237.035 413.774L233.811 410.492L233.811 410.492L237.035 413.774ZM233.801 417.961L233.359 422.54L236.308 422.824L237.787 420.257L233.801 417.961ZM229.877 417.776L229.931 413.177H229.931L229.877 417.776ZM216.573 422.043L213.195 418.921L216.573 422.043ZM212.967 428.142L212.762 432.738L216.245 432.893L217.336 429.582L212.967 428.142ZM212.235 428.121L212.305 423.521L212.305 423.521L212.235 428.121ZM204.246 430.099L207.138 433.677L207.138 433.677L204.246 430.099ZM202.663 432.092L202.539 436.691L205.591 436.773L206.852 433.994L202.663 432.092ZM202.2 432.103L202.537 436.691L202.537 436.691L202.2 432.103ZM200.047 433.417L196.468 430.528L196.468 430.528L200.047 433.417ZM199.578 434.127L198.317 438.551L201.934 439.582L203.663 436.241L199.578 434.127ZM199.216 434.065L198.941 438.657L198.941 438.657L199.216 434.065ZM197.418 434.838L201.056 437.653L201.056 437.653L197.418 434.838ZM197.1 436.307L192.53 436.836L193.001 440.907H197.1V436.307ZM389.964 436.307V440.907H392.799L394.073 438.375L389.964 436.307ZM390.032 436.171L394.166 434.154L390.039 425.691L385.9 434.149L390.032 436.171ZM390.099 436.307L385.973 438.342L387.238 440.907H390.099V436.307ZM485.618 436.307V440.907H493.934L489.515 433.862L485.618 436.307ZM484.221 435.075L482.044 439.128L482.044 439.128L484.221 435.075ZM481.514 434.694L477.181 436.237L478.794 440.769L483.25 438.954L481.514 434.694ZM480.684 433.223L484.282 430.358L484.282 430.358L480.684 433.223ZM477.573 431.532L472.991 431.127L472.536 436.271L477.698 436.13L477.573 431.532ZM476.651 427.539L472.971 430.299L472.971 430.299L476.651 427.539ZM468.897 425.109L468.821 420.51L468.897 425.109ZM466.795 425.281L462.282 426.173L463.139 430.507L467.504 429.826L466.795 425.281ZM461.954 415.903L458.388 418.809V418.809L461.954 415.903ZM448.778 408.846L448.67 413.445H448.67L448.778 408.846ZM446.633 408.949L442.237 410.305L443.368 413.972L447.178 413.517L446.633 408.949ZM441.332 399.333L437.865 402.355L437.865 402.355L441.332 399.333ZM415.496 390.699L415.127 386.113L415.496 390.699ZM393.282 403.208L396.954 405.979L393.282 403.208ZM386.637 420.336L383.674 423.855L390.619 429.701L391.227 420.644L386.637 420.336ZM379.711 417.583L379.616 422.182H379.616L379.711 417.583ZM378.736 417.61L374.413 419.181L375.603 422.457L379.08 422.197L378.736 417.61ZM364.526 405.676L360.122 407.005L360.916 409.636L363.609 410.184L364.526 405.676ZM335.111 383.508C342.181 383.96 348.415 388.563 353.591 395.174L360.835 389.502C354.938 381.971 346.552 375.021 335.698 374.327L335.111 383.508ZM317.541 388.908C322.426 385.051 328.732 383.1 335.111 383.508L335.698 374.327C327.1 373.777 318.545 376.394 311.84 381.687L317.541 388.908ZM302.531 384.007C305.632 384.039 308.483 385.589 311.435 388.547L317.947 382.048C314.12 378.214 309.099 374.875 302.627 374.807L302.531 384.007ZM288.284 395.018C290.79 391.815 293.042 388.999 295.502 386.943C297.875 384.961 300.101 383.982 302.531 384.007L302.627 374.807C297.306 374.752 293.026 377.025 289.604 379.883C286.27 382.668 283.439 386.281 281.038 389.351L288.284 395.018ZM282.037 396.747C282.865 396.745 283.692 396.756 284.514 396.782L284.808 387.587C283.868 387.557 282.937 387.545 282.018 387.547L282.037 396.747ZM262.603 403.427C266.79 398.499 273.855 396.764 282.037 396.747L282.018 387.547C273.096 387.565 262.481 389.363 255.592 397.469L262.603 403.427ZM258.831 411.112C259.511 408.222 260.738 405.621 262.603 403.427L255.592 397.469C252.661 400.918 250.844 404.891 249.876 409.004L258.831 411.112ZM253.322 414.609C253.574 414.621 253.824 414.635 254.073 414.65L254.633 405.467C254.345 405.449 254.058 405.434 253.773 405.42L253.322 414.609ZM240.258 417.055C241.487 415.848 243.13 415.125 245.38 414.766C247.707 414.395 250.332 414.462 253.322 414.609L253.773 405.42C250.83 405.275 247.318 405.141 243.93 405.681C240.466 406.234 236.82 407.537 233.811 410.492L240.258 417.055ZM237.787 420.257C238.463 419.084 239.292 418.005 240.258 417.055L233.811 410.492C232.233 412.042 230.896 413.789 229.815 415.665L237.787 420.257ZM229.824 422.376C231.055 422.39 232.235 422.431 233.359 422.54L234.243 413.382C232.748 413.238 231.275 413.192 229.931 413.177L229.824 422.376ZM219.952 425.165C221.854 423.106 225.128 422.322 229.824 422.376L229.931 413.177C224.827 413.118 217.943 413.782 213.195 418.921L219.952 425.165ZM217.336 429.582C217.865 427.975 218.771 426.443 219.952 425.165L213.195 418.921C211.141 421.143 209.548 423.817 208.598 426.703L217.336 429.582ZM212.164 432.72C212.365 432.723 212.564 432.729 212.762 432.738L213.172 423.547C212.881 423.534 212.592 423.525 212.305 423.521L212.164 432.72ZM207.138 433.677C207.735 433.194 209.387 432.677 212.164 432.72L212.305 423.521C209.096 423.472 204.601 423.898 201.355 426.521L207.138 433.677ZM206.852 433.994C206.862 433.973 206.92 433.853 207.138 433.677L201.355 426.521C200.115 427.523 199.123 428.762 198.475 430.191L206.852 433.994ZM202.537 436.691C202.54 436.691 202.542 436.691 202.543 436.691C202.544 436.691 202.543 436.691 202.539 436.691L202.787 427.494C202.471 427.486 202.162 427.494 201.862 427.516L202.537 436.691ZM203.626 436.306C203.695 436.221 203.668 436.278 203.517 436.378C203.343 436.491 203.004 436.657 202.537 436.691L201.863 427.516C199.142 427.716 197.374 429.404 196.468 430.528L203.626 436.306ZM203.663 436.241C203.647 436.274 203.634 436.295 203.627 436.304C203.621 436.313 203.62 436.314 203.626 436.306L196.468 430.528C196.121 430.957 195.783 431.452 195.493 432.013L203.663 436.241ZM198.941 438.657C198.72 438.644 198.51 438.606 198.317 438.551L200.84 429.703C200.413 429.582 199.962 429.501 199.491 429.473L198.941 438.657ZM201.056 437.653C200.426 438.468 199.567 438.694 198.941 438.657L199.491 429.473C197.495 429.354 195.251 430.123 193.781 432.022L201.056 437.653ZM201.669 435.778C201.675 435.826 201.779 436.719 201.056 437.653L193.781 432.022C192.413 433.79 192.403 435.739 192.53 436.836L201.669 435.778ZM197.1 440.907H389.964V431.707H197.1V440.907ZM385.9 434.149C385.885 434.179 385.87 434.209 385.855 434.239L394.073 438.375C394.104 438.314 394.134 438.254 394.164 438.193L385.9 434.149ZM394.224 434.272C394.204 434.232 394.185 434.193 394.166 434.154L385.897 438.187C385.923 438.24 385.948 438.291 385.973 438.342L394.224 434.272ZM390.099 440.907H485.618V431.707H390.099V440.907ZM482.044 439.128C482.077 439.145 482.059 439.14 482.006 439.095C481.953 439.049 481.84 438.94 481.721 438.752L489.515 433.862C488.636 432.463 487.417 431.57 486.397 431.022L482.044 439.128ZM483.25 438.954C482.708 439.175 482.253 439.14 482.06 439.105C481.897 439.075 481.886 439.043 482.044 439.128L486.397 431.022C485.204 430.382 482.622 429.275 479.778 430.434L483.25 438.954ZM477.085 436.088C477.121 436.134 477.146 436.172 477.162 436.201C477.178 436.229 477.182 436.242 477.181 436.237L485.848 433.151C485.471 432.094 484.917 431.156 484.282 430.358L477.085 436.088ZM477.698 436.13C477.313 436.141 477.064 436.021 476.993 435.98C476.937 435.948 476.987 435.966 477.085 436.088L484.282 430.358C483.029 428.784 480.688 426.846 477.448 426.934L477.698 436.13ZM472.971 430.299C472.972 430.3 472.971 430.299 472.969 430.295C472.966 430.291 472.965 430.288 472.965 430.287C472.963 430.284 472.971 430.301 472.981 430.351C473.004 430.462 473.029 430.698 472.991 431.127L482.155 431.937C482.333 429.92 482.163 427.221 480.331 424.778L472.971 430.299ZM468.974 429.708C470.332 429.686 471.355 429.739 472.128 429.924C472.841 430.096 472.963 430.288 472.971 430.299L480.331 424.778C478.629 422.51 476.298 421.464 474.275 420.978C472.31 420.507 470.312 420.485 468.821 420.51L468.974 429.708ZM467.504 429.826C467.952 429.756 468.443 429.717 468.974 429.708L468.821 420.51C467.939 420.524 467.019 420.591 466.086 420.736L467.504 429.826ZM458.388 418.809C460.396 421.273 461.818 423.825 462.282 426.173L471.308 424.389C470.436 419.979 468.014 416.058 465.52 412.997L458.388 418.809ZM448.67 413.445C452.226 413.528 455.686 415.492 458.388 418.809L465.52 412.997C461.6 408.186 455.81 404.41 448.885 404.248L448.67 413.445ZM447.178 413.517C447.669 413.458 448.166 413.433 448.67 413.445L448.885 404.248C447.939 404.225 447.005 404.272 446.087 404.382L447.178 413.517ZM437.865 402.355C439.863 404.648 441.329 407.362 442.237 410.305L451.028 407.593C449.768 403.508 447.701 399.639 444.8 396.31L437.865 402.355ZM415.866 395.284C424.631 394.577 432.928 396.692 437.865 402.355L444.8 396.31C437.182 387.571 425.406 385.285 415.127 386.113L415.866 395.284ZM396.954 405.979C401.612 399.806 408.365 395.889 415.866 395.284L415.127 386.113C404.804 386.946 395.724 392.336 389.611 400.437L396.954 405.979ZM391.227 420.644C391.571 415.512 393.61 410.411 396.954 405.979L389.611 400.437C385.329 406.111 382.526 412.89 382.047 420.028L391.227 420.644ZM379.616 422.182C380.979 422.211 382.38 422.765 383.674 423.855L389.599 416.817C386.985 414.615 383.62 413.064 379.807 412.984L379.616 422.182ZM379.08 422.197C379.257 422.183 379.436 422.179 379.616 422.182L379.807 412.984C379.332 412.974 378.86 412.987 378.393 413.022L379.08 422.197ZM363.609 410.184C368.621 411.203 372.75 414.604 374.413 419.181L383.06 416.039C380.212 408.202 373.324 402.771 365.443 401.169L363.609 410.184ZM353.591 395.174C356.553 398.958 358.901 402.958 360.122 407.005L368.93 404.348C367.272 398.853 364.23 393.838 360.835 389.502L353.591 395.174Z" fill="#FFC978"/>
<path fill-rule="evenodd" clip-rule="evenodd" d="M-325.277 572.326C-306.115 547.85 -280.81 527.855 -249.79 525.872C-223.868 524.215 -198.15 532.12 -178.091 547.955C-166.36 536.199 -152.736 527.739 -136.167 527.566C-109.336 527.286 -91.1283 550.079 -74.1454 571.793C-71.0954 571.696 -68.0518 571.657 -65.0298 571.663C-35.4268 571.724 -4.82898 577.839 14.341 600.397C22.6398 610.162 27.9086 621.539 30.7625 633.661C31.6913 633.604 32.6203 633.553 33.5488 633.508C54.0817 632.499 76.0395 632.115 90.7055 646.521C95.1103 650.848 98.8574 655.738 101.897 661.015C106.431 660.577 111.025 660.428 115.482 660.376C132.44 660.18 150.022 662.688 161.532 675.144C167.129 681.202 171.454 688.482 174.015 696.256C174.859 696.219 175.704 696.194 176.548 696.181C186.908 696.022 197.547 697.654 204.199 703.03C206.721 705.068 208.538 707.419 209.677 709.929C210.215 709.914 210.752 709.928 211.282 709.967C211.991 710.019 212.67 710.164 213.317 710.385C215.861 709.274 218.633 708.751 221.189 709.789C221.837 707.97 222.832 706.247 224.063 704.7C226.736 701.342 230.558 698.73 234.832 698.848C234.391 693.858 234.983 689.079 238.024 685.026C243.943 677.136 255 676.451 264.862 676.616C267.305 676.656 269.748 676.839 272.136 677.211C274.447 665.514 281.101 654.311 288.892 644.749C300.353 630.682 316.362 620.748 334.501 620.323C337.012 620.265 339.491 620.388 341.93 620.679C345.682 608.516 351.797 597.122 360.276 587.395C382.003 562.468 416.743 554.851 449.704 557.508C480.55 559.996 507.953 576.105 526.594 600.807C545.36 625.676 554.384 656.751 547.527 687.142C545.19 697.504 541.572 707.738 536.693 717.204H-441.619C-442.207 715.368 -442.697 713.501 -443.088 711.624C-445.652 699.344 -442.093 686.856 -434.444 676.912C-426.809 666.986 -415.674 659.967 -403.154 659.707C-402.019 659.683 -400.893 659.715 -399.776 659.798C-391.971 638.317 -372.904 623.033 -350.59 618.495C-345.608 601.98 -336.279 586.379 -325.277 572.326Z" fill="#FFE8C5"/>
<path d="M-249.79 525.872L-249.496 530.463L-249.79 525.872ZM-325.277 572.326L-328.899 569.49V569.49L-325.277 572.326ZM-178.091 547.955L-174.835 551.205L-177.728 554.103L-180.942 551.566L-178.091 547.955ZM-136.167 527.566L-136.215 522.966L-136.167 527.566ZM-74.1454 571.793L-73.9984 576.391L-76.3311 576.465L-77.7689 574.627L-74.1454 571.793ZM-65.0298 571.663L-65.0204 567.063L-65.0298 571.663ZM14.341 600.397L10.8358 603.376L14.341 600.397ZM30.7625 633.661L31.0426 638.252L27.1733 638.488L26.2849 634.715L30.7625 633.661ZM33.5488 633.508L33.3231 628.913L33.5488 633.508ZM90.7055 646.521L93.929 643.239L93.929 643.239L90.7055 646.521ZM101.897 661.015L102.34 665.594L99.3906 665.879L97.9116 663.311L101.897 661.015ZM115.482 660.376L115.428 655.777H115.428L115.482 660.376ZM161.532 675.144L158.153 678.266L161.532 675.144ZM174.015 696.256L174.22 700.852L170.737 701.007L169.646 697.696L174.015 696.256ZM176.548 696.181L176.477 691.582H176.477L176.548 696.181ZM204.199 703.03L207.09 699.452H207.09L204.199 703.03ZM209.677 709.929L209.801 714.527L206.75 714.609L205.489 711.83L209.677 709.929ZM211.282 709.967L210.945 714.555L211.282 709.967ZM213.317 710.385L215.159 714.6L213.521 715.316L211.829 714.738L213.317 710.385ZM221.189 709.789L225.522 711.332L223.91 715.858L219.458 714.051L221.189 709.789ZM224.063 704.7L227.662 707.565L227.662 707.565L224.063 704.7ZM234.832 698.848L239.414 698.443L239.869 703.587L234.706 703.446L234.832 698.848ZM238.024 685.026L234.344 682.266L238.024 685.026ZM264.862 676.616L264.786 681.215L264.862 676.616ZM272.136 677.211L276.649 678.103L275.792 682.437L271.428 681.757L272.136 677.211ZM288.892 644.749L292.458 647.654L288.892 644.749ZM334.501 620.323L334.609 624.922L334.501 620.323ZM341.93 620.679L346.326 622.035L345.195 625.702L341.384 625.247L341.93 620.679ZM360.276 587.395L356.808 584.373H356.808L360.276 587.395ZM449.704 557.508L449.334 562.094L449.704 557.508ZM526.594 600.807L522.922 603.578L526.594 600.807ZM547.527 687.142L543.04 686.13L547.527 687.142ZM536.693 717.204L540.781 719.311L539.497 721.804H536.693V717.204ZM-441.619 717.204V721.804H-444.975L-445.999 718.608L-441.619 717.204ZM-443.088 711.624L-447.591 712.564L-443.088 711.624ZM-434.444 676.912L-430.798 679.716V679.716L-434.444 676.912ZM-403.154 659.707L-403.249 655.108H-403.249L-403.154 659.707ZM-399.776 659.798L-395.453 661.369L-396.644 664.646L-400.12 664.385L-399.776 659.798ZM-350.59 618.495L-346.186 619.824L-346.98 622.455L-349.673 623.003L-350.59 618.495ZM-249.496 530.463C-278.625 532.325 -302.853 551.146 -321.655 575.161L-328.899 569.49C-309.376 544.554 -282.996 523.386 -250.083 521.281L-249.496 530.463ZM-180.942 551.566C-200.091 536.448 -224.684 528.876 -249.496 530.463L-250.083 521.281C-223.052 519.553 -196.209 527.791 -175.241 544.345L-180.942 551.566ZM-136.119 532.166C-151.002 532.321 -163.541 539.887 -174.835 551.205L-181.347 544.706C-169.179 532.512 -154.469 523.157 -136.215 522.966L-136.119 532.166ZM-77.7689 574.627C-86.3124 563.703 -94.8204 552.975 -104.412 544.962C-113.917 537.022 -124.149 532.041 -136.119 532.166L-136.215 522.966C-121.354 522.811 -109.067 529.086 -98.5142 537.901C-88.0488 546.644 -78.9614 558.169 -70.522 568.959L-77.7689 574.627ZM-65.0392 576.263C-68.016 576.257 -71.007 576.295 -73.9984 576.391L-74.2925 567.195C-71.1838 567.096 -68.0875 567.057 -65.0204 567.063L-65.0392 576.263ZM10.8358 603.376C-6.9837 582.407 -35.8063 576.323 -65.0392 576.263L-65.0204 567.063C-35.0473 567.124 -2.67432 573.271 17.8462 597.418L10.8358 603.376ZM26.2849 634.715C23.575 623.204 18.6013 612.514 10.8358 603.376L17.8462 597.418C26.6784 607.811 32.2423 619.873 35.2401 632.607L26.2849 634.715ZM33.7744 638.102C32.8624 638.147 31.9517 638.197 31.0426 638.252L30.4824 629.069C31.4309 629.011 32.3781 628.96 33.3231 628.913L33.7744 638.102ZM87.4821 649.803C81.039 643.474 72.8844 640.258 63.6021 638.776C54.2434 637.283 44.0642 637.597 33.7744 638.102L33.3231 628.913C43.5662 628.41 54.6324 628.028 65.0524 629.691C75.5487 631.367 85.706 635.162 93.929 643.239L87.4821 649.803ZM97.9116 663.311C95.0739 658.386 91.5808 653.829 87.4821 649.803L93.929 643.239C98.6397 647.867 102.641 653.091 105.883 658.719L97.9116 663.311ZM115.535 664.976C111.135 665.027 106.687 665.174 102.34 665.594L101.455 656.437C106.175 655.981 110.915 655.829 115.428 655.777L115.535 664.976ZM158.153 678.266C148.067 667.35 132.29 664.782 115.535 664.976L115.428 655.777C132.591 655.578 151.977 658.026 164.91 672.022L158.153 678.266ZM169.646 697.696C167.295 690.561 163.314 683.851 158.153 678.266L164.91 672.022C170.944 678.552 175.612 686.403 178.384 694.817L169.646 697.696ZM176.619 700.78C175.818 700.793 175.017 700.816 174.22 700.852L173.81 691.661C174.701 691.621 175.591 691.595 176.477 691.582L176.619 700.78ZM201.307 706.607C195.98 702.302 186.763 700.625 176.619 700.78L176.477 691.582C187.053 691.419 199.115 693.006 207.09 699.452L201.307 706.607ZM205.489 711.83C204.669 710.025 203.319 708.233 201.307 706.607L207.09 699.452C210.123 701.903 212.407 704.814 213.866 708.027L205.489 711.83ZM210.945 714.555C210.561 714.526 210.178 714.517 209.801 714.527L209.554 705.33C210.252 705.311 210.944 705.33 211.619 705.379L210.945 714.555ZM211.829 714.738C211.535 714.637 211.243 714.576 210.945 714.555L211.619 705.379C212.74 705.462 213.805 705.69 214.806 706.033L211.829 714.738ZM219.458 714.051C218.554 713.684 217.186 713.715 215.159 714.6L211.475 706.17C214.536 704.833 218.713 703.818 222.92 705.527L219.458 714.051ZM227.662 707.565C226.709 708.762 225.981 710.044 225.522 711.332L216.856 708.245C217.693 705.895 218.954 703.733 220.464 701.835L227.662 707.565ZM234.706 703.446C232.438 703.384 229.854 704.812 227.662 707.565L220.464 701.835C223.619 697.873 228.678 694.077 234.958 694.249L234.706 703.446ZM241.703 687.787C239.617 690.568 239.024 694.028 239.414 698.443L230.25 699.252C229.758 693.687 230.35 687.59 234.344 682.266L241.703 687.787ZM264.786 681.215C259.921 681.134 255.179 681.28 251.038 682.274C246.956 683.253 243.816 684.971 241.703 687.787L234.344 682.266C238.15 677.192 243.499 674.622 248.891 673.328C254.224 672.048 259.941 671.933 264.939 672.016L264.786 681.215ZM271.428 681.757C269.282 681.422 267.053 681.253 264.786 681.215L264.939 672.016C267.557 672.06 270.214 672.256 272.844 672.666L271.428 681.757ZM292.458 647.654C284.91 656.918 278.757 667.437 276.649 678.103L267.623 676.32C270.138 663.591 277.292 651.703 285.326 641.843L292.458 647.654ZM334.609 624.922C318.154 625.308 303.311 634.335 292.458 647.654L285.326 641.843C297.396 627.03 314.57 616.189 334.394 615.725L334.609 624.922ZM341.384 625.247C339.159 624.981 336.898 624.868 334.609 624.922L334.394 615.725C337.126 615.661 339.823 615.795 342.476 616.112L341.384 625.247ZM363.743 590.418C355.716 599.627 349.902 610.443 346.326 622.035L337.535 619.323C341.462 606.589 347.878 594.618 356.808 584.373L363.743 590.418ZM449.334 562.094C417.131 559.497 384.13 567.028 363.743 590.418L356.808 584.373C379.876 557.907 416.356 550.204 450.074 552.923L449.334 562.094ZM522.922 603.578C505.009 579.84 478.77 564.467 449.334 562.094L450.074 552.923C482.331 555.525 510.897 572.369 530.266 598.036L522.922 603.578ZM543.04 686.13C549.545 657.296 541.033 627.577 522.922 603.578L530.266 598.036C549.688 623.774 559.222 656.206 552.014 688.154L543.04 686.13ZM532.604 715.096C537.292 706.002 540.782 696.139 543.04 686.13L552.014 688.154C549.597 698.869 545.852 709.474 540.781 719.311L532.604 715.096ZM536.693 721.804H-441.619V712.604H536.693V721.804ZM-438.585 710.685C-438.226 712.409 -437.776 714.121 -437.238 715.8L-445.999 718.608C-446.638 716.615 -447.168 714.593 -447.591 712.564L-438.585 710.685ZM-430.798 679.716C-437.748 688.751 -440.837 699.897 -438.585 710.685L-447.591 712.564C-450.466 698.791 -446.439 684.96 -438.091 674.107L-430.798 679.716ZM-403.058 664.306C-413.857 664.53 -423.792 670.607 -430.798 679.716L-438.091 674.107C-429.827 663.364 -417.491 655.404 -403.249 655.108L-403.058 664.306ZM-400.12 664.385C-401.092 664.313 -402.071 664.285 -403.058 664.306L-403.249 655.108C-401.967 655.081 -400.694 655.117 -399.433 655.211L-400.12 664.385ZM-349.673 623.003C-370.553 627.249 -388.239 641.518 -395.453 661.369L-404.1 658.227C-395.702 635.116 -375.256 618.817 -351.507 613.987L-349.673 623.003ZM-321.655 575.161C-332.441 588.939 -341.422 604.033 -346.186 619.824L-354.994 617.166C-349.793 599.928 -340.117 583.819 -328.899 569.49L-321.655 575.161Z" fill="#FFC978"/>
<path fill-rule="evenodd" clip-rule="evenodd" d="M1214.35 382.281C1224.22 369.671 1237.26 359.369 1253.24 358.347C1266.6 357.493 1279.85 361.566 1290.18 369.725C1296.23 363.668 1303.25 359.309 1311.78 359.22C1325.61 359.076 1334.99 370.819 1343.74 382.007C1345.31 381.957 1346.88 381.937 1348.44 381.94C1363.69 381.971 1379.45 385.122 1389.33 396.745C1393.61 401.776 1396.32 407.638 1397.79 413.883C1398.27 413.854 1398.75 413.828 1399.23 413.804C1409.81 413.285 1421.12 413.087 1428.68 420.509C1430.95 422.738 1432.88 425.258 1434.44 427.977C1436.78 427.752 1439.14 427.675 1441.44 427.648C1450.18 427.547 1459.24 428.839 1465.17 435.257C1468.05 438.378 1470.28 442.129 1471.6 446.135C1472.03 446.115 1472.47 446.102 1472.9 446.096C1478.24 446.014 1483.72 446.855 1487.15 449.624C1488.45 450.674 1489.39 451.886 1489.97 453.179C1490.25 453.171 1490.53 453.178 1490.8 453.199C1491.17 453.225 1491.51 453.3 1491.85 453.414C1493.16 452.841 1494.59 452.572 1495.9 453.107C1496.24 452.169 1496.75 451.282 1497.39 450.485C1498.76 448.755 1500.73 447.409 1502.93 447.469C1502.71 444.898 1503.01 442.436 1504.58 440.348C1507.63 436.283 1513.33 435.93 1518.41 436.015C1519.67 436.036 1520.92 436.13 1522.16 436.322C1523.35 430.295 1526.77 424.523 1530.79 419.596C1536.69 412.349 1544.94 407.231 1554.29 407.012C1555.58 406.981 1556.86 407.045 1558.11 407.195C1560.05 400.928 1563.2 395.058 1567.57 390.046C1578.76 377.202 1596.66 373.278 1613.64 374.647C1629.54 375.929 1643.65 384.229 1653.26 396.956C1662.93 409.769 1667.58 425.78 1664.04 441.438C1662.84 446.777 1660.98 452.05 1658.46 456.927H1154.41C1154.1 455.981 1153.85 455.019 1153.65 454.052C1152.33 447.725 1154.16 441.291 1158.1 436.167C1162.04 431.053 1167.77 427.437 1174.22 427.303C1174.81 427.291 1175.39 427.307 1175.97 427.35C1179.99 416.283 1189.81 408.408 1201.31 406.07C1203.87 397.561 1208.68 389.522 1214.35 382.281Z" fill="#FFE8C5"/>
<path d="M1253.24 358.347L1253.54 362.938L1253.24 358.347ZM1214.35 382.281L1217.97 385.117V385.117L1214.35 382.281ZM1290.18 369.725L1293.44 372.974L1290.55 375.873L1287.33 373.336L1290.18 369.725ZM1311.78 359.22L1311.74 354.62L1311.78 359.22ZM1343.74 382.007L1343.89 386.605L1341.55 386.679L1340.12 384.841L1343.74 382.007ZM1348.44 381.94L1348.43 386.54L1348.44 381.94ZM1389.33 396.745L1392.84 393.766L1389.33 396.745ZM1397.79 413.883L1398.07 418.475L1394.2 418.711L1393.31 414.937L1397.79 413.883ZM1399.23 413.804L1399 409.21L1399.23 413.804ZM1428.68 420.509L1425.45 423.791L1425.45 423.791L1428.68 420.509ZM1434.44 427.977L1434.88 432.556L1431.94 432.841L1430.46 430.273L1434.44 427.977ZM1441.44 427.648L1441.39 423.048H1441.39L1441.44 427.648ZM1465.17 435.257L1461.79 438.379V438.379L1465.17 435.257ZM1471.6 446.135L1471.8 450.73L1468.32 450.885L1467.23 447.574L1471.6 446.135ZM1472.9 446.096L1472.83 441.496H1472.83L1472.9 446.096ZM1487.15 449.624L1484.26 453.202V453.202L1487.15 449.624ZM1489.97 453.179L1490.1 457.777L1487.05 457.859L1485.79 455.08L1489.97 453.179ZM1490.8 453.199L1491.14 448.611L1491.14 448.611L1490.8 453.199ZM1491.85 453.414L1493.69 457.629L1492.05 458.345L1490.36 457.767L1491.85 453.414ZM1495.9 453.107L1500.24 454.65L1498.63 459.177L1494.17 457.368L1495.9 453.107ZM1497.39 450.485L1500.98 453.35L1497.39 450.485ZM1502.93 447.469L1507.52 447.064L1507.97 452.209L1502.81 452.068L1502.93 447.469ZM1504.58 440.348L1508.26 443.109L1508.26 443.109L1504.58 440.348ZM1518.41 436.015L1518.48 431.416H1518.48L1518.41 436.015ZM1522.16 436.322L1526.67 437.214L1525.81 441.548L1521.45 440.867L1522.16 436.322ZM1530.79 419.596L1527.22 416.691V416.691L1530.79 419.596ZM1554.29 407.012L1554.18 402.413L1554.29 407.012ZM1558.11 407.195L1562.51 408.551L1561.38 412.217L1557.57 411.762L1558.11 407.195ZM1567.57 390.046L1564.1 387.023L1567.57 390.046ZM1613.64 374.647L1613.27 379.232L1613.64 374.647ZM1653.26 396.956L1649.59 399.727L1653.26 396.956ZM1664.04 441.438L1659.56 440.426L1664.04 441.438ZM1658.46 456.927L1662.55 459.034L1661.27 461.527H1658.46V456.927ZM1154.41 456.927V461.527H1151.05L1150.03 458.331L1154.41 456.927ZM1153.65 454.052L1149.15 454.992V454.992L1153.65 454.052ZM1158.1 436.167L1161.75 438.972V438.972L1158.1 436.167ZM1174.22 427.303L1174.32 431.902H1174.32L1174.22 427.303ZM1175.97 427.35L1180.29 428.921L1179.1 432.198L1175.62 431.937L1175.97 427.35ZM1201.31 406.07L1205.71 407.398L1204.92 410.029L1202.22 410.577L1201.31 406.07ZM1253.54 362.938C1239.44 363.839 1227.48 372.967 1217.97 385.117L1210.73 379.446C1220.96 366.375 1235.07 354.899 1252.95 353.757L1253.54 362.938ZM1287.33 373.336C1277.91 365.895 1265.78 362.155 1253.54 362.938L1252.95 353.757C1267.41 352.832 1281.79 357.237 1293.03 366.115L1287.33 373.336ZM1311.83 363.82C1304.98 363.891 1299.05 367.356 1293.44 372.974L1286.93 366.476C1293.41 359.981 1301.51 354.727 1311.74 354.62L1311.83 363.82ZM1340.12 384.841C1335.69 379.18 1331.45 373.846 1326.72 369.894C1322.07 366.016 1317.3 363.763 1311.83 363.82L1311.74 354.62C1320.09 354.533 1326.92 358.08 1332.61 362.834C1338.22 367.515 1343.04 373.646 1347.36 379.173L1340.12 384.841ZM1348.43 386.54C1346.92 386.537 1345.4 386.556 1343.89 386.605L1343.59 377.409C1345.22 377.357 1346.84 377.337 1348.45 377.34L1348.43 386.54ZM1385.83 399.723C1377.3 389.69 1363.31 386.57 1348.43 386.54L1348.45 377.34C1364.07 377.372 1381.61 380.554 1392.84 393.766L1385.83 399.723ZM1393.31 414.937C1391.99 409.303 1389.57 404.127 1385.83 399.723L1392.84 393.766C1397.64 399.425 1400.65 405.972 1402.27 412.829L1393.31 414.937ZM1399.45 418.399C1398.99 418.422 1398.53 418.447 1398.07 418.475L1397.51 409.292C1398.01 409.261 1398.51 409.234 1399 409.21L1399.45 418.399ZM1425.45 423.791C1422.56 420.954 1418.85 419.438 1414.36 418.721C1409.8 417.992 1404.77 418.138 1399.45 418.399L1399 409.21C1404.27 408.951 1410.18 408.738 1415.81 409.636C1421.51 410.546 1427.23 412.642 1431.9 417.228L1425.45 423.791ZM1430.46 430.273C1429.09 427.906 1427.42 425.72 1425.45 423.791L1431.9 417.228C1434.47 419.757 1436.66 422.611 1438.43 425.681L1430.46 430.273ZM1441.49 432.248C1439.25 432.274 1437.03 432.348 1434.88 432.556L1434 423.398C1436.52 423.155 1439.03 423.076 1441.39 423.048L1441.49 432.248ZM1461.79 438.379C1457.28 433.501 1450.03 432.149 1441.49 432.248L1441.39 423.048C1450.33 422.945 1461.19 424.177 1468.55 432.135L1461.79 438.379ZM1467.23 447.574C1466.12 444.208 1464.24 441.028 1461.79 438.379L1468.55 432.135C1471.87 435.728 1474.44 440.05 1475.97 444.695L1467.23 447.574ZM1472.98 450.695C1472.58 450.701 1472.19 450.713 1471.8 450.73L1471.39 441.539C1471.88 441.518 1472.36 441.504 1472.83 441.496L1472.98 450.695ZM1484.26 453.202C1482.16 451.503 1478.1 450.617 1472.98 450.695L1472.83 441.496C1478.39 441.411 1485.29 442.207 1490.04 446.047L1484.26 453.202ZM1485.79 455.08C1485.52 454.492 1485.05 453.839 1484.26 453.202L1490.04 446.047C1491.85 447.51 1493.26 449.28 1494.16 451.277L1485.79 455.08ZM1490.46 457.786C1490.34 457.777 1490.21 457.774 1490.1 457.777L1489.85 448.58C1490.29 448.569 1490.72 448.58 1491.14 448.611L1490.46 457.786ZM1490.36 457.767C1490.37 457.77 1490.38 457.774 1490.4 457.778C1490.42 457.782 1490.44 457.785 1490.46 457.786L1491.14 448.611C1491.91 448.668 1492.65 448.826 1493.34 449.061L1490.36 457.767ZM1494.17 457.368C1494.33 457.432 1494.42 457.413 1494.36 457.42C1494.26 457.429 1494.05 457.474 1493.69 457.629L1490.01 449.199C1491.83 448.4 1494.67 447.639 1497.64 448.845L1494.17 457.368ZM1500.98 453.35C1500.63 453.796 1500.38 454.244 1500.24 454.65L1491.57 451.563C1492.09 450.095 1492.87 448.767 1493.79 447.62L1500.98 453.35ZM1502.81 452.068C1502.71 452.065 1502.5 452.086 1502.16 452.285C1501.8 452.492 1501.38 452.847 1500.98 453.35L1493.79 447.62C1495.65 445.285 1498.85 442.756 1503.06 442.871L1502.81 452.068ZM1508.26 443.109C1507.65 443.925 1507.34 445.069 1507.52 447.064L1498.35 447.874C1498.07 444.728 1498.38 440.948 1500.9 437.588L1508.26 443.109ZM1518.33 440.614C1515.86 440.573 1513.65 440.656 1511.8 441.098C1510.02 441.527 1508.94 442.205 1508.26 443.109L1500.9 437.588C1503.27 434.427 1506.56 432.895 1509.66 432.152C1512.69 431.424 1515.88 431.372 1518.48 431.416L1518.33 440.614ZM1521.45 440.867C1520.46 440.713 1519.41 440.632 1518.33 440.614L1518.48 431.416C1519.92 431.439 1521.39 431.547 1522.86 431.777L1521.45 440.867ZM1534.35 422.502C1530.58 427.13 1527.65 432.218 1526.67 437.214L1517.64 435.43C1519.04 428.373 1522.96 421.915 1527.22 416.691L1534.35 422.502ZM1554.4 411.61C1546.73 411.79 1539.65 416.002 1534.35 422.502L1527.22 416.691C1533.74 408.696 1543.15 402.671 1554.18 402.413L1554.4 411.61ZM1557.57 411.762C1556.53 411.638 1555.47 411.585 1554.4 411.61L1554.18 402.413C1555.69 402.377 1557.19 402.452 1558.66 402.627L1557.57 411.762ZM1571.03 393.068C1567.12 397.562 1564.27 402.855 1562.51 408.551L1553.72 405.839C1555.83 399.001 1559.28 392.553 1564.1 387.023L1571.03 393.068ZM1613.27 379.232C1597.05 377.924 1580.89 381.763 1571.03 393.068L1564.1 387.023C1576.63 372.642 1596.27 368.632 1614.01 370.062L1613.27 379.232ZM1649.59 399.727C1640.71 387.964 1627.76 380.4 1613.27 379.232L1614.01 370.062C1631.32 371.458 1646.6 380.493 1656.93 394.185L1649.59 399.727ZM1659.56 440.426C1662.74 426.325 1658.6 411.671 1649.59 399.727L1656.93 394.185C1667.25 407.868 1672.41 425.235 1668.53 442.451L1659.56 440.426ZM1654.37 454.819C1656.7 450.314 1658.43 445.412 1659.56 440.426L1668.53 442.451C1667.25 448.142 1665.26 453.786 1662.55 459.034L1654.37 454.819ZM1658.46 461.527H1154.41V452.327H1658.46V461.527ZM1158.15 453.112C1158.32 453.927 1158.53 454.734 1158.79 455.523L1150.03 458.331C1149.67 457.228 1149.38 456.111 1149.15 454.992L1158.15 453.112ZM1161.75 438.972C1158.51 443.186 1157.14 448.278 1158.15 453.112L1149.15 454.992C1147.51 447.172 1149.82 439.395 1154.46 433.363L1161.75 438.972ZM1174.32 431.902C1169.59 432 1165.05 434.675 1161.75 438.972L1154.46 433.363C1159.02 427.432 1165.96 422.874 1174.13 422.704L1174.32 431.902ZM1175.62 431.937C1175.19 431.905 1174.76 431.893 1174.32 431.902L1174.13 422.704C1174.86 422.689 1175.59 422.709 1176.31 422.763L1175.62 431.937ZM1202.22 410.577C1192.16 412.624 1183.72 419.484 1180.29 428.921L1171.64 425.779C1176.26 413.082 1187.46 404.192 1200.39 401.562L1202.22 410.577ZM1217.97 385.117C1212.52 392.082 1208.06 399.613 1205.71 407.398L1196.9 404.741C1199.69 395.508 1204.84 386.963 1210.73 379.446L1217.97 385.117Z" fill="#FFC978"/>
<circle cx="852.585" cy="841.138" r="241.765" fill="#FFD092" stroke="#FFB551" stroke-width="9.2"/>
<path fill-rule="evenodd" clip-rule="evenodd" d="M406.026 686.802C418.717 672.698 435.476 661.176 456.021 660.033C473.188 659.078 490.221 663.633 503.506 672.758C511.275 665.984 520.298 661.11 531.272 661.01C549.041 660.849 561.101 673.982 572.348 686.495C574.369 686.438 576.385 686.416 578.386 686.42C597.993 686.455 618.258 689.979 630.954 702.977C636.45 708.604 639.94 715.16 641.83 722.145C642.446 722.112 643.062 722.083 643.677 722.057C657.276 721.475 671.819 721.254 681.532 729.555C684.45 732.048 686.931 734.867 688.945 737.907C691.947 737.655 694.989 737.569 697.94 737.539C709.172 737.426 720.816 738.871 728.439 746.049C732.146 749.54 735.011 753.735 736.707 758.215C737.265 758.193 737.823 758.179 738.381 758.171C745.243 758.08 752.289 759.02 756.694 762.118C758.365 763.292 759.569 764.647 760.323 766.093C760.68 766.085 761.036 766.093 761.387 766.115C763.409 766.245 765.049 767.363 766.323 768.735C766.736 769.181 767.101 769.654 767.397 770.151C767.664 770.085 767.94 770.043 768.226 770.028C769.797 769.946 771.384 770.487 772.347 771.569C773.086 772.4 773.217 773.454 773.078 774.5H330.939C330.887 774.411 330.837 774.322 330.786 774.232C330.736 774.321 330.686 774.411 330.635 774.5H111.661C112.41 773.46 113.576 772.645 114.864 772.042C116.798 771.139 119.035 770.563 121.064 771.28C121.494 770.232 122.152 769.24 122.968 768.348C124.739 766.413 127.27 764.908 130.101 764.976C129.809 762.1 130.201 759.347 132.215 757.012C136.135 752.465 143.458 752.07 149.99 752.165C151.608 752.189 153.226 752.294 154.807 752.508C156.338 745.768 160.745 739.312 165.905 733.802C173.496 725.697 184.098 719.972 196.112 719.727C197.775 719.694 199.417 719.765 201.033 719.932C203.517 712.924 207.568 706.358 213.183 700.753C227.573 686.389 250.582 682 272.412 683.531C292.842 684.965 310.99 694.247 323.336 708.481C332.077 718.559 337.627 730.406 338.571 742.64C343.051 739.36 348.512 737.261 354.443 737.154C355.195 737.14 355.941 737.158 356.68 737.206C361.85 724.827 374.48 716.019 389.261 713.405C392.561 703.889 398.739 694.899 406.026 686.802Z" fill="#FFE8C5"/>
<path d="M456.021 660.033L455.765 655.441L456.021 660.033ZM406.026 686.802L409.445 689.879L409.445 689.879L406.026 686.802ZM503.506 672.758L506.529 676.225L503.841 678.569L500.902 676.55L503.506 672.758ZM531.272 661.01L531.314 665.61L531.272 661.01ZM572.348 686.495L572.476 691.093L570.35 691.152L568.927 689.57L572.348 686.495ZM578.386 686.42L578.378 691.02L578.386 686.42ZM630.954 702.977L627.663 706.191L630.954 702.977ZM641.83 722.145L642.074 726.738L638.361 726.935L637.39 723.346L641.83 722.145ZM643.677 722.057L643.873 726.652L643.677 722.057ZM681.532 729.555L678.544 733.052L678.544 733.052L681.532 729.555ZM688.945 737.907L689.33 742.491L686.614 742.719L685.109 740.447L688.945 737.907ZM697.94 737.539L697.986 742.139H697.986L697.94 737.539ZM728.439 746.049L725.286 749.398H725.286L728.439 746.049ZM736.707 758.215L736.885 762.811L733.577 762.939L732.405 759.844L736.707 758.215ZM738.381 758.171L738.32 753.572H738.32L738.381 758.171ZM756.694 762.118L754.049 765.881L756.694 762.118ZM760.323 766.093L760.431 770.692L757.569 770.76L756.245 768.221L760.323 766.093ZM761.387 766.115L761.093 770.706H761.093L761.387 766.115ZM766.323 768.735L762.951 771.864H762.951L766.323 768.735ZM767.397 770.151L768.503 774.616L765.19 775.437L763.444 772.503L767.397 770.151ZM768.226 770.028L767.987 765.434L767.987 765.434L768.226 770.028ZM772.347 771.569L775.784 768.512L775.784 768.512L772.347 771.569ZM773.078 774.5L777.638 775.107L777.106 779.1H773.078V774.5ZM330.939 774.5V779.1H328.285L326.957 776.803L330.939 774.5ZM330.786 774.232L326.774 771.982L330.779 764.841L334.795 771.976L330.786 774.232ZM330.635 774.5L334.637 776.769L333.315 779.1H330.635V774.5ZM111.661 774.5V779.1H102.673L107.93 771.809L111.661 774.5ZM114.864 772.042L116.812 776.21L116.812 776.21L114.864 772.042ZM121.064 771.28L125.321 773.024L123.661 777.077L119.531 775.617L121.064 771.28ZM122.968 768.348L126.362 771.454L126.362 771.454L122.968 768.348ZM130.101 764.976L134.678 764.511L135.205 769.699L129.991 769.574L130.101 764.976ZM132.215 757.012L128.731 754.008L128.731 754.008L132.215 757.012ZM149.99 752.165L150.057 747.566L149.99 752.165ZM154.807 752.508L159.293 753.527L158.36 757.632L154.189 757.067L154.807 752.508ZM165.905 733.802L169.262 736.946L165.905 733.802ZM196.112 719.727L196.206 724.326L196.112 719.727ZM201.033 719.932L205.368 721.47L204.158 724.882L200.557 724.508L201.033 719.932ZM213.183 700.753L216.433 704.009L216.433 704.009L213.183 700.753ZM272.412 683.531L272.734 678.943L272.412 683.531ZM323.336 708.481L326.811 705.467V705.467L323.336 708.481ZM338.571 742.64L341.288 746.352L334.621 751.233L333.985 742.994L338.571 742.64ZM354.443 737.154L354.527 741.753V741.753L354.443 737.154ZM356.68 737.206L360.925 738.979L359.659 742.01L356.381 741.797L356.68 737.206ZM389.261 713.405L393.607 714.912L392.722 717.464L390.062 717.935L389.261 713.405ZM456.276 664.626C437.39 665.677 421.68 676.281 409.445 689.879L402.606 683.725C415.753 669.115 433.561 656.676 455.765 655.441L456.276 664.626ZM500.902 676.55C488.516 668.042 472.504 663.724 456.276 664.626L455.765 655.441C473.873 654.433 491.927 659.224 506.11 668.966L500.902 676.55ZM531.314 665.61C521.805 665.696 513.799 669.887 506.529 676.225L500.483 669.291C508.752 662.081 518.792 656.523 531.23 656.41L531.314 665.61ZM568.927 689.57C557.381 676.725 546.676 665.47 531.314 665.61L531.23 656.41C551.407 656.227 564.821 671.239 575.769 683.419L568.927 689.57ZM578.378 691.02C576.416 691.016 574.446 691.038 572.476 691.093L572.22 681.896C574.292 681.839 576.354 681.816 578.395 681.82L578.378 691.02ZM627.663 706.191C616.341 694.6 597.748 691.054 578.378 691.02L578.395 681.82C598.237 681.855 620.174 685.357 634.245 699.763L627.663 706.191ZM637.39 723.346C635.689 717.059 632.569 711.214 627.663 706.191L634.245 699.763C640.332 705.995 644.191 713.26 646.27 720.943L637.39 723.346ZM643.873 726.652C643.272 726.678 642.672 726.707 642.074 726.738L641.586 717.551C642.219 717.518 642.851 717.488 643.481 717.461L643.873 726.652ZM678.544 733.052C674.591 729.675 669.479 727.872 663.429 727.031C657.343 726.186 650.694 726.361 643.873 726.652L643.481 717.461C650.259 717.171 657.681 716.945 664.695 717.919C671.744 718.898 678.76 721.135 684.521 726.058L678.544 733.052ZM685.109 740.447C683.335 737.767 681.139 735.27 678.544 733.052L684.521 726.058C687.76 728.827 690.528 731.967 692.78 735.368L685.109 740.447ZM697.986 742.139C695.085 742.168 692.17 742.253 689.33 742.491L688.56 733.324C691.724 733.058 694.893 732.97 697.894 732.94L697.986 742.139ZM725.286 749.398C719.085 743.559 709.119 742.027 697.986 742.139L697.894 732.94C709.225 732.825 722.548 734.184 731.593 742.7L725.286 749.398ZM732.405 759.844C730.975 756.067 728.525 752.448 725.286 749.398L731.593 742.7C735.767 746.631 739.046 751.402 741.009 756.586L732.405 759.844ZM738.443 762.771C737.922 762.778 737.402 762.791 736.885 762.811L736.529 753.618C737.127 753.595 737.725 753.58 738.32 753.572L738.443 762.771ZM754.049 765.881C750.914 763.676 745.159 762.681 738.443 762.771L738.32 753.572C745.327 753.478 753.665 754.364 759.34 758.355L754.049 765.881ZM756.245 768.221C755.878 767.519 755.209 766.696 754.049 765.881L759.34 758.355C761.521 759.888 763.259 761.776 764.402 763.966L756.245 768.221ZM761.093 770.706C760.87 770.692 760.648 770.687 760.431 770.692L760.215 761.495C760.712 761.483 761.202 761.494 761.681 761.525L761.093 770.706ZM762.951 771.864C762.118 770.967 761.501 770.732 761.093 770.706L761.681 761.525C765.318 761.757 767.98 763.759 769.695 765.607L762.951 771.864ZM763.444 772.503C763.341 772.33 763.182 772.113 762.951 771.864L769.695 765.607C770.29 766.248 770.862 766.979 771.35 767.799L763.444 772.503ZM768.466 774.622C768.472 774.621 768.479 774.621 768.486 774.619C768.493 774.618 768.499 774.617 768.503 774.616L766.291 765.686C766.834 765.552 767.401 765.465 767.987 765.434L768.466 774.622ZM768.91 774.627C769.009 774.738 769.049 774.724 768.938 774.683C768.828 774.643 768.659 774.611 768.466 774.622L767.987 765.434C770.625 765.297 773.695 766.163 775.784 768.512L768.91 774.627ZM768.518 773.893C768.539 773.739 768.512 773.77 768.546 773.927C768.564 774.012 768.6 774.128 768.664 774.26C768.73 774.394 768.815 774.52 768.91 774.627L775.784 768.512C777.755 770.727 777.872 773.348 777.638 775.107L768.518 773.893ZM773.078 779.1H330.939V769.9H773.078V779.1ZM334.795 771.976C334.836 772.049 334.878 772.123 334.921 772.196L326.957 776.803C326.897 776.699 326.837 776.594 326.778 776.488L334.795 771.976ZM326.634 772.231C326.681 772.148 326.728 772.065 326.774 771.982L334.798 776.482C334.745 776.578 334.691 776.673 334.637 776.769L326.634 772.231ZM330.635 779.1H111.661V769.9H330.635V779.1ZM116.812 776.21C115.928 776.623 115.519 777.014 115.392 777.19L107.93 771.809C109.301 769.907 111.223 768.667 112.917 767.875L116.812 776.21ZM119.531 775.617C119.402 775.572 119.138 775.519 118.649 775.597C118.145 775.677 117.524 775.877 116.812 776.21L112.917 767.875C115.206 766.805 118.843 765.616 122.597 766.943L119.531 775.617ZM126.362 771.454C125.853 772.01 125.515 772.552 125.321 773.024L116.807 769.537C117.473 767.913 118.452 766.47 119.574 765.243L126.362 771.454ZM129.991 769.574C128.892 769.548 127.549 770.156 126.362 771.454L119.574 765.243C121.928 762.67 125.648 760.268 130.211 760.377L129.991 769.574ZM135.699 760.016C134.81 761.046 134.458 762.348 134.678 764.511L125.525 765.441C125.16 761.853 125.592 757.648 128.731 754.008L135.699 760.016ZM149.924 756.765C146.714 756.718 143.676 756.805 141.064 757.351C138.457 757.895 136.747 758.8 135.699 760.016L128.731 754.008C131.603 750.677 135.515 749.111 139.183 748.345C142.845 747.58 146.735 747.517 150.057 747.566L149.924 756.765ZM154.189 757.067C152.82 756.881 151.389 756.786 149.924 756.765L150.057 747.566C151.827 747.591 153.631 747.707 155.425 747.95L154.189 757.067ZM169.262 736.946C164.348 742.194 160.563 747.933 159.293 753.527L150.321 751.49C152.113 743.602 157.141 736.43 162.547 730.658L169.262 736.946ZM196.206 724.326C185.639 724.542 176.159 729.582 169.262 736.946L162.547 730.658C170.832 721.811 182.557 715.403 196.018 715.128L196.206 724.326ZM200.557 724.508C199.128 724.359 197.676 724.296 196.206 724.326L196.018 715.128C197.874 715.091 199.706 715.17 201.508 715.357L200.557 724.508ZM216.433 704.009C211.311 709.121 207.628 715.096 205.368 721.47L196.697 718.395C199.407 710.751 203.824 703.595 209.933 697.497L216.433 704.009ZM272.09 688.12C250.84 686.629 229.456 691.009 216.433 704.009L209.933 697.497C225.69 681.769 250.323 677.37 272.734 678.943L272.09 688.12ZM319.861 711.495C308.329 698.199 291.322 689.469 272.09 688.12L272.734 678.943C294.362 680.46 313.652 690.295 326.811 705.467L319.861 711.495ZM333.985 742.994C333.13 731.919 328.082 720.974 319.861 711.495L326.811 705.467C336.072 716.144 342.124 728.893 343.157 742.286L333.985 742.994ZM354.527 741.753C349.648 741.841 345.091 743.568 341.288 746.352L335.854 738.929C341.01 735.153 347.377 732.681 354.36 732.555L354.527 741.753ZM356.381 741.797C355.768 741.757 355.149 741.742 354.527 741.753L354.36 732.555C355.24 732.539 356.114 732.56 356.979 732.616L356.381 741.797ZM390.062 717.935C376.462 720.34 365.362 728.354 360.925 738.979L352.435 735.434C358.338 721.3 372.498 711.698 388.46 708.875L390.062 717.935ZM409.445 689.879C402.388 697.721 396.633 706.186 393.607 714.912L384.915 711.898C388.488 701.592 395.089 692.078 402.606 683.725L409.445 689.879Z" fill="#FFC978"/>
<circle cx="852.584" cy="767.244" r="761.678" stroke="url(#paint6_linear_150_51)" stroke-width="9.2"/>
<defs>
<linearGradient id="paint0_linear_150_51" x1="852.586" y1="18.1924" x2="852.586" y2="1500.04" gradientUnits="userSpaceOnUse">
<stop stop-color="#A95271"/>
<stop offset="0.3" stop-color="#FC9898"/>
<stop offset="0.5" stop-color="#FFB44E"/>
<stop offset="0.7" stop-color="#FC9B6E"/>
</linearGradient>
<linearGradient id="paint1_linear_150_51" x1="857.138" y1="121.934" x2="857.138" y2="1560.34" gradientUnits="userSpaceOnUse">
<stop stop-color="#A95271"/>
<stop offset="0.3" stop-color="#FC9898"/>
<stop offset="0.5" stop-color="#FFB44E"/>
<stop offset="0.7" stop-color="#FC9B6E"/>
</linearGradient>
<linearGradient id="paint2_linear_150_51" x1="849.966" y1="80.6699" x2="849.966" y2="1468.33" gradientUnits="userSpaceOnUse">
<stop stop-color="#A95271"/>
<stop offset="0.3" stop-color="#FC9898"/>
<stop offset="0.5" stop-color="#FFB44E"/>
<stop offset="0.7" stop-color="#FC9B6E"/>
</linearGradient>
<linearGradient id="paint3_linear_150_51" x1="651.206" y1="0" x2="651.206" y2="1302.41" gradientUnits="userSpaceOnUse">
<stop stop-color="#A95271"/>
<stop offset="0.3" stop-color="#FC9898"/>
<stop offset="0.5" stop-color="#FFB44E"/>
<stop offset="0.7" stop-color="#FC9B6E"/>
</linearGradient>
<linearGradient id="paint4_linear_150_51" x1="849.966" y1="43.7341" x2="849.966" y2="1453.82" gradientUnits="userSpaceOnUse">
<stop stop-color="#A95271"/>
<stop offset="0.3" stop-color="#FC9898"/>
<stop offset="0.5" stop-color="#FFB44E"/>
<stop offset="0.7" stop-color="#FC9B6E"/>
</linearGradient>
<linearGradient id="paint5_linear_150_51" x1="857.138" y1="196.742" x2="857.138" y2="1520.2" gradientUnits="userSpaceOnUse">
<stop stop-color="#A95271"/>
<stop offset="0.3" stop-color="#FC9898"/>
<stop offset="0.5" stop-color="#FFB44E"/>
<stop offset="0.7" stop-color="#FC9B6E"/>
</linearGradient>
<linearGradient id="paint6_linear_150_51" x1="852.584" y1="0.965088" x2="852.584" y2="1533.52" gradientUnits="userSpaceOnUse">
<stop stop-color="#A95271"/>
<stop offset="0.3" stop-color="#FC9898"/>
<stop offset="0.5" stop-color="#FFB44E"/>
<stop offset="0.7" stop-color="#FC9B6E"/>
</linearGradient>
</defs>
</svg>
