<svg width="660" height="567" viewBox="0 0 660 567" fill="none" xmlns="http://www.w3.org/2000/svg">
<rect x="55.9362" y="130.153" width="214" height="89" rx="44.5" transform="rotate(-26.5131 55.9362 130.153)" fill="#86AC3B" stroke="#012758" stroke-width="20"/>
<circle cx="310.808" cy="46.3452" r="10" transform="rotate(-6.32362 310.808 46.3452)" fill="#89B03D" stroke="#012758" stroke-width="15"/>
<path d="M283.672 10.5228L167.924 64.6008L205.008 135.95C211.193 134.259 241.433 121.45 312.915 83.7473C354.23 38.9241 312.789 9.97905 283.672 10.5228Z" fill="#8EB540" stroke="#012758" stroke-width="20"/>
<rect x="181.352" y="165.095" width="214" height="89" rx="44.5" transform="rotate(-26.5131 181.352 165.095)" fill="#86AC3B" stroke="#012758" stroke-width="20"/>
<rect x="245.667" y="206.033" width="214" height="184.313" rx="82.2208" transform="rotate(105 245.667 206.033)" fill="#8FB03F" stroke="#012758" stroke-width="20"/>
<rect x="66.3965" y="105.599" width="214" height="89" rx="44.5" transform="rotate(15 66.3965 105.599)" fill="#86AC3B" stroke="#012758" stroke-width="20"/>
<rect x="338.234" y="136.362" width="120.716" height="55.8593" rx="27.9296" transform="rotate(72.8795 338.234 136.362)" fill="#BE8F65" stroke="#012758" stroke-width="20"/>
<rect x="97.3698" y="329.989" width="87.6082" height="38.0111" rx="19.0055" transform="rotate(-75 97.3698 329.989)" fill="#BE8F65" stroke="#012758" stroke-width="20"/>
<rect x="109.091" y="285.902" width="41.9657" height="38.0111" rx="19.0055" transform="rotate(-75 109.091 285.902)" fill="#6ED5A6" stroke="#012758" stroke-width="20"/>
<circle cx="181.613" cy="98.7906" r="37.5" transform="rotate(-6.32362 181.613 98.7906)" fill="#89B03D" stroke="#012758" stroke-width="20"/>
<circle cx="185.322" cy="99.0313" r="10" transform="rotate(-6.32362 185.322 99.0313)" fill="#89B03D" stroke="#012758" stroke-width="15"/>
<circle cx="321.017" cy="175.342" r="7.68134" transform="rotate(-2.12049 321.017 175.342)" fill="#012758"/>
<circle cx="296.532" cy="46.6447" r="7.68134" transform="rotate(-6.32362 296.532 46.6447)" fill="#4E7411"/>
<circle cx="358.254" cy="130.556" r="7.68134" transform="rotate(-2.12049 358.254 130.556)" fill="#4E7411"/>
<circle cx="152.819" cy="180.925" r="7.68134" fill="#4E7411"/>
<circle cx="331.495" cy="209.358" r="7.68134" transform="rotate(-2.12049 331.495 209.358)" fill="#012758"/>
<circle cx="340.06" cy="237.166" r="7.68134" transform="rotate(-2.12049 340.06 237.166)" fill="#012758"/>
<path d="M528.309 496.064C491.869 473.073 477.419 426.799 499.337 392.06C521.256 357.321 569.242 350.441 605.682 373.433C642.122 396.424 656.573 442.698 634.654 477.437C612.736 512.176 564.749 519.056 528.309 496.064Z" fill="#6ED5A6" stroke="#012758" stroke-width="20"/>
<path d="M539.578 384.235C571.74 371.701 609.192 390.742 623.23 426.763" stroke="#FCF6EA" stroke-width="20" stroke-linecap="round"/>
<circle cx="10.7434" cy="10.7434" r="10.7434" transform="matrix(-1 0 0 1 528.563 391.755)" fill="#FCF6EA"/>
<path fill-rule="evenodd" clip-rule="evenodd" d="M500.935 411.499C491.925 438.859 504.406 471.436 532.657 489.26C560.413 506.772 594.467 504.416 615.392 485.446C578.598 477.123 531.106 456.146 500.935 411.499Z" fill="#24A98E"/>
<path d="M559.431 352.395C576.264 398.562 590.931 496.695 514.931 519.895C438.931 543.095 512.931 417.895 559.431 352.395Z" fill="#6ED5A6" stroke="#012758" stroke-width="20"/>
<circle cx="40" cy="40" r="50" transform="matrix(-1 0 0 1 576.608 78.5913)" fill="#FDE7D2" stroke="#062855" stroke-width="20"/>
<circle cx="25.5" cy="25.5" r="25.5" transform="matrix(-1 0 0 1 562.108 93.0913)" fill="#022656"/>
<mask id="path-25-outside-1_1_1317" maskUnits="userSpaceOnUse" x="184.219" y="77.5315" width="443" height="466" fill="black">
<rect fill="white" x="184.219" y="77.5315" width="443" height="466"/>
<path fill-rule="evenodd" clip-rule="evenodd" d="M552.824 357.594C586.002 330.783 607.219 289.76 607.219 243.781C607.219 163.01 541.741 97.5315 460.969 97.5315C406.092 97.5315 358.274 127.756 333.255 172.467C297.561 185.537 264.677 210.014 240.493 244.59C181.77 328.55 196.582 440.268 273.576 494.119C350.57 547.97 460.59 523.562 519.313 439.603C537.196 414.034 548.259 385.892 552.824 357.594Z"/>
</mask>
<path fill-rule="evenodd" clip-rule="evenodd" d="M552.824 357.594C586.002 330.783 607.219 289.76 607.219 243.781C607.219 163.01 541.741 97.5315 460.969 97.5315C406.092 97.5315 358.274 127.756 333.255 172.467C297.561 185.537 264.677 210.014 240.493 244.59C181.77 328.55 196.582 440.268 273.576 494.119C350.57 547.97 460.59 523.562 519.313 439.603C537.196 414.034 548.259 385.892 552.824 357.594Z" fill="#6ED5A6"/>
<path d="M552.824 357.594L533.079 354.409L534.298 346.85L540.254 342.038L552.824 357.594ZM333.255 172.467L350.708 182.234L347.09 188.7L340.132 191.247L333.255 172.467ZM240.493 244.59L256.883 256.053L240.493 244.59ZM273.576 494.119L262.113 510.508L273.576 494.119ZM519.313 439.603L502.924 428.14H502.924L519.313 439.603ZM540.254 342.038C568.935 318.861 587.219 283.464 587.219 243.781H627.219C627.219 296.056 603.069 342.705 565.394 373.15L540.254 342.038ZM587.219 243.781C587.219 174.056 530.695 117.531 460.969 117.531V77.5315C552.787 77.5315 627.219 151.964 627.219 243.781H587.219ZM460.969 117.531C413.623 117.531 372.335 143.585 350.708 182.234L315.802 162.7C344.214 111.927 398.561 77.5315 460.969 77.5315V117.531ZM340.132 191.247C308.275 202.912 278.715 224.839 256.883 256.053L224.104 233.128C250.639 195.189 286.846 168.162 326.378 153.686L340.132 191.247ZM256.883 256.053C203.535 332.327 218.403 431.124 285.039 477.73L262.113 510.508C174.76 449.412 160.005 324.774 224.104 233.128L256.883 256.053ZM285.039 477.73C351.674 524.336 449.577 504.413 502.924 428.14L535.702 451.065C471.603 542.711 349.465 571.604 262.113 510.508L285.039 477.73ZM502.924 428.14C519.069 405.056 528.992 379.747 533.079 354.409L572.569 360.779C567.527 392.038 555.323 423.013 535.702 451.065L502.924 428.14Z" fill="#012758" mask="url(#path-25-outside-1_1_1317)"/>
<path fill-rule="evenodd" clip-rule="evenodd" d="M607.219 243.781C607.219 289.76 586.002 330.783 552.824 357.594C548.259 385.892 537.196 414.034 519.313 439.602C464.821 517.512 366.158 544.143 290.702 504.548L497.641 222.091L597.333 190.815C603.717 207.239 607.219 225.101 607.219 243.781Z" fill="#FFF3E5"/>
<path d="M397.694 126.591C435.398 91.6698 503.279 98.993 536.963 135.36" stroke="#FCF6EA" stroke-width="20" stroke-linecap="round"/>
<line x1="10" y1="-10" x2="17.4591" y2="-10" transform="matrix(-0.744444 0.667685 0.667685 0.744444 353.042 238.844)" stroke="#012758" stroke-width="20" stroke-linecap="round"/>
<line x1="10" y1="-10" x2="18.0179" y2="-10" transform="matrix(-0.764072 0.645131 0.645131 0.764072 314.003 239.876)" stroke="#012758" stroke-width="20" stroke-linecap="round"/>
<line x1="10" y1="-10" x2="22.45" y2="-10" transform="matrix(-0.75115 0.660132 0.660132 0.75115 355.284 193.997)" stroke="#012758" stroke-width="20" stroke-linecap="round"/>
<circle cx="40" cy="40" r="50" transform="matrix(-1 0 0 1 417.633 78.5913)" fill="#FDE7D2" stroke="#062855" stroke-width="20"/>
<circle cx="25.5" cy="25.5" r="25.5" transform="matrix(-1 0 0 1 403.133 93.0913)" fill="#022656"/>
<circle cx="16.0804" cy="16.0804" r="16.0804" transform="matrix(-1 0 0 1 539.16 151.063)" fill="#022656"/>
<circle cx="16.0804" cy="16.0804" r="16.0804" transform="matrix(-1 0 0 1 474.443 151.063)" fill="#022656"/>
<path d="M588.892 190.196C559.558 208.529 481.892 236.396 405.892 201.196" stroke="#012758" stroke-width="20" stroke-linecap="round"/>
<path d="M201.361 496.064C164.921 473.073 150.471 426.799 172.389 392.06C194.308 357.321 242.294 350.441 278.734 373.433C315.174 396.424 329.625 442.698 307.707 477.437C285.788 512.176 237.802 519.056 201.361 496.064Z" fill="#6ED5A6" stroke="#012758" stroke-width="20"/>
<path d="M212.63 384.235C244.792 371.701 282.244 390.742 296.282 426.763" stroke="#FCF6EA" stroke-width="20" stroke-linecap="round"/>
<circle cx="10.7434" cy="10.7434" r="10.7434" transform="matrix(-1 0 0 1 201.616 391.755)" fill="#FCF6EA"/>
<path fill-rule="evenodd" clip-rule="evenodd" d="M173.987 411.499C164.977 438.859 177.458 471.436 205.709 489.26C233.465 506.772 267.519 504.416 288.444 485.446C251.651 477.123 204.158 456.146 173.987 411.499Z" fill="#24A98E"/>
<path d="M389.859 364.564L390.985 366.286L391.34 368.313C395.174 390.223 401.306 423.428 407.237 451.825C410.206 466.042 413.099 478.929 415.609 488.556C416.87 493.39 417.989 497.228 418.929 499.939C419.353 501.163 419.692 502.012 419.935 502.549C424.401 507.09 426.375 512.282 427.334 514.803C427.353 514.856 427.373 514.907 427.392 514.957H437.907L435.836 526.695C435.427 529.012 434.349 532.469 431.206 535.047C427.808 537.834 423.975 538.012 421.465 537.656C419.131 537.324 417.124 536.447 415.826 535.812C414.432 535.13 413.066 534.322 411.964 533.657C411.617 533.447 411.289 533.249 410.98 533.062C409.46 532.142 408.371 531.482 407.435 531.013L406.955 531.293L403.897 531.089C399.72 530.811 399.134 531.069 399.073 531.096L399.07 531.097C399.066 531.099 399.056 531.103 399.037 531.114C399.017 531.124 398.981 531.144 398.927 531.181C398.816 531.254 398.616 531.4 398.313 531.676C397.667 532.264 396.753 533.252 395.396 534.981L393.232 537.734L389.823 538.537C388.767 538.785 387.682 539.062 386.529 539.358L386.193 539.445C385.17 539.708 384.08 539.989 383.034 540.241C380.971 540.738 377.988 541.412 375.24 541.412C373.905 541.412 371.439 541.277 368.928 539.974C365.799 538.35 363.445 535.327 362.882 531.488C362.431 528.408 363.287 525.785 363.908 524.266C364.6 522.575 365.558 520.937 366.576 519.41C366.951 518.848 367.304 518.322 367.637 517.825C368.884 515.964 369.858 514.509 370.687 513.121C371.716 511.397 372.09 510.456 372.221 509.949C372.25 509.839 372.261 509.77 372.266 509.734C372.265 509.732 372.265 509.731 372.265 509.729C372.23 509.612 371.972 508.861 370.667 507.37C366.202 502.266 352.777 483.363 340.546 462.096C334.376 451.37 328.342 439.756 323.821 428.708C319.401 417.905 316.004 406.646 316.004 396.955V396.517L316.042 396.081C317.858 375.373 333.103 362.49 347.786 357.025C355.197 354.266 363.153 353.086 370.351 353.872C377.317 354.633 385.234 357.49 389.859 364.564ZM420.199 503.077C420.2 503.074 420.177 503.03 420.129 502.954C420.175 503.042 420.199 503.08 420.199 503.077ZM406.036 530.435C406.039 530.44 406.103 530.462 406.219 530.484C406.091 530.441 406.033 530.43 406.036 530.435ZM424.996 518.017C424.996 518.017 424.989 518.015 424.976 518.01C424.989 518.015 424.996 518.018 424.996 518.017Z" fill="#6DD4A6" stroke="#012758" stroke-width="20" stroke-linecap="round"/>
<circle cx="23.8279" cy="23.8279" r="18.8279" transform="matrix(-1 0 0 1 316.626 493.278)" fill="#6ED5A6" stroke="#012758" stroke-width="10"/>
<circle cx="23.8279" cy="23.8279" r="18.8279" transform="matrix(-1 0 0 1 283.581 504.869)" fill="#6ED5A6" stroke="#012758" stroke-width="10"/>
<circle cx="23.8279" cy="23.8279" r="18.8279" transform="matrix(-1 0 0 1 245.669 503.367)" fill="#6ED5A6" stroke="#012758" stroke-width="10"/>
<circle cx="23.8279" cy="23.8279" r="18.8279" transform="matrix(-0.989786 -0.142562 -0.142562 0.989786 458.363 507.663)" fill="#6ED5A6" stroke="#012758" stroke-width="10"/>
<circle cx="23.8279" cy="23.8279" r="18.8279" transform="matrix(-0.989786 -0.142562 -0.142562 0.989786 574.594 500.202)" fill="#6ED5A6" stroke="#012758" stroke-width="10"/>
<circle cx="23.8279" cy="23.8279" r="18.8279" transform="matrix(-0.989786 -0.142562 -0.142562 0.989786 421.824 519.123)" fill="#6ED5A6" stroke="#012758" stroke-width="10"/>
<circle cx="23.8279" cy="23.8279" r="18.8279" transform="matrix(-0.989786 -0.142562 -0.142562 0.989786 538.055 511.662)" fill="#6ED5A6" stroke="#012758" stroke-width="10"/>
<circle cx="23.8279" cy="23.8279" r="18.8279" transform="matrix(-0.989786 -0.142562 -0.142562 0.989786 386.693 507.533)" fill="#6ED5A6" stroke="#012758" stroke-width="10"/>
<circle cx="23.8279" cy="23.8279" r="18.8279" transform="matrix(-0.989786 -0.142562 -0.142562 0.989786 502.923 500.072)" fill="#6ED5A6" stroke="#012758" stroke-width="10"/>
<rect x="242.664" y="208.084" width="120.716" height="55.8593" rx="27.9296" transform="rotate(72.8795 242.664 208.084)" fill="#BE8F65" stroke="#012758" stroke-width="20"/>
<circle cx="225.447" cy="247.064" r="7.68134" transform="rotate(-2.12049 225.447 247.064)" fill="#012758"/>
<circle cx="235.925" cy="281.08" r="7.68134" transform="rotate(-2.12049 235.925 281.08)" fill="#012758"/>
<circle cx="244.491" cy="308.887" r="7.68134" transform="rotate(-2.12049 244.491 308.887)" fill="#012758"/>
</svg>
