<svg width="129" height="142" viewBox="0 0 129 142" fill="none" xmlns="http://www.w3.org/2000/svg">
<path d="M32.9443 121.363C42.1502 114.932 45.6364 102.133 40.2477 92.6766C34.859 83.2201 22.9246 81.1938 13.7188 87.6249C4.51296 94.0559 1.02669 106.855 6.4154 116.311C11.8041 125.768 23.7385 127.794 32.9443 121.363Z" fill="#6ED5A6" stroke="#012758" stroke-width="5"/>
<path d="M30.2167 90.4487C22.1401 86.9638 12.7351 92.2579 9.20996 102.273" stroke="#FCF6EA" stroke-width="5" stroke-linecap="round"/>
<ellipse cx="35.6803" cy="95.5272" rx="2.6979" ry="2.98715" fill="#FCF6EA"/>
<path fill-rule="evenodd" clip-rule="evenodd" d="M39.9213 98.0293C42.184 105.637 39.0496 114.694 31.9552 119.65C24.9852 124.52 16.4335 123.864 11.1787 118.59C20.4184 116.276 32.3447 110.443 39.9213 98.0293Z" fill="#24A98E"/>
<path d="M25.2304 81.5957C21.0032 94.4321 17.3201 121.718 36.4053 128.168C55.4906 134.619 36.9076 99.8076 25.2304 81.5957Z" fill="#6ED5A6" stroke="#012758" stroke-width="5"/>
<path d="M30.9618 30.2104C38.1236 30.2104 43.5067 23.8661 43.5067 16.5886C43.5067 9.31111 38.1236 2.9668 30.9618 2.9668C23.8001 2.9668 18.417 9.31111 18.417 16.5886C18.417 23.8661 23.8001 30.2104 30.9618 30.2104Z" fill="#FDE7D2" stroke="#062855" stroke-width="5"/>
<ellipse cx="30.9632" cy="16.5882" rx="6.4036" ry="7.09014" fill="#022656"/>
<mask id="path-8-outside-1_85_249" maskUnits="userSpaceOnUse" x="8.23145" y="5.73242" width="112" height="129" fill="black">
<rect fill="white" x="8.23145" y="5.73242" width="112" height="129"/>
<path fill-rule="evenodd" clip-rule="evenodd" d="M26.8912 83.0413C18.5596 75.5868 13.2314 64.1806 13.2314 51.3965C13.2314 28.9383 29.6745 10.7324 49.958 10.7324C63.7387 10.7324 75.7467 19.1361 82.0297 31.5676C90.9932 35.2017 99.251 42.0073 105.324 51.6212C120.071 74.9657 116.351 106.028 97.0164 121.001C77.6816 135.974 50.0531 129.188 35.3065 105.843C30.8158 98.7342 28.0375 90.9095 26.8912 83.0413Z"/>
</mask>
<path fill-rule="evenodd" clip-rule="evenodd" d="M26.8912 83.0413C18.5596 75.5868 13.2314 64.1806 13.2314 51.3965C13.2314 28.9383 29.6745 10.7324 49.958 10.7324C63.7387 10.7324 75.7467 19.1361 82.0297 31.5676C90.9932 35.2017 99.251 42.0073 105.324 51.6212C120.071 74.9657 116.351 106.028 97.0164 121.001C77.6816 135.974 50.0531 129.188 35.3065 105.843C30.8158 98.7342 28.0375 90.9095 26.8912 83.0413Z" fill="#6ED5A6"/>
<path d="M26.8912 83.0413L31.839 82.3205L31.5774 80.525L30.2252 79.3151L26.8912 83.0413ZM82.0297 31.5676L77.5672 33.823L78.4131 35.4967L80.1511 36.2013L82.0297 31.5676ZM105.324 51.6212L101.097 54.2915L105.324 51.6212ZM97.0164 121.001L93.955 117.048L97.0164 121.001ZM35.3065 105.843L39.5337 103.173L35.3065 105.843ZM30.2252 79.3151C22.981 72.8336 18.2314 62.7952 18.2314 51.3965H8.23145C8.23145 65.5659 14.1381 78.34 23.5573 86.7676L30.2252 79.3151ZM18.2314 51.3965C18.2314 31.2085 32.9028 15.7324 49.958 15.7324V5.73242C26.4461 5.73242 8.23145 26.6682 8.23145 51.3965H18.2314ZM49.958 15.7324C61.5919 15.7324 72.0107 22.8288 77.5672 33.823L86.4921 29.3122C79.4827 15.4435 65.8854 5.73242 49.958 5.73242V15.7324ZM80.1511 36.2013C88.0885 39.4193 95.5482 45.5078 101.097 54.2915L109.551 48.9509C102.954 38.5067 93.8979 30.984 83.9083 26.9339L80.1511 36.2013ZM101.097 54.2915C114.74 75.8894 110.873 103.947 93.955 117.048L100.078 124.954C121.83 108.11 125.401 74.0421 109.551 48.9509L101.097 54.2915ZM93.955 117.048C77.4585 129.823 53.0681 124.598 39.5337 103.173L31.0793 108.514C47.0381 133.777 77.9046 142.126 100.078 124.954L93.955 117.048ZM39.5337 103.173C35.4302 96.6769 32.8879 89.5202 31.839 82.3205L21.9434 83.7622C23.1871 92.2987 26.2013 100.792 31.0793 108.514L39.5337 103.173Z" fill="#012758" mask="url(#path-8-outside-1_85_249)"/>
<path fill-rule="evenodd" clip-rule="evenodd" d="M13.2314 51.3968C13.2314 64.1809 18.5596 75.5871 26.8912 83.0416C28.0375 90.9098 30.8158 98.7345 35.3065 105.844C48.9905 127.506 73.7666 134.911 92.7153 123.901L40.7486 45.366L15.714 36.6699C14.1109 41.2364 13.2314 46.2028 13.2314 51.3968Z" fill="#FFF3E5"/>
<path d="M65.8484 18.8128C56.3802 9.10303 39.3336 11.1392 30.875 21.251" stroke="#FCF6EA" stroke-width="5" stroke-linecap="round"/>
<line x1="2.5" y1="-2.5" x2="4.73447" y2="-2.5" transform="matrix(0.709568 0.704637 -0.629443 0.777047 77.0596 50.0244)" stroke="#012758" stroke-width="5" stroke-linecap="round"/>
<line x1="2.5" y1="-2.5" x2="4.85923" y2="-2.5" transform="matrix(0.7305 0.682913 -0.606381 0.795175 86.8623 50.3105)" stroke="#012758" stroke-width="5" stroke-linecap="round"/>
<line x1="2.5" y1="-2.5" x2="6.04059" y2="-2.5" transform="matrix(0.716698 0.697383 -0.621696 0.783258 76.4971 37.5547)" stroke="#012758" stroke-width="5" stroke-linecap="round"/>
<path d="M70.8837 30.2104C78.0455 30.2104 83.4286 23.8661 83.4286 16.5886C83.4286 9.31111 78.0455 2.9668 70.8837 2.9668C63.7219 2.9668 58.3389 9.31111 58.3389 16.5886C58.3389 23.8661 63.7219 30.2104 70.8837 30.2104Z" fill="#FDE7D2" stroke="#062855" stroke-width="5"/>
<ellipse cx="70.8841" cy="16.5882" rx="6.4036" ry="7.09014" fill="#022656"/>
<ellipse cx="34.3604" cy="30.0883" rx="4.03813" ry="4.47107" fill="#022656"/>
<ellipse cx="50.6114" cy="30.0883" rx="4.03813" ry="4.47107" fill="#022656"/>
<path d="M17.833 36.498C25.1992 41.5955 44.703 49.3437 63.7882 39.5565" stroke="#012758" stroke-width="5" stroke-linecap="round"/>
<path d="M115.047 121.364C124.253 114.933 127.739 102.134 122.35 92.6776C116.962 83.2211 105.027 81.1948 95.8213 87.6259C86.6155 94.0569 83.1292 106.856 88.5179 116.312C93.9066 125.769 105.841 127.795 115.047 121.364Z" fill="#6ED5A6" stroke="#012758" stroke-width="5"/>
<path d="M112.319 90.4497C104.243 86.9648 94.8377 92.2589 91.3125 102.274" stroke="#FCF6EA" stroke-width="5" stroke-linecap="round"/>
<ellipse cx="117.783" cy="95.5282" rx="2.6979" ry="2.98715" fill="#FCF6EA"/>
<path fill-rule="evenodd" clip-rule="evenodd" d="M122.024 98.0293C124.287 105.637 121.153 114.695 114.058 119.652C107.088 124.521 98.536 123.866 93.2812 118.591C102.521 116.276 114.447 110.444 122.024 98.0293Z" fill="#24A98E"/>
<path d="M95.6725 127.393C95.6725 129.917 93.8793 131.518 92.1888 131.518C90.4982 131.518 88.7051 129.917 88.7051 127.393C88.7051 124.869 90.4982 123.268 92.1888 123.268C93.8793 123.268 95.6725 124.869 95.6725 127.393Z" fill="#6ED5A6" stroke="#012758" stroke-width="5"/>
<path d="M103.971 130.615C103.971 133.139 102.178 134.741 100.488 134.741C98.7971 134.741 97.0039 133.139 97.0039 130.615C97.0039 128.092 98.7971 126.49 100.488 126.49C102.178 126.49 103.971 128.092 103.971 130.615Z" fill="#6ED5A6" stroke="#012758" stroke-width="5"/>
<path d="M113.492 130.199C113.492 132.723 111.699 134.325 110.008 134.325C108.318 134.325 106.524 132.723 106.524 130.199C106.524 127.676 108.318 126.074 110.008 126.074C111.699 126.074 113.492 127.676 113.492 130.199Z" fill="#6ED5A6" stroke="#012758" stroke-width="5"/>
<path d="M65.4191 130.986C65.4364 130.995 65.6848 131.141 66.3594 132.092L66.8865 132.835L67.7679 133.064C68.0307 133.133 68.3015 133.209 68.591 133.292L68.6748 133.316C68.9316 133.389 69.2072 133.467 69.4717 133.538C69.9861 133.675 70.7611 133.871 71.485 133.871C71.8445 133.871 72.5017 133.829 73.1589 133.451C73.9663 132.987 74.4657 132.196 74.582 131.317C74.6775 130.596 74.4981 129.967 74.3515 129.57C74.191 129.135 73.9639 128.703 73.7129 128.286C73.6204 128.132 73.5327 127.988 73.4496 127.85C73.1355 127.331 72.8852 126.918 72.6727 126.523C72.41 126.036 72.2941 125.735 72.2464 125.531C72.2084 125.368 72.2165 125.284 72.2397 125.198C72.2702 125.084 72.3681 124.831 72.7049 124.405C73.8125 123.003 77.1733 117.766 80.2392 111.864C81.7847 108.889 83.2917 105.676 84.4182 102.628C85.5247 99.6336 86.3494 96.5763 86.3494 93.9856V93.8867L86.3416 93.7882C85.9065 88.2971 82.2283 84.7323 78.4559 83.1776C76.5759 82.4028 74.5403 82.0645 72.6852 82.2887C70.8536 82.5101 68.8778 83.342 67.763 85.2298L67.5208 85.64L67.4464 86.1107C66.483 92.2061 64.9421 101.444 63.4514 109.347C62.7052 113.303 61.977 116.895 61.344 119.583C61.0264 120.932 60.7421 122.013 60.5008 122.783C60.3792 123.172 60.2819 123.437 60.2119 123.601C60.2116 123.602 60.2114 123.602 60.2111 123.603M65.4191 130.986C65.4176 130.986 65.4178 130.986 65.4195 130.987C65.4266 130.99 65.4289 130.989 65.4191 130.986ZM65.4191 130.986C65.3806 130.976 65.157 130.937 64.3056 131L63.4694 131.062L63.3946 131.013M63.3946 131.013C63.499 130.952 63.5942 130.901 63.6859 130.859C63.7221 130.842 63.7502 130.83 63.771 130.822M63.3946 131.013L62.7652 130.607C63.2333 130.909 63.6391 130.855 63.771 130.822M63.3946 131.013C63.1835 131.137 62.9347 131.304 62.6009 131.528C62.5235 131.58 62.4414 131.635 62.3542 131.693C62.0781 131.877 61.7333 132.103 61.3802 132.295C61.0559 132.47 60.5326 132.726 59.9122 132.823C59.2161 132.933 58.1997 132.861 57.3426 132.082C56.5973 131.405 56.362 130.531 56.2724 129.969L55.8112 127.076H58.3353M63.771 130.822C63.7995 130.815 63.8152 130.809 63.816 130.808C63.8167 130.806 63.8024 130.81 63.771 130.822ZM58.3353 127.076C58.3171 127.128 58.3004 127.174 58.285 127.215C58.2122 127.406 58.1731 127.474 58.1737 127.474C58.1744 127.475 58.2158 127.406 58.304 127.324C58.4922 127.151 58.6747 127.098 58.7412 127.082C58.7583 127.078 58.7677 127.077 58.7676 127.076C58.7676 127.076 58.7593 127.076 58.7412 127.076H58.3353ZM58.3353 127.076C58.3511 127.031 58.368 126.982 58.3862 126.929C58.6308 126.218 59.1094 124.828 60.2111 123.603M60.2111 123.603C60.1926 123.646 60.1785 123.676 60.1692 123.695M60.2111 123.603C60.271 123.536 60.3327 123.47 60.3964 123.405C60.2705 123.534 60.1973 123.647 60.1692 123.695M60.1692 123.695C60.16 123.711 60.1556 123.72 60.1557 123.72C60.1558 123.721 60.1604 123.713 60.1692 123.695ZM58.9103 127.942C58.9103 127.942 58.9135 127.941 58.9197 127.938C58.9133 127.941 58.9102 127.942 58.9103 127.942ZM69.6612 131.302C69.6673 131.319 69.665 131.316 69.6588 131.296C69.6598 131.299 69.6606 131.301 69.6612 131.302Z" fill="#6DD4A6" stroke="#012758" stroke-width="5" stroke-linecap="round"/>
<path d="M60.8397 129.83C61.1631 132.316 59.6026 134.19 57.9165 134.459C56.2304 134.728 54.2556 133.417 53.9322 130.931C53.6088 128.446 55.1693 126.571 56.8554 126.302C58.5415 126.033 60.5164 127.344 60.8397 129.83Z" fill="#6ED5A6" stroke="#012758" stroke-width="5"/>
<path d="M31.6532 127.756C31.9766 130.241 30.4161 132.116 28.73 132.385C27.0439 132.654 25.0691 131.343 24.7457 128.857C24.4223 126.371 25.9828 124.497 27.6689 124.228C29.355 123.959 31.3298 125.27 31.6532 127.756Z" fill="#6ED5A6" stroke="#012758" stroke-width="5"/>
<path d="M70.0165 133.015C70.3399 135.501 68.7794 137.376 67.0933 137.645C65.4072 137.913 63.4323 136.603 63.109 134.117C62.7856 131.631 64.3461 129.757 66.0322 129.488C67.7183 129.219 69.6931 130.53 70.0165 133.015Z" fill="#6ED5A6" stroke="#012758" stroke-width="5"/>
<path d="M40.829 130.942C41.1524 133.428 39.5919 135.302 37.9058 135.571C36.2197 135.84 34.2448 134.53 33.9215 132.044C33.5981 129.558 35.1586 127.683 36.8447 127.414C38.5308 127.146 40.5056 128.456 40.829 130.942Z" fill="#6ED5A6" stroke="#012758" stroke-width="5"/>
<path d="M78.8388 129.794C79.1621 132.28 77.6016 134.154 75.9155 134.423C74.2295 134.692 72.2546 133.381 71.9312 130.895C71.6078 128.409 73.1684 126.535 74.8544 126.266C76.5405 125.997 78.5154 127.308 78.8388 129.794Z" fill="#6ED5A6" stroke="#012758" stroke-width="5"/>
<path d="M49.6513 127.718C49.9746 130.204 48.4141 132.079 46.728 132.348C45.042 132.617 43.0671 131.306 42.7437 128.82C42.4203 126.334 43.9809 124.46 45.6669 124.191C47.353 123.922 49.3279 125.233 49.6513 127.718Z" fill="#6ED5A6" stroke="#012758" stroke-width="5"/>
<ellipse cx="1.92925" cy="2.13549" rx="1.92925" ry="2.13549" transform="matrix(-0.999161 -0.0409618 -0.0334225 0.999441 111.102 50.2539)" fill="#012758"/>
<ellipse cx="1.92925" cy="2.13549" rx="1.92925" ry="2.13549" transform="matrix(-0.999161 -0.0409618 -0.0334225 0.999441 108.47 59.7129)" fill="#012758"/>
<ellipse cx="1.92925" cy="2.13549" rx="1.92925" ry="2.13549" transform="matrix(-0.999161 -0.0409618 -0.0334225 0.999441 106.318 67.4434)" fill="#012758"/>
</svg>
