<svg width="98" height="98" viewBox="0 0 98 98" fill="none" xmlns="http://www.w3.org/2000/svg">
<rect y="48.7" width="68.8722" height="68.8722" rx="11.4787" transform="rotate(-45 0 48.7)" fill="#05A3FF"/>
<mask id="path-2-outside-1_0_68" maskUnits="userSpaceOnUse" x="16.9067" y="38.9458" width="63" height="19" fill="black">
<rect fill="white" x="16.9067" y="38.9458" width="63" height="19"/>
<path d="M32.4076 39.9458C32.9505 39.9458 33.3994 40.1233 33.7543 40.4783C34.1093 40.8332 34.2868 41.2926 34.2868 41.8563V55.1044C34.2868 55.6473 34.1093 56.1066 33.7543 56.4825C33.3994 56.8374 32.9505 57.0149 32.4076 57.0149C31.8647 57.0149 31.4158 56.8374 31.0609 56.4825C30.7059 56.1066 30.5284 55.6473 30.5284 55.1044V53.5698L31.2175 53.8516C31.2175 54.1231 31.0713 54.4571 30.779 54.8539C30.4867 55.2297 30.09 55.6055 29.5889 55.9814C29.0878 56.3572 28.4927 56.6808 27.8037 56.9523C27.1355 57.2028 26.4047 57.3281 25.6113 57.3281C24.1706 57.3281 22.8656 56.9627 21.6964 56.2319C20.5271 55.4802 19.598 54.4571 18.909 53.1626C18.2408 51.8472 17.9067 50.3439 17.9067 48.6526C17.9067 46.9405 18.2408 45.4372 18.909 44.1426C19.598 42.8272 20.5167 41.8041 21.6651 41.0733C22.8134 40.3217 24.0871 39.9458 25.486 39.9458C26.3839 39.9458 27.2086 40.0815 27.9603 40.353C28.7119 40.6244 29.3592 40.9689 29.9021 41.3865C30.4658 41.8041 30.8938 42.2321 31.1862 42.6706C31.4993 43.0882 31.6559 43.4432 31.6559 43.7355L30.5284 44.1426V41.8563C30.5284 41.3134 30.7059 40.8645 31.0609 40.5096C31.4158 40.1337 31.8647 39.9458 32.4076 39.9458ZM26.0811 53.883C26.9998 53.883 27.8037 53.6533 28.4927 53.1939C29.1817 52.7346 29.7141 52.1082 30.09 51.3148C30.4867 50.5213 30.685 49.634 30.685 48.6526C30.685 47.6504 30.4867 46.7526 30.09 45.9592C29.7141 45.1657 29.1817 44.5393 28.4927 44.08C27.8037 43.6206 26.9998 43.391 26.0811 43.391C25.1833 43.391 24.3899 43.6206 23.7008 44.08C23.0118 44.5393 22.4689 45.1657 22.0722 45.9592C21.6964 46.7526 21.5085 47.6504 21.5085 48.6526C21.5085 49.634 21.6964 50.5213 22.0722 51.3148C22.4689 52.1082 23.0118 52.7346 23.7008 53.1939C24.3899 53.6533 25.1833 53.883 26.0811 53.883Z"/>
<path d="M45.8101 39.9458C47.0002 39.9458 48.0338 40.0711 48.9107 40.3217C49.8085 40.5722 50.4976 40.9272 50.9778 41.3865C51.4789 41.825 51.7295 42.3574 51.7295 42.9838C51.7295 43.4014 51.6042 43.7981 51.3536 44.1739C51.1031 44.5289 50.7377 44.7064 50.2575 44.7064C49.9234 44.7064 49.6415 44.6646 49.4118 44.5811C49.203 44.4767 49.0151 44.3514 48.8481 44.2053C48.681 44.0591 48.4827 43.9234 48.253 43.7981C48.0442 43.6728 47.7206 43.5789 47.2821 43.5162C46.8645 43.4327 46.5513 43.391 46.3425 43.391C45.2777 43.391 44.3694 43.6206 43.6177 44.08C42.887 44.5393 42.3232 45.1657 41.9265 45.9592C41.5298 46.7317 41.3314 47.6295 41.3314 48.6526C41.3314 49.6548 41.5298 50.5527 41.9265 51.3461C42.3441 52.1186 42.9078 52.7346 43.6177 53.1939C44.3485 53.6533 45.1837 53.883 46.1233 53.883C46.6453 53.883 47.0942 53.8516 47.47 53.789C47.8459 53.7264 48.1591 53.6324 48.4096 53.5071C48.7019 53.3401 48.9629 53.1626 49.1926 52.9747C49.4223 52.7868 49.7668 52.6928 50.2261 52.6928C50.769 52.6928 51.1866 52.8703 51.4789 53.2252C51.7712 53.5593 51.9174 53.9769 51.9174 54.478C51.9174 55 51.6251 55.4802 51.0404 55.9187C50.4558 56.3363 49.6833 56.6808 48.7228 56.9523C47.7832 57.2028 46.7601 57.3281 45.6535 57.3281C44.004 57.3281 42.5738 56.9523 41.3628 56.2006C40.1517 55.428 39.2122 54.3841 38.544 53.0687C37.8967 51.7532 37.5731 50.2812 37.5731 48.6526C37.5731 46.9405 37.9176 45.4372 38.6066 44.1426C39.3166 42.8272 40.2875 41.8041 41.5193 41.0733C42.7721 40.3217 44.2024 39.9458 45.8101 39.9458Z"/>
<path d="M63.4282 39.9458C65.0986 39.9458 66.3305 40.353 67.1239 41.1673C67.9173 41.9607 68.4393 42.9943 68.6899 44.2679L68.1575 43.986L68.408 43.4849C68.6586 43.0047 69.0448 42.4931 69.5668 41.9503C70.0888 41.3865 70.7152 40.9167 71.446 40.5409C72.1977 40.1442 73.0328 39.9458 73.9515 39.9458C75.4549 39.9458 76.5928 40.2695 77.3653 40.9167C78.1588 41.564 78.7016 42.4305 78.994 43.5162C79.2863 44.5811 79.4324 45.7712 79.4324 47.0866V55.1044C79.4324 55.6473 79.255 56.1066 78.9 56.4825C78.545 56.8374 78.0961 57.0149 77.5533 57.0149C77.0104 57.0149 76.5615 56.8374 76.2065 56.4825C75.8516 56.1066 75.6741 55.6473 75.6741 55.1044V47.0866C75.6741 46.3976 75.5906 45.7817 75.4236 45.2388C75.2565 44.6751 74.9538 44.2261 74.5153 43.8921C74.0768 43.558 73.4504 43.391 72.6361 43.391C71.8427 43.391 71.1641 43.558 70.6004 43.8921C70.0366 44.2261 69.6086 44.6751 69.3163 45.2388C69.0448 45.7817 68.9091 46.3976 68.9091 47.0866V55.1044C68.9091 55.6473 68.7316 56.1066 68.3767 56.4825C68.0217 56.8374 67.5728 57.0149 67.03 57.0149C66.4871 57.0149 66.0382 56.8374 65.6832 56.4825C65.3283 56.1066 65.1508 55.6473 65.1508 55.1044V47.0866C65.1508 46.3976 65.0673 45.7817 64.9002 45.2388C64.7332 44.6751 64.4305 44.2261 63.992 43.8921C63.5535 43.558 62.9271 43.391 62.1128 43.391C61.3194 43.391 60.6408 43.558 60.0771 43.8921C59.5133 44.2261 59.0853 44.6751 58.793 45.2388C58.5215 45.7817 58.3858 46.3976 58.3858 47.0866V55.1044C58.3858 55.6473 58.2083 56.1066 57.8534 56.4825C57.4984 56.8374 57.0495 57.0149 56.5066 57.0149C55.9638 57.0149 55.5149 56.8374 55.1599 56.4825C54.805 56.1066 54.6275 55.6473 54.6275 55.1044V42.1695C54.6275 41.6266 54.805 41.1777 55.1599 40.8228C55.5149 40.4469 55.9638 40.259 56.5066 40.259C57.0495 40.259 57.4984 40.4469 57.8534 40.8228C58.2083 41.1777 58.3858 41.6266 58.3858 42.1695V43.5162L57.916 43.4223C58.1039 43.0673 58.3649 42.6915 58.699 42.2948C59.0331 41.8772 59.4402 41.4909 59.9205 41.136C60.4007 40.781 60.9331 40.4991 61.5177 40.2903C62.1024 40.0607 62.7392 39.9458 63.4282 39.9458Z"/>
</mask>
<path d="M32.4076 39.9458C32.9505 39.9458 33.3994 40.1233 33.7543 40.4783C34.1093 40.8332 34.2868 41.2926 34.2868 41.8563V55.1044C34.2868 55.6473 34.1093 56.1066 33.7543 56.4825C33.3994 56.8374 32.9505 57.0149 32.4076 57.0149C31.8647 57.0149 31.4158 56.8374 31.0609 56.4825C30.7059 56.1066 30.5284 55.6473 30.5284 55.1044V53.5698L31.2175 53.8516C31.2175 54.1231 31.0713 54.4571 30.779 54.8539C30.4867 55.2297 30.09 55.6055 29.5889 55.9814C29.0878 56.3572 28.4927 56.6808 27.8037 56.9523C27.1355 57.2028 26.4047 57.3281 25.6113 57.3281C24.1706 57.3281 22.8656 56.9627 21.6964 56.2319C20.5271 55.4802 19.598 54.4571 18.909 53.1626C18.2408 51.8472 17.9067 50.3439 17.9067 48.6526C17.9067 46.9405 18.2408 45.4372 18.909 44.1426C19.598 42.8272 20.5167 41.8041 21.6651 41.0733C22.8134 40.3217 24.0871 39.9458 25.486 39.9458C26.3839 39.9458 27.2086 40.0815 27.9603 40.353C28.7119 40.6244 29.3592 40.9689 29.9021 41.3865C30.4658 41.8041 30.8938 42.2321 31.1862 42.6706C31.4993 43.0882 31.6559 43.4432 31.6559 43.7355L30.5284 44.1426V41.8563C30.5284 41.3134 30.7059 40.8645 31.0609 40.5096C31.4158 40.1337 31.8647 39.9458 32.4076 39.9458ZM26.0811 53.883C26.9998 53.883 27.8037 53.6533 28.4927 53.1939C29.1817 52.7346 29.7141 52.1082 30.09 51.3148C30.4867 50.5213 30.685 49.634 30.685 48.6526C30.685 47.6504 30.4867 46.7526 30.09 45.9592C29.7141 45.1657 29.1817 44.5393 28.4927 44.08C27.8037 43.6206 26.9998 43.391 26.0811 43.391C25.1833 43.391 24.3899 43.6206 23.7008 44.08C23.0118 44.5393 22.4689 45.1657 22.0722 45.9592C21.6964 46.7526 21.5085 47.6504 21.5085 48.6526C21.5085 49.634 21.6964 50.5213 22.0722 51.3148C22.4689 52.1082 23.0118 52.7346 23.7008 53.1939C24.3899 53.6533 25.1833 53.883 26.0811 53.883Z" fill="white"/>
<path d="M45.8101 39.9458C47.0002 39.9458 48.0338 40.0711 48.9107 40.3217C49.8085 40.5722 50.4976 40.9272 50.9778 41.3865C51.4789 41.825 51.7295 42.3574 51.7295 42.9838C51.7295 43.4014 51.6042 43.7981 51.3536 44.1739C51.1031 44.5289 50.7377 44.7064 50.2575 44.7064C49.9234 44.7064 49.6415 44.6646 49.4118 44.5811C49.203 44.4767 49.0151 44.3514 48.8481 44.2053C48.681 44.0591 48.4827 43.9234 48.253 43.7981C48.0442 43.6728 47.7206 43.5789 47.2821 43.5162C46.8645 43.4327 46.5513 43.391 46.3425 43.391C45.2777 43.391 44.3694 43.6206 43.6177 44.08C42.887 44.5393 42.3232 45.1657 41.9265 45.9592C41.5298 46.7317 41.3314 47.6295 41.3314 48.6526C41.3314 49.6548 41.5298 50.5527 41.9265 51.3461C42.3441 52.1186 42.9078 52.7346 43.6177 53.1939C44.3485 53.6533 45.1837 53.883 46.1233 53.883C46.6453 53.883 47.0942 53.8516 47.47 53.789C47.8459 53.7264 48.1591 53.6324 48.4096 53.5071C48.7019 53.3401 48.9629 53.1626 49.1926 52.9747C49.4223 52.7868 49.7668 52.6928 50.2261 52.6928C50.769 52.6928 51.1866 52.8703 51.4789 53.2252C51.7712 53.5593 51.9174 53.9769 51.9174 54.478C51.9174 55 51.6251 55.4802 51.0404 55.9187C50.4558 56.3363 49.6833 56.6808 48.7228 56.9523C47.7832 57.2028 46.7601 57.3281 45.6535 57.3281C44.004 57.3281 42.5738 56.9523 41.3628 56.2006C40.1517 55.428 39.2122 54.3841 38.544 53.0687C37.8967 51.7532 37.5731 50.2812 37.5731 48.6526C37.5731 46.9405 37.9176 45.4372 38.6066 44.1426C39.3166 42.8272 40.2875 41.8041 41.5193 41.0733C42.7721 40.3217 44.2024 39.9458 45.8101 39.9458Z" fill="white"/>
<path d="M63.4282 39.9458C65.0986 39.9458 66.3305 40.353 67.1239 41.1673C67.9173 41.9607 68.4393 42.9943 68.6899 44.2679L68.1575 43.986L68.408 43.4849C68.6586 43.0047 69.0448 42.4931 69.5668 41.9503C70.0888 41.3865 70.7152 40.9167 71.446 40.5409C72.1977 40.1442 73.0328 39.9458 73.9515 39.9458C75.4549 39.9458 76.5928 40.2695 77.3653 40.9167C78.1588 41.564 78.7016 42.4305 78.994 43.5162C79.2863 44.5811 79.4324 45.7712 79.4324 47.0866V55.1044C79.4324 55.6473 79.255 56.1066 78.9 56.4825C78.545 56.8374 78.0961 57.0149 77.5533 57.0149C77.0104 57.0149 76.5615 56.8374 76.2065 56.4825C75.8516 56.1066 75.6741 55.6473 75.6741 55.1044V47.0866C75.6741 46.3976 75.5906 45.7817 75.4236 45.2388C75.2565 44.6751 74.9538 44.2261 74.5153 43.8921C74.0768 43.558 73.4504 43.391 72.6361 43.391C71.8427 43.391 71.1641 43.558 70.6004 43.8921C70.0366 44.2261 69.6086 44.6751 69.3163 45.2388C69.0448 45.7817 68.9091 46.3976 68.9091 47.0866V55.1044C68.9091 55.6473 68.7316 56.1066 68.3767 56.4825C68.0217 56.8374 67.5728 57.0149 67.03 57.0149C66.4871 57.0149 66.0382 56.8374 65.6832 56.4825C65.3283 56.1066 65.1508 55.6473 65.1508 55.1044V47.0866C65.1508 46.3976 65.0673 45.7817 64.9002 45.2388C64.7332 44.6751 64.4305 44.2261 63.992 43.8921C63.5535 43.558 62.9271 43.391 62.1128 43.391C61.3194 43.391 60.6408 43.558 60.0771 43.8921C59.5133 44.2261 59.0853 44.6751 58.793 45.2388C58.5215 45.7817 58.3858 46.3976 58.3858 47.0866V55.1044C58.3858 55.6473 58.2083 56.1066 57.8534 56.4825C57.4984 56.8374 57.0495 57.0149 56.5066 57.0149C55.9638 57.0149 55.5149 56.8374 55.1599 56.4825C54.805 56.1066 54.6275 55.6473 54.6275 55.1044V42.1695C54.6275 41.6266 54.805 41.1777 55.1599 40.8228C55.5149 40.4469 55.9638 40.259 56.5066 40.259C57.0495 40.259 57.4984 40.4469 57.8534 40.8228C58.2083 41.1777 58.3858 41.6266 58.3858 42.1695V43.5162L57.916 43.4223C58.1039 43.0673 58.3649 42.6915 58.699 42.2948C59.0331 41.8772 59.4402 41.4909 59.9205 41.136C60.4007 40.781 60.9331 40.4991 61.5177 40.2903C62.1024 40.0607 62.7392 39.9458 63.4282 39.9458Z" fill="white"/>
<path d="M32.4076 39.9458C32.9505 39.9458 33.3994 40.1233 33.7543 40.4783C34.1093 40.8332 34.2868 41.2926 34.2868 41.8563V55.1044C34.2868 55.6473 34.1093 56.1066 33.7543 56.4825C33.3994 56.8374 32.9505 57.0149 32.4076 57.0149C31.8647 57.0149 31.4158 56.8374 31.0609 56.4825C30.7059 56.1066 30.5284 55.6473 30.5284 55.1044V53.5698L31.2175 53.8516C31.2175 54.1231 31.0713 54.4571 30.779 54.8539C30.4867 55.2297 30.09 55.6055 29.5889 55.9814C29.0878 56.3572 28.4927 56.6808 27.8037 56.9523C27.1355 57.2028 26.4047 57.3281 25.6113 57.3281C24.1706 57.3281 22.8656 56.9627 21.6964 56.2319C20.5271 55.4802 19.598 54.4571 18.909 53.1626C18.2408 51.8472 17.9067 50.3439 17.9067 48.6526C17.9067 46.9405 18.2408 45.4372 18.909 44.1426C19.598 42.8272 20.5167 41.8041 21.6651 41.0733C22.8134 40.3217 24.0871 39.9458 25.486 39.9458C26.3839 39.9458 27.2086 40.0815 27.9603 40.353C28.7119 40.6244 29.3592 40.9689 29.9021 41.3865C30.4658 41.8041 30.8938 42.2321 31.1862 42.6706C31.4993 43.0882 31.6559 43.4432 31.6559 43.7355L30.5284 44.1426V41.8563C30.5284 41.3134 30.7059 40.8645 31.0609 40.5096C31.4158 40.1337 31.8647 39.9458 32.4076 39.9458ZM26.0811 53.883C26.9998 53.883 27.8037 53.6533 28.4927 53.1939C29.1817 52.7346 29.7141 52.1082 30.09 51.3148C30.4867 50.5213 30.685 49.634 30.685 48.6526C30.685 47.6504 30.4867 46.7526 30.09 45.9592C29.7141 45.1657 29.1817 44.5393 28.4927 44.08C27.8037 43.6206 26.9998 43.391 26.0811 43.391C25.1833 43.391 24.3899 43.6206 23.7008 44.08C23.0118 44.5393 22.4689 45.1657 22.0722 45.9592C21.6964 46.7526 21.5085 47.6504 21.5085 48.6526C21.5085 49.634 21.6964 50.5213 22.0722 51.3148C22.4689 52.1082 23.0118 52.7346 23.7008 53.1939C24.3899 53.6533 25.1833 53.883 26.0811 53.883Z" stroke="white" stroke-width="0.918294" mask="url(#path-2-outside-1_0_68)"/>
<path d="M45.8101 39.9458C47.0002 39.9458 48.0338 40.0711 48.9107 40.3217C49.8085 40.5722 50.4976 40.9272 50.9778 41.3865C51.4789 41.825 51.7295 42.3574 51.7295 42.9838C51.7295 43.4014 51.6042 43.7981 51.3536 44.1739C51.1031 44.5289 50.7377 44.7064 50.2575 44.7064C49.9234 44.7064 49.6415 44.6646 49.4118 44.5811C49.203 44.4767 49.0151 44.3514 48.8481 44.2053C48.681 44.0591 48.4827 43.9234 48.253 43.7981C48.0442 43.6728 47.7206 43.5789 47.2821 43.5162C46.8645 43.4327 46.5513 43.391 46.3425 43.391C45.2777 43.391 44.3694 43.6206 43.6177 44.08C42.887 44.5393 42.3232 45.1657 41.9265 45.9592C41.5298 46.7317 41.3314 47.6295 41.3314 48.6526C41.3314 49.6548 41.5298 50.5527 41.9265 51.3461C42.3441 52.1186 42.9078 52.7346 43.6177 53.1939C44.3485 53.6533 45.1837 53.883 46.1233 53.883C46.6453 53.883 47.0942 53.8516 47.47 53.789C47.8459 53.7264 48.1591 53.6324 48.4096 53.5071C48.7019 53.3401 48.9629 53.1626 49.1926 52.9747C49.4223 52.7868 49.7668 52.6928 50.2261 52.6928C50.769 52.6928 51.1866 52.8703 51.4789 53.2252C51.7712 53.5593 51.9174 53.9769 51.9174 54.478C51.9174 55 51.6251 55.4802 51.0404 55.9187C50.4558 56.3363 49.6833 56.6808 48.7228 56.9523C47.7832 57.2028 46.7601 57.3281 45.6535 57.3281C44.004 57.3281 42.5738 56.9523 41.3628 56.2006C40.1517 55.428 39.2122 54.3841 38.544 53.0687C37.8967 51.7532 37.5731 50.2812 37.5731 48.6526C37.5731 46.9405 37.9176 45.4372 38.6066 44.1426C39.3166 42.8272 40.2875 41.8041 41.5193 41.0733C42.7721 40.3217 44.2024 39.9458 45.8101 39.9458Z" stroke="white" stroke-width="0.918294" mask="url(#path-2-outside-1_0_68)"/>
<path d="M63.4282 39.9458C65.0986 39.9458 66.3305 40.353 67.1239 41.1673C67.9173 41.9607 68.4393 42.9943 68.6899 44.2679L68.1575 43.986L68.408 43.4849C68.6586 43.0047 69.0448 42.4931 69.5668 41.9503C70.0888 41.3865 70.7152 40.9167 71.446 40.5409C72.1977 40.1442 73.0328 39.9458 73.9515 39.9458C75.4549 39.9458 76.5928 40.2695 77.3653 40.9167C78.1588 41.564 78.7016 42.4305 78.994 43.5162C79.2863 44.5811 79.4324 45.7712 79.4324 47.0866V55.1044C79.4324 55.6473 79.255 56.1066 78.9 56.4825C78.545 56.8374 78.0961 57.0149 77.5533 57.0149C77.0104 57.0149 76.5615 56.8374 76.2065 56.4825C75.8516 56.1066 75.6741 55.6473 75.6741 55.1044V47.0866C75.6741 46.3976 75.5906 45.7817 75.4236 45.2388C75.2565 44.6751 74.9538 44.2261 74.5153 43.8921C74.0768 43.558 73.4504 43.391 72.6361 43.391C71.8427 43.391 71.1641 43.558 70.6004 43.8921C70.0366 44.2261 69.6086 44.6751 69.3163 45.2388C69.0448 45.7817 68.9091 46.3976 68.9091 47.0866V55.1044C68.9091 55.6473 68.7316 56.1066 68.3767 56.4825C68.0217 56.8374 67.5728 57.0149 67.03 57.0149C66.4871 57.0149 66.0382 56.8374 65.6832 56.4825C65.3283 56.1066 65.1508 55.6473 65.1508 55.1044V47.0866C65.1508 46.3976 65.0673 45.7817 64.9002 45.2388C64.7332 44.6751 64.4305 44.2261 63.992 43.8921C63.5535 43.558 62.9271 43.391 62.1128 43.391C61.3194 43.391 60.6408 43.558 60.0771 43.8921C59.5133 44.2261 59.0853 44.6751 58.793 45.2388C58.5215 45.7817 58.3858 46.3976 58.3858 47.0866V55.1044C58.3858 55.6473 58.2083 56.1066 57.8534 56.4825C57.4984 56.8374 57.0495 57.0149 56.5066 57.0149C55.9638 57.0149 55.5149 56.8374 55.1599 56.4825C54.805 56.1066 54.6275 55.6473 54.6275 55.1044V42.1695C54.6275 41.6266 54.805 41.1777 55.1599 40.8228C55.5149 40.4469 55.9638 40.259 56.5066 40.259C57.0495 40.259 57.4984 40.4469 57.8534 40.8228C58.2083 41.1777 58.3858 41.6266 58.3858 42.1695V43.5162L57.916 43.4223C58.1039 43.0673 58.3649 42.6915 58.699 42.2948C59.0331 41.8772 59.4402 41.4909 59.9205 41.136C60.4007 40.781 60.9331 40.4991 61.5177 40.2903C62.1024 40.0607 62.7392 39.9458 63.4282 39.9458Z" stroke="white" stroke-width="0.918294" mask="url(#path-2-outside-1_0_68)"/>
</svg>
