<svg width="374" height="304" viewBox="0 0 374 304" fill="none" xmlns="http://www.w3.org/2000/svg">
<ellipse cx="300.164" cy="174.612" rx="47.1415" ry="114.087" transform="rotate(-13.7501 300.164 174.612)" fill="#D9D9D9" fill-opacity="0.7"/>
<line x1="278.973" y1="85.1877" x2="322.886" y2="259.977" stroke="white"/>
<line x1="286.544" y1="111.606" x2="319.263" y2="137.006" stroke="#FCF6EA"/>
<line x1="293.614" y1="146.98" x2="286.726" y2="178.408" stroke="white"/>
<line x1="303.793" y1="180.513" x2="330.916" y2="205.052" stroke="white"/>
<line x1="313.832" y1="226.255" x2="303.93" y2="254.238" stroke="white"/>
<ellipse cx="73.7127" cy="181.071" rx="47.1415" ry="114.087" transform="rotate(14.173 73.7127 181.071)" fill="#D9D9D9" fill-opacity="0.7"/>
<line x1="96.8654" y1="92.1341" x2="53.8139" y2="267.138" stroke="white"/>
<line x1="91.1834" y1="119.022" x2="108.199" y2="156.787" stroke="#FCF6EA"/>
<line x1="80.8648" y1="153.589" x2="60.0613" y2="178.132" stroke="white"/>
<line x1="74.1566" y1="187.984" x2="86.6299" y2="222.367" stroke="white"/>
<line x1="61.605" y1="233.102" x2="39.7516" y2="253.19" stroke="white"/>
<circle cx="187.004" cy="143.644" r="128.01" fill="#D9D9D9" stroke="#3A3832" stroke-width="30"/>
<circle cx="187.004" cy="137.617" r="42.4058" fill="#F3EEEE"/>
<path d="M260.837 224.366C260.837 230.393 227.877 256.224 187.219 256.224C146.561 256.224 115.968 236.205 113.601 224.366C113.601 206.533 146.561 192.077 187.219 192.077C227.877 192.077 260.837 206.533 260.837 224.366Z" fill="#F3EEEE"/>
</svg>
