<svg width="106" height="82" viewBox="0 0 106 82" fill="none" xmlns="http://www.w3.org/2000/svg">
<path d="M95.4 0.300781H10.6C4.77 0.300781 0.053 4.84702 0.053 10.4035L0 71.02C0 76.5766 4.77 81.1228 10.6 81.1228H95.4C101.23 81.1228 106 76.5766 106 71.02V10.4035C106 4.84702 101.23 0.300781 95.4 0.300781ZM93.28 21.7691L55.809 44.0962C54.113 45.1065 51.887 45.1065 50.191 44.0962L12.72 21.7691C12.1886 21.4848 11.7232 21.1006 11.352 20.6399C10.9808 20.1792 10.7116 19.6515 10.5606 19.0887C10.4097 18.526 10.3801 17.9399 10.4736 17.3659C10.5672 16.7919 10.782 16.242 11.105 15.7494C11.428 15.2568 11.8525 14.8318 12.3528 14.5002C12.8532 14.1685 13.4189 13.937 14.0158 13.8198C14.6127 13.7025 15.2284 13.7019 15.8256 13.818C16.4227 13.9341 16.989 14.1644 17.49 14.4951L53 35.6604L88.51 14.4951C89.011 14.1644 89.5773 13.9341 90.1744 13.818C90.7716 13.7019 91.3873 13.7025 91.9842 13.8198C92.5811 13.937 93.1468 14.1685 93.6472 14.5002C94.1475 14.8318 94.572 15.2568 94.895 15.7494C95.218 16.242 95.4328 16.7919 95.5264 17.3659C95.6199 17.9399 95.5903 18.526 95.4394 19.0887C95.2884 19.6515 95.0192 20.1792 94.648 20.6399C94.2768 21.1006 93.8114 21.4848 93.28 21.7691Z" fill="#FFF3E5"/>
</svg>
