<svg width="1533" height="616" viewBox="0 0 1533 616" fill="none" xmlns="http://www.w3.org/2000/svg">
<g clip-path="url(#clip0_38_1044)">
<rect x="13.5519" y="4.52973" width="218.971" height="89.5808" rx="44.5" transform="matrix(0.899405 -0.437116 0.455786 0.890089 42.9476 181.43)" fill="#86AC3B" stroke="#012758" stroke-width="20"/>
<mask id="path-2-inside-1_38_1044" fill="white">
<ellipse cx="17.9575" cy="17.5057" rx="17.9575" ry="17.5057" transform="matrix(0.994223 -0.107338 0.113022 0.993593 299.201 80.2195)"/>
</mask>
<ellipse cx="17.9575" cy="17.5057" rx="17.9575" ry="17.5057" transform="matrix(0.994223 -0.107338 0.113022 0.993593 299.201 80.2195)" fill="#89B03D"/>
<path d="M317.002 95.9047C316.906 95.0571 317.208 94.3165 317.558 93.8907C317.9 93.4746 318.36 93.2494 318.751 93.2072L323.272 132.951C343.633 130.753 359.166 112.667 356.771 91.6112L317.002 95.9047ZM318.751 93.2072C319.142 93.1649 319.642 93.2865 320.069 93.6196C320.506 93.9604 320.967 94.6187 321.064 95.4663L281.295 99.7598C283.69 120.815 302.91 135.149 323.272 132.951L318.751 93.2072ZM321.064 95.4663C321.16 96.3138 320.858 97.0545 320.508 97.4802C320.166 97.8964 319.706 98.1216 319.315 98.1638L314.794 58.4201C294.433 60.6184 278.9 78.7043 281.295 99.7598L321.064 95.4663ZM319.315 98.1638C318.924 98.206 318.424 98.0845 317.997 97.7514C317.56 97.4105 317.099 96.7523 317.002 95.9047L356.771 91.6112C354.376 70.5558 335.156 56.2219 314.794 58.4201L319.315 98.1638Z" fill="#012758" mask="url(#path-2-inside-1_38_1044)"/>
<path d="M291.179 59.8632L172.368 113.941L210.434 185.291C216.782 183.599 247.822 170.791 321.196 133.088C363.603 88.2646 321.066 59.3195 291.179 59.8632Z" fill="#8EB540" stroke="#012758" stroke-width="20"/>
<rect x="13.5519" y="4.52973" width="218.971" height="89.5808" rx="44.5" transform="matrix(0.899405 -0.437116 0.455786 0.890089 171.682 216.373)" fill="#86AC3B" stroke="#012758" stroke-width="20"/>
<rect x="-12.3277" y="7.11618" width="214.42" height="189.361" rx="82.2208" transform="matrix(-0.265192 0.964196 -0.967577 -0.252578 256.028 269.102)" fill="#8FB03F" stroke="#012758" stroke-width="20"/>
<rect x="7.02385" y="12.1677" width="219.782" height="89.1956" rx="44.5" transform="matrix(0.967577 0.252578 -0.265192 0.964196 64.3498 141.354)" fill="#86AC3B" stroke="#012758" stroke-width="20"/>
<rect x="-6.5633" y="12.409" width="121.043" height="57.6948" rx="28.8474" transform="matrix(0.301472 0.953475 -0.957802 0.287428 361.273 188.302)" fill="#BE8F65" stroke="#012758" stroke-width="20"/>
<rect x="12.3277" y="-7.11618" width="87.8013" height="39.4446" rx="19.7223" transform="matrix(0.265192 -0.964195 0.967577 0.252578 103.319 392.968)" fill="#BE8F65" stroke="#012758" stroke-width="20"/>
<rect x="12.3277" y="-7.11618" width="42.0769" height="39.4446" rx="19.7223" transform="matrix(0.265192 -0.964195 0.967577 0.252578 115.35 348.881)" fill="#6ED5A6" stroke="#012758" stroke-width="20"/>
<path d="M224.937 143.972C227.252 164.322 212.172 183.083 190.659 185.406C169.145 187.729 150.215 172.639 147.901 152.289C145.586 131.94 160.665 113.178 182.179 110.856C203.692 108.533 222.622 123.623 224.937 143.972Z" fill="#89B03D" stroke="#012758" stroke-width="20"/>
<mask id="path-12-inside-2_38_1044" fill="white">
<ellipse cx="17.9575" cy="17.5057" rx="17.9575" ry="17.5057" transform="matrix(0.994223 -0.107338 0.113022 0.993593 170.394 132.906)"/>
</mask>
<ellipse cx="17.9575" cy="17.5057" rx="17.9575" ry="17.5057" transform="matrix(0.994223 -0.107338 0.113022 0.993593 170.394 132.906)" fill="#89B03D"/>
<path d="M188.196 148.591C188.099 147.743 188.401 147.003 188.751 146.577C189.093 146.161 189.553 145.936 189.944 145.893L194.465 185.637C214.827 183.439 230.36 165.353 227.965 144.298L188.196 148.591ZM189.944 145.893C190.335 145.851 190.835 145.973 191.262 146.306C191.699 146.647 192.161 147.305 192.257 148.153L152.488 152.446C154.883 173.502 174.104 187.835 194.465 185.637L189.944 145.893ZM192.257 148.153C192.353 149 192.051 149.741 191.702 150.167C191.36 150.583 190.899 150.808 190.508 150.85L185.987 111.106C165.626 113.305 150.093 131.391 152.488 152.446L192.257 148.153ZM190.508 150.85C190.117 150.892 189.617 150.771 189.19 150.438C188.753 150.097 188.292 149.439 188.196 148.591L227.965 144.298C225.57 123.242 206.349 108.908 185.987 111.106L190.508 150.85Z" fill="#012758" mask="url(#path-12-inside-2_38_1044)"/>
<ellipse cx="7.88433" cy="7.68162" rx="7.88433" ry="7.68162" transform="matrix(0.99935 -0.0360485 0.0379789 0.999278 321.34 217.291)" fill="#012758"/>
<ellipse cx="7.88216" cy="7.68383" rx="7.88216" ry="7.68383" transform="matrix(0.994223 -0.107338 0.113022 0.993593 295.674 89.1966)" fill="#4E7411"/>
<ellipse cx="7.88433" cy="7.68162" rx="7.88433" ry="7.68162" transform="matrix(0.99935 -0.0360485 0.0379789 0.999278 359.563 172.504)" fill="#4E7411"/>
<ellipse cx="156.863" cy="230.265" rx="7.8846" ry="7.68134" fill="#4E7411"/>
<ellipse cx="7.88433" cy="7.68162" rx="7.88433" ry="7.68162" transform="matrix(0.99935 -0.0360485 0.0379789 0.999278 332.095 251.306)" fill="#012758"/>
<ellipse cx="7.88433" cy="7.68162" rx="7.88433" ry="7.68162" transform="matrix(0.99935 -0.0360485 0.0379789 0.999278 340.888 279.114)" fill="#012758"/>
<path d="M542.33 545.341C505.092 522.452 490.187 476.281 512.712 441.5C535.237 406.72 584.43 399.948 621.668 422.837C658.906 445.727 673.811 491.898 651.286 526.678C628.761 561.459 579.568 568.23 542.33 545.341Z" fill="#6ED5A6" stroke="#012758" stroke-width="20"/>
<path d="M553.856 433.575C586.869 421.042 625.313 440.082 639.722 476.104" stroke="#FCF6EA" stroke-width="20" stroke-linecap="round"/>
<ellipse cx="11.0277" cy="10.7434" rx="11.0277" ry="10.7434" transform="matrix(-1 0 0 1 542.55 441.096)" fill="#FCF6EA"/>
<path fill-rule="evenodd" clip-rule="evenodd" d="M514.19 460.84C504.942 488.2 517.754 520.776 546.752 538.601C575.242 556.113 610.197 553.756 631.676 534.786C593.909 526.464 545.16 505.486 514.19 460.84Z" fill="#24A98E"/>
<path d="M574.149 402.188C591.403 448.266 606.435 546.21 528.539 569.365C450.643 592.52 526.489 467.562 574.149 402.188Z" fill="#6ED5A6" stroke="#012758" stroke-width="20"/>
<path d="M551 218.188C523.068 218.188 500 196.034 500 168.188C500 140.343 523.068 118.188 551 118.188C578.932 118.188 602 140.343 602 168.188C602 196.034 578.932 218.188 551 218.188Z" fill="#FDE7D2" stroke="#062855" stroke-width="20"/>
<ellipse cx="26" cy="25.5" rx="26" ry="25.5" transform="matrix(-1 0 0 1 577 142.188)" fill="#022656"/>
<mask id="path-27-outside-3_38_1044" maskUnits="userSpaceOnUse" x="189.287" y="126.872" width="454" height="466" fill="black">
<rect fill="white" x="189.287" y="126.872" width="454" height="466"/>
<path fill-rule="evenodd" clip-rule="evenodd" d="M567.452 406.934C601.508 380.123 623.287 339.1 623.287 293.122C623.287 212.35 556.076 146.872 473.167 146.872C416.838 146.872 367.755 177.096 342.073 221.807C305.434 234.877 271.681 259.354 246.857 293.931C186.58 377.89 201.783 489.608 280.815 543.459C359.846 597.31 472.778 572.902 533.055 488.943C551.411 463.375 562.767 435.232 567.452 406.934Z"/>
</mask>
<path fill-rule="evenodd" clip-rule="evenodd" d="M567.452 406.934C601.508 380.123 623.287 339.1 623.287 293.122C623.287 212.35 556.076 146.872 473.167 146.872C416.838 146.872 367.755 177.096 342.073 221.807C305.434 234.877 271.681 259.354 246.857 293.931C186.58 377.89 201.783 489.608 280.815 543.459C359.846 597.31 472.778 572.902 533.055 488.943C551.411 463.375 562.767 435.232 567.452 406.934Z" fill="#6ED5A6"/>
<path d="M567.452 406.934L547.721 403.667L548.988 396.016L555.081 391.219L567.452 406.934ZM342.073 221.807L359.416 231.769L355.741 238.166L348.793 240.644L342.073 221.807ZM246.857 293.931L230.61 282.267V282.267L246.857 293.931ZM280.815 543.459L292.077 526.931L280.815 543.459ZM533.055 488.943L516.808 477.279L533.055 488.943ZM555.081 391.219C584.62 367.965 603.287 332.598 603.287 293.122H643.287C643.287 345.603 618.396 392.282 579.824 422.649L555.081 391.219ZM603.287 293.122C603.287 223.885 545.526 166.872 473.167 166.872V126.872C566.626 126.872 643.287 200.815 643.287 293.122H603.287ZM473.167 166.872C424.11 166.872 381.586 193.171 359.416 231.769L324.73 211.846C353.923 161.022 409.566 126.872 473.167 126.872V166.872ZM348.793 240.644C315.919 252.372 285.514 274.379 263.104 305.595L230.61 282.267C257.847 244.329 294.95 217.383 335.353 202.97L348.793 240.644ZM263.104 305.595C208.478 381.682 223.562 480.246 292.077 526.931L269.553 559.987C180.005 498.97 164.682 374.099 230.61 282.267L263.104 305.595ZM292.077 526.931C360.995 573.892 462.023 553.588 516.808 477.279L549.301 500.607C483.532 592.216 358.697 620.729 269.553 559.987L292.077 526.931ZM516.808 477.279C533.379 454.198 543.539 428.927 547.721 403.667L587.184 410.201C581.995 441.537 569.443 472.551 549.301 500.607L516.808 477.279Z" fill="#012758" mask="url(#path-27-outside-3_38_1044)"/>
<path fill-rule="evenodd" clip-rule="evenodd" d="M623.287 293.122C623.287 339.101 601.508 380.124 567.452 406.934C562.767 435.233 551.411 463.375 533.055 488.943C477.121 566.853 375.847 593.484 298.394 553.888L510.809 271.432L613.139 240.156C619.692 256.579 623.287 274.442 623.287 293.122Z" fill="#FFF3E5"/>
<path d="M408.217 175.932C446.918 141.01 516.596 148.334 551.171 184.701" stroke="#FCF6EA" stroke-width="20" stroke-linecap="round"/>
<line x1="10" y1="-10" x2="17.8641" y2="-10" transform="matrix(-0.753036 0.65798 0.677306 0.735702 362.384 288.185)" stroke="#012758" stroke-width="20" stroke-linecap="round"/>
<line x1="10" y1="-10" x2="18.453" y2="-10" transform="matrix(-0.772295 0.635264 0.654935 0.755686 322.312 289.216)" stroke="#012758" stroke-width="20" stroke-linecap="round"/>
<line x1="10" y1="-10" x2="22.9372" y2="-10" transform="matrix(-0.759621 0.650366 0.669819 0.742524 364.686 243.338)" stroke="#012758" stroke-width="20" stroke-linecap="round"/>
<path d="M387.5 218.188C359.727 218.188 337 195.919 337 168.188C337 140.457 359.727 118.188 387.5 118.188C415.273 118.188 438 140.457 438 168.188C438 195.919 415.273 218.188 387.5 218.188Z" fill="#FDE7D2" stroke="#062855" stroke-width="20"/>
<ellipse cx="26" cy="25.5" rx="26" ry="25.5" transform="matrix(-1 0 0 1 414 142.188)" fill="#022656"/>
<ellipse cx="16.5" cy="16" rx="16.5" ry="16" transform="matrix(-1 0 0 1 554 200.188)" fill="#022656"/>
<ellipse cx="16.5" cy="16" rx="16.5" ry="16" transform="matrix(-1 0 0 1 487 200.188)" fill="#022656"/>
<path d="M604 239.188C574.025 257.59 494.661 285.561 417 250.229" stroke="#012758" stroke-width="20" stroke-linecap="round"/>
<path d="M206.731 545.341C169.494 522.452 154.588 476.281 177.113 441.5C199.638 406.72 248.831 399.948 286.069 422.837C323.307 445.727 338.213 491.898 315.687 526.678C293.162 561.459 243.969 568.23 206.731 545.341Z" fill="#6ED5A6" stroke="#012758" stroke-width="20"/>
<path d="M218.258 433.575C251.271 421.042 289.714 440.082 304.123 476.104" stroke="#FCF6EA" stroke-width="20" stroke-linecap="round"/>
<ellipse cx="11.0277" cy="10.7434" rx="11.0277" ry="10.7434" transform="matrix(-1 0 0 1 206.951 441.096)" fill="#FCF6EA"/>
<path fill-rule="evenodd" clip-rule="evenodd" d="M178.592 460.84C169.343 488.2 182.155 520.776 211.153 538.601C239.643 556.113 274.599 553.756 296.078 534.786C258.31 526.464 209.561 505.486 178.592 460.84Z" fill="#24A98E"/>
<path d="M281 566.188C281 576.585 289.633 585.188 300.5 585.188C311.367 585.188 320 576.585 320 566.188C320 555.791 311.367 547.188 300.5 547.188C289.633 547.188 281 555.791 281 566.188Z" fill="#6ED5A6" stroke="#012758" stroke-width="10"/>
<path d="M246 578.188C246 588.4 254.888 597.188 266.5 597.188C278.111 597.188 287 588.4 287 578.188C287 567.976 278.111 559.188 266.5 559.188C254.888 559.188 246 567.976 246 578.188Z" fill="#6ED5A6" stroke="#012758" stroke-width="10"/>
<path d="M209 576.688C209 586.807 217.407 595.188 228 595.188C238.593 595.188 247 586.807 247 576.688C247 566.57 238.593 558.188 228 558.188C217.407 558.188 209 566.57 209 576.688Z" fill="#6ED5A6" stroke="#012758" stroke-width="10"/>
<path d="M399.888 413.804L401.056 415.545L401.427 417.609C405.362 439.518 411.656 472.72 417.743 501.114C420.791 515.33 423.76 528.212 426.334 537.834C427.628 542.666 428.775 546.498 429.737 549.202C430.17 550.418 430.514 551.26 430.761 551.793C435.342 556.326 437.372 561.527 438.359 564.055C438.392 564.139 438.424 564.22 438.454 564.298H449.234L447.1 576.08C446.67 578.452 445.543 581.916 442.35 584.468C438.951 587.184 435.159 587.343 432.691 587.001C430.371 586.68 428.361 585.828 427.038 585.197C425.623 584.522 424.232 583.721 423.101 583.057C422.745 582.847 422.409 582.649 422.091 582.461C420.415 581.473 419.231 580.774 418.198 580.289L417.607 580.625L414.62 580.431C410.247 580.147 409.598 580.41 409.443 580.473L409.443 580.473L409.44 580.474C409.367 580.503 408.434 580.871 405.571 584.421L403.397 587.117L400.022 587.89C398.502 588.239 397.535 588.485 396.509 588.745C395.564 588.986 394.57 589.238 393.05 589.595C390.928 590.094 387.921 590.753 385.17 590.753C383.838 590.753 381.398 590.623 378.907 589.363C375.804 587.794 373.345 584.804 372.752 580.867C372.279 577.717 373.179 575.045 373.818 573.521C374.533 571.82 375.52 570.176 376.565 568.65C376.949 568.088 377.311 567.562 377.654 567.064C378.934 565.204 379.933 563.75 380.783 562.362C381.84 560.637 382.216 559.709 382.344 559.228C382.359 559.17 382.369 559.126 382.375 559.095C382.303 558.9 381.978 558.162 380.761 556.808C376.181 551.708 362.401 532.805 349.844 511.535C343.511 500.808 337.314 489.189 332.671 478.134C328.134 467.331 324.63 456.039 324.63 446.296V445.847L324.671 445.399C326.547 424.563 342.252 411.743 357.161 406.337C364.714 403.597 372.8 402.434 380.095 403.21C387.123 403.957 395.16 406.76 399.888 413.804ZM431.031 552.318C431.032 552.315 431.009 552.272 430.96 552.196C431.007 552.284 431.031 552.321 431.031 552.318ZM416.916 579.796C416.919 579.801 416.981 579.82 417.093 579.839C416.969 579.8 416.913 579.791 416.916 579.796Z" fill="#6DD4A6" stroke="#012758" stroke-width="20" stroke-linecap="round"/>
<path d="M423.539 574.489C422.035 584.666 429.288 594.32 440.041 595.829C450.794 597.338 460.549 590.071 462.054 579.893C463.558 569.716 456.305 560.062 445.552 558.553C434.799 557.044 425.044 564.311 423.539 574.489Z" fill="#6ED5A6" stroke="#012758" stroke-width="10"/>
<path d="M542.846 567.028C541.341 577.206 548.594 586.86 559.347 588.369C570.1 589.878 579.855 582.61 581.36 572.433C582.865 562.255 575.612 552.601 564.858 551.092C554.105 549.583 544.351 556.851 542.846 567.028Z" fill="#6ED5A6" stroke="#012758" stroke-width="10"/>
<path d="M386.034 585.949C384.529 596.126 391.782 605.78 402.535 607.289C413.288 608.798 423.043 601.531 424.548 591.353C426.053 581.176 418.8 571.522 408.046 570.013C397.293 568.504 387.539 575.771 386.034 585.949Z" fill="#6ED5A6" stroke="#012758" stroke-width="10"/>
<path d="M505.34 578.488C503.836 588.666 511.089 598.32 521.842 599.829C532.595 601.338 542.35 594.07 543.855 583.893C545.359 573.715 538.106 564.061 527.353 562.552C516.6 561.043 506.845 568.311 505.34 578.488Z" fill="#6ED5A6" stroke="#012758" stroke-width="10"/>
<path d="M349.972 574.359C348.467 584.536 355.72 594.19 366.474 595.699C377.227 597.208 386.982 589.941 388.486 579.763C389.991 569.586 382.738 559.932 371.985 558.423C361.232 556.914 351.477 564.181 349.972 574.359Z" fill="#6ED5A6" stroke="#012758" stroke-width="10"/>
<path d="M469.279 566.898C467.774 577.076 475.027 586.73 485.78 588.239C496.534 589.748 506.288 582.48 507.793 572.303C509.298 562.125 502.045 552.471 491.292 550.962C480.539 549.453 470.784 556.721 469.279 566.898Z" fill="#6ED5A6" stroke="#012758" stroke-width="10"/>
<rect x="-6.5633" y="12.409" width="121.043" height="57.6948" rx="28.8474" transform="matrix(0.301472 0.953475 -0.957802 0.287428 263.175 260.024)" fill="#BE8F65" stroke="#012758" stroke-width="20"/>
<ellipse cx="7.88433" cy="7.68162" rx="7.88433" ry="7.68162" transform="matrix(0.99935 -0.0360485 0.0379789 0.999278 223.241 289.012)" fill="#012758"/>
<ellipse cx="7.88433" cy="7.68162" rx="7.88433" ry="7.68162" transform="matrix(0.99935 -0.0360485 0.0379789 0.999278 233.997 323.028)" fill="#012758"/>
<ellipse cx="7.88433" cy="7.68162" rx="7.88433" ry="7.68162" transform="matrix(0.99935 -0.0360485 0.0379789 0.999278 242.789 350.836)" fill="#012758"/>
<path d="M513.743 292.188C544.65 292.188 571.852 281.361 591.27 269.666C600.989 263.812 608.862 257.68 614.368 252.446C617.111 249.838 619.348 247.376 620.942 245.215C621.737 244.138 622.439 243.045 622.963 241.974C623.438 241.003 624 239.589 624 237.998C624 234.621 623.143 230.585 619.43 228.428C616.173 226.536 612.361 227.176 609.585 227.947C606.527 228.797 602.995 230.328 599.238 232.118C596.566 233.391 593.608 234.88 590.463 236.463C589.157 237.121 587.819 237.794 586.456 238.475C567.611 247.889 542.223 259.587 513.743 259.587C485.47 259.587 461.639 251.656 444.189 245.849C443.834 245.73 443.481 245.613 443.131 245.496C438.778 244.049 434.747 242.722 431.199 241.741C427.699 240.773 424.337 240.046 421.376 239.951C418.459 239.857 415.048 240.351 412.424 242.812C409.769 245.303 409 248.785 409 252.145C409 253.681 409.499 255.022 410.005 256.022C410.532 257.064 411.231 258.056 411.996 258.978C413.525 260.822 415.632 262.762 418.158 264.715C423.234 268.639 430.481 272.978 439.511 277.02C457.594 285.113 483.223 292.188 513.743 292.188Z" fill="#1E1E1E" stroke="#012758" stroke-width="10"/>
<path d="M588.408 283.155C591.481 282.256 597.828 281.252 607.45 280.213C616.932 279.19 629.231 278.167 643.955 277.15C673.396 275.116 712.379 273.114 757.598 271.165C848.028 267.268 963.268 263.591 1076.71 260.306C1147.81 258.248 1218.17 256.344 1281.29 254.637C1318.89 253.619 1353.92 252.671 1384.99 251.802C1426.59 250.638 1461.09 249.616 1485.16 248.755C1497.19 248.325 1506.65 247.934 1513.09 247.586C1516.3 247.412 1518.81 247.246 1520.54 247.086C1521.39 247.008 1522.16 246.921 1522.77 246.816C1523.03 246.772 1523.5 246.684 1523.99 246.514C1524.18 246.45 1524.8 246.235 1525.45 245.752C1525.92 245.407 1528.23 243.466 1527.3 240.284C1526.8 238.568 1525.61 237.642 1525.09 237.284C1524.47 236.864 1523.86 236.606 1523.43 236.446C1522.55 236.12 1521.53 235.89 1520.55 235.711C1518.52 235.343 1515.75 235.035 1512.38 234.769C1505.6 234.233 1495.84 233.822 1483.57 233.52C1459.02 232.918 1424.13 232.75 1382.23 232.945C1298.43 233.335 1186.45 235.182 1072.83 237.932C959.2 240.683 843.889 244.338 753.409 248.35C708.173 250.355 669.114 252.451 639.564 254.569C624.792 255.628 612.36 256.695 602.703 257.763C593.183 258.815 585.993 259.905 581.951 261.088C554.558 269.104 530.199 271.429 512.579 273.111C512.199 273.147 511.821 273.183 511.447 273.219C502.791 274.046 495.321 274.776 490.282 276.15C487.824 276.82 485.115 277.844 483.182 279.758C482.128 280.801 481.27 282.142 480.879 283.784C480.493 285.405 480.643 286.974 481.052 288.37C481.646 290.401 483.166 291.498 483.88 291.951C484.751 292.503 485.723 292.9 486.619 293.2C488.442 293.809 490.787 294.288 493.48 294.652C498.917 295.387 506.473 295.747 515.671 295.45C534.098 294.856 559.504 291.613 588.408 283.155Z" fill="#FAAFAF" stroke="#012758" stroke-width="10"/>
<path d="M1489.55 120.221C1491 123.159 1491.9 125.996 1492.2 128.198C1492.35 129.301 1492.35 130.216 1492.2 130.894C1492.06 131.58 1491.79 131.937 1491.49 132.084C1491.19 132.231 1490.75 132.225 1490.12 131.923C1489.49 131.624 1488.76 131.07 1487.98 130.278C1486.42 128.697 1484.72 126.252 1483.27 123.314C1481.83 120.376 1480.92 117.539 1480.62 115.337C1480.47 114.234 1480.47 113.318 1480.62 112.64C1480.76 111.955 1481.03 111.598 1481.33 111.451C1481.63 111.303 1482.08 111.309 1482.71 111.611C1483.33 111.91 1484.06 112.465 1484.84 113.257C1486.41 114.838 1488.1 117.283 1489.55 120.221Z" fill="#D9D9D9" stroke="black"/>
<path d="M822.384 120.916C821.181 123.962 819.687 126.538 818.259 128.24C817.543 129.093 816.863 129.705 816.263 130.054C815.658 130.407 815.214 130.449 814.904 130.326C814.594 130.204 814.299 129.87 814.098 129.199C813.898 128.534 813.82 127.623 813.88 126.51C814.001 124.292 814.67 121.391 815.873 118.345C817.077 115.299 818.57 112.723 819.998 111.021C820.714 110.167 821.395 109.556 821.994 109.207C822.6 108.854 823.043 108.812 823.354 108.935C823.664 109.057 823.959 109.391 824.16 110.062C824.359 110.726 824.438 111.638 824.377 112.75C824.256 114.969 823.587 117.87 822.384 120.916Z" fill="#D9D9D9" stroke="black"/>
<path d="M1143.38 299.916C1142.18 302.962 1140.69 305.538 1139.26 307.24C1138.54 308.093 1137.86 308.705 1137.26 309.054C1136.66 309.407 1136.21 309.449 1135.9 309.326C1135.59 309.204 1135.3 308.87 1135.1 308.199C1134.9 307.534 1134.82 306.623 1134.88 305.51C1135 303.292 1135.67 300.391 1136.87 297.345C1138.08 294.299 1139.57 291.723 1141 290.021C1141.71 289.167 1142.39 288.556 1142.99 288.207C1143.6 287.854 1144.04 287.812 1144.35 287.935C1144.66 288.057 1144.96 288.391 1145.16 289.062C1145.36 289.726 1145.44 290.638 1145.38 291.75C1145.26 293.969 1144.59 296.87 1143.38 299.916Z" fill="#D9D9D9" stroke="black"/>
<path d="M1496.73 116.686C1498.18 119.624 1499.08 122.461 1499.38 124.663C1499.53 125.766 1499.53 126.682 1499.38 127.36C1499.24 128.045 1498.97 128.402 1498.67 128.549C1498.37 128.697 1497.92 128.691 1497.29 128.389C1496.67 128.09 1495.94 127.535 1495.16 126.743C1493.59 125.162 1491.9 122.717 1490.45 119.779C1489 116.841 1488.1 114.004 1487.8 111.802C1487.65 110.699 1487.65 109.784 1487.8 109.106C1487.94 108.42 1488.21 108.063 1488.51 107.916C1488.81 107.769 1489.25 107.775 1489.88 108.077C1490.51 108.376 1491.24 108.93 1492.02 109.722C1493.58 111.303 1495.28 113.748 1496.73 116.686Z" fill="#D9D9D9" stroke="black"/>
<path d="M829.824 123.855C828.621 126.901 827.128 129.477 825.7 131.179C824.984 132.032 824.303 132.644 823.704 132.993C823.098 133.346 822.655 133.388 822.344 133.265C822.034 133.143 821.739 132.809 821.538 132.138C821.339 131.473 821.26 130.562 821.321 129.449C821.441 127.231 822.111 124.329 823.314 121.284C824.517 118.238 826.011 115.662 827.439 113.96C828.155 113.106 828.835 112.495 829.435 112.146C830.04 111.793 830.484 111.751 830.794 111.873C831.104 111.996 831.399 112.33 831.6 113.001C831.799 113.665 831.878 114.577 831.818 115.689C831.697 117.908 831.028 120.809 829.824 123.855Z" fill="#D9D9D9" stroke="black"/>
<path d="M1150.83 302.855C1149.62 305.901 1148.13 308.477 1146.7 310.179C1145.98 311.032 1145.3 311.644 1144.7 311.993C1144.1 312.346 1143.66 312.388 1143.35 312.265C1143.04 312.143 1142.74 311.809 1142.54 311.138C1142.34 310.473 1142.26 309.562 1142.32 308.449C1142.44 306.231 1143.11 303.329 1144.31 300.284C1145.52 297.238 1147.01 294.662 1148.44 292.96C1149.16 292.106 1149.84 291.495 1150.44 291.146C1151.04 290.793 1151.48 290.751 1151.79 290.873C1152.11 290.996 1152.4 291.33 1152.6 292.001C1152.8 292.665 1152.88 293.577 1152.82 294.689C1152.7 296.908 1152.03 299.809 1150.83 302.855Z" fill="#D9D9D9" stroke="black"/>
<ellipse cx="1490.88" cy="121.794" rx="4" ry="8" transform="rotate(-26.2207 1490.88 121.794)" fill="black"/>
<ellipse cx="822.115" cy="122.96" rx="4" ry="8" transform="rotate(21.5535 822.115 122.96)" fill="black"/>
<ellipse cx="1143.12" cy="301.96" rx="4" ry="8" transform="rotate(21.5535 1143.12 301.96)" fill="black"/>
</g>
<defs>
<clipPath id="clip0_38_1044">
<rect width="1533" height="615.632" fill="white"/>
</clipPath>
</defs>
</svg>
