<svg width="2324" height="389" viewBox="0 0 2324 389" fill="none" xmlns="http://www.w3.org/2000/svg">
<path d="M22.9646 300.296C16.8313 300.296 11.498 298.029 6.96465 293.496C2.43132 288.963 0.16465 283.629 0.16465 277.496V31.0959C0.16465 24.9625 2.43132 19.6292 6.96465 15.0959C11.498 10.5626 16.8313 8.29589 22.9646 8.29589H160.165C166.298 8.29589 171.631 10.5626 176.165 15.0959C180.698 19.6292 182.965 24.9625 182.965 31.0959V40.2959C182.965 46.4292 180.698 51.7626 176.165 56.2959C171.631 60.8292 166.298 63.0959 160.165 63.0959H71.7647C69.3647 63.0959 68.1647 64.1625 68.1647 66.2959V125.896C68.1647 128.296 69.3647 129.496 71.7647 129.496H152.165C158.298 129.496 163.631 131.763 168.165 136.296C172.698 140.563 174.965 145.763 174.965 151.896V158.296C174.965 164.429 172.698 169.763 168.165 174.296C163.631 178.563 158.298 180.696 152.165 180.696H71.7647C69.3647 180.696 68.1647 181.896 68.1647 184.296V277.496C68.1647 283.629 65.898 288.963 61.3647 293.496C57.098 298.029 51.898 300.296 45.7647 300.296H22.9646ZM290.652 304.296C267.185 304.296 250.119 297.763 239.452 284.696C229.052 271.629 223.852 249.229 223.852 217.496V115.096C223.852 108.963 226.119 103.629 230.652 99.0959C235.185 94.5626 240.519 92.2959 246.652 92.2959H264.252C270.385 92.2959 275.719 94.5626 280.252 99.0959C284.785 103.629 287.052 108.963 287.052 115.096V213.096C287.052 228.563 289.052 239.229 293.052 245.096C297.319 250.696 304.519 253.496 314.652 253.496C323.985 253.496 332.519 249.763 340.252 242.296C347.985 234.563 351.852 226.296 351.852 217.496V115.096C351.852 108.963 354.119 103.629 358.652 99.0959C363.185 94.5626 368.519 92.2959 374.652 92.2959H393.852C399.985 92.2959 405.319 94.5626 409.852 99.0959C414.385 103.629 416.652 108.963 416.652 115.096V277.496C416.652 283.629 414.385 288.963 409.852 293.496C405.319 298.029 399.985 300.296 393.852 300.296H377.452C371.052 300.296 365.585 298.163 361.052 293.896C356.785 289.363 354.519 283.896 354.252 277.496V274.296C354.252 274.029 354.119 273.896 353.852 273.896L353.052 274.696C335.719 294.429 314.919 304.296 290.652 304.296ZM502.402 300.296C496.269 300.296 490.935 298.029 486.402 293.496C481.869 288.963 479.602 283.629 479.602 277.496V23.0959C479.602 16.9626 481.869 11.6292 486.402 7.09588C490.935 2.56254 496.269 0.295875 502.402 0.295875H524.802C530.935 0.295875 536.269 2.56254 540.802 7.09588C545.335 11.6292 547.602 16.9626 547.602 23.0959V277.496C547.602 283.629 545.335 288.963 540.802 293.496C536.269 298.029 530.935 300.296 524.802 300.296H502.402ZM635.215 300.296C629.081 300.296 623.748 298.029 619.215 293.496C614.681 288.963 612.415 283.629 612.415 277.496V23.0959C612.415 16.9626 614.681 11.6292 619.215 7.09588C623.748 2.56254 629.081 0.295875 635.215 0.295875H657.615C663.748 0.295875 669.081 2.56254 673.615 7.09588C678.148 11.6292 680.415 16.9626 680.415 23.0959V277.496C680.415 283.629 678.148 288.963 673.615 293.496C669.081 298.029 663.748 300.296 657.615 300.296H635.215ZM798.64 297.096L731.04 113.496C728.906 108.429 729.44 103.629 732.64 99.0959C735.84 94.5626 740.24 92.2959 745.84 92.2959H771.04C777.44 92.2959 783.306 94.4292 788.64 98.6959C793.973 102.696 797.44 107.896 799.04 114.296L829.44 238.696C829.44 238.963 829.573 239.096 829.84 239.096C830.106 239.096 830.24 238.963 830.24 238.696L866.64 113.896C868.24 107.496 871.706 102.296 877.04 98.2959C882.64 94.2959 888.906 92.2959 895.84 92.2959H917.84C923.173 92.2959 927.44 94.5626 930.64 99.0959C933.84 103.629 934.506 108.429 932.64 113.496L838.24 367.096C835.84 373.496 831.84 378.563 826.24 382.296C820.64 386.296 814.506 388.296 807.84 388.296H785.84C780.24 388.296 775.973 386.029 773.04 381.496C770.106 377.229 769.706 372.563 771.84 367.496L798.64 303.496C798.906 302.429 799.04 301.363 799.04 300.296C799.04 299.229 798.906 298.163 798.64 297.096ZM1038.06 176.296V246.696C1038.06 249.096 1039.26 250.563 1041.66 251.096C1047.26 252.163 1054.06 252.696 1062.06 252.696C1080.99 252.696 1094.86 249.229 1103.66 242.296C1112.46 235.096 1116.86 224.163 1116.86 209.496C1116.86 184.963 1096.86 172.696 1056.86 172.696H1041.26C1039.13 172.696 1038.06 173.896 1038.06 176.296ZM1038.06 61.8959V120.696C1038.06 122.829 1039.13 123.896 1041.26 123.896H1051.26C1090.19 123.896 1109.66 112.296 1109.66 89.0959C1109.66 66.9626 1093.39 55.8959 1060.86 55.8959C1053.13 55.8959 1046.59 56.4292 1041.26 57.4959C1039.13 58.0292 1038.06 59.4959 1038.06 61.8959ZM993.658 301.096C987.258 300.563 981.925 297.763 977.658 292.696C973.392 287.629 971.258 281.896 971.258 275.496V33.0959C971.258 26.4292 973.392 20.6959 977.658 15.8959C982.192 10.8292 987.658 8.02922 994.058 7.49588C1014.86 5.36256 1035.26 4.29589 1055.26 4.29589C1132.59 4.29589 1171.26 29.2292 1171.26 79.0959C1171.26 95.8959 1165.79 110.163 1154.86 121.896C1144.19 133.629 1129.79 141.096 1111.66 144.296C1111.39 144.296 1111.26 144.563 1111.26 145.096C1111.26 145.363 1111.53 145.496 1112.06 145.496C1133.13 148.429 1149.79 156.429 1162.06 169.496C1174.59 182.563 1180.86 198.163 1180.86 216.296C1180.86 245.896 1170.99 268.029 1151.26 282.696C1131.79 297.096 1101.13 304.296 1059.26 304.296C1038.19 304.296 1016.33 303.229 993.658 301.096ZM1308.8 131.896C1296.8 131.896 1287.74 135.096 1281.6 141.496C1275.47 147.629 1271.6 158.296 1270 173.496C1270 175.629 1270.94 176.696 1272.8 176.696H1340.4C1342.8 176.696 1344 175.496 1344 173.096C1342.94 145.629 1331.2 131.896 1308.8 131.896ZM1318.8 304.296C1282.54 304.296 1254.54 295.096 1234.8 276.696C1215.34 258.296 1205.6 231.496 1205.6 196.296C1205.6 161.363 1214.27 134.696 1231.6 116.296C1249.2 97.6292 1274.54 88.2959 1307.6 88.2959C1371.07 88.2959 1403.34 122.963 1404.4 192.296C1404.4 198.696 1401.87 204.163 1396.8 208.696C1392 212.963 1386.4 215.096 1380 215.096H1273.2C1270.54 215.096 1269.47 216.296 1270 218.696C1272.14 233.363 1277.74 243.896 1286.8 250.296C1296.14 256.429 1310 259.496 1328.4 259.496C1340.4 259.496 1353.34 257.763 1367.2 254.296C1372.8 252.963 1377.74 254.029 1382 257.496C1386.54 260.963 1388.8 265.496 1388.8 271.096V271.896C1388.8 278.563 1386.67 284.696 1382.4 290.296C1378.4 295.629 1373.2 298.829 1366.8 299.896C1351.34 302.829 1335.34 304.296 1318.8 304.296ZM1490.83 297.096L1423.23 113.496C1421.09 108.429 1421.63 103.629 1424.83 99.0959C1428.03 94.5626 1432.43 92.2959 1438.03 92.2959H1463.23C1469.63 92.2959 1475.49 94.4292 1480.83 98.6959C1486.16 102.696 1489.63 107.896 1491.23 114.296L1521.63 238.696C1521.63 238.963 1521.76 239.096 1522.03 239.096C1522.29 239.096 1522.43 238.963 1522.43 238.696L1558.83 113.896C1560.43 107.496 1563.89 102.296 1569.23 98.2959C1574.83 94.2959 1581.09 92.2959 1588.03 92.2959H1610.03C1615.36 92.2959 1619.63 94.5626 1622.83 99.0959C1626.03 103.629 1626.69 108.429 1624.83 113.496L1530.43 367.096C1528.03 373.496 1524.03 378.563 1518.43 382.296C1512.83 386.296 1506.69 388.296 1500.03 388.296H1478.03C1472.43 388.296 1468.16 386.029 1465.23 381.496C1462.29 377.229 1461.89 372.563 1464.03 367.496L1490.83 303.496C1491.09 302.429 1491.23 301.363 1491.23 300.296C1491.23 299.229 1491.09 298.163 1490.83 297.096ZM1769.69 148.296C1763.29 138.429 1753.42 133.496 1740.09 133.496C1726.76 133.496 1716.76 138.429 1710.09 148.296C1703.69 158.163 1700.49 174.163 1700.49 196.296C1700.49 218.429 1703.69 234.429 1710.09 244.296C1716.76 254.163 1726.76 259.096 1740.09 259.096C1753.42 259.096 1763.29 254.163 1769.69 244.296C1776.36 234.429 1779.69 218.429 1779.69 196.296C1779.69 174.163 1776.36 158.163 1769.69 148.296ZM1817.29 275.896C1798.89 294.829 1773.16 304.296 1740.09 304.296C1707.02 304.296 1681.29 294.829 1662.89 275.896C1644.49 256.963 1635.29 230.429 1635.29 196.296C1635.29 162.163 1644.49 135.629 1662.89 116.696C1681.29 97.7626 1707.02 88.2959 1740.09 88.2959C1773.16 88.2959 1798.89 97.7626 1817.29 116.696C1835.69 135.629 1844.89 162.163 1844.89 196.296C1844.89 230.429 1835.69 256.963 1817.29 275.896ZM1906.06 300.296C1899.93 300.296 1894.6 298.029 1890.06 293.496C1885.8 288.963 1883.66 283.629 1883.66 277.496V115.096C1883.66 108.963 1885.8 103.629 1890.06 99.0959C1894.6 94.5626 1899.93 92.2959 1906.06 92.2959H1922.46C1928.86 92.2959 1934.2 94.5626 1938.46 99.0959C1943 103.363 1945.4 108.696 1945.66 115.096L1946.06 118.296C1946.06 118.563 1946.2 118.696 1946.46 118.696L1947.26 117.896C1964.6 98.1626 1985.4 88.2959 2009.66 88.2959C2033.93 88.2959 2051.4 95.2292 2062.06 109.096C2072.73 122.696 2078.06 146.029 2078.06 179.096V277.496C2078.06 283.629 2075.8 288.963 2071.26 293.496C2067 298.029 2061.8 300.296 2055.66 300.296H2038.06C2031.93 300.296 2026.6 298.029 2022.06 293.496C2017.53 288.963 2015.26 283.629 2015.26 277.496V181.096C2015.26 165.096 2013.13 154.163 2008.86 148.296C2004.6 142.163 1996.86 139.096 1985.66 139.096C1976.33 139.096 1967.66 142.963 1959.66 150.696C1951.93 158.163 1948.06 166.296 1948.06 175.096V277.496C1948.06 283.629 1945.8 288.963 1941.26 293.496C1937 298.029 1931.8 300.296 1925.66 300.296H1906.06ZM2220.18 136.296C2193.51 136.296 2180.18 156.296 2180.18 196.296C2180.18 216.563 2183.78 231.629 2190.98 241.496C2198.18 251.363 2207.91 256.296 2220.18 256.296C2230.84 256.296 2240.18 252.696 2248.18 245.496C2256.18 238.296 2260.18 230.163 2260.18 221.096V171.496C2260.18 162.429 2256.18 154.296 2248.18 147.096C2240.18 139.896 2230.84 136.296 2220.18 136.296ZM2198.18 304.296C2174.44 304.296 2154.98 294.829 2139.78 275.896C2124.58 256.696 2116.98 230.163 2116.98 196.296C2116.98 161.629 2124.31 134.963 2138.98 116.296C2153.64 97.6292 2173.38 88.2959 2198.18 88.2959C2220.04 88.2959 2239.91 96.4292 2257.78 112.696C2258.04 112.963 2258.31 113.096 2258.58 113.096C2258.84 113.096 2258.98 112.963 2258.98 112.696V23.0959C2258.98 16.9626 2261.11 11.6292 2265.38 7.09588C2269.91 2.56254 2275.24 0.295875 2281.38 0.295875H2300.98C2307.11 0.295875 2312.31 2.56254 2316.58 7.09588C2321.11 11.6292 2323.38 16.9626 2323.38 23.0959V277.496C2323.38 283.629 2321.11 288.963 2316.58 293.496C2312.31 298.029 2307.11 300.296 2300.98 300.296H2285.78C2279.38 300.296 2273.91 298.163 2269.38 293.896C2265.11 289.363 2262.84 283.896 2262.58 277.496V274.296C2262.58 274.029 2262.44 273.896 2262.18 273.896L2261.38 274.696C2244.58 294.429 2223.51 304.296 2198.18 304.296Z" fill="#012758"/>
</svg>
