<svg width="2324" height="389" viewBox="0 0 2324 389" fill="none" xmlns="http://www.w3.org/2000/svg">
<mask id="path-1-outside-1_23_230" maskUnits="userSpaceOnUse" x="-15.2354" y="-14.704" width="2354" height="418" fill="black">
<rect fill="white" x="-15.2354" y="-14.704" width="2354" height="418"/>
<path d="M22.9646 300.296C16.8313 300.296 11.498 298.029 6.96465 293.496C2.43132 288.963 0.16465 283.629 0.16465 277.496V31.0959C0.16465 24.9626 2.43132 19.6293 6.96465 15.0959C11.498 10.5626 16.8313 8.29595 22.9646 8.29595H160.165C166.298 8.29595 171.631 10.5626 176.165 15.0959C180.698 19.6293 182.965 24.9626 182.965 31.0959V40.2959C182.965 46.4293 180.698 51.7626 176.165 56.296C171.631 60.8293 166.298 63.0959 160.165 63.0959H71.7647C69.3647 63.0959 68.1647 64.1626 68.1647 66.2959V125.896C68.1647 128.296 69.3647 129.496 71.7647 129.496H152.165C158.298 129.496 163.631 131.763 168.165 136.296C172.698 140.563 174.965 145.763 174.965 151.896V158.296C174.965 164.429 172.698 169.763 168.165 174.296C163.631 178.563 158.298 180.696 152.165 180.696H71.7647C69.3647 180.696 68.1647 181.896 68.1647 184.296V277.496C68.1647 283.629 65.898 288.963 61.3647 293.496C57.098 298.029 51.898 300.296 45.7647 300.296H22.9646ZM290.652 304.296C267.185 304.296 250.119 297.763 239.452 284.696C229.052 271.629 223.852 249.229 223.852 217.496V115.096C223.852 108.963 226.119 103.629 230.652 99.096C235.185 94.5626 240.519 92.2959 246.652 92.2959H264.252C270.385 92.2959 275.719 94.5626 280.252 99.096C284.785 103.629 287.052 108.963 287.052 115.096V213.096C287.052 228.563 289.052 239.229 293.052 245.096C297.319 250.696 304.519 253.496 314.652 253.496C323.985 253.496 332.519 249.763 340.252 242.296C347.985 234.563 351.852 226.296 351.852 217.496V115.096C351.852 108.963 354.119 103.629 358.652 99.096C363.185 94.5626 368.519 92.2959 374.652 92.2959H393.852C399.985 92.2959 405.319 94.5626 409.852 99.096C414.385 103.629 416.652 108.963 416.652 115.096V277.496C416.652 283.629 414.385 288.963 409.852 293.496C405.319 298.029 399.985 300.296 393.852 300.296H377.452C371.052 300.296 365.585 298.163 361.052 293.896C356.785 289.363 354.519 283.896 354.252 277.496V274.296C354.252 274.029 354.119 273.896 353.852 273.896L353.052 274.696C335.719 294.429 314.919 304.296 290.652 304.296ZM502.402 300.296C496.269 300.296 490.935 298.029 486.402 293.496C481.869 288.963 479.602 283.629 479.602 277.496V23.096C479.602 16.9626 481.869 11.6293 486.402 7.09594C490.935 2.5626 496.269 0.295936 502.402 0.295936H524.802C530.935 0.295936 536.269 2.5626 540.802 7.09594C545.335 11.6293 547.602 16.9626 547.602 23.096V277.496C547.602 283.629 545.335 288.963 540.802 293.496C536.269 298.029 530.935 300.296 524.802 300.296H502.402ZM635.215 300.296C629.081 300.296 623.748 298.029 619.215 293.496C614.681 288.963 612.415 283.629 612.415 277.496V23.096C612.415 16.9626 614.681 11.6293 619.215 7.09594C623.748 2.5626 629.081 0.295936 635.215 0.295936H657.615C663.748 0.295936 669.081 2.5626 673.615 7.09594C678.148 11.6293 680.415 16.9626 680.415 23.096V277.496C680.415 283.629 678.148 288.963 673.615 293.496C669.081 298.029 663.748 300.296 657.615 300.296H635.215ZM798.64 297.096L731.04 113.496C728.906 108.429 729.44 103.629 732.64 99.096C735.84 94.5626 740.24 92.2959 745.84 92.2959H771.04C777.44 92.2959 783.306 94.4293 788.64 98.696C793.973 102.696 797.44 107.896 799.04 114.296L829.44 238.696C829.44 238.963 829.573 239.096 829.84 239.096C830.106 239.096 830.24 238.963 830.24 238.696L866.64 113.896C868.24 107.496 871.706 102.296 877.04 98.296C882.64 94.2959 888.906 92.2959 895.84 92.2959H917.84C923.173 92.2959 927.44 94.5626 930.64 99.096C933.84 103.629 934.506 108.429 932.64 113.496L838.24 367.096C835.84 373.496 831.84 378.563 826.24 382.296C820.64 386.296 814.506 388.296 807.84 388.296H785.84C780.24 388.296 775.973 386.029 773.04 381.496C770.106 377.229 769.706 372.563 771.84 367.496L798.64 303.496C798.906 302.429 799.04 301.363 799.04 300.296C799.04 299.229 798.906 298.163 798.64 297.096ZM1038.06 176.296V246.696C1038.06 249.096 1039.26 250.563 1041.66 251.096C1047.26 252.163 1054.06 252.696 1062.06 252.696C1080.99 252.696 1094.86 249.229 1103.66 242.296C1112.46 235.096 1116.86 224.163 1116.86 209.496C1116.86 184.963 1096.86 172.696 1056.86 172.696H1041.26C1039.13 172.696 1038.06 173.896 1038.06 176.296ZM1038.06 61.896V120.696C1038.06 122.829 1039.13 123.896 1041.26 123.896H1051.26C1090.19 123.896 1109.66 112.296 1109.66 89.096C1109.66 66.9626 1093.39 55.896 1060.86 55.896C1053.13 55.896 1046.59 56.4293 1041.26 57.4959C1039.13 58.0293 1038.06 59.496 1038.06 61.896ZM993.658 301.096C987.258 300.563 981.925 297.763 977.658 292.696C973.392 287.629 971.258 281.896 971.258 275.496V33.0959C971.258 26.4293 973.392 20.696 977.658 15.8959C982.192 10.8293 987.658 8.02928 994.058 7.49594C1014.86 5.36262 1035.26 4.29596 1055.26 4.29596C1132.59 4.29596 1171.26 29.2293 1171.26 79.0959C1171.26 95.896 1165.79 110.163 1154.86 121.896C1144.19 133.629 1129.79 141.096 1111.66 144.296C1111.39 144.296 1111.26 144.563 1111.26 145.096C1111.26 145.363 1111.53 145.496 1112.06 145.496C1133.13 148.429 1149.79 156.429 1162.06 169.496C1174.59 182.563 1180.86 198.163 1180.86 216.296C1180.86 245.896 1170.99 268.029 1151.26 282.696C1131.79 297.096 1101.13 304.296 1059.26 304.296C1038.19 304.296 1016.33 303.229 993.658 301.096ZM1308.8 131.896C1296.8 131.896 1287.74 135.096 1281.6 141.496C1275.47 147.629 1271.6 158.296 1270 173.496C1270 175.629 1270.94 176.696 1272.8 176.696H1340.4C1342.8 176.696 1344 175.496 1344 173.096C1342.94 145.629 1331.2 131.896 1308.8 131.896ZM1318.8 304.296C1282.54 304.296 1254.54 295.096 1234.8 276.696C1215.34 258.296 1205.6 231.496 1205.6 196.296C1205.6 161.363 1214.27 134.696 1231.6 116.296C1249.2 97.6293 1274.54 88.2959 1307.6 88.2959C1371.07 88.2959 1403.34 122.963 1404.4 192.296C1404.4 198.696 1401.87 204.163 1396.8 208.696C1392 212.963 1386.4 215.096 1380 215.096H1273.2C1270.54 215.096 1269.47 216.296 1270 218.696C1272.14 233.363 1277.74 243.896 1286.8 250.296C1296.14 256.429 1310 259.496 1328.4 259.496C1340.4 259.496 1353.34 257.763 1367.2 254.296C1372.8 252.963 1377.74 254.029 1382 257.496C1386.54 260.963 1388.8 265.496 1388.8 271.096V271.896C1388.8 278.563 1386.67 284.696 1382.4 290.296C1378.4 295.629 1373.2 298.829 1366.8 299.896C1351.34 302.829 1335.34 304.296 1318.8 304.296ZM1490.83 297.096L1423.23 113.496C1421.09 108.429 1421.63 103.629 1424.83 99.096C1428.03 94.5626 1432.43 92.2959 1438.03 92.2959H1463.23C1469.63 92.2959 1475.49 94.4293 1480.83 98.696C1486.16 102.696 1489.63 107.896 1491.23 114.296L1521.63 238.696C1521.63 238.963 1521.76 239.096 1522.03 239.096C1522.29 239.096 1522.43 238.963 1522.43 238.696L1558.83 113.896C1560.43 107.496 1563.89 102.296 1569.23 98.296C1574.83 94.2959 1581.09 92.2959 1588.03 92.2959H1610.03C1615.36 92.2959 1619.63 94.5626 1622.83 99.096C1626.03 103.629 1626.69 108.429 1624.83 113.496L1530.43 367.096C1528.03 373.496 1524.03 378.563 1518.43 382.296C1512.83 386.296 1506.69 388.296 1500.03 388.296H1478.03C1472.43 388.296 1468.16 386.029 1465.23 381.496C1462.29 377.229 1461.89 372.563 1464.03 367.496L1490.83 303.496C1491.09 302.429 1491.23 301.363 1491.23 300.296C1491.23 299.229 1491.09 298.163 1490.83 297.096ZM1769.69 148.296C1763.29 138.429 1753.42 133.496 1740.09 133.496C1726.76 133.496 1716.76 138.429 1710.09 148.296C1703.69 158.163 1700.49 174.163 1700.49 196.296C1700.49 218.429 1703.69 234.429 1710.09 244.296C1716.76 254.163 1726.76 259.096 1740.09 259.096C1753.42 259.096 1763.29 254.163 1769.69 244.296C1776.36 234.429 1779.69 218.429 1779.69 196.296C1779.69 174.163 1776.36 158.163 1769.69 148.296ZM1817.29 275.896C1798.89 294.829 1773.16 304.296 1740.09 304.296C1707.02 304.296 1681.29 294.829 1662.89 275.896C1644.49 256.963 1635.29 230.429 1635.29 196.296C1635.29 162.163 1644.49 135.629 1662.89 116.696C1681.29 97.7626 1707.02 88.2959 1740.09 88.2959C1773.16 88.2959 1798.89 97.7626 1817.29 116.696C1835.69 135.629 1844.89 162.163 1844.89 196.296C1844.89 230.429 1835.69 256.963 1817.29 275.896ZM1906.06 300.296C1899.93 300.296 1894.6 298.029 1890.06 293.496C1885.8 288.963 1883.66 283.629 1883.66 277.496V115.096C1883.66 108.963 1885.8 103.629 1890.06 99.096C1894.6 94.5626 1899.93 92.2959 1906.06 92.2959H1922.46C1928.86 92.2959 1934.2 94.5626 1938.46 99.096C1943 103.363 1945.4 108.696 1945.66 115.096L1946.06 118.296C1946.06 118.563 1946.2 118.696 1946.46 118.696L1947.26 117.896C1964.6 98.1626 1985.4 88.2959 2009.66 88.2959C2033.93 88.2959 2051.4 95.2293 2062.06 109.096C2072.73 122.696 2078.06 146.029 2078.06 179.096V277.496C2078.06 283.629 2075.8 288.963 2071.26 293.496C2067 298.029 2061.8 300.296 2055.66 300.296H2038.06C2031.93 300.296 2026.6 298.029 2022.06 293.496C2017.53 288.963 2015.26 283.629 2015.26 277.496V181.096C2015.26 165.096 2013.13 154.163 2008.86 148.296C2004.6 142.163 1996.86 139.096 1985.66 139.096C1976.33 139.096 1967.66 142.963 1959.66 150.696C1951.93 158.163 1948.06 166.296 1948.06 175.096V277.496C1948.06 283.629 1945.8 288.963 1941.26 293.496C1937 298.029 1931.8 300.296 1925.66 300.296H1906.06ZM2220.18 136.296C2193.51 136.296 2180.18 156.296 2180.18 196.296C2180.18 216.563 2183.78 231.629 2190.98 241.496C2198.18 251.363 2207.91 256.296 2220.18 256.296C2230.84 256.296 2240.18 252.696 2248.18 245.496C2256.18 238.296 2260.18 230.163 2260.18 221.096V171.496C2260.18 162.429 2256.18 154.296 2248.18 147.096C2240.18 139.896 2230.84 136.296 2220.18 136.296ZM2198.18 304.296C2174.44 304.296 2154.98 294.829 2139.78 275.896C2124.58 256.696 2116.98 230.163 2116.98 196.296C2116.98 161.629 2124.31 134.963 2138.98 116.296C2153.64 97.6293 2173.38 88.2959 2198.18 88.2959C2220.04 88.2959 2239.91 96.4293 2257.78 112.696C2258.04 112.963 2258.31 113.096 2258.58 113.096C2258.84 113.096 2258.98 112.963 2258.98 112.696V23.096C2258.98 16.9626 2261.11 11.6293 2265.38 7.09594C2269.91 2.5626 2275.24 0.295936 2281.38 0.295936H2300.98C2307.11 0.295936 2312.31 2.5626 2316.58 7.09594C2321.11 11.6293 2323.38 16.9626 2323.38 23.096V277.496C2323.38 283.629 2321.11 288.963 2316.58 293.496C2312.31 298.029 2307.11 300.296 2300.98 300.296H2285.78C2279.38 300.296 2273.91 298.163 2269.38 293.896C2265.11 289.363 2262.84 283.896 2262.58 277.496V274.296C2262.58 274.029 2262.44 273.896 2262.18 273.896L2261.38 274.696C2244.58 294.429 2223.51 304.296 2198.18 304.296Z"/>
</mask>
<path d="M22.9646 300.296C16.8313 300.296 11.498 298.029 6.96465 293.496C2.43132 288.963 0.16465 283.629 0.16465 277.496V31.0959C0.16465 24.9626 2.43132 19.6293 6.96465 15.0959C11.498 10.5626 16.8313 8.29595 22.9646 8.29595H160.165C166.298 8.29595 171.631 10.5626 176.165 15.0959C180.698 19.6293 182.965 24.9626 182.965 31.0959V40.2959C182.965 46.4293 180.698 51.7626 176.165 56.296C171.631 60.8293 166.298 63.0959 160.165 63.0959H71.7647C69.3647 63.0959 68.1647 64.1626 68.1647 66.2959V125.896C68.1647 128.296 69.3647 129.496 71.7647 129.496H152.165C158.298 129.496 163.631 131.763 168.165 136.296C172.698 140.563 174.965 145.763 174.965 151.896V158.296C174.965 164.429 172.698 169.763 168.165 174.296C163.631 178.563 158.298 180.696 152.165 180.696H71.7647C69.3647 180.696 68.1647 181.896 68.1647 184.296V277.496C68.1647 283.629 65.898 288.963 61.3647 293.496C57.098 298.029 51.898 300.296 45.7647 300.296H22.9646ZM290.652 304.296C267.185 304.296 250.119 297.763 239.452 284.696C229.052 271.629 223.852 249.229 223.852 217.496V115.096C223.852 108.963 226.119 103.629 230.652 99.096C235.185 94.5626 240.519 92.2959 246.652 92.2959H264.252C270.385 92.2959 275.719 94.5626 280.252 99.096C284.785 103.629 287.052 108.963 287.052 115.096V213.096C287.052 228.563 289.052 239.229 293.052 245.096C297.319 250.696 304.519 253.496 314.652 253.496C323.985 253.496 332.519 249.763 340.252 242.296C347.985 234.563 351.852 226.296 351.852 217.496V115.096C351.852 108.963 354.119 103.629 358.652 99.096C363.185 94.5626 368.519 92.2959 374.652 92.2959H393.852C399.985 92.2959 405.319 94.5626 409.852 99.096C414.385 103.629 416.652 108.963 416.652 115.096V277.496C416.652 283.629 414.385 288.963 409.852 293.496C405.319 298.029 399.985 300.296 393.852 300.296H377.452C371.052 300.296 365.585 298.163 361.052 293.896C356.785 289.363 354.519 283.896 354.252 277.496V274.296C354.252 274.029 354.119 273.896 353.852 273.896L353.052 274.696C335.719 294.429 314.919 304.296 290.652 304.296ZM502.402 300.296C496.269 300.296 490.935 298.029 486.402 293.496C481.869 288.963 479.602 283.629 479.602 277.496V23.096C479.602 16.9626 481.869 11.6293 486.402 7.09594C490.935 2.5626 496.269 0.295936 502.402 0.295936H524.802C530.935 0.295936 536.269 2.5626 540.802 7.09594C545.335 11.6293 547.602 16.9626 547.602 23.096V277.496C547.602 283.629 545.335 288.963 540.802 293.496C536.269 298.029 530.935 300.296 524.802 300.296H502.402ZM635.215 300.296C629.081 300.296 623.748 298.029 619.215 293.496C614.681 288.963 612.415 283.629 612.415 277.496V23.096C612.415 16.9626 614.681 11.6293 619.215 7.09594C623.748 2.5626 629.081 0.295936 635.215 0.295936H657.615C663.748 0.295936 669.081 2.5626 673.615 7.09594C678.148 11.6293 680.415 16.9626 680.415 23.096V277.496C680.415 283.629 678.148 288.963 673.615 293.496C669.081 298.029 663.748 300.296 657.615 300.296H635.215ZM798.64 297.096L731.04 113.496C728.906 108.429 729.44 103.629 732.64 99.096C735.84 94.5626 740.24 92.2959 745.84 92.2959H771.04C777.44 92.2959 783.306 94.4293 788.64 98.696C793.973 102.696 797.44 107.896 799.04 114.296L829.44 238.696C829.44 238.963 829.573 239.096 829.84 239.096C830.106 239.096 830.24 238.963 830.24 238.696L866.64 113.896C868.24 107.496 871.706 102.296 877.04 98.296C882.64 94.2959 888.906 92.2959 895.84 92.2959H917.84C923.173 92.2959 927.44 94.5626 930.64 99.096C933.84 103.629 934.506 108.429 932.64 113.496L838.24 367.096C835.84 373.496 831.84 378.563 826.24 382.296C820.64 386.296 814.506 388.296 807.84 388.296H785.84C780.24 388.296 775.973 386.029 773.04 381.496C770.106 377.229 769.706 372.563 771.84 367.496L798.64 303.496C798.906 302.429 799.04 301.363 799.04 300.296C799.04 299.229 798.906 298.163 798.64 297.096ZM1038.06 176.296V246.696C1038.06 249.096 1039.26 250.563 1041.66 251.096C1047.26 252.163 1054.06 252.696 1062.06 252.696C1080.99 252.696 1094.86 249.229 1103.66 242.296C1112.46 235.096 1116.86 224.163 1116.86 209.496C1116.86 184.963 1096.86 172.696 1056.86 172.696H1041.26C1039.13 172.696 1038.06 173.896 1038.06 176.296ZM1038.06 61.896V120.696C1038.06 122.829 1039.13 123.896 1041.26 123.896H1051.26C1090.19 123.896 1109.66 112.296 1109.66 89.096C1109.66 66.9626 1093.39 55.896 1060.86 55.896C1053.13 55.896 1046.59 56.4293 1041.26 57.4959C1039.13 58.0293 1038.06 59.496 1038.06 61.896ZM993.658 301.096C987.258 300.563 981.925 297.763 977.658 292.696C973.392 287.629 971.258 281.896 971.258 275.496V33.0959C971.258 26.4293 973.392 20.696 977.658 15.8959C982.192 10.8293 987.658 8.02928 994.058 7.49594C1014.86 5.36262 1035.26 4.29596 1055.26 4.29596C1132.59 4.29596 1171.26 29.2293 1171.26 79.0959C1171.26 95.896 1165.79 110.163 1154.86 121.896C1144.19 133.629 1129.79 141.096 1111.66 144.296C1111.39 144.296 1111.26 144.563 1111.26 145.096C1111.26 145.363 1111.53 145.496 1112.06 145.496C1133.13 148.429 1149.79 156.429 1162.06 169.496C1174.59 182.563 1180.86 198.163 1180.86 216.296C1180.86 245.896 1170.99 268.029 1151.26 282.696C1131.79 297.096 1101.13 304.296 1059.26 304.296C1038.19 304.296 1016.33 303.229 993.658 301.096ZM1308.8 131.896C1296.8 131.896 1287.74 135.096 1281.6 141.496C1275.47 147.629 1271.6 158.296 1270 173.496C1270 175.629 1270.94 176.696 1272.8 176.696H1340.4C1342.8 176.696 1344 175.496 1344 173.096C1342.94 145.629 1331.2 131.896 1308.8 131.896ZM1318.8 304.296C1282.54 304.296 1254.54 295.096 1234.8 276.696C1215.34 258.296 1205.6 231.496 1205.6 196.296C1205.6 161.363 1214.27 134.696 1231.6 116.296C1249.2 97.6293 1274.54 88.2959 1307.6 88.2959C1371.07 88.2959 1403.34 122.963 1404.4 192.296C1404.4 198.696 1401.87 204.163 1396.8 208.696C1392 212.963 1386.4 215.096 1380 215.096H1273.2C1270.54 215.096 1269.47 216.296 1270 218.696C1272.14 233.363 1277.74 243.896 1286.8 250.296C1296.14 256.429 1310 259.496 1328.4 259.496C1340.4 259.496 1353.34 257.763 1367.2 254.296C1372.8 252.963 1377.74 254.029 1382 257.496C1386.54 260.963 1388.8 265.496 1388.8 271.096V271.896C1388.8 278.563 1386.67 284.696 1382.4 290.296C1378.4 295.629 1373.2 298.829 1366.8 299.896C1351.34 302.829 1335.34 304.296 1318.8 304.296ZM1490.83 297.096L1423.23 113.496C1421.09 108.429 1421.63 103.629 1424.83 99.096C1428.03 94.5626 1432.43 92.2959 1438.03 92.2959H1463.23C1469.63 92.2959 1475.49 94.4293 1480.83 98.696C1486.16 102.696 1489.63 107.896 1491.23 114.296L1521.63 238.696C1521.63 238.963 1521.76 239.096 1522.03 239.096C1522.29 239.096 1522.43 238.963 1522.43 238.696L1558.83 113.896C1560.43 107.496 1563.89 102.296 1569.23 98.296C1574.83 94.2959 1581.09 92.2959 1588.03 92.2959H1610.03C1615.36 92.2959 1619.63 94.5626 1622.83 99.096C1626.03 103.629 1626.69 108.429 1624.83 113.496L1530.43 367.096C1528.03 373.496 1524.03 378.563 1518.43 382.296C1512.83 386.296 1506.69 388.296 1500.03 388.296H1478.03C1472.43 388.296 1468.16 386.029 1465.23 381.496C1462.29 377.229 1461.89 372.563 1464.03 367.496L1490.83 303.496C1491.09 302.429 1491.23 301.363 1491.23 300.296C1491.23 299.229 1491.09 298.163 1490.83 297.096ZM1769.69 148.296C1763.29 138.429 1753.42 133.496 1740.09 133.496C1726.76 133.496 1716.76 138.429 1710.09 148.296C1703.69 158.163 1700.49 174.163 1700.49 196.296C1700.49 218.429 1703.69 234.429 1710.09 244.296C1716.76 254.163 1726.76 259.096 1740.09 259.096C1753.42 259.096 1763.29 254.163 1769.69 244.296C1776.36 234.429 1779.69 218.429 1779.69 196.296C1779.69 174.163 1776.36 158.163 1769.69 148.296ZM1817.29 275.896C1798.89 294.829 1773.16 304.296 1740.09 304.296C1707.02 304.296 1681.29 294.829 1662.89 275.896C1644.49 256.963 1635.29 230.429 1635.29 196.296C1635.29 162.163 1644.49 135.629 1662.89 116.696C1681.29 97.7626 1707.02 88.2959 1740.09 88.2959C1773.16 88.2959 1798.89 97.7626 1817.29 116.696C1835.69 135.629 1844.89 162.163 1844.89 196.296C1844.89 230.429 1835.69 256.963 1817.29 275.896ZM1906.06 300.296C1899.93 300.296 1894.6 298.029 1890.06 293.496C1885.8 288.963 1883.66 283.629 1883.66 277.496V115.096C1883.66 108.963 1885.8 103.629 1890.06 99.096C1894.6 94.5626 1899.93 92.2959 1906.06 92.2959H1922.46C1928.86 92.2959 1934.2 94.5626 1938.46 99.096C1943 103.363 1945.4 108.696 1945.66 115.096L1946.06 118.296C1946.06 118.563 1946.2 118.696 1946.46 118.696L1947.26 117.896C1964.6 98.1626 1985.4 88.2959 2009.66 88.2959C2033.93 88.2959 2051.4 95.2293 2062.06 109.096C2072.73 122.696 2078.06 146.029 2078.06 179.096V277.496C2078.06 283.629 2075.8 288.963 2071.26 293.496C2067 298.029 2061.8 300.296 2055.66 300.296H2038.06C2031.93 300.296 2026.6 298.029 2022.06 293.496C2017.53 288.963 2015.26 283.629 2015.26 277.496V181.096C2015.26 165.096 2013.13 154.163 2008.86 148.296C2004.6 142.163 1996.86 139.096 1985.66 139.096C1976.33 139.096 1967.66 142.963 1959.66 150.696C1951.93 158.163 1948.06 166.296 1948.06 175.096V277.496C1948.06 283.629 1945.8 288.963 1941.26 293.496C1937 298.029 1931.8 300.296 1925.66 300.296H1906.06ZM2220.18 136.296C2193.51 136.296 2180.18 156.296 2180.18 196.296C2180.18 216.563 2183.78 231.629 2190.98 241.496C2198.18 251.363 2207.91 256.296 2220.18 256.296C2230.84 256.296 2240.18 252.696 2248.18 245.496C2256.18 238.296 2260.18 230.163 2260.18 221.096V171.496C2260.18 162.429 2256.18 154.296 2248.18 147.096C2240.18 139.896 2230.84 136.296 2220.18 136.296ZM2198.18 304.296C2174.44 304.296 2154.98 294.829 2139.78 275.896C2124.58 256.696 2116.98 230.163 2116.98 196.296C2116.98 161.629 2124.31 134.963 2138.98 116.296C2153.64 97.6293 2173.38 88.2959 2198.18 88.2959C2220.04 88.2959 2239.91 96.4293 2257.78 112.696C2258.04 112.963 2258.31 113.096 2258.58 113.096C2258.84 113.096 2258.98 112.963 2258.98 112.696V23.096C2258.98 16.9626 2261.11 11.6293 2265.38 7.09594C2269.91 2.5626 2275.24 0.295936 2281.38 0.295936H2300.98C2307.11 0.295936 2312.31 2.5626 2316.58 7.09594C2321.11 11.6293 2323.38 16.9626 2323.38 23.096V277.496C2323.38 283.629 2321.11 288.963 2316.58 293.496C2312.31 298.029 2307.11 300.296 2300.98 300.296H2285.78C2279.38 300.296 2273.91 298.163 2269.38 293.896C2265.11 289.363 2262.84 283.896 2262.58 277.496V274.296C2262.58 274.029 2262.44 273.896 2262.18 273.896L2261.38 274.696C2244.58 294.429 2223.51 304.296 2198.18 304.296Z" fill="#FFF3E5"/>
<path d="M6.96465 293.496L-3.64195 304.103H-3.64195L6.96465 293.496ZM6.96465 15.0959L-3.64194 4.48932L-3.64196 4.48933L6.96465 15.0959ZM176.165 15.0959L186.771 4.48933L186.771 4.48932L176.165 15.0959ZM176.165 56.296L186.771 66.9026L186.771 66.9026L176.165 56.296ZM168.165 136.296L157.558 146.903L157.719 147.063L157.884 147.219L168.165 136.296ZM168.165 174.296L178.445 185.219L178.611 185.063L178.771 184.903L168.165 174.296ZM61.3647 293.496L50.758 282.889L50.5974 283.05L50.4417 283.215L61.3647 293.496ZM22.9646 285.296C21.0059 285.296 19.4335 284.752 17.5713 282.889L-3.64195 304.103C3.56248 311.307 12.6567 315.296 22.9646 315.296V285.296ZM17.5713 282.889C15.709 281.027 15.1646 279.455 15.1646 277.496H-14.8354C-14.8354 287.804 -10.8464 296.898 -3.64195 304.103L17.5713 282.889ZM15.1646 277.496V31.0959H-14.8354V277.496H15.1646ZM15.1646 31.0959C15.1646 29.1372 15.709 27.5648 17.5713 25.7025L-3.64196 4.48933C-10.8464 11.6938 -14.8354 20.788 -14.8354 31.0959H15.1646ZM17.5712 25.7025C19.4335 23.8403 21.0059 23.296 22.9646 23.296V-6.70404C12.6567 -6.70404 3.5625 -2.7151 -3.64194 4.48932L17.5712 25.7025ZM22.9646 23.296H160.165V-6.70404H22.9646V23.296ZM160.165 23.296C162.123 23.296 163.696 23.8403 165.558 25.7026L186.771 4.48932C179.567 -2.7151 170.473 -6.70404 160.165 -6.70404V23.296ZM165.558 25.7025C167.42 27.5648 167.965 29.1372 167.965 31.0959H197.965C197.965 20.788 193.976 11.6938 186.771 4.48933L165.558 25.7025ZM167.965 31.0959V40.2959H197.965V31.0959H167.965ZM167.965 40.2959C167.965 42.2547 167.42 43.8271 165.558 45.6893L186.771 66.9026C193.976 59.6981 197.965 50.6039 197.965 40.2959H167.965ZM165.558 45.6893C163.696 47.5516 162.123 48.0959 160.165 48.0959V78.0959C170.473 78.0959 179.567 74.107 186.771 66.9026L165.558 45.6893ZM160.165 48.0959H71.7647V78.0959H160.165V48.0959ZM71.7647 48.0959C68.6592 48.0959 63.5284 48.7477 59.0992 52.6848C54.3333 56.9211 53.1646 62.4295 53.1646 66.2959H83.1646C83.1646 68.029 82.596 71.9374 79.0301 75.1071C75.8009 77.9775 72.4701 78.0959 71.7647 78.0959V48.0959ZM53.1646 66.2959V125.896H83.1646V66.2959H53.1646ZM53.1646 125.896C53.1646 129.408 54.0529 134.797 58.4581 139.203C62.8633 143.608 68.2525 144.496 71.7647 144.496V114.496C72.8768 114.496 76.466 114.784 79.6712 117.989C82.8764 121.195 83.1646 124.784 83.1646 125.896H53.1646ZM71.7647 144.496H152.165V114.496H71.7647V144.496ZM152.165 144.496C154.123 144.496 155.696 145.04 157.558 146.903L178.771 125.689C171.567 118.485 162.473 114.496 152.165 114.496V144.496ZM157.884 147.219C159.457 148.699 159.965 149.968 159.965 151.896H189.965C189.965 141.557 185.939 132.426 178.445 125.373L157.884 147.219ZM159.965 151.896V158.296H189.965V151.896H159.965ZM159.965 158.296C159.965 160.255 159.42 161.827 157.558 163.689L178.771 184.903C185.976 177.698 189.965 168.604 189.965 158.296H159.965ZM157.884 163.373C156.087 165.065 154.414 165.696 152.165 165.696V195.696C162.182 195.696 171.176 192.061 178.445 185.219L157.884 163.373ZM152.165 165.696H71.7647V195.696H152.165V165.696ZM71.7647 165.696C68.2525 165.696 62.8633 166.584 58.4581 170.989C54.0529 175.395 53.1646 180.784 53.1646 184.296H83.1646C83.1646 185.408 82.8764 188.997 79.6712 192.203C76.466 195.408 72.8768 195.696 71.7647 195.696V165.696ZM53.1646 184.296V277.496H83.1646V184.296H53.1646ZM53.1646 277.496C53.1646 279.455 52.6203 281.027 50.758 282.889L71.9713 304.103C79.1757 296.898 83.1646 287.804 83.1646 277.496H53.1646ZM50.4417 283.215C48.9614 284.788 47.6922 285.296 45.7647 285.296V315.296C56.1038 315.296 65.2346 311.27 72.2877 303.776L50.4417 283.215ZM45.7647 285.296H22.9646V315.296H45.7647V285.296ZM239.452 284.696L227.716 294.037L227.774 294.11L227.832 294.182L239.452 284.696ZM230.652 99.0959L241.259 109.703L230.652 99.0959ZM280.252 99.0959L269.646 109.703H269.646L280.252 99.0959ZM293.052 245.096L280.659 253.546L280.881 253.872L281.121 254.187L293.052 245.096ZM340.252 242.296L350.671 253.087L350.766 252.996L350.859 252.903L340.252 242.296ZM358.652 99.0959L369.259 109.703V109.703L358.652 99.0959ZM409.852 99.0959L399.246 109.703L399.246 109.703L409.852 99.0959ZM361.052 293.896L350.129 304.176L350.441 304.507L350.772 304.819L361.052 293.896ZM354.252 277.496H339.252V277.808L339.265 278.12L354.252 277.496ZM353.852 273.896V258.896H347.639L343.246 263.289L353.852 273.896ZM353.052 274.696L342.446 264.089L342.103 264.432L341.782 264.797L353.052 274.696ZM290.652 289.296C269.837 289.296 257.895 283.568 251.072 275.21L227.832 294.182C242.343 311.957 264.534 319.296 290.652 319.296V289.296ZM251.189 275.355C244.104 266.454 238.852 248.474 238.852 217.496H208.852C208.852 249.985 214 276.805 227.716 294.037L251.189 275.355ZM238.852 217.496V115.096H208.852V217.496H238.852ZM238.852 115.096C238.852 113.137 239.397 111.565 241.259 109.703L220.046 88.4893C212.841 95.6938 208.852 104.788 208.852 115.096H238.852ZM241.259 109.703C243.121 107.84 244.693 107.296 246.652 107.296V77.2959C236.344 77.2959 227.25 81.2849 220.046 88.4893L241.259 109.703ZM246.652 107.296H264.252V77.2959H246.652V107.296ZM264.252 107.296C266.211 107.296 267.783 107.84 269.646 109.703L290.859 88.4893C283.654 81.2849 274.56 77.2959 264.252 77.2959V107.296ZM269.646 109.703C271.508 111.565 272.052 113.137 272.052 115.096H302.052C302.052 104.788 298.063 95.6938 290.859 88.4893L269.646 109.703ZM272.052 115.096V213.096H302.052V115.096H272.052ZM272.052 213.096C272.052 228.76 273.868 243.587 280.659 253.546L305.446 236.646C304.236 234.872 302.052 228.365 302.052 213.096H272.052ZM281.121 254.187C289.318 264.946 301.999 268.496 314.652 268.496V238.496C307.039 238.496 305.319 236.446 304.984 236.005L281.121 254.187ZM314.652 268.496C328.465 268.496 340.599 262.812 350.671 253.087L329.833 231.505C324.439 236.713 319.506 238.496 314.652 238.496V268.496ZM350.859 252.903C360.682 243.079 366.852 231.191 366.852 217.496H336.852C336.852 221.4 335.289 226.046 329.646 231.689L350.859 252.903ZM366.852 217.496V115.096H336.852V217.496H366.852ZM366.852 115.096C366.852 113.137 367.397 111.565 369.259 109.703L348.046 88.4893C340.841 95.6938 336.852 104.788 336.852 115.096H366.852ZM369.259 109.703C371.121 107.84 372.693 107.296 374.652 107.296V77.2959C364.344 77.2959 355.25 81.2849 348.046 88.4894L369.259 109.703ZM374.652 107.296H393.852V77.2959H374.652V107.296ZM393.852 107.296C395.811 107.296 397.383 107.84 399.246 109.703L420.459 88.4893C413.254 81.2849 404.16 77.2959 393.852 77.2959V107.296ZM399.246 109.703C401.108 111.565 401.652 113.137 401.652 115.096H431.652C431.652 104.788 427.663 95.6938 420.459 88.4893L399.246 109.703ZM401.652 115.096V277.496H431.652V115.096H401.652ZM401.652 277.496C401.652 279.455 401.108 281.027 399.246 282.889L420.459 304.103C427.663 296.898 431.652 287.804 431.652 277.496H401.652ZM399.246 282.889C397.383 284.752 395.811 285.296 393.852 285.296V315.296C404.16 315.296 413.254 311.307 420.459 304.103L399.246 282.889ZM393.852 285.296H377.452V315.296H393.852V285.296ZM377.452 285.296C374.754 285.296 372.998 284.541 371.333 282.973L350.772 304.819C358.173 311.785 367.35 315.296 377.452 315.296V285.296ZM371.975 283.615C370.257 281.79 369.36 279.783 369.239 276.872L339.265 278.12C339.677 288.009 343.314 296.935 350.129 304.176L371.975 283.615ZM369.252 277.496V274.296H339.252V277.496H369.252ZM369.252 274.296C369.252 271.85 368.631 267.261 364.759 263.389C360.887 259.517 356.298 258.896 353.852 258.896V288.896C351.673 288.896 347.284 288.341 343.546 284.603C339.807 280.864 339.252 276.475 339.252 274.296H369.252ZM343.246 263.289L342.446 264.089L363.659 285.303L364.459 284.503L343.246 263.289ZM341.782 264.797C327.033 281.589 310.218 289.296 290.652 289.296V319.296C319.619 319.296 344.405 307.27 364.322 284.595L341.782 264.797ZM540.802 7.09595L551.409 -3.51065L540.802 7.09595ZM540.802 293.496L551.409 304.103L540.802 293.496ZM502.402 285.296C500.443 285.296 498.871 284.752 497.009 282.889L475.796 304.103C483 311.307 492.094 315.296 502.402 315.296V285.296ZM497.009 282.889C495.147 281.027 494.602 279.455 494.602 277.496H464.602C464.602 287.804 468.591 296.898 475.796 304.103L497.009 282.889ZM494.602 277.496V23.0959H464.602V277.496H494.602ZM494.602 23.0959C494.602 21.1372 495.147 19.5648 497.009 17.7025L475.796 -3.51065C468.591 3.69379 464.602 12.788 464.602 23.0959H494.602ZM497.009 17.7025C498.871 15.8403 500.443 15.2959 502.402 15.2959V-14.7041C492.094 -14.7041 483 -10.7151 475.796 -3.51065L497.009 17.7025ZM502.402 15.2959H524.802V-14.7041H502.402V15.2959ZM524.802 15.2959C526.761 15.2959 528.333 15.8403 530.196 17.7025L551.409 -3.51065C544.204 -10.7151 535.11 -14.7041 524.802 -14.7041V15.2959ZM530.196 17.7025C532.058 19.5648 532.602 21.1372 532.602 23.0959H562.602C562.602 12.788 558.613 3.69379 551.409 -3.51065L530.196 17.7025ZM532.602 23.0959V277.496H562.602V23.0959H532.602ZM532.602 277.496C532.602 279.455 532.058 281.027 530.196 282.889L551.409 304.103C558.613 296.898 562.602 287.804 562.602 277.496H532.602ZM530.196 282.889C528.333 284.752 526.761 285.296 524.802 285.296V315.296C535.11 315.296 544.204 311.307 551.409 304.103L530.196 282.889ZM524.802 285.296H502.402V315.296H524.802V285.296ZM673.615 7.09595L684.221 -3.51065L673.615 7.09595ZM673.615 293.496L684.221 304.103L673.615 293.496ZM635.215 285.296C633.256 285.296 631.683 284.752 629.821 282.889L608.608 304.103C615.812 311.307 624.907 315.296 635.215 315.296V285.296ZM629.821 282.889C627.959 281.027 627.415 279.455 627.415 277.496H597.415C597.415 287.804 601.404 296.898 608.608 304.103L629.821 282.889ZM627.415 277.496V23.0959H597.415V277.496H627.415ZM627.415 23.0959C627.415 21.1372 627.959 19.5648 629.821 17.7025L608.608 -3.51065C601.404 3.69379 597.415 12.788 597.415 23.0959H627.415ZM629.821 17.7025C631.683 15.8403 633.256 15.2959 635.215 15.2959V-14.7041C624.907 -14.7041 615.812 -10.7151 608.608 -3.51065L629.821 17.7025ZM635.215 15.2959H657.615V-14.7041H635.215V15.2959ZM657.615 15.2959C659.573 15.2959 661.146 15.8403 663.008 17.7025L684.221 -3.51065C677.017 -10.7151 667.923 -14.7041 657.615 -14.7041V15.2959ZM663.008 17.7025C664.87 19.5648 665.415 21.1372 665.415 23.0959H695.415C695.415 12.788 691.426 3.69379 684.221 -3.51065L663.008 17.7025ZM665.415 23.0959V277.496H695.415V23.0959H665.415ZM665.415 277.496C665.415 279.455 664.87 281.027 663.008 282.889L684.221 304.103C691.426 296.898 695.415 287.804 695.415 277.496H665.415ZM663.008 282.889C661.146 284.752 659.573 285.296 657.615 285.296V315.296C667.923 315.296 677.017 311.307 684.221 304.103L663.008 282.889ZM657.615 285.296H635.215V315.296H657.615V285.296ZM798.64 297.096L813.192 293.458L812.995 292.673L812.716 291.913L798.64 297.096ZM731.04 113.496L745.116 108.313L744.997 107.991L744.864 107.675L731.04 113.496ZM732.64 99.0959L744.894 107.746V107.746L732.64 99.0959ZM788.64 98.696L779.269 110.409L779.452 110.555L779.64 110.696L788.64 98.696ZM799.04 114.296L813.611 110.735L813.601 110.697L813.592 110.658L799.04 114.296ZM829.44 238.696H844.44V236.89L844.011 235.135L829.44 238.696ZM830.24 238.696L815.84 234.496L815.24 236.553V238.696H830.24ZM866.64 113.896L881.04 118.096L881.121 117.816L881.192 117.534L866.64 113.896ZM877.04 98.296L868.321 86.09L868.179 86.1913L868.04 86.296L877.04 98.296ZM930.64 99.0959L918.385 107.746V107.746L930.64 99.0959ZM932.64 113.496L946.697 118.729L946.706 118.705L946.715 118.682L932.64 113.496ZM838.24 367.096L852.285 372.363L852.291 372.346L852.297 372.329L838.24 367.096ZM826.24 382.296L817.919 369.815L817.718 369.949L817.521 370.09L826.24 382.296ZM773.04 381.496L785.633 373.347L785.519 373.171L785.4 372.998L773.04 381.496ZM771.84 367.496L785.664 373.317L785.67 373.303L785.676 373.29L771.84 367.496ZM798.64 303.496L812.476 309.29L812.916 308.239L813.192 307.134L798.64 303.496ZM812.716 291.913L745.116 108.313L716.963 118.679L784.563 302.279L812.716 291.913ZM744.864 107.675C744.805 107.535 744.774 107.439 744.758 107.386C744.743 107.334 744.742 107.321 744.746 107.345C744.75 107.369 744.757 107.422 744.759 107.498C744.761 107.574 744.758 107.661 744.748 107.752C744.738 107.844 744.722 107.926 744.705 107.995C744.687 108.062 744.672 108.104 744.667 108.117C744.662 108.129 744.671 108.105 744.704 108.045C744.737 107.984 744.797 107.884 744.894 107.746L720.385 90.4457C714.234 99.1601 713.05 109.424 717.215 119.317L744.864 107.675ZM744.894 107.746C745.098 107.457 745.231 107.331 745.267 107.3C745.297 107.272 745.274 107.297 745.209 107.331C745.144 107.364 745.121 107.363 745.181 107.35C745.248 107.335 745.454 107.296 745.84 107.296V77.2959C735.419 77.2959 726.427 81.8871 720.385 90.4457L744.894 107.746ZM745.84 107.296H771.04V77.2959H745.84V107.296ZM771.04 107.296C773.796 107.296 776.404 108.117 779.269 110.409L798.01 86.9829C790.209 80.7419 781.083 77.2959 771.04 77.2959V107.296ZM779.64 110.696C782.249 112.653 783.733 114.914 784.488 117.934L813.592 110.658C811.147 100.877 805.697 92.7392 797.64 86.696L779.64 110.696ZM784.468 117.857L814.868 242.257L844.011 235.135L813.611 110.735L784.468 117.857ZM814.44 238.696C814.44 241.142 815.061 245.731 818.933 249.603C822.805 253.474 827.394 254.096 829.84 254.096V224.096C832.018 224.096 836.408 224.651 840.146 228.389C843.885 232.128 844.44 236.517 844.44 238.696H814.44ZM829.84 254.096C832.285 254.096 836.874 253.474 840.746 249.602C844.618 245.731 845.24 241.141 845.24 238.696H815.24C815.24 236.517 815.794 232.128 819.533 228.389C823.271 224.651 827.661 224.096 829.84 224.096V254.096ZM844.64 242.896L881.04 118.096L852.24 109.696L815.84 234.496L844.64 242.896ZM881.192 117.534C881.947 114.514 883.431 112.253 886.04 110.296L868.04 86.296C859.982 92.3392 854.533 100.477 852.088 110.258L881.192 117.534ZM885.758 110.502C888.794 108.334 892.008 107.296 895.84 107.296V77.2959C885.805 77.2959 876.485 80.2583 868.321 86.09L885.758 110.502ZM895.84 107.296H917.84V77.2959H895.84V107.296ZM917.84 107.296C918.106 107.296 918.21 107.324 918.193 107.32C918.169 107.314 918.093 107.291 918.002 107.243C917.913 107.195 917.891 107.167 917.94 107.211C917.994 107.26 918.152 107.415 918.385 107.746L942.894 90.4457C937.018 82.1214 928.276 77.2959 917.84 77.2959V107.296ZM918.385 107.746C918.607 108.06 918.688 108.241 918.707 108.287C918.723 108.325 918.698 108.275 918.682 108.159C918.666 108.042 918.672 107.956 918.674 107.935C918.676 107.921 918.664 108.04 918.565 108.31L946.715 118.682C950.343 108.833 948.846 98.8775 942.894 90.4457L918.385 107.746ZM918.582 108.263L824.182 361.863L852.297 372.329L946.697 118.729L918.582 108.263ZM824.195 361.829C822.881 365.333 820.858 367.856 817.919 369.815L834.56 394.777C842.821 389.27 848.799 381.659 852.285 372.363L824.195 361.829ZM817.521 370.09C814.377 372.335 811.274 373.296 807.84 373.296V403.296C817.739 403.296 826.902 400.256 834.958 394.502L817.521 370.09ZM807.84 373.296H785.84V403.296H807.84V373.296ZM785.84 373.296C785.452 373.296 785.27 373.257 785.248 373.252C785.236 373.249 785.257 373.253 785.302 373.27C785.348 373.287 785.408 373.313 785.477 373.349C785.546 373.386 785.611 373.427 785.669 373.469C785.727 373.51 785.767 373.545 785.789 373.566C785.836 373.61 785.773 373.563 785.633 373.347L760.446 389.645C766.265 398.638 775.379 403.296 785.84 403.296V373.296ZM785.4 372.998C785.303 372.857 785.321 372.85 785.368 372.977C785.391 373.038 785.416 373.119 785.439 373.217C785.461 373.315 785.476 373.416 785.485 373.515C785.493 373.614 785.494 373.698 785.49 373.761C785.487 373.823 785.482 373.854 785.482 373.851C785.484 373.844 785.515 373.671 785.664 373.317L758.015 361.675C754.045 371.103 754.642 381.212 760.679 389.994L785.4 372.998ZM785.676 373.29L812.476 309.29L784.804 297.702L758.004 361.702L785.676 373.29ZM813.192 307.134C813.747 304.914 814.04 302.626 814.04 300.296H784.04C784.04 300.099 784.066 299.944 784.088 299.858L813.192 307.134ZM814.04 300.296C814.04 297.966 813.747 295.678 813.192 293.458L784.088 300.734C784.066 300.648 784.04 300.493 784.04 300.296H814.04ZM1041.66 251.096L1038.4 265.739L1038.63 265.788L1038.85 265.831L1041.66 251.096ZM1103.66 242.296L1112.94 254.078L1113.05 253.993L1113.16 253.905L1103.66 242.296ZM1041.26 57.4959L1038.32 42.7872L1037.97 42.8572L1037.62 42.9438L1041.26 57.4959ZM993.658 301.096L995.064 286.162L994.984 286.154L994.904 286.148L993.658 301.096ZM977.658 292.696L989.132 283.034L977.658 292.696ZM977.658 15.896L966.48 5.89403L966.464 5.91223L966.447 5.9305L977.658 15.896ZM994.058 7.49594L995.304 22.4441L995.447 22.4323L995.589 22.4177L994.058 7.49594ZM1154.86 121.896L1143.88 111.67L1143.82 111.738L1143.76 111.806L1154.86 121.896ZM1111.66 144.296V159.296H1112.97L1114.27 159.068L1111.66 144.296ZM1112.06 145.496L1114.13 130.639L1113.1 130.496H1112.06V145.496ZM1162.06 169.496L1151.12 179.762L1151.18 179.821L1151.23 179.879L1162.06 169.496ZM1151.26 282.696L1160.18 294.755L1160.19 294.745L1160.21 294.735L1151.26 282.696ZM1023.06 176.296V246.696H1053.06V176.296H1023.06ZM1023.06 246.696C1023.06 250.416 1024.03 255.033 1027.35 259.095C1030.64 263.116 1034.91 264.961 1038.4 265.739L1044.91 236.453C1046.01 236.697 1048.48 237.542 1050.57 240.097C1052.69 242.693 1053.06 245.376 1053.06 246.696H1023.06ZM1038.85 265.831C1045.66 267.128 1053.46 267.696 1062.06 267.696V237.696C1054.66 237.696 1048.85 237.197 1044.47 236.361L1038.85 265.831ZM1062.06 267.696C1082.25 267.696 1100.21 264.108 1112.94 254.078L1094.38 230.514C1089.5 234.351 1079.74 237.696 1062.06 237.696V267.696ZM1113.16 253.905C1126.4 243.07 1131.86 227.252 1131.86 209.496H1101.86C1101.86 221.073 1098.52 227.122 1094.16 230.687L1113.16 253.905ZM1131.86 209.496C1131.86 192.302 1124.39 178.118 1109.7 169.109C1096.21 160.835 1077.9 157.696 1056.86 157.696V187.696C1075.81 187.696 1087.51 190.69 1094.02 194.683C1099.33 197.94 1101.86 202.157 1101.86 209.496H1131.86ZM1056.86 157.696H1041.26V187.696H1056.86V157.696ZM1041.26 157.696C1037.39 157.696 1031.88 158.865 1027.65 163.63C1023.71 168.06 1023.06 173.19 1023.06 176.296H1053.06C1053.06 177.001 1052.94 180.332 1050.07 183.561C1046.9 187.127 1042.99 187.696 1041.26 187.696V157.696ZM1023.06 61.896V120.696H1053.06V61.896H1023.06ZM1023.06 120.696C1023.06 124.075 1023.91 129.364 1028.25 133.703C1032.59 138.041 1037.88 138.896 1041.26 138.896V108.896C1042.5 108.896 1046.19 109.217 1049.46 112.489C1052.74 115.761 1053.06 119.45 1053.06 120.696H1023.06ZM1041.26 138.896H1051.26V108.896H1041.26V138.896ZM1051.26 138.896C1071.72 138.896 1089.56 135.934 1102.74 128.082C1117.14 119.498 1124.66 105.827 1124.66 89.096H1094.66C1094.66 95.5654 1092.44 99.2939 1087.38 102.31C1081.09 106.058 1069.73 108.896 1051.26 108.896V138.896ZM1124.66 89.096C1124.66 73.7885 1118.7 60.5046 1105.9 51.7939C1094.13 43.7871 1078.36 40.896 1060.86 40.896V70.896C1075.89 70.896 1084.52 73.5381 1089.02 76.598C1092.48 78.954 1094.66 82.2701 1094.66 89.096H1124.66ZM1060.86 40.896C1052.51 40.896 1044.93 41.4648 1038.32 42.7872L1044.2 72.2047C1048.25 71.3938 1053.74 70.896 1060.86 70.896V40.896ZM1037.62 42.9438C1033.89 43.8757 1029.75 46.0212 1026.73 50.1734C1023.81 54.1861 1023.06 58.5429 1023.06 61.896H1053.06C1053.06 62.849 1052.84 65.2725 1050.99 67.8185C1049.04 70.5041 1046.49 71.6495 1044.9 72.0481L1037.62 42.9438ZM994.904 286.148C992.618 285.957 990.919 285.155 989.132 283.034L966.185 302.358C972.932 310.37 981.898 315.168 992.413 316.044L994.904 286.148ZM989.132 283.034C987.056 280.569 986.258 278.228 986.258 275.496H956.258C956.258 285.564 959.727 294.69 966.185 302.358L989.132 283.034ZM986.258 275.496V33.0959H956.258V275.496H986.258ZM986.258 33.0959C986.258 29.9496 987.144 27.8031 988.87 25.8614L966.447 5.9305C959.64 13.5888 956.258 22.9089 956.258 33.0959H986.258ZM988.837 25.8979C990.978 23.5046 992.965 22.639 995.304 22.4441L992.813 -7.45224C982.351 -6.58046 973.405 -1.84599 966.48 5.89403L988.837 25.8979ZM995.589 22.4177C1015.9 20.3341 1035.79 19.296 1055.26 19.296V-10.704C1034.72 -10.704 1013.81 -9.6089 992.528 -7.42578L995.589 22.4177ZM1055.26 19.296C1092.79 19.296 1118.36 25.434 1134.13 35.6023C1148.77 45.0418 1156.26 58.7496 1156.26 79.0959H1186.26C1186.26 49.5756 1174.42 25.8835 1150.39 10.3896C1127.49 -4.37541 1095.06 -10.704 1055.26 -10.704V19.296ZM1156.26 79.0959C1156.26 92.2995 1152.1 102.855 1143.88 111.67L1165.83 132.122C1179.49 117.47 1186.26 99.4924 1186.26 79.0959H1156.26ZM1143.76 111.806C1135.68 120.698 1124.46 126.804 1109.05 129.524L1114.27 159.068C1135.12 155.388 1152.71 146.561 1165.96 131.986L1143.76 111.806ZM1111.66 129.296C1108.97 129.296 1105.94 130.012 1103.16 131.865C1100.48 133.656 1098.86 135.942 1097.94 137.788C1096.31 141.056 1096.26 144.063 1096.26 145.096H1126.26C1126.26 145.595 1126.28 148.203 1124.77 151.204C1123.92 152.917 1122.39 155.103 1119.8 156.827C1117.12 158.613 1114.22 159.296 1111.66 159.296V129.296ZM1096.26 145.096C1096.26 147.787 1096.97 150.812 1098.83 153.592C1100.62 156.278 1102.9 157.889 1104.75 158.812C1108.02 160.446 1111.03 160.496 1112.06 160.496V130.496C1112.56 130.496 1115.17 130.479 1118.17 131.979C1119.88 132.836 1122.07 134.364 1123.79 136.95C1125.58 139.63 1126.26 142.538 1126.26 145.096H1096.26ZM1109.99 160.353C1128.32 162.905 1141.62 169.64 1151.12 179.762L1172.99 159.229C1157.96 143.219 1137.93 133.953 1114.13 130.639L1109.99 160.353ZM1151.23 179.879C1161.08 190.148 1165.86 202.026 1165.86 216.296H1195.86C1195.86 194.299 1188.1 174.977 1172.88 159.113L1151.23 179.879ZM1165.86 216.296C1165.86 242.24 1157.44 259.412 1142.31 270.657L1160.21 294.735C1184.54 276.646 1195.86 249.552 1195.86 216.296H1165.86ZM1142.34 270.637C1126.74 282.175 1100.01 289.296 1059.26 289.296V319.296C1102.24 319.296 1136.84 312.017 1160.18 294.755L1142.34 270.637ZM1059.26 289.296C1038.7 289.296 1017.3 288.255 995.064 286.162L992.253 316.03C1015.35 318.204 1037.69 319.296 1059.26 319.296V289.296ZM1281.6 141.496L1292.21 152.103L1292.32 151.99L1292.43 151.875L1281.6 141.496ZM1270 173.496L1255.08 171.926L1255 172.709V173.496H1270ZM1344 173.096H1359V172.805L1358.99 172.514L1344 173.096ZM1234.8 276.696L1224.5 287.597L1224.54 287.632L1224.57 287.667L1234.8 276.696ZM1231.6 116.296L1220.69 106.006L1220.68 106.011L1231.6 116.296ZM1404.4 192.296H1419.4V192.181L1419.4 192.065L1404.4 192.296ZM1396.8 208.696L1406.77 219.907L1406.79 219.891L1406.8 219.875L1396.8 208.696ZM1270 218.696L1284.85 216.537L1284.77 215.986L1284.65 215.442L1270 218.696ZM1286.8 250.296L1278.15 262.55L1278.36 262.694L1278.56 262.832L1286.8 250.296ZM1367.2 254.296L1363.73 239.704L1363.65 239.723L1363.56 239.744L1367.2 254.296ZM1382 257.496L1372.54 269.138L1372.71 269.277L1372.89 269.411L1382 257.496ZM1382.4 290.296L1370.47 281.205L1370.44 281.251L1370.4 281.296L1382.4 290.296ZM1366.8 299.896L1364.34 285.1L1364.17 285.128L1364.01 285.159L1366.8 299.896ZM1308.8 116.896C1294.21 116.896 1280.63 120.836 1270.77 131.117L1292.43 151.875C1294.85 149.356 1299.4 146.896 1308.8 146.896V116.896ZM1271 130.889C1261.17 140.71 1256.8 155.642 1255.08 171.926L1284.92 175.066C1286.41 160.95 1289.76 154.549 1292.21 152.103L1271 130.889ZM1255 173.496C1255 176.419 1255.6 181.413 1259.41 185.774C1263.56 190.516 1269 191.696 1272.8 191.696V161.696C1274.74 161.696 1278.77 162.342 1281.99 166.018C1284.87 169.312 1285 172.706 1285 173.496H1255ZM1272.8 191.696H1340.4V161.696H1272.8V191.696ZM1340.4 191.696C1343.91 191.696 1349.3 190.808 1353.71 186.403C1358.11 181.997 1359 176.608 1359 173.096H1329C1329 171.984 1329.29 168.395 1332.5 165.189C1335.7 161.984 1339.29 161.696 1340.4 161.696V191.696ZM1358.99 172.514C1358.39 157.083 1354.75 142.917 1345.81 132.452C1336.42 121.468 1323.24 116.896 1308.8 116.896V146.896C1316.76 146.896 1320.65 149.19 1323 151.94C1325.79 155.208 1328.55 161.643 1329.01 173.678L1358.99 172.514ZM1318.8 289.296C1285 289.296 1261.15 280.752 1245.03 265.725L1224.57 287.667C1247.92 309.44 1280.07 319.296 1318.8 319.296V289.296ZM1245.11 265.795C1229.5 251.042 1220.6 228.729 1220.6 196.296H1190.6C1190.6 234.263 1201.17 265.55 1224.5 287.597L1245.11 265.795ZM1220.6 196.296C1220.6 163.71 1228.67 141.283 1242.52 126.581L1220.68 106.011C1199.87 128.108 1190.6 159.015 1190.6 196.296H1220.6ZM1242.52 126.586C1256.52 111.733 1277.41 103.296 1307.6 103.296V73.2959C1271.66 73.2959 1241.88 83.5256 1220.69 106.006L1242.52 126.586ZM1307.6 103.296C1336.65 103.296 1356 111.166 1368.42 124.516C1381.07 138.105 1388.9 159.879 1389.4 192.527L1419.4 192.065C1418.84 155.38 1410 125.154 1390.38 104.076C1370.54 82.7591 1342.02 73.2959 1307.6 73.2959V103.296ZM1389.4 192.296C1389.4 194.137 1388.91 195.629 1386.8 197.517L1406.8 219.875C1414.83 212.696 1419.4 203.255 1419.4 192.296H1389.4ZM1386.84 197.485C1384.77 199.32 1382.71 200.096 1380 200.096V230.096C1390.09 230.096 1399.23 226.605 1406.77 219.907L1386.84 197.485ZM1380 200.096H1273.2V230.096H1380V200.096ZM1273.2 200.096C1270.32 200.096 1263.99 200.637 1259.19 206.03C1254.03 211.834 1254.62 218.633 1255.36 221.95L1284.65 215.442C1284.85 216.359 1285.71 221.357 1281.61 225.961C1277.89 230.155 1273.42 230.096 1273.2 230.096V200.096ZM1255.16 220.855C1257.68 238.172 1264.71 253.06 1278.15 262.55L1295.45 238.041C1290.76 234.732 1286.59 228.554 1284.85 216.537L1255.16 220.855ZM1278.56 262.832C1291.46 271.307 1308.78 274.496 1328.4 274.496V244.496C1311.22 244.496 1300.81 241.552 1295.04 237.76L1278.56 262.832ZM1328.4 274.496C1341.84 274.496 1356 272.557 1370.84 268.848L1363.56 239.744C1350.67 242.968 1338.97 244.496 1328.4 244.496V274.496ZM1370.68 268.888C1371.15 268.774 1371.47 268.746 1371.66 268.741C1371.83 268.737 1371.91 268.753 1371.93 268.757C1371.95 268.761 1371.98 268.768 1372.05 268.801C1372.12 268.837 1372.29 268.929 1372.54 269.138L1391.46 245.854C1383.38 239.29 1373.61 237.35 1363.73 239.704L1370.68 268.888ZM1372.89 269.411C1373.25 269.685 1373.45 269.892 1373.55 270.011C1373.65 270.125 1373.68 270.187 1373.69 270.204C1373.69 270.22 1373.72 270.265 1373.74 270.37C1373.76 270.482 1373.8 270.712 1373.8 271.096H1403.8C1403.8 260.72 1399.28 251.822 1391.11 245.581L1372.89 269.411ZM1373.8 271.096V271.896H1403.8V271.096H1373.8ZM1373.8 271.896C1373.8 275.087 1372.87 278.061 1370.47 281.205L1394.33 299.387C1400.47 291.331 1403.8 282.039 1403.8 271.896H1373.8ZM1370.4 281.296C1368.65 283.638 1366.82 284.687 1364.34 285.1L1369.27 314.692C1379.59 312.972 1388.16 307.621 1394.4 299.296L1370.4 281.296ZM1364.01 285.159C1349.51 287.909 1334.44 289.296 1318.8 289.296V319.296C1336.23 319.296 1353.16 317.75 1369.6 314.633L1364.01 285.159ZM1490.83 297.096L1505.38 293.458L1505.18 292.673L1504.9 291.913L1490.83 297.096ZM1423.23 113.496L1437.3 108.313L1437.18 107.991L1437.05 107.675L1423.23 113.496ZM1424.83 99.0959L1437.08 107.746V107.746L1424.83 99.0959ZM1480.83 98.696L1471.46 110.409L1471.64 110.555L1471.83 110.696L1480.83 98.696ZM1491.23 114.296L1505.8 110.735L1505.79 110.697L1505.78 110.658L1491.23 114.296ZM1521.63 238.696H1536.63V236.89L1536.2 235.135L1521.63 238.696ZM1522.43 238.696L1508.03 234.496L1507.43 236.553V238.696H1522.43ZM1558.83 113.896L1573.23 118.096L1573.31 117.816L1573.38 117.534L1558.83 113.896ZM1569.23 98.296L1560.51 86.09L1560.37 86.1913L1560.23 86.296L1569.23 98.296ZM1622.83 99.0959L1610.57 107.746V107.746L1622.83 99.0959ZM1624.83 113.496L1638.88 118.729L1638.89 118.705L1638.9 118.682L1624.83 113.496ZM1530.43 367.096L1544.47 372.363L1544.48 372.346L1544.48 372.329L1530.43 367.096ZM1518.43 382.296L1510.11 369.815L1509.91 369.949L1509.71 370.09L1518.43 382.296ZM1465.23 381.496L1477.82 373.347L1477.71 373.171L1477.59 372.998L1465.23 381.496ZM1464.03 367.496L1477.85 373.317L1477.86 373.303L1477.86 373.29L1464.03 367.496ZM1490.83 303.496L1504.66 309.29L1505.1 308.239L1505.38 307.134L1490.83 303.496ZM1504.9 291.913L1437.3 108.313L1409.15 118.679L1476.75 302.279L1504.9 291.913ZM1437.05 107.675C1436.99 107.535 1436.96 107.439 1436.95 107.386C1436.93 107.334 1436.93 107.321 1436.93 107.345C1436.94 107.369 1436.94 107.422 1436.95 107.498C1436.95 107.574 1436.95 107.661 1436.94 107.752C1436.93 107.844 1436.91 107.926 1436.89 107.995C1436.88 108.062 1436.86 108.104 1436.85 108.117C1436.85 108.129 1436.86 108.105 1436.89 108.045C1436.92 107.984 1436.98 107.884 1437.08 107.746L1412.57 90.4457C1406.42 99.1601 1405.24 109.424 1409.4 119.317L1437.05 107.675ZM1437.08 107.746C1437.29 107.457 1437.42 107.331 1437.45 107.3C1437.48 107.272 1437.46 107.297 1437.4 107.331C1437.33 107.364 1437.31 107.363 1437.37 107.35C1437.44 107.335 1437.64 107.296 1438.03 107.296V77.2959C1427.61 77.2959 1418.61 81.8871 1412.57 90.4457L1437.08 107.746ZM1438.03 107.296H1463.23V77.2959H1438.03V107.296ZM1463.23 107.296C1465.98 107.296 1468.59 108.117 1471.46 110.409L1490.2 86.9829C1482.4 80.7419 1473.27 77.2959 1463.23 77.2959V107.296ZM1471.83 110.696C1474.44 112.653 1475.92 114.914 1476.68 117.934L1505.78 110.658C1503.33 100.877 1497.88 92.7392 1489.83 86.696L1471.83 110.696ZM1476.66 117.857L1507.06 242.257L1536.2 235.135L1505.8 110.735L1476.66 117.857ZM1506.63 238.696C1506.63 241.142 1507.25 245.731 1511.12 249.603C1514.99 253.474 1519.58 254.096 1522.03 254.096V224.096C1524.21 224.096 1528.6 224.651 1532.33 228.389C1536.07 232.128 1536.63 236.517 1536.63 238.696H1506.63ZM1522.03 254.096C1524.47 254.096 1529.06 253.474 1532.93 249.602C1536.81 245.731 1537.43 241.141 1537.43 238.696H1507.43C1507.43 236.517 1507.98 232.128 1511.72 228.389C1515.46 224.651 1519.85 224.096 1522.03 224.096V254.096ZM1536.83 242.896L1573.23 118.096L1544.43 109.696L1508.03 234.496L1536.83 242.896ZM1573.38 117.534C1574.13 114.514 1575.62 112.253 1578.23 110.296L1560.23 86.296C1552.17 92.3392 1546.72 100.477 1544.28 110.258L1573.38 117.534ZM1577.95 110.502C1580.98 108.334 1584.2 107.296 1588.03 107.296V77.2959C1577.99 77.2959 1568.67 80.2583 1560.51 86.09L1577.95 110.502ZM1588.03 107.296H1610.03V77.2959H1588.03V107.296ZM1610.03 107.296C1610.29 107.296 1610.4 107.324 1610.38 107.32C1610.36 107.314 1610.28 107.291 1610.19 107.243C1610.1 107.195 1610.08 107.167 1610.13 107.211C1610.18 107.26 1610.34 107.415 1610.57 107.746L1635.08 90.4457C1629.21 82.1214 1620.46 77.2959 1610.03 77.2959V107.296ZM1610.57 107.746C1610.79 108.06 1610.88 108.241 1610.89 108.287C1610.91 108.325 1610.89 108.275 1610.87 108.159C1610.85 108.042 1610.86 107.956 1610.86 107.935C1610.86 107.921 1610.85 108.04 1610.75 108.31L1638.9 118.682C1642.53 108.833 1641.03 98.8775 1635.08 90.4457L1610.57 107.746ZM1610.77 108.263L1516.37 361.863L1544.48 372.329L1638.88 118.729L1610.77 108.263ZM1516.38 361.829C1515.07 365.333 1513.05 367.856 1510.11 369.815L1526.75 394.777C1535.01 389.27 1540.99 381.659 1544.47 372.363L1516.38 361.829ZM1509.71 370.09C1506.56 372.335 1503.46 373.296 1500.03 373.296V403.296C1509.93 403.296 1519.09 400.256 1527.15 394.502L1509.71 370.09ZM1500.03 373.296H1478.03V403.296H1500.03V373.296ZM1478.03 373.296C1477.64 373.296 1477.46 373.257 1477.44 373.252C1477.42 373.249 1477.44 373.253 1477.49 373.27C1477.54 373.287 1477.6 373.313 1477.66 373.349C1477.73 373.386 1477.8 373.427 1477.86 373.469C1477.91 373.51 1477.95 373.545 1477.98 373.566C1478.02 373.61 1477.96 373.563 1477.82 373.347L1452.63 389.645C1458.45 398.638 1467.57 403.296 1478.03 403.296V373.296ZM1477.59 372.998C1477.49 372.857 1477.51 372.85 1477.56 372.977C1477.58 373.038 1477.6 373.119 1477.63 373.217C1477.65 373.315 1477.66 373.416 1477.67 373.515C1477.68 373.614 1477.68 373.698 1477.68 373.761C1477.67 373.823 1477.67 373.854 1477.67 373.851C1477.67 373.844 1477.7 373.671 1477.85 373.317L1450.2 361.675C1446.23 371.103 1446.83 381.212 1452.87 389.994L1477.59 372.998ZM1477.86 373.29L1504.66 309.29L1476.99 297.702L1450.19 361.702L1477.86 373.29ZM1505.38 307.134C1505.93 304.914 1506.23 302.626 1506.23 300.296H1476.23C1476.23 300.099 1476.25 299.944 1476.28 299.858L1505.38 307.134ZM1506.23 300.296C1506.23 297.966 1505.93 295.678 1505.38 293.458L1476.28 300.734C1476.25 300.648 1476.23 300.493 1476.23 300.296H1506.23ZM1769.69 148.296L1757.11 156.459L1757.18 156.577L1757.26 156.694L1769.69 148.296ZM1710.09 148.296L1697.66 139.898L1697.58 140.015L1697.51 140.133L1710.09 148.296ZM1710.09 244.296L1697.51 252.459L1697.58 252.577L1697.66 252.694L1710.09 244.296ZM1769.69 244.296L1757.26 235.898L1757.18 236.015L1757.11 236.133L1769.69 244.296ZM1817.29 275.896L1828.05 286.35L1817.29 275.896ZM1662.89 275.896L1652.13 286.35L1662.89 275.896ZM1662.89 116.696L1652.13 106.242L1662.89 116.696ZM1817.29 116.696L1828.05 106.242L1817.29 116.696ZM1782.27 140.133C1772.7 125.373 1757.71 118.496 1740.09 118.496V148.496C1749.14 148.496 1753.88 151.485 1757.11 156.459L1782.27 140.133ZM1740.09 118.496C1722.47 118.496 1707.49 125.356 1697.66 139.898L1722.52 156.694C1726.03 151.502 1731.04 148.496 1740.09 148.496V118.496ZM1697.51 140.133C1688.66 153.768 1685.49 173.434 1685.49 196.296H1715.49C1715.49 174.891 1718.72 162.558 1722.67 156.459L1697.51 140.133ZM1685.49 196.296C1685.49 219.158 1688.66 238.824 1697.51 252.459L1722.67 236.133C1718.72 230.034 1715.49 217.701 1715.49 196.296H1685.49ZM1697.66 252.694C1707.49 267.236 1722.47 274.096 1740.09 274.096V244.096C1731.04 244.096 1726.03 241.09 1722.52 235.898L1697.66 252.694ZM1740.09 274.096C1757.71 274.096 1772.7 267.219 1782.27 252.459L1757.11 236.133C1753.88 241.106 1749.14 244.096 1740.09 244.096V274.096ZM1782.12 252.694C1791.37 238.998 1794.69 219.22 1794.69 196.296H1764.69C1764.69 217.639 1761.34 229.861 1757.26 235.898L1782.12 252.694ZM1794.69 196.296C1794.69 173.372 1791.37 153.594 1782.12 139.898L1757.26 156.694C1761.34 162.731 1764.69 174.953 1764.69 196.296H1794.69ZM1806.53 265.442C1791.63 280.774 1770.19 289.296 1740.09 289.296V319.296C1776.12 319.296 1806.15 308.885 1828.05 286.35L1806.53 265.442ZM1740.09 289.296C1709.99 289.296 1688.55 280.774 1673.65 265.442L1652.13 286.35C1674.03 308.885 1704.06 319.296 1740.09 319.296V289.296ZM1673.65 265.442C1658.7 250.059 1650.29 227.714 1650.29 196.296H1620.29C1620.29 233.145 1630.28 263.867 1652.13 286.35L1673.65 265.442ZM1650.29 196.296C1650.29 164.878 1658.7 142.533 1673.65 127.15L1652.13 106.242C1630.28 128.725 1620.29 159.447 1620.29 196.296H1650.29ZM1673.65 127.15C1688.55 111.818 1709.99 103.296 1740.09 103.296V73.2959C1704.06 73.2959 1674.03 83.7069 1652.13 106.242L1673.65 127.15ZM1740.09 103.296C1770.19 103.296 1791.63 111.818 1806.53 127.15L1828.05 106.242C1806.15 83.7069 1776.12 73.2959 1740.09 73.2959V103.296ZM1806.53 127.15C1821.48 142.533 1829.89 164.878 1829.89 196.296H1859.89C1859.89 159.447 1849.9 128.725 1828.05 106.242L1806.53 127.15ZM1829.89 196.296C1829.89 227.714 1821.48 250.059 1806.53 265.442L1828.05 286.35C1849.9 263.867 1859.89 233.145 1859.89 196.296H1829.89ZM1890.06 293.496L1879.14 303.776L1879.3 303.942L1879.46 304.103L1890.06 293.496ZM1890.06 99.0959L1879.46 88.4893L1879.3 88.65L1879.14 88.8155L1890.06 99.0959ZM1938.46 99.0959L1927.54 109.376L1927.85 109.707L1928.18 110.019L1938.46 99.0959ZM1945.66 115.096L1930.68 115.72L1930.7 116.341L1930.78 116.956L1945.66 115.096ZM1946.06 118.296H1961.06V117.362L1960.95 116.435L1946.06 118.296ZM1946.46 118.696V133.696H1952.68L1957.07 129.303L1946.46 118.696ZM1947.26 117.896L1957.87 128.503L1958.21 128.16L1958.53 127.795L1947.26 117.896ZM2062.06 109.096L2050.18 118.242L2050.22 118.298L2050.26 118.353L2062.06 109.096ZM2071.26 293.496L2060.66 282.889L2060.5 283.05L2060.34 283.215L2071.26 293.496ZM2022.06 293.496L2032.67 282.889L2032.67 282.889L2022.06 293.496ZM2008.86 148.296L1996.55 156.862L1996.64 156.991L1996.73 157.119L2008.86 148.296ZM1959.66 150.696L1970.08 161.487L1970.09 161.481L1959.66 150.696ZM1941.26 293.496L1930.66 282.889L1930.5 283.05L1930.34 283.215L1941.26 293.496ZM1906.06 285.296C1904.11 285.296 1902.53 284.752 1900.67 282.889L1879.46 304.103C1886.66 311.307 1895.76 315.296 1906.06 315.296V285.296ZM1900.99 283.215C1899.3 281.418 1898.66 279.745 1898.66 277.496H1868.66C1868.66 287.514 1872.3 296.507 1879.14 303.776L1900.99 283.215ZM1898.66 277.496V115.096H1868.66V277.496H1898.66ZM1898.66 115.096C1898.66 112.847 1899.3 111.174 1900.99 109.376L1879.14 88.8155C1872.3 96.0848 1868.66 105.078 1868.66 115.096H1898.66ZM1900.67 109.703C1902.53 107.84 1904.11 107.296 1906.06 107.296V77.2959C1895.76 77.2959 1886.66 81.2849 1879.46 88.4893L1900.67 109.703ZM1906.06 107.296H1922.46V77.2959H1906.06V107.296ZM1922.46 107.296C1924.86 107.296 1926.2 107.949 1927.54 109.376L1949.39 88.8155C1942.2 81.1762 1932.87 77.2959 1922.46 77.2959V107.296ZM1928.18 110.019C1929.77 111.514 1930.57 113.11 1930.68 115.72L1960.65 114.471C1960.23 104.282 1956.22 95.2112 1948.75 88.1729L1928.18 110.019ZM1930.78 116.956L1931.18 120.156L1960.95 116.435L1960.55 113.235L1930.78 116.956ZM1931.06 118.296C1931.06 120.741 1931.69 125.331 1935.56 129.203C1939.43 133.074 1944.02 133.696 1946.46 133.696V103.696C1948.64 103.696 1953.03 104.251 1956.77 107.989C1960.51 111.728 1961.06 116.117 1961.06 118.296H1931.06ZM1957.07 129.303L1957.87 128.503L1936.66 107.289L1935.86 108.089L1957.07 129.303ZM1958.53 127.795C1973.28 111.003 1990.1 103.296 2009.66 103.296V73.2959C1980.7 73.2959 1955.91 85.3223 1935.99 107.997L1958.53 127.795ZM2009.66 103.296C2031.19 103.296 2043.34 109.359 2050.18 118.242L2073.95 99.9503C2059.45 81.0997 2036.67 73.2959 2009.66 73.2959V103.296ZM2050.26 118.353C2057.67 127.8 2063.06 146.753 2063.06 179.096H2093.06C2093.06 145.306 2087.79 117.592 2073.87 99.8389L2050.26 118.353ZM2063.06 179.096V277.496H2093.06V179.096H2063.06ZM2063.06 277.496C2063.06 279.455 2062.52 281.027 2060.66 282.889L2081.87 304.103C2089.08 296.898 2093.06 287.804 2093.06 277.496H2063.06ZM2060.34 283.215C2058.86 284.788 2057.59 285.296 2055.66 285.296V315.296C2066 315.296 2075.13 311.27 2082.19 303.776L2060.34 283.215ZM2055.66 285.296H2038.06V315.296H2055.66V285.296ZM2038.06 285.296C2036.11 285.296 2034.53 284.752 2032.67 282.889L2011.46 304.103C2018.66 311.307 2027.76 315.296 2038.06 315.296V285.296ZM2032.67 282.889C2030.81 281.027 2030.26 279.455 2030.26 277.496H2000.26C2000.26 287.804 2004.25 296.898 2011.46 304.103L2032.67 282.889ZM2030.26 277.496V181.096H2000.26V277.496H2030.26ZM2030.26 181.096C2030.26 172.511 2029.7 164.747 2028.39 158.023C2027.1 151.447 2024.92 144.87 2021 139.473L1996.73 157.119C1997.08 157.589 1998.09 159.411 1998.94 163.769C1999.76 167.978 2000.26 173.681 2000.26 181.096H2030.26ZM2021.18 139.73C2012.9 127.835 1999.2 124.096 1985.66 124.096V154.096C1994.53 154.096 1996.29 156.49 1996.55 156.862L2021.18 139.73ZM1985.66 124.096C1971.71 124.096 1959.46 130.028 1949.24 139.911L1970.09 161.481C1975.87 155.897 1980.95 154.096 1985.66 154.096V124.096ZM1949.25 139.905C1939.28 149.528 1933.06 161.353 1933.06 175.096H1963.06C1963.06 171.239 1964.58 166.797 1970.08 161.487L1949.25 139.905ZM1933.06 175.096V277.496H1963.06V175.096H1933.06ZM1933.06 277.496C1933.06 279.455 1932.52 281.027 1930.66 282.889L1951.87 304.103C1959.08 296.898 1963.06 287.804 1963.06 277.496H1933.06ZM1930.34 283.215C1928.86 284.788 1927.59 285.296 1925.66 285.296V315.296C1936 315.296 1945.13 311.27 1952.19 303.776L1930.34 283.215ZM1925.66 285.296H1906.06V315.296H1925.66V285.296ZM2190.98 241.496L2178.86 250.338L2190.98 241.496ZM2248.18 245.496L2238.14 234.347L2248.18 245.496ZM2139.78 275.896L2128.02 285.207L2128.05 285.247L2128.08 285.286L2139.78 275.896ZM2138.98 116.296L2150.77 125.563L2138.98 116.296ZM2257.78 112.696L2268.38 102.089L2268.14 101.841L2267.88 101.604L2257.78 112.696ZM2265.38 7.09595L2254.77 -3.51067L2254.61 -3.34998L2254.45 -3.18451L2265.38 7.09595ZM2316.58 7.09595L2305.65 17.3764L2305.81 17.5419L2305.97 17.7025L2316.58 7.09595ZM2316.58 293.496L2305.97 282.889L2305.81 283.05L2305.65 283.215L2316.58 293.496ZM2269.38 293.896L2258.45 304.176L2258.77 304.507L2259.1 304.819L2269.38 293.896ZM2262.58 277.496H2247.58V277.808L2247.59 278.12L2262.58 277.496ZM2262.18 273.896V258.896H2255.96L2251.57 263.289L2262.18 273.896ZM2261.38 274.696L2250.77 264.089L2250.35 264.514L2249.96 264.972L2261.38 274.696ZM2220.18 121.296C2202.47 121.296 2187.49 128.292 2177.7 142.975C2168.62 156.585 2165.18 175.103 2165.18 196.296H2195.18C2195.18 177.489 2198.4 166.007 2202.66 159.616C2206.2 154.3 2211.21 151.296 2220.18 151.296V121.296ZM2165.18 196.296C2165.18 217.836 2168.91 236.704 2178.86 250.338L2203.09 232.654C2198.64 226.554 2195.18 215.289 2195.18 196.296H2165.18ZM2178.86 250.338C2188.9 264.094 2203.14 271.296 2220.18 271.296V241.296C2212.68 241.296 2207.46 238.631 2203.09 232.654L2178.86 250.338ZM2220.18 271.296C2234.59 271.296 2247.48 266.3 2258.21 256.645L2238.14 234.347C2232.87 239.092 2227.1 241.296 2220.18 241.296V271.296ZM2258.21 256.645C2268.73 247.182 2275.18 235.213 2275.18 221.096H2245.18C2245.18 225.112 2243.63 229.41 2238.14 234.347L2258.21 256.645ZM2275.18 221.096V171.496H2245.18V221.096H2275.18ZM2275.18 171.496C2275.18 157.379 2268.73 145.41 2258.21 135.947L2238.14 158.245C2243.63 163.182 2245.18 167.479 2245.18 171.496H2275.18ZM2258.21 135.947C2247.48 126.292 2234.59 121.296 2220.18 121.296V151.296C2227.1 151.296 2232.87 153.5 2238.14 158.245L2258.21 135.947ZM2198.18 289.296C2179.11 289.296 2163.9 281.987 2151.47 266.505L2128.08 285.286C2146.05 307.671 2169.78 319.296 2198.18 319.296V289.296ZM2151.54 266.585C2139.11 250.888 2131.98 228.06 2131.98 196.296H2101.98C2101.98 232.265 2110.04 262.504 2128.02 285.207L2151.54 266.585ZM2131.98 196.296C2131.98 163.496 2138.95 140.613 2150.77 125.563L2127.18 107.029C2109.67 129.312 2101.98 159.763 2101.98 196.296H2131.98ZM2150.77 125.563C2162.45 110.7 2177.74 103.296 2198.18 103.296V73.2959C2169.01 73.2959 2144.84 84.5589 2127.18 107.029L2150.77 125.563ZM2198.18 103.296C2215.9 103.296 2232.26 109.75 2247.68 123.788L2267.88 101.604C2247.56 83.1086 2224.18 73.2959 2198.18 73.2959V103.296ZM2247.17 123.303C2249.07 125.204 2252.93 128.096 2258.58 128.096V98.0959C2263.69 98.0959 2267.02 100.721 2268.38 102.089L2247.17 123.303ZM2258.58 128.096C2261.02 128.096 2265.61 127.474 2269.48 123.603C2273.36 119.731 2273.98 115.142 2273.98 112.696H2243.98C2243.98 110.517 2244.53 106.128 2248.27 102.389C2252.01 98.6508 2256.4 98.0959 2258.58 98.0959V128.096ZM2273.98 112.696V23.0959H2243.98V112.696H2273.98ZM2273.98 23.0959C2273.98 20.847 2274.61 19.1737 2276.3 17.3764L2254.45 -3.18451C2247.61 4.08484 2243.98 13.0783 2243.98 23.0959H2273.98ZM2275.98 17.7025C2277.85 15.8403 2279.42 15.2959 2281.38 15.2959V-14.7041C2271.07 -14.7041 2261.98 -10.7151 2254.77 -3.51067L2275.98 17.7025ZM2281.38 15.2959H2300.98V-14.7041H2281.38V15.2959ZM2300.98 15.2959C2302.9 15.2959 2304.17 15.8036 2305.65 17.3764L2327.5 -3.18451C2320.45 -10.6784 2311.32 -14.7041 2300.98 -14.7041V15.2959ZM2305.97 17.7025C2307.83 19.5648 2308.38 21.1372 2308.38 23.0959H2338.38C2338.38 12.788 2334.39 3.69377 2327.18 -3.51067L2305.97 17.7025ZM2308.38 23.0959V277.496H2338.38V23.0959H2308.38ZM2308.38 277.496C2308.38 279.455 2307.83 281.027 2305.97 282.889L2327.18 304.103C2334.39 296.898 2338.38 287.804 2338.38 277.496H2308.38ZM2305.65 283.215C2304.17 284.788 2302.9 285.296 2300.98 285.296V315.296C2311.32 315.296 2320.45 311.27 2327.5 303.776L2305.65 283.215ZM2300.98 285.296H2285.78V315.296H2300.98V285.296ZM2285.78 285.296C2283.08 285.296 2281.32 284.541 2279.66 282.973L2259.1 304.819C2266.5 311.785 2275.68 315.296 2285.78 315.296V285.296ZM2280.3 283.615C2278.58 281.79 2277.69 279.783 2277.56 276.871L2247.59 278.12C2248 288.009 2251.64 296.935 2258.45 304.176L2280.3 283.615ZM2277.58 277.496V274.296H2247.58V277.496H2277.58ZM2277.58 274.296C2277.58 271.85 2276.96 267.261 2273.08 263.389C2269.21 259.518 2264.62 258.896 2262.18 258.896V288.896C2260 288.896 2255.61 288.341 2251.87 284.603C2248.13 280.864 2247.58 276.475 2247.58 274.296H2277.58ZM2251.57 263.289L2250.77 264.089L2271.98 285.303L2272.78 284.503L2251.57 263.289ZM2249.96 264.972C2235.93 281.447 2219 289.296 2198.18 289.296V319.296C2228.02 319.296 2253.22 307.412 2272.8 284.42L2249.96 264.972Z" fill="#012758" mask="url(#path-1-outside-1_23_230)"/>
</svg>
