<svg width="677" height="567" viewBox="0 0 677 567" fill="none" xmlns="http://www.w3.org/2000/svg">
<g clip-path="url(#clip0_6_181)">
<rect x="13.5519" y="4.52973" width="218.971" height="89.5808" rx="44.5" transform="matrix(0.899405 -0.437116 0.455786 0.890089 42.9476 132.242)" fill="#86AC3B" stroke="#012758" stroke-width="20"/>
<mask id="path-2-inside-1_6_181" fill="white">
<ellipse cx="17.9575" cy="17.5057" rx="17.9575" ry="17.5057" transform="matrix(0.994223 -0.107338 0.113022 0.993593 299.201 31.0314)"/>
</mask>
<ellipse cx="17.9575" cy="17.5057" rx="17.9575" ry="17.5057" transform="matrix(0.994223 -0.107338 0.113022 0.993593 299.201 31.0314)" fill="#89B03D"/>
<path d="M317.002 46.7166C316.906 45.869 317.208 45.1284 317.558 44.7026C317.9 44.2865 318.36 44.0613 318.751 44.019L323.272 83.7627C343.633 81.5645 359.166 63.4785 356.771 42.4231L317.002 46.7166ZM318.751 44.019C319.142 43.9768 319.642 44.0984 320.069 44.4315C320.506 44.7723 320.967 45.4305 321.064 46.2781L281.295 50.5717C283.69 71.6271 302.91 85.961 323.272 83.7627L318.751 44.019ZM321.064 46.2781C321.16 47.1257 320.858 47.8663 320.508 48.2921C320.166 48.7083 319.706 48.9335 319.315 48.9757L314.794 9.232C294.433 11.4303 278.9 29.5162 281.295 50.5717L321.064 46.2781ZM319.315 48.9757C318.924 49.0179 318.424 48.8964 317.997 48.5633C317.56 48.2224 317.099 47.5642 317.002 46.7166L356.771 42.4231C354.376 21.3677 335.156 7.03374 314.794 9.232L319.315 48.9757Z" fill="#012758" mask="url(#path-2-inside-1_6_181)"/>
<path d="M291.179 10.6751L172.368 64.7531L210.434 136.103C216.782 134.411 247.822 121.602 321.196 83.8997C363.603 39.0764 321.066 10.1314 291.179 10.6751Z" fill="#8EB540" stroke="#012758" stroke-width="20"/>
<rect x="13.5519" y="4.52973" width="218.971" height="89.5808" rx="44.5" transform="matrix(0.899405 -0.437116 0.455786 0.890089 171.682 167.185)" fill="#86AC3B" stroke="#012758" stroke-width="20"/>
<rect x="-12.3277" y="7.11618" width="214.42" height="189.361" rx="82.2208" transform="matrix(-0.265192 0.964196 -0.967577 -0.252578 256.028 219.914)" fill="#8FB03F" stroke="#012758" stroke-width="20"/>
<rect x="7.02385" y="12.1677" width="219.782" height="89.1956" rx="44.5" transform="matrix(0.967577 0.252578 -0.265192 0.964196 64.3498 92.1654)" fill="#86AC3B" stroke="#012758" stroke-width="20"/>
<rect x="-6.5633" y="12.409" width="121.043" height="57.6948" rx="28.8474" transform="matrix(0.301472 0.953475 -0.957802 0.287428 361.273 139.114)" fill="#BE8F65" stroke="#012758" stroke-width="20"/>
<rect x="12.3277" y="-7.11618" width="87.8013" height="39.4446" rx="19.7223" transform="matrix(0.265192 -0.964195 0.967577 0.252578 103.319 343.78)" fill="#BE8F65" stroke="#012758" stroke-width="20"/>
<rect x="12.3277" y="-7.11618" width="42.0769" height="39.4446" rx="19.7223" transform="matrix(0.265192 -0.964195 0.967577 0.252578 115.35 299.693)" fill="#6ED5A6" stroke="#012758" stroke-width="20"/>
<path d="M224.937 94.7842C227.252 115.133 212.172 133.895 190.659 136.218C169.145 138.54 150.215 123.45 147.901 103.101C145.586 82.7518 160.665 63.9902 182.179 61.6676C203.692 59.345 222.622 74.4349 224.937 94.7842Z" fill="#89B03D" stroke="#012758" stroke-width="20"/>
<mask id="path-12-inside-2_6_181" fill="white">
<ellipse cx="17.9575" cy="17.5057" rx="17.9575" ry="17.5057" transform="matrix(0.994223 -0.107338 0.113022 0.993593 170.394 83.7177)"/>
</mask>
<ellipse cx="17.9575" cy="17.5057" rx="17.9575" ry="17.5057" transform="matrix(0.994223 -0.107338 0.113022 0.993593 170.394 83.7177)" fill="#89B03D"/>
<path d="M188.196 99.4029C188.099 98.5553 188.401 97.8147 188.751 97.3889C189.093 96.9728 189.553 96.7475 189.944 96.7053L194.465 136.449C214.827 134.251 230.36 116.165 227.965 95.1094L188.196 99.4029ZM189.944 96.7053C190.335 96.6631 190.835 96.7847 191.262 97.1178C191.699 97.4586 192.161 98.1168 192.257 98.9644L152.488 103.258C154.883 124.313 174.104 138.647 194.465 136.449L189.944 96.7053ZM192.257 98.9644C192.353 99.812 192.051 100.553 191.702 100.978C191.36 101.395 190.899 101.62 190.508 101.662L185.987 61.9183C165.626 64.1165 150.093 82.2025 152.488 103.258L192.257 98.9644ZM190.508 101.662C190.117 101.704 189.617 101.583 189.19 101.25C188.753 100.909 188.292 100.25 188.196 99.4029L227.965 95.1094C225.57 74.0539 206.349 59.72 185.987 61.9183L190.508 101.662Z" fill="#012758" mask="url(#path-12-inside-2_6_181)"/>
<ellipse cx="7.88433" cy="7.68162" rx="7.88433" ry="7.68162" transform="matrix(0.99935 -0.0360485 0.0379789 0.999278 321.34 168.102)" fill="#012758"/>
<ellipse cx="7.88216" cy="7.68383" rx="7.88216" ry="7.68383" transform="matrix(0.994223 -0.107338 0.113022 0.993593 295.674 40.0084)" fill="#4E7411"/>
<ellipse cx="7.88433" cy="7.68162" rx="7.88433" ry="7.68162" transform="matrix(0.99935 -0.0360485 0.0379789 0.999278 359.563 123.316)" fill="#4E7411"/>
<ellipse cx="156.863" cy="181.077" rx="7.8846" ry="7.68134" fill="#4E7411"/>
<ellipse cx="7.88433" cy="7.68162" rx="7.88433" ry="7.68162" transform="matrix(0.99935 -0.0360485 0.0379789 0.999278 332.095 202.118)" fill="#012758"/>
<ellipse cx="7.88433" cy="7.68162" rx="7.88433" ry="7.68162" transform="matrix(0.99935 -0.0360485 0.0379789 0.999278 340.888 229.926)" fill="#012758"/>
<path d="M542.33 496.153C505.092 473.264 490.187 427.093 512.712 392.312C535.237 357.532 584.43 350.76 621.668 373.649C658.906 396.539 673.811 442.71 651.286 477.49C628.761 512.271 579.568 519.042 542.33 496.153Z" fill="#6ED5A6" stroke="#012758" stroke-width="20"/>
<path d="M553.856 384.387C586.869 371.854 625.313 390.894 639.722 426.916" stroke="#FCF6EA" stroke-width="20" stroke-linecap="round"/>
<ellipse cx="11.0277" cy="10.7434" rx="11.0277" ry="10.7434" transform="matrix(-1 0 0 1 542.55 391.908)" fill="#FCF6EA"/>
<path fill-rule="evenodd" clip-rule="evenodd" d="M514.19 411.651C504.942 439.011 517.754 471.588 546.752 489.413C575.242 506.925 610.197 504.568 631.676 485.598C593.909 477.276 545.16 456.298 514.19 411.651Z" fill="#24A98E"/>
<path d="M574.149 353C591.402 399.078 606.435 497.021 528.539 520.177C450.643 543.332 526.489 418.374 574.149 353Z" fill="#6ED5A6" stroke="#012758" stroke-width="20"/>
<path d="M551 169C523.067 169 500 146.846 500 119C500 91.1544 523.067 69 551 69C578.932 69 602 91.1544 602 119C602 146.846 578.932 169 551 169Z" fill="#FDE7D2" stroke="#062855" stroke-width="20"/>
<ellipse cx="26" cy="25.5" rx="26" ry="25.5" transform="matrix(-1 0 0 1 577 93)" fill="#022656"/>
<mask id="path-27-outside-3_6_181" maskUnits="userSpaceOnUse" x="189.287" y="77.6836" width="454" height="466" fill="black">
<rect fill="white" x="189.287" y="77.6836" width="454" height="466"/>
<path fill-rule="evenodd" clip-rule="evenodd" d="M567.452 357.746C601.508 330.935 623.287 289.912 623.287 243.934C623.287 163.162 556.076 97.6836 473.167 97.6836C416.837 97.6836 367.754 127.908 342.073 172.619C305.434 185.689 271.68 210.166 246.857 244.743C186.58 328.702 201.783 440.42 280.814 494.271C359.846 548.122 472.777 523.714 533.055 439.755C551.411 414.187 562.767 386.044 567.452 357.746Z"/>
</mask>
<path fill-rule="evenodd" clip-rule="evenodd" d="M567.452 357.746C601.508 330.935 623.287 289.912 623.287 243.934C623.287 163.162 556.076 97.6836 473.167 97.6836C416.837 97.6836 367.754 127.908 342.073 172.619C305.434 185.689 271.68 210.166 246.857 244.743C186.58 328.702 201.783 440.42 280.814 494.271C359.846 548.122 472.777 523.714 533.055 439.755C551.411 414.187 562.767 386.044 567.452 357.746Z" fill="#6ED5A6"/>
<path d="M567.452 357.746L547.721 354.479L548.988 346.828L555.081 342.031L567.452 357.746ZM342.073 172.619L359.415 182.581L355.741 188.978L348.793 191.456L342.073 172.619ZM246.857 244.743L230.61 233.079V233.079L246.857 244.743ZM280.814 494.271L292.076 477.743L280.814 494.271ZM533.055 439.755L516.808 428.091L533.055 439.755ZM555.081 342.031C584.62 318.777 603.287 283.41 603.287 243.934H643.287C643.287 296.415 618.396 343.094 579.824 373.46L555.081 342.031ZM603.287 243.934C603.287 174.697 545.526 117.684 473.167 117.684V77.6836C566.626 77.6836 643.287 151.627 643.287 243.934H603.287ZM473.167 117.684C424.109 117.684 381.586 143.983 359.415 182.581L324.73 162.658C353.923 111.834 409.566 77.6836 473.167 77.6836V117.684ZM348.793 191.456C315.918 203.184 285.514 225.191 263.103 256.406L230.61 233.079C257.847 195.141 294.95 168.195 335.353 153.782L348.793 191.456ZM263.103 256.406C208.478 332.494 223.562 431.058 292.076 477.743L269.553 510.799C180.005 449.782 164.681 324.911 230.61 233.079L263.103 256.406ZM292.076 477.743C360.995 524.704 462.023 504.4 516.808 428.091L549.301 451.419C483.532 543.028 358.696 571.541 269.553 510.799L292.076 477.743ZM516.808 428.091C533.378 405.01 543.538 379.739 547.721 354.479L587.184 361.013C581.995 392.349 569.443 423.363 549.301 451.419L516.808 428.091Z" fill="#012758" mask="url(#path-27-outside-3_6_181)"/>
<path fill-rule="evenodd" clip-rule="evenodd" d="M623.287 243.934C623.287 289.913 601.508 330.936 567.452 357.746C562.767 386.045 551.411 414.187 533.055 439.755C477.121 517.665 375.847 544.296 298.394 504.7L510.809 222.244L613.139 190.968C619.692 207.391 623.287 225.254 623.287 243.934Z" fill="#FFF3E5"/>
<path d="M408.217 126.744C446.918 91.8221 516.596 99.1454 551.171 135.513" stroke="#FCF6EA" stroke-width="20" stroke-linecap="round"/>
<line x1="10" y1="-10" x2="17.8641" y2="-10" transform="matrix(-0.753036 0.65798 0.677306 0.735702 362.384 238.997)" stroke="#012758" stroke-width="20" stroke-linecap="round"/>
<line x1="10" y1="-10" x2="18.453" y2="-10" transform="matrix(-0.772295 0.635264 0.654935 0.755686 322.312 240.028)" stroke="#012758" stroke-width="20" stroke-linecap="round"/>
<line x1="10" y1="-10" x2="22.9372" y2="-10" transform="matrix(-0.759621 0.650366 0.669819 0.742524 364.686 194.149)" stroke="#012758" stroke-width="20" stroke-linecap="round"/>
<path d="M387.5 169C359.727 169 337 146.731 337 119C337 91.269 359.727 69 387.5 69C415.273 69 438 91.269 438 119C438 146.731 415.273 169 387.5 169Z" fill="#FDE7D2" stroke="#062855" stroke-width="20"/>
<ellipse cx="26" cy="25.5" rx="26" ry="25.5" transform="matrix(-1 0 0 1 414 93)" fill="#022656"/>
<ellipse cx="16.5" cy="16" rx="16.5" ry="16" transform="matrix(-1 0 0 1 554 151)" fill="#022656"/>
<ellipse cx="16.5" cy="16" rx="16.5" ry="16" transform="matrix(-1 0 0 1 487 151)" fill="#022656"/>
<path d="M604 190C574.025 208.402 494.661 236.373 417 201.041" stroke="#012758" stroke-width="20" stroke-linecap="round"/>
<path d="M206.731 496.153C169.494 473.264 154.588 427.093 177.113 392.312C199.638 357.532 248.831 350.76 286.069 373.649C323.307 396.539 338.213 442.71 315.687 477.49C293.162 512.271 243.969 519.042 206.731 496.153Z" fill="#6ED5A6" stroke="#012758" stroke-width="20"/>
<path d="M218.258 384.387C251.271 371.854 289.714 390.894 304.123 426.916" stroke="#FCF6EA" stroke-width="20" stroke-linecap="round"/>
<ellipse cx="11.0277" cy="10.7434" rx="11.0277" ry="10.7434" transform="matrix(-1 0 0 1 206.951 391.908)" fill="#FCF6EA"/>
<path fill-rule="evenodd" clip-rule="evenodd" d="M178.592 411.651C169.343 439.011 182.155 471.588 211.153 489.413C239.643 506.925 274.599 504.568 296.078 485.598C258.31 477.276 209.561 456.298 178.592 411.651Z" fill="#24A98E"/>
<path d="M281 517C281 527.397 289.633 536 300.5 536C311.367 536 320 527.397 320 517C320 506.603 311.367 498 300.5 498C289.633 498 281 506.603 281 517Z" fill="#6ED5A6" stroke="#012758" stroke-width="10"/>
<path d="M246 529C246 539.212 254.888 548 266.5 548C278.111 548 287 539.212 287 529C287 518.788 278.111 510 266.5 510C254.888 510 246 518.788 246 529Z" fill="#6ED5A6" stroke="#012758" stroke-width="10"/>
<path d="M209 527.5C209 537.619 217.407 546 228 546C238.593 546 247 537.619 247 527.5C247 517.381 238.593 509 228 509C217.407 509 209 517.381 209 527.5Z" fill="#6ED5A6" stroke="#012758" stroke-width="10"/>
<path d="M399.887 364.616L401.056 366.357L401.427 368.421C405.362 390.33 411.656 423.532 417.743 451.926C420.791 466.142 423.759 479.024 426.334 488.646C427.627 493.478 428.774 497.31 429.737 500.014C430.17 501.23 430.514 502.072 430.761 502.604C435.341 507.138 437.372 512.339 438.359 514.867C438.392 514.951 438.424 515.032 438.454 515.109H449.234L447.1 526.892C446.67 529.264 445.543 532.728 442.349 535.28C438.95 537.996 435.158 538.155 432.691 537.813C430.371 537.492 428.361 536.64 427.038 536.009C425.622 535.334 424.231 534.533 423.101 533.868C422.745 533.659 422.409 533.461 422.091 533.273C420.415 532.285 419.23 531.586 418.198 531.101L417.607 531.437L414.62 531.243C410.246 530.959 409.598 531.222 409.443 531.285L409.443 531.285L409.44 531.286C409.367 531.315 408.434 531.683 405.571 535.233L403.397 537.928L400.021 538.702C398.502 539.05 397.535 539.296 396.508 539.557C395.564 539.798 394.57 540.05 393.05 540.407C390.927 540.905 387.921 541.564 385.17 541.564C383.838 541.564 381.398 541.435 378.907 540.175C375.804 538.606 373.345 535.616 372.752 531.679C372.278 528.529 373.178 525.857 373.818 524.333C374.532 522.632 375.52 520.988 376.565 519.462C376.949 518.9 377.311 518.374 377.653 517.876C378.933 516.016 379.933 514.562 380.783 513.174C381.84 511.449 382.215 510.521 382.343 510.04C382.359 509.982 382.368 509.938 382.374 509.906C382.303 509.712 381.977 508.974 380.761 507.62C376.181 502.52 362.401 483.617 349.844 462.347C343.51 451.62 337.313 440.001 332.67 428.946C328.133 418.143 324.63 406.851 324.63 397.108V396.658L324.67 396.211C326.546 375.375 342.252 362.555 357.16 357.148C364.714 354.409 372.8 353.246 380.095 354.022C387.123 354.769 395.16 357.572 399.887 364.616ZM431.031 503.13C431.032 503.127 431.008 503.084 430.96 503.008C431.007 503.095 431.031 503.133 431.031 503.13ZM416.915 530.608C416.918 530.613 416.98 530.632 417.093 530.651C416.969 530.612 416.913 530.603 416.915 530.608Z" fill="#6DD4A6" stroke="#012758" stroke-width="20" stroke-linecap="round"/>
<path d="M423.539 525.301C422.034 535.478 429.288 545.132 440.041 546.641C450.794 548.15 460.549 540.883 462.053 530.705C463.558 520.528 456.305 510.874 445.552 509.365C434.799 507.856 425.044 515.123 423.539 525.301Z" fill="#6ED5A6" stroke="#012758" stroke-width="10"/>
<path d="M542.846 517.84C541.341 528.018 548.594 537.672 559.347 539.181C570.1 540.69 579.855 533.422 581.36 523.245C582.864 513.067 575.611 503.413 564.858 501.904C554.105 500.395 544.35 507.663 542.846 517.84Z" fill="#6ED5A6" stroke="#012758" stroke-width="10"/>
<path d="M386.034 536.761C384.529 546.938 391.782 556.592 402.535 558.101C413.288 559.61 423.043 552.343 424.548 542.165C426.052 531.988 418.799 522.334 408.046 520.825C397.293 519.316 387.538 526.583 386.034 536.761Z" fill="#6ED5A6" stroke="#012758" stroke-width="10"/>
<path d="M505.34 529.3C503.836 539.478 511.089 549.132 521.842 550.641C532.595 552.15 542.35 544.882 543.854 534.705C545.359 524.527 538.106 514.873 527.353 513.364C516.6 511.855 506.845 519.123 505.34 529.3Z" fill="#6ED5A6" stroke="#012758" stroke-width="10"/>
<path d="M349.972 525.171C348.467 535.348 355.72 545.002 366.473 546.511C377.226 548.02 386.981 540.753 388.486 530.575C389.991 520.397 382.738 510.743 371.984 509.235C361.231 507.726 351.476 514.993 349.972 525.171Z" fill="#6ED5A6" stroke="#012758" stroke-width="10"/>
<path d="M469.279 517.71C467.774 527.888 475.027 537.542 485.78 539.051C496.533 540.56 506.288 533.292 507.793 523.115C509.298 512.937 502.044 503.283 491.291 501.774C480.538 500.265 470.783 507.533 469.279 517.71Z" fill="#6ED5A6" stroke="#012758" stroke-width="10"/>
<rect x="-6.5633" y="12.409" width="121.043" height="57.6948" rx="28.8474" transform="matrix(0.301472 0.953475 -0.957802 0.287428 263.175 210.836)" fill="#BE8F65" stroke="#012758" stroke-width="20"/>
<ellipse cx="7.88433" cy="7.68162" rx="7.88433" ry="7.68162" transform="matrix(0.99935 -0.0360485 0.0379789 0.999278 223.241 239.824)" fill="#012758"/>
<ellipse cx="7.88433" cy="7.68162" rx="7.88433" ry="7.68162" transform="matrix(0.99935 -0.0360485 0.0379789 0.999278 233.997 273.84)" fill="#012758"/>
<ellipse cx="7.88433" cy="7.68162" rx="7.88433" ry="7.68162" transform="matrix(0.99935 -0.0360485 0.0379789 0.999278 242.789 301.648)" fill="#012758"/>
</g>
<defs>
<clipPath id="clip0_6_181">
<rect width="677" height="566.444" fill="white"/>
</clipPath>
</defs>
</svg>
