<svg width="640" height="556" viewBox="0 0 640 556" fill="none" xmlns="http://www.w3.org/2000/svg">
<path d="M447.931 485.791C410.693 462.901 395.788 416.73 418.313 381.95C440.838 347.169 490.031 340.398 527.269 363.287C564.507 386.176 579.412 432.347 556.887 467.128C534.362 501.908 485.169 508.68 447.931 485.791Z" fill="#FC9898" stroke="#012758" stroke-width="20"/>
<path d="M459.457 374.025C492.47 361.491 530.913 380.532 545.322 416.553" stroke="#FCF6EA" stroke-width="20" stroke-linecap="round"/>
<ellipse cx="11.0277" cy="10.7434" rx="11.0277" ry="10.7434" transform="matrix(-1 0 0 1 448.15 381.546)" fill="#FCF6EA"/>
<path fill-rule="evenodd" clip-rule="evenodd" d="M419.791 401.289C410.543 428.649 423.355 461.226 452.353 479.05C480.843 496.562 515.798 494.206 537.277 475.236C499.51 466.913 450.761 445.936 419.791 401.289Z" fill="#D68181"/>
<path d="M479.75 342.638C497.003 388.715 512.036 486.659 434.14 509.814C356.244 532.97 432.09 408.011 479.75 342.638Z" fill="#FC9898" stroke="#012758" stroke-width="20"/>
<path d="M456.601 158.638C428.668 158.638 405.601 136.483 405.601 108.638C405.601 80.7922 428.668 58.6378 456.601 58.6378C484.533 58.6378 507.601 80.7922 507.601 108.638C507.601 136.483 484.533 158.638 456.601 158.638Z" fill="#FDE7D2" stroke="#062855" stroke-width="20"/>
<ellipse cx="26" cy="25.5" rx="26" ry="25.5" transform="matrix(-1 0 0 1 482.601 82.6378)" fill="#022656"/>
<mask id="path-8-outside-1_140_82" maskUnits="userSpaceOnUse" x="94.8877" y="67.3214" width="454" height="466" fill="black">
<rect fill="white" x="94.8877" y="67.3214" width="454" height="466"/>
<path fill-rule="evenodd" clip-rule="evenodd" d="M473.053 347.384C507.109 320.573 528.888 279.55 528.888 233.571C528.888 152.8 461.677 87.3214 378.768 87.3214C322.438 87.3214 273.355 117.546 247.674 162.257C211.035 175.327 177.281 199.804 152.458 234.38C92.1806 318.34 107.384 430.058 186.415 483.909C265.447 537.76 378.378 513.352 438.655 429.392C457.011 403.824 468.368 375.682 473.053 347.384Z"/>
</mask>
<path fill-rule="evenodd" clip-rule="evenodd" d="M473.053 347.384C507.109 320.573 528.888 279.55 528.888 233.571C528.888 152.8 461.677 87.3214 378.768 87.3214C322.438 87.3214 273.355 117.546 247.674 162.257C211.035 175.327 177.281 199.804 152.458 234.38C92.1806 318.34 107.384 430.058 186.415 483.909C265.447 537.76 378.378 513.352 438.655 429.392C457.011 403.824 468.368 375.682 473.053 347.384Z" fill="#FC9898"/>
<path d="M473.053 347.384L453.322 344.117L454.588 336.466L460.682 331.669L473.053 347.384ZM247.674 162.257L265.016 172.218L261.342 178.615L254.393 181.094L247.674 162.257ZM152.458 234.38L136.211 222.716V222.716L152.458 234.38ZM186.415 483.909L197.677 467.381L186.415 483.909ZM438.655 429.392L422.409 417.728L438.655 429.392ZM460.682 331.669C490.221 308.414 508.888 273.047 508.888 233.571H548.888C548.888 286.053 523.997 332.732 485.424 363.098L460.682 331.669ZM508.888 233.571C508.888 164.335 451.127 107.321 378.768 107.321V67.3214C472.227 67.3214 548.888 141.265 548.888 233.571H508.888ZM378.768 107.321C329.71 107.321 287.186 133.621 265.016 172.218L230.331 152.295C259.524 101.471 315.167 67.3214 378.768 67.3214V107.321ZM254.393 181.094C221.519 192.821 191.115 214.829 168.704 246.044L136.211 222.716C163.448 184.778 200.551 157.833 240.954 143.42L254.393 181.094ZM168.704 246.044C114.079 322.132 129.162 420.696 197.677 467.381L175.153 500.437C85.6056 439.42 70.2823 314.548 136.211 222.716L168.704 246.044ZM197.677 467.381C266.596 514.341 367.624 494.038 422.409 417.728L454.902 441.056C389.133 532.666 264.297 561.178 175.153 500.437L197.677 467.381ZM422.409 417.728C438.979 394.648 449.139 369.377 453.322 344.117L492.784 350.651C487.596 381.987 475.044 413.001 454.902 441.056L422.409 417.728Z" fill="#012758" mask="url(#path-8-outside-1_140_82)"/>
<path fill-rule="evenodd" clip-rule="evenodd" d="M528.888 233.572C528.888 279.55 507.109 320.573 473.053 347.384C468.368 375.682 457.011 403.825 438.655 429.393C382.722 507.303 281.448 533.934 203.995 494.338L416.409 211.882L518.74 180.605C525.293 197.029 528.888 214.891 528.888 233.572Z" fill="#FFF3E5"/>
<path d="M313.817 116.381C352.519 81.4598 422.197 88.7831 456.771 125.15" stroke="#FCF6EA" stroke-width="20" stroke-linecap="round"/>
<line x1="10" y1="-10" x2="17.8641" y2="-10" transform="matrix(-0.753036 0.65798 0.677306 0.735702 267.984 228.635)" stroke="#012758" stroke-width="20" stroke-linecap="round"/>
<line x1="10" y1="-10" x2="18.453" y2="-10" transform="matrix(-0.772295 0.635264 0.654935 0.755686 227.913 229.666)" stroke="#012758" stroke-width="20" stroke-linecap="round"/>
<line x1="10" y1="-10" x2="22.9372" y2="-10" transform="matrix(-0.759621 0.650366 0.669819 0.742524 270.286 183.787)" stroke="#012758" stroke-width="20" stroke-linecap="round"/>
<path d="M293.101 158.638C265.328 158.638 242.601 136.369 242.601 108.638C242.601 80.9068 265.328 58.6378 293.101 58.6378C320.873 58.6378 343.601 80.9068 343.601 108.638C343.601 136.369 320.873 158.638 293.101 158.638Z" fill="#FDE7D2" stroke="#062855" stroke-width="20"/>
<ellipse cx="26" cy="25.5" rx="26" ry="25.5" transform="matrix(-1 0 0 1 319.601 82.6378)" fill="#022656"/>
<ellipse cx="16.5" cy="16" rx="16.5" ry="16" transform="matrix(-1 0 0 1 459.601 140.638)" fill="#022656"/>
<ellipse cx="16.5" cy="16" rx="16.5" ry="16" transform="matrix(-1 0 0 1 392.601 140.638)" fill="#022656"/>
<path d="M509.601 179.638C479.626 198.04 400.262 226.01 322.601 190.679" stroke="#012758" stroke-width="20" stroke-linecap="round"/>
<path d="M112.332 485.791C75.0944 462.901 60.1889 416.73 82.714 381.95C105.239 347.169 154.432 340.398 191.67 363.287C228.908 386.176 243.813 432.347 221.288 467.128C198.763 501.908 149.57 508.68 112.332 485.791Z" fill="#FC9898" stroke="#012758" stroke-width="20"/>
<path d="M123.858 374.025C156.871 361.491 195.315 380.532 209.724 416.553" stroke="#FCF6EA" stroke-width="20" stroke-linecap="round"/>
<ellipse cx="11.0277" cy="10.7434" rx="11.0277" ry="10.7434" transform="matrix(-1 0 0 1 112.553 381.546)" fill="#FCF6EA"/>
<path fill-rule="evenodd" clip-rule="evenodd" d="M84.1927 401.289C74.9443 428.649 87.7561 461.226 116.755 479.05C145.244 496.562 180.2 494.206 201.679 475.236C163.911 466.913 115.163 445.936 84.1927 401.289Z" fill="#D68181"/>
<path d="M186.601 506.638C186.601 517.034 195.233 525.638 206.101 525.638C216.968 525.638 225.601 517.034 225.601 506.638C225.601 496.241 216.968 487.638 206.101 487.638C195.233 487.638 186.601 496.241 186.601 506.638Z" fill="#FC9898" stroke="#012758" stroke-width="10"/>
<path d="M151.601 518.638C151.601 528.85 160.489 537.638 172.101 537.638C183.712 537.638 192.601 528.85 192.601 518.638C192.601 508.426 183.712 499.638 172.101 499.638C160.489 499.638 151.601 508.426 151.601 518.638Z" fill="#FC9898" stroke="#012758" stroke-width="10"/>
<path d="M114.601 517.138C114.601 527.256 123.007 535.638 133.601 535.638C144.194 535.638 152.601 527.256 152.601 517.138C152.601 507.019 144.194 498.638 133.601 498.638C123.007 498.638 114.601 507.019 114.601 517.138Z" fill="#FC9898" stroke="#012758" stroke-width="10"/>
<path d="M304.257 353.83L305.426 355.571L305.796 357.635C309.732 379.544 316.026 412.746 322.113 441.14C325.161 455.355 328.129 468.238 330.704 477.86C331.997 482.692 333.144 486.524 334.107 489.228C334.54 490.444 334.884 491.285 335.131 491.818C339.711 496.352 341.742 501.553 342.729 504.08C342.762 504.164 342.794 504.245 342.824 504.323H353.604L351.47 516.106C351.04 518.478 349.913 521.942 346.719 524.494C343.32 527.21 339.528 527.369 337.06 527.027C334.741 526.706 332.731 525.854 331.408 525.223C329.992 524.548 328.601 523.747 327.471 523.082C327.115 522.873 326.779 522.675 326.461 522.487C324.785 521.498 323.6 520.799 322.568 520.315L321.976 520.651L318.99 520.457C314.616 520.173 313.968 520.436 313.813 520.499L313.813 520.499L313.81 520.5C313.737 520.529 312.804 520.897 309.941 524.447L307.767 527.142L304.391 527.916C302.872 528.264 301.904 528.51 300.878 528.771C299.934 529.011 298.939 529.264 297.42 529.621C295.297 530.119 292.29 530.778 289.54 530.778C288.208 530.778 285.767 530.648 283.277 529.389C280.173 527.819 277.714 524.83 277.122 520.892C276.648 517.743 277.548 515.071 278.188 513.547C278.902 511.845 279.89 510.202 280.934 508.676C281.319 508.114 281.681 507.587 282.023 507.09C283.303 505.229 284.303 503.776 285.153 502.388C286.21 500.662 286.585 499.735 286.713 499.254C286.728 499.196 286.738 499.152 286.744 499.12C286.673 498.926 286.347 498.188 285.131 496.833C280.551 491.734 266.771 472.831 254.214 451.561C247.88 440.833 241.683 429.215 237.04 418.16C232.503 407.357 229 396.065 229 386.322V385.872L229.04 385.425C230.916 364.589 246.622 351.768 261.53 346.362C269.084 343.623 277.17 342.46 284.465 343.236C291.493 343.983 299.53 346.786 304.257 353.83ZM335.401 492.344C335.402 492.341 335.378 492.297 335.33 492.222C335.377 492.309 335.401 492.347 335.401 492.344ZM321.285 519.822C321.288 519.826 321.35 519.846 321.463 519.865C321.339 519.826 321.282 519.817 321.285 519.822Z" fill="#FC9898" stroke="#012758" stroke-width="20" stroke-linecap="round"/>
<path d="M327.909 514.515C326.404 524.692 333.657 534.346 344.41 535.855C355.163 537.364 364.918 530.097 366.423 519.919C367.928 509.741 360.675 500.087 349.921 498.579C339.168 497.07 329.414 504.337 327.909 514.515Z" fill="#FC9898" stroke="#012758" stroke-width="10"/>
<path d="M447.215 507.054C445.711 517.232 452.964 526.886 463.717 528.395C474.47 529.904 484.225 522.636 485.73 512.459C487.234 502.281 479.981 492.627 469.228 491.118C458.475 489.609 448.72 496.877 447.215 507.054Z" fill="#FC9898" stroke="#012758" stroke-width="10"/>
<path d="M290.404 525.975C288.899 536.152 296.152 545.806 306.905 547.315C317.659 548.824 327.413 541.556 328.918 531.379C330.423 521.201 323.17 511.547 312.417 510.039C301.664 508.53 291.909 515.797 290.404 525.975Z" fill="#FC9898" stroke="#012758" stroke-width="10"/>
<path d="M409.71 518.514C408.205 528.692 415.458 538.346 426.211 539.855C436.964 541.363 446.719 534.096 448.224 523.918C449.728 513.741 442.475 504.087 431.722 502.578C420.969 501.069 411.214 508.337 409.71 518.514Z" fill="#FC9898" stroke="#012758" stroke-width="10"/>
<path d="M254.341 514.385C252.837 524.562 260.09 534.216 270.843 535.725C281.596 537.234 291.351 529.966 292.856 519.789C294.36 509.611 287.107 499.957 276.354 498.448C265.601 496.94 255.846 504.207 254.341 514.385Z" fill="#FC9898" stroke="#012758" stroke-width="10"/>
<path d="M373.648 506.924C372.143 517.102 379.396 526.756 390.15 528.264C400.903 529.773 410.658 522.506 412.162 512.328C413.667 502.151 406.414 492.497 395.661 490.988C384.908 489.479 375.153 496.747 373.648 506.924Z" fill="#FC9898" stroke="#012758" stroke-width="10"/>
<ellipse cx="7.88433" cy="7.68162" rx="7.88433" ry="7.68162" transform="matrix(0.99935 -0.0360485 0.0379789 0.999278 128.842 229.462)" fill="#012758"/>
<ellipse cx="7.88433" cy="7.68162" rx="7.88433" ry="7.68162" transform="matrix(0.99935 -0.0360485 0.0379789 0.999278 139.598 263.478)" fill="#012758"/>
<ellipse cx="7.88433" cy="7.68162" rx="7.88433" ry="7.68162" transform="matrix(0.99935 -0.0360485 0.0379789 0.999278 148.39 291.286)" fill="#012758"/>
<path d="M266.888 35.0001C265.097 42.9477 265.114 45.0792 263.398 60.0001" stroke="#062855" stroke-width="10" stroke-linecap="round"/>
<path d="M296.357 35.3597C294.645 42.2313 294.62 44.0682 292.84 56.949" stroke="#062855" stroke-width="10" stroke-linecap="round"/>
<path d="M323.357 37.7345C321.645 44.6061 321.62 46.443 319.84 59.3238" stroke="#062855" stroke-width="10" stroke-linecap="round"/>
<path d="M439.412 38.0001C437.62 45.9477 437.638 48.0792 435.922 63.0001" stroke="#062855" stroke-width="10" stroke-linecap="round"/>
<path d="M468.881 38.3605C467.169 45.2321 467.143 47.069 465.363 59.9498" stroke="#062855" stroke-width="10" stroke-linecap="round"/>
<path d="M495.881 40.7351C494.169 47.6067 494.143 49.4436 492.363 62.3244" stroke="#062855" stroke-width="10" stroke-linecap="round"/>
</svg>
