<svg width="601" height="663" viewBox="0 0 601 663" fill="none" xmlns="http://www.w3.org/2000/svg">
<g clip-path="url(#clip0_143_11)">
<path d="M390.931 592.488C353.693 569.599 338.788 523.428 361.313 488.647C383.838 453.867 433.031 447.095 470.269 469.985C507.507 492.874 522.412 539.045 499.887 573.825C477.362 608.606 428.169 615.377 390.931 592.488Z" fill="#FC9898" stroke="#012758" stroke-width="20"/>
<path d="M402.457 480.722C435.47 468.189 473.913 487.229 488.322 523.251" stroke="#FCF6EA" stroke-width="20" stroke-linecap="round"/>
<ellipse cx="11.0277" cy="10.7434" rx="11.0277" ry="10.7434" transform="matrix(-1 0 0 1 391.15 488.243)" fill="#FCF6EA"/>
<path fill-rule="evenodd" clip-rule="evenodd" d="M362.791 507.987C353.543 535.347 366.355 567.923 395.353 585.748C423.843 603.26 458.798 600.903 480.277 581.933C442.51 573.611 393.761 552.633 362.791 507.987Z" fill="#D68181"/>
<path d="M422.75 449.335C440.003 495.413 455.036 593.356 377.14 616.512C299.244 639.667 375.09 514.709 422.75 449.335Z" fill="#FC9898" stroke="#012758" stroke-width="20"/>
<path d="M399.601 265.335C371.668 265.335 348.601 243.181 348.601 215.335C348.601 187.49 371.668 165.335 399.601 165.335C427.533 165.335 450.601 187.49 450.601 215.335C450.601 243.181 427.533 265.335 399.601 265.335Z" fill="#FDE7D2" stroke="#062855" stroke-width="20"/>
<ellipse cx="26" cy="25.5" rx="26" ry="25.5" transform="matrix(-1 0 0 1 425.601 189.335)" fill="#022656"/>
<mask id="path-8-outside-1_143_11" maskUnits="userSpaceOnUse" x="37.8877" y="174.019" width="454" height="466" fill="black">
<rect fill="white" x="37.8877" y="174.019" width="454" height="466"/>
<path fill-rule="evenodd" clip-rule="evenodd" d="M416.053 454.081C450.109 427.27 471.888 386.247 471.888 340.269C471.888 259.497 404.677 194.019 321.768 194.019C265.438 194.019 216.355 224.243 190.674 268.954C154.035 282.024 120.281 306.501 95.4576 341.078C35.1806 425.037 50.384 536.755 129.415 590.606C208.447 644.457 321.378 620.049 381.655 536.09C400.011 510.522 411.368 482.379 416.053 454.081Z"/>
</mask>
<path fill-rule="evenodd" clip-rule="evenodd" d="M416.053 454.081C450.109 427.27 471.888 386.247 471.888 340.269C471.888 259.497 404.677 194.019 321.768 194.019C265.438 194.019 216.355 224.243 190.674 268.954C154.035 282.024 120.281 306.501 95.4576 341.078C35.1806 425.037 50.384 536.755 129.415 590.606C208.447 644.457 321.378 620.049 381.655 536.09C400.011 510.522 411.368 482.379 416.053 454.081Z" fill="#FC9898"/>
<path d="M416.053 454.081L396.322 450.814L397.588 443.163L403.682 438.366L416.053 454.081ZM190.674 268.954L208.016 278.916L204.342 285.313L197.393 287.791L190.674 268.954ZM95.4576 341.078L79.211 329.414V329.414L95.4576 341.078ZM129.415 590.606L140.677 574.078L129.415 590.606ZM381.655 536.09L365.409 524.426L381.655 536.09ZM403.682 438.366C433.221 415.112 451.888 379.745 451.888 340.269H491.888C491.888 392.75 466.997 439.429 428.424 469.796L403.682 438.366ZM451.888 340.269C451.888 271.032 394.127 214.019 321.768 214.019V174.019C415.227 174.019 491.888 247.962 491.888 340.269H451.888ZM321.768 214.019C272.71 214.019 230.186 240.318 208.016 278.916L173.331 258.993C202.524 208.169 258.167 174.019 321.768 174.019V214.019ZM197.393 287.791C164.519 299.519 134.115 321.526 111.704 352.742L79.211 329.414C106.448 291.476 143.551 264.53 183.954 250.117L197.393 287.791ZM111.704 352.742C57.079 428.829 72.1624 527.393 140.677 574.078L118.153 607.134C28.6056 546.117 13.2823 421.246 79.211 329.414L111.704 352.742ZM140.677 574.078C209.596 621.039 310.624 600.735 365.409 524.426L397.902 547.754C332.133 639.363 207.297 667.876 118.153 607.134L140.677 574.078ZM365.409 524.426C381.979 501.345 392.139 476.074 396.322 450.814L435.784 457.348C430.596 488.684 418.044 519.698 397.902 547.754L365.409 524.426Z" fill="#012758" mask="url(#path-8-outside-1_143_11)"/>
<path fill-rule="evenodd" clip-rule="evenodd" d="M471.888 340.269C471.888 386.248 450.109 427.271 416.053 454.081C411.368 482.38 400.011 510.522 381.655 536.09C325.722 614 224.448 640.631 146.995 601.035L359.409 318.579L461.74 287.303C468.293 303.726 471.888 321.589 471.888 340.269Z" fill="#FFF3E5"/>
<path d="M256.817 223.079C295.519 188.157 365.197 195.48 399.771 231.848" stroke="#FCF6EA" stroke-width="20" stroke-linecap="round"/>
<line x1="10" y1="-10" x2="17.8641" y2="-10" transform="matrix(-0.753036 0.65798 0.677306 0.735702 210.984 335.332)" stroke="#012758" stroke-width="20" stroke-linecap="round"/>
<line x1="10" y1="-10" x2="18.453" y2="-10" transform="matrix(-0.772295 0.635264 0.654935 0.755686 170.913 336.364)" stroke="#012758" stroke-width="20" stroke-linecap="round"/>
<line x1="10" y1="-10" x2="22.9372" y2="-10" transform="matrix(-0.759621 0.650366 0.669819 0.742524 213.286 290.484)" stroke="#012758" stroke-width="20" stroke-linecap="round"/>
<path d="M565.971 191.716C567.159 202.678 567.99 221.839 562.497 240.199C557.059 258.374 545.525 275.553 521.882 283.586C502.509 290.168 479.302 286.036 452.749 275.95C432.055 268.089 410.045 256.912 387.009 245.215C380.548 241.934 374.007 238.613 367.391 235.312C307.272 203.314 252.396 196.431 213.418 191.542C210.966 191.235 208.577 190.935 206.253 190.638C196.408 189.377 187.875 188.173 180.678 186.603C173.44 185.023 167.944 183.15 164.002 180.745C160.204 178.427 157.977 175.703 156.906 172.213C155.808 168.636 155.746 163.666 157.49 156.582C159.73 152.494 163.766 147.947 169.649 143.095C175.718 138.09 183.508 132.961 192.717 127.848C211.134 117.624 234.88 107.661 261.05 99.005C313.261 81.7345 374.401 69.8976 421.106 71.2929C471.723 84.0672 506.453 100.749 529.23 120.823C551.918 140.819 563.01 164.409 565.971 191.716Z" fill="#FFF3E5" stroke="#012758" stroke-width="10"/>
<path d="M259.624 78.4892C260.394 51.7807 282.026 30.3971 308.742 29.9369L354.53 29.1482L411.838 32.3566C436.333 33.728 456.214 52.6683 458.771 77.0679L467.705 162.331C469.229 176.877 460.042 190.402 445.958 194.346L432.16 198.209C428.049 199.36 423.808 199.98 419.539 200.054L379.906 200.737L303.88 194.869C277.282 192.816 256.98 170.244 257.748 143.577L259.624 78.4892Z" fill="#FFF3E5" stroke="#012758" stroke-width="10"/>
<path d="M460.786 278.577C443.673 274.959 284.632 186.133 237.187 191.646C222.36 193.368 159.041 182.889 158.743 165.605C158.445 148.321 194.408 125.078 218.913 124.655C232.429 124.423 281.147 132.349 325.724 158.816C377.583 193.923 436.618 255.515 460.786 278.577Z" fill="#FFF3E5" stroke="#012758" stroke-width="10"/>
<path d="M448.411 56.0607C443.384 99.6074 332.361 44.5323 306.985 51.9705" stroke="#012758" stroke-width="8" stroke-linecap="round"/>
<path d="M322.261 134.054C336.996 132.18 394.525 131.187 347.771 75.5948" stroke="#012758" stroke-width="8" stroke-linecap="round"/>
<path d="M236.101 265.335C208.328 265.335 185.601 243.066 185.601 215.335C185.601 187.604 208.328 165.335 236.101 165.335C263.873 165.335 286.601 187.604 286.601 215.335C286.601 243.066 263.873 265.335 236.101 265.335Z" fill="#FDE7D2" stroke="#062855" stroke-width="20"/>
<ellipse cx="26" cy="25.5" rx="26" ry="25.5" transform="matrix(-1 0 0 1 262.601 189.335)" fill="#022656"/>
<ellipse cx="16.5" cy="16" rx="16.5" ry="16" transform="matrix(-1 0 0 1 402.601 247.335)" fill="#022656"/>
<ellipse cx="16.5" cy="16" rx="16.5" ry="16" transform="matrix(-1 0 0 1 335.601 247.335)" fill="#022656"/>
<path d="M452.601 286.335C422.626 304.737 343.262 332.708 265.601 297.376" stroke="#012758" stroke-width="20" stroke-linecap="round"/>
<path d="M55.3323 592.488C18.0944 569.599 3.18887 523.428 25.714 488.647C48.2391 453.867 97.4321 447.095 134.67 469.985C171.908 492.874 186.813 539.045 164.288 573.825C141.763 608.606 92.5702 615.377 55.3323 592.488Z" fill="#FC9898" stroke="#012758" stroke-width="20"/>
<path d="M66.8584 480.722C99.8713 468.189 138.315 487.229 152.724 523.251" stroke="#FCF6EA" stroke-width="20" stroke-linecap="round"/>
<ellipse cx="11.0277" cy="10.7434" rx="11.0277" ry="10.7434" transform="matrix(-1 0 0 1 55.5527 488.243)" fill="#FCF6EA"/>
<path fill-rule="evenodd" clip-rule="evenodd" d="M27.1927 507.987C17.9443 535.347 30.7561 567.923 59.7546 585.748C88.2444 603.26 123.2 600.903 144.679 581.933C106.911 573.611 58.1625 552.633 27.1927 507.987Z" fill="#D68181"/>
<path d="M129.601 613.335C129.601 623.732 138.233 632.335 149.101 632.335C159.968 632.335 168.601 623.732 168.601 613.335C168.601 602.938 159.968 594.335 149.101 594.335C138.233 594.335 129.601 602.938 129.601 613.335Z" fill="#FC9898" stroke="#012758" stroke-width="10"/>
<path d="M94.6006 625.335C94.6006 635.547 103.489 644.335 115.101 644.335C126.712 644.335 135.601 635.547 135.601 625.335C135.601 615.123 126.712 606.335 115.101 606.335C103.489 606.335 94.6006 615.123 94.6006 625.335Z" fill="#FC9898" stroke="#012758" stroke-width="10"/>
<path d="M57.6006 623.835C57.6006 633.954 66.0074 642.335 76.6006 642.335C87.1938 642.335 95.6006 633.954 95.6006 623.835C95.6006 613.717 87.1938 605.335 76.6006 605.335C66.0074 605.335 57.6006 613.717 57.6006 623.835Z" fill="#FC9898" stroke="#012758" stroke-width="10"/>
<path d="M247.257 460.528L248.426 462.269L248.796 464.332C252.732 486.241 259.026 519.443 265.113 547.837C268.161 562.053 271.129 574.936 273.704 584.557C274.997 589.389 276.144 593.222 277.107 595.925C277.54 597.141 277.884 597.983 278.131 598.516C282.711 603.05 284.742 608.25 285.729 610.778C285.762 610.862 285.794 610.943 285.824 611.021H296.604L294.47 622.803C294.04 625.175 292.913 628.639 289.719 631.191C286.32 633.907 282.528 634.066 280.06 633.725C277.741 633.404 275.731 632.551 274.408 631.92C272.992 631.245 271.601 630.444 270.471 629.78C270.115 629.571 269.779 629.372 269.461 629.185C267.785 628.196 266.6 627.497 265.568 627.012L264.976 627.348L261.99 627.154C257.616 626.87 256.968 627.133 256.813 627.196L256.813 627.196L256.81 627.197C256.737 627.226 255.804 627.594 252.941 631.144L250.767 633.84L247.391 634.613C245.872 634.962 244.904 635.208 243.878 635.469C242.934 635.709 241.939 635.962 240.42 636.318C238.297 636.817 235.29 637.476 232.54 637.476C231.208 637.476 228.767 637.346 226.277 636.086C223.173 634.517 220.714 631.527 220.122 627.59C219.648 624.44 220.548 621.768 221.188 620.244C221.902 618.543 222.89 616.899 223.934 615.373C224.319 614.811 224.681 614.285 225.023 613.788C226.303 611.927 227.303 610.473 228.153 609.085C229.21 607.36 229.585 606.432 229.713 605.951C229.728 605.894 229.738 605.85 229.744 605.818C229.673 605.623 229.347 604.885 228.131 603.531C223.551 598.431 209.771 579.528 197.214 558.258C190.88 547.531 184.683 535.912 180.04 524.857C175.503 514.054 172 502.762 172 493.019V492.57L172.04 492.122C173.916 471.286 189.622 458.466 204.53 453.06C212.084 450.321 220.17 449.157 227.465 449.933C234.493 450.681 242.53 453.483 247.257 460.528ZM278.401 599.041C278.402 599.038 278.378 598.995 278.33 598.92C278.377 599.007 278.401 599.044 278.401 599.041ZM264.285 626.519C264.288 626.524 264.35 626.543 264.463 626.562C264.339 626.523 264.282 626.514 264.285 626.519Z" fill="#FC9898" stroke="#012758" stroke-width="20" stroke-linecap="round"/>
<path d="M270.909 621.212C269.404 631.39 276.657 641.044 287.41 642.552C298.163 644.061 307.918 636.794 309.423 626.616C310.928 616.439 303.675 606.785 292.921 605.276C282.168 603.767 272.414 611.035 270.909 621.212Z" fill="#FC9898" stroke="#012758" stroke-width="10"/>
<path d="M390.215 613.752C388.711 623.929 395.964 633.583 406.717 635.092C417.47 636.601 427.225 629.333 428.73 619.156C430.234 608.978 422.981 599.324 412.228 597.816C401.475 596.307 391.72 603.574 390.215 613.752Z" fill="#FC9898" stroke="#012758" stroke-width="10"/>
<path d="M233.404 632.672C231.899 642.85 239.152 652.504 249.905 654.012C260.659 655.521 270.413 648.254 271.918 638.076C273.423 627.899 266.17 618.245 255.417 616.736C244.664 615.227 234.909 622.494 233.404 632.672Z" fill="#FC9898" stroke="#012758" stroke-width="10"/>
<path d="M352.71 625.212C351.205 635.389 358.458 645.043 369.211 646.552C379.964 648.061 389.719 640.793 391.224 630.616C392.728 620.438 385.475 610.784 374.722 609.275C363.969 607.767 354.214 615.034 352.71 625.212Z" fill="#FC9898" stroke="#012758" stroke-width="10"/>
<path d="M197.341 621.082C195.837 631.259 203.09 640.913 213.843 642.422C224.596 643.931 234.351 636.664 235.856 626.486C237.36 616.309 230.107 606.655 219.354 605.146C208.601 603.637 198.846 610.904 197.341 621.082Z" fill="#FC9898" stroke="#012758" stroke-width="10"/>
<path d="M316.648 613.621C315.143 623.799 322.396 633.453 333.15 634.962C343.903 636.471 353.658 629.203 355.162 619.026C356.667 608.848 349.414 599.194 338.661 597.685C327.908 596.177 318.153 603.444 316.648 613.621Z" fill="#FC9898" stroke="#012758" stroke-width="10"/>
<ellipse cx="7.88433" cy="7.68162" rx="7.88433" ry="7.68162" transform="matrix(0.99935 -0.0360485 0.0379789 0.999278 71.8418 336.159)" fill="#012758"/>
<ellipse cx="7.88433" cy="7.68162" rx="7.88433" ry="7.68162" transform="matrix(0.99935 -0.0360485 0.0379789 0.999278 82.5977 370.176)" fill="#012758"/>
<ellipse cx="7.88433" cy="7.68162" rx="7.88433" ry="7.68162" transform="matrix(0.99935 -0.0360485 0.0379789 0.999278 91.3896 397.983)" fill="#012758"/>
<path d="M209.889 141.697C208.098 149.645 208.115 151.776 206.399 166.697" stroke="#062855" stroke-width="10" stroke-linecap="round"/>
<path d="M239.358 142.057C237.646 148.928 237.621 150.765 235.841 163.646" stroke="#062855" stroke-width="10" stroke-linecap="round"/>
<path d="M266.358 144.432C264.646 151.303 264.621 153.14 262.841 166.021" stroke="#062855" stroke-width="10" stroke-linecap="round"/>
</g>
<defs>
<clipPath id="clip0_143_11">
<rect width="600.421" height="662.356" fill="white"/>
</clipPath>
</defs>
</svg>
