<svg width="1153" height="977" viewBox="0 0 1153 977" fill="none" xmlns="http://www.w3.org/2000/svg">
<path d="M414.272 609.286L412.538 610.394L410.508 610.728C381 615.577 336.27 623.36 297.992 630.942C278.834 634.736 261.418 638.456 248.37 641.714C241.824 643.348 236.552 644.823 232.772 646.09C230.871 646.728 229.53 647.252 228.669 647.65C228.549 647.705 228.447 647.754 228.361 647.796C222.705 653.441 216.24 655.846 212.669 657.175C212.082 657.393 211.573 657.582 211.159 657.752C210.727 657.929 210.405 658.075 210.17 658.189C210.164 658.302 210.159 658.434 210.158 658.585L210.034 670.503L198.318 668.311C195.605 667.803 191.901 666.554 189.208 663.201C186.309 659.59 186.133 655.523 186.557 652.748C186.954 650.148 187.971 647.843 188.786 646.222C189.649 644.503 190.684 642.79 191.588 641.326C191.867 640.874 192.135 640.442 192.392 640.027C194.009 637.421 195.197 635.506 195.954 633.737C196.024 633.574 196.083 633.428 196.133 633.299L195.416 632.04L195.651 628.985C196.089 623.308 195.829 621.842 195.467 620.948C195.137 620.133 194.167 618.501 189.268 614.568L186.537 612.376L185.77 608.959C185.442 607.499 185.077 606.006 184.695 604.453L184.585 604.004C184.244 602.621 183.888 601.179 183.571 599.797C182.926 596.994 182.16 593.348 182.193 590.117C182.21 588.54 182.404 585.877 183.81 583.236C185.543 579.98 188.709 577.568 192.724 577.022C195.981 576.579 198.818 577.505 200.617 578.262C202.586 579.092 204.563 580.266 206.502 581.587C207.226 582.081 207.912 582.551 208.567 583C211.064 584.711 213.099 586.106 215.037 587.289C217.448 588.761 219.029 589.471 220.17 589.779C221.107 590.032 221.686 590.004 222.306 589.826C223.079 589.605 224.521 588.962 226.787 587.02C233.459 581.302 258.82 563.659 287.47 547.573C301.89 539.477 317.43 531.61 332.14 525.768C346.606 520.024 361.269 515.823 373.601 515.95L374.039 515.955L374.474 515.998C400.535 518.556 416.754 537.931 423.603 556.931C427.053 566.501 428.429 576.664 427.346 585.715C426.29 594.532 422.627 603.945 414.272 609.286ZM228.004 647.988C228.004 647.988 228.02 647.98 228.048 647.961C228.017 647.979 228.003 647.988 228.004 647.988ZM210.244 657.581C210.244 657.58 210.242 657.587 210.238 657.601C210.242 657.588 210.244 657.581 210.244 657.581ZM196.389 632.456C196.385 632.458 196.375 632.5 196.368 632.579C196.388 632.493 196.392 632.454 196.389 632.456ZM192.757 596.658C192.758 596.66 192.79 596.673 192.85 596.693C192.787 596.666 192.757 596.656 192.757 596.658ZM202.192 590.324C202.192 590.335 202.192 590.346 202.192 590.358C202.199 590.258 202.193 590.241 202.192 590.324Z" fill="#6ED5A6" stroke="#012758" stroke-width="20" stroke-linecap="round"/>
<circle cx="23.8279" cy="23.8279" r="18.8279" transform="matrix(-0.489058 -0.872251 -0.872251 0.489058 264.632 672.011)" fill="#6ED5A6" stroke="#012758" stroke-width="10"/>
<circle cx="23.8279" cy="23.8279" r="18.8279" transform="matrix(-0.489058 -0.872251 -0.872251 0.489058 238.361 648.855)" fill="#6ED5A6" stroke="#012758" stroke-width="10"/>
<circle cx="23.8279" cy="23.8279" r="18.8279" transform="matrix(-0.489058 -0.872251 -0.872251 0.489058 221.13 615.052)" fill="#6ED5A6" stroke="#012758" stroke-width="10"/>
<path d="M452.55 587.304C425.685 595.769 401.337 594.876 383.722 586.117C366.101 577.354 354.823 560.418 355.728 536.724C356.633 513.031 369.496 488.488 388.225 468.272C406.947 448.064 431.957 431.619 458.822 423.155C485.688 414.69 510.035 415.583 527.65 424.342C545.272 433.105 556.55 450.041 555.644 473.735C554.739 497.428 541.876 521.971 523.147 542.187C504.425 562.395 479.415 578.84 452.55 587.304Z" fill="#6ED5A6" stroke="#012758" stroke-width="20"/>
<path d="M392.154 493.239C419.874 452.873 474.084 431.37 513.235 445.211" stroke="#FCF6EA" stroke-width="20" stroke-linecap="round"/>
<ellipse cx="15.8124" cy="10.7434" rx="15.8124" ry="10.7434" transform="matrix(-0.758221 0.651998 0.651998 0.758221 384.766 509.511)" fill="#FCF6EA"/>
<path fill-rule="evenodd" clip-rule="evenodd" d="M366.806 550.994C374.589 580.386 409.759 593.109 452.907 579.513C495.299 566.157 531.766 531.691 542.749 497.227C496.263 526.224 429.586 555.893 366.806 550.994Z" fill="#24A98E"/>
<path d="M805.391 481.948C816.55 529.804 857.946 619.98 934.26 597.833C1010.57 575.687 880.145 511.349 805.391 481.948Z" fill="#6ED5A6" stroke="#012758" stroke-width="20"/>
<circle cx="907.171" cy="616.124" r="18.8279" transform="rotate(-41.3545 907.171 616.124)" fill="#6ED5A6" stroke="#012758" stroke-width="10"/>
<circle cx="944.027" cy="605.732" r="18.8279" transform="rotate(-41.3545 944.027 605.732)" fill="#6ED5A6" stroke="#012758" stroke-width="10"/>
<circle cx="967.099" cy="576.814" r="18.8279" transform="rotate(-41.3545 967.099 576.814)" fill="#6ED5A6" stroke="#012758" stroke-width="10"/>
<rect x="486.215" y="72.5406" width="214" height="89" rx="44.5" transform="rotate(-2.6795 486.215 72.5406)" fill="#86AC3B" stroke="#012758" stroke-width="20"/>
<circle cx="753.218" cy="98.8692" r="10" transform="rotate(17.51 753.218 98.8692)" fill="#89B03D" stroke="#012758" stroke-width="15"/>
<path d="M742.87 55.1362L615.141 57.831L620.232 138.081C626.573 139.033 659.41 139.536 740.031 133.933C795.935 109.627 769.724 66.4046 742.87 55.1362Z" fill="#8EB540" stroke="#012758" stroke-width="20"/>
<rect x="586.816" y="155.181" width="214" height="89" rx="44.5" transform="rotate(-2.6795 586.816 155.181)" fill="#86AC3B" stroke="#012758" stroke-width="20"/>
<rect x="629.104" y="218.617" width="214" height="184.313" rx="82.2208" transform="rotate(128.834 629.104 218.617)" fill="#8FB03F" stroke="#012758" stroke-width="20"/>
<rect x="505.705" y="54.3074" width="214" height="89" rx="44.5" transform="rotate(38.8336 505.705 54.3074)" fill="#86AC3B" stroke="#012758" stroke-width="20"/>
<rect x="741.931" y="192.292" width="120.716" height="55.8593" rx="27.9296" transform="rotate(96.7131 741.931 192.292)" fill="#BE8F65" stroke="#012758" stroke-width="20"/>
<rect x="443.365" y="272.078" width="87.6082" height="38.0111" rx="19.0055" transform="rotate(-51.1664 443.365 272.078)" fill="#BE8F65" stroke="#012758" stroke-width="20"/>
<rect x="471.901" y="236.487" width="41.9657" height="38.0111" rx="19.0055" transform="rotate(-51.1664 471.901 236.487)" fill="#6ED5A6" stroke="#012758" stroke-width="20"/>
<circle cx="613.847" cy="94.6364" r="37.5" transform="rotate(17.51 613.847 94.6364)" fill="#89B03D" stroke="#012758" stroke-width="20"/>
<circle cx="617.143" cy="96.3558" r="10" transform="rotate(17.51 617.143 96.3558)" fill="#89B03D" stroke="#012758" stroke-width="15"/>
<circle cx="710.429" cy="220.991" r="7.68133" transform="rotate(21.7131 710.429 220.991)" fill="#012758"/>
<circle cx="740.038" cy="93.3745" r="7.68133" transform="rotate(17.51 740.038 93.3745)" fill="#4E7411"/>
<circle cx="762.589" cy="195.07" r="7.68133" transform="rotate(21.7131 762.589 195.07)" fill="#4E7411"/>
<circle cx="554.32" cy="158.132" r="7.68133" transform="rotate(23.8336 554.32 158.132)" fill="#4E7411"/>
<circle cx="706.269" cy="256.34" r="7.68133" transform="rotate(21.7131 706.269 256.34)" fill="#012758"/>
<circle cx="702.868" cy="285.237" r="7.68133" transform="rotate(21.7131 702.868 285.237)" fill="#012758"/>
<circle cx="40" cy="40" r="50" transform="matrix(-0.73729 -0.675577 -0.675577 0.73729 1010.33 360.161)" fill="#FDE7D2" stroke="#062855" stroke-width="20"/>
<circle cx="25.5" cy="25.5" r="25.5" transform="matrix(-0.73729 -0.675577 -0.675577 0.73729 989.848 361.056)" fill="#022656"/>
<mask id="path-32-outside-1_6_512" maskUnits="userSpaceOnUse" x="406.928" y="94.2912" width="641.438" height="642.857" fill="black">
<rect fill="white" x="406.928" y="94.2912" width="641.438" height="642.857"/>
<path fill-rule="evenodd" clip-rule="evenodd" d="M804.311 549.799C846.886 552.446 890.243 536.534 921.305 502.635C975.873 443.082 971.832 350.57 912.28 296.003C871.819 258.929 816.145 248.909 767.493 264.971C732.346 250.493 691.565 246.324 650.376 255.48C550.359 277.71 485.805 370.085 506.191 461.804C526.578 553.523 624.184 609.855 724.201 587.624C754.659 580.854 781.828 567.579 804.311 549.799Z"/>
</mask>
<path fill-rule="evenodd" clip-rule="evenodd" d="M804.311 549.799C846.886 552.446 890.243 536.534 921.305 502.635C975.873 443.082 971.832 350.57 912.28 296.003C871.819 258.929 816.145 248.909 767.493 264.971C732.346 250.493 691.565 246.324 650.376 255.48C550.359 277.71 485.805 370.085 506.191 461.804C526.578 553.523 624.184 609.855 724.201 587.624C754.659 580.854 781.828 567.579 804.311 549.799Z" fill="#6ED5A6"/>
<path d="M804.311 549.799L791.905 534.112L797.911 529.362L805.552 529.838L804.311 549.799ZM767.493 264.971L773.763 283.963L766.726 286.286L759.875 283.464L767.493 264.971ZM650.376 255.48L654.715 275.003L650.376 255.48ZM506.191 461.804L486.668 466.143L506.191 461.804ZM724.201 587.624L719.861 568.1L719.861 568.1L724.201 587.624ZM805.552 529.838C842.356 532.126 879.751 518.38 906.56 489.123L936.051 516.146C900.735 554.688 851.415 572.766 803.07 569.76L805.552 529.838ZM906.56 489.123C953.665 437.715 950.176 357.854 898.768 310.749L925.791 281.257C993.487 343.287 998.081 448.45 936.051 516.146L906.56 489.123ZM898.768 310.749C863.86 278.763 815.818 270.079 773.763 283.963L761.223 245.979C816.472 227.739 879.779 239.096 925.791 281.257L898.768 310.749ZM759.875 283.464C728.507 270.543 691.9 266.738 654.715 275.003L646.036 235.956C691.231 225.911 736.185 230.444 775.11 246.478L759.875 283.464ZM654.715 275.003C563.854 295.199 508.071 378.085 525.715 457.465L486.668 466.143C463.539 362.084 536.863 260.222 646.036 235.956L654.715 275.003ZM525.715 457.465C543.358 536.844 629.001 588.296 719.861 568.1L728.54 607.148C619.367 631.413 509.797 570.202 486.668 466.143L525.715 457.465ZM719.861 568.1C747.36 561.989 771.774 550.032 791.905 534.112L816.717 565.486C791.882 585.127 761.958 599.72 728.54 607.148L719.861 568.1Z" fill="#012758" mask="url(#path-32-outside-1_6_512)"/>
<path fill-rule="evenodd" clip-rule="evenodd" d="M921.305 502.635C890.243 536.534 846.885 552.446 804.311 549.799C781.828 567.579 754.659 580.854 724.201 587.624C631.39 608.253 540.656 561.233 511.773 481.063L855.167 412.614L949.799 456.904C943.41 473.326 933.925 488.862 921.305 502.635Z" fill="#FFF3E5"/>
<path d="M845.995 274.681C897.385 274.405 942.486 325.664 942.752 375.233" stroke="#FCF6EA" stroke-width="20" stroke-linecap="round"/>
<line x1="10" y1="-10" x2="17.4591" y2="-10" transform="matrix(-0.999943 -0.0106513 -0.0106513 0.999943 737.238 327.278)" stroke="#012758" stroke-width="20" stroke-linecap="round"/>
<line x1="10" y1="-10" x2="18.0179" y2="-10" transform="matrix(-0.999178 -0.0405404 -0.0405404 0.999178 707.759 301.665)" stroke="#012758" stroke-width="20" stroke-linecap="round"/>
<line x1="10" y1="-10" x2="22.45" y2="-10" transform="matrix(-0.999785 -0.0207507 -0.0207507 0.999785 769.189 295.728)" stroke="#012758" stroke-width="20" stroke-linecap="round"/>
<circle cx="40" cy="40" r="50" transform="matrix(-0.73729 -0.675577 -0.675577 0.73729 893.124 252.762)" fill="#FDE7D2" stroke="#062855" stroke-width="20"/>
<circle cx="25.5" cy="25.5" r="25.5" transform="matrix(-0.73729 -0.675577 -0.675577 0.73729 872.638 253.657)" fill="#022656"/>
<circle cx="16.0804" cy="16.0804" r="16.0804" transform="matrix(-0.73729 -0.675577 -0.675577 0.73729 933.764 388.295)" fill="#022656"/>
<circle cx="16.0804" cy="16.0804" r="16.0804" transform="matrix(-0.73729 -0.675577 -0.675577 0.73729 886.05 344.574)" fill="#022656"/>
<path d="M943.994 450.744C909.981 444.444 833.892 412.52 801.639 335.224" stroke="#012758" stroke-width="20" stroke-linecap="round"/>
<path d="M360.936 484.118L359.548 485.637L357.674 486.484C330.426 498.806 289.235 517.9 254.223 535.13C236.7 543.754 220.84 551.854 209.079 558.378C203.179 561.651 198.469 564.44 195.146 566.642C193.474 567.75 192.315 568.604 191.586 569.21C191.484 569.295 191.398 569.369 191.327 569.432C187.324 576.348 181.702 580.344 178.597 582.552C178.086 582.915 177.644 583.229 177.287 583.5C176.916 583.784 176.642 584.008 176.445 584.178C176.468 584.29 176.498 584.418 176.535 584.564L179.501 596.108L167.617 597.022C164.865 597.234 160.964 596.987 157.495 594.444C153.76 591.707 152.537 587.824 152.228 585.034C151.938 582.42 152.325 579.93 152.692 578.153C153.081 576.27 153.638 574.347 154.132 572.699C154.284 572.191 154.431 571.704 154.573 571.236C155.46 568.301 156.112 566.144 156.385 564.239C156.41 564.064 156.43 563.907 156.444 563.769L155.426 562.739L154.863 559.727C153.816 554.13 153.185 552.781 152.604 552.011C152.075 551.31 150.716 549.984 144.965 547.454L141.76 546.043L140.135 542.941C139.44 541.615 138.702 540.267 137.931 538.867L137.708 538.461C137.021 537.214 136.304 535.913 135.639 534.66C134.291 532.119 132.608 528.796 131.804 525.667C131.411 524.139 130.91 521.517 131.584 518.602C132.416 515.008 134.849 511.859 138.587 510.292C141.618 509.021 144.598 509.181 146.532 509.448C148.648 509.739 150.862 510.361 153.076 511.136C153.904 511.425 154.688 511.702 155.437 511.966C158.292 512.972 160.618 513.793 162.797 514.435C165.506 515.233 167.217 515.509 168.399 515.511C169.37 515.513 169.922 515.336 170.474 515.004C171.164 514.59 172.39 513.596 174.076 511.134C179.042 503.884 198.972 480.278 222.483 457.325C234.316 445.773 247.29 434.153 259.988 424.702C272.474 415.409 285.55 407.557 297.495 404.489L297.919 404.38L298.35 404.308C324.185 400.034 344.866 414.552 356.399 431.131C362.208 439.482 366.167 448.944 367.464 457.966C368.727 466.757 367.625 476.797 360.936 484.118ZM191.031 569.71C191.031 569.71 191.044 569.697 191.067 569.672C191.041 569.697 191.03 569.71 191.031 569.71ZM176.359 583.572C176.359 583.571 176.358 583.578 176.359 583.593C176.359 583.579 176.359 583.572 176.359 583.572ZM156.473 562.889C156.47 562.891 156.472 562.935 156.485 563.013C156.482 562.925 156.476 562.886 156.473 562.889ZM143.701 529.251C143.702 529.252 143.736 529.257 143.799 529.26C143.731 529.251 143.7 529.249 143.701 529.251ZM151.175 520.691C151.177 520.701 151.18 520.712 151.183 520.723C151.164 520.625 151.154 520.61 151.175 520.691Z" fill="#6ED5A6" stroke="#012758" stroke-width="20" stroke-linecap="round"/>
<circle cx="23.8279" cy="23.8279" r="18.8279" transform="matrix(-0.598297 -0.801274 -0.801274 0.598297 207.038 595.858)" fill="#6ED5A6" stroke="#012758" stroke-width="10"/>
<circle cx="23.8279" cy="23.8279" r="18.8279" transform="matrix(-0.598297 -0.801274 -0.801274 0.598297 182.98 565.314)" fill="#6ED5A6" stroke="#012758" stroke-width="10"/>
<circle cx="23.8279" cy="23.8279" r="18.8279" transform="matrix(-0.598297 -0.801274 -0.801274 0.598297 161.5 534.038)" fill="#6ED5A6" stroke="#012758" stroke-width="10"/>
<path d="M767.796 435.829L768.787 437.632L768.984 439.68C771.123 461.821 774.685 495.398 778.416 524.167C780.283 538.57 782.177 551.642 783.94 561.433C784.825 566.35 785.645 570.262 786.374 573.037C786.704 574.291 786.976 575.163 787.177 575.718C791.28 580.588 792.85 585.916 793.612 588.504C793.628 588.558 793.643 588.61 793.658 588.662L804.142 589.47L801.175 601.014C800.589 603.293 799.249 606.657 795.917 608.986C792.315 611.503 788.479 611.386 786.004 610.838C783.702 610.328 781.768 609.299 780.524 608.566C779.186 607.778 777.886 606.868 776.839 606.121C776.508 605.885 776.197 605.662 775.903 605.451C774.459 604.417 773.423 603.676 772.526 603.136L772.026 603.378L768.993 602.94C764.85 602.341 764.245 602.554 764.182 602.576L764.179 602.577C764.175 602.579 764.165 602.582 764.145 602.591C764.125 602.6 764.087 602.617 764.03 602.649C763.915 602.714 763.704 602.844 763.38 603.096C762.69 603.633 761.704 604.548 760.217 606.167L757.848 608.746L754.388 609.284C753.316 609.45 752.213 609.643 751.04 609.85L750.699 609.91C749.659 610.094 748.55 610.29 747.488 610.461C745.393 610.798 742.367 611.241 739.627 611.03C738.296 610.927 735.848 610.603 733.445 609.111C730.45 607.251 728.335 604.057 728.069 600.186C727.856 597.08 728.911 594.53 729.647 593.063C730.466 591.431 731.548 589.871 732.68 588.427C733.097 587.895 733.489 587.398 733.86 586.928C735.246 585.168 736.329 583.793 737.262 582.472C738.42 580.832 738.866 579.923 739.036 579.428C739.073 579.32 739.089 579.252 739.097 579.216C739.096 579.215 739.096 579.213 739.096 579.212C739.07 579.093 738.871 578.324 737.685 576.737C733.624 571.305 721.693 551.425 711.132 529.282C705.805 518.113 700.681 506.069 697.024 494.707C693.447 483.596 690.925 472.109 691.67 462.447L691.703 462.011L691.775 461.579C695.178 441.071 711.367 429.399 726.427 425.078C734.029 422.897 742.051 422.332 749.168 423.669C756.054 424.963 763.729 428.42 767.796 435.829ZM787.4 576.264C787.401 576.261 787.381 576.215 787.34 576.136C787.379 576.227 787.399 576.267 787.4 576.264ZM771.175 602.452C771.178 602.458 771.24 602.484 771.354 602.515C771.23 602.463 771.173 602.447 771.175 602.452ZM791.034 591.529C791.034 591.529 791.027 591.526 791.015 591.52C791.028 591.526 791.034 591.529 791.034 591.529Z" fill="#6DD4A6" stroke="#012758" stroke-width="20" stroke-linecap="round"/>
<circle cx="23.8279" cy="23.8279" r="18.8279" transform="matrix(-0.9759 -0.21822 -0.21822 0.9759 825.099 583.77)" fill="#6ED5A6" stroke="#012758" stroke-width="10"/>
<circle cx="23.8279" cy="23.8279" r="18.8279" transform="matrix(-0.9759 -0.21822 -0.21822 0.9759 787.786 592.387)" fill="#6ED5A6" stroke="#012758" stroke-width="10"/>
<circle cx="23.8279" cy="23.8279" r="18.8279" transform="matrix(-0.9759 -0.21822 -0.21822 0.9759 753.649 578.131)" fill="#6ED5A6" stroke="#012758" stroke-width="10"/>
<rect x="610.206" y="206.328" width="120.716" height="55.8593" rx="27.9296" transform="rotate(74.2778 610.206 206.328)" fill="#BE8F65" stroke="#012758" stroke-width="20"/>
<circle cx="592.042" cy="244.876" r="7.68134" transform="rotate(-0.722204 592.042 244.876)" fill="#012758"/>
<circle cx="601.687" cy="279.138" r="7.68134" transform="rotate(-0.722204 601.687 279.138)" fill="#012758"/>
<circle cx="609.572" cy="307.146" r="7.68134" transform="rotate(-0.722204 609.572 307.146)" fill="#012758"/>
<path d="M404.122 505.919C375.954 505.979 352.984 497.859 338.786 484.241C324.583 470.618 318.875 451.088 326.811 428.745C334.747 406.402 354.349 386.817 378.259 373.113C402.159 359.415 430.937 351.184 459.105 351.125C487.272 351.065 510.243 359.185 524.44 372.802C538.643 386.425 544.352 405.955 536.415 428.299C528.479 450.642 508.877 470.226 484.968 483.93C461.068 497.629 432.289 505.859 404.122 505.919Z" fill="#6ED5A6" stroke="#012758" stroke-width="20"/>
<path d="M374.556 398.115C413.061 367.862 471.218 363.52 504.453 388.417" stroke="#FCF6EA" stroke-width="20" stroke-linecap="round"/>
<ellipse cx="15.8124" cy="10.7434" rx="15.8124" ry="10.7434" transform="matrix(-0.918268 0.395959 0.395959 0.918268 362.648 411.44)" fill="#FCF6EA"/>
<path fill-rule="evenodd" clip-rule="evenodd" d="M333.124 445.671C331.78 476.046 361.549 498.686 406.788 498.59C451.235 498.495 496.327 476.485 517.096 446.871C464.073 460.671 391.58 469.086 333.124 445.671Z" fill="#24A98E"/>
</svg>
