<svg width="678" height="567" viewBox="0 0 678 567" fill="none" xmlns="http://www.w3.org/2000/svg">
<g clip-path="url(#clip0_140_2)">
<rect x="13.5519" y="4.52973" width="218.971" height="89.5808" rx="44.5" transform="matrix(0.899405 -0.437116 0.455786 0.890089 42.9471 132.242)" fill="#A95271" stroke="#012758" stroke-width="20"/>
<mask id="path-2-inside-1_140_2" fill="white">
<ellipse cx="17.9575" cy="17.5057" rx="17.9575" ry="17.5057" transform="matrix(0.994223 -0.107338 0.113022 0.993593 299.2 31.0314)"/>
</mask>
<ellipse cx="17.9575" cy="17.5057" rx="17.9575" ry="17.5057" transform="matrix(0.994223 -0.107338 0.113022 0.993593 299.2 31.0314)" fill="#89B03D"/>
<path d="M317.002 46.7167C316.905 45.8691 317.207 45.1285 317.557 44.7027C317.899 44.2865 318.36 44.0613 318.751 44.0191L323.271 83.7628C343.633 81.5646 359.166 63.4786 356.771 42.4232L317.002 46.7167ZM318.751 44.0191C319.142 43.9769 319.641 44.0985 320.069 44.4316C320.506 44.7724 320.967 45.4306 321.063 46.2782L281.294 50.5717C283.689 71.6272 302.91 85.9611 323.271 83.7628L318.751 44.0191ZM321.063 46.2782C321.16 47.1258 320.858 47.8664 320.508 48.2922C320.166 48.7083 319.705 48.9335 319.314 48.9758L314.794 9.23206C294.432 11.4303 278.899 29.5163 281.294 50.5717L321.063 46.2782ZM319.314 48.9758C318.923 49.018 318.424 48.8964 317.996 48.5633C317.559 48.2225 317.098 47.5643 317.002 46.7167L356.771 42.4232C354.376 21.3677 335.155 7.0338 314.794 9.23206L319.314 48.9758Z" fill="#012758" mask="url(#path-2-inside-1_140_2)"/>
<path d="M291.179 10.6752L172.368 64.7532L210.434 136.103C216.782 134.411 247.822 121.602 321.196 83.8998C363.603 39.0765 321.066 10.1315 291.179 10.6752Z" fill="#A95271" stroke="#012758" stroke-width="20"/>
<rect x="13.5519" y="4.52973" width="218.971" height="89.5808" rx="44.5" transform="matrix(0.899405 -0.437116 0.455786 0.890089 171.682 167.185)" fill="#A95271" stroke="#012758" stroke-width="20"/>
<rect x="-12.3277" y="7.11618" width="214.42" height="189.361" rx="82.2208" transform="matrix(-0.265192 0.964196 -0.967577 -0.252578 256.027 218.68)" fill="#A95271" stroke="#012758" stroke-width="20"/>
<rect x="7.02385" y="12.1677" width="219.782" height="89.1956" rx="44.5" transform="matrix(0.967577 0.252578 -0.265192 0.964196 64.35 92.1654)" fill="#A95271" stroke="#012758" stroke-width="20"/>
<rect x="-6.5633" y="12.409" width="121.043" height="57.6948" rx="28.8474" transform="matrix(0.301472 0.953475 -0.957802 0.287428 361.273 139.114)" fill="#BE8F65" stroke="#012758" stroke-width="20"/>
<rect x="12.3277" y="-7.11618" width="87.8013" height="39.4446" rx="19.7223" transform="matrix(0.265192 -0.964195 0.967577 0.252578 103.319 343.78)" fill="#BE8F65" stroke="#012758" stroke-width="20"/>
<rect x="12.3277" y="-7.11618" width="42.0769" height="39.4446" rx="19.7223" transform="matrix(0.265192 -0.964195 0.967577 0.252578 115.349 299.693)" fill="#6ED5A6" stroke="#012758" stroke-width="20"/>
<path d="M224.937 94.7842C227.251 115.134 212.172 133.895 190.659 136.218C169.145 138.54 150.215 123.45 147.9 103.101C145.586 82.7519 160.665 63.9903 182.178 61.6676C203.692 59.345 222.622 74.435 224.937 94.7842Z" fill="#A95271" stroke="#012758" stroke-width="20"/>
<mask id="path-12-inside-2_140_2" fill="white">
<ellipse cx="17.9575" cy="17.5057" rx="17.9575" ry="17.5057" transform="matrix(0.994223 -0.107338 0.113022 0.993593 170.394 83.7177)"/>
</mask>
<ellipse cx="17.9575" cy="17.5057" rx="17.9575" ry="17.5057" transform="matrix(0.994223 -0.107338 0.113022 0.993593 170.394 83.7177)" fill="#A95271"/>
<path d="M188.195 99.4029C188.099 98.5554 188.401 97.8147 188.751 97.389C189.093 96.9728 189.553 96.7476 189.944 96.7054L194.465 136.449C214.826 134.251 230.359 116.165 227.964 95.1094L188.195 99.4029ZM189.944 96.7054C190.335 96.6632 190.835 96.7847 191.262 97.1178C191.699 97.4587 192.16 98.1169 192.257 98.9645L152.488 103.258C154.883 124.313 174.103 138.647 194.465 136.449L189.944 96.7054ZM192.257 98.9645C192.353 99.8121 192.051 100.553 191.701 100.978C191.359 101.395 190.899 101.62 190.508 101.662L185.987 61.9183C165.625 64.1166 150.093 82.2025 152.488 103.258L192.257 98.9645ZM190.508 101.662C190.117 101.704 189.617 101.583 189.19 101.25C188.753 100.909 188.292 100.251 188.195 99.4029L227.964 95.1094C225.569 74.054 206.348 59.7201 185.987 61.9183L190.508 101.662Z" fill="#012758" mask="url(#path-12-inside-2_140_2)"/>
<ellipse cx="7.88433" cy="7.68162" rx="7.88433" ry="7.68162" transform="matrix(0.99935 -0.0360485 0.0379789 0.999278 321.34 168.102)" fill="#012758"/>
<ellipse cx="7.88216" cy="7.68383" rx="7.88216" ry="7.68383" transform="matrix(0.994223 -0.107338 0.113022 0.993593 295.674 40.0085)" fill="#562A3A"/>
<ellipse cx="7.88433" cy="7.68162" rx="7.88433" ry="7.68162" transform="matrix(0.99935 -0.0360485 0.0379789 0.999278 359.562 123.316)" fill="#4E7411"/>
<ellipse cx="156.863" cy="181.077" rx="7.8846" ry="7.68134" fill="#562A3A"/>
<ellipse cx="7.88433" cy="7.68162" rx="7.88433" ry="7.68162" transform="matrix(0.99935 -0.0360485 0.0379789 0.999278 332.096 202.118)" fill="#012758"/>
<ellipse cx="7.88433" cy="7.68162" rx="7.88433" ry="7.68162" transform="matrix(0.99935 -0.0360485 0.0379789 0.999278 340.888 229.926)" fill="#012758"/>
<path d="M542.931 496.791C505.693 473.901 490.788 427.73 513.313 392.95C535.838 358.169 585.031 351.398 622.269 374.287C659.507 397.176 674.412 443.347 651.887 478.128C629.362 512.908 580.169 519.68 542.931 496.791Z" fill="#FC9898" stroke="#012758" stroke-width="20"/>
<path d="M554.457 385.025C587.47 372.491 625.913 391.532 640.322 427.553" stroke="#FCF6EA" stroke-width="20" stroke-linecap="round"/>
<ellipse cx="11.0277" cy="10.7434" rx="11.0277" ry="10.7434" transform="matrix(-1 0 0 1 543.15 392.546)" fill="#FCF6EA"/>
<path fill-rule="evenodd" clip-rule="evenodd" d="M514.791 412.289C505.543 439.649 518.355 472.226 547.353 490.05C575.843 507.562 610.798 505.206 632.277 486.236C594.51 477.913 545.761 456.936 514.791 412.289Z" fill="#D68181"/>
<path d="M574.75 353.638C592.003 399.715 607.036 497.659 529.14 520.814C451.244 543.97 527.09 419.011 574.75 353.638Z" fill="#FC9898" stroke="#012758" stroke-width="20"/>
<path d="M551.601 169.638C523.668 169.638 500.601 147.483 500.601 119.638C500.601 91.7922 523.668 69.6378 551.601 69.6378C579.533 69.6378 602.601 91.7922 602.601 119.638C602.601 147.483 579.533 169.638 551.601 169.638Z" fill="#FDE7D2" stroke="#062855" stroke-width="20"/>
<ellipse cx="26" cy="25.5" rx="26" ry="25.5" transform="matrix(-1 0 0 1 577.601 93.6378)" fill="#022656"/>
<mask id="path-27-outside-3_140_2" maskUnits="userSpaceOnUse" x="189.888" y="78.3214" width="454" height="466" fill="black">
<rect fill="white" x="189.888" y="78.3214" width="454" height="466"/>
<path fill-rule="evenodd" clip-rule="evenodd" d="M568.053 358.384C602.109 331.573 623.888 290.55 623.888 244.571C623.888 163.8 556.677 98.3214 473.768 98.3214C417.438 98.3214 368.355 128.546 342.674 173.257C306.035 186.327 272.281 210.804 247.458 245.38C187.181 329.34 202.384 441.058 281.415 494.909C360.447 548.76 473.378 524.352 533.655 440.392C552.011 414.824 563.368 386.682 568.053 358.384Z"/>
</mask>
<path fill-rule="evenodd" clip-rule="evenodd" d="M568.053 358.384C602.109 331.573 623.888 290.55 623.888 244.571C623.888 163.8 556.677 98.3214 473.768 98.3214C417.438 98.3214 368.355 128.546 342.674 173.257C306.035 186.327 272.281 210.804 247.458 245.38C187.181 329.34 202.384 441.058 281.415 494.909C360.447 548.76 473.378 524.352 533.655 440.392C552.011 414.824 563.368 386.682 568.053 358.384Z" fill="#FC9898"/>
<path d="M568.053 358.384L548.322 355.117L549.588 347.466L555.682 342.669L568.053 358.384ZM342.674 173.257L360.016 183.218L356.342 189.615L349.393 192.094L342.674 173.257ZM247.458 245.38L231.211 233.716V233.716L247.458 245.38ZM281.415 494.909L292.677 478.381L281.415 494.909ZM533.655 440.392L517.409 428.728L533.655 440.392ZM555.682 342.669C585.221 319.414 603.888 284.047 603.888 244.571H643.888C643.888 297.053 618.997 343.732 580.424 374.098L555.682 342.669ZM603.888 244.571C603.888 175.335 546.127 118.321 473.768 118.321V78.3214C567.227 78.3214 643.888 152.265 643.888 244.571H603.888ZM473.768 118.321C424.71 118.321 382.186 144.621 360.016 183.218L325.331 163.295C354.524 112.471 410.167 78.3214 473.768 78.3214V118.321ZM349.393 192.094C316.519 203.821 286.115 225.829 263.704 257.044L231.211 233.716C258.448 195.778 295.551 168.833 335.954 154.42L349.393 192.094ZM263.704 257.044C209.079 333.132 224.162 431.696 292.677 478.381L270.153 511.437C180.606 450.42 165.282 325.548 231.211 233.716L263.704 257.044ZM292.677 478.381C361.596 525.341 462.624 505.038 517.409 428.728L549.902 452.056C484.133 543.666 359.297 572.178 270.153 511.437L292.677 478.381ZM517.409 428.728C533.979 405.648 544.139 380.377 548.322 355.117L587.784 361.651C582.596 392.987 570.044 424.001 549.902 452.056L517.409 428.728Z" fill="#012758" mask="url(#path-27-outside-3_140_2)"/>
<path fill-rule="evenodd" clip-rule="evenodd" d="M623.888 244.572C623.888 290.55 602.109 331.573 568.053 358.384C563.368 386.682 552.011 414.825 533.655 440.393C477.722 518.303 376.448 544.934 298.995 505.338L511.409 222.882L613.74 191.605C620.293 208.029 623.888 225.891 623.888 244.572Z" fill="#FFF3E5"/>
<path d="M408.817 127.381C447.519 92.4598 517.197 99.7831 551.771 136.15" stroke="#FCF6EA" stroke-width="20" stroke-linecap="round"/>
<line x1="10" y1="-10" x2="17.8641" y2="-10" transform="matrix(-0.753036 0.65798 0.677306 0.735702 362.984 239.635)" stroke="#012758" stroke-width="20" stroke-linecap="round"/>
<line x1="10" y1="-10" x2="18.453" y2="-10" transform="matrix(-0.772295 0.635264 0.654935 0.755686 322.913 240.666)" stroke="#012758" stroke-width="20" stroke-linecap="round"/>
<line x1="10" y1="-10" x2="22.9372" y2="-10" transform="matrix(-0.759621 0.650366 0.669819 0.742524 365.286 194.787)" stroke="#012758" stroke-width="20" stroke-linecap="round"/>
<path d="M388.101 169.638C360.328 169.638 337.601 147.369 337.601 119.638C337.601 91.9068 360.328 69.6378 388.101 69.6378C415.873 69.6378 438.601 91.9068 438.601 119.638C438.601 147.369 415.873 169.638 388.101 169.638Z" fill="#FDE7D2" stroke="#062855" stroke-width="20"/>
<ellipse cx="26" cy="25.5" rx="26" ry="25.5" transform="matrix(-1 0 0 1 414.601 93.6378)" fill="#022656"/>
<ellipse cx="16.5" cy="16" rx="16.5" ry="16" transform="matrix(-1 0 0 1 554.601 151.638)" fill="#022656"/>
<ellipse cx="16.5" cy="16" rx="16.5" ry="16" transform="matrix(-1 0 0 1 487.601 151.638)" fill="#022656"/>
<path d="M604.601 190.638C574.626 209.04 495.262 237.01 417.601 201.679" stroke="#012758" stroke-width="20" stroke-linecap="round"/>
<path d="M207.332 496.791C170.094 473.901 155.189 427.73 177.714 392.95C200.239 358.169 249.432 351.398 286.67 374.287C323.908 397.176 338.813 443.347 316.288 478.128C293.763 512.908 244.57 519.68 207.332 496.791Z" fill="#FC9898" stroke="#012758" stroke-width="20"/>
<path d="M218.858 385.025C251.871 372.491 290.315 391.532 304.724 427.553" stroke="#FCF6EA" stroke-width="20" stroke-linecap="round"/>
<ellipse cx="11.0277" cy="10.7434" rx="11.0277" ry="10.7434" transform="matrix(-1 0 0 1 207.553 392.546)" fill="#FCF6EA"/>
<path fill-rule="evenodd" clip-rule="evenodd" d="M179.193 412.289C169.944 439.649 182.756 472.226 211.755 490.05C240.244 507.562 275.2 505.206 296.679 486.236C258.911 477.913 210.163 456.936 179.193 412.289Z" fill="#D68181"/>
<path d="M281.601 517.638C281.601 528.034 290.233 536.638 301.101 536.638C311.968 536.638 320.601 528.034 320.601 517.638C320.601 507.241 311.968 498.638 301.101 498.638C290.233 498.638 281.601 507.241 281.601 517.638Z" fill="#FC9898" stroke="#012758" stroke-width="10"/>
<path d="M246.601 529.638C246.601 539.85 255.489 548.638 267.101 548.638C278.712 548.638 287.601 539.85 287.601 529.638C287.601 519.426 278.712 510.638 267.101 510.638C255.489 510.638 246.601 519.426 246.601 529.638Z" fill="#FC9898" stroke="#012758" stroke-width="10"/>
<path d="M209.601 528.138C209.601 538.256 218.007 546.638 228.601 546.638C239.194 546.638 247.601 538.256 247.601 528.138C247.601 518.019 239.194 509.638 228.601 509.638C218.007 509.638 209.601 518.019 209.601 528.138Z" fill="#FC9898" stroke="#012758" stroke-width="10"/>
<path d="M399.257 364.83L400.426 366.571L400.796 368.635C404.732 390.544 411.026 423.746 417.113 452.14C420.161 466.355 423.129 479.238 425.704 488.86C426.997 493.692 428.144 497.524 429.107 500.228C429.54 501.444 429.884 502.285 430.131 502.818C434.711 507.352 436.742 512.553 437.729 515.08C437.762 515.164 437.794 515.245 437.824 515.323H448.604L446.47 527.106C446.04 529.478 444.913 532.942 441.719 535.494C438.32 538.21 434.528 538.369 432.06 538.027C429.741 537.706 427.731 536.854 426.408 536.223C424.992 535.548 423.601 534.747 422.471 534.082C422.115 533.873 421.779 533.675 421.461 533.487C419.785 532.498 418.6 531.799 417.568 531.315L416.976 531.651L413.99 531.457C409.616 531.173 408.968 531.436 408.813 531.499L408.813 531.499L408.81 531.5C408.737 531.529 407.804 531.897 404.941 535.447L402.767 538.142L399.391 538.916C397.872 539.264 396.904 539.51 395.878 539.771C394.934 540.011 393.939 540.264 392.42 540.621C390.297 541.119 387.29 541.778 384.54 541.778C383.208 541.778 380.767 541.648 378.277 540.389C375.173 538.819 372.714 535.83 372.122 531.892C371.648 528.743 372.548 526.071 373.188 524.547C373.902 522.845 374.89 521.202 375.934 519.676C376.319 519.114 376.681 518.587 377.023 518.09C378.303 516.229 379.303 514.776 380.153 513.388C381.21 511.662 381.585 510.735 381.713 510.254C381.728 510.196 381.738 510.152 381.744 510.12C381.673 509.926 381.347 509.188 380.131 507.833C375.551 502.734 361.771 483.831 349.214 462.561C342.88 451.833 336.683 440.215 332.04 429.16C327.503 418.357 324 407.065 324 397.322V396.872L324.04 396.425C325.916 375.589 341.622 362.768 356.53 357.362C364.084 354.623 372.17 353.46 379.465 354.236C386.493 354.983 394.53 357.786 399.257 364.83ZM430.401 503.344C430.402 503.341 430.378 503.297 430.33 503.222C430.377 503.309 430.401 503.347 430.401 503.344ZM416.285 530.822C416.288 530.826 416.35 530.846 416.463 530.865C416.339 530.826 416.282 530.817 416.285 530.822Z" fill="#FC9898" stroke="#012758" stroke-width="20" stroke-linecap="round"/>
<path d="M422.909 525.515C421.404 535.692 428.657 545.346 439.41 546.855C450.163 548.364 459.918 541.097 461.423 530.919C462.928 520.741 455.675 511.087 444.921 509.579C434.168 508.07 424.414 515.337 422.909 525.515Z" fill="#FC9898" stroke="#012758" stroke-width="10"/>
<path d="M542.215 518.054C540.711 528.232 547.964 537.886 558.717 539.395C569.47 540.904 579.225 533.636 580.73 523.459C582.234 513.281 574.981 503.627 564.228 502.118C553.475 500.609 543.72 507.877 542.215 518.054Z" fill="#FC9898" stroke="#012758" stroke-width="10"/>
<path d="M385.404 536.975C383.899 547.152 391.152 556.806 401.905 558.315C412.659 559.824 422.413 552.556 423.918 542.379C425.423 532.201 418.17 522.547 407.417 521.039C396.664 519.53 386.909 526.797 385.404 536.975Z" fill="#FC9898" stroke="#012758" stroke-width="10"/>
<path d="M504.71 529.514C503.205 539.692 510.458 549.346 521.211 550.855C531.964 552.363 541.719 545.096 543.224 534.918C544.728 524.741 537.475 515.087 526.722 513.578C515.969 512.069 506.214 519.337 504.71 529.514Z" fill="#FC9898" stroke="#012758" stroke-width="10"/>
<path d="M349.341 525.385C347.837 535.562 355.09 545.216 365.843 546.725C376.596 548.234 386.351 540.966 387.856 530.789C389.36 520.611 382.107 510.957 371.354 509.448C360.601 507.94 350.846 515.207 349.341 525.385Z" fill="#FC9898" stroke="#012758" stroke-width="10"/>
<path d="M468.648 517.924C467.143 528.102 474.396 537.756 485.15 539.264C495.903 540.773 505.658 533.506 507.162 523.328C508.667 513.151 501.414 503.497 490.661 501.988C479.908 500.479 470.153 507.747 468.648 517.924Z" fill="#FC9898" stroke="#012758" stroke-width="10"/>
<ellipse cx="7.88433" cy="7.68162" rx="7.88433" ry="7.68162" transform="matrix(0.99935 -0.0360485 0.0379789 0.999278 223.842 240.462)" fill="#012758"/>
<ellipse cx="7.88433" cy="7.68162" rx="7.88433" ry="7.68162" transform="matrix(0.99935 -0.0360485 0.0379789 0.999278 234.598 274.478)" fill="#012758"/>
<ellipse cx="7.88433" cy="7.68162" rx="7.88433" ry="7.68162" transform="matrix(0.99935 -0.0360485 0.0379789 0.999278 243.39 302.286)" fill="#012758"/>
<path d="M361.888 46C360.097 53.9476 360.114 56.0791 358.398 71" stroke="#062855" stroke-width="10" stroke-linecap="round"/>
<path d="M391.357 46.3595C389.645 53.2311 389.62 55.068 387.84 67.9489" stroke="#062855" stroke-width="10" stroke-linecap="round"/>
<path d="M418.357 48.7344C416.645 55.606 416.62 57.4429 414.84 70.3237" stroke="#062855" stroke-width="10" stroke-linecap="round"/>
<path d="M534.412 49C532.62 56.9476 532.638 59.0791 530.922 74" stroke="#062855" stroke-width="10" stroke-linecap="round"/>
<path d="M563.881 49.3603C562.169 56.2319 562.143 58.0688 560.363 70.9496" stroke="#062855" stroke-width="10" stroke-linecap="round"/>
<path d="M590.881 51.735C589.169 58.6066 589.143 60.4435 587.363 73.3243" stroke="#062855" stroke-width="10" stroke-linecap="round"/>
<rect x="-6.5633" y="12.409" width="121.043" height="57.6948" rx="28.8474" transform="matrix(0.301472 0.953475 -0.957802 0.287428 259.717 211.1)" fill="#BE8F65" stroke="#012758" stroke-width="20"/>
<ellipse cx="7.88433" cy="7.68162" rx="7.88433" ry="7.68162" transform="matrix(0.99935 -0.0360485 0.0379789 0.999278 219.783 240.09)" fill="#012758"/>
<ellipse cx="7.88433" cy="7.68162" rx="7.88433" ry="7.68162" transform="matrix(0.99935 -0.0360485 0.0379789 0.999278 230.539 274.105)" fill="#012758"/>
<ellipse cx="7.88433" cy="7.68162" rx="7.88433" ry="7.68162" transform="matrix(0.99935 -0.0360485 0.0379789 0.999278 239.331 301.914)" fill="#012758"/>
</g>
<defs>
<clipPath id="clip0_140_2">
<rect width="677.6" height="566.658" fill="white"/>
</clipPath>
</defs>
</svg>
