<svg width="677" height="656" viewBox="0 0 677 656" fill="none" xmlns="http://www.w3.org/2000/svg">
<rect x="13.5519" y="4.52973" width="218.971" height="89.5808" rx="44.5" transform="matrix(0.899405 -0.437116 0.455786 0.890089 42.9471 199.242)" fill="#86AC3B" stroke="#012758" stroke-width="20"/>
<mask id="path-2-inside-1_221_2180" fill="white">
<ellipse cx="17.9575" cy="17.5057" rx="17.9575" ry="17.5057" transform="matrix(0.994223 -0.107338 0.113022 0.993593 299.2 98.0314)"/>
</mask>
<ellipse cx="17.9575" cy="17.5057" rx="17.9575" ry="17.5057" transform="matrix(0.994223 -0.107338 0.113022 0.993593 299.2 98.0314)" fill="#89B03D"/>
<path d="M317.002 113.717C316.905 112.869 317.207 112.128 317.557 111.703C317.899 111.286 318.36 111.061 318.751 111.019L323.271 150.763C343.633 148.564 359.166 130.479 356.771 109.423L317.002 113.717ZM318.751 111.019C319.142 110.977 319.641 111.098 320.069 111.431C320.506 111.772 320.967 112.431 321.063 113.278L281.294 117.572C283.689 138.627 302.91 152.961 323.271 150.763L318.751 111.019ZM321.063 113.278C321.16 114.126 320.858 114.866 320.508 115.292C320.166 115.708 319.705 115.933 319.314 115.976L314.794 76.232C294.432 78.4303 278.899 96.5162 281.294 117.572L321.063 113.278ZM319.314 115.976C318.923 116.018 318.424 115.896 317.996 115.563C317.559 115.222 317.098 114.564 317.002 113.717L356.771 109.423C354.376 88.3677 335.155 74.0337 314.794 76.232L319.314 115.976Z" fill="#012758" mask="url(#path-2-inside-1_221_2180)"/>
<path d="M291.179 77.6751L172.368 131.753L210.434 203.103C216.782 201.411 247.822 188.602 321.196 150.9C363.603 106.076 321.066 77.1314 291.179 77.6751Z" fill="#8EB540" stroke="#012758" stroke-width="20"/>
<rect x="13.5519" y="4.52973" width="218.971" height="89.5808" rx="44.5" transform="matrix(0.899405 -0.437116 0.455786 0.890089 171.682 234.185)" fill="#86AC3B" stroke="#012758" stroke-width="20"/>
<rect x="-12.3277" y="7.11618" width="214.42" height="189.361" rx="82.2208" transform="matrix(-0.265192 0.964196 -0.967577 -0.252578 256.028 286.914)" fill="#8FB03F" stroke="#012758" stroke-width="20"/>
<rect x="7.02385" y="12.1677" width="219.782" height="89.1956" rx="44.5" transform="matrix(0.967577 0.252578 -0.265192 0.964196 64.35 159.165)" fill="#86AC3B" stroke="#012758" stroke-width="20"/>
<rect x="-6.5633" y="12.409" width="121.043" height="57.6948" rx="28.8474" transform="matrix(0.301472 0.953475 -0.957802 0.287428 361.273 206.114)" fill="#BE8F65" stroke="#012758" stroke-width="20"/>
<rect x="12.3277" y="-7.11618" width="87.8013" height="39.4446" rx="19.7223" transform="matrix(0.265192 -0.964195 0.967577 0.252578 103.319 410.78)" fill="#BE8F65" stroke="#012758" stroke-width="20"/>
<rect x="12.3277" y="-7.11618" width="42.0769" height="39.4446" rx="19.7223" transform="matrix(0.265192 -0.964195 0.967577 0.252578 115.349 366.693)" fill="#6ED5A6" stroke="#012758" stroke-width="20"/>
<path d="M224.937 161.784C227.251 182.133 212.172 200.895 190.659 203.218C169.145 205.54 150.215 190.45 147.9 170.101C145.586 149.752 160.665 130.99 182.178 128.668C203.692 126.345 222.622 141.435 224.937 161.784Z" fill="#89B03D" stroke="#012758" stroke-width="20"/>
<mask id="path-12-inside-2_221_2180" fill="white">
<ellipse cx="17.9575" cy="17.5057" rx="17.9575" ry="17.5057" transform="matrix(0.994223 -0.107338 0.113022 0.993593 170.394 150.718)"/>
</mask>
<ellipse cx="17.9575" cy="17.5057" rx="17.9575" ry="17.5057" transform="matrix(0.994223 -0.107338 0.113022 0.993593 170.394 150.718)" fill="#89B03D"/>
<path d="M188.195 166.403C188.099 165.555 188.401 164.815 188.751 164.389C189.093 163.973 189.553 163.748 189.944 163.705L194.465 203.449C214.826 201.251 230.359 183.165 227.964 162.11L188.195 166.403ZM189.944 163.705C190.335 163.663 190.835 163.785 191.262 164.118C191.699 164.459 192.16 165.117 192.257 165.965L152.488 170.258C154.883 191.313 174.103 205.647 194.465 203.449L189.944 163.705ZM192.257 165.965C192.353 166.812 192.051 167.553 191.701 167.979C191.359 168.395 190.899 168.62 190.508 168.662L185.987 128.918C165.625 131.117 150.093 149.203 152.488 170.258L192.257 165.965ZM190.508 168.662C190.117 168.704 189.617 168.583 189.19 168.25C188.753 167.909 188.292 167.251 188.195 166.403L227.964 162.11C225.569 141.054 206.348 126.72 185.987 128.918L190.508 168.662Z" fill="#012758" mask="url(#path-12-inside-2_221_2180)"/>
<ellipse cx="7.88433" cy="7.68162" rx="7.88433" ry="7.68162" transform="matrix(0.99935 -0.0360485 0.0379789 0.999278 321.34 235.103)" fill="#012758"/>
<ellipse cx="7.88216" cy="7.68383" rx="7.88216" ry="7.68383" transform="matrix(0.994223 -0.107338 0.113022 0.993593 295.674 107.008)" fill="#4E7411"/>
<ellipse cx="7.88433" cy="7.68162" rx="7.88433" ry="7.68162" transform="matrix(0.99935 -0.0360485 0.0379789 0.999278 359.562 190.316)" fill="#4E7411"/>
<ellipse cx="156.863" cy="248.077" rx="7.8846" ry="7.68134" fill="#4E7411"/>
<ellipse cx="7.88433" cy="7.68162" rx="7.88433" ry="7.68162" transform="matrix(0.99935 -0.0360485 0.0379789 0.999278 332.096 269.118)" fill="#012758"/>
<ellipse cx="7.88433" cy="7.68162" rx="7.88433" ry="7.68162" transform="matrix(0.99935 -0.0360485 0.0379789 0.999278 340.888 296.926)" fill="#012758"/>
<path d="M542.33 563.153C505.092 540.264 490.187 494.093 512.712 459.312C535.237 424.532 584.43 417.76 621.668 440.649C658.906 463.539 673.811 509.71 651.286 544.49C628.761 579.271 579.568 586.042 542.33 563.153Z" fill="#6ED5A6" stroke="#012758" stroke-width="20"/>
<path d="M553.856 451.387C586.869 438.854 625.313 457.894 639.722 493.916" stroke="#FCF6EA" stroke-width="20" stroke-linecap="round"/>
<ellipse cx="11.0277" cy="10.7434" rx="11.0277" ry="10.7434" transform="matrix(-1 0 0 1 542.55 458.908)" fill="#FCF6EA"/>
<path fill-rule="evenodd" clip-rule="evenodd" d="M514.191 478.651C504.942 506.011 517.754 538.588 546.753 556.413C575.242 573.925 610.198 571.568 631.677 552.598C593.909 544.276 545.161 523.298 514.191 478.651Z" fill="#24A98E"/>
<path d="M574.149 420C591.403 466.078 606.435 564.021 528.539 587.177C450.643 610.332 526.489 485.374 574.149 420Z" fill="#6ED5A6" stroke="#012758" stroke-width="20"/>
<path d="M551 236C523.068 236 500 213.846 500 186C500 158.154 523.068 136 551 136C578.932 136 602 158.154 602 186C602 213.846 578.932 236 551 236Z" fill="#FDE7D2" stroke="#062855" stroke-width="20"/>
<ellipse cx="26" cy="25.5" rx="26" ry="25.5" transform="matrix(-1 0 0 1 577 160)" fill="#022656"/>
<mask id="path-27-outside-3_221_2180" maskUnits="userSpaceOnUse" x="189.287" y="144.684" width="454" height="466" fill="black">
<rect fill="white" x="189.287" y="144.684" width="454" height="466"/>
<path fill-rule="evenodd" clip-rule="evenodd" d="M567.452 424.746C601.508 397.935 623.287 356.912 623.287 310.934C623.287 230.162 556.076 164.684 473.167 164.684C416.838 164.684 367.755 194.908 342.073 239.619C305.434 252.689 271.681 277.166 246.857 311.743C186.58 395.702 201.783 507.42 280.815 561.271C359.846 615.122 472.778 590.714 533.055 506.755C551.411 481.187 562.767 453.044 567.452 424.746Z"/>
</mask>
<path fill-rule="evenodd" clip-rule="evenodd" d="M567.452 424.746C601.508 397.935 623.287 356.912 623.287 310.934C623.287 230.162 556.076 164.684 473.167 164.684C416.838 164.684 367.755 194.908 342.073 239.619C305.434 252.689 271.681 277.166 246.857 311.743C186.58 395.702 201.783 507.42 280.815 561.271C359.846 615.122 472.778 590.714 533.055 506.755C551.411 481.187 562.767 453.044 567.452 424.746Z" fill="#6ED5A6"/>
<path d="M567.452 424.746L547.721 421.479L548.988 413.828L555.081 409.031L567.452 424.746ZM342.073 239.619L359.416 249.581L355.741 255.978L348.793 258.456L342.073 239.619ZM246.857 311.743L230.61 300.079V300.079L246.857 311.743ZM280.815 561.271L292.077 544.743L280.815 561.271ZM533.055 506.755L516.808 495.091L533.055 506.755ZM555.081 409.031C584.62 385.777 603.287 350.41 603.287 310.934H643.287C643.287 363.415 618.396 410.094 579.824 440.46L555.081 409.031ZM603.287 310.934C603.287 241.697 545.526 184.684 473.167 184.684V144.684C566.626 144.684 643.287 218.627 643.287 310.934H603.287ZM473.167 184.684C424.11 184.684 381.586 210.983 359.416 249.581L324.73 229.658C353.923 178.834 409.566 144.684 473.167 144.684V184.684ZM348.793 258.456C315.919 270.184 285.514 292.191 263.104 323.406L230.61 300.079C257.847 262.141 294.95 235.195 335.353 220.782L348.793 258.456ZM263.104 323.406C208.478 399.494 223.562 498.058 292.077 544.743L269.553 577.799C180.005 516.782 164.682 391.911 230.61 300.079L263.104 323.406ZM292.077 544.743C360.995 591.704 462.023 571.4 516.808 495.091L549.301 518.419C483.532 610.028 358.697 638.541 269.553 577.799L292.077 544.743ZM516.808 495.091C533.379 472.01 543.539 446.739 547.721 421.479L587.184 428.013C581.995 459.349 569.443 490.363 549.301 518.419L516.808 495.091Z" fill="#012758" mask="url(#path-27-outside-3_221_2180)"/>
<path fill-rule="evenodd" clip-rule="evenodd" d="M623.287 310.934C623.287 356.913 601.508 397.936 567.452 424.746C562.767 453.045 551.411 481.187 533.055 506.755C477.121 584.665 375.847 611.296 298.394 571.7L510.809 289.244L613.139 257.968C619.692 274.391 623.287 292.254 623.287 310.934Z" fill="#FFF3E5"/>
<path d="M408.217 193.744C446.918 158.822 516.596 166.145 551.171 202.513" stroke="#FCF6EA" stroke-width="20" stroke-linecap="round"/>
<line x1="10" y1="-10" x2="17.8641" y2="-10" transform="matrix(-0.753036 0.65798 0.677306 0.735702 362.384 305.997)" stroke="#012758" stroke-width="20" stroke-linecap="round"/>
<line x1="10" y1="-10" x2="18.453" y2="-10" transform="matrix(-0.772295 0.635264 0.654935 0.755686 322.312 307.028)" stroke="#012758" stroke-width="20" stroke-linecap="round"/>
<line x1="10" y1="-10" x2="22.9372" y2="-10" transform="matrix(-0.759621 0.650366 0.669819 0.742524 364.686 261.149)" stroke="#012758" stroke-width="20" stroke-linecap="round"/>
<path d="M387.5 236C359.727 236 337 213.731 337 186C337 158.269 359.727 136 387.5 136C415.273 136 438 158.269 438 186C438 213.731 415.273 236 387.5 236Z" fill="#FDE7D2" stroke="#062855" stroke-width="20"/>
<ellipse cx="26" cy="25.5" rx="26" ry="25.5" transform="matrix(-1 0 0 1 414 160)" fill="#022656"/>
<ellipse cx="16.5" cy="16" rx="16.5" ry="16" transform="matrix(-1 0 0 1 554 218)" fill="#022656"/>
<ellipse cx="16.5" cy="16" rx="16.5" ry="16" transform="matrix(-1 0 0 1 487 218)" fill="#022656"/>
<path d="M604 257C574.025 275.402 494.661 303.373 417 268.041" stroke="#012758" stroke-width="20" stroke-linecap="round"/>
<path d="M206.732 563.153C169.494 540.264 154.588 494.093 177.113 459.312C199.638 424.532 248.831 417.76 286.069 440.649C323.307 463.539 338.213 509.71 315.688 544.49C293.163 579.271 243.97 586.042 206.732 563.153Z" fill="#6ED5A6" stroke="#012758" stroke-width="20"/>
<path d="M218.258 451.387C251.271 438.854 289.714 457.894 304.123 493.916" stroke="#FCF6EA" stroke-width="20" stroke-linecap="round"/>
<ellipse cx="11.0277" cy="10.7434" rx="11.0277" ry="10.7434" transform="matrix(-1 0 0 1 206.952 458.908)" fill="#FCF6EA"/>
<path fill-rule="evenodd" clip-rule="evenodd" d="M178.592 478.652C169.344 506.012 182.156 538.588 211.154 556.413C239.644 573.925 274.599 571.568 296.078 552.598C258.311 544.276 209.562 523.298 178.592 478.652Z" fill="#24A98E"/>
<path d="M281 584C281 594.397 289.633 603 300.5 603C311.367 603 320 594.397 320 584C320 573.603 311.367 565 300.5 565C289.633 565 281 573.603 281 584Z" fill="#6ED5A6" stroke="#012758" stroke-width="10"/>
<path d="M246 596C246 606.212 254.888 615 266.5 615C278.112 615 287 606.212 287 596C287 585.788 278.112 577 266.5 577C254.888 577 246 585.788 246 596Z" fill="#6ED5A6" stroke="#012758" stroke-width="10"/>
<path d="M209 594.5C209 604.619 217.407 613 228 613C238.593 613 247 604.619 247 594.5C247 584.381 238.593 576 228 576C217.407 576 209 584.381 209 594.5Z" fill="#6ED5A6" stroke="#012758" stroke-width="10"/>
<path d="M399.887 431.616L401.056 433.357L401.426 435.421C405.362 457.33 411.656 490.532 417.743 518.926C420.791 533.142 423.759 546.024 426.334 555.646C427.627 560.478 428.774 564.31 429.737 567.014C430.17 568.23 430.514 569.072 430.761 569.604C435.341 574.138 437.372 579.339 438.359 581.867C438.392 581.951 438.423 582.032 438.454 582.109H449.234L447.1 593.892C446.67 596.264 445.543 599.728 442.349 602.28C438.95 604.996 435.158 605.155 432.69 604.813C430.371 604.492 428.361 603.64 427.038 603.009C425.622 602.334 424.231 601.533 423.101 600.868C422.745 600.659 422.409 600.461 422.09 600.273C420.415 599.285 419.23 598.586 418.197 598.101L417.606 598.437L414.62 598.243C410.246 597.959 409.598 598.222 409.443 598.285L409.443 598.285L409.44 598.286C409.367 598.315 408.433 598.683 405.571 602.233L403.397 604.928L400.021 605.702C398.502 606.05 397.534 606.296 396.508 606.557C395.564 606.798 394.569 607.05 393.05 607.407C390.927 607.905 387.92 608.564 385.169 608.564C383.838 608.564 381.397 608.435 378.907 607.175C375.803 605.606 373.344 602.616 372.752 598.679C372.278 595.529 373.178 592.857 373.818 591.333C374.532 589.632 375.52 587.988 376.564 586.462C376.949 585.9 377.311 585.374 377.653 584.876C378.933 583.016 379.933 581.562 380.783 580.174C381.84 578.449 382.215 577.521 382.343 577.04C382.358 576.982 382.368 576.938 382.374 576.906C382.303 576.712 381.977 575.974 380.761 574.62C376.18 569.52 362.401 550.617 349.843 529.347C343.51 518.62 337.313 507.001 332.67 495.946C328.133 485.143 324.63 473.851 324.63 464.108V463.658L324.67 463.211C326.546 442.375 342.252 429.555 357.16 424.148C364.714 421.409 372.8 420.246 380.095 421.022C387.123 421.769 395.16 424.572 399.887 431.616ZM431.031 570.13C431.031 570.127 431.008 570.084 430.96 570.008C431.006 570.095 431.031 570.133 431.031 570.13ZM416.915 597.608C416.918 597.613 416.98 597.632 417.093 597.651C416.969 597.612 416.912 597.603 416.915 597.608Z" fill="#6DD4A6" stroke="#012758" stroke-width="20" stroke-linecap="round"/>
<path d="M423.539 592.301C422.034 602.478 429.287 612.132 440.04 613.641C450.793 615.15 460.548 607.883 462.053 597.705C463.558 587.528 456.304 577.874 445.551 576.365C434.798 574.856 425.043 582.123 423.539 592.301Z" fill="#6ED5A6" stroke="#012758" stroke-width="10"/>
<path d="M542.845 584.84C541.341 595.018 548.594 604.672 559.347 606.181C570.1 607.69 579.855 600.422 581.36 590.245C582.864 580.067 575.611 570.413 564.858 568.904C554.105 567.395 544.35 574.663 542.845 584.84Z" fill="#6ED5A6" stroke="#012758" stroke-width="10"/>
<path d="M386.034 603.761C384.529 613.938 391.782 623.592 402.535 625.101C413.288 626.61 423.043 619.343 424.548 609.165C426.053 598.988 418.8 589.334 408.046 587.825C397.293 586.316 387.539 593.583 386.034 603.761Z" fill="#6ED5A6" stroke="#012758" stroke-width="10"/>
<path d="M505.339 596.3C503.835 606.478 511.088 616.132 521.841 617.641C532.594 619.15 542.349 611.882 543.854 601.705C545.358 591.527 538.105 581.873 527.352 580.364C516.599 578.855 506.844 586.123 505.339 596.3Z" fill="#6ED5A6" stroke="#012758" stroke-width="10"/>
<path d="M349.971 592.171C348.467 602.348 355.72 612.002 366.473 613.511C377.226 615.02 386.981 607.753 388.485 597.575C389.99 587.397 382.737 577.743 371.984 576.235C361.231 574.726 351.476 581.993 349.971 592.171Z" fill="#6ED5A6" stroke="#012758" stroke-width="10"/>
<path d="M469.278 584.71C467.773 594.888 475.026 604.542 485.779 606.051C496.533 607.56 506.287 600.292 507.792 590.115C509.297 579.937 502.044 570.283 491.291 568.774C480.538 567.265 470.783 574.533 469.278 584.71Z" fill="#6ED5A6" stroke="#012758" stroke-width="10"/>
<rect x="-6.5633" y="12.409" width="121.043" height="57.6948" rx="28.8474" transform="matrix(0.301472 0.953475 -0.957802 0.287428 263.175 277.836)" fill="#BE8F65" stroke="#012758" stroke-width="20"/>
<ellipse cx="7.88433" cy="7.68162" rx="7.88433" ry="7.68162" transform="matrix(0.99935 -0.0360485 0.0379789 0.999278 223.241 306.824)" fill="#012758"/>
<ellipse cx="7.88433" cy="7.68162" rx="7.88433" ry="7.68162" transform="matrix(0.99935 -0.0360485 0.0379789 0.999278 233.997 340.84)" fill="#012758"/>
<ellipse cx="7.88433" cy="7.68162" rx="7.88433" ry="7.68162" transform="matrix(0.99935 -0.0360485 0.0379789 0.999278 242.789 368.648)" fill="#012758"/>
<path d="M627.661 211.449C624.052 295.572 556.285 399.258 481.788 389.184C407.29 379.11 346.18 319.474 316.882 246.035C317.248 176.047 356.596 86.3259 446.964 76.2689C537.332 66.2119 618.233 126.734 627.661 211.449Z" fill="url(#paint0_linear_221_2180)" stroke="black" stroke-width="10"/>
<ellipse cx="443.452" cy="157.951" rx="9.20785" ry="6.71029" transform="rotate(-6.35027 443.452 157.951)" fill="black"/>
<ellipse cx="493.239" cy="152.41" rx="9.20785" ry="6.71029" transform="rotate(-6.35027 493.239 152.41)" fill="black"/>
<ellipse cx="458.474" cy="292.932" rx="9.20785" ry="6.71029" transform="rotate(-6.35027 458.474 292.932)" fill="black"/>
<ellipse cx="508.261" cy="287.39" rx="9.20785" ry="6.71029" transform="rotate(-6.35027 508.261 287.39)" fill="black"/>
<ellipse cx="461.681" cy="321.742" rx="9.20785" ry="6.71029" transform="rotate(-6.35027 461.681 321.742)" fill="black"/>
<ellipse cx="511.468" cy="316.203" rx="9.20785" ry="6.71029" transform="rotate(-6.35027 511.468 316.203)" fill="black"/>
<path d="M474.039 349.534C474.449 353.218 470.981 359.327 465.927 359.89C460.873 360.452 456.146 355.254 455.736 351.571C455.326 347.888 459.091 344.446 464.145 343.884C469.2 343.321 473.629 345.851 474.039 349.534Z" fill="black"/>
<path d="M523.824 343.993C524.234 347.676 520.766 353.786 515.712 354.348C510.658 354.911 505.931 349.713 505.521 346.03C505.112 342.346 508.876 338.905 513.931 338.342C518.985 337.78 523.414 340.31 523.824 343.993Z" fill="black"/>
<path d="M564.737 212.782C560.742 223.219 550.385 235.445 532.116 237.478C513.848 239.511 498.002 231.843 496.723 220.351C495.444 208.859 509.217 197.895 527.485 195.862C549.041 193.463 570.567 197.549 564.737 212.782Z" fill="black"/>
<path d="M382.031 233.058C388.359 242.316 401.335 251.875 419.703 249.722C438.071 247.569 451.821 236.519 450.415 225.042C449.01 213.564 432.98 206.006 414.612 208.159C392.938 210.7 372.795 219.547 382.031 233.058Z" fill="black"/>
<rect x="303.27" y="240.258" width="27.9919" height="11.2733" rx="5.63665" transform="rotate(-6.35027 303.27 240.258)" fill="black"/>
<rect x="612.711" y="203.659" width="23.5721" height="11.2733" rx="5.63665" transform="rotate(-6.35027 612.711 203.659)" fill="black"/>
<defs>
<linearGradient id="paint0_linear_221_2180" x1="528.632" y1="67.1801" x2="413.984" y2="397.699" gradientUnits="userSpaceOnUse">
<stop offset="0.30804" stop-color="#FBFBF8"/>
<stop offset="1" stop-color="#959593"/>
</linearGradient>
</defs>
</svg>
