<svg width="677" height="567" viewBox="0 0 677 567" fill="none" xmlns="http://www.w3.org/2000/svg">
<g clip-path="url(#clip0_132_2)">
<rect x="13.5519" y="4.52973" width="218.971" height="89.5808" rx="44.5" transform="matrix(0.899405 -0.437116 0.455786 0.890089 42.9471 132.242)" fill="#86AC3B" stroke="#012758" stroke-width="20"/>
<mask id="path-2-inside-1_132_2" fill="white">
<ellipse cx="17.9575" cy="17.5057" rx="17.9575" ry="17.5057" transform="matrix(0.994223 -0.107338 0.113022 0.993593 299.2 31.0314)"/>
</mask>
<ellipse cx="17.9575" cy="17.5057" rx="17.9575" ry="17.5057" transform="matrix(0.994223 -0.107338 0.113022 0.993593 299.2 31.0314)" fill="#89B03D"/>
<path d="M317.002 46.7166C316.905 45.869 317.207 45.1284 317.557 44.7026C317.899 44.2865 318.36 44.0613 318.751 44.019L323.271 83.7627C343.633 81.5645 359.166 63.4785 356.771 42.4231L317.002 46.7166ZM318.751 44.019C319.142 43.9768 319.641 44.0984 320.069 44.4315C320.506 44.7723 320.967 45.4305 321.063 46.2781L281.294 50.5717C283.689 71.6271 302.91 85.961 323.271 83.7627L318.751 44.019ZM321.063 46.2781C321.16 47.1257 320.858 47.8663 320.508 48.2921C320.166 48.7083 319.705 48.9335 319.314 48.9757L314.794 9.232C294.432 11.4303 278.899 29.5162 281.294 50.5717L321.063 46.2781ZM319.314 48.9757C318.923 49.0179 318.424 48.8964 317.996 48.5633C317.559 48.2224 317.098 47.5642 317.002 46.7166L356.771 42.4231C354.376 21.3677 335.155 7.03374 314.794 9.232L319.314 48.9757Z" fill="#012758" mask="url(#path-2-inside-1_132_2)"/>
<path d="M291.179 10.6751L172.368 64.7531L210.434 136.103C216.782 134.411 247.822 121.602 321.196 83.8997C363.603 39.0764 321.066 10.1314 291.179 10.6751Z" fill="#8EB540" stroke="#012758" stroke-width="20"/>
<rect x="13.5519" y="4.52973" width="218.971" height="89.5808" rx="44.5" transform="matrix(0.899405 -0.437116 0.455786 0.890089 171.682 167.185)" fill="#86AC3B" stroke="#012758" stroke-width="20"/>
<rect x="-12.3277" y="7.11618" width="214.42" height="189.361" rx="82.2208" transform="matrix(-0.265192 0.964196 -0.967577 -0.252578 256.028 219.914)" fill="#8FB03F" stroke="#012758" stroke-width="20"/>
<rect x="7.02385" y="12.1677" width="219.782" height="89.1956" rx="44.5" transform="matrix(0.967577 0.252578 -0.265192 0.964196 64.35 92.1654)" fill="#86AC3B" stroke="#012758" stroke-width="20"/>
<rect x="-6.5633" y="12.409" width="121.043" height="57.6948" rx="28.8474" transform="matrix(0.301472 0.953475 -0.957802 0.287428 361.273 139.114)" fill="#BE8F65" stroke="#012758" stroke-width="20"/>
<rect x="12.3277" y="-7.11618" width="87.8013" height="39.4446" rx="19.7223" transform="matrix(0.265192 -0.964195 0.967577 0.252578 103.319 343.78)" fill="#BE8F65" stroke="#012758" stroke-width="20"/>
<rect x="12.3277" y="-7.11618" width="42.0769" height="39.4446" rx="19.7223" transform="matrix(0.265192 -0.964195 0.967577 0.252578 115.349 299.693)" fill="#6ED5A6" stroke="#012758" stroke-width="20"/>
<path d="M224.937 94.7842C227.251 115.133 212.172 133.895 190.659 136.218C169.145 138.54 150.215 123.45 147.9 103.101C145.586 82.7518 160.665 63.9902 182.178 61.6676C203.692 59.345 222.622 74.4349 224.937 94.7842Z" fill="#89B03D" stroke="#012758" stroke-width="20"/>
<mask id="path-12-inside-2_132_2" fill="white">
<ellipse cx="17.9575" cy="17.5057" rx="17.9575" ry="17.5057" transform="matrix(0.994223 -0.107338 0.113022 0.993593 170.394 83.7177)"/>
</mask>
<ellipse cx="17.9575" cy="17.5057" rx="17.9575" ry="17.5057" transform="matrix(0.994223 -0.107338 0.113022 0.993593 170.394 83.7177)" fill="#89B03D"/>
<path d="M188.195 99.4029C188.099 98.5553 188.401 97.8147 188.751 97.3889C189.093 96.9728 189.553 96.7475 189.944 96.7053L194.465 136.449C214.826 134.251 230.359 116.165 227.964 95.1094L188.195 99.4029ZM189.944 96.7053C190.335 96.6631 190.835 96.7847 191.262 97.1178C191.699 97.4586 192.16 98.1168 192.257 98.9644L152.488 103.258C154.883 124.313 174.103 138.647 194.465 136.449L189.944 96.7053ZM192.257 98.9644C192.353 99.812 192.051 100.553 191.701 100.978C191.359 101.395 190.899 101.62 190.508 101.662L185.987 61.9183C165.625 64.1165 150.093 82.2025 152.488 103.258L192.257 98.9644ZM190.508 101.662C190.117 101.704 189.617 101.583 189.19 101.25C188.753 100.909 188.292 100.25 188.195 99.4029L227.964 95.1094C225.569 74.0539 206.348 59.72 185.987 61.9183L190.508 101.662Z" fill="#012758" mask="url(#path-12-inside-2_132_2)"/>
<ellipse cx="7.88433" cy="7.68162" rx="7.88433" ry="7.68162" transform="matrix(0.99935 -0.0360485 0.0379789 0.999278 321.34 168.103)" fill="#012758"/>
<ellipse cx="7.88216" cy="7.68383" rx="7.88216" ry="7.68383" transform="matrix(0.994223 -0.107338 0.113022 0.993593 295.674 40.0084)" fill="#4E7411"/>
<ellipse cx="7.88433" cy="7.68162" rx="7.88433" ry="7.68162" transform="matrix(0.99935 -0.0360485 0.0379789 0.999278 359.562 123.316)" fill="#4E7411"/>
<ellipse cx="156.863" cy="181.077" rx="7.8846" ry="7.68134" fill="#4E7411"/>
<ellipse cx="7.88433" cy="7.68162" rx="7.88433" ry="7.68162" transform="matrix(0.99935 -0.0360485 0.0379789 0.999278 332.096 202.118)" fill="#012758"/>
<ellipse cx="7.88433" cy="7.68162" rx="7.88433" ry="7.68162" transform="matrix(0.99935 -0.0360485 0.0379789 0.999278 340.888 229.926)" fill="#012758"/>
<path d="M542.33 496.153C505.092 473.264 490.187 427.093 512.712 392.312C535.237 357.532 584.43 350.76 621.668 373.649C658.906 396.539 673.811 442.71 651.286 477.49C628.761 512.271 579.568 519.042 542.33 496.153Z" fill="#6ED5A6" stroke="#012758" stroke-width="20"/>
<path d="M553.856 384.387C586.869 371.854 625.313 390.894 639.722 426.916" stroke="#FCF6EA" stroke-width="20" stroke-linecap="round"/>
<ellipse cx="11.0277" cy="10.7434" rx="11.0277" ry="10.7434" transform="matrix(-1 0 0 1 542.55 391.908)" fill="#FCF6EA"/>
<path fill-rule="evenodd" clip-rule="evenodd" d="M514.191 411.651C504.942 439.011 517.754 471.588 546.753 489.413C575.242 506.925 610.198 504.568 631.677 485.598C593.909 477.276 545.161 456.298 514.191 411.651Z" fill="#24A98E"/>
<path d="M574.149 353C591.403 399.078 606.435 497.021 528.539 520.177C450.643 543.332 526.489 418.374 574.149 353Z" fill="#6ED5A6" stroke="#012758" stroke-width="20"/>
<path d="M551 169C523.068 169 500 146.846 500 119C500 91.1544 523.068 69 551 69C578.932 69 602 91.1544 602 119C602 146.846 578.932 169 551 169Z" fill="#FDE7D2" stroke="#062855" stroke-width="20"/>
<ellipse cx="26" cy="25.5" rx="26" ry="25.5" transform="matrix(-1 0 0 1 577 93)" fill="#022656"/>
<mask id="path-27-outside-3_132_2" maskUnits="userSpaceOnUse" x="189.287" y="77.6836" width="454" height="466" fill="black">
<rect fill="white" x="189.287" y="77.6836" width="454" height="466"/>
<path fill-rule="evenodd" clip-rule="evenodd" d="M567.452 357.746C601.508 330.935 623.287 289.912 623.287 243.934C623.287 163.162 556.076 97.6836 473.167 97.6836C416.838 97.6836 367.755 127.908 342.073 172.619C305.434 185.689 271.681 210.166 246.857 244.743C186.58 328.702 201.783 440.42 280.815 494.271C359.846 548.122 472.778 523.714 533.055 439.755C551.411 414.187 562.767 386.044 567.452 357.746Z"/>
</mask>
<path fill-rule="evenodd" clip-rule="evenodd" d="M567.452 357.746C601.508 330.935 623.287 289.912 623.287 243.934C623.287 163.162 556.076 97.6836 473.167 97.6836C416.838 97.6836 367.755 127.908 342.073 172.619C305.434 185.689 271.681 210.166 246.857 244.743C186.58 328.702 201.783 440.42 280.815 494.271C359.846 548.122 472.778 523.714 533.055 439.755C551.411 414.187 562.767 386.044 567.452 357.746Z" fill="#6ED5A6"/>
<path d="M567.452 357.746L547.721 354.479L548.988 346.828L555.081 342.031L567.452 357.746ZM342.073 172.619L359.416 182.581L355.741 188.978L348.793 191.456L342.073 172.619ZM246.857 244.743L230.61 233.079V233.079L246.857 244.743ZM280.815 494.271L292.077 477.743L280.815 494.271ZM533.055 439.755L516.808 428.091L533.055 439.755ZM555.081 342.031C584.62 318.777 603.287 283.41 603.287 243.934H643.287C643.287 296.415 618.396 343.094 579.824 373.46L555.081 342.031ZM603.287 243.934C603.287 174.697 545.526 117.684 473.167 117.684V77.6836C566.626 77.6836 643.287 151.627 643.287 243.934H603.287ZM473.167 117.684C424.11 117.684 381.586 143.983 359.416 182.581L324.73 162.658C353.923 111.834 409.566 77.6836 473.167 77.6836V117.684ZM348.793 191.456C315.919 203.184 285.514 225.191 263.104 256.406L230.61 233.079C257.847 195.141 294.95 168.195 335.353 153.782L348.793 191.456ZM263.104 256.406C208.478 332.494 223.562 431.058 292.077 477.743L269.553 510.799C180.005 449.782 164.682 324.911 230.61 233.079L263.104 256.406ZM292.077 477.743C360.995 524.704 462.023 504.4 516.808 428.091L549.301 451.419C483.532 543.028 358.697 571.541 269.553 510.799L292.077 477.743ZM516.808 428.091C533.379 405.01 543.539 379.739 547.721 354.479L587.184 361.013C581.995 392.349 569.443 423.363 549.301 451.419L516.808 428.091Z" fill="#012758" mask="url(#path-27-outside-3_132_2)"/>
<path fill-rule="evenodd" clip-rule="evenodd" d="M623.287 243.934C623.287 289.913 601.508 330.936 567.452 357.746C562.767 386.045 551.411 414.187 533.055 439.755C477.121 517.665 375.847 544.296 298.394 504.7L510.809 222.244L613.139 190.968C619.692 207.391 623.287 225.254 623.287 243.934Z" fill="#FFF3E5"/>
<path d="M408.217 126.744C446.918 91.8221 516.596 99.1454 551.171 135.513" stroke="#FCF6EA" stroke-width="20" stroke-linecap="round"/>
<line x1="10" y1="-10" x2="17.8641" y2="-10" transform="matrix(-0.753036 0.65798 0.677306 0.735702 362.384 238.997)" stroke="#012758" stroke-width="20" stroke-linecap="round"/>
<line x1="10" y1="-10" x2="18.453" y2="-10" transform="matrix(-0.772295 0.635264 0.654935 0.755686 322.312 240.028)" stroke="#012758" stroke-width="20" stroke-linecap="round"/>
<line x1="10" y1="-10" x2="22.9372" y2="-10" transform="matrix(-0.759621 0.650366 0.669819 0.742524 364.686 194.149)" stroke="#012758" stroke-width="20" stroke-linecap="round"/>
<path d="M387.5 169C359.727 169 337 146.731 337 119C337 91.269 359.727 69 387.5 69C415.273 69 438 91.269 438 119C438 146.731 415.273 169 387.5 169Z" fill="#FDE7D2" stroke="#062855" stroke-width="20"/>
<ellipse cx="26" cy="25.5" rx="26" ry="25.5" transform="matrix(-1 0 0 1 414 93)" fill="#022656"/>
<ellipse cx="16.5" cy="16" rx="16.5" ry="16" transform="matrix(-1 0 0 1 554 151)" fill="#022656"/>
<ellipse cx="16.5" cy="16" rx="16.5" ry="16" transform="matrix(-1 0 0 1 487 151)" fill="#022656"/>
<path d="M604 190C574.025 208.402 494.661 236.373 417 201.041" stroke="#012758" stroke-width="20" stroke-linecap="round"/>
<path d="M206.732 496.153C169.494 473.264 154.588 427.093 177.113 392.312C199.638 357.532 248.831 350.76 286.069 373.649C323.307 396.539 338.213 442.71 315.688 477.49C293.163 512.271 243.97 519.042 206.732 496.153Z" fill="#6ED5A6" stroke="#012758" stroke-width="20"/>
<path d="M218.258 384.387C251.271 371.854 289.714 390.894 304.123 426.916" stroke="#FCF6EA" stroke-width="20" stroke-linecap="round"/>
<ellipse cx="11.0277" cy="10.7434" rx="11.0277" ry="10.7434" transform="matrix(-1 0 0 1 206.952 391.908)" fill="#FCF6EA"/>
<path fill-rule="evenodd" clip-rule="evenodd" d="M178.592 411.652C169.344 439.012 182.156 471.588 211.154 489.413C239.644 506.925 274.599 504.568 296.078 485.598C258.311 477.276 209.562 456.298 178.592 411.652Z" fill="#24A98E"/>
<path d="M281 517C281 527.397 289.633 536 300.5 536C311.367 536 320 527.397 320 517C320 506.603 311.367 498 300.5 498C289.633 498 281 506.603 281 517Z" fill="#6ED5A6" stroke="#012758" stroke-width="10"/>
<path d="M246 529C246 539.212 254.888 548 266.5 548C278.112 548 287 539.212 287 529C287 518.788 278.112 510 266.5 510C254.888 510 246 518.788 246 529Z" fill="#6ED5A6" stroke="#012758" stroke-width="10"/>
<path d="M209 527.5C209 537.619 217.407 546 228 546C238.593 546 247 537.619 247 527.5C247 517.381 238.593 509 228 509C217.407 509 209 517.381 209 527.5Z" fill="#6ED5A6" stroke="#012758" stroke-width="10"/>
<path d="M399.887 364.616L401.056 366.357L401.426 368.421C405.362 390.33 411.656 423.532 417.743 451.926C420.791 466.142 423.759 479.024 426.334 488.646C427.627 493.478 428.774 497.31 429.737 500.014C430.17 501.23 430.514 502.072 430.761 502.604C435.341 507.138 437.372 512.339 438.359 514.867C438.392 514.951 438.423 515.032 438.454 515.109H449.234L447.1 526.892C446.67 529.264 445.543 532.728 442.349 535.28C438.95 537.996 435.158 538.155 432.69 537.813C430.371 537.492 428.361 536.64 427.038 536.009C425.622 535.334 424.231 534.533 423.101 533.868C422.745 533.659 422.409 533.461 422.09 533.273C420.415 532.285 419.23 531.586 418.197 531.101L417.606 531.437L414.62 531.243C410.246 530.959 409.598 531.222 409.443 531.285L409.443 531.285L409.44 531.286C409.367 531.315 408.433 531.683 405.571 535.233L403.397 537.928L400.021 538.702C398.502 539.05 397.534 539.296 396.508 539.557C395.564 539.798 394.569 540.05 393.05 540.407C390.927 540.905 387.92 541.564 385.169 541.564C383.838 541.564 381.397 541.435 378.907 540.175C375.803 538.606 373.344 535.616 372.752 531.679C372.278 528.529 373.178 525.857 373.818 524.333C374.532 522.632 375.52 520.988 376.564 519.462C376.949 518.9 377.311 518.374 377.653 517.876C378.933 516.016 379.933 514.562 380.783 513.174C381.84 511.449 382.215 510.521 382.343 510.04C382.358 509.982 382.368 509.938 382.374 509.906C382.303 509.712 381.977 508.974 380.761 507.62C376.18 502.52 362.401 483.617 349.843 462.347C343.51 451.62 337.313 440.001 332.67 428.946C328.133 418.143 324.63 406.851 324.63 397.108V396.658L324.67 396.211C326.546 375.375 342.252 362.555 357.16 357.148C364.714 354.409 372.8 353.246 380.095 354.022C387.123 354.769 395.16 357.572 399.887 364.616ZM431.031 503.13C431.031 503.127 431.008 503.084 430.96 503.008C431.006 503.095 431.031 503.133 431.031 503.13ZM416.915 530.608C416.918 530.613 416.98 530.632 417.093 530.651C416.969 530.612 416.912 530.603 416.915 530.608Z" fill="#6DD4A6" stroke="#012758" stroke-width="20" stroke-linecap="round"/>
<path d="M423.539 525.301C422.034 535.478 429.287 545.132 440.04 546.641C450.793 548.15 460.548 540.883 462.053 530.705C463.558 520.528 456.304 510.874 445.551 509.365C434.798 507.856 425.043 515.123 423.539 525.301Z" fill="#6ED5A6" stroke="#012758" stroke-width="10"/>
<path d="M542.845 517.84C541.341 528.018 548.594 537.672 559.347 539.181C570.1 540.69 579.855 533.422 581.36 523.245C582.864 513.067 575.611 503.413 564.858 501.904C554.105 500.395 544.35 507.663 542.845 517.84Z" fill="#6ED5A6" stroke="#012758" stroke-width="10"/>
<path d="M386.034 536.761C384.529 546.938 391.782 556.592 402.535 558.101C413.288 559.61 423.043 552.343 424.548 542.165C426.053 531.988 418.8 522.334 408.046 520.825C397.293 519.316 387.539 526.583 386.034 536.761Z" fill="#6ED5A6" stroke="#012758" stroke-width="10"/>
<path d="M505.339 529.3C503.835 539.478 511.088 549.132 521.841 550.641C532.594 552.15 542.349 544.882 543.854 534.705C545.358 524.527 538.105 514.873 527.352 513.364C516.599 511.855 506.844 519.123 505.339 529.3Z" fill="#6ED5A6" stroke="#012758" stroke-width="10"/>
<path d="M349.971 525.171C348.467 535.348 355.72 545.002 366.473 546.511C377.226 548.02 386.981 540.753 388.485 530.575C389.99 520.397 382.737 510.743 371.984 509.235C361.231 507.726 351.476 514.993 349.971 525.171Z" fill="#6ED5A6" stroke="#012758" stroke-width="10"/>
<path d="M469.278 517.71C467.773 527.888 475.026 537.542 485.779 539.051C496.533 540.56 506.287 533.292 507.792 523.115C509.297 512.937 502.044 503.283 491.291 501.774C480.538 500.265 470.783 507.533 469.278 517.71Z" fill="#6ED5A6" stroke="#012758" stroke-width="10"/>
<rect x="-6.5633" y="12.409" width="121.043" height="57.6948" rx="28.8474" transform="matrix(0.301472 0.953475 -0.957802 0.287428 263.175 210.836)" fill="#BE8F65" stroke="#012758" stroke-width="20"/>
<ellipse cx="7.88433" cy="7.68162" rx="7.88433" ry="7.68162" transform="matrix(0.99935 -0.0360485 0.0379789 0.999278 223.241 239.824)" fill="#012758"/>
<ellipse cx="7.88433" cy="7.68162" rx="7.88433" ry="7.68162" transform="matrix(0.99935 -0.0360485 0.0379789 0.999278 233.997 273.84)" fill="#012758"/>
<ellipse cx="7.88433" cy="7.68162" rx="7.88433" ry="7.68162" transform="matrix(0.99935 -0.0360485 0.0379789 0.999278 242.789 301.648)" fill="#012758"/>
<path d="M513.743 242.812C544.65 242.812 571.852 231.985 591.27 220.29C600.989 214.436 608.862 208.303 614.368 203.07C617.111 200.462 619.348 198 620.942 195.839C621.737 194.762 622.439 193.669 622.963 192.598C623.438 191.627 624 190.213 624 188.622C624 185.245 623.143 181.209 619.43 179.052C616.173 177.16 612.361 177.8 609.585 178.571C606.527 179.421 602.995 180.952 599.238 182.742C596.566 184.015 593.608 185.504 590.463 187.087C589.157 187.744 587.819 188.418 586.456 189.099C567.611 198.513 542.223 210.211 513.743 210.211C485.47 210.211 461.639 202.28 444.189 196.472C443.834 196.354 443.481 196.237 443.131 196.12C438.778 194.673 434.747 193.345 431.199 192.365C427.699 191.397 424.337 190.67 421.376 190.575C418.459 190.481 415.048 190.975 412.424 193.436C409.769 195.927 409 199.409 409 202.769C409 204.305 409.499 205.646 410.005 206.646C410.532 207.688 411.231 208.68 411.996 209.602C413.525 211.446 415.632 213.386 418.158 215.338C423.234 219.263 430.481 223.602 439.511 227.644C457.594 235.737 483.223 242.812 513.743 242.812Z" fill="#1E1E1E" stroke="#012758" stroke-width="10"/>
<path d="M296.589 135.305C296.264 133.115 297.783 131.131 299.982 130.873L332.984 127.001L334.163 134.932L301.16 138.804C298.961 139.062 296.915 137.496 296.589 135.305Z" fill="#F7CE45"/>
<path d="M333.139 108C333.139 96.9543 342.093 88 353.139 88H459.441C470.487 88 479.441 96.9543 479.441 108V128C479.441 150.091 461.532 168 439.441 168H353.139C342.093 168 333.139 159.046 333.139 148V108Z" fill="#FAAFAF" fill-opacity="0.5"/>
<path d="M335.639 108C335.639 98.335 343.474 90.5 353.139 90.5H459.441C469.106 90.5 476.941 98.335 476.941 108V128C476.941 148.711 460.152 165.5 439.441 165.5H353.139C343.474 165.5 335.639 157.665 335.639 148V108Z" stroke="black" stroke-opacity="0.5" stroke-width="5"/>
<path d="M646 107C646 95.9543 637.046 87 626 87H542.206C531.16 87 522.206 95.9543 522.206 107V127C522.206 149.091 540.114 167 562.206 167H626C637.046 167 646 158.046 646 147V107Z" fill="#FAAFAF" fill-opacity="0.5"/>
<path d="M643.5 107C643.5 97.335 635.665 89.5 626 89.5H542.206C532.541 89.5 524.706 97.335 524.706 107V127C524.706 147.711 541.495 164.5 562.206 164.5H626C635.665 164.5 643.5 156.665 643.5 147V107Z" stroke="black" stroke-opacity="0.5" stroke-width="5"/>
<path d="M530.084 121.424C530.084 117.876 517.487 115 501.949 115C486.41 115 473.813 117.876 473.813 121.424C473.813 124.972 486.41 121.419 501.949 121.419C517.487 121.419 530.084 124.972 530.084 121.424Z" fill="#F7CE45"/>
</g>
<defs>
<clipPath id="clip0_132_2">
<rect width="677" height="566.444" fill="white"/>
</clipPath>
</defs>
</svg>
