<svg width="106" height="103" viewBox="0 0 106 103" fill="none" xmlns="http://www.w3.org/2000/svg">
<path d="M58.4485 0.0234375C64.4107 0.0387831 67.4368 0.0694743 70.0496 0.141087L71.0777 0.176893C72.2649 0.217815 73.4361 0.268967 74.8511 0.330349C80.49 0.586109 84.3376 1.44546 87.7136 2.70892C91.2114 4.00818 94.158 5.7678 97.1047 8.60674C99.7996 11.1638 101.885 14.2569 103.215 17.6709C104.524 20.9292 105.415 24.6429 105.68 30.0906C105.743 31.4512 105.796 32.5817 105.839 33.7326L105.87 34.7249C105.95 37.2416 105.982 40.1624 105.992 45.917L105.998 49.7329V56.4338C106.011 60.1649 105.97 63.8959 105.876 67.6259L105.844 68.6182C105.802 69.7691 105.749 70.8996 105.685 72.2603C105.42 77.7079 104.519 81.4165 103.215 84.6799C101.889 88.0958 99.8029 91.1896 97.1047 93.7441C94.4546 96.3442 91.2501 98.3567 87.7136 99.6419C84.3376 100.905 80.49 101.765 74.8511 102.02C73.5936 102.078 72.3358 102.129 71.0777 102.174L70.0496 102.205C67.4368 102.276 64.4107 102.312 58.4485 102.322L54.4949 102.327H47.5575C43.6901 102.34 39.8227 102.301 35.9564 102.21L34.9283 102.179C33.6702 102.133 32.4123 102.08 31.1549 102.02C25.5159 101.765 21.6683 100.905 18.2871 99.6419C14.7504 98.3599 11.547 96.3469 8.9013 93.7441C6.20398 91.1879 4.11684 88.0947 2.78542 84.6799C1.47638 81.4216 0.586028 77.7079 0.321041 72.2603C0.261996 71.0465 0.208998 69.8325 0.16205 68.6182L0.135552 67.6259C0.0378885 63.896 -0.00628062 60.1649 0.00305795 56.4338V45.917C-0.0117334 42.186 0.0271354 38.4549 0.119652 34.7249L0.15675 33.7326C0.199148 32.5817 0.252145 31.4512 0.315742 30.0906C0.580728 24.6429 1.47108 20.9344 2.78012 17.6709C4.11095 14.2534 6.20226 11.1593 8.9066 8.60674C11.5517 6.00553 14.753 3.99276 18.2871 2.70892C21.6683 1.44546 25.5106 0.586109 31.1549 0.330349C32.5646 0.268967 33.7411 0.217815 34.9283 0.176893L35.9564 0.146202C39.8209 0.055319 43.6866 0.0160987 47.5522 0.0285523L58.4485 0.0234375ZM53.0003 25.5994C45.9725 25.5994 39.2324 28.294 34.263 33.0905C29.2935 37.8869 26.5017 44.3922 26.5017 51.1754C26.5017 57.9586 29.2935 64.4639 34.263 69.2604C39.2324 74.0568 45.9725 76.7514 53.0003 76.7514C60.0282 76.7514 66.7682 74.0568 71.7377 69.2604C76.7072 64.4639 79.499 57.9586 79.499 51.1754C79.499 44.3922 76.7072 37.8869 71.7377 33.0905C66.7682 28.294 60.0282 25.5994 53.0003 25.5994ZM53.0003 35.8298C55.0883 35.8295 57.1558 36.2261 59.0849 36.997C61.014 37.7678 62.7669 38.8979 64.2435 40.3226C65.7202 41.7474 66.8916 43.4389 67.6909 45.3005C68.4902 47.1622 68.9018 49.1576 68.9022 51.1729C68.9025 53.1881 68.4916 55.1836 67.6929 57.0456C66.8942 58.9075 65.7234 60.5994 64.2473 62.0246C62.7712 63.4498 61.0186 64.5804 59.0898 65.3519C57.1609 66.1234 55.0936 66.5207 53.0056 66.521C48.7889 66.521 44.7449 64.9042 41.7632 62.0264C38.7815 59.1485 37.1065 55.2453 37.1065 51.1754C37.1065 47.1055 38.7815 43.2023 41.7632 40.3244C44.7449 37.4466 48.7889 35.8298 53.0056 35.8298M80.8292 17.9266C79.0722 17.9266 77.3872 18.6003 76.1449 19.7994C74.9025 20.9985 74.2046 22.6248 74.2046 24.3206C74.2046 26.0164 74.9025 27.6428 76.1449 28.8419C77.3872 30.041 79.0722 30.7146 80.8292 30.7146C82.5862 30.7146 84.2712 30.041 85.5136 28.8419C86.7559 27.6428 87.4539 26.0164 87.4539 24.3206C87.4539 22.6248 86.7559 20.9985 85.5136 19.7994C84.2712 18.6003 82.5862 17.9266 80.8292 17.9266Z" fill="#FFF3E5"/>
</svg>
