<svg width="1160" height="584" viewBox="0 0 1160 584" fill="none" xmlns="http://www.w3.org/2000/svg">
<g clip-path="url(#clip0_158_174)">
<path d="M809.841 496.022L811.45 496.821L813.243 496.921C839.306 498.368 878.853 500.936 912.785 503.933C929.768 505.433 945.232 507.031 956.863 508.637C962.698 509.443 967.412 510.23 970.813 510.976C972.523 511.351 973.737 511.681 974.522 511.945C974.632 511.982 974.726 512.015 974.804 512.044C980.249 516.412 986.086 517.895 989.311 518.714C989.842 518.848 990.301 518.965 990.677 519.074C991.073 519.188 991.368 519.285 991.583 519.362C991.6 519.463 991.617 519.579 991.633 519.714L992.877 530.032L1002.82 527.035C1005.13 526.34 1008.22 524.91 1010.24 521.751C1012.4 518.35 1012.17 514.809 1011.54 512.444C1010.94 510.227 1009.84 508.324 1008.98 506.993C1008.07 505.584 1007.01 504.194 1006.08 503.008C1005.8 502.642 1005.52 502.292 1005.26 501.956C1003.61 499.846 1002.4 498.294 1001.57 496.829C1001.49 496.691 1001.43 496.567 1001.37 496.457L1001.87 495.295L1001.38 492.671C1000.46 487.785 1000.54 486.485 1000.77 485.671C1000.98 484.93 1001.67 483.42 1005.54 479.549L1007.7 477.394L1008.04 474.361C1008.18 473.064 1008.36 471.733 1008.54 470.351L1008.59 469.95C1008.76 468.718 1008.93 467.433 1009.07 466.205C1009.36 463.711 1009.68 460.478 1009.34 457.679C1009.18 456.313 1008.75 454.024 1007.28 451.866C1005.47 449.207 1002.5 447.41 998.961 447.312C996.095 447.232 993.721 448.301 992.234 449.127C990.605 450.03 989.002 451.234 987.447 452.562C986.866 453.058 986.316 453.53 985.791 453.981C983.788 455.7 982.155 457.101 980.586 458.31C978.636 459.813 977.331 460.577 976.37 460.951C975.581 461.259 975.076 461.288 974.521 461.193C973.829 461.073 972.516 460.649 970.363 459.175C964.029 454.838 940.344 441.9 913.952 430.622C900.67 424.945 886.437 419.572 873.117 415.879C860.019 412.248 846.897 409.974 836.212 411.239L835.833 411.284L835.459 411.362C813.096 416.021 800.878 434.352 796.752 451.477C794.674 460.103 794.451 469.049 796.254 476.799C798.011 484.349 802.086 492.171 809.841 496.022ZM975.132 512.177C975.131 512.177 975.117 512.171 975.091 512.158C975.119 512.17 975.132 512.177 975.132 512.177ZM991.461 518.846C991.461 518.845 991.463 518.851 991.468 518.864C991.463 518.852 991.461 518.846 991.461 518.846ZM1001.07 495.754C1001.07 495.755 1001.09 495.791 1001.1 495.858C1001.07 495.786 1001.07 495.753 1001.07 495.754ZM1000.8 464.331C1000.8 464.333 1000.78 464.347 1000.73 464.37C1000.78 464.341 1000.81 464.33 1000.8 464.331ZM992.024 459.729C992.025 459.738 992.026 459.748 992.027 459.757C992.012 459.672 992.015 459.656 992.024 459.729Z" fill="#6ED5A6" stroke="#012758" stroke-width="17.4372" stroke-linecap="round"/>
<path fill-rule="evenodd" clip-rule="evenodd" d="M813.438 490.178C865.677 493.078 972.033 500.473 979.547 506.851C983.489 510.196 987.497 511.249 990.918 512.147C995.65 513.39 999.26 514.337 1000.02 520.649C1005.71 518.936 1002.16 514.425 998.176 509.343C995.374 505.772 992.35 501.92 992.149 498.559L803.654 463.579C802.658 475.657 806.087 486.527 813.438 490.178Z" fill="#24A98E"/>
<path d="M979.336 510.388C987.7 513.957 991.593 523.619 988.05 531.961C984.507 540.303 974.86 544.188 966.495 540.619C958.131 537.051 954.238 527.389 957.782 519.047C961.325 510.704 970.972 506.82 979.336 510.388Z" fill="#6ED5A6" stroke="#012758" stroke-width="8.71858"/>
<path d="M999.917 487.835C1008.28 491.404 1012.17 501.065 1008.63 509.408C1005.09 517.75 995.441 521.635 987.077 518.066C978.712 514.497 974.819 504.836 978.363 496.493C981.906 488.151 991.553 484.266 999.917 487.835Z" fill="#6ED5A6" stroke="#012758" stroke-width="8.71858"/>
<path d="M1011.63 456.888C1020 460.457 1023.89 470.119 1020.35 478.461C1016.8 486.804 1007.16 490.688 998.793 487.12C990.429 483.551 986.536 473.889 990.079 465.547C993.623 457.204 1003.27 453.32 1011.63 456.888Z" fill="#6ED5A6" stroke="#012758" stroke-width="8.71858"/>
<path d="M798.437 376.127C819.641 388.515 833.327 404.76 837.991 421.266C842.656 437.778 838.327 454.982 822.497 468.277C806.667 481.573 783.285 487.645 759.259 487.394C735.243 487.143 709.973 480.628 688.768 468.239C667.564 455.851 653.878 439.606 649.215 423.101C644.549 406.588 648.879 389.385 664.708 376.089C680.538 362.793 703.921 356.722 727.946 356.972C751.962 357.223 777.233 363.738 798.437 376.127Z" fill="#6ED5A6" stroke="#012758" stroke-width="17.4372"/>
<path d="M699.893 378.058C738.168 365.294 781.785 377.96 804.236 401.775" stroke="#FCF6EA" stroke-width="17.4372" stroke-linecap="round"/>
<ellipse cx="13.7861" cy="9.36673" rx="13.7861" ry="9.36673" transform="matrix(-0.998014 0.0629964 0.0629964 0.998014 826.484 415.649)" fill="#FCF6EA"/>
<path fill-rule="evenodd" clip-rule="evenodd" d="M659.923 397.868C649.714 426.094 668.323 457.759 706.901 473.293C744.802 488.554 789.792 483.339 816.327 462.54C767.028 457.262 702.746 440.173 659.923 397.868Z" fill="#24A98E"/>
<path d="M746.473 244.888C784.202 265.186 867.041 290.115 896.565 227.441C926.088 164.767 808.805 212.958 746.473 244.888Z" fill="#6ED5A6" stroke="#012758" stroke-width="17.4372"/>
<circle cx="900.735" cy="243.197" r="16.4152" transform="rotate(-104.948 900.735 243.197)" fill="#6ED5A6" stroke="#012758" stroke-width="8.71858"/>
<circle cx="911.235" cy="211.532" r="16.4152" transform="rotate(-104.948 911.235 211.532)" fill="#6ED5A6" stroke="#012758" stroke-width="8.71858"/>
<circle cx="890.72" cy="185.568" r="16.4152" transform="rotate(-104.948 890.72 185.568)" fill="#6ED5A6" stroke="#012758" stroke-width="8.71858"/>
<rect x="279.578" y="183.803" width="186.578" height="77.5954" rx="38.7977" transform="rotate(-44.2158 279.578 183.803)" fill="#86AC3B" stroke="#012758" stroke-width="17.4372"/>
<circle cx="469.049" cy="46.6251" r="8.71858" transform="rotate(-24.0263 469.049 46.6251)" fill="#89B03D" stroke="#012758" stroke-width="13.0779"/>
<path d="M437.014 24.0658L355.213 99.6678L404.93 149.097C409.619 146.053 431.339 127.397 480.715 77.1314C503.147 28.9494 461.054 15.8948 437.014 24.0658Z" fill="#8EB540" stroke="#012758" stroke-width="17.4372"/>
<rect x="393.007" y="179.576" width="186.578" height="77.5954" rx="38.7977" transform="rotate(-44.2158 393.007 179.576)" fill="#86AC3B" stroke="#012758" stroke-width="17.4372"/>
<rect x="457.279" y="196.527" width="186.578" height="160.695" rx="71.6849" transform="rotate(87.2973 457.279 196.527)" fill="#8FB03F" stroke="#012758" stroke-width="17.4372"/>
<rect x="281.757" y="160.636" width="186.578" height="77.5954" rx="38.7977" transform="rotate(-2.70271 281.757 160.636)" fill="#86AC3B" stroke="#012758" stroke-width="17.4372"/>
<rect x="515.693" y="114.12" width="105.247" height="48.7014" rx="24.3507" transform="rotate(55.1768 515.693 114.12)" fill="#BE8F65" stroke="#012758" stroke-width="17.4372"/>
<rect x="366.971" y="338.797" width="76.3819" height="33.1402" rx="16.5701" transform="rotate(-92.7027 366.971 338.797)" fill="#BE8F65" stroke="#012758" stroke-width="17.4372"/>
<rect x="365.017" y="299.072" width="36.5881" height="33.1402" rx="16.5701" transform="rotate(-92.7027 365.017 299.072)" fill="#6ED5A6" stroke="#012758" stroke-width="17.4372"/>
<circle cx="375.646" cy="124.436" r="32.6947" transform="rotate(-24.0263 375.646 124.436)" fill="#89B03D" stroke="#012758" stroke-width="17.4372"/>
<circle cx="378.791" cy="123.652" r="8.71858" transform="rotate(-24.0263 378.791 123.652)" fill="#89B03D" stroke="#012758" stroke-width="13.0779"/>
<circle cx="511.726" cy="151.06" r="6.69703" transform="rotate(-19.8232 511.726 151.06)" fill="#012758"/>
<circle cx="457.271" cy="50.6584" r="6.69703" transform="rotate(-24.0263 457.271 50.6584)" fill="#4E7411"/>
<circle cx="530.781" cy="103.99" r="6.69703" transform="rotate(-19.8232 530.781 103.99)" fill="#4E7411"/>
<circle cx="373.506" cy="200.289" r="6.69703" transform="rotate(-17.7027 373.506 200.289)" fill="#4E7411"/>
<circle cx="529.447" cy="176.534" r="6.69703" transform="rotate(-19.8232 529.447 176.534)" fill="#012758"/>
<circle cx="543.934" cy="197.36" r="6.69703" transform="rotate(-19.8232 543.934 197.36)" fill="#012758"/>
<circle cx="34.8743" cy="34.8743" r="43.5929" transform="matrix(-0.997046 0.0768012 0.0768012 0.997046 768.396 55.1476)" fill="#FDE7D2" stroke="#062855" stroke-width="17.4372"/>
<circle cx="22.2324" cy="22.2324" r="22.2324" transform="matrix(-0.997046 0.0768012 0.0768012 0.997046 756.763 68.7229)" fill="#022656"/>
<mask id="path-33-outside-1_158_174" maskUnits="userSpaceOnUse" x="426.982" y="50.2328" width="417.115" height="435.52" fill="black">
<rect fill="white" x="426.982" y="50.2328" width="417.115" height="435.52"/>
<path fill-rule="evenodd" clip-rule="evenodd" d="M766.404 299.272C793.449 273.744 809.146 236.663 806.067 196.695C800.659 126.481 739.355 73.9464 669.142 79.3549C621.438 83.0295 581.894 112.506 563.139 153.048C532.986 166.799 506.04 190.278 487.333 221.954C441.908 298.871 462.264 394.994 532.8 436.65C603.335 478.306 697.339 449.722 742.764 372.805C756.598 349.382 764.331 324.177 766.404 299.272Z"/>
</mask>
<path fill-rule="evenodd" clip-rule="evenodd" d="M766.404 299.272C793.449 273.744 809.146 236.663 806.067 196.695C800.659 126.481 739.355 73.9464 669.142 79.3549C621.438 83.0295 581.894 112.506 563.139 153.048C532.986 166.799 506.04 190.278 487.333 221.954C441.908 298.871 462.264 394.994 532.8 436.65C603.335 478.306 697.339 449.722 742.764 372.805C756.598 349.382 764.331 324.177 766.404 299.272Z" fill="#6ED5A6"/>
<path d="M766.404 299.272L749.027 297.825L749.58 291.173L754.435 286.591L766.404 299.272ZM563.139 153.048L578.965 160.369L576.252 166.232L570.375 168.913L563.139 153.048ZM487.333 221.954L502.348 230.821L502.348 230.821L487.333 221.954ZM532.8 436.65L541.667 421.636L532.8 436.65ZM742.764 372.805L757.779 381.672L757.779 381.672L742.764 372.805ZM754.435 286.591C777.814 264.523 791.339 232.529 788.682 198.034L823.453 195.355C826.953 240.797 809.084 282.965 778.373 311.952L754.435 286.591ZM788.682 198.034C784.013 137.422 731.093 92.0717 670.481 96.7405L667.803 61.9692C747.618 55.8212 817.305 115.54 823.453 195.355L788.682 198.034ZM670.481 96.7405C629.323 99.9109 595.177 125.324 578.965 160.369L547.313 145.726C568.611 99.6872 613.552 66.1481 667.803 61.9692L670.481 96.7405ZM570.375 168.913C543.464 181.186 519.236 202.225 502.348 230.821L472.319 213.087C492.845 178.331 522.509 152.413 555.903 137.182L570.375 168.913ZM502.348 230.821C461.081 300.696 480.621 385.584 541.667 421.636L523.932 451.664C443.907 404.403 422.735 297.046 472.319 213.087L502.348 230.821ZM541.667 421.636C602.712 457.687 686.484 433.813 727.75 363.938L757.779 381.672C708.195 465.631 603.958 498.925 523.932 451.664L541.667 421.636ZM727.75 363.938C740.239 342.791 747.17 320.125 749.027 297.825L783.781 300.718C781.491 328.229 772.956 355.972 757.779 381.672L727.75 363.938Z" fill="#012758" mask="url(#path-33-outside-1_158_174)"/>
<path fill-rule="evenodd" clip-rule="evenodd" d="M806.068 196.694C809.147 236.662 793.45 273.743 766.404 299.271C764.331 324.176 756.599 349.381 742.765 372.804C700.613 444.179 616.631 473.935 548.386 444.568L709.362 185.176L793.928 151.313C800.577 165.163 804.817 180.455 806.068 196.694Z" fill="#FFF3E5"/>
<path d="M631 103C664.899 72.6448 726.331 81.7506 757 116" stroke="#FCF6EA" stroke-width="17.4372" stroke-linecap="round"/>
<line x1="8.71858" y1="-8.71858" x2="15.2218" y2="-8.71858" transform="matrix(-0.690966 0.722887 0.722887 0.690966 584.783 209.422)" stroke="#012758" stroke-width="17.4372" stroke-linecap="round"/>
<line x1="8.71858" y1="-8.71858" x2="15.709" y2="-8.71858" transform="matrix(-0.712268 0.701908 0.701908 0.712268 550.918 212.933)" stroke="#012758" stroke-width="17.4372" stroke-linecap="round"/>
<line x1="8.71858" y1="-8.71858" x2="19.5732" y2="-8.71858" transform="matrix(-0.698232 0.715871 0.715871 0.698232 583.73 170.287)" stroke="#012758" stroke-width="17.4372" stroke-linecap="round"/>
<circle cx="34.8743" cy="34.8743" r="43.5929" transform="matrix(-0.997046 0.0768012 0.0768012 0.997046 630.201 65.793)" fill="#FDE7D2" stroke="#062855" stroke-width="17.4372"/>
<circle cx="22.2324" cy="22.2324" r="22.2324" transform="matrix(-0.997046 0.0768012 0.0768012 0.997046 618.568 79.3684)" fill="#022656"/>
<circle cx="14.0198" cy="14.0198" r="14.0198" transform="matrix(-0.997046 0.0768012 0.0768012 0.997046 740.696 120.654)" fill="#022656"/>
<circle cx="14.0198" cy="14.0198" r="14.0198" transform="matrix(-0.997046 0.0768012 0.0768012 0.997046 684.438 124.987)" fill="#022656"/>
<path d="M363.505 474.771L361.972 475.703L360.196 475.955C334.382 479.612 295.244 485.532 261.732 491.402C244.96 494.34 229.708 497.246 218.271 499.834C212.534 501.132 207.911 502.316 204.591 503.348C202.922 503.867 201.743 504.298 200.985 504.628C200.879 504.674 200.789 504.715 200.714 504.75C195.674 509.56 189.993 511.532 186.855 512.621C186.339 512.8 185.892 512.956 185.527 513.096C185.147 513.242 184.863 513.363 184.656 513.457C184.649 513.556 184.642 513.671 184.638 513.802L184.301 524.189L174.131 522.051C171.776 521.556 168.571 520.396 166.289 517.421C163.831 514.218 163.757 510.669 164.179 508.259C164.576 506 165.507 504.011 166.248 502.613C167.034 501.132 167.969 499.659 168.785 498.4C169.037 498.012 169.279 497.64 169.511 497.284C170.971 495.043 172.044 493.397 172.737 491.87C172.801 491.729 172.856 491.603 172.902 491.491L172.301 490.38L172.565 487.722C173.056 482.781 172.858 481.499 172.56 480.713C172.288 479.996 171.474 478.554 167.279 475.032L164.941 473.069L164.338 470.075C164.081 468.796 163.792 467.488 163.489 466.127L163.401 465.732C163.131 464.521 162.849 463.257 162.598 462.047C162.09 459.591 161.493 456.399 161.585 453.583C161.629 452.208 161.85 449.891 163.127 447.616C164.7 444.812 167.506 442.77 171.017 442.372C173.864 442.049 176.319 442.911 177.872 443.605C179.573 444.366 181.274 445.428 182.938 446.617C183.56 447.061 184.149 447.484 184.71 447.888C186.854 449.428 188.601 450.683 190.268 451.752C192.34 453.082 193.705 453.73 194.693 454.021C195.506 454.26 196.011 454.246 196.554 454.104C197.232 453.926 198.502 453.393 200.514 451.744C206.441 446.889 228.887 432 254.17 418.532C266.895 411.753 280.592 405.196 293.527 400.388C306.247 395.66 319.109 392.281 329.856 392.63L330.237 392.643L330.616 392.688C353.282 395.421 367.046 412.622 372.649 429.316C375.471 437.724 376.474 446.609 375.355 454.477C374.265 462.143 370.891 470.277 363.505 474.771ZM200.398 504.91C200.399 504.91 200.412 504.903 200.437 504.887C200.41 504.902 200.397 504.91 200.398 504.91ZM184.733 512.928C184.733 512.928 184.731 512.934 184.727 512.946C184.731 512.935 184.733 512.929 184.733 512.928ZM173.141 490.761C173.138 490.763 173.128 490.8 173.12 490.868C173.14 490.794 173.144 490.76 173.141 490.761ZM170.667 459.488C170.667 459.49 170.694 459.502 170.747 459.52C170.692 459.496 170.666 459.487 170.667 459.488ZM179.013 454.15C179.012 454.159 179.012 454.169 179.012 454.178C179.02 454.092 179.015 454.077 179.013 454.15Z" fill="#6ED5A6" stroke="#012758" stroke-width="17.4372" stroke-linecap="round"/>
<path fill-rule="evenodd" clip-rule="evenodd" d="M360 467.139C308.304 474.786 203.194 491.837 196.314 498.864C192.705 502.55 188.817 503.962 185.497 505.168C180.906 506.834 177.404 508.106 177.236 514.452C171.42 513.267 174.522 508.458 178.015 503.04C180.469 499.235 183.116 495.13 183.004 491.769L367.249 439.798C369.367 451.717 366.971 462.839 360 467.139Z" fill="#24A98E"/>
<circle cx="20.7745" cy="20.7745" r="16.4152" transform="matrix(-0.349881 -0.936794 -0.936794 0.349881 215.241 522.999)" fill="#6ED5A6" stroke="#012758" stroke-width="8.71858"/>
<circle cx="20.7745" cy="20.7745" r="16.4152" transform="matrix(-0.349881 -0.936794 -0.936794 0.349881 194.734 499.265)" fill="#6ED5A6" stroke="#012758" stroke-width="8.71858"/>
<circle cx="20.7745" cy="20.7745" r="16.4152" transform="matrix(-0.349881 -0.936794 -0.936794 0.349881 184.395 467.842)" fill="#6ED5A6" stroke="#012758" stroke-width="8.71858"/>
<path d="M697.781 313.784L697.367 315.53L696.296 316.969C684.728 332.535 667.39 356.326 652.974 377.108C645.756 387.513 639.335 397.071 634.747 404.432C632.443 408.129 630.685 411.138 629.533 413.358C629.012 414.362 628.678 415.085 628.484 415.561C628.288 421.11 626.186 425.473 625.165 427.591C625.143 427.635 625.123 427.678 625.102 427.72L631.408 434.376L622.737 440.103C621.025 441.234 618.191 442.625 614.674 442.181C610.873 441.702 608.462 439.383 607.182 437.581C605.992 435.904 605.344 434.108 604.968 432.906C604.564 431.614 604.256 430.265 604.016 429.17C603.94 428.824 603.869 428.498 603.802 428.19C603.474 426.676 603.238 425.591 602.974 424.717L602.508 424.581L600.804 422.524C598.475 419.713 597.96 419.497 597.907 419.475L597.904 419.474C597.902 419.473 597.9 419.472 597.896 419.47C597.891 419.468 597.884 419.466 597.874 419.462C597.856 419.456 597.821 419.446 597.765 419.433C597.653 419.407 597.441 419.368 597.084 419.342C596.324 419.285 595.151 419.3 593.243 419.477L590.203 419.759L587.651 418.082C586.861 417.563 586.034 417.042 585.155 416.49L584.9 416.329C584.119 415.84 583.288 415.318 582.501 414.807C580.95 413.799 578.735 412.316 577.087 410.577C576.286 409.731 574.893 408.09 574.212 405.72C573.364 402.765 573.865 399.463 575.957 396.805C577.636 394.672 579.81 393.641 581.144 393.123C582.628 392.547 584.24 392.171 585.817 391.9C586.397 391.8 586.941 391.708 587.456 391.621C589.382 391.294 590.886 391.039 592.262 390.73C593.97 390.348 594.79 390.021 595.19 389.8C595.276 389.752 595.327 389.717 595.353 389.699C595.353 389.698 595.354 389.696 595.355 389.695C595.408 389.603 595.729 388.99 595.89 387.27C596.443 381.383 600.357 361.551 606.482 341.058C609.572 330.721 613.304 319.937 617.585 310.452C621.772 301.176 626.861 292.275 632.994 286.464L633.271 286.201L633.57 285.964C647.766 274.696 665.06 276.62 677.324 282.636C683.514 285.672 689.032 290 692.851 295.027C696.546 299.891 699.485 306.616 697.781 313.784ZM628.309 416.044C628.311 416.043 628.325 416.002 628.344 415.926C628.316 416.008 628.307 416.046 628.309 416.044ZM602.5 423.485C602.499 423.49 602.523 423.544 602.579 423.63C602.529 423.524 602.502 423.48 602.5 423.485ZM595.373 389.683C595.372 389.683 595.372 389.684 595.371 389.685L595.373 389.683ZM621.729 428.039C621.729 428.039 621.726 428.033 621.721 428.022C621.726 428.034 621.729 428.039 621.729 428.039Z" fill="#6DD4A6" stroke="#012758" stroke-width="17.4372" stroke-linecap="round"/>
<circle cx="20.7745" cy="20.7745" r="16.4152" transform="matrix(-0.577253 -0.816565 -0.816565 0.577253 648.29 442.949)" fill="#6ED5A6" stroke="#012758" stroke-width="8.71858"/>
<circle cx="20.7745" cy="20.7745" r="16.4152" transform="matrix(-0.577253 -0.816565 -0.816565 0.577253 619.127 426.695)" fill="#6ED5A6" stroke="#012758" stroke-width="8.71858"/>
<circle cx="20.7745" cy="20.7745" r="16.4152" transform="matrix(-0.577253 -0.816565 -0.816565 0.577253 605.396 397.509)" fill="#6ED5A6" stroke="#012758" stroke-width="8.71858"/>
<rect x="437.843" y="199.435" width="105.247" height="48.7014" rx="24.3507" transform="rotate(32.7415 437.843 199.435)" fill="#BE8F65" stroke="#012758" stroke-width="17.4372"/>
<circle cx="448.274" cy="235.093" r="6.69703" transform="rotate(-42.2585 448.274 235.093)" fill="#012758"/>
<circle cx="474.375" cy="251.877" r="6.69703" transform="rotate(-42.2585 474.375 251.877)" fill="#012758"/>
<circle cx="495.713" cy="265.597" r="6.69703" transform="rotate(-42.2585 495.713 265.597)" fill="#012758"/>
<path d="M424.714 491.889C400.228 490.009 380.82 481.375 369.415 468.566C358.005 455.751 354.383 438.384 362.814 419.509C371.245 400.634 389.625 384.957 411.347 374.686C433.059 364.42 458.637 359.241 483.123 361.121C507.608 363.001 527.017 371.635 538.422 384.445C549.832 397.259 553.454 414.626 545.023 433.501C536.592 452.376 518.212 468.053 496.49 478.324C474.778 488.591 449.2 493.77 424.714 491.889Z" fill="#6ED5A6" stroke="#012758" stroke-width="17.4372"/>
<path d="M406.414 396.163C441.956 372.51 492.801 372.726 519.979 396.645" stroke="#FCF6EA" stroke-width="17.4372" stroke-linecap="round"/>
<ellipse cx="13.7861" cy="9.36673" rx="13.7861" ry="9.36673" transform="matrix(-0.946579 0.322472 0.322472 0.946579 395.149 406.927)" fill="#FCF6EA"/>
<path fill-rule="evenodd" clip-rule="evenodd" d="M367.141 434.653C363.889 460.961 388.209 482.681 427.536 485.701C466.173 488.669 506.875 472.632 526.959 448.317C479.927 456.674 416.342 459.014 367.141 434.653Z" fill="#24A98E"/>
<path d="M229.719 453.861C251.953 439.257 300.823 410.834 318.424 413.975" stroke="#FCF6EA" stroke-width="11.8149" stroke-linecap="round"/>
<path d="M964.666 473.352C941.916 459.459 892.04 432.601 874.54 436.314" stroke="#FCF6EA" stroke-width="11.8149" stroke-linecap="round"/>
<circle cx="158.706" cy="448.54" r="5.38761" transform="rotate(16.268 158.706 448.54)" fill="#D9D9D9"/>
<circle cx="167.913" cy="480.192" r="5.38761" transform="rotate(16.268 167.913 480.192)" fill="#D9D9D9"/>
<circle cx="188.889" cy="506.212" r="5.38761" transform="rotate(16.268 188.889 506.212)" fill="#D9D9D9"/>
<ellipse cx="5.39201" cy="5.39521" rx="5.39201" ry="5.39521" transform="matrix(-0.994231 0.107259 0.10939 0.993999 1007.97 467.228)" fill="#D9D9D9"/>
<ellipse cx="5.39201" cy="5.39521" rx="5.39201" ry="5.39521" transform="matrix(-0.994231 0.107259 0.10939 0.993999 997.541 498.294)" fill="#D9D9D9"/>
<ellipse cx="5.39201" cy="5.39521" rx="5.39201" ry="5.39521" transform="matrix(-0.994231 0.107259 0.10939 0.993999 975.469 522.208)" fill="#D9D9D9"/>
<path d="M693.743 216.753C724.65 216.753 751.852 205.926 771.27 194.231C780.989 188.377 788.862 182.245 794.368 177.011C797.111 174.403 799.348 171.942 800.942 169.78C801.737 168.703 802.439 167.61 802.963 166.539C803.438 165.568 804 164.155 804 162.563C804 159.186 803.143 155.15 799.43 152.993C796.173 151.101 792.361 151.741 789.585 152.512C786.527 153.362 782.995 154.893 779.238 156.683C776.566 157.956 773.608 159.445 770.463 161.028C769.157 161.686 767.819 162.359 766.456 163.04C747.611 172.454 722.223 184.152 693.743 184.152C665.47 184.152 641.639 176.221 624.189 170.414C623.834 170.295 623.481 170.178 623.131 170.062C618.778 168.614 614.747 167.287 611.199 166.306C607.699 165.339 604.337 164.611 601.376 164.516C598.459 164.422 595.048 164.916 592.424 167.377C589.769 169.868 589 173.35 589 176.71C589 178.246 589.499 179.587 590.005 180.588C590.532 181.629 591.231 182.621 591.996 183.543C593.525 185.387 595.632 187.327 598.158 189.28C603.234 193.204 610.481 197.543 619.511 201.585C637.594 209.679 663.223 216.753 693.743 216.753Z" fill="#1E1E1E" stroke="#012758" stroke-width="10"/>
<path d="M768.407 207.72C797.27 199.274 839.473 181.588 874.164 165.587C891.542 157.571 907.135 149.932 918.338 144.021C923.924 141.074 928.499 138.514 931.677 136.528C933.242 135.55 934.613 134.622 935.623 133.795C936.103 133.402 936.704 132.869 937.209 132.231C937.46 131.915 937.835 131.39 938.116 130.688C938.392 130 938.743 128.715 938.299 127.195C937.394 124.104 934.836 122.729 932.818 122.233C930.923 121.766 928.819 121.846 926.878 122.087C922.904 122.58 917.712 124.02 911.819 126C899.935 129.993 883.943 136.624 866.486 144.069C861.49 146.2 856.371 148.399 851.185 150.627C819.86 164.082 786.076 178.592 761.95 185.652C734.558 193.668 710.198 195.993 692.578 197.675C692.198 197.711 691.821 197.747 691.446 197.783C682.791 198.611 675.32 199.34 670.281 200.714C667.823 201.384 665.114 202.409 663.181 204.323C662.127 205.365 661.269 206.706 660.878 208.348C660.493 209.969 660.643 211.539 661.051 212.935C661.645 214.965 663.165 216.062 663.879 216.515C664.75 217.068 665.722 217.465 666.619 217.765C668.441 218.374 670.786 218.852 673.479 219.216C678.917 219.951 686.472 220.311 695.67 220.015C714.097 219.42 739.503 216.178 768.407 207.72Z" fill="#FAAFAF" stroke="#012758" stroke-width="10"/>
</g>
<defs>
<clipPath id="clip0_158_174">
<rect width="1160" height="584" fill="white"/>
</clipPath>
</defs>
</svg>
