<svg width="108" height="104" viewBox="0 0 108 104" fill="none" xmlns="http://www.w3.org/2000/svg">
<path fill-rule="evenodd" clip-rule="evenodd" d="M15.358 0C11.304 0 7.41598 1.55521 4.54935 4.3235C1.68272 7.09179 0.0722656 10.8464 0.0722656 14.7613V88.5681C0.0722656 92.483 1.68272 96.2376 4.54935 99.0059C7.41598 101.774 11.304 103.329 15.358 103.329H91.7866C95.8406 103.329 99.7286 101.774 102.595 99.0059C105.462 96.2376 107.072 92.483 107.072 88.5681V14.7613C107.072 10.8464 105.462 7.09179 102.595 4.3235C99.7286 1.55521 95.8406 0 91.7866 0H15.358ZM23.7804 31.7147C26.2027 31.7147 28.5258 30.7855 30.2386 29.1315C31.9514 27.4774 32.9136 25.234 32.9136 22.8948C32.9136 20.5557 31.9514 18.3123 30.2386 16.6582C28.5258 15.0042 26.2027 14.0749 23.7804 14.0749C21.3581 14.0749 19.0351 15.0042 17.3223 16.6582C15.6094 18.3123 14.6472 20.5557 14.6472 22.8948C14.6472 25.234 15.6094 27.4774 17.3223 29.1315C19.0351 30.7855 21.3581 31.7147 23.7804 31.7147ZM31.4233 87.1879V38.6304H16.1376V87.1879H31.4233ZM41.573 38.6304H56.8587V45.1328C59.1133 41.7229 64.0659 37.1322 73.2756 37.1322C84.266 37.1322 90.235 44.1659 90.235 57.5471C90.235 58.1892 90.2962 61.1193 90.2962 61.1193V87.1805H75.0105V61.1267C75.0105 57.5471 74.2309 50.5133 65.9919 50.5133C57.7453 50.5133 57.0498 59.3554 56.8587 65.1418V87.1805H41.573V38.6304Z" fill="#FFF3E5"/>
</svg>
