<svg width="190" height="152" viewBox="0 0 190 152" fill="none" xmlns="http://www.w3.org/2000/svg">
<path d="M99.9706 114.522C74.2869 107.141 38.3299 75.2946 99.9706 6.9624C142.777 70.233 129.078 105.032 99.9706 114.522Z" fill="#D9A4B7" stroke="black" stroke-width="7.544"/>
<path d="M93.4551 135.269C73.9932 126.825 38.4311 94.7348 51.8774 33.9329C79.301 53.5464 112.915 76.4289 93.4551 135.269Z" fill="#E782A6" stroke="black" stroke-width="7.544"/>
<path d="M101.215 135.269C120.677 126.825 156.239 94.7348 142.792 33.9329C115.369 53.5464 81.7545 76.4289 101.215 135.269Z" fill="#E782A6" stroke="black" stroke-width="7.544"/>
<path d="M93.1448 146.711C69.5547 141.807 19.0128 120.069 5.56641 72.3428C50.6825 58.4499 93.1448 92.7735 93.1448 146.711Z" fill="#DC618D" stroke="black" stroke-width="7.544"/>
<path d="M97.1443 146.711C120.734 141.807 171.276 120.069 184.723 72.3428C139.607 58.4499 97.1443 92.7735 97.1443 146.711Z" fill="#DC618D" stroke="black" stroke-width="7.544"/>
</svg>
