<svg width="1374" height="608" viewBox="0 0 1374 608" fill="none" xmlns="http://www.w3.org/2000/svg">
<path d="M160.284 596.934C94.3897 597.559 36.619 553.026 20.4529 489.142C17.1673 476.159 15.7241 462.777 16.1656 449.392L19.0466 362.047C22.1068 269.272 97.073 195.027 189.874 192.864L732 180.227H1128.5L1200.75 185.298C1292.42 191.731 1363.5 267.973 1363.5 359.868V412.161C1363.5 508.162 1286.16 586.241 1190.16 587.153L160.284 596.934Z" fill="#BE8F65" stroke="#012758" stroke-width="20"/>
<path d="M353.188 484.192H518.483" stroke="#012758" stroke-width="10" stroke-linecap="round"/>
<path d="M340.994 395.956H405.932" stroke="#012758" stroke-width="10" stroke-linecap="round"/>
<path d="M295.605 289.485H336.929" stroke="#012758" stroke-width="10" stroke-linecap="round"/>
<path d="M477.498 278.674H558.178" stroke="#012758" stroke-width="10" stroke-linecap="round"/>
<path d="M653 363.577C662.849 360.893 669.677 347.608 679.565 342.926C696.257 335.024 713.068 336.043 731.275 336.043C743.884 336.043 756.492 336.043 769.101 336.043" stroke="#012758" stroke-width="10" stroke-linecap="round"/>
<path d="M793.461 267.852H878.077" stroke="#012758" stroke-width="10" stroke-linecap="round"/>
<path d="M319.219 547.128H512.064" stroke="#012758" stroke-width="10" stroke-linecap="round"/>
<path d="M589 449.971C622.002 449.75 655.237 452.816 687.197 466.906C695.597 470.61 730.493 483.547 734.138 470.11" stroke="#012758" stroke-width="10" stroke-linecap="round"/>
<path d="M870.392 417.926C866.144 417.454 861.634 414.294 857.492 413.009C847.693 409.969 837.462 407.909 827.975 403.94C812.571 397.495 797.596 386.741 780.311 386.458C764.483 386.199 749.838 384.073 733.848 385.475C727.824 386.003 713.436 385.053 711 392.358" stroke="#012758" stroke-width="10" stroke-linecap="round"/>
<path d="M1031.57 442.89C995.827 432.52 955.332 439.873 919.51 445.84C897.153 449.564 876.472 461.775 854.463 464.524" stroke="#012758" stroke-width="10" stroke-linecap="round"/>
<path d="M1080.76 309.153H1269.67" stroke="#012758" stroke-width="10" stroke-linecap="round"/>
<path d="M874.141 305.219H1013.85" stroke="#012758" stroke-width="10" stroke-linecap="round"/>
<path d="M900 229H1027.91" stroke="#012758" stroke-width="10" stroke-linecap="round"/>
<path d="M1190.96 228.517H1289.35" stroke="#012758" stroke-width="10" stroke-linecap="round"/>
<path d="M1035.5 395.689H1192.93" stroke="#012758" stroke-width="10" stroke-linecap="round"/>
<path d="M1173.25 456.658H1265.73" stroke="#012758" stroke-width="10" stroke-linecap="round"/>
<path d="M1236.22 454.691C1240.47 450.023 1241.83 443.394 1246.06 438.958C1250.19 434.619 1255.55 431.436 1259.83 427.157" stroke="#012758" stroke-width="10" stroke-linecap="round"/>
<path d="M1025.66 537.294C1077.48 537.294 1129.3 537.294 1181.12 537.294C1187.71 537.294 1190.77 537.095 1196.42 540.354C1200.52 542.717 1210.31 534.427 1214.57 533.361" stroke="#012758" stroke-width="10" stroke-linecap="round"/>
<path d="M1220.47 501.894H1322.8" stroke="#012758" stroke-width="10" stroke-linecap="round"/>
<path d="M250.346 212.783H374.318" stroke="#012758" stroke-width="10" stroke-linecap="round"/>
<path d="M448.498 215.708H525.243" stroke="#012758" stroke-width="10" stroke-linecap="round"/>
<path d="M150.5 200C212.632 200 316.5 319.523 316.5 429.092C316.5 538.661 211 597.5 128 597.5C65.868 597.5 10 528.166 10 418.597C10 309.029 55.5 211.5 150.5 200Z" fill="#BE8F65" stroke="#012758" stroke-width="20"/>
<path d="M103.485 406.778C103.489 394.503 106.45 388.422 114.867 381.648C117.674 379.389 119.901 376.874 123.368 376.502" stroke="#012758" stroke-width="10" stroke-linecap="round"/>
<path d="M119.518 474.783C142.721 488.364 143.074 489.527 169.366 487.19C177.218 486.492 183.635 485.724 189.315 479.842C192.661 476.378 195.823 472.894 198.714 469.067C203.166 463.172 204.076 457.184 204.356 450" stroke="#012758" stroke-width="10" stroke-linecap="round"/>
<path d="M133.745 420.44C135.126 425.5 141.546 428.827 146.37 427.158C154 424.518 156.892 416.218 156.892 408.873" stroke="#012758" stroke-width="10" stroke-linecap="round"/>
<path d="M102.5 339.744C123.397 330.19 144.387 321.293 167.5 332.645C180.071 338.819 191.77 343.85 198.693 356.418C199.651 358.156 200.928 360.745 202.5 361.629" stroke="#012758" stroke-width="10" stroke-linecap="round"/>
<path d="M60.6298 427.096C59.4282 420.291 57.4698 414.312 57.7072 407.233C58.0266 397.712 59.3574 388.267 60.6298 378.842C61.5538 371.997 63.3926 364.576 63.7861 357.694C64.2798 349.06 69.6391 342.248 72.203 334.56" stroke="#012758" stroke-width="10" stroke-linecap="round"/>
<path d="M78.5 285.096C93.1984 281.448 105.285 274.676 120.814 274.676C153.843 274.676 190.614 280.466 217.791 301.768C225.988 308.193 234.247 315.999 241.5 323.649" stroke="#012758" stroke-width="10" stroke-linecap="round"/>
<path d="M186 547.299C191.948 539.072 205.469 532.854 216.181 526.837C232.849 517.476 245.896 505.426 253.077 492.276C265.164 470.141 268.1 446.045 270.275 421.858C270.452 419.89 268.361 418.506 268.733 416.505" stroke="#012758" stroke-width="10" stroke-linecap="round"/>
<path d="M638.208 293.613C649.771 302.851 666.788 300.081 674.824 287.653L806.387 84.1799C813.353 73.4058 811.029 59.1109 801.007 51.0982L759.86 18.1979C749.518 9.92908 734.518 11.1543 725.655 20.9919L563.982 200.438C554.354 211.125 555.711 227.708 566.95 236.686L638.208 293.613Z" fill="#BE8F65" stroke="#012758" stroke-width="10" stroke-linejoin="round"/>
<ellipse cx="27.371" cy="47.3224" rx="27.371" ry="47.3224" transform="matrix(0.598193 -0.801352 0.801664 0.597775 711.389 46.1182)" fill="#907B5C" stroke="#012758" stroke-width="10"/>
<path d="M620.752 239.825C638.788 221.526 655.337 200.939 675.981 185.443C688.216 176.259 702.398 169.589 716.34 163.396" stroke="#012758" stroke-width="10" stroke-linecap="round"/>
<path d="M733.986 70.7995C730.291 71.6204 724.659 78.8135 722.303 81.0881C713.826 89.2732 706.106 98.6338 696.405 105.421C686.902 112.069 678.101 120.522 669.28 128.121C656.543 139.096 644.539 152.059 633.659 164.866C622.427 178.088 616.009 193.548 606.045 207.49" stroke="#012758" stroke-width="10" stroke-linecap="round"/>
<path d="M782.516 91.3771C775.247 98.9334 774.741 107.839 770.833 117.425C768.956 122.03 766.34 127.411 766.34 132.531" stroke="#012758" stroke-width="10" stroke-linecap="round"/>
<path d="M757.756 50.7751C760.817 54.1405 763.789 57.5671 767.188 52.6605C769.206 49.7474 767.762 44.919 766.379 42.1563" stroke="#012758" stroke-width="5" stroke-linecap="round"/>
<path d="M744.28 38.924C744.28 46.0872 743.629 56.5702 752.365 58.3164" stroke="#012758" stroke-width="5" stroke-linecap="round"/>
<path d="M776.619 67.4746C779.56 67.3199 784.302 65.4329 784.674 62.0878C784.971 59.4151 786.297 54.7804 784.704 52.3916" stroke="#012758" stroke-width="5" stroke-linecap="round"/>
<path d="M651.559 250.534C655.816 245.854 659.528 240.702 662.839 235.316C667.261 228.124 671.889 220.564 674.651 212.54C677.161 205.248 679.464 197.885 682.061 190.674C682.67 188.983 683.982 187.533 684.312 185.72C684.568 184.313 684.91 183.017 685.703 181.827" stroke="#012758" stroke-width="5" stroke-linecap="round"/>
<path d="M394.5 348.636C412.5 348.636 430.351 346.039 448.306 344.712C455.967 344.146 463.125 343.666 470.5 340.64" stroke="#012758" stroke-width="5" stroke-linecap="round"/>
<path d="M414.848 336.292H568.834" stroke="#012758" stroke-width="10" stroke-linecap="round"/>
<path d="M918.5 304.66C920.024 302.515 920.973 298.92 922.815 297.3C925.093 295.297 927.199 293.97 929.805 292.935C933.082 291.634 936.233 291.202 939.571 290.411C945.5 289.006 952.217 290.026 958.268 290.026C964.679 290.026 971.089 290.026 977.5 290.026" stroke="#012758" stroke-width="5" stroke-linecap="round"/>
<path d="M386.5 547.527C388.024 545.382 388.973 541.788 390.815 540.167C393.093 538.164 395.199 536.837 397.805 535.803C401.082 534.502 404.233 534.069 407.571 533.278C413.5 531.873 420.217 532.893 426.268 532.893C432.679 532.893 439.089 532.893 445.5 532.893" stroke="#012758" stroke-width="5" stroke-linecap="round"/>
<path d="M477.122 215.708C476.157 210.89 469.979 207.964 465.5 207.964" stroke="#012758" stroke-width="5" stroke-linecap="round"/>
<path d="M924.221 449.54C942.647 452.889 961.702 452.444 980.392 452.444" stroke="#012758" stroke-width="5" stroke-linecap="round"/>
<path d="M760 519H810.36" stroke="#012758" stroke-width="5" stroke-linecap="round"/>
<path d="M792.424 519C793.81 519.154 794.42 520.221 795.544 520.936C801.9 524.978 811.612 525.914 818.68 528.142C834.159 533.02 849.055 532.551 865.113 532.551C882.85 532.551 900.587 532.551 918.325 532.551" stroke="#012758" stroke-width="10" stroke-linecap="round"/>
<path d="M539.748 222.469C539.32 222.12 539.256 221.49 539.605 221.062L554.891 202.343L672.299 298.11L664.343 307.854C659.945 313.239 652.014 314.042 646.627 309.648L539.748 222.469Z" fill="#BE8F65"/>
</svg>
