<svg width="1880" height="740" viewBox="0 0 1880 740" fill="none" xmlns="http://www.w3.org/2000/svg">
<path fill-rule="evenodd" clip-rule="evenodd" d="M703.016 533.55C722.742 529.353 741.213 520.987 756.852 509.056C781.103 515.203 807.525 511.171 833.731 507.173L834.924 506.991L835.894 506.843C843.987 505.61 852.441 504.733 860.959 503.849C893.694 500.453 927.377 496.959 945.203 472.806C949.402 472.036 953.598 471.229 957.781 470.424L959.569 470.08C966.285 468.788 973.278 467.684 980.348 466.567C993.009 464.567 1005.92 462.528 1017.92 459.308C1047.86 474.575 1082.39 479.826 1114.87 470.475C1119.77 469.065 1124.43 467.276 1128.87 465.153C1136.72 467.741 1144.96 469.333 1153.63 469.682C1159.08 469.902 1164.53 469.766 1169.94 469.289C1177.04 478.293 1184.73 486.898 1192.16 495.017C1217.77 523.026 1250.74 543.137 1288.69 543.962C1308.85 544.399 1328.75 540.492 1346.71 532.466C1368.9 544.01 1395.54 546.144 1421.97 548.262L1424.15 548.437C1432.31 549.093 1440.74 550.178 1449.23 551.271C1481.87 555.471 1515.46 559.794 1538.35 540.373C1542.61 540.586 1546.88 540.762 1551.14 540.938L1552.96 541.013C1559.79 541.296 1566.85 541.824 1573.98 542.358L1573.98 542.358L1573.98 542.358L1573.98 542.358L1573.98 542.359L1573.99 542.359L1573.99 542.359L1573.99 542.359L1573.99 542.359L1573.99 542.359C1586.77 543.316 1599.8 544.291 1612.23 543.91C1637.86 565.634 1670.27 578.664 1704.03 577.01C1747.23 574.894 1779.92 542.33 1806.25 508.021C1831.79 474.744 1854.91 435.065 1844.06 394.545C1834.09 357.31 1796.6 339.094 1761.59 322.086L1761.54 322.062C1759.59 321.111 1757.64 320.163 1755.7 319.216C1753.85 318.313 1752 317.403 1750.14 316.489L1750.08 316.46L1750.07 316.457C1714.7 299.072 1677.05 280.568 1640.79 295.176C1627 300.73 1615.19 309.194 1605.23 319.619C1572.61 301.72 1533.97 303.844 1499.11 316.876C1486.6 321.55 1473.77 326.826 1461.71 333.126C1437.71 323.326 1412.37 318.18 1387.55 322.331C1377.17 309.65 1364.26 299.494 1348.62 293.587C1321.67 283.408 1295.5 296.074 1269.28 309.638C1268.54 307.125 1267.77 304.627 1266.97 302.15C1256.28 268.995 1232.4 244.433 1202.47 226.602C1167.6 205.825 1129 183.999 1090.56 197.046C1086.59 198.393 1082.69 199.932 1078.87 201.652C1057.9 197.373 1036.82 194.637 1017.4 198.511C986.352 187.517 951.137 194.328 921.227 209.683C913.937 213.425 907.242 217.859 901.116 222.879C887.39 206.769 869.849 193.998 849.772 186.479C812.376 172.473 773.731 191.272 738.294 209.679C704.717 227.12 671.568 248.42 660.731 284.671C660.477 285.519 660.233 286.368 659.997 287.22C649.786 293.483 640.076 301.619 630.398 309.92C629.098 307.644 627.771 305.39 626.425 303.162C608.415 273.343 579.542 254.91 546.324 244.418C507.616 232.191 465.04 219.798 430.617 241.311C417.32 249.622 405.512 260.355 395.86 272.712C388.517 267.658 380.381 263.788 371.231 261.542C334.757 252.587 297.281 268.084 268.693 292.441C262.456 297.756 256.956 303.607 252.145 309.898C235.09 297.365 215.088 288.956 193.821 286.241C154.21 281.184 120.906 308.344 90.6342 334.386C61.9513 359.062 34.5699 387.396 32.334 425.166C29.9264 465.838 46.6112 506.808 78.9614 531.576C110.874 556.009 153.309 556.984 192.422 547.734C219.804 541.258 245.628 529.156 265.199 510.335C286.883 517.071 311.434 508.143 336.073 499.182C346.849 495.263 357.641 491.338 368.218 488.715C378.404 486.188 389.336 484.635 400.255 483.084C422.359 479.944 444.406 476.812 460.094 465.626C488.97 484.698 520.705 498.761 554.527 492.22C559.883 491.184 565.157 489.802 570.314 488.096C579.289 495.232 588.744 501.846 597.833 508.045C629.19 529.434 665.891 541.449 703.016 533.55Z" fill="#253A04"/>
<path d="M756.852 509.056L757.983 504.597L755.829 504.051L754.062 505.399L756.852 509.056ZM703.016 533.55L703.974 538.049L703.974 538.049L703.016 533.55ZM833.731 507.173L833.037 502.625L833.037 502.625L833.731 507.173ZM834.924 506.991L834.231 502.443L834.23 502.443L834.924 506.991ZM835.894 506.843L835.201 502.295L835.201 502.295L835.894 506.843ZM860.959 503.849L860.484 499.274L860.484 499.274L860.959 503.849ZM945.203 472.806L944.373 468.282L942.582 468.61L941.502 470.075L945.203 472.806ZM957.781 470.424L956.912 465.906L956.912 465.906L957.781 470.424ZM959.569 470.08L958.701 465.562L958.7 465.562L959.569 470.08ZM980.348 466.567L981.065 471.111L981.065 471.111L980.348 466.567ZM1017.92 459.308L1020.01 455.21L1018.44 454.407L1016.73 454.865L1017.92 459.308ZM1114.87 470.475L1116.14 474.896L1116.14 474.896L1114.87 470.475ZM1128.87 465.153L1130.31 460.784L1128.55 460.206L1126.88 461.003L1128.87 465.153ZM1153.63 469.682L1153.45 474.279L1153.45 474.279L1153.63 469.682ZM1169.94 469.289L1173.56 466.441L1172.02 464.488L1169.54 464.706L1169.94 469.289ZM1192.16 495.017L1188.76 498.121L1188.76 498.121L1192.16 495.017ZM1288.69 543.962L1288.59 548.56L1288.59 548.56L1288.69 543.962ZM1346.71 532.466L1348.83 528.385L1346.86 527.359L1344.83 528.266L1346.71 532.466ZM1421.97 548.262L1422.34 543.676L1422.34 543.676L1421.97 548.262ZM1424.15 548.437L1424.52 543.851L1424.52 543.851L1424.15 548.437ZM1449.23 551.271L1449.82 546.708L1449.82 546.708L1449.23 551.271ZM1538.35 540.373L1538.58 535.779L1536.76 535.688L1535.37 536.865L1538.35 540.373ZM1551.14 540.938L1551.33 536.342L1551.33 536.342L1551.14 540.938ZM1552.96 541.013L1553.15 536.417L1553.15 536.417L1552.96 541.013ZM1573.98 542.358L1574.36 537.774L1574.34 537.772L1574.32 537.771L1573.98 542.358ZM1573.99 542.359L1573.61 546.943L1573.63 546.945L1573.65 546.946L1573.99 542.359ZM1612.23 543.91L1615.2 540.401L1613.86 539.258L1612.09 539.312L1612.23 543.91ZM1704.03 577.01L1703.81 572.416L1703.81 572.416L1704.03 577.01ZM1806.25 508.021L1809.9 510.821L1809.9 510.821L1806.25 508.021ZM1844.06 394.545L1848.5 393.355L1848.5 393.355L1844.06 394.545ZM1761.59 322.086L1759.58 326.223L1759.58 326.224L1761.59 322.086ZM1761.54 322.062L1763.56 317.925L1763.55 317.924L1761.54 322.062ZM1755.7 319.216L1753.68 323.349L1753.68 323.349L1755.7 319.216ZM1750.14 316.489L1752.17 312.361L1752.17 312.359L1750.14 316.489ZM1750.08 316.46L1748.05 320.586L1748.06 320.59L1750.08 316.46ZM1750.07 316.457L1752.11 312.331L1752.1 312.329L1750.07 316.457ZM1640.79 295.176L1642.5 299.443L1642.5 299.443L1640.79 295.176ZM1605.23 319.619L1603.01 323.651L1606.11 325.351L1608.55 322.798L1605.23 319.619ZM1499.11 316.876L1500.72 321.185L1500.72 321.185L1499.11 316.876ZM1461.71 333.126L1459.97 337.385L1461.94 338.192L1463.84 337.204L1461.71 333.126ZM1387.55 322.331L1383.99 325.243L1385.67 327.308L1388.3 326.868L1387.55 322.331ZM1348.62 293.587L1346.99 297.89L1346.99 297.89L1348.62 293.587ZM1269.28 309.638L1264.87 310.943L1266.45 316.283L1271.4 313.724L1269.28 309.638ZM1266.97 302.15L1262.59 303.562L1262.59 303.562L1266.97 302.15ZM1202.47 226.602L1200.12 230.554L1200.12 230.554L1202.47 226.602ZM1090.56 197.046L1089.08 192.69L1089.08 192.69L1090.56 197.046ZM1078.87 201.652L1077.95 206.159L1079.4 206.456L1080.75 205.847L1078.87 201.652ZM1017.4 198.511L1015.87 202.848L1017.06 203.27L1018.3 203.023L1017.4 198.511ZM921.227 209.683L919.126 205.59L919.126 205.59L921.227 209.683ZM901.116 222.879L897.615 225.862L900.542 229.297L904.032 226.437L901.116 222.879ZM849.772 186.479L851.385 182.171L851.385 182.171L849.772 186.479ZM738.294 209.679L740.415 213.761L740.415 213.761L738.294 209.679ZM660.731 284.671L656.323 283.354L656.323 283.354L660.731 284.671ZM659.997 287.22L662.402 291.141L663.946 290.194L664.43 288.448L659.997 287.22ZM630.398 309.92L626.404 312.202L629.166 317.037L633.393 313.412L630.398 309.92ZM626.425 303.162L622.488 305.54L622.488 305.54L626.425 303.162ZM546.324 244.418L547.709 240.031L546.324 244.418ZM430.617 241.311L433.055 245.212L433.055 245.212L430.617 241.311ZM395.86 272.712L393.252 276.501L396.819 278.957L399.485 275.544L395.86 272.712ZM371.231 261.542L372.328 257.074L371.231 261.542ZM268.693 292.441L265.71 288.94L265.71 288.94L268.693 292.441ZM252.145 309.898L249.421 313.605L253.057 316.277L255.798 312.692L252.145 309.898ZM193.821 286.241L193.239 290.804L193.239 290.804L193.821 286.241ZM90.6342 334.386L87.6343 330.899L87.6342 330.899L90.6342 334.386ZM32.334 425.166L36.926 425.438L36.926 425.438L32.334 425.166ZM78.9614 531.576L76.1651 535.228L76.1651 535.228L78.9614 531.576ZM192.422 547.734L193.481 552.21L193.481 552.21L192.422 547.734ZM265.199 510.335L266.564 505.942L263.969 505.136L262.011 507.019L265.199 510.335ZM336.073 499.182L334.501 494.859L334.501 494.859L336.073 499.182ZM368.218 488.715L367.111 484.25L367.111 484.25L368.218 488.715ZM400.255 483.084L400.902 487.638L400.902 487.638L400.255 483.084ZM460.094 465.626L462.629 461.787L459.995 460.047L457.424 461.88L460.094 465.626ZM554.527 492.22L555.401 496.736L555.401 496.736L554.527 492.22ZM570.314 488.096L573.177 484.495L571.231 482.948L568.87 483.729L570.314 488.096ZM597.833 508.045L595.241 511.845L595.241 511.845L597.833 508.045ZM754.062 505.399C738.985 516.901 721.144 524.99 702.059 529.051L703.974 538.049C724.339 533.716 743.442 525.072 759.642 512.714L754.062 505.399ZM833.037 502.625C806.617 506.657 781.165 510.473 757.983 504.597L755.722 513.515C781.042 519.933 808.433 515.686 834.425 511.72L833.037 502.625ZM834.23 502.443L833.037 502.625L834.425 511.72L835.617 511.538L834.23 502.443ZM835.201 502.295L834.231 502.443L835.617 511.538L836.587 511.39L835.201 502.295ZM860.484 499.274C851.987 500.156 843.422 501.043 835.201 502.295L836.586 511.39C844.552 510.177 852.894 509.311 861.433 508.425L860.484 499.274ZM941.502 470.075C933.399 481.053 921.568 487.541 907.379 491.697C893.114 495.875 876.947 497.566 860.484 499.274L861.433 508.425C877.706 506.737 894.747 504.983 909.965 500.526C925.257 496.047 939.181 488.712 948.904 475.538L941.502 470.075ZM956.912 465.906C952.726 466.712 948.549 467.516 944.373 468.282L946.033 477.331C950.255 476.556 954.471 475.745 958.651 474.941L956.912 465.906ZM958.7 465.562L956.912 465.906L958.65 474.941L960.438 474.597L958.7 465.562ZM979.63 462.023C972.575 463.138 965.505 464.254 958.701 465.562L960.438 474.597C967.065 473.323 973.981 472.23 981.065 471.111L979.63 462.023ZM1016.73 454.865C1005 458.011 992.339 460.016 979.63 462.023L981.065 471.111C993.679 469.118 1006.83 467.045 1019.12 463.751L1016.73 454.865ZM1113.6 466.055C1082.41 475.033 1049.08 470.036 1020.01 455.21L1015.83 463.406C1046.63 479.114 1082.37 484.62 1116.14 474.896L1113.6 466.055ZM1126.88 461.003C1122.67 463.019 1118.25 464.716 1113.6 466.055L1116.14 474.896C1121.29 473.413 1126.19 471.533 1130.85 469.303L1126.88 461.003ZM1153.82 465.086C1145.6 464.755 1137.78 463.246 1130.31 460.784L1127.43 469.522C1135.67 472.236 1144.33 473.911 1153.45 474.279L1153.82 465.086ZM1169.54 464.706C1164.32 465.167 1159.07 465.298 1153.82 465.086L1153.45 474.279C1159.1 474.507 1164.74 474.366 1170.35 473.871L1169.54 464.706ZM1195.55 491.912C1188.14 483.812 1180.55 475.307 1173.56 466.441L1166.33 472.137C1173.54 481.278 1181.32 489.984 1188.76 498.121L1195.55 491.912ZM1288.79 539.363C1252.49 538.574 1220.63 519.333 1195.55 491.912L1188.76 498.121C1214.92 526.719 1248.99 547.7 1288.59 548.56L1288.79 539.363ZM1344.83 528.266C1327.52 536.004 1308.3 539.786 1288.79 539.363L1288.59 548.56C1309.4 549.013 1329.98 544.98 1348.58 536.665L1344.83 528.266ZM1422.34 543.676C1395.69 541.542 1370.05 539.42 1348.83 528.385L1344.58 536.547C1367.76 548.599 1395.39 550.747 1421.6 552.847L1422.34 543.676ZM1424.52 543.851L1422.34 543.676L1421.6 552.847L1423.78 553.022L1424.52 543.851ZM1449.82 546.708C1441.35 545.618 1432.81 544.518 1424.52 543.851L1423.78 553.022C1431.81 553.668 1440.13 554.737 1448.65 555.833L1449.82 546.708ZM1535.37 536.865C1524.97 545.693 1511.97 549.295 1497.2 550.086C1482.36 550.882 1466.24 548.821 1449.82 546.708L1448.65 555.833C1464.87 557.921 1481.86 560.122 1497.69 559.273C1513.61 558.421 1528.84 554.474 1541.33 543.88L1535.37 536.865ZM1551.33 536.342C1547.07 536.166 1542.82 535.991 1538.58 535.779L1538.12 544.967C1542.41 545.182 1546.7 545.359 1550.95 545.534L1551.33 536.342ZM1553.15 536.417L1551.33 536.342L1550.95 545.534L1552.77 545.609L1553.15 536.417ZM1574.32 537.771C1567.2 537.238 1560.07 536.704 1553.15 536.417L1552.77 545.609C1559.51 545.888 1566.49 546.41 1573.64 546.945L1574.32 537.771ZM1574.36 537.774L1574.36 537.774L1573.6 546.942L1573.6 546.942L1574.36 537.774ZM1574.36 537.774L1574.36 537.774L1573.6 546.942L1573.6 546.942L1574.36 537.774ZM1574.36 537.774L1574.36 537.774L1573.6 546.942L1573.6 546.943L1574.36 537.774ZM1574.37 537.774L1574.36 537.774L1573.6 546.943L1573.6 546.943L1574.37 537.774ZM1574.37 537.774L1574.37 537.774L1573.6 546.943L1573.6 546.943L1574.37 537.774ZM1574.37 537.775L1574.37 537.774L1573.6 546.943L1573.6 546.943L1574.37 537.775ZM1574.37 537.775L1574.37 537.775L1573.6 546.943L1573.61 546.943L1574.37 537.775ZM1574.37 537.775L1574.37 537.775L1573.61 546.943L1573.61 546.943L1574.37 537.775ZM1574.37 537.775L1574.37 537.775L1573.61 546.943L1573.61 546.943L1574.37 537.775ZM1612.09 539.312C1599.95 539.685 1587.16 538.732 1574.33 537.772L1573.65 546.946C1586.38 547.899 1599.66 548.898 1612.37 548.508L1612.09 539.312ZM1703.81 572.416C1671.39 574.004 1640.1 561.497 1615.2 540.401L1609.26 547.419C1635.63 569.772 1669.15 583.324 1704.26 581.605L1703.81 572.416ZM1802.6 505.22C1776.31 539.479 1744.75 570.41 1703.81 572.416L1704.26 581.605C1749.7 579.378 1783.53 545.181 1809.9 510.821L1802.6 505.22ZM1839.62 395.734C1849.83 433.898 1828.16 471.912 1802.6 505.22L1809.9 510.821C1835.41 477.575 1859.98 436.231 1848.5 393.355L1839.62 395.734ZM1759.58 326.224C1777.17 334.77 1794.87 343.386 1809.44 354.4C1823.93 365.353 1834.98 378.428 1839.62 395.734L1848.5 393.355C1843.17 373.426 1830.49 358.776 1814.99 347.061C1799.57 335.406 1781.02 326.411 1763.6 317.949L1759.58 326.224ZM1759.53 326.199L1759.58 326.223L1763.61 317.949L1763.56 317.925L1759.53 326.199ZM1753.68 323.349C1755.62 324.298 1757.58 325.248 1759.53 326.199L1763.55 317.924C1761.6 316.973 1759.65 316.027 1757.72 315.083L1753.68 323.349ZM1748.11 320.618C1749.97 321.531 1751.83 322.444 1753.68 323.349L1757.72 315.083C1755.88 314.183 1754.03 313.275 1752.17 312.361L1748.11 320.618ZM1748.06 320.59L1748.11 320.619L1752.17 312.359L1752.11 312.331L1748.06 320.59ZM1748.04 320.583L1748.05 320.586L1752.12 312.335L1752.11 312.331L1748.04 320.583ZM1642.5 299.443C1659.41 292.633 1676.79 293.449 1694.56 298.259C1712.42 303.096 1730.27 311.852 1748.05 320.586L1752.1 312.329C1734.5 303.678 1715.84 294.489 1696.96 289.379C1677.99 284.243 1658.42 283.111 1639.07 290.909L1642.5 299.443ZM1608.55 322.798C1618.12 312.79 1629.39 304.726 1642.5 299.443L1639.07 290.909C1624.61 296.735 1612.27 305.597 1601.9 316.44L1608.55 322.798ZM1500.72 321.185C1534.79 308.45 1571.94 306.601 1603.01 323.651L1607.44 315.586C1573.28 296.84 1533.16 299.239 1497.5 312.567L1500.72 321.185ZM1463.84 337.204C1475.66 331.028 1488.29 325.828 1500.72 321.185L1497.5 312.567C1484.91 317.273 1471.88 322.624 1459.58 329.049L1463.84 337.204ZM1388.3 326.868C1412.01 322.904 1436.46 327.782 1459.97 337.385L1463.45 328.868C1438.97 318.869 1412.73 313.457 1386.79 317.794L1388.3 326.868ZM1346.99 297.89C1361.76 303.467 1374.04 313.083 1383.99 325.243L1391.11 319.419C1380.31 306.217 1366.76 295.521 1350.24 289.283L1346.99 297.89ZM1271.4 313.724C1297.97 299.975 1322.25 288.547 1346.99 297.89L1350.24 289.283C1321.08 278.269 1293.03 292.173 1267.17 305.553L1271.4 313.724ZM1262.59 303.562C1263.38 306.006 1264.14 308.468 1264.87 310.943L1273.7 308.333C1272.94 305.781 1272.16 303.248 1271.35 300.738L1262.59 303.562ZM1200.12 230.554C1229.39 247.993 1252.34 271.765 1262.59 303.562L1271.35 300.738C1260.22 266.225 1235.41 240.873 1204.83 222.651L1200.12 230.554ZM1092.04 201.402C1109.99 195.31 1128.15 197.274 1146.37 203.494C1164.66 209.739 1182.64 220.143 1200.12 230.554L1204.83 222.651C1187.43 212.285 1168.67 201.387 1149.34 194.787C1129.93 188.161 1109.57 185.735 1089.08 192.69L1092.04 201.402ZM1080.75 205.847C1084.44 204.186 1088.21 202.701 1092.04 201.402L1089.08 192.69C1084.97 194.085 1080.93 195.678 1076.98 197.457L1080.75 205.847ZM1018.3 203.023C1036.77 199.338 1057.09 201.902 1077.95 206.159L1079.79 197.145C1058.71 192.844 1036.87 189.936 1016.5 194L1018.3 203.023ZM923.328 213.775C952.554 198.771 986.411 192.417 1015.87 202.848L1018.94 194.175C986.294 182.616 949.721 189.884 919.126 205.59L923.328 213.775ZM904.032 226.437C909.913 221.618 916.335 217.365 923.328 213.775L919.126 205.59C911.539 209.485 904.572 214.1 898.201 219.321L904.032 226.437ZM848.158 190.787C867.456 198.014 884.361 210.307 897.615 225.862L904.618 219.896C890.419 203.232 872.242 189.982 851.385 182.171L848.158 190.787ZM740.415 213.761C758.164 204.541 776.292 195.459 794.538 190.354C812.707 185.271 830.66 184.233 848.158 190.787L851.385 182.171C831.488 174.719 811.42 176.078 792.059 181.494C772.775 186.889 753.861 196.41 736.174 205.597L740.415 213.761ZM665.138 285.989C675.368 251.77 706.792 231.226 740.415 213.761L736.174 205.597C702.643 223.014 667.768 245.07 656.323 283.354L665.138 285.989ZM664.43 288.448C664.658 287.626 664.894 286.806 665.138 285.989L656.323 283.354C656.061 284.231 655.808 285.11 655.564 285.992L664.43 288.448ZM633.393 313.412C643.09 305.095 652.544 297.188 662.402 291.141L657.592 283.299C647.028 289.778 637.063 298.143 627.403 306.428L633.393 313.412ZM622.488 305.54C623.815 307.739 625.123 309.96 626.404 312.202L634.392 307.638C633.072 305.327 631.726 303.042 630.363 300.784L622.488 305.54ZM544.938 248.804C577.427 259.066 605.216 276.943 622.488 305.54L630.363 300.784C611.615 269.743 581.658 250.755 547.709 240.031L544.938 248.804ZM433.055 245.212C449.127 235.167 467.257 232.914 486.415 234.79C505.655 236.674 525.542 242.677 544.938 248.804L547.709 240.031C528.398 233.931 507.643 227.625 487.312 225.634C466.9 223.635 446.529 225.942 428.179 237.411L433.055 245.212ZM399.485 275.544C408.816 263.598 420.225 253.23 433.055 245.212L428.179 237.411C414.415 246.013 402.208 257.112 392.234 269.88L399.485 275.544ZM398.468 268.923C390.711 263.585 382.069 259.466 372.328 257.074L370.134 266.009C378.693 268.11 386.322 271.732 393.252 276.501L398.468 268.923ZM372.328 257.074C333.883 247.635 294.926 264.048 265.71 288.94L271.677 295.943C299.637 272.121 335.632 257.538 370.134 266.009L372.328 257.074ZM265.71 288.94C259.218 294.471 253.495 300.56 248.491 307.103L255.798 312.692C260.417 306.653 265.693 301.04 271.677 295.943L265.71 288.94ZM254.868 306.191C237.227 293.227 216.496 284.499 194.404 281.678L193.239 290.804C213.679 293.414 232.953 301.503 249.421 313.605L254.868 306.191ZM194.404 281.678C173.328 278.988 154.107 284.912 136.503 294.624C118.97 304.297 102.744 317.901 87.6343 330.899L93.6342 337.873C108.797 324.829 124.358 311.832 140.948 302.679C157.467 293.565 174.703 288.438 193.239 290.804L194.404 281.678ZM87.6342 330.899C58.9906 355.541 30.1032 385.007 27.7421 424.895L36.926 425.438C39.0365 389.785 64.9121 362.583 93.6342 337.873L87.6342 330.899ZM27.7421 424.895C25.254 466.926 42.4757 509.435 76.1651 535.228L81.7578 527.924C50.7467 504.181 34.5989 464.751 36.926 425.438L27.7421 424.895ZM76.1651 535.228C109.66 560.873 153.762 561.604 193.481 552.21L191.363 543.257C152.856 552.365 112.088 551.145 81.7578 527.924L76.1651 535.228ZM193.481 552.21C221.441 545.597 248.078 533.181 268.387 513.651L262.011 507.019C243.178 525.13 218.166 536.918 191.363 543.257L193.481 552.21ZM263.834 514.728C275.709 518.417 288.135 517.743 300.475 515.146C312.78 512.557 325.394 507.961 337.645 503.505L334.501 494.859C322.113 499.364 310.131 503.713 298.58 506.143C287.064 508.567 276.373 508.989 266.564 505.942L263.834 514.728ZM337.645 503.505C348.468 499.569 359.027 495.734 369.326 493.179L367.111 484.25C356.255 486.943 345.229 490.957 334.501 494.859L337.645 503.505ZM369.326 493.179C379.243 490.719 389.936 489.196 400.902 487.638L399.608 478.53C388.737 480.074 377.566 481.657 367.111 484.25L369.326 493.179ZM400.902 487.638C422.671 484.546 445.979 481.34 462.765 469.371L457.424 461.88C442.833 472.284 422.046 475.342 399.608 478.53L400.902 487.638ZM553.654 487.703C521.655 493.892 491.228 480.676 462.629 461.787L457.559 469.464C486.712 488.719 519.754 503.63 555.401 496.736L553.654 487.703ZM568.87 483.729C563.897 485.373 558.814 486.705 553.654 487.703L555.401 496.736C560.953 495.662 566.417 494.23 571.759 492.463L568.87 483.729ZM600.425 504.245C591.357 498.059 582.015 491.523 573.177 484.495L567.451 491.696C576.563 498.941 586.132 505.632 595.241 511.845L600.425 504.245ZM702.059 529.051C666.549 536.606 631.123 525.184 600.425 504.245L595.241 511.845C627.256 533.684 665.233 546.292 703.974 538.049L702.059 529.051Z" fill="#142100"/>
<path d="M420.119 351.152C396.429 340.06 384.444 313.615 395.485 291.412C406.526 269.208 435.318 261.855 459.007 272.946C482.697 284.038 494.682 310.482 483.641 332.686C472.6 354.89 443.808 362.243 420.119 351.152Z" fill="#FC9898" stroke="#012758" stroke-width="11.9685"/>
<path d="M419.415 283.918C438.196 274.233 462.342 282.954 473.346 303.397" stroke="#FCF6EA" stroke-width="11.9685" stroke-linecap="round"/>
<ellipse cx="6.59925" cy="6.42912" rx="6.59925" ry="6.42912" transform="matrix(-0.993593 0.113015 0.113015 0.993593 413.2 289.154)" fill="#FCF6EA"/>
<path fill-rule="evenodd" clip-rule="evenodd" d="M397.671 302.812C394.023 319.705 403.844 338.208 422.291 346.845C440.415 355.331 461.04 351.565 472.528 338.833C449.51 336.439 419.105 327.264 397.671 302.812Z" fill="#D68181"/>
<path d="M429.36 263.882C442.735 290.112 458.297 347.332 413.547 366.368C368.797 385.404 405.443 305.975 429.36 263.882Z" fill="#FC9898" stroke="#012758" stroke-width="11.9685"/>
<path d="M403.155 156.042C386.547 157.931 371.332 146.318 369.449 129.762C367.566 113.205 379.783 98.4719 396.392 96.5828C413 94.6937 428.214 106.306 430.097 122.863C431.981 139.42 419.763 154.153 403.155 156.042Z" fill="#FDE7D2" stroke="#062855" stroke-width="11.9685"/>
<ellipse cx="15.559" cy="15.2598" rx="15.559" ry="15.2598" transform="matrix(-0.993593 0.113015 0.113015 0.993593 413.473 109.095)" fill="#022656"/>
<mask id="path-10-outside-1_909_120" maskUnits="userSpaceOnUse" x="181.621" y="95.4702" width="301.789" height="307.953" fill="black">
<rect fill="white" x="181.621" y="95.4702" width="301.789" height="307.953"/>
<path fill-rule="evenodd" clip-rule="evenodd" d="M425.702 267.155C444.137 248.911 454.312 223.046 451.203 195.708C445.74 147.682 401.348 113.295 352.052 118.902C318.558 122.712 291.418 144.003 279.172 172.325C258.271 182.574 239.858 199.41 227.436 221.648C197.275 275.646 213.87 341.044 264.503 367.718C315.136 394.393 380.634 372.242 410.796 318.244C419.981 301.8 424.83 284.298 425.702 267.155Z"/>
</mask>
<path fill-rule="evenodd" clip-rule="evenodd" d="M425.702 267.155C444.137 248.911 454.312 223.046 451.203 195.708C445.74 147.682 401.348 113.295 352.052 118.902C318.558 122.712 291.418 144.003 279.172 172.325C258.271 182.574 239.858 199.41 227.436 221.648C197.275 275.646 213.87 341.044 264.503 367.718C315.136 394.393 380.634 372.242 410.796 318.244C419.981 301.8 424.83 284.298 425.702 267.155Z" fill="#FC9898"/>
<path d="M425.702 267.155L413.749 266.547L413.985 261.913L417.283 258.648L425.702 267.155ZM279.172 172.325L290.157 177.075L288.405 181.127L284.442 183.071L279.172 172.325ZM227.436 221.648L237.885 227.484L237.885 227.484L227.436 221.648ZM264.503 367.718L270.082 357.129L270.082 357.129L264.503 367.718ZM410.796 318.244L400.347 312.408L400.347 312.408L410.796 318.244ZM417.283 258.648C433.274 242.824 441.98 220.533 439.311 197.061L463.094 194.356C466.644 225.56 455.001 254.998 434.121 275.662L417.283 258.648ZM439.311 197.061C434.628 155.894 396.428 125.9 353.404 130.794L350.699 107.01C406.269 100.69 456.852 139.471 463.094 194.356L439.311 197.061ZM353.404 130.794C324.235 134.112 300.729 152.625 290.157 177.075L268.186 167.575C282.107 135.381 312.882 111.312 350.699 107.01L353.404 130.794ZM284.442 183.071C265.688 192.267 249.099 207.409 237.885 227.484L216.988 215.811C230.616 191.412 250.854 172.881 273.902 161.579L284.442 183.071ZM237.885 227.484C210.552 276.419 226.186 334.005 270.082 357.129L258.925 378.307C201.554 348.084 183.998 274.872 216.988 215.811L237.885 227.484ZM270.082 357.129C314.236 380.391 372.933 361.486 400.347 312.408L421.245 324.081C388.335 382.999 316.037 408.395 258.925 378.307L270.082 357.129ZM400.347 312.408C408.639 297.563 412.971 281.85 413.749 266.547L437.655 267.763C436.69 286.747 431.324 306.037 421.245 324.081L400.347 312.408Z" fill="#012758" mask="url(#path-10-outside-1_909_120)"/>
<path fill-rule="evenodd" clip-rule="evenodd" d="M451.203 195.708C454.313 223.046 444.138 248.91 425.703 267.155C424.831 284.298 419.982 301.799 410.796 318.244C382.808 368.351 324.393 391.034 275.663 372.73L382.859 190.419L441.588 164.902C446.594 174.224 449.94 184.601 451.203 195.708Z" fill="#FFF3E5"/>
<path d="M315.397 140.573C336.047 117.192 377.972 116.834 400.989 136.119" stroke="#FCF6EA" stroke-width="11.9685" stroke-linecap="round"/>
<line x1="5.98425" y1="-5.98425" x2="10.6903" y2="-5.98425" transform="matrix(-0.67385 0.738869 0.756112 0.654443 295.739 210.417)" stroke="#012758" stroke-width="11.9685" stroke-linecap="round"/>
<line x1="5.98425" y1="-5.98425" x2="11.0428" y2="-5.98425" transform="matrix(-0.695553 0.718475 0.736142 0.676827 271.979 213.741)" stroke="#012758" stroke-width="11.9685" stroke-linecap="round"/>
<line x1="5.98425" y1="-5.98425" x2="13.7262" y2="-5.98425" transform="matrix(-0.681253 0.732048 0.749444 0.662067 294.073 183.596)" stroke="#012758" stroke-width="11.9685" stroke-linecap="round"/>
<path d="M305.935 167.1C289.421 168.978 274.402 157.274 272.526 140.786C270.651 124.297 282.658 109.519 299.171 107.641C315.685 105.762 330.704 117.466 332.58 133.955C334.455 150.444 322.448 165.222 305.935 167.1Z" fill="#FDE7D2" stroke="#062855" stroke-width="11.9685"/>
<ellipse cx="15.559" cy="15.2598" rx="15.559" ry="15.2598" transform="matrix(-0.993593 0.113015 0.113015 0.993593 316.553 120.119)" fill="#022656"/>
<ellipse cx="9.87401" cy="9.5748" rx="9.87401" ry="9.5748" transform="matrix(-0.993593 0.113015 0.113015 0.993593 403.72 145.137)" fill="#022656"/>
<ellipse cx="9.87401" cy="9.5748" rx="9.87401" ry="9.5748" transform="matrix(-0.993593 0.113015 0.113015 0.993593 363.883 149.668)" fill="#022656"/>
<path d="M436.086 164.944C419.508 177.913 374.21 199.912 325.644 184.156" stroke="#012758" stroke-width="11.9685" stroke-linecap="round"/>
<path d="M220.58 373.848C196.89 362.757 184.905 336.312 195.946 314.108C206.987 291.905 235.779 284.551 259.468 295.643C283.158 306.734 295.143 333.179 284.102 355.382C273.061 377.586 244.269 384.939 220.58 373.848Z" fill="#FC9898" stroke="#012758" stroke-width="11.9685"/>
<path d="M219.875 306.614C238.656 296.929 262.802 305.65 273.806 326.094" stroke="#FCF6EA" stroke-width="11.9685" stroke-linecap="round"/>
<ellipse cx="6.59925" cy="6.42912" rx="6.59925" ry="6.42912" transform="matrix(-0.993593 0.113015 0.113015 0.993593 213.66 311.85)" fill="#FCF6EA"/>
<path fill-rule="evenodd" clip-rule="evenodd" d="M198.139 325.509C194.491 342.402 204.312 360.904 222.759 369.54C240.883 378.026 261.508 374.261 272.996 361.529C249.977 359.135 219.573 349.96 198.139 325.509Z" fill="#D68181"/>
<path d="M266.15 381.221C266.853 387.402 272.568 391.934 279.029 391.199C285.491 390.464 290.042 384.765 289.339 378.583C288.636 372.401 282.921 367.87 276.459 368.605C269.998 369.339 265.446 375.039 266.15 381.221Z" fill="#FC9898" stroke="#012758" stroke-width="5.98425"/>
<path d="M246.151 390.722C246.842 396.794 252.721 401.418 259.625 400.633C266.529 399.848 271.22 394.021 270.529 387.949C269.838 381.877 263.959 377.253 257.055 378.038C250.151 378.824 245.46 384.65 246.151 390.722Z" fill="#FC9898" stroke="#012758" stroke-width="5.98425"/>
<path d="M224.046 392.333C224.731 398.35 230.296 402.765 236.595 402.048C242.893 401.332 247.325 395.78 246.641 389.763C245.956 383.747 240.391 379.332 234.092 380.048C227.794 380.765 223.362 386.317 224.046 392.333Z" fill="#FC9898" stroke="#012758" stroke-width="5.98425"/>
<path d="M325.772 282.404L326.585 283.361L326.945 284.563C330.766 297.323 336.754 316.639 342.294 333.11C345.067 341.357 347.704 348.816 349.885 354.363C350.981 357.148 351.922 359.349 352.678 360.892C353.017 361.586 353.279 362.063 353.462 362.363C356.492 364.749 358.051 367.704 358.809 369.14C358.834 369.188 358.858 369.234 358.882 369.278L365.291 368.549L364.819 375.699C364.724 377.138 364.288 379.274 362.562 381.008C360.725 382.853 358.481 383.203 356.99 383.167C355.589 383.133 354.336 382.762 353.507 382.477C352.62 382.171 351.739 381.789 351.021 381.47C350.796 381.37 350.583 381.275 350.381 381.185C349.317 380.71 348.566 380.375 347.919 380.156L347.59 380.396L345.801 380.483C343.181 380.61 342.814 380.81 342.726 380.858L342.726 380.858L342.724 380.859C342.683 380.881 342.153 381.163 340.691 383.467L339.58 385.217L337.625 385.905C336.746 386.215 336.187 386.427 335.594 386.651C335.049 386.858 334.475 387.076 333.596 387.39C332.367 387.83 330.624 388.426 328.988 388.612C328.197 388.702 326.737 388.789 325.171 388.209C323.219 387.486 321.555 385.874 320.936 383.573C320.442 381.733 320.796 380.083 321.073 379.134C321.383 378.074 321.859 377.03 322.377 376.052C322.568 375.691 322.747 375.354 322.917 375.035C323.552 373.842 324.049 372.91 324.46 372.028C324.972 370.93 325.132 370.353 325.176 370.058C325.181 370.023 325.184 369.996 325.185 369.977C325.13 369.866 324.886 369.449 324.071 368.726C321.003 366.004 311.531 355.696 302.626 343.899C298.135 337.949 293.665 331.459 290.156 325.2C286.728 319.084 283.881 312.606 283.222 306.813L283.192 306.546L283.186 306.277C282.892 293.762 291.363 285.077 299.862 280.854C304.168 278.714 308.897 277.476 313.287 277.444C317.517 277.413 322.485 278.536 325.772 282.404ZM353.658 362.657C353.658 362.655 353.641 362.631 353.607 362.59C353.641 362.638 353.658 362.659 353.658 362.657ZM347.123 379.95C347.125 379.953 347.163 379.96 347.232 379.963C347.155 379.949 347.121 379.947 347.123 379.95Z" fill="#FC9898" stroke="#012758" stroke-width="11.9685" stroke-linecap="round"/>
<path d="M350.703 376.346C350.497 382.5 355.463 387.749 361.958 387.919C368.454 388.089 373.763 383.108 373.969 376.955C374.176 370.802 369.21 365.552 362.714 365.382C356.219 365.212 350.91 370.193 350.703 376.346Z" fill="#FC9898" stroke="#012758" stroke-width="5.98425"/>
<path d="M421.136 363.842C420.93 369.995 425.895 375.244 432.391 375.414C438.887 375.584 444.195 370.603 444.402 364.45C444.608 358.297 439.643 353.047 433.147 352.877C426.651 352.707 421.342 357.688 421.136 363.842Z" fill="#FC9898" stroke="#012758" stroke-width="5.98425"/>
<path d="M329.18 385.697C328.974 391.85 333.939 397.099 340.435 397.269C346.931 397.439 352.239 392.458 352.446 386.305C352.652 380.152 347.687 374.902 341.191 374.732C334.695 374.562 329.386 379.543 329.18 385.697Z" fill="#FC9898" stroke="#012758" stroke-width="5.98425"/>
<path d="M399.613 373.192C399.406 379.345 404.372 384.595 410.868 384.765C417.363 384.935 422.672 379.954 422.878 373.801C423.085 367.648 418.119 362.398 411.623 362.228C405.128 362.058 399.819 367.039 399.613 373.192Z" fill="#FC9898" stroke="#012758" stroke-width="5.98425"/>
<path d="M306.952 381.244C306.745 387.398 311.711 392.647 318.206 392.817C324.702 392.987 330.011 388.006 330.217 381.853C330.424 375.7 325.458 370.45 318.962 370.28C312.467 370.11 307.158 375.091 306.952 381.244Z" fill="#FC9898" stroke="#012758" stroke-width="5.98425"/>
<path d="M377.384 368.74C377.178 374.893 382.143 380.142 388.639 380.312C395.135 380.482 400.443 375.501 400.65 369.348C400.856 363.195 395.891 357.945 389.395 357.775C382.899 357.605 377.591 362.586 377.384 368.74Z" fill="#FC9898" stroke="#012758" stroke-width="5.98425"/>
<ellipse cx="4.71818" cy="4.59687" rx="4.71818" ry="4.59687" transform="matrix(0.988873 -0.148759 0.150669 0.988584 213.06 220.32)" fill="#012758"/>
<ellipse cx="4.71818" cy="4.59687" rx="4.71818" ry="4.59687" transform="matrix(0.988873 -0.148759 0.150669 0.988584 221.757 239.818)" fill="#012758"/>
<ellipse cx="4.71818" cy="4.59687" rx="4.71818" ry="4.59687" transform="matrix(0.988873 -0.148759 0.150669 0.988584 228.864 255.758)" fill="#012758"/>
<path d="M281.992 95.3592C281.464 100.206 281.618 101.472 281.607 110.46" stroke="#062855" stroke-width="5.98425" stroke-linecap="round"/>
<path d="M299.539 93.5796C298.985 97.7812 299.094 98.8751 298.907 106.654" stroke="#062855" stroke-width="5.98425" stroke-linecap="round"/>
<path d="M315.753 93.166C315.2 97.3676 315.309 98.4616 315.122 106.241" stroke="#062855" stroke-width="5.98425" stroke-linecap="round"/>
<path d="M384.774 85.4744C384.246 90.3212 384.401 91.5873 384.39 100.575" stroke="#062855" stroke-width="5.98425" stroke-linecap="round"/>
<path d="M402.321 83.6953C401.768 87.8969 401.877 88.9908 401.689 96.77" stroke="#062855" stroke-width="5.98425" stroke-linecap="round"/>
<path d="M418.536 83.2813C417.982 87.4828 418.091 88.5768 417.904 96.356" stroke="#062855" stroke-width="5.98425" stroke-linecap="round"/>
<path fill-rule="evenodd" clip-rule="evenodd" d="M1499.72 496.527C1534.58 509.559 1573.22 511.682 1605.83 493.784C1615.8 504.209 1627.61 512.673 1641.39 518.227C1677.66 532.835 1715.31 514.33 1750.68 496.946C1752.57 496.021 1754.44 495.1 1756.31 494.187C1758.26 493.232 1760.23 492.276 1762.2 491.317C1797.21 474.309 1834.7 456.093 1844.67 418.858C1855.52 378.338 1832.39 338.659 1806.86 305.382C1780.53 271.073 1747.84 238.509 1704.64 236.393C1670.88 234.739 1638.47 247.769 1612.84 269.493C1600.41 269.112 1587.38 270.087 1574.6 271.044C1567.46 271.578 1560.4 272.107 1553.57 272.39L1551.75 272.465L1551.75 272.465C1547.49 272.641 1543.22 272.817 1538.96 273.03C1516.07 253.609 1482.48 257.932 1449.84 262.132C1441.35 263.225 1432.92 264.31 1424.76 264.966L1422.58 265.141C1396.15 267.258 1369.51 269.393 1347.32 280.937C1329.36 272.911 1309.46 269.003 1289.3 269.441C1251.35 270.266 1218.38 290.377 1192.76 318.386C1185.34 326.505 1177.65 335.11 1170.55 344.114C1165.14 343.636 1159.69 343.5 1154.24 343.72C1145.57 344.07 1137.33 345.662 1129.48 348.25C1125.04 346.127 1120.38 344.338 1115.48 342.928C1083 333.577 1048.47 338.828 1018.53 354.095C1006.53 350.875 993.619 348.836 980.957 346.836C973.888 345.719 966.895 344.614 960.179 343.323L958.391 342.979C954.208 342.174 950.012 341.367 945.812 340.596C927.987 316.444 894.303 312.95 861.569 309.553C853.051 308.67 844.597 307.793 836.503 306.56C835.783 306.45 835.062 306.34 834.341 306.23C808.135 302.231 781.713 298.2 757.462 304.347C741.823 292.416 723.351 284.05 703.626 279.853C666.5 271.954 629.799 283.969 598.443 305.358C589.353 311.557 579.899 318.171 570.924 325.307C565.766 323.601 560.493 322.219 555.136 321.183C521.314 314.642 489.579 328.705 460.703 347.777C445.015 336.591 422.968 333.459 400.864 330.319C389.946 328.768 379.014 327.215 368.828 324.688C358.25 322.065 347.458 318.14 336.683 314.221C312.043 305.26 287.492 296.332 265.808 303.068C246.237 284.247 220.413 272.145 193.031 265.669C153.918 256.419 111.483 257.394 79.5708 281.827C47.2206 306.595 30.5358 347.565 32.9434 388.236C35.1792 426.007 62.5607 454.341 91.2436 479.017C121.516 505.059 154.819 532.219 194.43 527.162C215.697 524.446 235.699 516.038 252.754 503.505C257.565 509.796 263.065 515.647 269.303 520.962C297.891 545.319 335.367 560.816 371.84 551.861C380.99 549.615 389.126 545.745 396.469 540.691C406.122 553.048 417.929 563.781 431.226 572.091C465.649 593.605 508.225 581.212 546.933 568.985C580.151 558.493 609.024 540.06 627.034 510.241C628.38 508.012 629.707 505.759 631.007 503.483C640.686 511.784 650.395 519.92 660.606 526.183C660.842 527.035 661.087 527.884 661.34 528.732C672.177 564.983 705.327 586.283 738.904 603.724C774.341 622.131 812.985 640.93 850.381 626.924C870.458 619.405 887.999 606.633 901.726 590.524C907.852 595.544 914.546 599.978 921.837 603.72C951.747 619.075 986.962 625.886 1018.01 614.891C1037.43 618.766 1058.51 616.03 1079.47 611.751C1083.3 613.471 1087.2 615.01 1091.17 616.357C1129.61 629.403 1168.21 607.578 1203.08 586.8C1233.01 568.97 1256.89 544.408 1267.58 511.253C1268.38 508.776 1269.15 506.278 1269.89 503.765C1296.11 517.329 1322.28 529.995 1349.23 519.816C1364.87 513.909 1377.78 503.753 1388.16 491.072C1412.98 495.222 1438.32 490.077 1462.31 480.277C1474.38 486.577 1487.21 491.853 1499.72 496.527Z" fill="#3D5D09"/>
<path d="M1605.83 493.784L1609.16 490.605L1606.72 488.052L1603.62 489.751L1605.83 493.784ZM1499.72 496.527L1498.11 500.836L1498.11 500.836L1499.72 496.527ZM1641.39 518.227L1643.11 513.96L1643.11 513.96L1641.39 518.227ZM1750.68 496.946L1752.71 501.074L1752.71 501.074L1750.68 496.946ZM1756.31 494.187L1754.29 490.054L1754.29 490.054L1756.31 494.187ZM1762.2 491.317L1760.19 487.179L1760.19 487.179L1762.2 491.317ZM1844.67 418.858L1849.11 420.048L1849.11 420.048L1844.67 418.858ZM1806.86 305.382L1810.51 302.581L1806.86 305.382ZM1704.64 236.393L1704.86 231.798L1704.64 236.393ZM1612.84 269.493L1612.7 274.091L1614.46 274.145L1615.81 273.002L1612.84 269.493ZM1574.6 271.044L1574.94 275.631L1574.94 275.631L1574.6 271.044ZM1553.57 272.39L1553.76 276.986L1553.76 276.986L1553.57 272.39ZM1551.75 272.465L1551.56 267.869L1551.56 267.869L1551.75 272.465ZM1551.75 272.465L1551.94 277.061L1551.94 277.061L1551.75 272.465ZM1538.96 273.03L1535.98 276.538L1537.37 277.715L1539.19 277.624L1538.96 273.03ZM1449.84 262.132L1449.25 257.57L1449.25 257.57L1449.84 262.132ZM1424.76 264.966L1425.13 269.552L1425.13 269.552L1424.76 264.966ZM1422.58 265.141L1422.94 269.727L1422.95 269.727L1422.58 265.141ZM1347.32 280.937L1345.44 285.137L1347.47 286.043L1349.44 285.018L1347.32 280.937ZM1289.3 269.441L1289.2 264.842L1289.2 264.842L1289.3 269.441ZM1192.76 318.386L1196.16 321.49L1196.16 321.49L1192.76 318.386ZM1170.55 344.114L1170.15 348.696L1172.63 348.915L1174.17 346.962L1170.55 344.114ZM1154.24 343.72L1154.06 339.124L1154.24 343.72ZM1129.48 348.25L1127.49 352.399L1129.16 353.197L1130.91 352.619L1129.48 348.25ZM1115.48 342.928L1116.75 338.507L1116.75 338.507L1115.48 342.928ZM1018.53 354.095L1017.34 358.538L1019.05 358.996L1020.62 358.193L1018.53 354.095ZM980.957 346.836L980.24 351.379L980.24 351.379L980.957 346.836ZM960.179 343.323L959.31 347.84L959.311 347.84L960.179 343.323ZM958.391 342.979L957.522 347.496L957.522 347.496L958.391 342.979ZM945.812 340.596L942.111 343.328L943.192 344.792L944.982 345.121L945.812 340.596ZM861.569 309.553L861.094 314.129L861.094 314.129L861.569 309.553ZM836.503 306.56L837.196 302.012L837.196 302.012L836.503 306.56ZM834.341 306.23L833.647 310.778L833.647 310.778L834.341 306.23ZM757.462 304.347L754.672 308.004L756.438 309.352L758.592 308.806L757.462 304.347ZM703.626 279.853L702.668 284.352L702.668 284.352L703.626 279.853ZM598.443 305.358L601.035 309.158L601.035 309.158L598.443 305.358ZM570.924 325.307L569.479 329.674L571.84 330.455L573.786 328.908L570.924 325.307ZM555.136 321.183L554.263 325.7L554.263 325.7L555.136 321.183ZM460.703 347.777L458.033 351.522L460.604 353.356L463.239 351.615L460.703 347.777ZM400.864 330.319L401.511 325.765L401.511 325.765L400.864 330.319ZM368.828 324.688L369.935 320.224L369.935 320.224L368.828 324.688ZM336.683 314.221L335.11 318.544L335.11 318.544L336.683 314.221ZM265.808 303.068L262.62 306.383L264.578 308.267L267.173 307.461L265.808 303.068ZM193.031 265.669L194.09 261.193L194.09 261.193L193.031 265.669ZM79.5708 281.827L82.3672 285.479L82.3672 285.479L79.5708 281.827ZM32.9434 388.236L37.5354 387.965L32.9434 388.236ZM91.2436 479.017L88.2436 482.504L88.2436 482.504L91.2436 479.017ZM194.43 527.162L193.848 522.599L193.848 522.599L194.43 527.162ZM252.754 503.505L256.408 500.71L253.666 497.126L250.03 499.798L252.754 503.505ZM269.303 520.962L266.32 524.463L266.32 524.463L269.303 520.962ZM371.84 551.861L370.744 547.394L370.744 547.394L371.84 551.861ZM396.469 540.691L400.094 537.859L397.428 534.446L393.861 536.902L396.469 540.691ZM431.226 572.091L433.664 568.191L433.664 568.191L431.226 572.091ZM546.933 568.985L545.548 564.599L545.548 564.599L546.933 568.985ZM627.034 510.241L630.972 512.619L630.972 512.619L627.034 510.241ZM631.007 503.483L634.002 499.991L629.775 496.366L627.013 501.201L631.007 503.483ZM660.606 526.183L665.039 524.955L664.556 523.209L663.012 522.262L660.606 526.183ZM661.34 528.732L656.933 530.049L656.933 530.049L661.34 528.732ZM738.904 603.724L736.783 607.806L736.783 607.806L738.904 603.724ZM850.381 626.924L848.768 622.616L848.768 622.616L850.381 626.924ZM901.726 590.524L904.641 586.966L901.151 584.106L898.224 587.54L901.726 590.524ZM921.837 603.72L923.937 599.628L923.937 599.628L921.837 603.72ZM1018.01 614.891L1018.91 610.38L1017.67 610.132L1016.47 610.555L1018.01 614.891ZM1079.47 611.751L1081.36 607.556L1080.01 606.947L1078.55 607.244L1079.47 611.751ZM1091.17 616.357L1089.69 620.713L1089.69 620.713L1091.17 616.357ZM1203.08 586.8L1200.73 582.849L1200.73 582.849L1203.08 586.8ZM1267.58 511.253L1263.2 509.841L1263.2 509.841L1267.58 511.253ZM1269.89 503.765L1272.01 499.679L1267.06 497.12L1265.48 502.459L1269.89 503.765ZM1349.23 519.816L1350.85 524.119L1350.85 524.119L1349.23 519.816ZM1388.16 491.072L1388.91 486.535L1386.28 486.095L1384.59 488.16L1388.16 491.072ZM1462.31 480.277L1464.44 476.199L1462.55 475.211L1460.58 476.018L1462.31 480.277ZM1603.62 489.751C1572.55 506.802 1535.4 504.953 1501.33 492.218L1498.11 500.836C1533.77 514.164 1573.89 516.563 1608.05 497.817L1603.62 489.751ZM1643.11 513.96C1630 508.677 1618.73 500.613 1609.16 490.605L1602.51 496.963C1612.88 507.806 1625.22 516.668 1639.68 522.494L1643.11 513.96ZM1748.66 492.817C1730.88 501.551 1713.03 510.307 1695.17 515.144C1677.4 519.954 1660.02 520.77 1643.11 513.96L1639.68 522.494C1659.03 530.292 1678.6 529.16 1697.57 524.024C1716.45 518.914 1735.11 509.725 1752.71 501.074L1748.66 492.817ZM1754.29 490.054C1752.41 490.97 1750.54 491.893 1748.66 492.817L1752.71 501.074C1754.59 500.149 1756.47 499.23 1758.33 498.32L1754.29 490.054ZM1760.19 487.179C1758.22 488.138 1756.25 489.096 1754.29 490.054L1758.33 498.32C1760.28 497.367 1762.24 496.414 1764.21 495.454L1760.19 487.179ZM1840.23 417.669C1835.59 434.975 1824.54 448.05 1810.05 459.003C1795.48 470.017 1777.78 478.633 1760.19 487.179L1764.21 495.454C1781.63 486.992 1800.18 477.997 1815.6 466.342C1831.1 454.627 1843.78 439.976 1849.11 420.048L1840.23 417.669ZM1803.21 308.182C1828.77 341.49 1850.44 379.505 1840.23 417.669L1849.11 420.048C1860.59 377.171 1836.02 335.828 1810.51 302.581L1803.21 308.182ZM1704.41 240.987C1745.36 242.993 1776.92 273.924 1803.21 308.182L1810.51 302.581C1784.14 268.222 1750.31 234.025 1704.86 231.798L1704.41 240.987ZM1615.81 273.002C1640.71 251.906 1672 239.399 1704.41 240.987L1704.86 231.798C1669.76 230.078 1636.24 243.631 1609.86 265.983L1615.81 273.002ZM1574.94 275.631C1587.77 274.671 1600.56 273.718 1612.7 274.091L1612.98 264.895C1600.27 264.505 1586.99 265.504 1574.26 266.457L1574.94 275.631ZM1553.76 276.986C1560.68 276.699 1567.82 276.164 1574.94 275.631L1574.26 266.457C1567.1 266.992 1560.12 267.514 1553.38 267.794L1553.76 276.986ZM1551.94 277.061L1553.76 276.986L1553.38 267.794L1551.56 267.869L1551.94 277.061ZM1551.94 277.061L1551.94 277.061L1551.56 267.869L1551.56 267.869L1551.94 277.061ZM1539.19 277.624C1543.43 277.412 1547.68 277.237 1551.94 277.061L1551.56 267.869C1547.31 268.044 1543.02 268.221 1538.73 268.436L1539.19 277.624ZM1450.43 266.695C1466.84 264.582 1482.97 262.521 1497.81 263.316C1512.58 264.108 1525.58 267.71 1535.98 276.538L1541.94 269.523C1529.45 258.929 1514.22 254.982 1498.3 254.13C1482.47 253.281 1465.48 255.482 1449.25 257.57L1450.43 266.695ZM1425.13 269.552C1433.42 268.885 1441.96 267.785 1450.43 266.695L1449.25 257.57C1440.74 258.666 1432.42 259.735 1424.39 260.381L1425.13 269.552ZM1422.95 269.727L1425.13 269.552L1424.39 260.381L1422.21 260.556L1422.95 269.727ZM1349.44 285.018C1370.66 273.983 1396.3 271.861 1422.94 269.727L1422.21 260.556C1396 262.656 1368.37 264.803 1345.19 276.856L1349.44 285.018ZM1289.4 274.04C1308.9 273.616 1328.12 277.399 1345.44 285.137L1349.19 276.738C1330.59 268.423 1310.01 264.39 1289.2 264.842L1289.4 274.04ZM1196.16 321.49C1221.24 294.07 1253.1 274.829 1289.4 274.04L1289.2 264.842C1249.6 265.703 1215.52 286.684 1189.37 315.282L1196.16 321.49ZM1174.17 346.962C1181.16 338.095 1188.75 329.591 1196.16 321.49L1189.37 315.282C1181.93 323.419 1174.15 332.125 1166.94 341.266L1174.17 346.962ZM1154.43 348.317C1159.68 348.105 1164.93 348.236 1170.15 348.696L1170.96 339.532C1165.35 339.037 1159.71 338.896 1154.06 339.124L1154.43 348.317ZM1130.91 352.619C1138.39 350.156 1146.21 348.648 1154.43 348.317L1154.06 339.124C1144.94 339.492 1136.27 341.167 1128.04 343.881L1130.91 352.619ZM1114.21 347.348C1118.86 348.687 1123.28 350.384 1127.49 352.399L1131.46 344.1C1126.8 341.87 1121.9 339.99 1116.75 338.507L1114.21 347.348ZM1020.62 358.193C1049.69 343.367 1083.02 338.37 1114.21 347.348L1116.75 338.507C1082.98 328.783 1047.24 334.289 1016.44 349.997L1020.62 358.193ZM980.24 351.379C992.949 353.387 1005.61 355.392 1017.34 358.538L1019.73 349.652C1007.44 346.358 994.289 344.284 981.675 342.292L980.24 351.379ZM959.311 347.84C966.115 349.149 973.185 350.265 980.24 351.379L981.675 342.292C974.591 341.173 967.675 340.08 961.048 338.806L959.311 347.84ZM957.522 347.496L959.31 347.84L961.048 338.806L959.26 338.462L957.522 347.496ZM944.982 345.121C949.159 345.887 953.335 346.691 957.522 347.496L959.26 338.462C955.08 337.658 950.864 336.846 946.642 336.072L944.982 345.121ZM861.094 314.129C877.557 315.837 893.724 317.528 907.989 321.706C922.178 325.862 934.009 332.35 942.111 343.328L949.513 337.865C939.79 324.691 925.867 317.356 910.574 312.877C895.357 308.42 878.315 306.666 862.043 304.978L861.094 314.129ZM835.811 311.108C844.032 312.36 852.597 313.247 861.094 314.129L862.043 304.978C853.504 304.092 845.162 303.226 837.196 302.012L835.811 311.108ZM833.647 310.778C834.368 310.888 835.089 310.998 835.811 311.108L837.196 302.012C836.476 301.903 835.756 301.793 835.035 301.683L833.647 310.778ZM758.592 308.806C781.775 302.93 807.226 306.746 833.647 310.778L835.035 301.683C809.043 297.717 781.651 293.47 756.332 299.888L758.592 308.806ZM702.668 284.352C721.754 288.413 739.594 296.502 754.672 308.004L760.252 300.689C744.051 288.331 724.949 279.687 704.583 275.354L702.668 284.352ZM601.035 309.158C631.732 288.219 667.158 276.797 702.668 284.352L704.583 275.354C665.842 267.111 627.866 279.719 595.85 301.557L601.035 309.158ZM573.786 328.908C582.625 321.88 591.966 315.343 601.035 309.158L595.85 301.557C586.741 307.771 577.172 314.462 568.061 321.707L573.786 328.908ZM572.368 320.94C567.027 319.173 561.562 317.741 556.01 316.667L554.263 325.7C559.423 326.697 564.506 328.029 569.479 329.674L572.368 320.94ZM556.01 316.667C520.363 309.773 487.321 324.683 458.168 343.939L463.239 351.615C491.837 332.726 522.264 319.511 554.263 325.7L556.01 316.667ZM400.217 334.873C422.655 338.061 443.442 341.119 458.033 351.522L463.374 344.032C446.588 332.063 423.28 328.857 401.511 325.765L400.217 334.873ZM367.72 329.153C378.175 331.746 389.347 333.329 400.217 334.873L401.511 325.765C390.545 324.207 379.852 322.684 369.935 320.224L367.72 329.153ZM335.11 318.544C345.839 322.445 356.865 326.46 367.72 329.153L369.935 320.224C359.636 317.669 349.077 313.834 338.255 309.898L335.11 318.544ZM267.173 307.461C276.983 304.413 287.674 304.836 299.19 307.26C310.741 309.69 322.723 314.039 335.11 318.544L338.255 309.898C326.003 305.442 313.39 300.846 301.084 298.257C288.744 295.66 276.318 294.986 264.444 298.675L267.173 307.461ZM191.973 270.146C218.775 276.485 243.787 288.273 262.62 306.383L268.997 299.752C248.687 280.222 222.051 267.806 194.09 261.193L191.973 270.146ZM82.3672 285.479C112.697 262.258 153.465 261.038 191.973 270.146L194.09 261.193C154.372 251.799 110.269 252.53 76.7744 278.175L82.3672 285.479ZM37.5354 387.965C35.2083 348.652 51.3561 309.222 82.3672 285.479L76.7744 278.175C43.0851 303.968 25.8634 346.477 28.3515 388.508L37.5354 387.965ZM94.2435 475.529C65.5215 450.82 39.6459 423.617 37.5354 387.965L28.3515 388.508C30.7126 428.396 59.5999 457.862 88.2436 482.504L94.2435 475.529ZM193.848 522.599C175.313 524.965 158.076 519.838 141.557 510.724C124.968 501.571 109.406 488.574 94.2435 475.529L88.2436 482.504C103.353 495.502 119.579 509.106 137.113 518.779C154.716 528.491 173.937 534.415 195.013 531.724L193.848 522.599ZM250.03 499.798C233.562 511.9 214.289 519.989 193.848 522.599L195.013 531.724C217.105 528.904 237.836 520.176 255.478 507.212L250.03 499.798ZM272.286 517.46C266.303 512.363 261.027 506.75 256.408 500.71L249.1 506.3C254.104 512.842 259.827 518.932 266.32 524.463L272.286 517.46ZM370.744 547.394C336.241 555.865 300.246 541.282 272.286 517.46L266.32 524.463C295.535 549.355 334.492 565.768 372.937 556.329L370.744 547.394ZM393.861 536.902C386.931 541.671 379.302 545.293 370.744 547.394L372.937 556.329C382.678 553.937 391.32 549.818 399.077 544.48L393.861 536.902ZM392.844 543.523C402.818 556.291 415.024 567.39 428.788 575.992L433.664 568.191C420.835 560.173 409.425 549.805 400.094 537.859L392.844 543.523ZM428.788 575.992C447.138 587.461 467.509 589.768 487.921 587.769C508.252 585.778 529.007 579.472 548.319 573.372L545.548 564.599C526.151 570.726 506.264 576.729 487.024 578.613C467.866 580.489 449.736 578.236 433.664 568.191L428.788 575.992ZM548.319 573.372C582.267 562.648 612.224 543.66 630.972 512.619L623.097 507.863C605.825 536.46 578.036 554.337 545.548 564.599L548.319 573.372ZM630.972 512.619C632.335 510.361 633.681 508.075 635.001 505.765L627.013 501.201C625.732 503.443 624.425 505.664 623.097 507.863L630.972 512.619ZM663.012 522.262C653.153 516.215 643.699 508.308 634.002 499.991L628.012 506.974C637.672 515.259 647.638 523.625 658.201 530.104L663.012 522.262ZM665.747 527.414C665.503 526.597 665.267 525.777 665.039 524.955L656.173 527.411C656.417 528.293 656.671 529.172 656.933 530.049L665.747 527.414ZM741.024 599.642C707.401 582.177 675.977 561.633 665.747 527.414L656.933 530.049C668.378 568.332 703.252 590.389 736.783 607.806L741.024 599.642ZM848.768 622.616C831.269 629.17 813.316 628.132 795.147 623.049C776.901 617.944 758.774 608.862 741.024 599.642L736.783 607.806C754.471 616.993 773.384 626.514 792.668 631.909C812.03 637.325 832.097 638.684 851.994 631.232L848.768 622.616ZM898.224 587.54C884.97 603.096 868.065 615.389 848.768 622.616L851.994 631.232C872.851 623.421 891.028 610.171 905.227 593.507L898.224 587.54ZM923.937 599.628C916.945 596.038 910.522 591.785 904.641 586.966L898.81 594.082C905.181 599.303 912.148 603.917 919.736 607.813L923.937 599.628ZM1016.47 610.555C987.02 620.986 953.164 614.632 923.937 599.628L919.736 607.813C950.33 623.519 986.904 630.787 1019.55 619.228L1016.47 610.555ZM1078.55 607.244C1057.7 611.501 1037.38 614.065 1018.91 610.38L1017.11 619.402C1037.48 623.467 1059.32 620.559 1080.39 616.258L1078.55 607.244ZM1092.65 612.001C1088.82 610.702 1085.05 609.216 1081.36 607.556L1077.59 615.946C1081.54 617.725 1085.58 619.318 1089.69 620.713L1092.65 612.001ZM1200.73 582.849C1183.25 593.26 1165.27 603.663 1146.98 609.909C1128.76 616.129 1110.6 618.092 1092.65 612.001L1089.69 620.713C1110.18 627.668 1130.54 625.242 1149.95 618.616C1169.28 612.016 1188.04 601.118 1205.44 590.752L1200.73 582.849ZM1263.2 509.841C1252.95 541.638 1230 565.41 1200.73 582.849L1205.44 590.752C1236.02 572.53 1260.83 547.178 1271.96 512.665L1263.2 509.841ZM1265.48 502.459C1264.75 504.935 1263.99 507.397 1263.2 509.841L1271.96 512.665C1272.76 510.155 1273.55 507.622 1274.31 505.07L1265.48 502.459ZM1347.6 515.513C1322.86 524.856 1298.58 513.428 1272.01 499.679L1267.78 507.85C1293.63 521.23 1321.69 535.134 1350.85 524.119L1347.6 515.513ZM1384.59 488.16C1374.65 500.32 1362.37 509.935 1347.6 515.513L1350.85 524.119C1367.37 517.882 1380.92 507.186 1391.72 493.984L1384.59 488.16ZM1460.58 476.018C1437.07 485.62 1412.62 490.498 1388.91 486.535L1387.4 495.609C1413.34 499.946 1439.58 494.534 1464.05 484.535L1460.58 476.018ZM1501.33 492.218C1488.9 487.575 1476.27 482.375 1464.44 476.199L1460.19 484.354C1472.49 490.779 1485.52 496.13 1498.11 500.836L1501.33 492.218Z" fill="#2D4603"/>
<path fill-rule="evenodd" clip-rule="evenodd" d="M178.224 311.917C211.982 310.263 244.389 323.293 270.025 345.017C282.45 344.636 295.482 345.612 308.265 346.568C315.402 347.103 322.462 347.631 329.295 347.914L331.114 347.989C335.37 348.165 339.64 348.341 343.904 348.554C366.793 329.133 400.38 333.456 433.021 337.657C441.515 338.75 449.945 339.835 458.105 340.491L459.193 340.578L460.285 340.666C486.711 342.783 513.353 344.917 535.548 356.462C553.506 348.435 573.404 344.528 593.567 344.966C631.514 345.79 664.482 365.901 690.099 393.91C697.524 402.029 705.21 410.635 712.309 419.639C717.72 419.161 723.17 419.025 728.621 419.245C737.29 419.595 745.531 421.186 753.388 423.774C757.826 421.651 762.486 419.863 767.385 418.452C799.864 409.101 834.396 414.352 864.329 429.619C876.336 426.399 889.245 424.36 901.906 422.36L901.907 422.36L901.907 422.36L901.908 422.36L901.908 422.36C908.977 421.243 915.969 420.139 922.685 418.848L924.473 418.504C928.656 417.699 932.852 416.891 937.051 416.121C954.877 391.969 988.56 388.474 1021.3 385.078C1029.81 384.194 1038.27 383.317 1046.36 382.084C1047.08 381.975 1047.8 381.865 1048.52 381.755C1074.73 377.756 1101.15 373.724 1125.4 379.871C1141.04 367.941 1159.51 359.575 1179.24 355.377C1216.36 347.478 1253.06 359.493 1284.42 380.882C1293.51 387.082 1302.96 393.695 1311.94 400.831C1317.1 399.126 1322.37 397.744 1327.73 396.708C1361.55 390.167 1393.28 404.229 1422.16 423.302C1437.85 412.116 1459.9 408.984 1482 405.844C1492.92 404.292 1503.85 402.739 1514.04 400.213C1524.61 397.589 1535.41 393.664 1546.18 389.745C1570.82 380.785 1595.37 371.856 1617.05 378.592C1636.63 359.772 1662.45 347.67 1689.83 341.194C1728.94 331.943 1771.38 332.918 1803.29 357.351C1835.64 382.119 1852.33 423.089 1849.92 463.761C1847.68 501.531 1820.3 529.865 1791.62 554.541C1761.35 580.584 1728.04 607.743 1688.43 602.686C1667.17 599.971 1647.16 591.562 1630.11 579.03C1625.3 585.32 1619.8 591.172 1613.56 596.486C1584.97 620.843 1547.5 636.341 1511.02 627.386C1501.87 625.139 1493.74 621.269 1486.39 616.215C1476.74 628.573 1464.93 639.306 1451.64 647.616C1417.21 669.129 1374.64 656.737 1335.93 644.51C1302.71 634.017 1273.84 615.585 1255.83 585.765C1254.48 583.537 1253.16 581.284 1251.86 579.007C1242.18 587.308 1232.47 595.444 1222.26 601.708C1222.02 602.559 1221.78 603.409 1221.52 604.256C1210.69 640.507 1177.54 661.808 1143.96 679.248C1108.52 697.655 1069.88 716.454 1032.48 702.448C1012.4 694.929 994.864 682.158 981.138 666.048C975.012 671.068 968.317 675.502 961.027 679.245C931.117 694.6 895.902 701.411 864.853 690.416C845.436 694.291 824.354 691.554 803.388 687.275C799.565 688.995 795.661 690.535 791.694 691.881C753.255 704.928 714.655 683.102 679.782 662.325C649.855 644.494 625.978 619.932 615.286 586.777C614.487 584.3 613.713 581.803 612.969 579.289C586.758 592.853 560.588 605.519 533.635 595.341C517.993 589.433 505.079 579.277 494.708 566.596C469.886 570.747 444.54 565.601 420.548 555.801C408.483 562.101 395.653 567.377 383.146 572.052C348.279 585.083 309.644 587.207 277.028 569.309C267.062 579.734 255.256 588.197 241.469 593.751C205.207 608.36 167.553 589.855 132.179 572.47C130.298 571.546 128.423 570.624 126.556 569.711C124.608 568.759 122.646 567.806 120.677 566.849L120.66 566.841C85.6544 549.833 48.1627 531.617 38.1938 494.383C27.3452 453.863 50.4688 414.184 76.0069 380.906C102.337 346.597 135.028 314.033 178.224 311.917Z" fill="#4E7411"/>
<path d="M270.025 345.017L267.051 348.527L268.399 349.669L270.166 349.615L270.025 345.017ZM178.224 311.917L178.449 316.512L178.224 311.917ZM308.265 346.568L307.921 351.155L307.921 351.155L308.265 346.568ZM329.295 347.914L329.104 352.51L329.105 352.51L329.295 347.914ZM331.114 347.989L330.924 352.585L330.924 352.585L331.114 347.989ZM343.904 348.554L343.674 353.149L345.492 353.24L346.88 352.062L343.904 348.554ZM433.021 337.657L433.608 333.094L433.021 337.657ZM458.105 340.491L457.736 345.076L457.737 345.076L458.105 340.491ZM459.193 340.578L458.825 345.163L458.826 345.163L459.193 340.578ZM460.285 340.666L459.918 345.251L459.918 345.251L460.285 340.666ZM535.548 356.462L533.426 360.543L535.397 361.568L537.425 360.661L535.548 356.462ZM593.567 344.966L593.467 349.565L593.467 349.565L593.567 344.966ZM690.099 393.91L693.493 390.806L693.493 390.806L690.099 393.91ZM712.309 419.639L708.697 422.487L710.237 424.44L712.714 424.221L712.309 419.639ZM728.621 419.245L728.807 414.649L728.807 414.649L728.621 419.245ZM753.388 423.774L751.949 428.143L753.705 428.722L755.373 427.924L753.388 423.774ZM767.385 418.452L766.112 414.032L766.112 414.032L767.385 418.452ZM864.329 429.619L862.239 433.717L863.814 434.52L865.521 434.062L864.329 429.619ZM901.906 422.36L902.624 426.904L902.643 426.901L902.662 426.897L901.906 422.36ZM901.908 422.36L901.191 417.816L901.171 417.819L901.152 417.822L901.908 422.36ZM922.685 418.848L923.553 423.365L923.554 423.365L922.685 418.848ZM924.473 418.504L925.342 423.021L925.342 423.021L924.473 418.504ZM937.051 416.121L937.881 420.645L939.672 420.317L940.752 418.852L937.051 416.121ZM1021.3 385.078L1021.77 389.653L1021.77 389.653L1021.3 385.078ZM1046.36 382.084L1045.67 377.537L1045.67 377.537L1046.36 382.084ZM1048.52 381.755L1047.83 377.207L1047.83 377.207L1048.52 381.755ZM1125.4 379.871L1124.27 384.33L1126.43 384.876L1128.19 383.528L1125.4 379.871ZM1179.24 355.377L1178.28 350.878L1178.28 350.878L1179.24 355.377ZM1284.42 380.882L1287.01 377.082L1287.01 377.082L1284.42 380.882ZM1311.94 400.831L1309.08 404.432L1311.02 405.98L1313.38 405.199L1311.94 400.831ZM1327.73 396.708L1326.85 392.191L1326.85 392.191L1327.73 396.708ZM1422.16 423.302L1419.62 427.14L1422.26 428.88L1424.83 427.047L1422.16 423.302ZM1482 405.844L1482.65 410.398L1482.65 410.398L1482 405.844ZM1514.04 400.213L1512.93 395.748L1512.93 395.748L1514.04 400.213ZM1546.18 389.745L1544.61 385.422L1544.61 385.422L1546.18 389.745ZM1617.05 378.592L1615.69 382.985L1618.28 383.791L1620.24 381.908L1617.05 378.592ZM1689.83 341.194L1690.89 345.67L1690.89 345.67L1689.83 341.194ZM1803.29 357.351L1806.09 353.699L1806.09 353.699L1803.29 357.351ZM1849.92 463.761L1854.51 464.033L1854.51 464.033L1849.92 463.761ZM1791.62 554.541L1788.62 551.054L1788.62 551.054L1791.62 554.541ZM1688.43 602.686L1687.85 607.249L1687.85 607.249L1688.43 602.686ZM1630.11 579.03L1632.83 575.323L1629.2 572.651L1626.46 576.235L1630.11 579.03ZM1613.56 596.486L1610.58 592.985L1610.58 592.985L1613.56 596.486ZM1511.02 627.386L1512.12 622.918L1512.12 622.918L1511.02 627.386ZM1486.39 616.215L1489 612.426L1485.44 609.971L1482.77 613.383L1486.39 616.215ZM1451.64 647.616L1454.08 651.517L1454.08 651.517L1451.64 647.616ZM1335.93 644.51L1337.32 640.123L1337.32 640.123L1335.93 644.51ZM1255.83 585.765L1251.89 588.143L1251.89 588.143L1255.83 585.765ZM1251.86 579.007L1255.85 576.726L1253.09 571.891L1248.86 575.516L1251.86 579.007ZM1222.26 601.708L1219.85 597.787L1218.31 598.734L1217.82 600.48L1222.26 601.708ZM1221.52 604.256L1225.93 605.574L1225.93 605.574L1221.52 604.256ZM1143.96 679.248L1146.08 683.33L1146.08 683.33L1143.96 679.248ZM1032.48 702.448L1030.87 706.756L1030.87 706.756L1032.48 702.448ZM981.138 666.048L984.639 663.065L981.712 659.63L978.222 662.49L981.138 666.048ZM961.027 679.245L963.128 683.337L963.128 683.337L961.027 679.245ZM864.853 690.416L866.389 686.08L865.195 685.657L863.953 685.905L864.853 690.416ZM803.388 687.275L804.308 682.768L802.855 682.471L801.501 683.08L803.388 687.275ZM791.694 691.881L793.172 696.237L793.172 696.237L791.694 691.881ZM679.782 662.325L682.137 658.373L682.137 658.373L679.782 662.325ZM615.286 586.777L619.664 585.366L619.664 585.366L615.286 586.777ZM612.969 579.289L617.38 577.984L615.8 572.644L610.855 575.204L612.969 579.289ZM533.635 595.341L532.01 599.644L532.01 599.644L533.635 595.341ZM494.708 566.596L498.268 563.684L496.58 561.619L493.949 562.059L494.708 566.596ZM420.548 555.801L422.288 551.543L420.311 550.735L418.419 551.723L420.548 555.801ZM383.146 572.052L381.536 567.743L381.536 567.743L383.146 572.052ZM277.028 569.309L279.241 565.276L276.145 563.576L273.704 566.13L277.028 569.309ZM241.469 593.751L239.75 589.484L239.75 589.484L241.469 593.751ZM132.179 572.47L130.15 576.598L130.15 576.598L132.179 572.47ZM126.556 569.711L124.536 573.844L124.536 573.844L126.556 569.711ZM120.677 566.849L122.687 562.712L122.684 562.71L120.677 566.849ZM120.66 566.841L118.65 570.979L118.653 570.98L120.66 566.841ZM38.1938 494.383L42.6373 493.193L42.6373 493.193L38.1938 494.383ZM76.0069 380.906L72.3576 378.106L72.3576 378.106L76.0069 380.906ZM272.999 341.508C246.622 319.156 213.104 305.603 177.999 307.323L178.449 316.512C210.86 314.924 242.156 327.43 267.051 348.527L272.999 341.508ZM308.608 341.981C295.874 341.028 282.595 340.03 269.884 340.419L270.166 349.615C282.306 349.243 295.09 350.195 307.921 351.155L308.608 341.981ZM329.485 343.318C322.742 343.039 315.76 342.516 308.608 341.981L307.921 351.155C315.044 351.689 322.181 352.223 329.104 352.51L329.485 343.318ZM331.304 343.393L329.485 343.318L329.105 352.51L330.924 352.585L331.304 343.393ZM344.134 343.96C339.846 343.746 335.557 343.569 331.304 343.393L330.924 352.585C335.184 352.761 339.434 352.937 343.674 353.149L344.134 343.96ZM433.608 333.094C417.383 331.006 400.393 328.805 384.559 329.654C368.647 330.507 353.413 334.453 340.928 345.047L346.88 352.062C357.284 343.234 370.288 339.632 385.052 338.841C399.894 338.045 416.018 340.106 432.434 342.219L433.608 333.094ZM458.474 335.905C450.442 335.26 442.124 334.19 433.608 333.094L432.434 342.219C440.906 343.309 449.447 344.409 457.736 345.076L458.474 335.905ZM459.561 335.993L458.473 335.905L457.737 345.076L458.825 345.163L459.561 335.993ZM460.653 336.08L459.561 335.993L458.826 345.163L459.918 345.251L460.653 336.08ZM537.671 352.381C514.497 340.328 486.862 338.18 460.653 336.08L459.918 345.251C486.559 347.385 512.208 349.507 533.426 360.543L537.671 352.381ZM593.666 340.367C572.85 339.915 552.274 343.947 533.671 352.262L537.425 360.661C554.738 352.923 573.959 349.141 593.467 349.565L593.666 340.367ZM693.493 390.806C667.338 362.208 633.265 341.227 593.666 340.367L593.467 349.565C629.763 350.353 661.626 369.594 686.704 397.015L693.493 390.806ZM715.922 416.79C708.714 407.649 700.935 398.943 693.493 390.806L686.704 397.015C694.112 405.115 701.706 413.62 708.697 422.487L715.922 416.79ZM728.807 414.649C723.156 414.421 717.509 414.561 711.905 415.056L712.714 424.221C717.931 423.76 723.184 423.629 728.436 423.841L728.807 414.649ZM754.827 419.405C746.589 416.692 737.927 415.017 728.807 414.649L728.436 423.841C736.653 424.173 744.473 425.681 751.949 428.143L754.827 419.405ZM766.112 414.032C760.963 415.514 756.066 417.394 751.403 419.624L755.373 427.924C759.586 425.908 764.008 424.211 768.657 422.873L766.112 414.032ZM866.419 425.521C835.62 409.813 799.887 404.308 766.112 414.032L768.657 422.873C799.841 413.895 833.171 418.892 862.239 433.717L866.419 425.521ZM901.188 417.816C888.575 419.809 875.421 421.882 863.138 425.176L865.521 434.062C877.252 430.916 889.914 428.911 902.624 426.904L901.188 417.816ZM901.151 417.823L901.15 417.823L902.662 426.897L902.663 426.897L901.151 417.823ZM901.151 417.822L901.151 417.823L902.663 426.897L902.664 426.897L901.151 417.822ZM901.152 417.822L901.151 417.822L902.664 426.897L902.664 426.897L901.152 417.822ZM901.152 417.822L901.152 417.822L902.664 426.897L902.665 426.897L901.152 417.822ZM921.816 414.33C915.189 415.604 908.274 416.697 901.191 417.816L902.626 426.903C909.68 425.789 916.749 424.673 923.553 423.365L921.816 414.33ZM923.603 413.986L921.816 414.33L923.554 423.365L925.342 423.021L923.603 413.986ZM936.221 411.596C931.999 412.371 927.783 413.182 923.603 413.986L925.342 423.021C929.528 422.215 933.705 421.411 937.881 420.645L936.221 411.596ZM1020.82 380.502C1004.55 382.191 987.506 383.944 972.289 388.401C956.997 392.88 943.073 400.215 933.35 413.389L940.752 418.852C948.855 407.874 960.686 401.386 974.875 397.23C989.14 393.053 1005.31 391.361 1021.77 389.653L1020.82 380.502ZM1045.67 377.537C1037.7 378.75 1029.36 379.616 1020.82 380.502L1021.77 389.653C1030.27 388.772 1038.83 387.884 1047.05 386.632L1045.67 377.537ZM1047.83 377.207C1047.11 377.317 1046.39 377.427 1045.67 377.537L1047.05 386.632C1047.77 386.522 1048.5 386.412 1049.22 386.302L1047.83 377.207ZM1126.53 375.412C1101.21 368.994 1073.82 373.241 1047.83 377.207L1049.22 386.302C1075.64 382.27 1101.09 378.454 1124.27 384.33L1126.53 375.412ZM1178.28 350.878C1157.91 355.211 1138.81 363.855 1122.61 376.214L1128.19 383.528C1143.27 372.026 1161.11 363.938 1180.19 359.877L1178.28 350.878ZM1287.01 377.082C1255 355.244 1217.02 342.635 1178.28 350.878L1180.19 359.877C1215.71 352.321 1251.13 363.743 1281.83 384.682L1287.01 377.082ZM1314.8 397.231C1305.69 389.986 1296.12 383.296 1287.01 377.082L1281.83 384.682C1290.9 390.868 1300.24 397.405 1309.08 404.432L1314.8 397.231ZM1313.38 405.199C1318.36 403.554 1323.44 402.222 1328.6 401.224L1326.85 392.191C1321.3 393.265 1315.84 394.697 1310.5 396.464L1313.38 405.199ZM1328.6 401.224C1360.6 395.036 1391.03 408.251 1419.62 427.14L1424.7 419.463C1395.54 400.208 1362.5 385.298 1326.85 392.191L1328.6 401.224ZM1481.35 401.289C1459.58 404.382 1436.28 407.588 1419.49 419.556L1424.83 427.047C1439.42 416.644 1460.21 413.585 1482.65 410.398L1481.35 401.289ZM1512.93 395.748C1503.01 398.208 1492.32 399.731 1481.35 401.289L1482.65 410.398C1493.52 408.853 1504.69 407.271 1515.14 404.677L1512.93 395.748ZM1544.61 385.422C1533.79 389.358 1523.23 393.193 1512.93 395.748L1515.14 404.677C1526 401.985 1537.02 397.97 1547.75 394.068L1544.61 385.422ZM1618.42 374.199C1606.55 370.511 1594.12 371.184 1581.78 373.781C1569.47 376.371 1556.86 380.967 1544.61 385.422L1547.75 394.068C1560.14 389.563 1572.12 385.215 1583.67 382.784C1595.19 380.36 1605.88 379.938 1615.69 382.985L1618.42 374.199ZM1688.77 336.717C1660.81 343.33 1634.18 355.746 1613.87 375.276L1620.24 381.908C1639.08 363.798 1664.09 352.009 1690.89 345.67L1688.77 336.717ZM1806.09 353.699C1772.59 328.054 1728.49 327.323 1688.77 336.717L1690.89 345.67C1729.4 336.563 1770.17 337.782 1800.5 361.004L1806.09 353.699ZM1854.51 464.033C1857 422.001 1839.78 379.492 1806.09 353.699L1800.5 361.004C1831.51 384.747 1847.65 424.177 1845.33 463.489L1854.51 464.033ZM1794.62 558.028C1823.26 533.386 1852.15 503.92 1854.51 464.033L1845.33 463.489C1843.22 499.142 1817.34 526.345 1788.62 551.054L1794.62 558.028ZM1687.85 607.249C1708.93 609.94 1728.15 604.016 1745.75 594.303C1763.28 584.63 1779.51 571.026 1794.62 558.028L1788.62 551.054C1773.46 564.098 1757.9 577.096 1741.31 586.248C1724.79 595.362 1707.55 600.489 1689.02 598.123L1687.85 607.249ZM1627.39 582.736C1645.03 595.7 1665.76 604.428 1687.85 607.249L1689.02 598.123C1668.57 595.513 1649.3 587.424 1632.83 575.323L1627.39 582.736ZM1616.54 599.988C1623.04 594.456 1628.76 588.367 1633.76 581.824L1626.46 576.235C1621.84 582.274 1616.56 587.887 1610.58 592.985L1616.54 599.988ZM1509.93 631.853C1548.37 641.292 1587.33 624.879 1616.54 599.988L1610.58 592.985C1582.62 616.807 1546.62 631.389 1512.12 622.918L1509.93 631.853ZM1483.79 620.004C1491.54 625.343 1500.19 629.461 1509.93 631.853L1512.12 622.918C1503.56 620.817 1495.93 617.195 1489 612.426L1483.79 620.004ZM1482.77 613.383C1473.44 625.33 1462.03 635.697 1449.2 643.715L1454.08 651.517C1467.84 642.914 1480.05 631.816 1490.02 619.047L1482.77 613.383ZM1449.2 643.715C1433.13 653.76 1415 656.013 1395.84 654.137C1376.6 652.253 1356.71 646.25 1337.32 640.123L1334.54 648.896C1353.86 654.996 1374.61 661.303 1394.94 663.294C1415.35 665.292 1435.72 662.985 1454.08 651.517L1449.2 643.715ZM1337.32 640.123C1304.83 629.861 1277.04 611.985 1259.77 583.387L1251.89 588.143C1270.64 619.184 1300.6 638.173 1334.54 648.896L1337.32 640.123ZM1259.77 583.387C1258.44 581.188 1257.13 578.967 1255.85 576.726L1247.86 581.289C1249.18 583.6 1250.53 585.886 1251.89 588.143L1259.77 583.387ZM1224.66 605.629C1235.23 599.149 1245.19 590.784 1254.85 582.499L1248.86 575.516C1239.16 583.833 1229.71 591.739 1219.85 597.787L1224.66 605.629ZM1225.93 605.574C1226.19 604.697 1226.45 603.817 1226.69 602.936L1217.82 600.48C1217.6 601.301 1217.36 602.121 1217.12 602.938L1225.93 605.574ZM1146.08 683.33C1179.61 665.914 1214.49 643.857 1225.93 605.574L1217.12 602.938C1206.89 637.157 1175.46 657.702 1141.84 675.166L1146.08 683.33ZM1030.87 706.756C1050.77 714.208 1070.83 712.85 1090.19 707.433C1109.48 702.038 1128.39 692.518 1146.08 683.33L1141.84 675.166C1124.09 684.386 1105.96 693.469 1087.72 698.573C1069.55 703.656 1051.59 704.694 1034.1 698.141L1030.87 706.756ZM977.636 669.031C991.835 685.696 1010.01 698.945 1030.87 706.756L1034.1 698.141C1014.8 690.913 997.893 678.62 984.639 663.065L977.636 669.031ZM963.128 683.337C970.715 679.442 977.682 674.827 984.053 669.606L978.222 662.49C972.341 667.309 965.919 671.563 958.926 675.152L963.128 683.337ZM863.318 694.752C895.96 706.311 932.533 699.043 963.128 683.337L958.926 675.152C929.7 690.156 895.843 696.51 866.389 686.08L863.318 694.752ZM802.469 691.782C823.54 696.083 845.385 698.992 865.753 694.927L863.953 685.905C845.487 689.59 825.168 687.025 804.308 682.768L802.469 691.782ZM793.172 696.237C797.28 694.843 801.32 693.25 805.276 691.47L801.501 683.08C797.809 684.741 794.042 686.226 790.215 687.525L793.172 696.237ZM677.428 666.277C694.825 676.642 713.582 687.54 732.914 694.14C752.324 700.766 772.681 703.192 793.172 696.237L790.215 687.525C772.268 693.617 754.105 691.653 735.887 685.434C717.591 679.188 699.611 668.785 682.137 658.373L677.428 666.277ZM610.908 588.189C622.038 622.702 646.843 648.054 677.428 666.277L682.137 658.373C652.867 640.934 629.918 617.162 619.664 585.366L610.908 588.189ZM608.558 580.594C609.313 583.146 610.099 585.679 610.908 588.189L619.664 585.366C618.876 582.921 618.112 580.459 617.38 577.984L608.558 580.594ZM532.01 599.644C561.176 610.658 589.229 596.754 615.083 583.374L610.855 575.204C584.287 588.953 560 600.38 535.261 591.037L532.01 599.644ZM491.147 569.509C501.945 582.71 515.494 593.407 532.01 599.644L535.261 591.037C520.492 585.46 508.214 575.844 498.268 563.684L491.147 569.509ZM418.809 560.059C443.286 570.058 469.527 575.471 495.466 571.133L493.949 562.059C470.245 566.023 445.795 561.145 422.288 551.543L418.809 560.059ZM384.757 576.36C397.347 571.654 410.374 566.303 422.677 559.879L418.419 551.723C406.592 557.899 393.959 563.099 381.536 567.743L384.757 576.36ZM274.815 573.341C308.976 592.087 349.096 589.689 384.757 576.36L381.536 567.743C347.463 580.477 310.312 582.326 279.241 565.276L274.815 573.341ZM243.188 598.018C257.648 592.193 269.987 583.33 280.353 572.487L273.704 566.13C264.136 576.137 252.864 584.201 239.75 589.484L243.188 598.018ZM130.15 576.598C147.753 585.249 166.415 594.438 185.289 599.548C204.259 604.684 223.83 605.817 243.188 598.018L239.75 589.484C222.846 596.294 205.46 595.478 187.694 590.668C169.831 585.832 151.98 577.076 134.208 568.342L130.15 576.598ZM124.536 573.844C126.398 574.754 128.268 575.674 130.15 576.598L134.208 568.342C132.328 567.418 130.449 566.494 128.576 565.579L124.536 573.844ZM118.667 570.987C120.637 571.944 122.593 572.894 124.536 573.844L128.576 565.579C126.622 564.623 124.656 563.668 122.687 562.712L118.667 570.987ZM118.653 570.98L118.67 570.988L122.684 562.71L122.667 562.702L118.653 570.98ZM33.7503 495.572C39.0858 515.501 51.7651 530.151 67.2643 541.866C82.683 553.521 101.234 562.517 118.65 570.979L122.67 562.704C105.081 554.157 87.3829 545.541 72.8119 534.527C58.3216 523.574 47.2707 510.499 42.6373 493.193L33.7503 495.572ZM72.3576 378.106C46.843 411.352 22.2709 452.696 33.7503 495.572L42.6373 493.193C32.4196 455.029 54.0945 417.015 79.6561 383.707L72.3576 378.106ZM177.999 307.323C132.552 309.549 98.7265 343.746 72.3576 378.106L79.6561 383.707C105.947 349.448 137.503 318.518 178.449 316.512L177.999 307.323Z" fill="#335004"/>
</svg>
