<svg width="235" height="71" viewBox="0 0 235 71" fill="none" xmlns="http://www.w3.org/2000/svg">
<mask id="path-1-outside-1_668_3" maskUnits="userSpaceOnUse" x="0.397461" y="0.518555" width="235" height="71" fill="black">
<rect fill="white" x="0.397461" y="0.518555" width="235" height="71"/>
<path fill-rule="evenodd" clip-rule="evenodd" d="M16.6772 46.4567C11.2559 43.2106 8.26181 39.648 8.26181 35.9105C8.26181 20.7824 57.317 8.51855 117.83 8.51855C178.342 8.51855 227.397 20.7824 227.397 35.9105C227.397 51.0387 178.342 63.3025 117.83 63.3025C88.0637 63.3025 61.07 60.3351 41.3235 55.5191L67.5652 39.4425L16.6772 46.4567Z"/>
</mask>
<path fill-rule="evenodd" clip-rule="evenodd" d="M16.6772 46.4567C11.2559 43.2106 8.26181 39.648 8.26181 35.9105C8.26181 20.7824 57.317 8.51855 117.83 8.51855C178.342 8.51855 227.397 20.7824 227.397 35.9105C227.397 51.0387 178.342 63.3025 117.83 63.3025C88.0637 63.3025 61.07 60.3351 41.3235 55.5191L67.5652 39.4425L16.6772 46.4567Z" fill="#6BD1A9"/>
<path d="M16.6772 46.4567L17.7073 53.93C16.0059 54.1645 14.2753 53.8114 12.8018 52.9291L16.6772 46.4567ZM41.3235 55.5191L39.5359 62.8482C36.5762 62.1263 34.3412 59.6952 33.8702 56.6853C33.3992 53.6755 34.7848 50.6778 37.3825 49.0863L41.3235 55.5191ZM67.5652 39.4425L66.5351 31.9692C70.0724 31.4816 73.467 33.5408 74.6689 36.9031C75.8708 40.2655 74.5509 44.0099 71.5061 45.8753L67.5652 39.4425ZM15.8058 35.9105C15.8058 35.6339 15.6657 35.8368 16.3025 36.6242C16.9846 37.4678 18.2958 38.633 20.5527 39.9843L12.8018 52.9291C6.96391 49.4336 0.717865 43.9173 0.717865 35.9105H15.8058ZM117.83 16.0625C88.0043 16.0625 61.2559 19.092 42.1832 23.8602C32.5888 26.2588 25.3596 28.9949 20.7108 31.7427C15.5569 34.7889 15.8058 36.4423 15.8058 35.9105H0.717865C0.717865 27.8146 7.0986 22.262 13.0336 18.754C19.4736 14.9475 28.2903 11.7811 38.5238 9.22276C59.1069 4.077 87.1423 0.974603 117.83 0.974603V16.0625ZM219.854 35.9105C219.854 36.4423 220.102 34.7889 214.948 31.7427C210.3 28.9949 203.07 26.2588 193.476 23.8602C174.403 19.092 147.655 16.0625 117.83 16.0625V0.974603C148.517 0.974603 176.552 4.077 197.135 9.22276C207.369 11.7811 216.186 14.9475 222.626 18.754C228.561 22.262 234.941 27.8146 234.941 35.9105H219.854ZM117.83 55.7585C147.655 55.7585 174.403 52.729 193.476 47.9608C203.07 45.5622 210.3 42.8261 214.948 40.0784C220.102 37.0321 219.854 35.3787 219.854 35.9105H234.941C234.941 44.0064 228.561 49.5591 222.626 53.067C216.186 56.8735 207.369 60.0399 197.135 62.5983C176.552 67.744 148.517 70.8464 117.83 70.8464V55.7585ZM43.111 48.1899C62.1244 52.8272 88.4918 55.7585 117.83 55.7585V70.8464C87.6355 70.8464 60.0155 67.843 39.5359 62.8482L43.111 48.1899ZM37.3825 49.0863L63.6243 33.0097L71.5061 45.8753L45.2644 61.9518L37.3825 49.0863ZM68.5953 46.9158L17.7073 53.93L15.6471 38.9834L66.5351 31.9692L68.5953 46.9158Z" fill="#012758" mask="url(#path-1-outside-1_668_3)"/>
<path d="M10.8291 36.479C11.1598 25.4755 36.9043 16.7532 73.7544 13.5056C87.5446 12.2903 102.89 11.8417 119.041 12.3271" stroke="#FDFFFE" stroke-width="3.77198" stroke-linecap="round"/>
<path d="M53.5823 28.1039C53.5823 38.4683 87.1904 46.8703 128.648 46.8703C170.106 46.8703 203.714 38.4683 203.714 28.1039C203.714 17.7394 170.106 9.3374 128.648 9.3374C87.1904 9.3374 53.5823 17.7394 53.5823 28.1039Z" fill="#41B795"/>
<path d="M73.0164 28.1039C73.0164 35.7851 97.9239 42.012 128.649 42.012C159.374 42.012 184.281 35.7851 184.281 28.1039C184.281 20.4227 159.374 14.1958 128.649 14.1958C97.9239 14.1958 73.0164 20.4227 73.0164 28.1039Z" fill="#1C8B82"/>
</svg>
