<svg width="307" height="197" viewBox="0 0 307 197" fill="none" xmlns="http://www.w3.org/2000/svg">
<mask id="path-1-outside-1_150_363" maskUnits="userSpaceOnUse" x="0.404297" y="108.324" width="306" height="89" fill="black">
<rect fill="white" x="0.404297" y="108.324" width="306" height="89"/>
<path fill-rule="evenodd" clip-rule="evenodd" d="M287.594 166.59C294.777 162.289 298.744 157.568 298.744 152.616C298.744 132.573 233.749 116.324 153.574 116.324C73.3991 116.324 8.4043 132.573 8.4043 152.616C8.4043 172.66 73.3991 188.909 153.574 188.909C193.012 188.909 228.777 184.977 254.939 178.597L220.17 157.296L287.594 166.59Z"/>
</mask>
<path fill-rule="evenodd" clip-rule="evenodd" d="M287.594 166.59C294.777 162.289 298.744 157.568 298.744 152.616C298.744 132.573 233.749 116.324 153.574 116.324C73.3991 116.324 8.4043 132.573 8.4043 152.616C8.4043 172.66 73.3991 188.909 153.574 188.909C193.012 188.909 228.777 184.977 254.939 178.597L220.17 157.296L287.594 166.59Z" fill="#6BD1A9"/>
<path d="M287.594 166.59L286.564 174.063C288.266 174.297 289.996 173.944 291.47 173.062L287.594 166.59ZM254.939 178.597L256.727 185.926C259.686 185.204 261.922 182.773 262.393 179.763C262.864 176.753 261.478 173.755 258.88 172.164L254.939 178.597ZM220.17 157.296L221.201 149.823C217.663 149.335 214.269 151.394 213.067 154.757C211.865 158.119 213.185 161.864 216.23 163.729L220.17 157.296ZM291.2 152.616C291.2 153.299 290.485 156.066 283.719 160.117L291.47 173.062C299.069 168.512 306.288 161.838 306.288 152.616H291.2ZM153.574 123.868C193.231 123.868 228.88 127.894 254.395 134.273C267.211 137.476 277.047 141.172 283.497 144.984C290.453 149.095 291.2 151.919 291.2 152.616H306.288C306.288 143.292 298.911 136.568 291.175 131.995C282.933 127.124 271.509 122.999 258.055 119.635C231.029 112.879 194.093 108.78 153.574 108.78V123.868ZM15.9482 152.616C15.9482 151.919 16.6956 149.095 23.6511 144.984C30.1015 141.172 39.9375 137.476 52.7533 134.273C78.2687 127.894 113.918 123.868 153.574 123.868V108.78C113.056 108.78 76.1197 112.879 49.0939 119.635C35.6391 122.999 24.2155 127.124 15.9739 131.995C8.23731 136.568 0.860345 143.292 0.860345 152.616H15.9482ZM153.574 181.365C113.918 181.365 78.2687 177.339 52.7533 170.96C39.9375 167.756 30.1015 164.061 23.6511 160.249C16.6956 156.138 15.9482 153.314 15.9482 152.616H0.860345C0.860345 161.941 8.23731 168.665 15.9739 173.237C24.2155 178.109 35.6391 182.234 49.0939 185.598C76.1197 192.354 113.056 196.453 153.574 196.453V181.365ZM253.152 171.267C227.722 177.47 192.584 181.365 153.574 181.365V196.453C193.44 196.453 229.831 192.485 256.727 185.926L253.152 171.267ZM258.88 172.164L224.111 150.863L216.23 163.729L250.998 185.029L258.88 172.164ZM219.14 164.769L286.564 174.063L288.624 159.116L221.201 149.823L219.14 164.769Z" fill="#012758" mask="url(#path-1-outside-1_150_363)"/>
<path d="M295.34 153.37C294.902 138.791 260.792 127.234 211.968 122.932C193.697 121.321 173.366 120.727 151.967 121.37" stroke="#FDFFFE" stroke-width="3.77198" stroke-linecap="round"/>
<path d="M238.696 142.273C238.696 156.005 194.168 167.137 139.239 167.137C84.3107 167.137 39.7822 156.005 39.7822 142.273C39.7822 128.541 84.3107 117.409 139.239 117.409C194.168 117.409 238.696 128.541 238.696 142.273Z" fill="#41B795"/>
<path d="M212.947 142.273C212.947 152.45 179.946 160.7 139.238 160.7C98.5291 160.7 65.5283 152.45 65.5283 142.273C65.5283 132.096 98.5291 123.846 139.238 123.846C179.946 123.846 212.947 132.096 212.947 142.273Z" fill="#1C8B82"/>
<path d="M141.114 114.428C115.43 107.046 79.4734 75.2 141.114 6.8678C183.921 70.1384 170.222 104.937 141.114 114.428Z" fill="#D9A4B7" stroke="black" stroke-width="7.544"/>
<path d="M134.599 135.175C115.137 126.73 79.5746 94.64 93.021 33.8381C120.445 53.4516 154.059 76.3341 134.599 135.175Z" fill="#E782A6" stroke="black" stroke-width="7.544"/>
<path d="M142.358 135.175C161.82 126.73 197.382 94.64 183.936 33.8381C156.513 53.4516 122.898 76.3341 142.358 135.175Z" fill="#E782A6" stroke="black" stroke-width="7.544"/>
<path d="M134.288 146.616C110.698 141.713 60.1563 119.974 46.71 72.248C91.8261 58.3551 134.288 92.6787 134.288 146.616Z" fill="#DC618D" stroke="black" stroke-width="7.544"/>
<path d="M138.288 146.616C161.878 141.713 212.42 119.974 225.866 72.248C180.75 58.3551 138.288 92.6787 138.288 146.616Z" fill="#DC618D" stroke="black" stroke-width="7.544"/>
</svg>
