<svg width="306" height="187" viewBox="0 0 306 187" fill="none" xmlns="http://www.w3.org/2000/svg">
<mask id="path-1-outside-1_150_379" maskUnits="userSpaceOnUse" x="0.292969" y="98.3534" width="306" height="89" fill="black">
<rect fill="white" x="0.292969" y="98.3534" width="306" height="89"/>
<path fill-rule="evenodd" clip-rule="evenodd" d="M19.1031 156.619C11.9201 152.318 7.953 147.598 7.953 142.646C7.953 122.602 72.9478 106.353 153.123 106.353C233.298 106.353 298.293 122.602 298.293 142.646C298.293 162.69 233.298 178.938 153.123 178.938C113.685 178.938 77.9209 175.007 51.7582 168.626L86.527 147.326L19.1031 156.619Z"/>
</mask>
<path fill-rule="evenodd" clip-rule="evenodd" d="M19.1031 156.619C11.9201 152.318 7.953 147.598 7.953 142.646C7.953 122.602 72.9478 106.353 153.123 106.353C233.298 106.353 298.293 122.602 298.293 142.646C298.293 162.69 233.298 178.938 153.123 178.938C113.685 178.938 77.9209 175.007 51.7582 168.626L86.527 147.326L19.1031 156.619Z" fill="#6BD1A9"/>
<path d="M19.1031 156.619L20.1332 164.092C18.4318 164.327 16.7012 163.974 15.2277 163.091L19.1031 156.619ZM51.7582 168.626L49.9707 175.955C47.011 175.233 44.7759 172.802 44.3049 169.792C43.834 166.783 45.2196 163.785 47.8173 162.193L51.7582 168.626ZM86.527 147.326L85.4969 139.852C89.0342 139.365 92.4288 141.424 93.6307 144.786C94.8327 148.149 93.5127 151.893 90.4679 153.758L86.527 147.326ZM15.4969 142.646C15.4969 143.329 16.2121 146.095 22.9785 150.147L15.2277 163.091C7.62808 158.541 0.409058 151.867 0.409058 142.646H15.4969ZM153.123 113.897C113.466 113.897 77.8174 117.923 52.302 124.302C39.4862 127.506 29.6502 131.201 23.1998 135.014C16.2443 139.125 15.4969 141.949 15.4969 142.646H0.409058C0.409058 133.321 7.78601 126.598 15.5226 122.025C23.7642 117.154 35.1878 113.028 48.6426 109.665C75.6684 102.908 112.604 98.8094 153.123 98.8094V113.897ZM290.749 142.646C290.749 141.949 290.002 139.125 283.046 135.014C276.596 131.201 266.76 127.506 253.944 124.302C228.429 117.923 192.78 113.897 153.123 113.897V98.8094C193.642 98.8094 230.578 102.908 257.603 109.665C271.058 113.028 282.482 117.154 290.723 122.025C298.46 126.598 305.837 133.321 305.837 142.646H290.749ZM153.123 171.394C192.78 171.394 228.429 167.369 253.944 160.99C266.76 157.786 276.596 154.091 283.046 150.278C290.002 146.167 290.749 143.343 290.749 142.646H305.837C305.837 151.971 298.46 158.694 290.723 163.267C282.482 168.138 271.058 172.264 257.603 175.627C230.578 182.384 193.642 186.482 153.123 186.482V171.394ZM53.5457 161.297C78.9754 167.499 114.114 171.394 153.123 171.394V186.482C113.257 186.482 76.8665 182.515 49.9707 175.955L53.5457 161.297ZM47.8173 162.193L82.5861 140.893L90.4679 153.758L55.6991 175.059L47.8173 162.193ZM87.5571 154.799L20.1332 164.092L18.073 149.146L85.4969 139.852L87.5571 154.799Z" fill="#012758" mask="url(#path-1-outside-1_150_379)"/>
<path d="M11.356 143.399C11.7942 128.82 45.9039 117.264 94.7278 112.961C112.999 111.351 133.331 110.756 154.729 111.399" stroke="#FDFFFE" stroke-width="3.77198" stroke-linecap="round"/>
<path d="M67.9998 132.302C67.9998 146.035 112.528 157.167 167.457 157.167C222.386 157.167 266.914 146.035 266.914 132.302C266.914 118.57 222.386 107.438 167.457 107.438C112.528 107.438 67.9998 118.57 67.9998 132.302Z" fill="#41B795"/>
<path d="M93.7495 132.302C93.7495 142.479 126.75 150.729 167.459 150.729C208.167 150.729 241.168 142.479 241.168 132.302C241.168 122.125 208.167 113.875 167.459 113.875C126.75 113.875 93.7495 122.125 93.7495 132.302Z" fill="#1C8B82"/>
<path d="M150.486 114.162C176.169 106.78 212.126 74.9342 150.486 6.60205C107.679 69.8726 121.378 104.671 150.486 114.162Z" fill="#D9A4B7" stroke="black" stroke-width="7.544"/>
<path d="M157.002 134.909C176.464 126.464 212.026 94.3745 198.58 33.5726C171.156 53.1861 137.542 76.0686 157.002 134.909Z" fill="#E782A6" stroke="black" stroke-width="7.544"/>
<path d="M149.241 134.909C129.779 126.464 94.2172 94.3745 107.664 33.5726C135.087 53.1861 168.702 76.0686 149.241 134.909Z" fill="#E782A6" stroke="black" stroke-width="7.544"/>
<path d="M152.931 146.35C176.522 141.447 227.063 119.709 240.51 71.9824C195.394 58.0895 152.931 92.4131 152.931 146.35Z" fill="#DC618D" stroke="black" stroke-width="7.544"/>
<path d="M148.932 146.35C125.342 141.447 74.7999 119.709 61.3535 71.9824C106.47 58.0895 148.932 92.4131 148.932 146.35Z" fill="#DC618D" stroke="black" stroke-width="7.544"/>
</svg>
