<svg width="236" height="71" viewBox="0 0 236 71" fill="none" xmlns="http://www.w3.org/2000/svg">
<mask id="path-1-outside-1_150_427" maskUnits="userSpaceOnUse" x="0.339844" y="-0.264648" width="235" height="71" fill="black">
<rect fill="white" x="0.339844" y="-0.264648" width="235" height="71"/>
<path fill-rule="evenodd" clip-rule="evenodd" d="M219.06 45.6735C224.481 42.4275 227.475 38.8648 227.475 35.1273C227.475 19.9991 178.42 7.73535 117.908 7.73535C57.395 7.73535 8.33984 19.9991 8.33984 35.1273C8.33984 50.2555 57.395 62.5193 117.908 62.5193C147.674 62.5193 174.667 59.5519 194.414 54.7359L168.172 38.6593L219.06 45.6735Z"/>
</mask>
<path fill-rule="evenodd" clip-rule="evenodd" d="M219.06 45.6735C224.481 42.4275 227.475 38.8648 227.475 35.1273C227.475 19.9991 178.42 7.73535 117.908 7.73535C57.395 7.73535 8.33984 19.9991 8.33984 35.1273C8.33984 50.2555 57.395 62.5193 117.908 62.5193C147.674 62.5193 174.667 59.5519 194.414 54.7359L168.172 38.6593L219.06 45.6735Z" fill="#6BD1A9"/>
<path d="M219.06 45.6735L218.03 53.1468C219.731 53.3814 221.462 53.0283 222.935 52.146L219.06 45.6735ZM194.414 54.7359L196.201 62.065C199.161 61.3432 201.396 58.912 201.867 55.9022C202.338 52.8923 200.952 49.8946 198.355 48.3032L194.414 54.7359ZM168.172 38.6593L169.202 31.186C165.665 30.6984 162.27 32.7576 161.068 36.1199C159.866 39.4823 161.186 43.2267 164.231 45.0921L168.172 38.6593ZM219.932 35.1273C219.932 34.8507 220.072 35.0536 219.435 35.841C218.753 36.6846 217.441 37.8498 215.185 39.2011L222.935 52.146C228.773 48.6504 235.019 43.1341 235.019 35.1273H219.932ZM117.908 15.2793C147.733 15.2793 174.481 18.3088 193.554 23.077C203.149 25.4756 210.378 28.2117 215.027 30.9595C220.18 34.0057 219.932 35.6591 219.932 35.1273H235.019C235.019 27.0314 228.639 21.4788 222.704 17.9708C216.264 14.1643 207.447 10.9979 197.214 8.43956C176.63 3.2938 148.595 0.1914 117.908 0.1914V15.2793ZM15.8838 35.1273C15.8838 35.6591 15.635 34.0057 20.7888 30.9595C25.4377 28.2117 32.6668 25.4756 42.2612 23.077C61.3339 18.3088 88.0824 15.2793 117.908 15.2793V0.1914C87.2203 0.1914 59.1849 3.2938 38.6018 8.43956C28.3683 10.9979 19.5517 14.1643 13.1116 17.9708C7.17664 21.4788 0.795892 27.0314 0.795892 35.1273H15.8838ZM117.908 54.9753C88.0824 54.9753 61.3339 51.9458 42.2612 47.1776C32.6668 44.779 25.4377 42.0429 20.7888 39.2952C15.635 36.2489 15.8838 34.5955 15.8838 35.1273H0.795892C0.795892 43.2232 7.17664 48.7759 13.1116 52.2838C19.5517 56.0903 28.3683 59.2567 38.6018 61.8151C59.1849 66.9608 87.2203 70.0632 117.908 70.0632V54.9753ZM192.626 47.4068C173.613 52.044 147.245 54.9753 117.908 54.9753V70.0632C148.102 70.0632 175.722 67.0598 196.201 62.065L192.626 47.4068ZM198.355 48.3032L172.113 32.2265L164.231 45.0921L190.473 61.1687L198.355 48.3032ZM167.142 46.1326L218.03 53.1468L220.09 38.2003L169.202 31.186L167.142 46.1326Z" fill="#012758" mask="url(#path-1-outside-1_150_427)"/>
<path d="M224.908 35.6958C224.577 24.6923 198.833 15.97 161.983 12.7224C148.193 11.5071 132.847 11.0585 116.696 11.5439" stroke="#FDFFFE" stroke-width="3.77198" stroke-linecap="round"/>
<path d="M182.155 27.3205C182.155 37.6849 148.547 46.087 107.089 46.087C65.6315 46.087 32.0234 37.6849 32.0234 27.3205C32.0234 16.9561 65.6315 8.55408 107.089 8.55408C148.547 8.55408 182.155 16.9561 182.155 27.3205Z" fill="#41B795"/>
<path d="M162.721 27.3205C162.721 35.0017 137.813 41.2286 107.088 41.2286C76.3635 41.2286 51.4561 35.0017 51.4561 27.3205C51.4561 19.6392 76.3635 13.4124 107.088 13.4124C137.813 13.4124 162.721 19.6392 162.721 27.3205Z" fill="#1C8B82"/>
</svg>
