<svg width="663" height="1269" viewBox="0 0 663 1269" fill="none" xmlns="http://www.w3.org/2000/svg">
<path fill-rule="evenodd" clip-rule="evenodd" d="M489.842 728.467C467.154 643.046 404.074 496.185 305.584 446.085C315.563 456.386 316.428 466.709 317.986 485.293L317.986 485.295V485.296C318.295 488.983 318.632 492.995 319.072 497.397C316.994 492.823 314.937 488.048 312.847 483.196C306.335 468.082 299.503 452.222 290.729 439.387C265.174 429.325 237.411 425.829 207.519 431.391C52.4462 460.241 7.66739 602.692 4.66211 670.311C23.1223 637.655 48.7383 602.262 78.3335 575.282C85.4379 551.901 96.4808 516.989 95.1885 527.198C94.7079 530.995 94.4369 535.022 94.1684 539.013C93.4519 549.662 92.7528 560.051 88.1345 565.117C86.6025 566.797 85.0962 568.661 83.691 570.529C94.1157 561.536 104.996 553.634 116.2 547.29C131.621 524.375 152.078 495.329 149.46 504.756C148.406 508.553 147.811 512.58 147.222 516.571L147.222 516.571C146.181 523.626 145.156 530.568 141.636 535.923C206.092 514.96 277.475 552.623 333.117 728.467C441.089 785.322 482.589 752.157 489.842 728.467ZM476.801 703.635C465.193 697.702 439.81 685.992 431.143 686.611C447.239 683.515 468.288 696.671 476.801 703.635ZM291.849 619.286C308.099 600.198 340.6 563.259 340.601 568.212C340.602 574.403 308.099 630.894 291.849 619.286Z" fill="#4E7411"/>
<path d="M305.584 446.085L307.67 441.984L302.28 449.285L305.584 446.085ZM489.842 728.467L494.241 729.814L494.626 728.557L494.288 727.287L489.842 728.467ZM317.986 485.293L313.402 485.678L313.404 485.705L313.407 485.732L317.986 485.293ZM317.986 485.295H322.586V485.076L322.565 484.857L317.986 485.295ZM317.986 485.296H313.386V485.488L313.402 485.68L317.986 485.296ZM319.072 497.397L314.884 499.3L323.649 496.94L319.072 497.397ZM312.847 483.196L317.071 481.376V481.376L312.847 483.196ZM290.729 439.387L294.526 436.791L293.729 435.625L292.414 435.107L290.729 439.387ZM207.519 431.391L208.36 435.913L207.519 431.391ZM4.66211 670.311L0.0666461 670.107L8.66657 672.574L4.66211 670.311ZM78.3335 575.282L81.4325 578.682L82.3671 577.829L82.7348 576.619L78.3335 575.282ZM95.1885 527.198L90.6249 526.62V526.62L95.1885 527.198ZM94.1684 539.013L98.758 539.322L94.1684 539.013ZM88.1345 565.117L84.735 562.018L88.1345 565.117ZM83.691 570.529L80.0148 567.764L86.6958 574.012L83.691 570.529ZM116.2 547.29L118.466 551.293L119.41 550.758L120.016 549.858L116.2 547.29ZM149.46 504.756L145.028 503.525L149.46 504.756ZM147.222 516.571L142.672 515.899L142.67 515.909L142.669 515.92L147.222 516.571ZM147.222 516.571L151.773 517.243L151.775 517.232L151.776 517.221L147.222 516.571ZM141.636 535.923L137.792 533.396L130.589 544.353L143.059 540.297L141.636 535.923ZM333.117 728.467L328.732 729.855L329.302 731.657L330.974 732.538L333.117 728.467ZM476.801 703.635L474.707 707.731L479.713 700.075L476.801 703.635ZM431.143 686.611L430.274 682.094L431.471 691.199L431.143 686.611ZM291.849 619.286L288.346 616.304L285.1 620.118L289.175 623.029L291.849 619.286ZM340.601 568.212L345.201 568.211L340.601 568.212ZM303.498 450.185C351.579 474.643 391.415 522.983 422.153 576.327C452.839 629.581 474.14 687.266 485.397 729.648L494.288 727.287C482.857 684.248 461.274 625.792 430.125 571.734C399.028 517.767 358.079 467.627 307.67 441.984L303.498 450.185ZM322.57 484.909C321.033 466.578 320.178 454.538 308.888 442.884L302.28 449.285C310.948 458.233 311.823 466.84 313.402 485.678L322.57 484.909ZM322.565 484.857L322.565 484.855L313.407 485.732L313.407 485.734L322.565 484.857ZM322.586 485.296V485.295H313.386V485.296H322.586ZM323.649 496.94C323.213 492.579 322.879 488.602 322.57 484.912L313.402 485.68C313.711 489.365 314.05 493.411 314.495 497.855L323.649 496.94ZM308.622 485.016C310.709 489.86 312.784 494.678 314.884 499.3L323.26 495.495C321.204 490.969 319.165 486.236 317.071 481.376L308.622 485.016ZM286.932 441.983C295.407 454.382 302.069 469.805 308.622 485.016L317.071 481.376C310.602 466.359 303.599 450.063 294.526 436.791L286.932 441.983ZM208.36 435.913C237.358 430.518 264.246 433.903 289.044 443.667L292.414 435.107C266.103 424.746 237.465 421.14 206.678 426.868L208.36 435.913ZM9.25757 670.515C10.7287 637.415 22.4715 585.715 52.9232 538.818C83.2933 492.046 132.237 450.076 208.36 435.913L206.678 426.868C127.728 441.557 76.746 485.236 45.2072 533.808C13.7501 582.253 1.60081 635.588 0.0666461 670.107L9.25757 670.515ZM75.2344 571.883C45.1838 599.278 19.2844 635.096 0.657647 668.047L8.66657 672.574C26.9601 640.213 52.2929 605.246 81.4325 578.682L75.2344 571.883ZM99.7521 527.776C99.8388 527.091 99.9138 526.317 99.8868 525.62C99.8761 525.347 99.8412 524.606 99.5249 523.796C99.3618 523.378 98.9831 522.57 98.1484 521.87C97.1651 521.045 95.8762 520.65 94.5746 520.807C93.4682 520.941 92.6967 521.43 92.3265 521.701C91.9229 521.997 91.6383 522.301 91.4709 522.495C91.1375 522.881 90.8968 523.269 90.7514 523.518C90.4425 524.046 90.1491 524.669 89.8854 525.271C88.8268 527.688 87.285 532.015 85.5495 537.178C82.0401 547.618 77.4874 562.244 73.9321 573.945L82.7348 576.619C86.2839 564.939 90.8049 550.418 94.27 540.109C96.0218 534.898 97.4424 530.949 98.3128 528.961C98.5314 528.462 98.6557 528.226 98.6921 528.164C98.7192 528.117 98.6329 528.278 98.4348 528.507C98.3352 528.623 98.1134 528.866 97.7678 529.12C97.4555 529.349 96.7371 529.813 95.6787 529.941C94.4252 530.092 93.1793 529.71 92.2338 528.917C91.4371 528.248 91.0911 527.491 90.9553 527.143C90.8041 526.756 90.7481 526.443 90.7261 526.3C90.7013 526.137 90.6954 526.022 90.6937 525.977C90.6899 525.879 90.6998 526.029 90.6249 526.62L99.7521 527.776ZM98.758 539.322C99.0284 535.304 99.2915 531.415 99.7521 527.776L90.6249 526.62C90.1243 530.575 89.8455 534.741 89.5788 538.704L98.758 539.322ZM91.5339 568.216C94.7393 564.7 96.2571 559.769 97.1383 554.993C98.0376 550.119 98.4045 544.576 98.758 539.322L89.5788 538.704C89.2158 544.099 88.875 549.075 88.091 553.324C87.2889 557.671 86.148 560.468 84.735 562.018L91.5339 568.216ZM87.3672 573.294C88.7113 571.507 90.1246 569.762 91.5339 568.216L84.735 562.018C83.0803 563.833 81.481 565.815 80.0148 567.764L87.3672 573.294ZM113.933 543.287C102.421 549.806 91.2956 557.893 80.6862 567.046L86.6958 574.012C96.9359 565.178 107.571 557.462 118.466 551.293L113.933 543.287ZM153.893 505.987C154.085 505.292 154.319 504.301 154.285 503.278C154.269 502.771 154.178 501.821 153.623 500.832C152.956 499.643 151.774 498.698 150.259 498.415C148.994 498.179 147.964 498.494 147.449 498.693C146.882 498.912 146.419 499.194 146.098 499.413C145.452 499.852 144.842 500.403 144.316 500.918C142.241 502.952 139.253 506.687 135.916 511.134C129.126 520.18 120.103 533.252 112.383 544.721L120.016 549.858C127.718 538.413 136.634 525.504 143.274 516.656C146.651 512.155 149.25 508.964 150.757 507.487C151.127 507.125 151.286 507.01 151.271 507.021C151.265 507.025 151.083 507.152 150.76 507.277C150.489 507.381 149.667 507.663 148.572 507.459C147.226 507.208 146.175 506.359 145.599 505.333C145.136 504.506 145.097 503.786 145.09 503.579C145.076 503.155 145.162 503.041 145.028 503.525L153.893 505.987ZM151.773 517.242C152.37 513.198 152.928 509.46 153.893 505.987L145.028 503.525C143.884 507.646 143.253 511.962 142.672 515.899L151.773 517.242ZM151.776 517.221L151.776 517.221L142.669 515.92L142.669 515.92L151.776 517.221ZM145.48 538.45C149.665 532.083 150.77 524.036 151.773 517.243L142.672 515.899C141.591 523.217 140.647 529.053 137.792 533.396L145.48 538.45ZM337.503 727.08C309.584 638.846 277.503 584.524 243.712 554.932C209.61 525.066 173.951 520.576 140.213 531.548L143.059 540.297C173.776 530.307 206.038 534.167 237.651 561.853C269.577 589.812 301.009 642.244 328.732 729.855L337.503 727.08ZM485.444 727.121C482.37 737.161 471.694 750.252 448.49 754.134C425.113 758.046 388.81 752.595 335.26 724.397L330.974 732.538C385.396 761.195 423.829 767.588 450.008 763.208C476.36 758.799 490.062 743.463 494.241 729.814L485.444 727.121ZM478.894 699.539C473.003 696.528 463.629 692.056 454.594 688.402C450.08 686.576 445.575 684.923 441.59 683.76C437.77 682.644 433.87 681.804 430.815 682.022L431.471 691.199C432.75 691.108 435.272 691.499 439.012 692.591C442.587 693.635 446.778 695.164 451.144 696.93C459.869 700.46 468.991 704.81 474.707 707.731L478.894 699.539ZM432.012 691.128C438.652 689.851 446.866 691.898 454.919 695.542C462.845 699.128 469.899 703.932 473.888 707.196L479.713 700.075C475.19 696.374 467.462 691.118 458.712 687.159C450.088 683.258 439.73 680.275 430.274 682.094L432.012 691.128ZM295.352 622.268C303.457 612.747 315.601 598.792 325.698 587.854C330.765 582.366 335.235 577.727 338.398 574.79C340.039 573.266 341.092 572.425 341.604 572.106C341.71 572.041 341.688 572.064 341.564 572.116C341.494 572.145 341.017 572.35 340.292 572.359C339.441 572.37 338.028 572.085 336.967 570.805C336.054 569.705 336.001 568.565 336.001 568.213L345.201 568.211C345.201 567.549 345.085 566.182 344.048 564.932C342.863 563.503 341.265 563.146 340.172 563.16C339.205 563.173 338.428 563.455 338.005 563.632C337.526 563.833 337.095 564.076 336.741 564.297C335.412 565.125 333.799 566.506 332.139 568.048C328.7 571.24 324.029 576.1 318.939 581.613C308.723 592.678 296.491 606.737 288.346 616.304L295.352 622.268ZM336.001 568.213C336.001 567.835 336.075 567.837 335.854 568.523C335.675 569.079 335.38 569.848 334.955 570.824C334.109 572.769 332.846 575.304 331.241 578.215C328.033 584.032 323.579 591.123 318.649 597.651C313.669 604.243 308.422 609.963 303.671 613.314C298.67 616.841 296.022 616.614 294.523 615.543L289.175 623.029C295.801 627.762 303.31 624.826 308.973 620.832C314.886 616.662 320.813 610.049 325.99 603.196C331.216 596.278 335.904 588.811 339.297 582.658C340.993 579.583 342.396 576.781 343.391 574.496C343.886 573.358 344.306 572.289 344.611 571.344C344.874 570.527 345.201 569.363 345.201 568.211L336.001 568.213Z" fill="#294105"/>
<path d="M431.161 709.962C420.578 631.565 364.369 472.654 224.194 464.187C84.0188 455.72 20.7521 594.718 6.64062 665.275" stroke="#294105" stroke-width="9.2"/>
<path fill-rule="evenodd" clip-rule="evenodd" d="M145.721 830.231C123.627 863.712 111.805 917.308 119.335 999.649C142.134 992.307 183.453 977.791 226.705 961.239C219.641 958.326 215.126 950.674 217.953 943.179C222.321 931.6 240.109 932.553 250.34 939.515C255.269 942.869 261.051 944.635 268.011 944.999C290.174 936.028 311.441 926.948 329.509 918.474C322.548 912.823 314.473 908.855 304.079 905.997C292.491 902.811 285.85 889.757 292.033 879.451C299.091 867.685 316.437 869.396 324.04 880.817C330.047 889.841 336.502 895.394 344.302 897.838C348.571 899.175 352.836 901.773 356.243 905.047C367.196 899.033 375.332 893.649 379.501 889.251C400.081 867.546 355.673 822.466 330.896 802.639C283.562 780.088 210.217 765.991 162.92 809.811C173.078 816.82 180.388 832.89 171.274 841.169C163.94 847.831 152.251 844.136 148.157 835.113C147.391 833.424 146.582 831.799 145.721 830.231Z" fill="#4E7411"/>
<path d="M119.335 999.649L114.754 1000.07C114.881 1001.46 115.634 1002.72 116.799 1003.49C117.964 1004.26 119.416 1004.46 120.745 1004.03L119.335 999.649ZM145.721 830.231L149.754 828.018C148.978 826.604 147.519 825.7 145.908 825.635C144.297 825.569 142.77 826.352 141.882 827.697L145.721 830.231ZM226.705 961.239L228.349 965.535C230.109 964.862 231.28 963.183 231.304 961.298C231.329 959.414 230.201 957.705 228.458 956.987L226.705 961.239ZM217.953 943.179L222.257 944.802L217.953 943.179ZM250.34 939.515L247.752 943.318L247.752 943.318L250.34 939.515ZM268.011 944.999L267.771 949.593C268.443 949.628 269.114 949.516 269.737 949.263L268.011 944.999ZM329.509 918.474L331.463 922.639C332.896 921.966 333.883 920.604 334.075 919.032C334.268 917.461 333.638 915.901 332.409 914.903L329.509 918.474ZM304.079 905.997L302.86 910.432L302.86 910.432L304.079 905.997ZM292.033 879.451L288.088 877.084L292.033 879.451ZM324.04 880.817L320.211 883.367L324.04 880.817ZM344.302 897.838L342.927 902.227L342.927 902.227L344.302 897.838ZM356.243 905.047L353.056 908.363C354.506 909.757 356.694 910.047 358.457 909.079L356.243 905.047ZM379.501 889.251L376.163 886.086L379.501 889.251ZM330.896 802.639L333.771 799.047C333.495 798.826 333.194 798.638 332.875 798.486L330.896 802.639ZM162.92 809.811L159.794 806.437C158.77 807.385 158.232 808.748 158.332 810.14C158.432 811.532 159.159 812.804 160.308 813.597L162.92 809.811ZM171.274 841.169L168.181 837.764L171.274 841.169ZM148.157 835.113L143.968 837.013L143.968 837.013L148.157 835.113ZM123.916 999.23C116.431 917.381 128.285 865.005 149.56 832.764L141.882 827.697C118.969 862.418 107.179 917.235 114.754 1000.07L123.916 999.23ZM225.061 956.943C181.865 973.474 140.626 987.96 117.925 995.27L120.745 1004.03C143.641 996.654 185.041 982.109 228.349 965.535L225.061 956.943ZM213.649 941.555C209.75 951.893 216.135 961.856 224.951 965.492L228.458 956.987C223.147 954.796 220.502 949.456 222.257 944.802L213.649 941.555ZM252.928 935.712C246.984 931.667 238.983 929.407 231.7 929.801C224.411 930.194 216.72 933.415 213.649 941.555L222.257 944.802C223.555 941.363 226.941 939.271 232.196 938.987C237.456 938.703 243.465 940.401 247.752 943.318L252.928 935.712ZM268.252 940.406C261.965 940.077 257.035 938.507 252.928 935.712L247.752 943.318C253.503 947.231 260.137 949.194 267.771 949.593L268.252 940.406ZM327.556 914.309C309.59 922.736 288.405 931.781 266.285 940.736L269.737 949.263C291.944 940.274 313.293 931.16 331.463 922.639L327.556 914.309ZM302.86 910.432C312.759 913.155 320.23 916.867 326.61 922.046L332.409 914.903C324.865 908.78 316.188 904.556 305.299 901.562L302.86 910.432ZM288.088 877.084C280.034 890.51 288.935 906.603 302.86 910.432L305.299 901.562C296.047 899.018 291.666 889.004 295.977 881.818L288.088 877.084ZM327.869 878.268C323.236 871.308 315.659 867.318 308.118 866.848C300.5 866.373 292.631 869.513 288.088 877.084L295.977 881.818C298.493 877.623 302.826 875.736 307.546 876.03C312.343 876.329 317.241 878.905 320.211 883.367L327.869 878.268ZM345.677 893.448C339.212 891.423 333.519 886.755 327.869 878.268L320.211 883.367C326.575 892.927 333.792 899.366 342.927 902.227L345.677 893.448ZM359.43 901.73C355.555 898.006 350.681 895.015 345.677 893.448L342.927 902.227C346.46 903.334 350.117 905.539 353.056 908.363L359.43 901.73ZM376.163 886.086C372.537 889.91 364.98 895.001 354.029 901.015L358.457 909.079C369.411 903.064 378.126 897.387 382.839 892.416L376.163 886.086ZM328.022 806.23C340.223 815.994 357.163 831.913 368.45 847.894C374.112 855.911 378.113 863.612 379.579 870.33C381.011 876.889 379.974 882.067 376.163 886.086L382.839 892.416C389.319 885.582 390.448 876.985 388.567 868.368C386.721 859.909 381.929 851.032 375.965 842.587C363.999 825.645 346.346 809.111 333.771 799.047L328.022 806.23ZM166.047 813.185C188.564 792.323 217.417 785.092 246.762 785.934C276.145 786.777 305.684 795.723 328.918 806.792L332.875 798.486C308.774 787.004 277.973 777.626 247.026 776.738C216.041 775.848 184.574 783.479 159.794 806.437L166.047 813.185ZM160.308 813.597C164.572 816.54 168.317 821.491 169.956 826.456C171.594 831.414 170.889 835.304 168.181 837.764L174.367 844.574C180.773 838.755 180.971 830.47 178.692 823.571C176.416 816.68 171.427 810.092 165.533 806.025L160.308 813.597ZM168.181 837.764C163.677 841.855 155.457 840.069 152.347 833.212L143.968 837.013C149.045 848.204 164.202 853.807 174.367 844.574L168.181 837.764ZM152.347 833.212C151.535 831.424 150.674 829.695 149.754 828.018L141.688 832.444C142.49 833.904 143.247 835.424 143.968 837.013L152.347 833.212Z" fill="#294105"/>
<path d="M116.473 1003.18C167.773 938.026 282.589 807.879 331.457 808.561" stroke="#294105" stroke-width="9.2" stroke-linecap="round"/>
<path fill-rule="evenodd" clip-rule="evenodd" d="M491.891 709.042C490.61 711.258 490.096 713.931 490.629 716.64C506.795 798.858 529.486 924.45 545.027 1034C552.801 1088.8 558.754 1139.37 561.227 1178.42C562.465 1197.97 562.812 1214.36 562.132 1226.83C561.792 1233.05 561.209 1238.06 560.431 1241.87C529.057 1207.75 501.152 1175.69 476.44 1145.57C488.637 1123.59 499.936 1111 518.003 1098.28L475.284 1127.11C473.917 1128.03 472.795 1129.28 472.009 1130.73C470.967 1132.65 469.941 1134.52 468.922 1136.34C456.339 1120.8 444.621 1105.78 433.729 1091.28C438.479 1077.79 450.76 1069.13 472.48 1061.9L422.931 1076.7C404.622 1051.62 388.862 1028.13 375.429 1006.15C385.055 1002.14 396.324 998.334 410.144 994.194C411.163 993.889 412.096 993.308 412.811 992.52C417.477 987.377 409.835 978.349 403.676 981.558C392.942 987.151 382.325 991.684 369.583 996.433C347.349 958.86 332.101 925.824 322.67 896.853C336.457 892.192 350.758 891.784 366.435 895.476C387.094 900.342 410.367 881.819 403.446 861.755C397.905 845.69 377.203 841.455 364.41 852.642C349.466 865.71 334.662 875.475 318.333 882.334C279.566 739.226 391.858 703.329 491.891 709.042ZM584.075 1227.15C584.76 1213.58 584.348 1196.53 583.114 1177.03C580.587 1137.14 574.541 1085.91 566.739 1030.91C551.127 920.859 528.358 794.86 512.147 712.409C511.936 711.339 511.577 710.337 511.095 709.419C601.249 699.017 648.793 744.858 668.482 813.887C655.197 813.34 642.572 809.706 628.474 802.305C613.713 794.556 594.617 801.491 591.119 817.791C587.125 836.4 606.321 851.099 624.846 846.728C639.481 843.276 651.283 843.764 661.501 848.678C665.952 850.818 671.158 852.147 676.402 852.555C682.267 896.007 679.924 945.096 672.108 993.694C670.246 993.571 668.358 993.619 666.472 993.85C654.742 995.291 644.855 993.507 635.162 988.472C623.461 982.394 607.429 987.373 605.499 1000.42C603.1 1016.64 629.116 1026.02 644.967 1030.21C648.864 1031.24 652.79 1033.19 656.829 1036.05C658.806 1037.45 660.936 1038.57 663.147 1039.42C645.139 1117.46 614.783 1189 584.075 1227.15Z" fill="#4E7411"/>
<path d="M490.629 716.64L495.142 715.752L495.142 715.752L490.629 716.64ZM491.891 709.042L492.154 704.449C493.748 704.54 495.181 705.452 495.94 706.857C496.698 708.263 496.673 709.961 495.874 711.343L491.891 709.042ZM545.027 1034L540.472 1034.64L545.027 1034ZM561.227 1178.42L556.636 1178.71L561.227 1178.42ZM562.132 1226.83L566.725 1227.08L562.132 1226.83ZM560.431 1241.87L564.938 1242.79C564.593 1244.48 563.328 1245.84 561.663 1246.3C559.998 1246.77 558.214 1246.26 557.045 1244.99L560.431 1241.87ZM476.44 1145.57L472.884 1148.48C471.687 1147.02 471.502 1144.98 472.418 1143.33L476.44 1145.57ZM518.003 1098.28L515.43 1094.46C517.521 1093.05 520.358 1093.59 521.79 1095.66C523.222 1097.74 522.714 1100.58 520.651 1102.04L518.003 1098.28ZM475.284 1127.11L472.71 1123.3L475.284 1127.11ZM472.009 1130.73L476.054 1132.92L472.009 1130.73ZM468.922 1136.34L472.938 1138.59C472.193 1139.92 470.836 1140.79 469.315 1140.92C467.794 1141.05 466.307 1140.42 465.347 1139.24L468.922 1136.34ZM433.729 1091.28L430.051 1094.04C429.128 1092.81 428.88 1091.2 429.39 1089.75L433.729 1091.28ZM472.48 1061.9L471.164 1057.49C473.571 1056.77 476.111 1058.12 476.867 1060.52C477.623 1062.91 476.317 1065.47 473.933 1066.26L472.48 1061.9ZM422.931 1076.7L424.248 1081.1C422.381 1081.66 420.365 1080.98 419.216 1079.41L422.931 1076.7ZM375.429 1006.15L371.504 1008.55C370.804 1007.41 370.639 1006.01 371.054 1004.73C371.468 1003.46 372.42 1002.42 373.66 1001.91L375.429 1006.15ZM410.144 994.194L408.824 989.787L408.824 989.787L410.144 994.194ZM412.811 992.52L416.217 995.611L416.217 995.611L412.811 992.52ZM403.676 981.558L405.801 985.638L405.801 985.638L403.676 981.558ZM369.583 996.433L371.189 1000.74C369.103 1001.52 366.758 1000.69 365.624 998.776L369.583 996.433ZM322.67 896.853L318.296 898.277C317.516 895.88 318.81 893.302 321.197 892.495L322.67 896.853ZM366.435 895.476L365.38 899.953L366.435 895.476ZM364.41 852.642L361.382 849.179L361.382 849.179L364.41 852.642ZM318.333 882.334L320.115 886.575C318.892 887.089 317.507 887.049 316.315 886.467C315.123 885.885 314.24 884.817 313.893 883.537L318.333 882.334ZM583.114 1177.03L578.523 1177.32L583.114 1177.03ZM584.075 1227.15L587.659 1230.03C586.409 1231.59 584.3 1232.16 582.437 1231.45C580.574 1230.74 579.381 1228.91 579.481 1226.92L584.075 1227.15ZM566.739 1030.91L562.185 1031.56L566.739 1030.91ZM512.147 712.409L507.633 713.296L507.633 713.296L512.147 712.409ZM511.095 709.419L507.023 711.559C506.317 710.216 506.319 708.611 507.028 707.27C507.736 705.929 509.061 705.023 510.568 704.849L511.095 709.419ZM668.482 813.887L672.905 812.626C673.31 814.046 673.009 815.573 672.096 816.733C671.182 817.893 669.768 818.544 668.292 818.484L668.482 813.887ZM628.474 802.305L626.336 806.378L628.474 802.305ZM591.119 817.791L595.617 818.756L591.119 817.791ZM624.846 846.728L625.902 851.206L625.902 851.206L624.846 846.728ZM661.501 848.678L663.495 844.532L663.495 844.532L661.501 848.678ZM676.402 852.555L676.759 847.968C678.92 848.136 680.671 849.791 680.961 851.939L676.402 852.555ZM672.108 993.694L676.65 994.425C676.273 996.768 674.175 998.44 671.806 998.284L672.108 993.694ZM666.472 993.85L667.033 998.416L667.033 998.416L666.472 993.85ZM635.162 988.472L637.282 984.39L637.282 984.39L635.162 988.472ZM605.499 1000.42L600.949 999.744L605.499 1000.42ZM644.967 1030.21L646.142 1025.76L646.142 1025.76L644.967 1030.21ZM656.829 1036.05L659.489 1032.3L659.489 1032.3L656.829 1036.05ZM663.147 1039.42L664.798 1035.13C666.937 1035.95 668.144 1038.22 667.629 1040.46L663.147 1039.42ZM486.115 717.527C485.359 713.685 486.092 709.884 487.909 706.74L495.874 711.343C495.129 712.633 494.832 714.176 495.142 715.752L486.115 717.527ZM540.472 1034.64C524.947 925.204 502.271 799.697 486.115 717.527L495.142 715.752C511.318 798.019 534.026 923.697 549.581 1033.35L540.472 1034.64ZM556.636 1178.71C554.175 1139.84 548.241 1089.4 540.472 1034.64L549.581 1033.35C557.361 1088.19 563.334 1138.9 565.818 1178.13L556.636 1178.71ZM557.538 1226.58C558.205 1214.37 557.87 1198.18 556.636 1178.71L565.818 1178.13C567.061 1197.76 567.419 1214.35 566.725 1227.08L557.538 1226.58ZM555.924 1240.95C556.641 1237.44 557.206 1232.67 557.538 1226.58L566.725 1227.08C566.378 1233.43 565.777 1238.68 564.938 1242.79L555.924 1240.95ZM479.996 1142.65C504.647 1172.69 532.494 1204.69 563.817 1238.76L557.045 1244.99C525.619 1210.81 497.657 1178.68 472.884 1148.48L479.996 1142.65ZM520.651 1102.04C503.196 1114.33 492.35 1126.38 480.462 1147.8L472.418 1143.33C484.925 1120.8 496.676 1107.67 515.355 1094.51L520.651 1102.04ZM472.71 1123.3L515.43 1094.46L520.576 1102.09L477.857 1130.92L472.71 1123.3ZM467.965 1128.54C469.097 1126.45 470.719 1124.64 472.71 1123.3L477.857 1130.92C477.115 1131.42 476.492 1132.11 476.054 1132.92L467.965 1128.54ZM464.907 1134.1C465.915 1132.29 466.932 1130.44 467.965 1128.54L476.054 1132.92C475.003 1134.86 473.967 1136.74 472.938 1138.59L464.907 1134.1ZM437.408 1088.51C448.264 1102.97 459.947 1117.94 472.498 1133.45L465.347 1139.24C452.731 1123.65 440.979 1108.59 430.051 1094.04L437.408 1088.51ZM473.933 1066.26C452.559 1073.38 442.081 1081.41 438.068 1092.8L429.39 1089.75C434.877 1074.16 448.962 1064.88 471.028 1057.54L473.933 1066.26ZM421.615 1072.29L471.164 1057.49L473.796 1066.31L424.248 1081.1L421.615 1072.29ZM379.354 1003.75C392.713 1025.62 408.402 1049 426.646 1073.98L419.216 1079.41C400.843 1054.24 385.01 1030.65 371.504 1008.55L379.354 1003.75ZM411.464 998.6C397.714 1002.72 386.615 1006.48 377.199 1010.4L373.66 1001.91C383.496 997.808 394.935 993.948 408.824 989.787L411.464 998.6ZM416.217 995.611C414.927 997.033 413.267 998.06 411.464 998.6L408.824 989.787C409.058 989.717 409.264 989.583 409.404 989.429L416.217 995.611ZM401.55 977.479C407.25 974.509 412.93 977.499 415.826 980.95C418.721 984.399 420.715 990.654 416.217 995.611L409.404 989.429C409.611 989.201 409.678 989.003 409.642 988.657C409.596 988.208 409.345 987.539 408.779 986.864C408.218 986.195 407.544 985.76 406.976 985.582C406.473 985.423 406.122 985.471 405.801 985.638L401.55 977.479ZM367.976 992.123C380.596 987.419 391.03 982.96 401.55 977.479L405.801 985.638C394.854 991.342 384.053 995.948 371.189 1000.74L367.976 992.123ZM327.044 895.429C336.346 924.003 351.433 956.73 373.541 994.091L365.624 998.776C343.264 960.991 327.856 927.644 318.296 898.277L327.044 895.429ZM321.197 892.495C335.897 887.526 351.082 887.134 367.489 890.999L365.38 899.953C350.435 896.434 337.018 896.859 324.143 901.211L321.197 892.495ZM367.489 890.999C376.209 893.052 385.71 890.173 392.27 884.488C398.779 878.847 401.792 871.066 399.098 863.255L407.795 860.255C412.021 872.508 406.858 884.02 398.296 891.44C389.784 898.816 377.32 902.765 365.38 899.953L367.489 890.999ZM399.098 863.255C394.764 850.689 378.109 846.773 367.439 856.104L361.382 849.179C376.296 836.137 401.047 840.691 407.795 860.255L399.098 863.255ZM367.439 856.104C352.206 869.425 336.99 879.486 320.115 886.575L316.552 878.093C332.334 871.463 346.725 861.996 361.382 849.179L367.439 856.104ZM491.629 713.634C442.02 710.801 390.236 718.376 355.779 743.592C338.665 756.117 325.789 773.008 319.455 795.335C313.103 817.726 313.235 845.923 322.773 881.131L313.893 883.537C304.047 847.191 303.679 817.235 310.604 792.825C317.547 768.351 331.728 749.792 350.345 736.168C387.351 709.087 441.73 701.569 492.154 704.449L491.629 713.634ZM587.704 1176.74C588.944 1196.32 589.367 1213.56 588.669 1227.38L579.481 1226.92C580.153 1213.6 579.752 1196.74 578.523 1177.32L587.704 1176.74ZM571.294 1030.27C579.102 1085.31 585.167 1136.67 587.704 1176.74L578.523 1177.32C576.008 1137.61 569.981 1086.52 562.185 1031.56L571.294 1030.27ZM516.66 711.521C532.882 794.021 555.666 920.106 571.294 1030.27L562.185 1031.56C546.587 921.612 523.835 795.698 507.633 713.296L516.66 711.521ZM515.167 707.28C515.854 708.587 516.363 710.011 516.66 711.521L507.633 713.296C507.51 712.668 507.3 712.087 507.023 711.559L515.167 707.28ZM664.058 815.149C654.398 781.281 638.042 753.582 613.492 735.576C589.005 717.615 555.809 708.891 511.622 713.989L510.568 704.849C556.534 699.546 592.188 708.541 618.934 728.157C645.617 747.728 662.877 777.464 672.905 812.626L664.058 815.149ZM630.612 798.232C644.219 805.375 656.182 808.777 668.671 809.291L668.292 818.484C654.212 817.904 640.926 814.037 626.336 806.378L630.612 798.232ZM586.621 816.826C590.883 796.969 613.706 789.357 630.612 798.232L626.336 806.378C613.721 799.755 598.351 806.013 595.617 818.756L586.621 816.826ZM625.902 851.206C615.179 853.735 604.287 850.755 596.612 844.426C588.876 838.048 584.211 828.056 586.621 816.826L595.617 818.756C594.033 826.135 596.969 832.797 602.464 837.328C608.02 841.908 615.988 844.092 623.79 842.251L625.902 851.206ZM659.508 852.823C650.55 848.516 639.91 847.901 625.902 851.206L623.79 842.251C639.052 838.651 652.016 839.012 663.495 844.532L659.508 852.823ZM676.045 857.141C670.294 856.693 664.525 855.236 659.508 852.823L663.495 844.532C667.38 846.4 672.022 847.6 676.759 847.968L676.045 857.141ZM667.567 992.964C675.334 944.665 677.631 896.049 671.843 853.17L680.961 851.939C686.903 895.965 684.514 945.528 676.65 994.425L667.567 992.964ZM665.911 989.285C668.091 989.017 670.268 988.963 672.411 989.104L671.806 998.284C670.224 998.18 668.625 998.22 667.033 998.416L665.911 989.285ZM637.282 984.39C646.115 988.978 655.063 990.617 665.911 989.285L667.033 998.416C654.421 999.965 643.594 998.036 633.042 992.555L637.282 984.39ZM600.949 999.744C602.204 991.261 608.088 985.546 615.069 982.96C621.97 980.404 630.255 980.74 637.282 984.39L633.042 992.555C628.368 990.127 622.786 989.913 618.264 991.588C613.821 993.233 610.724 996.53 610.05 1001.09L600.949 999.744ZM643.792 1034.66C635.744 1032.53 624.776 1029.01 616.028 1023.77C607.587 1018.72 599.304 1010.86 600.949 999.744L610.05 1001.09C609.295 1006.19 612.82 1011.13 620.751 1015.88C628.374 1020.44 638.34 1023.7 646.142 1025.76L643.792 1034.66ZM654.17 1039.8C650.468 1037.18 647.038 1035.51 643.792 1034.66L646.142 1025.76C650.69 1026.96 655.113 1029.19 659.489 1032.3L654.17 1039.8ZM661.495 1043.72C658.943 1042.73 656.472 1041.43 654.17 1039.8L659.489 1032.3C661.14 1033.47 662.929 1034.41 664.798 1035.13L661.495 1043.72ZM580.492 1224.27C610.58 1186.88 640.729 1116.11 658.664 1038.39L667.629 1040.46C649.548 1118.81 618.986 1191.11 587.659 1230.03L580.492 1224.27Z" fill="#294105"/>
<path fill-rule="evenodd" clip-rule="evenodd" d="M465.63 605.623C466.487 604.139 466.832 602.349 466.475 600.535C455.648 545.469 440.45 461.352 430.042 387.984C424.835 351.28 420.848 317.408 419.191 291.255C418.362 278.16 418.13 267.182 418.586 258.83C418.813 254.665 419.204 251.312 419.725 248.757C440.738 271.61 459.428 293.086 475.979 313.26C467.81 327.981 460.243 336.412 448.142 344.932L476.754 325.62C477.669 325.003 478.421 324.168 478.947 323.196C479.644 321.909 480.332 320.658 481.014 319.438C489.442 329.849 497.29 339.906 504.585 349.62C501.404 358.656 493.179 364.454 478.632 369.295L511.817 359.385C524.08 376.18 534.635 391.909 543.632 406.631C537.185 409.318 529.637 411.868 520.381 414.641C519.699 414.846 519.074 415.235 518.595 415.762C515.47 419.207 520.588 425.253 524.713 423.104C531.902 419.358 539.013 416.323 547.547 413.141C562.439 438.306 572.651 460.433 578.967 479.836C569.733 482.958 560.154 483.231 549.654 480.758C535.818 477.5 520.23 489.906 524.866 503.344C528.577 514.103 542.443 516.939 551.01 509.447C561.02 500.694 570.935 494.154 581.872 489.56C607.837 585.408 532.628 609.45 465.63 605.623ZM403.889 258.619C403.43 267.708 403.706 279.126 404.533 292.183C406.225 318.901 410.274 353.211 415.5 390.047C425.956 463.758 441.206 548.147 452.063 603.368C452.204 604.085 452.445 604.756 452.768 605.371C392.387 612.337 360.544 581.635 347.358 535.403C356.255 535.769 364.71 538.204 374.152 543.16C384.038 548.35 396.828 543.705 399.171 532.788C401.846 520.325 388.989 510.48 376.582 513.407C366.78 515.72 358.875 515.393 352.032 512.102C349.051 510.669 345.565 509.779 342.053 509.505C338.125 480.403 339.694 447.525 344.929 414.976C346.176 415.058 347.441 415.027 348.704 414.871C356.56 413.906 363.182 415.101 369.674 418.473C377.511 422.544 388.248 419.209 389.541 410.473C391.148 399.611 373.723 393.325 363.107 390.52C360.497 389.831 357.867 388.526 355.162 386.609C353.838 385.671 352.412 384.919 350.931 384.349C362.992 332.082 383.322 284.171 403.889 258.619Z" fill="#4E7411"/>
<path d="M466.475 600.535L461.962 601.422L461.962 601.422L466.475 600.535ZM465.63 605.623L465.367 610.216C463.773 610.125 462.34 609.213 461.581 607.808C460.823 606.403 460.848 604.705 461.647 603.322L465.63 605.623ZM430.042 387.984L434.596 387.338L430.042 387.984ZM419.191 291.255L423.782 290.964L419.191 291.255ZM418.586 258.83L423.179 259.081L423.179 259.081L418.586 258.83ZM419.725 248.757L415.218 247.838C415.563 246.144 416.828 244.788 418.493 244.325C420.158 243.862 421.941 244.371 423.111 245.643L419.725 248.757ZM475.979 313.26L479.536 310.342C480.732 311.8 480.917 313.842 480.001 315.492L475.979 313.26ZM448.142 344.932L450.716 348.745C448.625 350.156 445.787 349.62 444.355 347.543C442.923 345.466 443.431 342.623 445.494 341.171L448.142 344.932ZM476.754 325.62L474.18 321.808L474.18 321.808L476.754 325.62ZM478.947 323.196L474.902 321.005L474.902 321.005L478.947 323.196ZM481.014 319.438L476.999 317.193C477.744 315.861 479.101 314.985 480.622 314.854C482.143 314.724 483.629 315.357 484.59 316.543L481.014 319.438ZM504.585 349.62L508.263 346.858C509.187 348.088 509.435 349.697 508.924 351.148L504.585 349.62ZM478.632 369.295L479.948 373.703C477.541 374.422 475.001 373.076 474.245 370.68C473.489 368.283 474.795 365.724 477.179 364.93L478.632 369.295ZM511.817 359.385L510.501 354.977C512.368 354.419 514.383 355.098 515.532 356.672L511.817 359.385ZM543.632 406.631L547.557 404.233C548.257 405.379 548.422 406.774 548.007 408.051C547.593 409.328 546.641 410.361 545.401 410.878L543.632 406.631ZM520.381 414.641L521.701 419.048L521.701 419.048L520.381 414.641ZM518.595 415.762L515.189 412.671L515.189 412.671L518.595 415.762ZM524.713 423.104L522.588 419.025L524.713 423.104ZM547.547 413.141L545.941 408.831C548.028 408.053 550.372 408.882 551.506 410.799L547.547 413.141ZM578.967 479.836L583.341 478.412C584.121 480.808 582.828 483.386 580.44 484.193L578.967 479.836ZM549.654 480.758L548.6 485.236L549.654 480.758ZM551.01 509.447L547.982 505.984L551.01 509.447ZM581.872 489.56L580.09 485.319C581.313 484.805 582.699 484.844 583.891 485.427C585.082 486.009 585.965 487.077 586.312 488.357L581.872 489.56ZM404.533 292.183L409.124 291.892L404.533 292.183ZM403.889 258.619L400.305 255.734C401.555 254.181 403.664 253.61 405.527 254.32C407.39 255.03 408.583 256.859 408.483 258.85L403.889 258.619ZM415.5 390.047L410.945 390.693L415.5 390.047ZM452.063 603.368L447.55 604.256L447.55 604.256L452.063 603.368ZM452.768 605.371L456.84 603.231C457.546 604.574 457.544 606.179 456.835 607.52C456.126 608.861 454.802 609.767 453.295 609.941L452.768 605.371ZM347.358 535.403L342.934 536.664C342.529 535.245 342.831 533.717 343.744 532.557C344.658 531.397 346.072 530.746 347.547 530.807L347.358 535.403ZM374.152 543.16L372.014 547.233L374.152 543.16ZM399.171 532.788L394.673 531.823L399.171 532.788ZM376.582 513.407L377.638 517.884L377.638 517.884L376.582 513.407ZM352.032 512.102L350.038 516.247L350.038 516.247L352.032 512.102ZM342.053 509.505L341.696 514.091C339.535 513.923 337.785 512.269 337.495 510.121L342.053 509.505ZM344.929 414.976L340.387 414.246C340.764 411.902 342.863 410.23 345.231 410.386L344.929 414.976ZM348.704 414.871L349.265 419.437L349.265 419.437L348.704 414.871ZM369.674 418.473L371.794 414.391L369.674 418.473ZM389.541 410.473L384.99 409.8L384.99 409.8L389.541 410.473ZM363.107 390.52L364.282 386.073L363.107 390.52ZM355.162 386.609L352.503 390.362L352.503 390.362L355.162 386.609ZM350.931 384.349L349.28 388.643C347.141 387.82 345.934 385.548 346.449 383.315L350.931 384.349ZM470.989 599.647C471.569 602.595 471.006 605.514 469.612 607.925L461.647 603.322C461.969 602.764 462.096 602.103 461.962 601.422L470.989 599.647ZM434.596 387.338C444.989 460.599 460.171 544.63 470.989 599.647L461.962 601.422C451.125 546.307 435.911 462.106 425.488 388.63L434.596 387.338ZM423.782 290.964C425.427 316.94 429.395 350.676 434.596 387.338L425.488 388.63C420.275 351.885 416.268 317.876 414.601 291.545L423.782 290.964ZM423.179 259.081C422.737 267.172 422.958 277.946 423.782 290.964L414.601 291.545C413.767 278.374 413.523 267.192 413.993 258.579L423.179 259.081ZM424.232 249.676C423.772 251.933 423.399 255.043 423.179 259.081L413.993 258.579C414.227 254.286 414.636 250.692 415.218 247.838L424.232 249.676ZM472.423 316.177C455.933 296.078 437.301 274.667 416.339 251.87L423.111 245.643C444.176 268.552 462.923 290.094 479.536 310.342L472.423 316.177ZM445.494 341.171C456.983 333.081 464.098 325.191 471.957 311.028L480.001 315.492C471.523 330.771 463.502 339.742 450.791 348.693L445.494 341.171ZM479.327 329.433L450.716 348.745L445.569 341.119L474.18 321.808L479.327 329.433ZM482.991 325.388C482.119 326.999 480.867 328.394 479.327 329.433L474.18 321.808C474.471 321.611 474.723 321.336 474.902 321.005L482.991 325.388ZM485.029 321.682C484.358 322.883 483.68 324.116 482.991 325.388L474.902 321.005C475.609 319.702 476.306 318.433 476.999 317.193L485.029 321.682ZM500.907 352.383C493.648 342.716 485.834 332.703 477.439 322.332L484.59 316.543C493.05 326.995 500.933 337.097 508.263 346.858L500.907 352.383ZM477.179 364.93C491.38 360.204 497.802 355.034 500.246 348.093L508.924 351.148C505.006 362.278 494.977 368.704 480.084 373.66L477.179 364.93ZM513.133 363.792L479.948 373.703L477.316 364.887L510.501 354.977L513.133 363.792ZM539.707 409.03C530.784 394.429 520.3 378.804 508.102 362.097L515.532 356.672C527.859 373.556 538.487 389.39 547.557 404.233L539.707 409.03ZM519.061 410.235C528.248 407.482 535.625 404.985 541.862 402.385L545.401 410.878C538.744 413.652 531.026 416.254 521.701 419.048L519.061 410.235ZM515.189 412.671C516.242 411.51 517.594 410.674 519.061 410.235L521.701 419.048C521.804 419.017 521.905 418.96 522.002 418.854L515.189 412.671ZM526.839 427.184C522.156 429.623 517.616 427.114 515.412 424.488C513.21 421.864 511.461 416.779 515.189 412.671L522.002 418.853C522.058 418.792 522.138 418.672 522.188 418.509C522.236 418.354 522.233 418.239 522.228 418.194C522.224 418.155 522.221 418.182 522.259 418.266C522.297 418.349 522.362 418.458 522.459 418.574C522.555 418.689 522.662 418.785 522.764 418.855C522.866 418.926 522.936 418.953 522.959 418.96C522.979 418.967 522.937 418.95 522.846 418.956C522.745 418.963 522.651 418.992 522.588 419.025L526.839 427.184ZM549.154 417.452C540.742 420.587 533.814 423.549 526.839 427.184L522.588 419.025C529.99 415.168 537.285 412.058 545.941 408.831L549.154 417.452ZM574.593 481.26C568.406 462.253 558.354 440.436 543.589 415.484L551.506 410.799C566.523 436.176 576.896 458.612 583.341 478.412L574.593 481.26ZM580.44 484.193C570.294 487.624 559.831 487.881 548.6 485.236L550.709 476.281C560.478 478.582 569.172 478.292 577.494 475.478L580.44 484.193ZM548.6 485.236C543.292 483.986 537.417 485.738 533.346 489.266C529.325 492.75 527.663 497.346 529.214 501.844L520.517 504.843C517.433 495.903 521.247 487.577 527.321 482.313C533.343 477.094 542.181 474.272 550.709 476.281L548.6 485.236ZM529.214 501.844C531.718 509.104 541.536 511.621 547.982 505.984L554.038 512.91C543.349 522.257 525.435 519.102 520.517 504.843L529.214 501.844ZM547.982 505.984C558.28 496.979 568.607 490.143 580.09 485.319L583.653 493.801C573.263 498.166 563.76 504.408 554.038 512.91L547.982 505.984ZM465.892 601.031C498.984 602.921 533.238 597.838 555.895 581.257C567.109 573.051 575.517 562.013 579.659 547.413C583.819 532.751 583.769 514.156 577.432 490.763L586.312 488.357C592.957 512.888 593.243 533.241 588.51 549.924C583.759 566.67 574.046 579.375 561.328 588.682C536.123 607.127 499.274 612.152 465.367 610.216L465.892 601.031ZM399.942 292.474C399.11 279.339 398.824 267.726 399.295 258.387L408.483 258.85C408.037 267.69 408.302 278.912 409.124 291.892L399.942 292.474ZM410.945 390.693C405.714 353.816 401.645 319.369 399.942 292.474L409.124 291.892C410.804 318.433 414.834 352.607 420.054 389.401L410.945 390.693ZM447.55 604.256C436.682 548.985 421.417 464.511 410.945 390.693L420.054 389.401C430.496 463.004 445.729 547.308 456.577 602.481L447.55 604.256ZM448.696 607.51C448.168 606.506 447.777 605.413 447.55 604.256L456.577 602.481C456.631 602.756 456.722 603.006 456.84 603.231L448.696 607.51ZM351.782 534.141C358.19 556.611 368.996 574.826 385.086 586.627C401.114 598.383 422.94 604.182 452.241 600.801L453.295 609.941C422.215 613.526 397.93 607.457 379.645 594.046C361.421 580.679 349.712 560.427 342.934 536.664L351.782 534.141ZM372.014 547.233C363.064 542.535 355.27 540.333 347.169 539.999L347.547 530.807C357.24 531.206 366.357 533.873 376.29 539.087L372.014 547.233ZM403.668 533.754C400.562 548.227 384.045 553.549 372.014 547.233L376.29 539.087C384.031 543.151 393.093 539.184 394.673 531.823L403.668 533.754ZM375.525 508.93C383.19 507.122 390.967 509.25 396.458 513.777C402.009 518.354 405.419 525.596 403.668 533.754L394.673 531.823C395.597 527.517 393.916 523.605 390.606 520.875C387.235 518.096 382.381 516.765 377.638 517.884L375.525 508.93ZM354.025 507.956C359.608 510.641 366.351 511.095 375.525 508.93L377.638 517.884C367.209 520.345 358.143 520.144 350.038 516.247L354.025 507.956ZM342.41 504.919C346.429 505.232 350.479 506.251 354.025 507.956L350.038 516.247C347.624 515.086 344.701 514.325 341.696 514.091L342.41 504.919ZM349.47 415.706C344.284 447.956 342.761 480.361 346.612 508.89L337.495 510.121C333.489 480.445 335.105 447.093 340.387 414.246L349.47 415.706ZM349.265 419.437C347.708 419.628 346.154 419.667 344.626 419.566L345.231 410.386C346.198 410.45 347.174 410.425 348.143 410.306L349.265 419.437ZM367.553 422.556C361.922 419.63 356.239 418.58 349.265 419.437L348.143 410.306C356.881 409.232 364.443 410.573 371.794 414.391L367.553 422.556ZM394.091 411.146C393.155 417.476 388.753 421.703 383.659 423.59C378.644 425.447 372.649 425.202 367.553 422.556L371.794 414.391C374.536 415.815 377.828 415.939 380.464 414.962C383.021 414.015 384.634 412.207 384.99 409.8L394.091 411.146ZM364.282 386.073C369.713 387.508 377.224 389.911 383.269 393.528C389.006 396.96 395.34 402.707 394.091 411.146L384.99 409.8C385.349 407.377 383.773 404.55 378.546 401.423C373.626 398.479 367.117 396.337 361.932 394.967L364.282 386.073ZM357.822 382.856C360.19 384.534 362.323 385.555 364.282 386.073L361.932 394.967C358.671 394.106 355.545 392.518 352.503 390.362L357.822 382.856ZM352.582 380.056C354.405 380.757 356.172 381.687 357.822 382.856L352.503 390.362C351.504 389.655 350.418 389.081 349.28 388.643L352.582 380.056ZM407.472 261.503C387.526 286.285 367.401 333.431 355.413 385.383L346.449 383.315C358.582 330.732 379.119 282.057 400.305 255.734L407.472 261.503Z" fill="#294105"/>
<path fill-rule="evenodd" clip-rule="evenodd" d="M180.175 612.245C152.73 620.329 126.372 639.708 104.186 675.635C106.927 676.599 109.912 677.397 113.156 678.048C127.814 680.987 136.714 697.763 127.774 709.746C119.944 720.241 104.039 718.946 96.0329 708.584C94.1148 706.101 92.1853 703.818 90.224 701.716C77.5903 728.873 66.8514 762.949 58.7607 805.227C106.644 803.731 227.164 795.73 303.29 783.58C297.704 775.566 290.445 768.978 280.425 762.853C269.252 756.024 266.232 740.354 275.812 731.427C286.749 721.235 304.395 728.254 308.913 742.505C312.483 753.763 317.569 761.523 324.999 766.432C329.065 769.119 332.748 773.124 335.328 777.579C348.608 774.583 358.749 771.398 364.44 768.05C392.53 751.527 359.62 690.941 339.653 662.714C307.053 633.838 257.146 605.551 207.475 607.746C208.789 611.012 210.519 613.93 212.697 616.548C221.321 626.914 224.221 646.105 212.122 652.056C202.434 656.821 191.309 649.43 189.743 638.748C188.314 629.005 185.345 620.527 180.175 612.245Z" fill="#4E7411"/>
<path d="M104.186 675.635L100.272 673.218C99.5408 674.403 99.3852 675.855 99.8493 677.168C100.313 678.481 101.347 679.513 102.661 679.975L104.186 675.635ZM180.175 612.245L184.077 609.809C182.983 608.057 180.856 607.248 178.875 607.832L180.175 612.245ZM113.156 678.048L112.252 682.558L112.252 682.558L113.156 678.048ZM127.774 709.746L124.087 706.995L127.774 709.746ZM96.0329 708.584L92.3928 711.396L96.0329 708.584ZM90.224 701.716L93.5874 698.578C92.5439 697.459 91.0125 696.933 89.5018 697.173C87.991 697.413 86.6984 698.389 86.0532 699.776L90.224 701.716ZM58.7607 805.227L54.2427 804.363C53.9802 805.735 54.3551 807.151 55.2617 808.214C56.1684 809.276 57.5085 809.869 58.9044 809.825L58.7607 805.227ZM303.29 783.58L304.015 788.123C305.578 787.873 306.904 786.837 307.523 785.38C308.143 783.923 307.969 782.249 307.064 780.95L303.29 783.58ZM280.425 762.853L282.824 758.928L280.425 762.853ZM275.812 731.427L272.676 728.062L275.812 731.427ZM308.913 742.505L313.298 741.114L308.913 742.505ZM324.999 766.432L322.463 770.27L324.999 766.432ZM335.328 777.579L331.348 779.884C332.356 781.625 334.378 782.508 336.34 782.066L335.328 777.579ZM364.44 768.05L362.108 764.085L364.44 768.05ZM339.653 662.714L343.409 660.057C343.205 659.769 342.968 659.505 342.703 659.27L339.653 662.714ZM207.475 607.746L207.272 603.151C205.781 603.217 204.415 604.002 203.607 605.256C202.799 606.511 202.65 608.08 203.207 609.464L207.475 607.746ZM212.697 616.548L209.161 619.49V619.49L212.697 616.548ZM212.122 652.056L214.152 656.184V656.184L212.122 652.056ZM189.743 638.748L194.294 638.08V638.08L189.743 638.748ZM108.1 678.052C129.791 642.927 155.287 624.371 181.474 616.657L178.875 607.832C150.173 616.287 122.954 636.488 100.272 673.218L108.1 678.052ZM114.061 673.538C110.992 672.922 108.219 672.177 105.712 671.295L102.661 679.975C105.635 681.02 108.831 681.872 112.252 682.558L114.061 673.538ZM131.461 712.496C137.109 704.926 137.027 695.863 133.453 688.498C129.914 681.202 122.861 675.303 114.061 673.538L112.252 682.558C118.109 683.733 122.836 687.691 125.176 692.514C127.482 697.266 127.379 702.582 124.087 706.995L131.461 712.496ZM92.3928 711.396C101.88 723.676 121.456 725.907 131.461 712.496L124.087 706.995C118.432 714.575 106.197 714.217 99.6731 705.772L92.3928 711.396ZM86.8605 704.854C88.7151 706.842 90.5528 709.015 92.3928 711.396L99.6731 705.772C97.6768 703.188 95.6555 700.795 93.5874 698.578L86.8605 704.854ZM63.2788 806.092C71.3163 764.091 81.9565 730.393 94.3947 703.656L86.0532 699.776C73.2241 727.353 62.3864 761.807 54.2427 804.363L63.2788 806.092ZM302.565 779.038C226.706 791.145 106.399 799.136 58.6171 800.63L58.9044 809.825C106.889 808.326 227.622 800.315 304.015 788.123L302.565 779.038ZM278.026 766.778C287.609 772.635 294.358 778.81 299.516 786.211L307.064 780.95C301.049 772.321 293.282 765.32 282.824 758.928L278.026 766.778ZM272.676 728.062C260.435 739.469 264.785 758.685 278.026 766.778L282.824 758.928C273.718 753.362 272.029 741.239 278.948 734.792L272.676 728.062ZM313.298 741.114C310.585 732.558 303.952 726.191 296.315 723.467C288.604 720.717 279.585 721.623 272.676 728.062L278.948 734.792C282.976 731.039 288.249 730.358 293.225 732.133C298.274 733.933 302.723 738.2 304.529 743.895L313.298 741.114ZM327.535 762.594C321.271 758.456 316.673 751.758 313.298 741.114L304.529 743.895C308.293 755.768 313.866 764.59 322.463 770.27L327.535 762.594ZM339.308 775.273C336.403 770.257 332.244 765.706 327.535 762.594L322.463 770.27C325.886 772.532 329.093 775.992 331.348 779.884L339.308 775.273ZM362.108 764.085C357.098 767.032 347.594 770.096 334.316 773.091L336.34 782.066C349.622 779.07 360.4 775.763 366.773 772.015L362.108 764.085ZM335.898 665.37C345.742 679.288 358.704 701.097 365.723 721.282C369.243 731.404 371.13 740.734 370.635 748.289C370.151 755.683 367.458 760.938 362.108 764.085L366.773 772.015C375.467 766.901 379.194 758.386 379.816 748.89C380.427 739.557 378.105 728.878 374.413 718.26C367.007 696.964 353.531 674.367 343.409 660.057L335.898 665.37ZM207.678 612.342C255.636 610.222 304.411 637.643 336.603 666.157L342.703 659.27C309.695 630.034 258.656 600.88 207.272 603.151L207.678 612.342ZM203.207 609.464C204.694 613.157 206.665 616.491 209.161 619.49L216.233 613.606C214.372 611.37 212.885 608.868 211.742 606.029L203.207 609.464ZM209.161 619.49C212.831 623.902 215.337 630.328 215.584 636.153C215.832 641.973 213.887 646.061 210.091 647.928L214.152 656.184C222.456 652.099 225.11 643.617 224.776 635.762C224.442 627.912 221.186 619.56 216.233 613.606L209.161 619.49ZM210.091 647.928C203.835 651.006 195.515 646.408 194.294 638.08L185.191 639.415C187.103 652.451 201.033 662.637 214.152 656.184L210.091 647.928ZM194.294 638.08C192.78 627.758 189.608 618.67 184.077 609.809L176.273 614.68C181.082 622.384 183.847 630.251 185.191 639.415L194.294 638.08Z" fill="#294105"/>
<path d="M54.7002 808.068C128.052 755.305 287.496 653.641 338.458 669.084" stroke="#294105" stroke-width="9.2" stroke-linecap="round"/>
<path fill-rule="evenodd" clip-rule="evenodd" d="M574.837 739.199C559.518 681.524 516.927 582.363 450.426 548.538C457.165 555.493 457.749 562.464 458.801 575.013C459.01 577.503 459.237 580.212 459.534 583.185C458.131 580.097 456.743 576.873 455.331 573.597C450.935 563.391 446.322 552.683 440.397 544.016C423.143 537.223 404.399 534.863 384.217 538.618C279.514 558.097 249.28 654.278 247.251 699.933C259.715 677.885 277.01 653.989 296.991 635.772C301.788 619.986 309.244 596.413 308.372 603.306C308.047 605.87 307.864 608.589 307.683 611.283C307.199 618.473 306.727 625.487 303.609 628.908C302.574 630.043 301.557 631.302 300.608 632.564C307.646 626.492 314.993 621.156 322.558 616.872C332.97 601.4 346.783 581.788 345.015 588.153C344.303 590.717 343.902 593.436 343.504 596.13L343.504 596.131C342.801 600.894 342.109 605.581 339.732 609.197C383.252 595.042 431.45 620.471 469.019 739.199C541.92 777.587 569.94 755.194 574.837 739.199ZM566.031 722.434C558.194 718.428 541.056 710.521 535.204 710.939C546.072 708.849 560.284 717.731 566.031 722.434ZM441.153 665.482C452.125 652.594 474.069 627.654 474.07 630.998C474.071 635.178 452.125 673.32 441.153 665.482Z" fill="#4E7411"/>
<path d="M450.426 548.538L452.511 544.438L447.122 551.739L450.426 548.538ZM574.837 739.199L579.235 740.546L579.62 739.289L579.283 738.019L574.837 739.199ZM458.801 575.013L463.385 574.628L458.801 575.013ZM459.534 583.185L455.346 585.087L464.111 582.727L459.534 583.185ZM455.331 573.597L459.556 571.777V571.777L455.331 573.597ZM440.397 544.016L444.195 541.42L443.397 540.254L442.082 539.736L440.397 544.016ZM384.217 538.618L385.058 543.14L384.217 538.618ZM247.251 699.933L242.656 699.729L251.255 702.197L247.251 699.933ZM296.991 635.772L300.09 639.172L301.025 638.32L301.393 637.11L296.991 635.772ZM308.372 603.306L303.808 602.728L308.372 603.306ZM307.683 611.283L303.093 610.974L307.683 611.283ZM303.609 628.908L307.009 632.007H307.009L303.609 628.908ZM300.608 632.564L296.931 629.799L303.612 636.047L300.608 632.564ZM322.558 616.872L324.825 620.875L325.768 620.34L326.374 619.44L322.558 616.872ZM345.015 588.153L349.447 589.384L345.015 588.153ZM343.504 596.13L347.967 597.246L348.022 597.026L348.055 596.802L343.504 596.13ZM343.504 596.131L339.041 595.015L338.987 595.235L338.953 595.459L343.504 596.131ZM339.732 609.197L335.888 606.67L328.685 617.627L341.155 613.571L339.732 609.197ZM469.019 739.199L464.633 740.587L465.203 742.389L466.875 743.27L469.019 739.199ZM566.031 722.434L563.938 726.53L568.944 718.873L566.031 722.434ZM535.204 710.939L534.335 706.422L535.532 715.527L535.204 710.939ZM441.153 665.482L437.65 662.5L434.404 666.314L438.479 669.225L441.153 665.482ZM474.07 630.998L478.67 630.997V630.997L474.07 630.998ZM448.34 552.638C480.427 568.958 507.143 601.305 527.839 637.221C548.483 673.047 562.819 711.87 570.391 740.38L579.283 738.019C571.536 708.853 556.917 669.258 535.81 632.628C514.756 596.089 486.926 561.943 452.511 544.438L448.34 552.638ZM463.385 574.628C462.355 562.333 461.78 553.645 453.73 545.337L447.122 551.739C452.551 557.341 453.144 562.595 454.217 575.397L463.385 574.628ZM464.111 582.727C463.818 579.796 463.594 577.121 463.385 574.628L454.217 575.397C454.426 577.884 454.656 580.628 454.957 583.643L464.111 582.727ZM451.107 575.417C452.514 578.684 453.921 581.951 455.346 585.087L463.722 581.282C462.342 578.243 460.971 575.061 459.556 571.777L451.107 575.417ZM436.6 546.612C442.226 554.842 446.668 565.114 451.107 575.417L459.556 571.777C455.201 561.668 450.417 550.523 444.195 541.42L436.6 546.612ZM385.058 543.14C404.345 539.552 422.215 541.801 438.712 548.296L442.082 539.736C424.072 532.645 404.453 530.174 383.375 534.096L385.058 543.14ZM251.846 700.137C252.829 678.019 260.692 643.377 281.089 611.965C301.405 580.678 334.119 552.617 385.058 543.14L383.375 534.096C329.611 544.098 294.858 573.868 273.373 606.954C251.971 639.916 243.702 676.192 242.656 699.729L251.846 700.137ZM293.892 632.373C273.455 651.005 255.877 675.326 243.247 697.669L251.255 702.197C263.553 680.443 280.564 656.973 300.09 639.172L293.892 632.373ZM312.935 603.883C312.996 603.406 313.06 602.782 313.037 602.182C313.028 601.958 312.999 601.252 312.691 600.465C312.533 600.059 312.159 599.259 311.331 598.564C310.353 597.743 309.071 597.351 307.778 597.508C306.679 597.64 305.916 598.125 305.556 598.39C305.161 598.679 304.887 598.973 304.731 599.154C304.419 599.515 304.204 599.866 304.086 600.067C303.834 600.499 303.608 600.982 303.423 601.405C302.677 603.108 301.616 606.09 300.447 609.568C298.071 616.639 294.991 626.532 292.59 634.435L301.393 637.11C303.788 629.227 306.835 619.439 309.168 612.5C310.353 608.973 311.293 606.368 311.85 605.096C311.99 604.775 312.047 604.679 312.027 604.712C312.026 604.714 311.915 604.911 311.695 605.166C311.584 605.294 311.352 605.547 310.997 605.808C310.676 606.044 309.949 606.512 308.883 606.641C307.622 606.794 306.369 606.41 305.417 605.611C304.614 604.937 304.262 604.172 304.122 603.813C303.852 603.12 303.845 602.562 303.844 602.54C303.836 602.344 303.857 602.344 303.808 602.728L312.935 603.883ZM312.273 611.592C312.456 608.87 312.631 606.289 312.935 603.883L303.808 602.728C303.464 605.45 303.273 608.307 303.093 610.974L312.273 611.592ZM307.009 632.007C309.464 629.314 310.55 625.638 311.158 622.344C311.784 618.951 312.036 615.117 312.273 611.592L303.093 610.974C302.847 614.639 302.621 617.907 302.11 620.674C301.582 623.54 300.873 625.082 300.21 625.809L307.009 632.007ZM304.284 635.329C305.172 634.148 306.096 633.008 307.009 632.007L300.21 625.809C299.052 627.079 297.941 628.456 296.931 629.799L304.284 635.329ZM320.291 612.869C312.418 617.328 304.826 622.849 297.603 629.081L303.612 636.047C310.467 630.134 317.568 624.984 324.825 620.875L320.291 612.869ZM349.447 589.384C349.587 588.881 349.796 588.032 349.766 587.107C349.751 586.648 349.669 585.736 349.129 584.773C348.477 583.61 347.316 582.681 345.828 582.403C344.591 582.173 343.595 582.482 343.12 582.666C342.592 582.869 342.175 583.127 341.905 583.31C341.361 583.68 340.876 584.122 340.496 584.495C339.002 585.959 336.922 588.569 334.675 591.563C330.067 597.703 323.956 606.556 318.741 614.304L326.374 619.44C331.572 611.717 337.574 603.027 342.033 597.085C344.32 594.038 346.012 591.971 346.936 591.064C347.161 590.844 347.196 590.838 347.078 590.918C347.021 590.957 346.794 591.109 346.43 591.249C346.12 591.369 345.264 591.657 344.141 591.447C342.768 591.191 341.696 590.326 341.105 589.274C340.627 588.421 340.579 587.663 340.571 587.407C340.554 586.886 340.664 586.63 340.583 586.923L349.447 589.384ZM348.055 596.802C348.461 594.054 348.825 591.624 349.447 589.384L340.583 586.923C339.781 589.81 339.343 592.818 338.953 595.459L348.055 596.802ZM347.967 597.246L347.967 597.246L339.041 595.015L339.041 595.015L347.967 597.246ZM343.576 611.724C346.618 607.097 347.39 601.304 348.055 596.802L338.953 595.459C338.211 600.485 337.6 604.066 335.888 606.67L343.576 611.724ZM473.404 737.812C454.522 678.136 432.755 641.151 409.638 620.906C386.208 600.387 361.579 597.254 338.309 604.822L341.155 613.571C361.405 606.985 382.636 609.488 403.576 627.827C424.83 646.44 445.947 681.534 464.633 740.587L473.404 737.812ZM570.439 737.853C568.542 744.046 561.826 752.52 546.67 755.056C531.341 757.62 507.176 754.093 471.162 735.129L466.875 743.27C503.762 762.693 530.057 767.163 548.188 764.13C566.492 761.067 576.234 750.347 579.235 740.546L570.439 737.853ZM568.125 718.337C564.118 716.29 557.749 713.251 551.598 710.763C548.527 709.521 545.434 708.385 542.677 707.58C540.084 706.823 537.227 706.183 534.876 706.351L535.532 715.527C536.107 715.486 537.586 715.677 540.098 716.411C542.445 717.096 545.224 718.109 548.148 719.292C553.989 721.654 560.107 724.571 563.938 726.53L568.125 718.337ZM536.073 715.456C540.099 714.682 545.297 715.912 550.642 718.33C555.859 720.691 560.512 723.861 563.118 725.994L568.944 718.873C565.803 716.304 560.476 712.682 554.434 709.948C548.519 707.272 541.177 705.106 534.335 706.422L536.073 715.456ZM444.656 668.464C450.122 662.043 458.307 652.638 465.106 645.273C468.523 641.572 471.508 638.475 473.599 636.534C474.704 635.508 475.324 635.028 475.537 634.896C475.568 634.876 475.48 634.935 475.298 635.012C475.171 635.065 474.644 635.282 473.88 635.292C472.99 635.304 471.547 635.007 470.466 633.703C469.533 632.578 469.47 631.401 469.47 630.999L478.67 630.997C478.67 630.386 478.564 629.055 477.547 627.829C476.382 626.424 474.815 626.079 473.761 626.093C472.833 626.105 472.105 626.375 471.739 626.528C471.318 626.705 470.953 626.912 470.673 627.086C469.644 627.728 468.464 628.748 467.339 629.792C464.973 631.989 461.787 635.306 458.346 639.033C451.429 646.524 443.156 656.033 437.65 662.5L444.656 668.464ZM469.47 630.999C469.47 630.495 469.585 630.308 469.442 630.749C469.342 631.062 469.163 631.532 468.888 632.165C468.34 633.423 467.511 635.092 466.442 637.03C464.306 640.903 461.337 645.63 458.056 649.974C454.725 654.383 451.293 658.1 448.274 660.229C445.005 662.534 444.007 661.868 443.827 661.739L438.479 669.225C443.785 673.015 449.645 670.52 453.576 667.747C457.757 664.799 461.869 660.188 465.397 655.519C468.973 650.784 472.176 645.682 474.498 641.473C475.658 639.37 476.628 637.435 477.323 635.837C477.669 635.042 477.973 634.272 478.199 633.571C478.384 632.998 478.67 632.023 478.67 630.997L469.47 630.999Z" fill="#294105"/>
<path d="M535.216 726.705C528.071 673.772 490.119 566.478 395.475 560.761C300.831 555.045 258.115 648.894 248.587 696.533" stroke="#294105" stroke-width="9.2"/>
<path fill-rule="evenodd" clip-rule="evenodd" d="M609.284 778.64C545.614 672.015 459.766 464.483 505.989 316.255C506.562 336.397 516.099 347.395 533.264 367.193L533.265 367.194C536.671 371.123 540.378 375.398 544.375 380.16C541.813 373.585 539.029 366.834 536.2 359.974L536.199 359.971L536.197 359.968L536.196 359.966L536.196 359.965C527.38 338.588 518.129 316.157 513.826 294.739C528.774 259.159 552.496 227.8 587.418 203.185C768.576 75.494 955.805 170.202 1026.77 233.517C975.814 220.049 915.079 211.096 858.904 214.398C828.413 198.606 782.46 175.463 793.998 184.18C798.289 187.421 802.606 191.1 806.884 194.744C818.299 204.471 829.436 213.96 839.063 214.284C842.256 214.392 845.608 214.705 848.866 215.124C829.593 216.788 810.971 219.981 793.598 225.026C755.418 218.059 706.127 210.141 718.179 216.756C723.033 219.421 727.667 222.773 732.259 226.096L732.259 226.096C740.379 231.97 748.368 237.75 757.209 239.462C672.885 283.735 640.738 392.493 763.042 620.982C714.307 785.374 640.231 794.584 609.284 778.64ZM597.098 741.16C602.518 723.662 615.639 686.64 624.765 678.528C605.86 691.683 598.443 725.764 597.098 741.16ZM693.698 472.353C658.554 469.973 589.51 466.428 594.491 471.288C600.718 477.363 689.433 500.087 693.698 472.353Z" fill="#4E7411"/>
<path d="M505.989 316.255L501.597 314.886L510.587 316.124L505.989 316.255ZM609.284 778.64L607.177 782.729L606.009 782.127L605.335 780.998L609.284 778.64ZM533.264 367.193L529.847 370.273L529.817 370.24L529.788 370.207L533.264 367.193ZM533.265 367.194L536.682 364.115L536.711 364.147L536.74 364.181L533.265 367.194ZM544.375 380.16L548.661 378.49L540.851 383.117L544.375 380.16ZM536.2 359.974L531.947 361.728L531.944 361.721L531.941 361.714L536.2 359.974ZM536.199 359.971L540.452 358.221L540.457 358.232L536.199 359.971ZM536.197 359.968L540.451 358.216L540.451 358.217L536.197 359.968ZM536.196 359.966L540.285 357.857L540.375 358.032L540.45 358.214L536.196 359.966ZM536.196 359.965L532.108 362.074L532.018 361.9L531.944 361.719L536.196 359.965ZM513.826 294.739L509.316 295.645L509.037 294.26L509.585 292.957L513.826 294.739ZM587.418 203.185L584.768 199.425L587.418 203.185ZM1026.77 233.517L1029.84 230.085L1025.6 237.964L1026.77 233.517ZM858.904 214.398L859.174 218.99L857.911 219.064L856.788 218.482L858.904 214.398ZM793.998 184.18L791.225 187.85L793.998 184.18ZM806.884 194.744L803.9 198.246L806.884 194.744ZM839.063 214.284L839.218 209.687L839.063 214.284ZM848.866 215.124L849.454 210.562L849.262 219.707L848.866 215.124ZM793.598 225.026L794.881 229.444L793.84 229.746L792.773 229.552L793.598 225.026ZM718.179 216.756L720.392 212.724L718.179 216.756ZM732.259 226.096L734.956 222.369L734.964 222.375L734.973 222.381L732.259 226.096ZM732.259 226.096L729.563 229.823L729.554 229.817L729.546 229.81L732.259 226.096ZM757.209 239.462L758.083 234.946L770.957 237.439L759.347 243.535L757.209 239.462ZM763.042 620.982L767.097 618.811L767.989 620.477L767.452 622.289L763.042 620.982ZM597.098 741.16L601.492 742.521L592.515 740.759L597.098 741.16ZM624.765 678.528L622.138 674.752L627.821 681.966L624.765 678.528ZM693.698 472.353L694.009 467.763L699.006 468.102L698.245 473.052L693.698 472.353ZM594.491 471.288L597.704 467.996L597.704 467.996L594.491 471.288ZM510.38 317.625C487.658 390.491 497.308 478.404 520.854 561.798C544.371 645.091 581.573 723.26 613.234 776.281L605.335 780.998C573.326 727.394 535.769 648.484 512 564.298C488.259 480.213 478.097 390.246 501.597 314.886L510.38 317.625ZM529.788 370.207C512.79 350.601 502.018 338.411 501.391 316.386L510.587 316.124C511.107 334.383 519.408 344.19 536.739 364.18L529.788 370.207ZM529.848 370.274L529.847 370.273L536.681 364.114L536.682 364.115L529.848 370.274ZM540.851 383.117C536.881 378.387 533.197 374.138 529.789 370.208L536.74 364.181C540.145 368.107 543.874 372.409 547.898 377.203L540.851 383.117ZM540.452 358.221C543.278 365.072 546.08 371.866 548.661 378.49L540.088 381.83C537.546 375.305 534.78 368.596 531.947 361.728L540.452 358.221ZM540.457 358.232L540.458 358.235L531.941 361.714L531.94 361.711L540.457 358.232ZM540.451 358.217L540.452 358.221L531.945 361.722L531.943 361.719L540.451 358.217ZM540.45 358.214L540.451 358.216L531.944 361.72L531.943 361.717L540.45 358.214ZM540.284 357.857L540.285 357.857L532.108 362.074L532.108 362.074L540.284 357.857ZM518.335 293.833C522.535 314.732 531.592 336.736 540.449 358.212L531.944 361.719C523.168 340.439 513.724 317.581 509.316 295.645L518.335 293.833ZM590.068 206.945C555.89 231.035 532.7 261.691 518.066 296.521L509.585 292.957C524.848 256.627 549.101 224.565 584.768 199.425L590.068 206.945ZM1023.71 236.95C988.757 205.765 924.935 166.684 847.517 151.235C770.246 135.815 679.473 143.927 590.068 206.945L584.768 199.425C676.521 134.752 769.942 126.373 849.317 142.213C928.546 158.023 993.823 197.954 1029.84 230.085L1023.71 236.95ZM858.634 209.806C915.425 206.467 976.662 215.516 1027.95 229.07L1025.6 237.964C974.966 224.583 914.734 215.724 859.174 218.99L858.634 209.806ZM791.225 187.85C790.466 187.277 789.717 186.669 789.153 186.075C788.923 185.832 788.39 185.255 788.019 184.435C787.827 184.013 787.511 183.165 787.593 182.069C787.689 180.779 788.311 179.572 789.34 178.744C790.215 178.039 791.115 177.824 791.582 177.746C792.09 177.661 792.524 177.669 792.801 177.686C793.352 177.72 793.853 177.828 794.199 177.914C794.927 178.095 795.762 178.381 796.605 178.698C799.987 179.972 805.78 182.629 812.685 185.953C826.605 192.653 845.765 202.412 861.019 210.313L856.788 218.482C841.552 210.591 822.49 200.883 808.695 194.243C801.743 190.897 796.306 188.416 793.363 187.308C792.625 187.03 792.186 186.893 791.981 186.843C791.862 186.813 791.982 186.853 792.243 186.869C792.374 186.877 792.686 186.889 793.094 186.821C793.462 186.76 794.285 186.574 795.108 185.911C796.084 185.126 796.676 183.975 796.767 182.754C796.844 181.727 796.546 180.963 796.398 180.637C796.233 180.272 796.058 180.029 795.984 179.931C795.899 179.818 795.837 179.753 795.827 179.743C795.812 179.726 795.869 179.787 796.049 179.939C796.219 180.082 796.455 180.271 796.771 180.509L791.225 187.85ZM803.9 198.246C799.602 194.583 795.389 190.996 791.225 187.85L796.771 180.509C801.189 183.847 805.61 187.616 809.867 191.243L803.9 198.246ZM838.908 218.882C832.765 218.675 826.679 215.611 821.083 211.861C815.404 208.056 809.554 203.063 803.9 198.246L809.867 191.243C815.628 196.152 821.054 200.767 826.205 204.219C831.438 207.726 835.734 209.57 839.218 209.687L838.908 218.882ZM848.279 219.687C845.122 219.28 841.919 218.983 838.908 218.882L839.218 209.687C842.593 209.801 846.095 210.13 849.454 210.562L848.279 219.687ZM792.315 220.609C810.029 215.465 828.955 212.226 848.471 210.541L849.262 219.707C830.232 221.35 811.914 224.497 794.881 229.444L792.315 220.609ZM715.965 220.789C715.116 220.323 714.096 219.694 713.302 218.869C712.909 218.459 712.266 217.691 711.935 216.567C711.538 215.223 711.692 213.684 712.567 212.373C713.3 211.274 714.279 210.731 714.829 210.479C715.43 210.203 716.018 210.051 716.475 209.958C717.392 209.771 718.417 209.701 719.406 209.679C723.327 209.591 729.882 210.228 737.643 211.236C753.355 213.275 775.319 217.015 794.424 220.501L792.773 229.552C773.697 226.07 751.925 222.367 736.459 220.359C728.632 219.343 722.737 218.806 719.613 218.876C718.841 218.894 718.442 218.946 718.309 218.973C718.24 218.987 718.396 218.965 718.663 218.842C718.878 218.743 719.62 218.377 720.219 217.48C720.96 216.37 721.081 215.057 720.759 213.965C720.502 213.092 720.039 212.602 719.938 212.496C719.728 212.277 719.735 212.363 720.392 212.724L715.965 220.789ZM729.563 229.823C724.926 226.468 720.525 223.291 715.965 220.789L720.392 212.724C725.541 215.55 730.407 219.078 734.956 222.369L729.563 229.823ZM729.546 229.81L729.545 229.81L734.973 222.381L734.973 222.382L729.546 229.81ZM756.334 243.978C746.305 242.036 737.468 235.542 729.563 229.823L734.956 222.369C743.29 228.399 750.431 233.464 758.083 234.946L756.334 243.978ZM758.986 623.153C697.681 508.621 674.691 423.416 678.047 360.894C681.424 297.958 711.502 258.264 755.07 235.389L759.347 243.535C718.591 264.933 690.434 301.755 687.233 361.387C684.011 421.435 706.099 504.854 767.097 618.811L758.986 623.153ZM611.391 774.55C625.187 781.658 649.583 783.641 676.774 763.726C704.107 743.707 734.404 701.398 758.632 619.674L767.452 622.289C742.944 704.958 711.836 749.45 682.21 771.148C652.444 792.949 624.328 791.565 607.177 782.729L611.391 774.55ZM592.704 739.799C595.443 730.956 600.122 717.194 605.284 704.582C607.864 698.28 610.594 692.189 613.293 687.116C615.911 682.194 618.762 677.709 621.709 675.09L627.821 681.966C626.205 683.403 623.994 686.588 621.415 691.436C618.918 696.132 616.318 701.912 613.799 708.067C608.764 720.368 604.173 733.866 601.492 742.521L592.704 739.799ZM627.392 682.304C619.117 688.063 612.95 698.777 608.671 710.572C604.44 722.236 602.323 734.206 601.68 741.56L592.515 740.759C593.218 732.718 595.483 719.949 600.022 707.435C604.515 695.052 611.509 682.149 622.138 674.752L627.392 682.304ZM693.388 476.942C675.846 475.754 649.867 474.278 628.922 473.704C618.424 473.416 609.311 473.359 603.177 473.664C600.03 473.82 597.993 474.059 596.98 474.308C596.753 474.364 596.695 474.393 596.748 474.371C596.779 474.357 596.878 474.314 597.018 474.228C597.153 474.146 597.389 473.988 597.65 473.727C598.217 473.16 598.983 471.987 598.812 470.372C598.666 468.99 597.911 468.198 597.704 467.996L591.279 474.581C590.761 474.075 589.839 472.995 589.664 471.341C589.464 469.456 590.339 468.026 591.147 467.219C591.866 466.501 592.665 466.109 593.159 465.899C593.709 465.667 594.273 465.5 594.785 465.374C596.732 464.896 599.547 464.633 602.721 464.475C609.23 464.152 618.641 464.219 629.174 464.507C650.292 465.086 676.407 466.571 694.009 467.763L693.388 476.942ZM597.704 467.996C597.545 467.841 597.701 468.024 598.632 468.486C599.442 468.889 600.565 469.371 601.997 469.914C604.854 470.997 608.702 472.232 613.241 473.483C622.316 475.983 633.906 478.479 645.408 479.935C656.991 481.402 668.118 481.764 676.433 480.219C685.049 478.618 688.564 475.474 689.152 471.653L698.245 473.052C696.7 483.099 687.526 487.515 678.114 489.264C668.401 491.068 656.159 490.57 644.253 489.062C632.264 487.545 620.242 484.954 610.797 482.352C606.077 481.052 601.94 479.731 598.736 478.517C597.139 477.911 595.713 477.309 594.538 476.725C593.483 476.201 592.216 475.495 591.279 474.581L597.704 467.996Z" fill="#294105"/>
<path d="M648.238 701.455C579.757 613.897 475.046 401.451 604.049 252.135C733.052 102.82 934.946 175.543 1019.77 230.569" stroke="#294105" stroke-width="9.2"/>
<path fill-rule="evenodd" clip-rule="evenodd" d="M438.34 665.401C439.815 666.681 440.851 668.48 441.141 670.567C449.936 733.893 464.816 830.128 480.861 913.009C488.888 954.472 497.177 992.433 505.108 1021.21C509.08 1035.62 512.908 1047.53 516.501 1056.36C518.293 1060.76 519.959 1064.23 521.47 1066.78C535.61 1034.37 547.76 1004.3 558.091 976.422C543.824 963.602 532.542 957.333 516.345 952.652L554.332 962.821C555.547 963.147 556.667 963.767 557.595 964.617C558.825 965.745 560.03 966.837 561.219 967.898C566.427 953.555 571.143 939.808 575.392 926.637C568.609 918.087 557.596 914.898 540.131 915.088L579.553 913.433C586.52 890.79 592.045 869.929 596.265 850.731C588.324 850.233 579.248 850.29 568.25 850.742C567.44 850.775 566.622 850.589 565.91 850.198C561.265 847.65 564.531 839.237 569.772 840.019C578.906 841.382 587.691 842.01 598.064 842.266C604.753 809.633 607.532 782.01 607.127 758.767C596.022 758.835 585.605 762.099 575.215 768.662C561.525 777.312 540.129 769.742 540.129 753.548C540.129 740.581 554.008 732.376 566.018 737.262C580.05 742.971 593.158 746.33 606.642 747.215C599 634.346 509.073 636.392 438.34 665.401ZM500.752 1062.05C496.882 1052.43 492.937 1040.03 488.977 1025.66C480.874 996.257 472.489 957.801 464.433 916.19C448.313 832.922 433.387 736.374 424.567 672.869C424.453 672.045 424.463 671.233 424.582 670.451C356.966 685.378 334.077 730.272 337.051 784.961C346.497 781.262 354.7 775.499 363.028 766.652C371.747 757.39 387.247 757.642 393.826 768.529C401.336 780.958 391.147 796.336 376.698 797.793C365.282 798.943 356.891 802.232 350.743 808.318C348.065 810.97 344.64 813.224 340.958 814.823C347.539 847.624 361.442 882.449 379.17 915.558C380.483 915.006 381.858 914.57 383.276 914.268C392.096 912.389 398.783 908.642 404.522 902.599C411.45 895.303 424.252 894.906 428.89 903.835C434.656 914.936 418.225 928.179 407.834 935.143C405.279 936.855 402.932 939.237 400.73 942.306C399.653 943.809 398.395 945.149 397.012 946.313C429.417 998.123 469.111 1042.17 500.752 1062.05Z" fill="#4E7411"/>
<path d="M441.141 670.567L436.585 671.199V671.199L441.141 670.567ZM438.34 665.401L436.594 661.145C435.117 661.751 434.059 663.079 433.801 664.655C433.542 666.231 434.119 667.828 435.325 668.875L438.34 665.401ZM480.861 913.009L476.345 913.884V913.884L480.861 913.009ZM505.108 1021.21L509.543 1019.99L505.108 1021.21ZM516.501 1056.36L520.762 1054.62V1054.62L516.501 1056.36ZM521.47 1066.78L517.509 1069.12C518.387 1070.61 520.025 1071.48 521.75 1071.38C523.475 1071.27 524.995 1070.21 525.686 1068.62L521.47 1066.78ZM558.091 976.422L562.404 978.021C563.06 976.252 562.569 974.262 561.166 973.001L558.091 976.422ZM516.345 952.652L517.534 948.209C515.097 947.556 512.59 948.988 511.913 951.419C511.237 953.849 512.644 956.371 515.068 957.071L516.345 952.652ZM554.332 962.821L553.142 967.265H553.142L554.332 962.821ZM557.595 964.617L554.486 968.008L554.486 968.008L557.595 964.617ZM561.219 967.898L558.155 971.33C559.293 972.346 560.862 972.732 562.342 972.359C563.822 971.986 565.021 970.903 565.542 969.469L561.219 967.898ZM575.392 926.637L579.769 928.049C580.241 926.585 579.951 924.983 578.995 923.778L575.392 926.637ZM540.131 915.088L539.938 910.492C537.428 910.597 535.466 912.698 535.533 915.209C535.599 917.721 537.669 919.715 540.181 919.688L540.131 915.088ZM579.553 913.433L579.746 918.029C581.693 917.948 583.377 916.648 583.95 914.786L579.553 913.433ZM596.265 850.731L600.758 851.719C601.046 850.407 600.747 849.035 599.939 847.963C599.13 846.89 597.894 846.225 596.554 846.14L596.265 850.731ZM568.25 850.742L568.439 855.338H568.439L568.25 850.742ZM565.91 850.198L563.698 854.231H563.698L565.91 850.198ZM569.772 840.019L569.093 844.568H569.093L569.772 840.019ZM598.064 842.266L597.951 846.864C600.177 846.919 602.123 845.371 602.57 843.19L598.064 842.266ZM607.127 758.767L611.726 758.687C611.682 756.167 609.618 754.152 607.098 754.167L607.127 758.767ZM575.215 768.662L572.758 764.773L575.215 768.662ZM540.129 753.548L535.529 753.548V753.548H540.129ZM566.018 737.262L564.285 741.523L566.018 737.262ZM606.642 747.215L606.341 751.805C607.665 751.892 608.962 751.404 609.899 750.465C610.836 749.526 611.322 748.228 611.232 746.905L606.642 747.215ZM488.977 1025.66L484.542 1026.88L488.977 1025.66ZM500.752 1062.05L498.305 1065.94C499.993 1067 502.172 1066.86 503.702 1065.58C505.232 1064.3 505.764 1062.18 505.02 1060.33L500.752 1062.05ZM464.433 916.19L459.917 917.064V917.064L464.433 916.19ZM424.567 672.869L429.124 672.236V672.236L424.567 672.869ZM424.582 670.451L429.129 671.145C429.358 669.646 428.833 668.13 427.726 667.093C426.619 666.056 425.072 665.632 423.59 665.959L424.582 670.451ZM337.051 784.961L332.458 785.211C332.538 786.685 333.321 788.032 334.562 788.83C335.804 789.629 337.354 789.783 338.728 789.245L337.051 784.961ZM363.028 766.652L359.679 763.499H359.679L363.028 766.652ZM393.826 768.529L389.888 770.908L393.826 768.529ZM376.698 797.793L376.236 793.216H376.236L376.698 797.793ZM350.743 808.318L347.507 805.049H347.507L350.743 808.318ZM340.958 814.823L339.126 810.603C337.137 811.467 336.022 813.602 336.448 815.728L340.958 814.823ZM379.17 915.558L375.115 917.73C376.236 919.823 378.765 920.719 380.953 919.799L379.17 915.558ZM383.276 914.268L384.234 918.767H384.234L383.276 914.268ZM404.522 902.599L401.186 899.431L404.522 902.599ZM428.89 903.835L432.972 901.714L428.89 903.835ZM407.834 935.143L405.273 931.322L405.273 931.322L407.834 935.143ZM400.73 942.306L396.992 939.625H396.992L400.73 942.306ZM397.012 946.313L394.051 942.792C392.297 944.267 391.897 946.809 393.112 948.752L397.012 946.313ZM445.697 669.934C445.249 666.703 443.638 663.908 441.355 661.926L435.325 668.875C435.992 669.453 436.454 670.257 436.585 671.199L445.697 669.934ZM485.377 912.135C469.352 829.36 454.486 733.211 445.697 669.934L436.585 671.199C445.387 734.575 460.279 830.896 476.345 913.884L485.377 912.135ZM509.543 1019.99C501.659 991.381 493.397 953.557 485.377 912.135L476.345 913.884C484.38 955.387 492.695 993.484 500.674 1022.44L509.543 1019.99ZM520.762 1054.62C517.267 1046.04 513.494 1034.33 509.543 1019.99L500.674 1022.44C504.666 1036.92 508.549 1049.03 512.241 1058.09L520.762 1054.62ZM525.431 1064.45C524.075 1062.15 522.505 1058.91 520.762 1054.62L512.241 1058.09C514.081 1062.61 515.843 1066.3 517.509 1069.12L525.431 1064.45ZM553.778 974.824C543.48 1002.61 531.364 1032.6 517.253 1064.94L525.686 1068.62C539.857 1036.14 552.04 1005.99 562.404 978.021L553.778 974.824ZM515.068 957.071C530.547 961.545 541.224 967.45 555.017 979.844L561.166 973.001C546.424 959.754 534.538 953.122 517.622 948.233L515.068 957.071ZM555.522 958.378L517.534 948.209L515.155 957.096L553.142 967.265L555.522 958.378ZM560.703 961.227C559.24 959.885 557.464 958.898 555.521 958.378L553.142 967.265C553.63 967.396 554.095 967.649 554.486 968.008L560.703 961.227ZM564.283 964.467C563.111 963.421 561.92 962.342 560.703 961.227L554.486 968.008C555.729 969.148 556.95 970.254 558.155 971.33L564.283 964.467ZM571.014 925.225C566.784 938.34 562.086 952.034 556.895 966.328L565.542 969.469C570.769 955.076 575.503 941.277 579.769 928.049L571.014 925.225ZM540.181 919.688C557.282 919.501 566.385 922.685 571.788 929.496L578.995 923.778C570.833 913.488 557.911 910.294 540.081 910.488L540.181 919.688ZM579.36 908.837L539.938 910.492L540.324 919.684L579.746 918.029L579.36 908.837ZM591.773 849.744C587.583 868.803 582.092 889.541 575.157 912.081L583.95 914.786C590.949 892.038 596.508 871.055 600.758 851.719L591.773 849.744ZM568.439 855.338C579.365 854.889 588.263 854.838 595.977 855.322L596.554 846.14C588.385 845.628 579.131 845.691 568.061 846.146L568.439 855.338ZM563.698 854.231C565.16 855.033 566.81 855.405 568.439 855.338L568.062 846.146C568.07 846.146 568.076 846.146 568.08 846.148C568.085 846.149 568.1 846.152 568.123 846.165L563.698 854.231ZM570.451 835.469C564.909 834.642 561.175 838.727 559.839 842.213C558.503 845.695 558.551 851.408 563.698 854.231L568.123 846.165C568.118 846.163 568.134 846.171 568.161 846.195C568.189 846.219 568.217 846.249 568.242 846.284C568.295 846.357 568.302 846.401 568.296 846.376C568.276 846.289 568.252 845.967 568.429 845.506C568.603 845.051 568.864 844.749 569.041 844.618C569.117 844.562 569.149 844.557 569.132 844.562C569.106 844.569 569.083 844.567 569.093 844.568L570.451 835.469ZM598.177 837.667C587.935 837.415 579.346 836.797 570.451 835.469L569.093 844.568C578.465 845.967 587.448 846.605 597.951 846.864L598.177 837.667ZM602.527 758.847C602.925 781.673 600.197 808.951 593.558 841.342L602.57 843.19C609.309 810.315 612.138 782.346 611.726 758.687L602.527 758.847ZM607.098 754.167C595.031 754.241 583.783 757.809 572.758 764.773L577.672 772.551C587.426 766.389 597.013 763.429 607.155 763.367L607.098 754.167ZM572.758 764.773C567.311 768.215 560.115 768.507 554.253 766.153C548.453 763.823 544.729 759.295 544.729 753.548H535.529C535.529 763.994 542.503 771.348 550.824 774.69C559.082 778.007 569.429 777.759 577.672 772.551L572.758 764.773ZM544.729 753.548C544.729 744.283 554.885 737.699 564.285 741.523L567.752 733.001C553.131 727.053 535.529 736.88 535.529 753.548L544.729 753.548ZM564.285 741.523C578.671 747.376 592.265 750.882 606.341 751.805L606.944 742.625C594.05 741.779 581.429 738.566 567.752 733.001L564.285 741.523ZM440.085 669.657C475.074 655.307 514.022 647.994 544.793 657.499C560.042 662.21 573.321 671.054 583.294 685.366C593.304 699.731 600.182 719.896 602.053 747.526L611.232 746.905C609.282 718.1 602.053 696.195 590.842 680.106C579.594 663.963 564.537 653.969 547.508 648.709C513.721 638.272 472.338 646.485 436.594 661.145L440.085 669.657ZM484.542 1026.88C488.523 1041.33 492.521 1053.91 496.485 1063.76L505.02 1060.33C501.242 1050.94 497.351 1038.73 493.412 1024.44L484.542 1026.88ZM459.917 917.064C467.981 958.717 476.392 997.308 484.542 1026.88L493.412 1024.44C485.356 995.205 476.998 956.886 468.95 915.315L459.917 917.064ZM420.011 673.501C428.838 737.056 443.776 833.69 459.917 917.064L468.95 915.315C452.85 832.154 437.937 735.692 429.124 672.236L420.011 673.501ZM420.035 669.756C419.849 670.973 419.835 672.232 420.011 673.501L429.124 672.236C429.071 671.857 429.076 671.492 429.129 671.145L420.035 669.756ZM341.644 784.712C340.194 758.039 345.078 734.253 358.127 715.415C371.132 696.64 392.64 682.213 425.574 674.942L423.59 665.959C388.908 673.616 365.164 689.1 350.564 710.176C336.008 731.189 330.934 757.195 332.458 785.211L341.644 784.712ZM359.679 763.499C351.732 771.941 344.079 777.269 335.373 780.678L338.728 789.245C348.916 785.255 357.669 779.056 366.378 769.805L359.679 763.499ZM397.763 766.15C389.303 752.149 370.059 752.473 359.679 763.499L366.378 769.805C373.436 762.308 385.191 763.134 389.888 770.908L397.763 766.15ZM377.159 802.369C385.877 801.49 393.288 796.429 397.42 789.676C401.593 782.857 402.536 774.05 397.763 766.15L389.888 770.908C392.625 775.437 392.23 780.533 389.573 784.874C386.875 789.282 381.968 792.638 376.236 793.216L377.159 802.369ZM353.979 811.587C359.133 806.485 366.385 803.456 377.159 802.369L376.236 793.216C364.18 794.431 354.649 797.979 347.507 805.049L353.979 811.587ZM342.791 819.042C346.939 817.24 350.855 814.681 353.979 811.587L347.507 805.049C345.275 807.259 342.341 809.207 339.126 810.603L342.791 819.042ZM383.226 913.387C365.64 880.545 351.935 846.152 345.468 813.918L336.448 815.728C343.142 849.096 357.244 884.354 375.115 917.73L383.226 913.387ZM382.317 909.769C380.61 910.133 378.96 910.657 377.387 911.318L380.953 919.799C382.007 919.355 383.106 919.007 384.234 918.767L382.317 909.769ZM401.186 899.431C396.115 904.772 390.268 908.075 382.317 909.769L384.234 918.767C393.923 916.703 401.452 912.512 407.857 905.767L401.186 899.431ZM432.972 901.714C429.739 895.491 423.668 892.669 417.669 892.534C411.754 892.401 405.564 894.822 401.186 899.431L407.857 905.767C410.408 903.08 414.083 901.655 417.461 901.732C420.755 901.806 423.403 903.25 424.807 905.955L432.972 901.714ZM410.394 938.964C415.696 935.411 422.832 930.072 427.94 924.002C432.817 918.206 437.256 909.963 432.972 901.714L424.807 905.955C426.289 908.807 425.396 912.737 420.901 918.079C416.637 923.146 410.362 927.911 405.273 931.322L410.394 938.964ZM404.468 944.987C406.429 942.254 408.399 940.301 410.394 938.964L405.273 931.322C402.159 933.409 399.434 936.221 396.992 939.625L404.468 944.987ZM399.973 949.833C401.637 948.434 403.158 946.814 404.468 944.987L396.992 939.625C396.147 940.804 395.154 941.865 394.051 942.792L399.973 949.833ZM503.199 1058.15C472.395 1038.8 433.146 995.409 400.912 943.873L393.112 948.752C425.689 1000.84 465.827 1045.54 498.305 1065.94L503.199 1058.15Z" fill="#294105"/>
<path d="M456.646 1077.92L457.613 1078.54L458.746 1078.73C475.211 1081.43 500.169 1085.78 521.527 1090.01C532.216 1092.12 541.934 1094.2 549.214 1096.02C552.867 1096.93 555.808 1097.75 557.917 1098.46C558.978 1098.82 559.726 1099.11 560.206 1099.33C560.274 1099.36 560.331 1099.39 560.378 1099.41C563.534 1102.56 567.142 1103.9 569.134 1104.64C569.461 1104.77 569.745 1104.87 569.976 1104.97C570.218 1105.07 570.398 1105.15 570.529 1105.21C570.532 1105.27 570.535 1105.35 570.535 1105.43L570.604 1112.08L577.141 1110.86C578.655 1110.57 580.722 1109.88 582.224 1108.01C583.842 1105.99 583.94 1103.72 583.704 1102.17C583.482 1100.72 582.915 1099.44 582.46 1098.53C581.978 1097.57 581.401 1096.62 580.897 1095.8C580.741 1095.55 580.591 1095.31 580.448 1095.08C579.546 1093.62 578.883 1092.55 578.46 1091.57C578.422 1091.48 578.389 1091.39 578.361 1091.32L578.761 1090.62L578.629 1088.92C578.385 1085.75 578.531 1084.93 578.732 1084.43C578.916 1083.98 579.457 1083.07 582.191 1080.87L583.715 1079.65L584.143 1077.74C584.326 1076.93 584.529 1076.09 584.743 1075.23L584.804 1074.98C584.994 1074.21 585.193 1073.4 585.37 1072.63C585.73 1071.06 586.157 1069.03 586.139 1067.23C586.129 1066.35 586.021 1064.86 585.237 1063.39C584.269 1061.57 582.503 1060.23 580.263 1059.92C578.446 1059.67 576.862 1060.19 575.859 1060.61C574.76 1061.08 573.657 1061.73 572.575 1062.47C572.171 1062.74 571.788 1063.01 571.423 1063.26C570.03 1064.21 568.894 1064.99 567.813 1065.65C566.468 1066.47 565.585 1066.87 564.949 1067.04C564.426 1067.18 564.103 1067.16 563.757 1067.07C563.326 1066.94 562.521 1066.58 561.257 1065.5C557.534 1062.31 543.383 1052.47 527.397 1043.49C519.352 1038.97 510.681 1034.58 502.473 1031.32C494.401 1028.12 486.22 1025.77 479.339 1025.85L479.095 1025.85L478.852 1025.87C464.311 1027.3 455.261 1038.11 451.44 1048.71C449.515 1054.05 448.747 1059.72 449.352 1064.77C449.94 1069.69 451.984 1074.94 456.646 1077.92ZM560.578 1099.52C560.578 1099.52 560.569 1099.51 560.553 1099.5C560.57 1099.51 560.578 1099.52 560.578 1099.52ZM570.487 1104.87C570.487 1104.87 570.488 1104.87 570.49 1104.88C570.488 1104.87 570.487 1104.87 570.487 1104.87ZM578.218 1090.85C578.22 1090.85 578.225 1090.88 578.23 1090.92C578.218 1090.87 578.216 1090.85 578.218 1090.85ZM580.244 1070.88C580.244 1070.88 580.226 1070.89 580.192 1070.9C580.228 1070.88 580.244 1070.88 580.244 1070.88ZM574.98 1067.34C574.98 1067.35 574.98 1067.36 574.98 1067.36C574.976 1067.31 574.979 1067.3 574.98 1067.34Z" fill="#6ED5A6" stroke="#012758" stroke-width="11.1594" stroke-linecap="round"/>
<path fill-rule="evenodd" clip-rule="evenodd" d="M459.343 1074.45C492.344 1079.87 559.429 1091.86 563.759 1096.43C566.03 1098.82 568.504 1099.77 570.616 1100.57C573.537 1101.69 575.765 1102.54 575.807 1106.6C579.54 1105.9 577.605 1102.79 575.425 1099.29C573.894 1096.83 572.242 1094.17 572.349 1092.03L454.985 1056.88C453.507 1064.48 454.926 1071.63 459.343 1074.45Z" fill="#24A98E"/>
<circle cx="558.24" cy="1107.83" r="10.5053" transform="rotate(-60.7213 558.24 1107.83)" fill="#6ED5A6" stroke="#012758" stroke-width="5.57968"/>
<circle cx="572.899" cy="1094.91" r="10.5053" transform="rotate(-60.7213 572.899 1094.91)" fill="#6ED5A6" stroke="#012758" stroke-width="5.57968"/>
<circle cx="582.512" cy="1076.05" r="10.5053" transform="rotate(-60.7213 582.512 1076.05)" fill="#6ED5A6" stroke="#012758" stroke-width="5.57968"/>
<path d="M435.289 1065.66C450.279 1070.38 463.864 1069.88 473.693 1065C483.525 1060.11 489.818 1050.66 489.313 1037.44C488.807 1024.22 481.63 1010.52 471.18 999.243C460.734 987.968 446.779 978.792 431.789 974.069C416.799 969.346 403.214 969.844 393.386 974.732C383.553 979.621 377.261 989.071 377.766 1002.29C378.271 1015.51 385.448 1029.21 395.898 1040.49C406.344 1051.76 420.299 1060.94 435.289 1065.66Z" fill="#6ED5A6" stroke="#012758" stroke-width="11.1594"/>
<path d="M468.988 1013.17C453.521 990.651 423.274 978.653 401.429 986.376" stroke="#FCF6EA" stroke-width="11.1594" stroke-linecap="round"/>
<ellipse cx="475.892" cy="1032.55" rx="8.82279" ry="5.99448" transform="rotate(40.6924 475.892 1032.55)" fill="#FCF6EA"/>
<path fill-rule="evenodd" clip-rule="evenodd" d="M483.132 1045.4C478.789 1061.8 459.165 1068.9 435.09 1061.31C411.436 1053.86 391.088 1034.63 384.96 1015.4C410.898 1031.58 448.102 1048.13 483.132 1045.4Z" fill="#24A98E"/>
<path d="M238.416 1006.87C232.19 1033.58 209.092 1083.89 166.512 1071.53C123.931 1059.18 196.706 1023.28 238.416 1006.87Z" fill="#6ED5A6" stroke="#012758" stroke-width="11.1594"/>
<circle cx="13.2952" cy="13.2952" r="10.5053" transform="matrix(-0.554053 -0.832482 -0.832482 0.554053 190.744 1083.91)" fill="#6ED5A6" stroke="#012758" stroke-width="5.57968"/>
<circle cx="13.2952" cy="13.2952" r="10.5053" transform="matrix(-0.554053 -0.832482 -0.832482 0.554053 171.1 1075.54)" fill="#6ED5A6" stroke="#012758" stroke-width="5.57968"/>
<circle cx="13.2952" cy="13.2952" r="10.5053" transform="matrix(-0.554053 -0.832482 -0.832482 0.554053 167.321 1054.71)" fill="#6ED5A6" stroke="#012758" stroke-width="5.57968"/>
<rect x="-5.83442" y="5.31273" width="119.405" height="49.6591" rx="24.8296" transform="matrix(-0.998907 -0.0467491 -0.0467491 0.998907 410.926 772.858)" fill="#86AC3B" stroke="#012758" stroke-width="11.1594"/>
<circle cx="9.76444" cy="9.76444" r="5.57968" transform="matrix(-0.953665 0.300872 0.300872 0.953665 273.9 780.879)" fill="#89B03D" stroke="#012758" stroke-width="8.36952"/>
<path d="M273.3 768.727L344.568 770.23L341.728 815.007C338.19 815.539 319.868 815.819 274.884 812.693C243.692 799.131 258.316 775.014 273.3 768.727Z" fill="#8EB540" stroke="#012758" stroke-width="11.1594"/>
<rect x="-5.83442" y="5.31273" width="119.405" height="49.6591" rx="24.8296" transform="matrix(-0.998907 -0.0467491 -0.0467491 0.998907 354.794 818.969)" fill="#86AC3B" stroke="#012758" stroke-width="11.1594"/>
<rect x="7.8452" y="0.847607" width="119.405" height="102.841" rx="45.8766" transform="matrix(0.627061 0.77897 0.77897 -0.627061 331.198 854.364)" fill="#8FB03F" stroke="#012758" stroke-width="11.1594"/>
<rect x="-0.847607" y="7.8452" width="119.405" height="49.6591" rx="24.8296" transform="matrix(-0.77897 0.627061 0.627061 0.77897 400.051 762.685)" fill="#86AC3B" stroke="#012758" stroke-width="11.1594"/>
<rect x="6.19367" y="4.88917" width="67.3556" height="31.1677" rx="15.5838" transform="matrix(0.116898 0.993144 0.993144 -0.116898 268.245 839.676)" fill="#BE8F65" stroke="#012758" stroke-width="11.1594"/>
<rect x="-7.8452" y="-0.847608" width="48.8826" height="21.2089" rx="10.6045" transform="matrix(-0.627061 -0.77897 -0.77897 0.627061 434.835 884.194)" fill="#BE8F65" stroke="#012758" stroke-width="11.1594"/>
<rect x="-7.8452" y="-0.847608" width="23.4155" height="21.2089" rx="10.6045" transform="matrix(-0.627061 -0.77897 -0.77897 0.627061 418.912 864.335)" fill="#6ED5A6" stroke="#012758" stroke-width="11.1594"/>
<circle cx="26.5035" cy="26.5035" r="20.9238" transform="matrix(-0.953665 0.300872 0.300872 0.953665 362.592 757.517)" fill="#89B03D" stroke="#012758" stroke-width="11.1594"/>
<circle cx="9.76444" cy="9.76444" r="5.57968" transform="matrix(-0.953665 0.300872 0.300872 0.953665 349.826 779.476)" fill="#89B03D" stroke="#012758" stroke-width="8.36952"/>
<circle cx="4.28594" cy="4.28594" r="4.28594" transform="matrix(-0.929048 0.369959 0.369959 0.929048 293.797 855.7)" fill="#012758"/>
<circle cx="4.28594" cy="4.28594" r="4.28594" transform="matrix(-0.953665 0.300872 0.300872 0.953665 277.678 784.686)" fill="#4E7411"/>
<circle cx="4.28594" cy="4.28594" r="4.28594" transform="matrix(-0.929048 0.369959 0.369959 0.929048 264.694 841.238)" fill="#4E7411"/>
<circle cx="4.28594" cy="4.28594" r="4.28594" transform="matrix(-0.914723 0.404082 0.404082 0.914723 380.694 820.543)" fill="#4E7411"/>
<circle cx="4.28594" cy="4.28594" r="4.28594" transform="matrix(-0.929048 0.369959 0.369959 0.929048 296.119 875.424)" fill="#012758"/>
<circle cx="4.28594" cy="4.28594" r="4.28594" transform="matrix(-0.929048 0.369959 0.369959 0.929048 298.017 891.548)" fill="#012758"/>
<circle cx="155.596" cy="940.298" r="27.8984" transform="rotate(-42.4989 155.596 940.298)" fill="#FDE7D2" stroke="#062855" stroke-width="11.1594"/>
<circle cx="155.597" cy="940.298" r="14.2282" transform="rotate(-42.4989 155.597 940.298)" fill="#022656"/>
<mask id="path-54-outside-1_150_468" maskUnits="userSpaceOnUse" x="101.655" y="789.968" width="359.173" height="359.976" fill="black">
<rect fill="white" x="101.655" y="789.968" width="359.173" height="359.976"/>
<path fill-rule="evenodd" clip-rule="evenodd" d="M239.017 1044.73C215.262 1046.21 191.07 1037.33 173.738 1018.42C143.291 985.188 145.546 933.569 178.774 903.122C201.35 882.436 232.415 876.846 259.561 885.808C279.172 877.73 301.926 875.404 324.908 880.512C380.715 892.916 416.733 944.458 405.358 995.634C393.984 1046.81 339.522 1078.24 283.716 1065.84C266.721 1062.06 251.562 1054.65 239.017 1044.73Z"/>
</mask>
<path fill-rule="evenodd" clip-rule="evenodd" d="M239.017 1044.73C215.262 1046.21 191.07 1037.33 173.738 1018.42C143.291 985.188 145.546 933.569 178.774 903.122C201.35 882.436 232.415 876.846 259.561 885.808C279.172 877.73 301.926 875.404 324.908 880.512C380.715 892.916 416.733 944.458 405.358 995.634C393.984 1046.81 339.522 1078.24 283.716 1065.84C266.721 1062.06 251.562 1054.65 239.017 1044.73Z" fill="#6ED5A6"/>
<path d="M239.017 1044.73L245.939 1035.98L242.588 1033.33L238.324 1033.59L239.017 1044.73ZM259.561 885.808L256.063 896.405L259.989 897.701L263.811 896.126L259.561 885.808ZM324.908 880.512L327.329 869.619L324.908 880.512ZM283.716 1065.84L281.295 1076.73L281.295 1076.73L283.716 1065.84ZM238.324 1033.59C217.789 1034.87 196.924 1027.2 181.966 1010.88L165.511 1025.96C185.215 1047.46 212.734 1057.55 239.709 1055.87L238.324 1033.59ZM181.966 1010.88C155.683 982.193 157.629 937.633 186.313 911.35L171.235 894.895C133.463 929.505 130.9 988.183 165.511 1025.96L181.966 1010.88ZM186.313 911.35C205.791 893.503 232.597 888.658 256.063 896.405L263.06 875.211C232.232 865.033 196.909 871.37 171.235 894.895L186.313 911.35ZM263.811 896.126C281.314 888.917 301.739 886.794 322.487 891.406L327.329 869.619C302.113 864.014 277.03 866.543 255.311 875.49L263.811 896.126ZM322.487 891.406C373.184 902.674 404.309 948.922 394.465 993.213L416.252 998.056C429.157 939.994 388.245 883.158 327.329 869.619L322.487 891.406ZM394.465 993.213C384.62 1037.5 336.835 1066.21 286.137 1054.94L281.295 1076.73C342.21 1090.27 403.347 1056.12 416.252 998.056L394.465 993.213ZM286.137 1054.94C270.794 1051.53 257.171 1044.86 245.939 1035.98L232.094 1053.49C245.952 1064.44 262.648 1072.59 281.295 1076.73L286.137 1054.94Z" fill="#012758" mask="url(#path-54-outside-1_150_468)"/>
<path fill-rule="evenodd" clip-rule="evenodd" d="M173.736 1018.42C191.068 1037.33 215.26 1046.21 239.015 1044.73C251.56 1054.65 266.72 1062.06 283.714 1065.84C335.5 1077.35 386.127 1051.11 402.242 1006.38L210.641 968.188L157.838 992.901C161.403 1002.06 166.695 1010.73 173.736 1018.42Z" fill="#FFF3E5"/>
<path d="M215.759 891.225C187.085 891.071 161.92 919.672 161.771 947.33" stroke="#FCF6EA" stroke-width="11.1594" stroke-linecap="round"/>
<line x1="281.962" y1="914.934" x2="286.124" y2="914.889" stroke="#012758" stroke-width="11.1594" stroke-linecap="round"/>
<line x1="298.24" y1="900.48" x2="302.71" y2="900.299" stroke="#012758" stroke-width="11.1594" stroke-linecap="round"/>
<line x1="264.077" y1="897.274" x2="271.022" y2="897.13" stroke="#012758" stroke-width="11.1594" stroke-linecap="round"/>
<circle cx="220.996" cy="880.373" r="27.8984" transform="rotate(-42.4989 220.996 880.373)" fill="#FDE7D2" stroke="#062855" stroke-width="11.1594"/>
<circle cx="220.996" cy="880.373" r="14.2282" transform="rotate(-42.4989 220.996 880.373)" fill="#022656"/>
<circle cx="179.464" cy="955.172" r="8.97234" transform="rotate(-42.4989 179.464 955.172)" fill="#022656"/>
<circle cx="206.087" cy="930.777" r="8.97234" transform="rotate(-42.4989 206.087 930.777)" fill="#022656"/>
<path d="M161.079 989.463C180.057 985.948 222.512 968.135 240.509 925.007" stroke="#012758" stroke-width="11.1594" stroke-linecap="round"/>
<path d="M486.399 1008.09L487.173 1008.93L488.219 1009.41C503.423 1016.28 526.406 1026.94 545.942 1036.55C555.719 1041.36 564.568 1045.88 571.13 1049.52C574.422 1051.35 577.05 1052.9 578.905 1054.13C579.837 1054.75 580.484 1055.23 580.891 1055.57C580.948 1055.61 580.996 1055.65 581.036 1055.69C583.269 1059.55 586.406 1061.78 588.139 1063.01C588.423 1063.21 588.67 1063.39 588.869 1063.54C589.077 1063.7 589.229 1063.82 589.339 1063.92C589.326 1063.98 589.31 1064.05 589.289 1064.13L587.634 1070.57L594.265 1071.08C595.801 1071.2 597.977 1071.06 599.913 1069.65C601.997 1068.12 602.679 1065.95 602.851 1064.4C603.013 1062.94 602.797 1061.55 602.592 1060.56C602.375 1059.51 602.065 1058.43 601.789 1057.51C601.704 1057.23 601.622 1056.96 601.543 1056.7C601.048 1055.06 600.684 1053.86 600.532 1052.79C600.518 1052.69 600.507 1052.61 600.499 1052.53L601.067 1051.96L601.381 1050.27C601.965 1047.15 602.317 1046.4 602.641 1045.97C602.937 1045.58 603.695 1044.84 606.904 1043.43L608.692 1042.64L609.599 1040.91C609.986 1040.17 610.399 1039.42 610.829 1038.64L610.953 1038.41C611.336 1037.71 611.736 1036.99 612.107 1036.29C612.86 1034.87 613.799 1033.02 614.248 1031.27C614.467 1030.42 614.746 1028.95 614.37 1027.33C613.906 1025.32 612.548 1023.57 610.463 1022.69C608.772 1021.98 607.109 1022.07 606.03 1022.22C604.849 1022.38 603.614 1022.73 602.378 1023.16C601.916 1023.32 601.479 1023.48 601.061 1023.63C599.468 1024.19 598.17 1024.65 596.954 1025C595.443 1025.45 594.488 1025.6 593.829 1025.6C593.287 1025.61 592.979 1025.51 592.671 1025.32C592.286 1025.09 591.602 1024.54 590.661 1023.16C587.89 1019.12 576.77 1005.95 563.651 993.138C557.049 986.692 549.81 980.208 542.725 974.935C535.758 969.75 528.462 965.369 521.797 963.657L521.561 963.596L521.32 963.556C506.905 961.172 495.365 969.272 488.93 978.523C485.689 983.182 483.48 988.461 482.757 993.496C482.052 998.4 482.667 1004 486.399 1008.09ZM581.201 1055.84C581.2 1055.84 581.193 1055.84 581.181 1055.82C581.195 1055.84 581.201 1055.84 581.201 1055.84ZM589.387 1063.58C589.387 1063.58 589.387 1063.58 589.387 1063.59C589.387 1063.58 589.387 1063.58 589.387 1063.58ZM600.483 1052.04C600.484 1052.04 600.484 1052.06 600.476 1052.11C600.478 1052.06 600.481 1052.04 600.483 1052.04ZM607.609 1033.27C607.609 1033.27 607.59 1033.27 607.554 1033.28C607.592 1033.27 607.61 1033.27 607.609 1033.27ZM603.439 1028.49C603.438 1028.5 603.436 1028.51 603.434 1028.51C603.445 1028.46 603.451 1028.45 603.439 1028.49Z" fill="#6ED5A6" stroke="#012758" stroke-width="11.1594" stroke-linecap="round"/>
<path fill-rule="evenodd" clip-rule="evenodd" d="M489.921 1004.03C520.309 1017.99 581.827 1047.31 584.794 1052.86C586.35 1055.77 588.486 1057.34 590.309 1058.67C592.831 1060.52 594.755 1061.93 593.72 1065.86C597.505 1066.17 596.462 1062.66 595.287 1058.71C594.462 1055.93 593.571 1052.93 594.243 1050.89L490.369 985.931C486.931 992.874 486.409 1000.14 489.921 1004.03Z" fill="#24A98E"/>
<circle cx="588.086" cy="1061.6" r="10.5053" transform="rotate(-53.252 588.086 1061.6)" fill="#6ED5A6" stroke="#012758" stroke-width="5.57968"/>
<circle cx="604.3" cy="1050.69" r="10.5053" transform="rotate(-53.252 604.3 1050.69)" fill="#6ED5A6" stroke="#012758" stroke-width="5.57968"/>
<circle cx="616.284" cy="1033.24" r="10.5053" transform="rotate(-53.252 616.284 1033.24)" fill="#6ED5A6" stroke="#012758" stroke-width="5.57968"/>
<path d="M259.39 981.141L258.837 982.147L258.727 983.29C257.534 995.643 255.546 1014.38 253.465 1030.43C252.422 1038.47 251.366 1045.76 250.382 1051.22C249.889 1053.97 249.431 1056.15 249.024 1057.7C248.84 1058.4 248.688 1058.88 248.576 1059.19C246.286 1061.91 245.411 1064.88 244.986 1066.33C244.977 1066.36 244.968 1066.39 244.96 1066.42L239.11 1066.87L240.766 1073.31C241.093 1074.58 241.84 1076.46 243.7 1077.76C245.709 1079.16 247.85 1079.1 249.23 1078.79C250.515 1078.51 251.594 1077.93 252.288 1077.52C253.035 1077.08 253.76 1076.57 254.344 1076.16C254.529 1076.03 254.702 1075.9 254.867 1075.78C255.672 1075.21 256.25 1074.79 256.751 1074.49L257.03 1074.63L258.722 1074.38C261.034 1074.05 261.371 1074.17 261.406 1074.18L261.408 1074.18C261.41 1074.18 261.416 1074.18 261.427 1074.19C261.438 1074.19 261.459 1074.2 261.491 1074.22C261.556 1074.26 261.673 1074.33 261.854 1074.47C262.239 1074.77 262.789 1075.28 263.619 1076.18L264.941 1077.62L266.871 1077.92C267.469 1078.02 268.085 1078.12 268.739 1078.24L268.929 1078.27C269.509 1078.38 270.128 1078.48 270.721 1078.58C271.89 1078.77 273.579 1079.01 275.107 1078.9C275.85 1078.84 277.216 1078.66 278.557 1077.83C280.228 1076.79 281.408 1075.01 281.557 1072.85C281.676 1071.11 281.087 1069.69 280.676 1068.87C280.219 1067.96 279.615 1067.09 278.983 1066.29C278.751 1065.99 278.532 1065.71 278.326 1065.45C277.552 1064.47 276.947 1063.7 276.427 1062.96C275.781 1062.05 275.532 1061.54 275.437 1061.26C275.417 1061.2 275.407 1061.17 275.403 1061.15C275.404 1061.15 275.404 1061.14 275.404 1061.14C275.418 1061.08 275.529 1060.65 276.191 1059.76C278.457 1056.73 285.114 1045.64 291.007 1033.28C293.979 1027.05 296.838 1020.33 298.879 1013.99C300.875 1007.79 302.282 1001.38 301.866 995.993L301.847 995.749L301.807 995.508C299.909 984.066 290.875 977.553 282.473 975.142C278.231 973.925 273.755 973.61 269.784 974.356C265.942 975.078 261.659 977.007 259.39 981.141ZM248.452 1059.5C248.451 1059.5 248.462 1059.47 248.485 1059.43C248.464 1059.48 248.452 1059.5 248.452 1059.5ZM257.505 1074.11C257.503 1074.11 257.468 1074.13 257.405 1074.15C257.474 1074.12 257.506 1074.11 257.505 1074.11ZM246.424 1068.02C246.424 1068.02 246.428 1068.01 246.435 1068.01C246.428 1068.01 246.424 1068.02 246.424 1068.02Z" fill="#6DD4A6" stroke="#012758" stroke-width="11.1594" stroke-linecap="round"/>
<circle cx="243.293" cy="1073.76" r="10.5053" transform="rotate(-12.6045 243.293 1073.76)" fill="#6ED5A6" stroke="#012758" stroke-width="5.57968"/>
<circle cx="264.112" cy="1078.57" r="10.5053" transform="rotate(-12.6045 264.112 1078.57)" fill="#6ED5A6" stroke="#012758" stroke-width="5.57968"/>
<circle cx="283.16" cy="1070.61" r="10.5053" transform="rotate(-12.6045 283.16 1070.61)" fill="#6ED5A6" stroke="#012758" stroke-width="5.57968"/>
<rect x="3.85898" y="6.88287" width="67.3556" height="31.1677" rx="15.5838" transform="matrix(-0.270974 0.962587 0.962587 0.270974 341.743 847.508)" fill="#BE8F65" stroke="#012758" stroke-width="11.1594"/>
<circle cx="4.28594" cy="4.28594" r="4.28594" transform="matrix(-0.999921 -0.0126045 -0.0126045 0.999921 361.797 870.365)" fill="#012758"/>
<circle cx="4.28594" cy="4.28594" r="4.28594" transform="matrix(-0.999921 -0.0126045 -0.0126045 0.999921 356.417 889.482)" fill="#012758"/>
<circle cx="4.28594" cy="4.28594" r="4.28594" transform="matrix(-0.999921 -0.0126045 -0.0126045 0.999921 352.017 905.109)" fill="#012758"/>
<path d="M462.308 1020.25C478.025 1020.28 490.842 1015.75 498.763 1008.15C506.688 1000.55 509.873 989.654 505.445 977.187C501.017 964.72 490.08 953.793 476.739 946.147C463.403 938.503 447.346 933.911 431.63 933.878C415.913 933.844 403.096 938.375 395.174 945.973C387.25 953.574 384.064 964.471 388.493 976.938C392.921 989.405 403.858 1000.33 417.199 1007.98C430.534 1015.62 446.592 1020.21 462.308 1020.25Z" fill="#6ED5A6" stroke="#012758" stroke-width="11.1594"/>
<path d="M478.805 960.097C457.321 943.217 424.871 940.794 406.327 954.686" stroke="#FCF6EA" stroke-width="11.1594" stroke-linecap="round"/>
<ellipse cx="491.178" cy="976.53" rx="8.82279" ry="5.99448" transform="rotate(23.3258 491.178 976.53)" fill="#FCF6EA"/>
<path fill-rule="evenodd" clip-rule="evenodd" d="M501.922 986.631C502.672 1003.58 486.062 1016.21 460.82 1016.16C436.02 1016.11 410.86 1003.82 399.271 987.3C428.856 995 469.305 999.696 501.922 986.631Z" fill="#24A98E"/>
</svg>
