<svg width="195" height="215" viewBox="0 0 195 215" fill="none" xmlns="http://www.w3.org/2000/svg">
<path d="M126.419 192.035C114.267 184.565 109.362 169.466 116.749 158.059C124.137 146.652 140.237 144.464 152.389 151.934C164.542 159.404 169.447 174.503 162.059 185.91C154.672 197.316 138.571 199.504 126.419 192.035Z" fill="#FC9898" stroke="#012758" stroke-width="7"/>
<path d="M130.292 155.631C140.98 151.573 153.426 157.737 158.091 169.399" stroke="#FCF6EA" stroke-width="7" stroke-linecap="round"/>
<ellipse cx="3.57016" cy="3.47812" rx="3.57016" ry="3.47812" transform="matrix(-1 0 0 1 126.632 158.065)" fill="#FCF6EA"/>
<path fill-rule="evenodd" clip-rule="evenodd" d="M117.452 164.46C114.459 173.317 118.606 183.863 127.994 189.633C137.217 195.302 148.534 194.54 155.487 188.398C143.261 185.704 127.478 178.913 117.452 164.46Z" fill="#D68181"/>
<path d="M136.863 145.469C142.448 160.386 147.315 192.095 122.097 199.591C96.8782 207.088 121.433 166.633 136.863 145.469Z" fill="#FC9898" stroke="#012758" stroke-width="7"/>
<path d="M129.368 86.1632C120.186 86.1632 112.595 78.8794 112.595 69.7134C112.595 60.5475 120.186 53.2637 129.368 53.2637C138.55 53.2637 146.142 60.5475 146.142 69.7134C146.142 78.8794 138.55 86.1632 129.368 86.1632Z" fill="#FDE7D2" stroke="#062855" stroke-width="7"/>
<ellipse cx="8.41736" cy="8.25548" rx="8.41736" ry="8.25548" transform="matrix(-1 0 0 1 137.786 61.2954)" fill="#022656"/>
<mask id="path-8-outside-1_888_605" maskUnits="userSpaceOnUse" x="11.7715" y="55.812" width="148" height="152" fill="black">
<rect fill="white" x="11.7715" y="55.812" width="148" height="152"/>
<path fill-rule="evenodd" clip-rule="evenodd" d="M134.696 147.005C145.721 138.325 152.771 125.045 152.771 110.16C152.771 84.0103 131.012 62.812 104.171 62.812C85.9346 62.812 70.0442 72.5972 61.7299 87.0721C49.8686 91.3035 38.9413 99.2276 30.905 110.421C11.3906 137.603 16.3126 173.771 41.8986 191.205C67.4845 208.639 104.046 200.737 123.56 173.555C129.503 165.278 133.179 156.167 134.696 147.005Z"/>
</mask>
<path fill-rule="evenodd" clip-rule="evenodd" d="M134.696 147.005C145.721 138.325 152.771 125.045 152.771 110.16C152.771 84.0103 131.012 62.812 104.171 62.812C85.9346 62.812 70.0442 72.5972 61.7299 87.0721C49.8686 91.3035 38.9413 99.2276 30.905 110.421C11.3906 137.603 16.3126 173.771 41.8986 191.205C67.4845 208.639 104.046 200.737 123.56 173.555C129.503 165.278 133.179 156.167 134.696 147.005Z" fill="#FC9898"/>
<path d="M134.696 147.005L127.79 145.862L128.233 143.184L130.366 141.505L134.696 147.005ZM61.7299 87.0721L67.7998 90.5586L66.5138 92.7975L64.0819 93.6651L61.7299 87.0721ZM30.905 110.421L25.2187 106.339L30.905 110.421ZM41.8986 191.205L45.8402 185.42L41.8986 191.205ZM123.56 173.555L129.246 177.638L123.56 173.555ZM130.366 141.505C139.81 134.07 145.771 122.769 145.771 110.16H159.771C159.771 127.321 151.632 142.581 139.026 152.505L130.366 141.505ZM145.771 110.16C145.771 88.0475 127.32 69.812 104.171 69.812V55.812C134.705 55.812 159.771 79.9731 159.771 110.16H145.771ZM104.171 69.812C88.4797 69.812 74.8851 78.2233 67.7998 90.5586L55.66 83.5855C65.2032 66.971 83.3895 55.812 104.171 55.812V69.812ZM64.0819 93.6651C53.5382 97.4265 43.783 104.486 36.5913 114.504L25.2187 106.339C34.0996 93.9688 46.1991 85.1805 59.3779 80.479L64.0819 93.6651ZM36.5913 114.504C19.0551 138.93 23.935 170.494 45.8402 185.42L37.9569 196.99C8.6902 177.048 3.7262 136.276 25.2187 106.339L36.5913 114.504ZM45.8402 185.42C67.8868 200.442 100.282 193.977 117.874 169.473L129.246 177.638C107.81 207.497 67.0823 216.835 37.9569 196.99L45.8402 185.42ZM117.874 169.473C123.191 162.066 126.449 153.96 127.79 145.862L141.602 148.149C139.909 158.373 135.814 168.49 129.246 177.638L117.874 169.473Z" fill="#012758" mask="url(#path-8-outside-1_888_605)"/>
<path fill-rule="evenodd" clip-rule="evenodd" d="M152.771 110.16C152.771 125.045 145.72 138.326 134.695 147.005C133.178 156.167 129.502 165.278 123.559 173.556C105.451 198.778 72.6643 207.4 47.5893 194.582L116.357 103.139L149.486 93.0132C151.607 98.33 152.771 104.113 152.771 110.16Z" fill="#FFF3E5"/>
<path d="M83.1431 72.2206C95.6726 60.915 118.23 63.2859 129.424 75.0596" stroke="#FCF6EA" stroke-width="7" stroke-linecap="round"/>
<line x1="3.5" y1="-3.5" x2="5.52085" y2="-3.5" transform="matrix(-0.753036 0.65798 0.677306 0.735702 68.3047 108.562)" stroke="#012758" stroke-width="7" stroke-linecap="round"/>
<line x1="3.5" y1="-3.5" x2="5.71151" y2="-3.5" transform="matrix(-0.772295 0.635264 0.654935 0.755686 55.333 108.895)" stroke="#012758" stroke-width="7" stroke-linecap="round"/>
<line x1="3.5" y1="-3.5" x2="7.16324" y2="-3.5" transform="matrix(-0.759621 0.650366 0.669819 0.742524 69.0498 94.043)" stroke="#012758" stroke-width="7" stroke-linecap="round"/>
<path d="M181.372 62.2315C181.746 65.6769 181.989 71.5861 180.315 77.1781C178.681 82.6405 175.291 87.6487 168.327 90.0146C162.684 91.9319 155.692 90.7936 147.2 87.5678C140.605 85.0627 133.603 81.5075 126.162 77.7295C124.064 76.6642 121.931 75.5812 119.762 74.499C99.9908 63.9814 81.9298 61.718 69.3076 60.1362C68.5058 60.0357 67.7259 59.938 66.969 59.8411C63.7795 59.4327 61.0911 59.0516 58.8505 58.5627C56.5811 58.0674 55.0432 57.5155 54.0363 56.901C53.1301 56.3479 52.7661 55.8211 52.5846 55.2295C52.3782 54.5569 52.2909 53.397 52.745 51.4355C53.3417 50.4348 54.4252 49.2057 56.126 47.8031C57.9803 46.2739 60.4026 44.6733 63.3208 43.0533C69.1563 39.8139 76.7325 36.6302 85.1323 33.8517C101.841 28.3247 121.31 24.5629 136.117 24.9659C152.246 29.0571 163.102 34.3395 170.126 40.53C177.086 46.6643 180.463 53.8441 181.372 62.2315Z" fill="#FFF3E5" stroke="#012758" stroke-width="7"/>
<path d="M83.8828 31.3176C84.2272 19.3651 93.9083 9.7955 105.864 9.58956L114.778 9.43601L128.071 10.1802C139.033 10.7939 147.931 19.2701 149.075 30.1894L151.091 49.4356C151.774 55.9453 147.662 61.9981 141.359 63.763L140.677 63.954C138.837 64.4692 136.939 64.7466 135.029 64.7795L122.994 64.9868L104.261 63.5411C92.3573 62.6224 83.2718 52.5206 83.6157 40.5869L83.8828 31.3176Z" fill="#FFF3E5" stroke="#012758" stroke-width="7"/>
<path d="M149.176 90.1878C143.636 89.0164 92.1473 60.2593 76.7873 62.0441C71.9872 62.6019 51.4878 59.2093 51.3915 53.6137C51.2951 48.0181 62.9378 40.4931 70.8713 40.3564C75.2468 40.281 91.019 42.8471 105.451 51.4157C122.24 62.7814 141.352 82.7215 149.176 90.1878Z" fill="#FFF3E5" stroke="#012758" stroke-width="7"/>
<path d="M145.171 18.1489C143.543 32.2469 107.6 14.4166 99.3848 16.8247" stroke="#012758" stroke-width="7" stroke-linecap="round"/>
<path d="M104.331 43.3989C109.102 42.7925 127.726 42.4708 112.59 24.4732" stroke="#012758" stroke-width="7" stroke-linecap="round"/>
<path d="M76.4362 86.1632C67.303 86.1632 59.8245 78.8393 59.8245 69.7134C59.8245 60.5876 67.303 53.2637 76.4362 53.2637C85.5694 53.2637 93.0479 60.5876 93.0479 69.7134C93.0479 78.8393 85.5694 86.1632 76.4362 86.1632Z" fill="#FDE7D2" stroke="#062855" stroke-width="7"/>
<ellipse cx="8.41736" cy="8.25548" rx="8.41736" ry="8.25548" transform="matrix(-1 0 0 1 85.0156 61.2954)" fill="#022656"/>
<ellipse cx="5.34178" cy="5.17991" rx="5.34178" ry="5.17991" transform="matrix(-1 0 0 1 130.339 80.0728)" fill="#022656"/>
<ellipse cx="5.34178" cy="5.17991" rx="5.34178" ry="5.17991" transform="matrix(-1 0 0 1 108.65 80.0728)" fill="#022656"/>
<path d="M146.527 92.6992C136.823 98.6567 111.13 107.712 85.9871 96.2737" stroke="#012758" stroke-width="7" stroke-linecap="round"/>
<path d="M17.7704 192.034C5.61833 184.565 0.713316 169.465 8.10071 158.058C15.4881 146.652 31.5889 144.464 43.741 151.933C55.8931 159.403 60.7981 174.503 53.4107 185.909C46.0234 197.316 29.9225 199.504 17.7704 192.034Z" fill="#FC9898" stroke="#012758" stroke-width="7"/>
<path d="M21.645 155.63C32.3327 151.572 44.7785 157.737 49.4434 169.398" stroke="#FCF6EA" stroke-width="7" stroke-linecap="round"/>
<ellipse cx="3.57016" cy="3.47812" rx="3.57016" ry="3.47812" transform="matrix(-1 0 0 1 17.9844 158.065)" fill="#FCF6EA"/>
<path fill-rule="evenodd" clip-rule="evenodd" d="M8.80378 164.457C5.8098 173.315 9.95757 183.861 19.3456 189.632C28.5688 195.301 39.8851 194.538 46.8389 188.397C34.6119 185.703 18.8299 178.911 8.80378 164.457Z" fill="#D68181"/>
<path d="M43.8396 198.564C43.8396 200.854 45.7554 202.834 48.2714 202.834C50.7874 202.834 52.7031 200.854 52.7031 198.564C52.7031 196.273 50.7874 194.294 48.2714 194.294C45.7554 194.294 43.8396 196.273 43.8396 198.564Z" fill="#FC9898" stroke="#012758" stroke-width="7"/>
<path d="M32.5076 202.449C32.5076 204.61 34.4338 206.718 37.2631 206.718C40.0924 206.718 42.0186 204.61 42.0186 202.449C42.0186 200.287 40.0924 198.179 37.2631 198.179C34.4338 198.179 32.5076 200.287 32.5076 202.449Z" fill="#FC9898" stroke="#012758" stroke-width="7"/>
<path d="M20.5296 201.963C20.5296 204.163 22.3715 206.071 24.7995 206.071C27.2275 206.071 29.0693 204.163 29.0693 201.963C29.0693 199.764 27.2275 197.855 24.7995 197.855C22.3715 197.855 20.5296 199.764 20.5296 201.963Z" fill="#FC9898" stroke="#012758" stroke-width="7"/>
<path d="M80.6762 149.555L80.2672 148.946C78.6755 146.574 75.9829 145.647 73.6693 145.401C71.2624 145.145 68.6043 145.529 66.1271 146.428C61.2424 148.199 56.0563 152.416 55.4367 159.297L55.4226 159.454V159.611C55.4226 162.819 56.5737 166.514 58.0461 170.02C59.5555 173.614 61.568 177.387 63.6218 180.865C67.6911 187.758 72.1624 193.894 73.6618 195.564C73.9314 195.864 74.0516 196.057 74.1016 196.152C74.0564 196.291 73.9388 196.562 73.6404 197.05C73.3692 197.493 73.0506 197.956 72.6371 198.557C72.5259 198.719 72.4078 198.89 72.2819 199.074C71.9386 199.576 71.6081 200.124 71.3674 200.698C71.1527 201.209 70.8409 202.127 71.0048 203.217C71.2101 204.582 72.0636 205.619 73.1384 206.162C73.9988 206.598 74.8374 206.641 75.2845 206.641C76.2094 206.641 77.2103 206.42 77.8957 206.259C78.4018 206.14 78.7212 206.059 79.0231 205.982C79.3488 205.899 79.654 205.821 80.1513 205.707L81.3327 205.436L82.0936 204.493C82.8887 203.507 83.1974 203.316 83.2416 203.293C83.2423 203.293 83.2434 203.292 83.2451 203.292L80.6762 149.555ZM80.6762 149.555L80.806 150.277C82.0798 157.369 84.1169 168.114 86.0867 177.303C87.0731 181.904 88.033 186.069 88.8649 189.178C89.2828 190.74 89.6521 191.973 89.9602 192.838C90.0877 193.196 90.1896 193.448 90.2636 193.613L80.6762 149.555ZM90.3625 193.81C90.3626 193.809 90.3539 193.792 90.3357 193.763C90.3532 193.797 90.3623 193.811 90.3625 193.81ZM91.8547 198.549C91.8547 198.549 91.8515 198.547 91.8454 198.545C91.8517 198.548 91.8548 198.549 91.8547 198.549Z" fill="#FC9898" stroke="#012758" stroke-width="7" stroke-linecap="round"/>
<path d="M89.5706 201.374C89.2419 203.598 90.8284 205.81 93.325 206.161C95.8216 206.511 97.9846 204.825 98.3133 202.601C98.642 200.378 97.0555 198.165 94.5589 197.815C92.0623 197.464 89.8993 199.151 89.5706 201.374Z" fill="#FC9898" stroke="#012758" stroke-width="7"/>
<path d="M128.195 198.959C127.866 201.182 129.452 203.395 131.949 203.745C134.446 204.096 136.609 202.409 136.937 200.186C137.266 197.962 135.68 195.75 133.183 195.399C130.686 195.049 128.523 196.735 128.195 198.959Z" fill="#FC9898" stroke="#012758" stroke-width="7"/>
<path d="M77.428 205.084C77.0993 207.308 78.6858 209.52 81.1824 209.871C83.679 210.221 85.842 208.535 86.1707 206.311C86.4995 204.088 84.9129 201.875 82.4163 201.525C79.9197 201.174 77.7567 202.861 77.428 205.084Z" fill="#FC9898" stroke="#012758" stroke-width="7"/>
<path d="M116.053 202.669C115.724 204.892 117.311 207.105 119.807 207.455C122.304 207.805 124.467 206.119 124.796 203.896C125.124 201.672 123.538 199.46 121.041 199.109C118.545 198.759 116.382 200.445 116.053 202.669Z" fill="#FC9898" stroke="#012758" stroke-width="7"/>
<path d="M65.7532 201.332C65.4245 203.555 67.011 205.768 69.5076 206.118C72.0042 206.469 74.1672 204.782 74.4959 202.559C74.8246 200.335 73.2381 198.123 70.7415 197.772C68.2449 197.422 66.0819 199.108 65.7532 201.332Z" fill="#FC9898" stroke="#012758" stroke-width="7"/>
<path d="M104.377 198.917C104.049 201.141 105.635 203.353 108.132 203.704C110.628 204.054 112.791 202.368 113.12 200.144C113.449 197.921 111.862 195.708 109.366 195.358C106.869 195.007 104.706 196.694 104.377 198.917Z" fill="#FC9898" stroke="#012758" stroke-width="7"/>
<ellipse cx="2.55251" cy="2.48688" rx="2.55251" ry="2.48688" transform="matrix(0.99935 -0.0360485 0.0379789 0.999278 23.2578 108.829)" fill="#012758"/>
<ellipse cx="2.55251" cy="2.48688" rx="2.55251" ry="2.48688" transform="matrix(0.99935 -0.0360485 0.0379789 0.999278 26.7393 119.842)" fill="#012758"/>
<ellipse cx="2.55251" cy="2.48688" rx="2.55251" ry="2.48688" transform="matrix(0.99935 -0.0360485 0.0379789 0.999278 29.5869 128.844)" fill="#012758"/>
<path d="M67.9521 45.8732C67.372 48.4462 67.3777 49.1362 66.8223 53.9668" stroke="#062855" stroke-width="7" stroke-linecap="round"/>
<path d="M77.4923 45.9896C76.938 48.2142 76.9297 48.8089 76.3535 52.979" stroke="#062855" stroke-width="7" stroke-linecap="round"/>
<path d="M86.2335 46.7581C85.6792 48.9828 85.6709 49.5775 85.0947 53.7476" stroke="#062855" stroke-width="7" stroke-linecap="round"/>
</svg>
