<svg width="575" height="1972" viewBox="0 0 575 1972" fill="none" xmlns="http://www.w3.org/2000/svg">
<path fill-rule="evenodd" clip-rule="evenodd" d="M128.542 0.220215L130.889 3.68903C139.151 15.9014 145.096 27.0167 149.028 37.0481C153.434 33.5017 157.946 30.2792 162.222 27.2249C162.651 26.9188 163.077 26.6145 163.5 26.3117L167.539 23.4233L168.611 28.2713C171.116 39.5989 171.727 49.8375 170.959 59.0219C181.996 55.5799 194.23 55.422 206.644 59.2447L209.704 60.187L208.836 63.2689C202.723 84.9651 188.208 100.636 172.782 111.37C165.042 116.755 157.019 120.937 149.599 124.047C176.579 124.808 200.777 127.078 219.357 130.372C230.872 132.414 240.39 134.876 247.105 137.69C250.449 139.092 253.286 140.657 255.34 142.437C257.375 144.2 259.037 146.534 259.037 149.427C259.037 152.285 257.413 154.599 255.414 156.351C253.399 158.118 250.618 159.672 247.344 161.062L246.575 161.389L207.842 157.603L229.034 166.809L218.225 168.679C195.242 172.654 163.947 175.086 129.523 175.086C94.5326 175.086 62.7732 172.573 39.6886 168.481C28.173 166.439 18.6554 163.977 11.94 161.163C8.59615 159.761 5.75918 158.196 3.70471 156.416C1.67053 154.653 0.0078125 152.319 0.0078125 149.427C0.0078125 146.534 1.67053 144.2 3.70471 142.437C5.75918 140.657 8.59615 139.092 11.94 137.69C18.6554 134.876 28.173 132.414 39.6886 130.372C56.7048 127.356 78.4344 125.197 102.697 124.271C95.1286 121.139 86.904 116.885 78.9774 111.37C63.5514 100.636 49.0366 84.965 42.9239 63.2689L42.0556 60.187L45.1157 59.2447C57.5295 55.422 69.7639 55.58 80.8004 59.022C80.033 49.8375 80.6434 39.5989 83.1485 28.2713L84.2207 23.4233L88.2593 26.3117C88.6826 26.6145 89.1087 26.9188 89.5372 27.2249C93.642 30.1567 97.9638 33.2436 102.201 36.6232C107.052 26.6689 114.674 15.5932 125.736 3.33002L128.542 0.220215ZM99.4654 42.8494C95.9417 39.972 92.2612 37.2598 88.5776 34.6084C86.8245 44.6105 86.6778 53.6151 87.6817 61.6625C90.348 62.8863 92.9228 64.313 95.3891 65.9313C94.9229 59.1132 96.1158 51.4356 99.4654 42.8494ZM103.008 71.8561C102.962 71.6877 102.917 71.5184 102.873 71.3482C101.235 64.9969 101.396 57.0838 104.762 47.4393C109.416 51.7487 113.607 56.4884 116.911 61.946C119.28 65.8603 121.212 70.183 122.499 75.0324C121.249 80.4005 120.706 86.2627 121.036 92.7071C119.69 92.0124 118.358 91.2374 117.062 90.3803C113.377 83.2151 108.611 76.9728 103.008 71.8561ZM97.2795 75.5453C100.115 83.9738 105.656 90.3048 111.941 94.8109C114.263 99.615 116.073 104.879 117.272 110.543C106.811 103.793 94.0751 90.5069 89.1457 69.7901C91.8202 71.327 94.3683 73.1067 96.7669 75.1115C96.9385 75.2549 97.1094 75.3995 97.2795 75.5453ZM81.7208 66.2755C72.1068 62.6348 61.3144 61.8704 50.203 64.6355C56.251 82.8431 68.9082 96.3715 82.7242 105.985C95.4763 114.858 109.049 120.274 118.854 122.873C118.786 121.516 118.687 120.176 118.555 118.854C105.268 112.043 86.6402 94.9457 81.7208 66.2755ZM125.194 119.414C125.317 120.852 125.405 122.307 125.458 123.778C125.739 123.777 126.02 123.775 126.301 123.774C126.354 122.304 126.442 120.85 126.565 119.413L126.14 118.128C126.052 117.862 125.965 117.598 125.88 117.333C125.794 117.598 125.708 117.862 125.62 118.128L125.194 119.414ZM133.203 118.854C133.072 120.176 132.972 121.516 132.905 122.873C142.71 120.274 156.283 114.858 169.035 105.985C182.851 96.3715 195.508 82.8431 201.556 64.6355C190.445 61.8704 179.653 62.6348 170.039 66.2754C165.119 94.9462 146.49 112.044 133.203 118.854ZM162.614 69.7899C157.684 90.5074 144.948 103.794 134.487 110.543C135.436 106.062 136.767 101.83 138.432 97.8784C145.968 93.1229 151.581 85.8499 153.918 76.0334C154.273 75.7209 154.631 75.4136 154.992 75.1115C157.391 73.1066 159.939 71.3269 162.614 69.7899ZM164.078 61.6624C165.082 53.615 164.935 44.6105 163.182 34.6084C159.174 37.4933 155.169 40.4502 151.367 43.6136C154.112 52.2143 155.279 59.9377 155.092 66.7936C157.943 64.8158 160.947 63.0992 164.078 61.6624ZM147.931 72.6181C148.112 71.6148 148.255 70.5805 148.357 69.5149C148.931 63.5555 148.259 56.5341 145.962 48.4128C141.722 52.4612 137.906 56.8962 134.849 61.946C132.479 65.8603 130.548 70.183 129.26 75.0324C130.634 80.929 131.154 87.4218 130.6 94.6276C131.518 94.224 132.41 93.7853 133.274 93.311C136.952 85.2727 141.943 78.2888 147.931 72.6181ZM129.976 101.911C129.74 102.66 129.515 103.416 129.301 104.178C129.441 103.449 129.571 102.725 129.691 102.009C129.786 101.977 129.881 101.944 129.976 101.911ZM125.88 64.959C124.886 62.7294 123.762 60.5958 122.523 58.549C118.42 51.7712 113.108 46.0361 107.393 40.9749C111.437 32.2325 117.961 22.2402 127.8 10.8974C135.237 22.3299 140.404 32.5336 143.722 41.5506C138.253 46.4703 133.185 52.0269 129.237 58.549C127.998 60.5958 126.873 62.7294 125.88 64.959ZM121.797 100.284C121.584 100.196 121.372 100.105 121.159 100.013C121.628 101.379 122.063 102.771 122.46 104.187C122.206 102.864 121.985 101.564 121.797 100.284ZM122.083 130.366L125.516 131.079V130.338C126.846 130.331 128.182 130.327 129.523 130.327C164.25 130.327 195.608 132.824 218.211 136.832C229.54 138.84 238.509 141.2 244.569 143.74C247.613 145.016 249.736 146.262 251.045 147.395C252.374 148.547 252.477 149.229 252.477 149.427C252.477 149.621 252.377 150.29 251.089 151.419C249.929 152.437 248.105 153.549 245.534 154.696L187.751 149.048L186.125 155.32L205.944 163.93C184.842 166.806 158.341 168.526 129.523 168.526C94.7951 168.526 63.437 166.029 40.8337 162.022C29.5053 160.013 20.5362 157.653 14.4759 155.113C11.432 153.837 9.30885 152.591 8.0002 151.458C6.67126 150.306 6.56781 149.624 6.56781 149.427C6.56781 149.229 6.67126 148.547 8.0002 147.395C9.30885 146.262 11.432 145.016 14.4759 143.74C20.5362 141.2 29.5053 138.84 40.8337 136.832C61.8113 133.113 90.3295 130.694 122.083 130.366ZM444.199 125.633L446.546 129.102C454.809 141.314 460.753 152.429 464.685 162.461C469.092 158.914 473.604 155.692 477.88 152.637C478.308 152.331 478.734 152.027 479.158 151.724L483.196 148.836L484.269 153.684C486.774 165.012 487.384 175.25 486.617 184.435C497.653 180.993 509.888 180.835 522.301 184.657L525.361 185.6L524.493 188.681C518.38 210.378 503.865 226.049 488.439 236.782C480.7 242.167 472.676 246.35 465.257 249.46C492.236 250.221 516.435 252.491 535.014 255.785C546.53 257.826 556.047 260.288 562.763 263.103C566.107 264.505 568.944 266.07 570.998 267.85C573.032 269.612 574.695 271.946 574.695 274.839C574.695 277.698 573.07 280.012 571.072 281.764C569.057 283.531 566.276 285.084 563.001 286.475L562.232 286.801L523.499 283.015L544.692 292.222L533.883 294.091C510.899 298.067 479.604 300.499 445.18 300.499C410.19 300.499 378.431 297.986 355.346 293.893C343.831 291.852 334.313 289.39 327.598 286.575C324.254 285.174 321.417 283.608 319.362 281.828C317.328 280.066 315.665 277.732 315.665 274.839C315.665 271.946 317.328 269.612 319.362 267.85C321.417 266.07 324.254 264.505 327.598 263.103C334.313 260.288 343.831 257.826 355.346 255.785C372.362 252.768 394.092 250.61 418.355 249.684C410.786 246.552 402.562 242.298 394.635 236.782C379.209 226.049 364.694 210.378 358.582 188.681L357.713 185.6L360.773 184.657C373.187 180.835 385.422 180.993 396.458 184.435C395.691 175.25 396.301 165.012 398.806 153.684L399.878 148.836L403.917 151.724C404.34 152.027 404.766 152.331 405.195 152.637C409.299 155.569 413.621 158.656 417.859 162.036C422.71 152.082 430.332 141.006 441.394 128.743L444.199 125.633ZM415.123 168.262C411.599 165.385 407.919 162.672 404.235 160.021C402.482 170.023 402.335 179.028 403.339 187.075C406.006 188.299 408.58 189.726 411.047 191.344C410.581 184.526 411.773 176.848 415.123 168.262ZM418.666 197.269C418.619 197.1 418.574 196.931 418.53 196.761C416.892 190.41 417.053 182.496 420.42 172.852C425.074 177.161 429.265 181.901 432.568 187.359C434.938 191.273 436.87 195.596 438.157 200.445C436.907 205.813 436.363 211.675 436.694 218.12C435.347 217.425 434.016 216.65 432.72 215.793C429.035 208.628 424.269 202.385 418.666 197.269ZM412.937 200.958C415.772 209.386 421.314 215.717 427.599 220.224C429.92 225.028 431.73 230.292 432.93 235.955C422.468 229.206 409.733 215.92 404.803 195.203C407.478 196.74 410.026 198.519 412.424 200.524C412.596 200.667 412.767 200.812 412.937 200.958ZM397.378 191.688C387.764 188.047 376.972 187.283 365.861 190.048C371.909 208.256 384.566 221.784 398.382 231.397C411.134 240.271 424.707 245.687 434.511 248.286C434.444 246.929 434.344 245.589 434.213 244.267C420.926 237.456 402.298 220.358 397.378 191.688ZM440.852 244.827C440.975 246.265 441.063 247.72 441.115 249.191C441.396 249.189 441.677 249.188 441.959 249.187C442.011 247.716 442.099 246.262 442.222 244.825L441.797 243.541C441.71 243.275 441.623 243.01 441.537 242.746C441.452 243.01 441.365 243.275 441.277 243.541L440.852 244.827ZM448.861 244.267C448.73 245.589 448.63 246.929 448.563 248.286C458.367 245.687 471.94 240.271 484.692 231.397C498.509 221.784 511.166 208.256 517.214 190.048C506.103 187.283 495.31 188.047 485.696 191.688C480.777 220.359 462.148 237.457 448.861 244.267ZM478.271 195.202C473.342 215.92 460.606 229.206 450.144 235.956C451.093 231.474 452.425 227.242 454.09 223.291C461.626 218.536 467.239 211.263 469.575 201.446C469.93 201.133 470.288 200.826 470.65 200.524C473.048 198.519 475.597 196.739 478.271 195.202ZM479.735 187.075C480.739 179.028 480.593 170.023 478.839 160.021C474.832 162.906 470.827 165.863 467.024 169.026C469.77 177.627 470.937 185.35 470.75 192.206C473.601 190.228 476.605 188.512 479.735 187.075ZM463.589 198.031C463.77 197.027 463.912 195.993 464.015 194.928C464.588 188.968 463.917 181.947 461.619 173.825C457.379 177.874 453.563 182.309 450.506 187.359C448.137 191.273 446.205 195.596 444.918 200.445C446.291 206.342 446.811 212.834 446.257 220.04C447.176 219.637 448.068 219.198 448.932 218.724C452.61 210.685 457.6 203.701 463.589 198.031ZM445.633 227.324C445.398 228.073 445.173 228.828 444.959 229.591C445.099 228.861 445.229 228.138 445.349 227.421C445.444 227.389 445.539 227.357 445.633 227.324ZM441.537 190.372C440.544 188.142 439.419 186.008 438.18 183.962C434.077 177.184 428.765 171.449 423.05 166.388C427.094 157.645 433.618 147.653 443.457 136.31C450.895 147.742 456.062 157.946 459.379 166.963C453.91 171.883 448.842 177.44 444.895 183.962C443.656 186.008 442.531 188.142 441.537 190.372ZM437.455 225.697C437.242 225.608 437.029 225.518 436.816 225.425C437.286 226.792 437.72 228.184 438.118 229.599C437.864 228.277 437.643 226.976 437.455 225.697ZM437.741 255.778L441.174 256.492V255.751C442.504 255.743 443.84 255.74 445.18 255.74C479.908 255.74 511.266 258.237 533.869 262.244C545.198 264.252 554.167 266.613 560.227 269.153C563.271 270.429 565.394 271.674 566.703 272.808C568.032 273.959 568.135 274.642 568.135 274.839C568.135 275.034 568.035 275.702 566.747 276.832C565.586 277.849 563.762 278.962 561.192 280.108L503.409 274.46L501.783 280.733L521.602 289.343C500.499 292.219 473.999 293.939 445.18 293.939C410.453 293.939 379.095 291.441 356.491 287.434C345.163 285.426 336.194 283.065 330.133 280.525C327.09 279.249 324.966 278.004 323.658 276.87C322.329 275.719 322.225 275.036 322.225 274.839C322.225 274.642 322.329 273.959 323.658 272.808C324.966 271.674 327.09 270.429 330.133 269.153C336.194 266.613 345.163 264.252 356.491 262.244C377.469 258.525 405.987 256.107 437.741 255.778ZM128.542 251.045L130.889 254.514C139.151 266.727 145.096 277.842 149.028 287.873C153.434 284.327 157.946 281.104 162.222 278.05C162.651 277.744 163.077 277.44 163.5 277.137L167.539 274.248L168.611 279.096C171.116 290.424 171.727 300.663 170.959 309.847C181.996 306.405 194.23 306.247 206.644 310.07L209.704 311.012L208.836 314.094C202.723 335.79 188.208 351.461 172.782 362.195C165.042 367.58 157.019 371.763 149.599 374.872C176.579 375.633 200.777 377.904 219.357 381.197C230.872 383.239 240.39 385.701 247.105 388.516C250.449 389.917 253.286 391.483 255.34 393.262C257.375 395.025 259.037 397.359 259.037 400.252C259.037 403.11 257.413 405.424 255.414 407.177C253.399 408.944 250.618 410.497 247.344 411.887L246.575 412.214L207.842 408.428L229.034 417.635L218.225 419.504C195.242 423.479 163.947 425.911 129.523 425.911C94.5326 425.911 62.7732 423.398 39.6886 419.306C28.173 417.264 18.6554 414.802 11.94 411.988C8.59615 410.586 5.75918 409.021 3.70471 407.241C1.67053 405.479 0.0078125 403.144 0.0078125 400.252C0.0078125 397.359 1.67053 395.025 3.70471 393.262C5.75918 391.483 8.59615 389.917 11.94 388.516C18.6554 385.701 28.173 383.239 39.6886 381.197C56.7048 378.181 78.4344 376.023 102.697 375.096C95.1286 371.964 86.904 367.71 78.9774 362.195C63.5514 351.461 49.0366 335.79 42.9239 314.094L42.0556 311.012L45.1157 310.07C57.5295 306.247 69.7639 306.405 80.8004 309.847C80.033 300.663 80.6434 290.424 83.1485 279.096L84.2207 274.248L88.2593 277.137C88.6826 277.44 89.1087 277.744 89.5372 278.05C93.642 280.982 97.9638 284.069 102.201 287.448C107.052 277.494 114.674 266.418 125.736 254.155L128.542 251.045ZM99.4654 293.675C95.9417 290.797 92.2612 288.085 88.5776 285.434C86.8245 295.436 86.6778 304.44 87.6817 312.488C90.348 313.711 92.9228 315.138 95.3891 316.756C94.9229 309.938 96.1158 302.261 99.4654 293.675ZM103.008 322.681C102.962 322.513 102.917 322.344 102.873 322.173C101.235 315.822 101.396 307.909 104.762 298.264C109.416 302.574 113.607 307.314 116.911 312.771C119.28 316.685 121.212 321.008 122.499 325.858C121.249 331.226 120.706 337.088 121.036 343.532C119.69 342.838 118.358 342.063 117.062 341.206C113.377 334.04 108.611 327.798 103.008 322.681ZM97.2795 326.371C100.115 334.799 105.656 341.13 111.941 345.636C114.263 350.44 116.073 355.704 117.272 361.368C106.811 354.618 94.0751 341.332 89.1457 320.615C91.8202 322.152 94.3683 323.932 96.7669 325.937C96.9385 326.08 97.1094 326.225 97.2795 326.371ZM81.7208 317.101C72.1068 313.46 61.3144 312.696 50.203 315.461C56.251 333.668 68.9082 347.197 82.7242 356.81C95.4763 365.683 109.049 371.099 118.854 373.698C118.786 372.341 118.687 371.001 118.555 369.679C105.268 362.869 86.6402 345.771 81.7208 317.101ZM125.194 370.24C125.317 371.677 125.405 373.132 125.458 374.604C125.739 374.602 126.02 374.601 126.301 374.599C126.354 373.129 126.442 371.675 126.565 370.238L126.14 368.953C126.052 368.688 125.965 368.423 125.88 368.159C125.794 368.423 125.708 368.688 125.62 368.953L125.194 370.24ZM133.203 369.68C133.072 371.002 132.972 372.341 132.905 373.698C142.71 371.099 156.283 365.683 169.035 356.81C182.851 347.197 195.508 333.668 201.556 315.461C190.445 312.696 179.653 313.46 170.039 317.101C165.119 345.771 146.49 362.869 133.203 369.68ZM162.614 320.615C157.684 341.333 144.948 354.619 134.487 361.368C135.436 356.887 136.767 352.655 138.432 348.704C145.968 343.948 151.581 336.675 153.918 326.859C154.273 326.546 154.631 326.239 154.992 325.937C157.391 323.932 159.939 322.152 162.614 320.615ZM164.078 312.488C165.082 304.44 164.935 295.436 163.182 285.434C159.174 288.319 155.169 291.275 151.367 294.439C154.112 303.039 155.279 310.763 155.092 317.619C157.943 315.641 160.947 313.924 164.078 312.488ZM147.931 323.443C148.112 322.44 148.255 321.406 148.357 320.34C148.931 314.381 148.259 307.359 145.962 299.238C141.722 303.286 137.906 307.721 134.849 312.771C132.479 316.685 130.548 321.008 129.26 325.858C130.634 331.754 131.154 338.247 130.6 345.453C131.518 345.049 132.41 344.611 133.274 344.136C136.952 336.098 141.943 329.114 147.931 323.443ZM129.976 352.736C129.74 353.485 129.515 354.241 129.301 355.004C129.441 354.274 129.571 353.551 129.691 352.834C129.786 352.802 129.881 352.769 129.976 352.736ZM125.88 315.784C124.886 313.555 123.762 311.421 122.523 309.374C118.42 302.596 113.108 296.861 107.393 291.8C111.437 283.058 117.961 273.065 127.8 261.723C135.237 273.155 140.404 283.359 143.722 292.376C138.253 297.295 133.185 302.852 129.237 309.374C127.998 311.421 126.873 313.555 125.88 315.784ZM121.797 351.11C121.584 351.021 121.372 350.93 121.159 350.838C121.628 352.205 122.063 353.596 122.46 355.012C122.206 353.689 121.985 352.389 121.797 351.11ZM122.083 381.191L125.516 381.904V381.163C126.846 381.156 128.182 381.152 129.523 381.152C164.25 381.152 195.608 383.65 218.211 387.657C229.54 389.665 238.509 392.025 244.569 394.566C247.613 395.842 249.736 397.087 251.045 398.221C252.374 399.372 252.477 400.055 252.477 400.252C252.477 400.447 252.377 401.115 251.089 402.244C249.929 403.262 248.105 404.375 245.534 405.521L187.751 399.873L186.125 406.146L205.944 414.756C184.842 417.631 158.341 419.351 129.523 419.351C94.7951 419.351 63.437 416.854 40.8337 412.847C29.5053 410.838 20.5362 408.478 14.4759 405.938C11.432 404.662 9.30885 403.417 8.0002 402.283C6.67126 401.132 6.56781 400.449 6.56781 400.252C6.56781 400.055 6.67126 399.372 8.0002 398.221C9.30885 397.087 11.432 395.842 14.4759 394.566C20.5362 392.025 29.5053 389.665 40.8337 387.657C61.8113 383.938 90.3294 381.519 122.083 381.191ZM444.199 376.458L446.546 379.927C454.809 392.139 460.753 403.255 464.685 413.286C469.092 409.74 473.604 406.517 477.88 403.463C478.308 403.157 478.734 402.852 479.158 402.549L483.196 399.661L484.269 404.509C486.774 415.837 487.384 426.075 486.617 435.26C497.653 431.818 509.888 431.66 522.301 435.482L525.361 436.425L524.493 439.507C518.38 461.203 503.865 476.874 488.439 487.607C480.7 492.993 472.676 497.175 465.257 500.285C492.236 501.046 516.435 503.316 535.014 506.61C546.53 508.652 556.047 511.114 562.763 513.928C566.107 515.33 568.944 516.895 570.998 518.675C573.032 520.437 574.695 522.772 574.695 525.664C574.695 528.523 573.07 530.837 571.072 532.589C569.057 534.356 566.276 535.909 563.001 537.3L562.232 537.626L523.5 533.841L544.692 543.047L533.883 544.917C510.899 548.892 479.604 551.324 445.18 551.324C410.19 551.324 378.431 548.811 355.346 544.719C343.831 542.677 334.313 540.215 327.598 537.4C324.254 535.999 321.417 534.434 319.362 532.654C317.328 530.891 315.665 528.557 315.665 525.664C315.665 522.772 317.328 520.437 319.362 518.675C321.417 516.895 324.254 515.33 327.598 513.928C334.313 511.114 343.831 508.652 355.346 506.61C372.362 503.593 394.092 501.435 418.355 500.509C410.786 497.377 402.562 493.123 394.635 487.607C379.209 476.874 364.694 461.203 358.582 439.507L357.713 436.425L360.773 435.482C373.187 431.66 385.422 431.818 396.458 435.26C395.691 426.075 396.301 415.837 398.806 404.509L399.878 399.661L403.917 402.549C404.34 402.852 404.766 403.157 405.195 403.463C409.3 406.395 413.621 409.481 417.859 412.861C422.71 402.907 430.332 391.831 441.394 379.568L444.199 376.458ZM415.123 419.087C411.599 416.21 407.919 413.498 404.235 410.846C402.482 420.848 402.335 429.853 403.339 437.9C406.006 439.124 408.58 440.551 411.047 442.169C410.581 435.351 411.773 427.673 415.123 419.087ZM418.666 448.094C418.619 447.925 418.574 447.756 418.53 447.586C416.892 441.235 417.053 433.322 420.42 423.677C425.074 427.986 429.265 432.726 432.568 438.184C434.938 442.098 436.87 446.421 438.157 451.27C436.907 456.638 436.363 462.5 436.694 468.945C435.347 468.25 434.016 467.475 432.72 466.618C429.035 459.453 424.269 453.211 418.666 448.094ZM412.937 451.783C415.772 460.212 421.314 466.543 427.599 471.049C429.92 475.853 431.73 481.117 432.93 486.78C422.468 480.031 409.733 466.745 404.803 446.028C407.478 447.565 410.026 449.344 412.424 451.349C412.596 451.493 412.767 451.637 412.937 451.783ZM397.378 442.513C387.764 438.873 376.972 438.108 365.861 440.873C371.909 459.081 384.566 472.609 398.382 482.223C411.134 491.096 424.707 496.512 434.511 499.111C434.444 497.754 434.344 496.414 434.213 495.092C420.926 488.281 402.298 471.184 397.378 442.513ZM440.852 495.652C440.975 497.09 441.063 498.545 441.115 500.016C441.396 500.015 441.677 500.013 441.959 500.012C442.011 498.542 442.099 497.087 442.222 495.65L441.797 494.366C441.71 494.1 441.623 493.835 441.537 493.571C441.452 493.835 441.365 494.1 441.277 494.366L440.852 495.652ZM448.861 495.092C448.73 496.414 448.63 497.754 448.563 499.111C458.367 496.512 471.94 491.096 484.692 482.223C498.509 472.609 511.166 459.081 517.214 440.873C506.103 438.108 495.31 438.873 485.696 442.513C480.777 471.184 462.148 488.282 448.861 495.092ZM478.271 446.028C473.342 466.745 460.606 480.031 450.144 486.781C451.093 482.299 452.425 478.068 454.09 474.116C461.626 469.361 467.239 462.088 469.575 452.271C469.93 451.959 470.288 451.651 470.65 451.349C473.048 449.344 475.597 447.565 478.271 446.028ZM479.735 437.9C480.739 429.853 480.593 420.848 478.839 410.846C474.832 413.731 470.827 416.688 467.024 419.851C469.77 428.452 470.937 436.175 470.75 443.031C473.601 441.053 476.605 439.337 479.735 437.9ZM463.589 448.856C463.77 447.853 463.912 446.818 464.015 445.753C464.588 439.793 463.917 432.772 461.619 424.651C457.379 428.699 453.563 433.134 450.506 438.184C448.137 442.098 446.205 446.421 444.918 451.27C446.291 457.167 446.811 463.66 446.257 470.865C447.176 470.462 448.068 470.023 448.932 469.549C452.61 461.51 457.6 454.527 463.589 448.856ZM445.633 478.149C445.398 478.898 445.173 479.654 444.959 480.416C445.099 479.686 445.229 478.963 445.349 478.247C445.444 478.214 445.539 478.182 445.633 478.149ZM441.537 441.197C440.544 438.967 439.419 436.834 438.18 434.787C434.077 428.009 428.765 422.274 423.05 417.213C427.094 408.47 433.618 398.478 443.457 387.135C450.895 398.568 456.062 408.771 459.379 417.788C453.91 422.708 448.842 428.265 444.895 434.787C443.656 436.834 442.531 438.967 441.537 441.197ZM437.455 476.522C437.242 476.433 437.029 476.343 436.816 476.251C437.286 477.617 437.72 479.009 438.118 480.424C437.864 479.102 437.643 477.802 437.455 476.522ZM437.741 506.603L441.174 507.317V506.576C442.504 506.569 443.84 506.565 445.18 506.565C479.908 506.565 511.266 509.062 533.869 513.069C545.198 515.078 554.167 517.438 560.227 519.978C563.271 521.254 565.394 522.499 566.703 523.633C568.032 524.785 568.135 525.467 568.135 525.664C568.135 525.859 568.035 526.527 566.747 527.657C565.586 528.675 563.762 529.787 561.192 530.933L503.409 525.285L501.783 531.558L521.602 540.168C500.499 543.044 473.999 544.764 445.18 544.764C410.453 544.764 379.095 542.267 356.491 538.259C345.163 536.251 336.194 533.891 330.133 531.35C327.09 530.075 324.966 528.829 323.658 527.696C322.329 526.544 322.225 525.862 322.225 525.664C322.225 525.467 322.329 524.785 323.658 523.633C324.966 522.499 327.09 521.254 330.133 519.978C336.194 517.438 345.163 515.078 356.491 513.069C377.469 509.35 405.987 506.932 437.741 506.603ZM128.542 501.871L130.889 505.339C139.151 517.552 145.096 528.667 149.028 538.699C153.434 535.152 157.946 531.93 162.222 528.875C162.651 528.569 163.077 528.265 163.5 527.962L167.539 525.074L168.611 529.922C171.116 541.249 171.727 551.488 170.959 560.672C181.996 557.23 194.23 557.073 206.644 560.895L209.704 561.837L208.836 564.919C202.723 586.615 188.208 602.286 172.782 613.02C165.042 618.405 157.019 622.588 149.599 625.698C176.579 626.458 200.777 628.729 219.357 632.023C230.872 634.064 240.39 636.526 247.105 639.341C250.449 640.742 253.286 642.308 255.34 644.088C257.375 645.85 259.037 648.184 259.037 651.077C259.037 653.936 257.413 656.25 255.414 658.002C253.399 659.769 250.618 661.322 247.344 662.712L246.575 663.039L207.842 659.253L229.034 668.46L218.225 670.329C195.242 674.304 163.947 676.736 129.523 676.736C94.5326 676.736 62.7732 674.224 39.6886 670.131C28.173 668.09 18.6554 665.628 11.94 662.813C8.59615 661.411 5.75918 659.846 3.70471 658.066C1.67053 656.304 0.0078125 653.97 0.0078125 651.077C0.0078125 648.184 1.67053 645.85 3.70471 644.088C5.75918 642.308 8.59615 640.742 11.94 639.341C18.6554 636.526 28.173 634.064 39.6886 632.023C56.7048 629.006 78.4344 626.848 102.697 625.922C95.1286 622.789 86.9039 618.535 78.9774 613.02C63.5514 602.286 49.0366 586.615 42.9239 564.919L42.0556 561.837L45.1157 560.895C57.5295 557.072 69.7639 557.23 80.8004 560.672C80.0329 551.488 80.6434 541.249 83.1485 529.922L84.2207 525.074L88.2593 527.962C88.6826 528.265 89.1087 528.569 89.5371 528.875C93.6419 531.807 97.9637 534.894 102.201 538.274C107.052 528.319 114.674 517.244 125.736 504.98L128.542 501.871ZM99.4655 544.5C95.9417 541.622 92.2612 538.91 88.5776 536.259C86.8245 546.261 86.6778 555.266 87.6817 563.313C90.348 564.537 92.9228 565.963 95.3891 567.582C94.9229 560.764 96.1158 553.086 99.4655 544.5ZM103.008 573.507C102.962 573.338 102.917 573.169 102.873 572.999C101.235 566.647 101.396 558.734 104.762 549.09C109.416 553.399 113.607 558.139 116.911 563.596C119.28 567.511 121.212 571.833 122.499 576.683C121.249 582.051 120.706 587.913 121.036 594.357C119.69 593.663 118.358 592.888 117.062 592.031C113.377 584.865 108.611 578.623 103.008 573.507ZM97.2795 577.196C100.115 585.624 105.656 591.955 111.941 596.461C114.263 601.265 116.073 606.53 117.272 612.193C106.811 605.443 94.0752 592.157 89.1457 571.44C91.8202 572.977 94.3683 574.757 96.7669 576.762C96.9385 576.905 97.1094 577.05 97.2795 577.196ZM81.7208 567.926C72.1068 564.285 61.3144 563.521 50.203 566.286C56.251 584.494 68.9082 598.022 82.7242 607.635C95.4763 616.508 109.049 621.924 118.854 624.524C118.786 623.167 118.687 621.827 118.555 620.504C105.268 613.694 86.6403 596.596 81.7208 567.926ZM125.194 621.065C125.317 622.503 125.405 623.958 125.458 625.429C125.739 625.427 126.02 625.426 126.301 625.425C126.354 623.954 126.442 622.5 126.565 621.063L126.14 619.779C126.052 619.513 125.965 619.248 125.88 618.984C125.794 619.248 125.708 619.513 125.62 619.779L125.194 621.065ZM133.203 620.505C133.072 621.827 132.972 623.167 132.905 624.524C142.71 621.924 156.283 616.508 169.035 607.635C182.851 598.022 195.508 584.494 201.556 566.286C190.445 563.521 179.653 564.285 170.039 567.926C165.119 596.597 146.49 613.694 133.203 620.505ZM162.614 571.44C157.684 592.158 144.948 605.444 134.487 612.194C135.436 607.712 136.767 603.48 138.432 599.529C145.968 594.773 151.581 587.5 153.918 577.684C154.273 577.371 154.631 577.064 154.992 576.762C157.391 574.757 159.939 572.977 162.614 571.44ZM164.078 563.313C165.082 555.266 164.935 546.261 163.182 536.259C159.174 539.144 155.169 542.101 151.367 545.264C154.112 553.865 155.279 561.588 155.092 568.444C157.943 566.466 160.947 564.75 164.078 563.313ZM147.931 574.269C148.112 573.265 148.255 572.231 148.357 571.165C148.931 565.206 148.259 558.185 145.962 550.063C141.722 554.112 137.906 558.547 134.849 563.596C132.479 567.511 130.548 571.833 129.26 576.683C130.634 582.579 131.154 589.072 130.6 596.278C131.518 595.875 132.41 595.436 133.274 594.961C136.952 586.923 141.943 579.939 147.931 574.269ZM129.976 603.562C129.74 604.31 129.515 605.066 129.301 605.829C129.441 605.099 129.571 604.376 129.691 603.659C129.786 603.627 129.881 603.594 129.976 603.562ZM125.88 566.609C124.886 564.38 123.762 562.246 122.523 560.199C118.42 553.422 113.108 547.686 107.393 542.625C111.437 533.883 117.961 523.891 127.8 512.548C135.237 523.98 140.404 534.184 143.722 543.201C138.253 548.121 133.185 553.677 129.237 560.199C127.998 562.246 126.873 564.38 125.88 566.609ZM121.797 601.935C121.584 601.846 121.372 601.756 121.159 601.663C121.628 603.03 122.063 604.422 122.46 605.837C122.206 604.515 121.985 603.214 121.797 601.935ZM122.084 632.016L125.516 632.729V631.989C126.846 631.981 128.182 631.978 129.523 631.978C164.25 631.978 195.608 634.475 218.211 638.482C229.54 640.49 238.509 642.851 244.569 645.391C247.613 646.667 249.736 647.912 251.045 649.046C252.374 650.197 252.477 650.88 252.477 651.077C252.477 651.272 252.377 651.94 251.089 653.07C249.929 654.087 248.105 655.2 245.534 656.346L187.751 650.698L186.125 656.971L205.944 665.581C184.842 668.457 158.342 670.176 129.523 670.176C94.7951 670.176 63.437 667.679 40.8337 663.672C29.5053 661.664 20.5362 659.303 14.4759 656.763C11.432 655.487 9.30885 654.242 8.0002 653.108C6.67126 651.957 6.56781 651.274 6.56781 651.077C6.56781 650.88 6.67126 650.197 8.0002 649.046C9.30885 647.912 11.432 646.667 14.4759 645.391C20.5362 642.851 29.5053 640.49 40.8337 638.482C61.8113 634.763 90.3296 632.345 122.084 632.016ZM444.199 627.283L446.546 630.752C454.809 642.964 460.753 654.08 464.685 664.111C469.092 660.565 473.604 657.342 477.88 654.288C478.308 653.982 478.734 653.677 479.158 653.375L483.196 650.486L484.269 655.334C486.774 666.662 487.384 676.901 486.617 686.085C497.653 682.643 509.888 682.485 522.301 686.308L525.361 687.25L524.493 690.332C518.38 712.028 503.865 727.699 488.439 738.433C480.7 743.818 472.676 748 465.257 751.11C492.236 751.871 516.435 754.141 535.014 757.435C546.53 759.477 556.047 761.939 562.763 764.753C566.107 766.155 568.944 767.72 570.998 769.5C573.032 771.263 574.695 773.597 574.695 776.49C574.695 779.348 573.07 781.662 571.072 783.414C569.057 785.181 566.276 786.735 563.001 788.125L562.232 788.452L523.5 784.666L544.692 793.872L533.883 795.742C510.899 799.717 479.604 802.149 445.18 802.149C410.19 802.149 378.431 799.636 355.346 795.544C343.831 793.502 334.313 791.04 327.598 788.226C324.254 786.824 321.417 785.259 319.362 783.479C317.328 781.716 315.665 779.382 315.665 776.49C315.665 773.597 317.328 771.263 319.362 769.5C321.417 767.72 324.254 766.155 327.598 764.753C334.313 761.939 343.831 759.477 355.346 757.435C372.362 754.419 394.092 752.26 418.355 751.334C410.786 748.202 402.562 743.948 394.635 738.433C379.209 727.699 364.694 712.028 358.582 690.332L357.713 687.25L360.773 686.308C373.187 682.485 385.422 682.643 396.458 686.085C395.691 676.901 396.301 666.662 398.806 655.334L399.878 650.486L403.917 653.375C404.34 653.677 404.766 653.982 405.195 654.288C409.299 657.22 413.621 660.307 417.859 663.686C422.71 653.732 430.332 642.656 441.394 630.393L444.199 627.283ZM415.123 669.912C411.599 667.035 407.919 664.323 404.235 661.671C402.482 671.674 402.335 680.678 403.339 688.726C406.006 689.949 408.58 691.376 411.047 692.994C410.581 686.176 411.773 678.499 415.123 669.912ZM418.666 698.919C418.619 698.751 418.574 698.581 418.53 698.411C416.892 692.06 417.054 684.147 420.42 674.502C425.074 678.812 429.265 683.551 432.568 689.009C434.938 692.923 436.87 697.246 438.157 702.095C436.907 707.464 436.363 713.326 436.694 719.77C435.347 719.075 434.016 718.3 432.72 717.443C429.035 710.278 424.269 704.036 418.666 698.919ZM412.937 702.608C415.772 711.037 421.314 717.368 427.599 721.874C429.92 726.678 431.73 731.942 432.93 737.606C422.468 730.856 409.733 717.57 404.803 696.853C407.478 698.39 410.026 700.17 412.424 702.174C412.596 702.318 412.767 702.463 412.937 702.608ZM397.378 693.339C387.764 689.698 376.972 688.933 365.861 691.699C371.909 709.906 384.566 723.435 398.382 733.048C411.134 741.921 424.707 747.337 434.511 749.936C434.444 748.579 434.344 747.239 434.213 745.917C420.926 739.106 402.298 722.009 397.378 693.339ZM440.852 746.477C440.975 747.915 441.063 749.37 441.115 750.841C441.396 750.84 441.677 750.839 441.959 750.837C442.011 749.367 442.099 747.913 442.222 746.476L441.797 745.191C441.71 744.925 441.623 744.661 441.537 744.396C441.452 744.661 441.365 744.925 441.277 745.191L440.852 746.477ZM448.861 745.917C448.73 747.239 448.63 748.579 448.563 749.936C458.367 747.337 471.94 741.921 484.692 733.048C498.509 723.435 511.166 709.906 517.214 691.699C506.103 688.933 495.31 689.698 485.696 693.338C480.777 722.009 462.148 739.107 448.861 745.917ZM478.271 696.853C473.342 717.57 460.606 730.857 450.144 737.606C451.093 733.125 452.425 728.893 454.09 724.941C461.626 720.186 467.239 712.913 469.575 703.096C469.93 702.784 470.288 702.477 470.65 702.174C473.048 700.17 475.597 698.39 478.271 696.853ZM479.735 688.725C480.739 680.678 480.593 671.673 478.839 661.671C474.832 664.556 470.827 667.513 467.024 670.677C469.77 679.277 470.937 687.001 470.75 693.857C473.601 691.879 476.605 690.162 479.735 688.725ZM463.589 699.681C463.77 698.678 463.912 697.644 464.015 696.578C464.588 690.618 463.917 683.597 461.619 675.476C457.379 679.524 453.563 683.959 450.506 689.009C448.137 692.923 446.205 697.246 444.918 702.095C446.291 707.992 446.811 714.485 446.257 721.691C447.176 721.287 448.068 720.848 448.932 720.374C452.61 712.336 457.6 705.352 463.589 699.681ZM445.633 728.974C445.398 729.723 445.173 730.479 444.959 731.242C445.099 730.512 445.229 729.788 445.349 729.072C445.444 729.039 445.539 729.007 445.633 728.974ZM441.537 692.022C440.544 689.792 439.419 687.659 438.18 685.612C434.077 678.834 428.765 673.099 423.05 668.038C427.094 659.295 433.618 649.303 443.457 637.96C450.895 649.393 456.062 659.597 459.379 668.614C453.91 673.533 448.842 679.09 444.895 685.612C443.656 687.659 442.531 689.792 441.537 692.022ZM437.455 727.347C437.242 727.259 437.029 727.168 436.816 727.076C437.286 728.443 437.72 729.834 438.118 731.25C437.864 729.927 437.643 728.627 437.455 727.347ZM437.741 757.429L441.174 758.142V757.401C442.504 757.394 443.84 757.39 445.18 757.39C479.908 757.39 511.266 759.887 533.869 763.895C545.198 765.903 554.167 768.263 560.227 770.804C563.271 772.079 565.394 773.325 566.703 774.458C568.032 775.61 568.135 776.292 568.135 776.49C568.135 776.684 568.035 777.353 566.747 778.482C565.586 779.5 563.762 780.612 561.192 781.759L503.409 776.111L501.783 782.383L521.602 790.993C500.499 793.869 473.999 795.589 445.18 795.589C410.453 795.589 379.095 793.092 356.491 789.085C345.163 787.076 336.194 784.716 330.133 782.176C327.09 780.9 324.966 779.655 323.658 778.521C322.329 777.369 322.225 776.687 322.225 776.49C322.225 776.292 322.329 775.61 323.658 774.458C324.966 773.325 327.09 772.079 330.133 770.804C336.194 768.263 345.163 765.903 356.491 763.895C377.469 760.176 405.987 757.757 437.741 757.429ZM128.542 752.696L130.889 756.165C139.151 768.377 145.096 779.492 149.028 789.524C153.434 785.977 157.946 782.755 162.222 779.7C162.651 779.394 163.077 779.09 163.5 778.787L167.539 775.899L168.611 780.747C171.116 792.075 171.727 802.313 170.959 811.498C181.996 808.056 194.23 807.898 206.644 811.72L209.704 812.663L208.836 815.745C202.723 837.441 188.208 853.112 172.782 863.845C165.042 869.23 157.019 873.413 149.599 876.523C176.579 877.284 200.777 879.554 219.357 882.848C230.872 884.889 240.39 887.351 247.105 890.166C250.449 891.568 253.286 893.133 255.34 894.913C257.375 896.675 259.037 899.009 259.037 901.902C259.037 904.761 257.413 907.075 255.414 908.827C253.399 910.594 250.618 912.147 247.344 913.538L246.575 913.864L207.842 910.078L229.034 919.285L218.225 921.154C195.242 925.13 163.947 927.562 129.523 927.562C94.5326 927.562 62.7732 925.049 39.6886 920.956C28.173 918.915 18.6554 916.453 11.94 913.638C8.59615 912.237 5.75918 910.671 3.70471 908.891C1.67053 907.129 0.0078125 904.795 0.0078125 901.902C0.0078125 899.009 1.67053 896.675 3.70471 894.913C5.75918 893.133 8.59615 891.568 11.94 890.166C18.6554 887.351 28.173 884.889 39.6886 882.848C56.7048 879.831 78.4344 877.673 102.697 876.747C95.1286 873.615 86.9039 869.361 78.9774 863.845C63.5514 853.112 49.0366 837.441 42.9239 815.745L42.0556 812.663L45.1157 811.72C57.5295 807.898 69.7639 808.056 80.8004 811.498C80.0329 802.313 80.6434 792.075 83.1485 780.747L84.2207 775.899L88.2593 778.787C88.6826 779.09 89.1087 779.394 89.5371 779.7C93.6419 782.632 97.9637 785.719 102.201 789.099C107.052 779.145 114.674 768.069 125.736 755.806L128.542 752.696ZM99.4654 795.325C95.9417 792.448 92.2612 789.735 88.5776 787.084C86.8245 797.086 86.6778 806.091 87.6817 814.138C90.348 815.362 92.9228 816.789 95.3891 818.407C94.9229 811.589 96.1158 803.911 99.4654 795.325ZM103.008 824.332C102.962 824.163 102.917 823.994 102.873 823.824C101.235 817.473 101.396 809.559 104.762 799.915C109.416 804.224 113.607 808.964 116.911 814.422C119.28 818.336 121.212 822.659 122.499 827.508C121.249 832.876 120.706 838.738 121.036 845.183C119.69 844.488 118.358 843.713 117.062 842.856C113.377 835.691 108.611 829.448 103.008 824.332ZM97.2795 828.021C100.115 836.449 105.656 842.78 111.941 847.286C114.263 852.091 116.073 857.355 117.272 863.018C106.811 856.269 94.0752 842.983 89.1457 822.266C91.8202 823.803 94.3683 825.582 96.7669 827.587C96.9385 827.731 97.1094 827.875 97.2795 828.021ZM81.7208 818.751C72.1068 815.111 61.3144 814.346 50.203 817.111C56.251 835.319 68.9082 848.847 82.7242 858.461C95.4763 867.334 109.049 872.75 118.854 875.349C118.786 873.992 118.687 872.652 118.555 871.33C105.268 864.519 86.6403 847.421 81.7208 818.751ZM125.194 871.89C125.317 873.328 125.405 874.783 125.458 876.254C125.739 876.253 126.02 876.251 126.301 876.25C126.354 874.779 126.442 873.325 126.565 871.888L126.14 870.604C126.052 870.338 125.965 870.073 125.88 869.809C125.794 870.073 125.708 870.338 125.62 870.604L125.194 871.89ZM133.203 871.33C133.072 872.652 132.972 873.992 132.905 875.349C142.71 872.75 156.283 867.334 169.035 858.461C182.851 848.847 195.508 835.319 201.556 817.111C190.445 814.346 179.653 815.11 170.039 818.751C165.119 847.422 146.49 864.52 133.203 871.33ZM162.614 822.266C157.684 842.983 144.948 856.269 134.487 863.019C135.436 858.537 136.767 854.305 138.432 850.354C145.968 845.598 151.581 838.326 153.918 828.509C154.273 828.197 154.631 827.889 154.992 827.587C157.391 825.582 159.939 823.803 162.614 822.266ZM164.078 814.138C165.082 806.091 164.935 797.086 163.182 787.084C159.174 789.969 155.169 792.926 151.367 796.089C154.112 804.69 155.279 812.413 155.092 819.269C157.943 817.291 160.947 815.575 164.078 814.138ZM147.931 825.094C148.112 824.09 148.255 823.056 148.357 821.991C148.931 816.031 148.259 809.01 145.962 800.888C141.722 804.937 137.906 809.372 134.849 814.422C132.479 818.336 130.548 822.659 129.26 827.508C130.634 833.405 131.154 839.897 130.6 847.103C131.518 846.7 132.41 846.261 133.274 845.787C136.952 837.748 141.943 830.764 147.931 825.094ZM129.976 854.387C129.74 855.136 129.515 855.891 129.301 856.654C129.441 855.924 129.571 855.201 129.691 854.484C129.786 854.452 129.881 854.42 129.976 854.387ZM125.88 817.435C124.886 815.205 123.762 813.071 122.523 811.025C118.42 804.247 113.108 798.512 107.393 793.451C111.437 784.708 117.961 774.716 127.8 763.373C135.237 774.805 140.404 785.009 143.722 794.026C138.253 798.946 133.185 804.503 129.237 811.025C127.998 813.071 126.873 815.205 125.88 817.435ZM121.797 852.76C121.584 852.671 121.372 852.581 121.159 852.488C121.628 853.855 122.063 855.247 122.46 856.662C122.206 855.34 121.985 854.039 121.797 852.76ZM122.084 882.841L125.516 883.555V882.814C126.846 882.807 128.182 882.803 129.523 882.803C164.25 882.803 195.608 885.3 218.211 889.307C229.54 891.316 238.509 893.676 244.569 896.216C247.613 897.492 249.736 898.737 251.045 899.871C252.374 901.022 252.477 901.705 252.477 901.902C252.477 902.097 252.377 902.765 251.089 903.895C249.929 904.912 248.105 906.025 245.534 907.171L187.751 901.523L186.125 907.796L205.944 916.406C184.842 919.282 158.342 921.002 129.523 921.002C94.7951 921.002 63.437 918.504 40.8337 914.497C29.5053 912.489 20.5362 910.128 14.4759 907.588C11.432 906.312 9.30885 905.067 8.0002 903.933C6.67126 902.782 6.56781 902.099 6.56781 901.902C6.56781 901.705 6.67126 901.022 8.0002 899.871C9.30885 898.737 11.432 897.492 14.4759 896.216C20.5362 893.676 29.5053 891.316 40.8337 889.307C61.8113 885.588 90.3296 883.17 122.084 882.841ZM444.199 878.11L446.546 881.579C454.809 893.791 460.753 904.906 464.685 914.938C469.092 911.391 473.604 908.169 477.88 905.114C478.308 904.808 478.734 904.504 479.158 904.201L483.196 901.313L484.269 906.161C486.774 917.489 487.384 927.727 486.617 936.912C497.653 933.47 509.888 933.312 522.301 937.134L525.361 938.077L524.493 941.159C518.38 962.855 503.865 978.526 488.439 989.259C480.7 994.644 472.676 998.827 465.257 1001.94C492.236 1002.7 516.435 1004.97 535.014 1008.26C546.53 1010.3 556.047 1012.77 562.763 1015.58C566.107 1016.98 568.944 1018.55 570.998 1020.33C573.032 1022.09 574.695 1024.42 574.695 1027.32C574.695 1030.17 573.07 1032.49 571.072 1034.24C569.057 1036.01 566.276 1037.56 563.001 1038.95L562.232 1039.28L523.499 1035.49L544.692 1044.7L533.883 1046.57C510.899 1050.54 479.604 1052.98 445.18 1052.98C410.19 1052.98 378.431 1050.46 355.346 1046.37C343.831 1044.33 334.313 1041.87 327.598 1039.05C324.254 1037.65 321.417 1036.09 319.362 1034.31C317.328 1032.54 315.665 1030.21 315.665 1027.32C315.665 1024.42 317.328 1022.09 319.362 1020.33C321.417 1018.55 324.254 1016.98 327.598 1015.58C334.313 1012.77 343.831 1010.3 355.346 1008.26C372.362 1005.25 394.092 1003.09 418.355 1002.16C410.786 999.029 402.562 994.775 394.635 989.259C379.209 978.526 364.694 962.855 358.582 941.159L357.713 938.077L360.773 937.134C373.187 933.312 385.422 933.47 396.458 936.912C395.691 927.727 396.301 917.489 398.806 906.161L399.878 901.313L403.917 904.201C404.34 904.504 404.766 904.808 405.195 905.114C409.299 908.046 413.621 911.133 417.859 914.513C422.71 904.559 430.332 893.483 441.394 881.22L444.199 878.11ZM415.123 920.739C411.599 917.862 407.919 915.149 404.235 912.498C402.482 922.5 402.335 931.505 403.339 939.552C406.006 940.776 408.58 942.203 411.047 943.821C410.581 937.003 411.773 929.325 415.123 920.739ZM418.666 949.746C418.619 949.577 418.574 949.408 418.53 949.238C416.892 942.887 417.054 934.973 420.42 925.329C425.074 929.638 429.265 934.378 432.568 939.836C434.938 943.75 436.87 948.073 438.157 952.922C436.907 958.29 436.363 964.152 436.694 970.597C435.347 969.902 434.016 969.127 432.72 968.27C429.035 961.105 424.269 954.863 418.666 949.746ZM412.937 953.435C415.772 961.863 421.314 968.195 427.599 972.701C429.92 977.505 431.73 982.769 432.93 988.432C422.468 981.683 409.733 968.397 404.803 947.68C407.478 949.217 410.026 950.996 412.424 953.001C412.596 953.145 412.767 953.289 412.937 953.435ZM397.378 944.165C387.764 940.525 376.972 939.76 365.861 942.525C371.909 960.733 384.566 974.261 398.382 983.875C411.134 992.748 424.707 998.164 434.511 1000.76C434.444 999.406 434.344 998.066 434.213 996.744C420.926 989.933 402.298 972.835 397.378 944.165ZM440.852 997.304C440.975 998.742 441.063 1000.2 441.115 1001.67C441.396 1001.67 441.677 1001.67 441.959 1001.66C442.011 1000.19 442.099 998.739 442.222 997.302L441.797 996.018C441.71 995.752 441.623 995.487 441.537 995.223C441.452 995.487 441.365 995.752 441.277 996.018L440.852 997.304ZM448.861 996.744C448.73 998.066 448.63 999.406 448.563 1000.76C458.367 998.164 471.94 992.748 484.692 983.875C498.509 974.261 511.166 960.733 517.214 942.525C506.103 939.76 495.31 940.525 485.696 944.165C480.777 972.836 462.148 989.934 448.861 996.744ZM478.271 947.68C473.342 968.397 460.606 981.683 450.144 988.433C451.093 983.951 452.425 979.72 454.09 975.768C461.626 971.013 467.239 963.74 469.575 953.923C469.93 953.611 470.288 953.303 470.65 953.001C473.048 950.996 475.597 949.217 478.271 947.68ZM479.735 939.552C480.739 931.505 480.593 922.5 478.839 912.498C474.832 915.383 470.827 918.34 467.024 921.503C469.77 930.104 470.937 937.827 470.75 944.683C473.601 942.705 476.605 940.989 479.735 939.552ZM463.589 950.508C463.77 949.505 463.912 948.47 464.015 947.405C464.588 941.445 463.917 934.424 461.619 926.302C457.379 930.351 453.563 934.786 450.506 939.836C448.137 943.75 446.205 948.073 444.918 952.922C446.291 958.819 446.811 965.312 446.257 972.517C447.176 972.114 448.068 971.675 448.932 971.201C452.61 963.162 457.6 956.179 463.589 950.508ZM445.633 979.801C445.398 980.55 445.173 981.306 444.959 982.068C445.099 981.338 445.229 980.615 445.349 979.898C445.444 979.866 445.539 979.834 445.633 979.801ZM441.537 942.849C440.544 940.619 439.419 938.485 438.18 936.439C434.077 929.661 428.765 923.926 423.05 918.865C427.094 910.122 433.618 900.13 443.457 888.787C450.895 900.22 456.062 910.423 459.379 919.44C453.91 924.36 448.842 929.917 444.895 936.439C443.656 938.485 442.531 940.619 441.537 942.849ZM437.455 978.174C437.242 978.085 437.029 977.995 436.816 977.903C437.286 979.269 437.72 980.661 438.118 982.076C437.864 980.754 437.643 979.453 437.455 978.174ZM437.741 1008.26L441.174 1008.97V1008.23C442.504 1008.22 443.84 1008.22 445.18 1008.22C479.908 1008.22 511.266 1010.71 533.869 1014.72C545.198 1016.73 554.167 1019.09 560.227 1021.63C563.271 1022.91 565.394 1024.15 566.703 1025.29C568.032 1026.44 568.135 1027.12 568.135 1027.32C568.135 1027.51 568.035 1028.18 566.747 1029.31C565.586 1030.33 563.762 1031.44 561.192 1032.59L503.409 1026.94L501.783 1033.21L521.601 1041.82C500.499 1044.7 473.999 1046.42 445.18 1046.42C410.453 1046.42 379.095 1043.92 356.491 1039.91C345.163 1037.9 336.194 1035.54 330.133 1033C327.09 1031.73 324.966 1030.48 323.658 1029.35C322.329 1028.2 322.225 1027.51 322.225 1027.32C322.225 1027.12 322.329 1026.44 323.658 1025.29C324.966 1024.15 327.09 1022.91 330.133 1021.63C336.194 1019.09 345.163 1016.73 356.491 1014.72C377.469 1011 405.987 1008.58 437.741 1008.26Z" fill="url(#paint0_linear_472_6)"/>
<path fill-rule="evenodd" clip-rule="evenodd" d="M128.542 1044.39L130.889 1047.86C139.151 1060.07 145.096 1071.19 149.028 1081.22C153.434 1077.67 157.946 1074.45 162.222 1071.39C162.651 1071.09 163.077 1070.78 163.5 1070.48L167.539 1067.59L168.611 1072.44C171.116 1083.77 171.727 1094.01 170.959 1103.19C181.996 1099.75 194.23 1099.59 206.644 1103.41L209.704 1104.36L208.836 1107.44C202.723 1129.13 188.208 1144.8 172.782 1155.54C165.042 1160.92 157.019 1165.11 149.599 1168.22C176.579 1168.98 200.777 1171.25 219.357 1174.54C230.872 1176.58 240.39 1179.04 247.105 1181.86C250.449 1183.26 253.286 1184.83 255.34 1186.61C257.375 1188.37 259.037 1190.7 259.037 1193.59C259.037 1196.45 257.413 1198.77 255.414 1200.52C253.399 1202.29 250.618 1203.84 247.344 1205.23L246.575 1205.56L207.842 1201.77L229.034 1210.98L218.225 1212.85C195.242 1216.82 163.947 1219.25 129.523 1219.25C94.5326 1219.25 62.7732 1216.74 39.6886 1212.65C28.173 1210.61 18.6554 1208.15 11.94 1205.33C8.59615 1203.93 5.75918 1202.36 3.70471 1200.58C1.67053 1198.82 0.0078125 1196.49 0.0078125 1193.59C0.0078125 1190.7 1.67053 1188.37 3.70471 1186.61C5.75918 1184.83 8.59615 1183.26 11.94 1181.86C18.6554 1179.04 28.173 1176.58 39.6886 1174.54C56.7048 1171.52 78.4344 1169.37 102.697 1168.44C95.1286 1165.31 86.904 1161.05 78.9774 1155.54C63.5514 1144.8 49.0366 1129.13 42.9239 1107.44L42.0556 1104.36L45.1157 1103.41C57.5295 1099.59 69.7639 1099.75 80.8004 1103.19C80.033 1094.01 80.6434 1083.77 83.1485 1072.44L84.2207 1067.59L88.2593 1070.48C88.6826 1070.78 89.1087 1071.09 89.5372 1071.39C93.642 1074.33 97.9638 1077.41 102.201 1080.79C107.052 1070.84 114.674 1059.76 125.736 1047.5L128.542 1044.39ZM99.4654 1087.02C95.9417 1084.14 92.2612 1081.43 88.5776 1078.78C86.8245 1088.78 86.6778 1097.78 87.6817 1105.83C90.348 1107.05 92.9228 1108.48 95.3891 1110.1C94.9229 1103.28 96.1158 1095.6 99.4654 1087.02ZM103.008 1116.02C102.962 1115.86 102.917 1115.69 102.873 1115.52C101.235 1109.17 101.396 1101.25 104.762 1091.61C109.416 1095.92 113.607 1100.66 116.911 1106.11C119.28 1110.03 121.212 1114.35 122.499 1119.2C121.249 1124.57 120.706 1130.43 121.036 1136.88C119.69 1136.18 118.358 1135.41 117.062 1134.55C113.377 1127.38 108.611 1121.14 103.008 1116.02ZM97.2795 1119.71C100.115 1128.14 105.656 1134.47 111.941 1138.98C114.263 1143.78 116.073 1149.05 117.272 1154.71C106.811 1147.96 94.0751 1134.68 89.1457 1113.96C91.8202 1115.5 94.3683 1117.28 96.7669 1119.28C96.9385 1119.42 97.1094 1119.57 97.2795 1119.71ZM81.7208 1110.44C72.1068 1106.8 61.3144 1106.04 50.203 1108.8C56.251 1127.01 68.9082 1140.54 82.7242 1150.15C95.4763 1159.03 109.049 1164.44 118.854 1167.04C118.786 1165.68 118.687 1164.34 118.555 1163.02C105.268 1156.21 86.6402 1139.11 81.7208 1110.44ZM125.194 1163.58C125.317 1165.02 125.405 1166.48 125.458 1167.95C125.739 1167.95 126.02 1167.94 126.301 1167.94C126.354 1166.47 126.442 1165.02 126.565 1163.58L126.14 1162.3C126.052 1162.03 125.965 1161.77 125.88 1161.5C125.794 1161.77 125.708 1162.03 125.62 1162.3L125.194 1163.58ZM133.203 1163.02C133.072 1164.34 132.972 1165.68 132.905 1167.04C142.71 1164.44 156.283 1159.03 169.035 1150.15C182.851 1140.54 195.508 1127.01 201.556 1108.8C190.445 1106.04 179.653 1106.8 170.039 1110.44C165.119 1139.11 146.49 1156.21 133.203 1163.02ZM162.614 1113.96C157.684 1134.68 144.948 1147.96 134.487 1154.71C135.436 1150.23 136.767 1146 138.432 1142.05C145.968 1137.29 151.581 1130.02 153.918 1120.2C154.273 1119.89 154.631 1119.58 154.992 1119.28C157.391 1117.28 159.939 1115.5 162.614 1113.96ZM164.078 1105.83C165.082 1097.78 164.935 1088.78 163.182 1078.78C159.174 1081.66 155.169 1084.62 151.367 1087.78C154.112 1096.38 155.279 1104.11 155.092 1110.96C157.943 1108.98 160.947 1107.27 164.078 1105.83ZM147.931 1116.79C148.112 1115.78 148.255 1114.75 148.357 1113.68C148.931 1107.72 148.259 1100.7 145.962 1092.58C141.722 1096.63 137.906 1101.06 134.849 1106.11C132.479 1110.03 130.548 1114.35 129.26 1119.2C130.634 1125.1 131.154 1131.59 130.6 1138.8C131.518 1138.39 132.41 1137.95 133.274 1137.48C136.952 1129.44 141.943 1122.46 147.931 1116.79ZM129.976 1146.08C129.74 1146.83 129.515 1147.58 129.301 1148.35C129.441 1147.62 129.571 1146.89 129.691 1146.18C129.786 1146.15 129.881 1146.11 129.976 1146.08ZM125.88 1109.13C124.886 1106.9 123.762 1104.76 122.523 1102.72C118.42 1095.94 113.108 1090.2 107.393 1085.14C111.437 1076.4 117.961 1066.41 127.8 1055.07C135.237 1066.5 140.404 1076.7 143.722 1085.72C138.253 1090.64 133.185 1096.2 129.237 1102.72C127.998 1104.76 126.873 1106.9 125.88 1109.13ZM121.797 1144.45C121.584 1144.36 121.372 1144.27 121.159 1144.18C121.628 1145.55 122.063 1146.94 122.46 1148.35C122.206 1147.03 121.985 1145.73 121.797 1144.45ZM122.083 1174.53L125.516 1175.25V1174.51C126.846 1174.5 128.182 1174.5 129.523 1174.5C164.25 1174.5 195.608 1176.99 218.211 1181C229.54 1183.01 238.509 1185.37 244.569 1187.91C247.613 1189.18 249.736 1190.43 251.045 1191.56C252.374 1192.72 252.477 1193.4 252.477 1193.59C252.477 1193.79 252.377 1194.46 251.089 1195.59C249.929 1196.61 248.105 1197.72 245.534 1198.86L187.751 1193.22L186.125 1199.49L205.944 1208.1C184.842 1210.97 158.341 1212.69 129.523 1212.69C94.7951 1212.69 63.437 1210.2 40.8337 1206.19C29.5053 1204.18 20.5362 1201.82 14.4759 1199.28C11.432 1198.01 9.30885 1196.76 8.0002 1195.63C6.67126 1194.47 6.56781 1193.79 6.56781 1193.59C6.56781 1193.4 6.67126 1192.72 8.0002 1191.56C9.30885 1190.43 11.432 1189.18 14.4759 1187.91C20.5362 1185.37 29.5053 1183.01 40.8337 1181C61.8113 1177.28 90.3295 1174.86 122.083 1174.53ZM444.199 1169.8L446.546 1173.27C454.809 1185.48 460.753 1196.6 464.685 1206.63C469.092 1203.08 473.604 1199.86 477.88 1196.81C478.308 1196.5 478.734 1196.2 479.158 1195.89L483.196 1193L484.269 1197.85C486.774 1209.18 487.384 1219.42 486.617 1228.6C497.653 1225.16 509.888 1225 522.301 1228.83L525.361 1229.77L524.493 1232.85C518.38 1254.55 503.865 1270.22 488.439 1280.95C480.7 1286.34 472.676 1290.52 465.257 1293.63C492.236 1294.39 516.435 1296.66 535.014 1299.95C546.53 1301.99 556.047 1304.46 562.763 1307.27C566.107 1308.67 568.944 1310.24 570.998 1312.02C573.032 1313.78 574.695 1316.11 574.695 1319.01C574.695 1321.87 573.07 1324.18 571.072 1325.93C569.057 1327.7 566.276 1329.25 563.001 1330.64L562.232 1330.97L523.499 1327.18L544.692 1336.39L533.883 1338.26C510.899 1342.24 479.604 1344.67 445.18 1344.67C410.19 1344.67 378.431 1342.15 355.346 1338.06C343.831 1336.02 334.313 1333.56 327.598 1330.74C324.254 1329.34 321.417 1327.78 319.362 1326C317.328 1324.23 315.665 1321.9 315.665 1319.01C315.665 1316.11 317.328 1313.78 319.362 1312.02C321.417 1310.24 324.254 1308.67 327.598 1307.27C334.313 1304.46 343.831 1301.99 355.346 1299.95C372.362 1296.94 394.092 1294.78 418.355 1293.85C410.786 1290.72 402.562 1286.47 394.635 1280.95C379.209 1270.22 364.694 1254.55 358.582 1232.85L357.713 1229.77L360.773 1228.83C373.187 1225 385.422 1225.16 396.458 1228.6C395.691 1219.42 396.301 1209.18 398.806 1197.85L399.878 1193L403.917 1195.89C404.34 1196.2 404.766 1196.5 405.195 1196.81C409.299 1199.74 413.621 1202.82 417.859 1206.2C422.71 1196.25 430.332 1185.17 441.394 1172.91L444.199 1169.8ZM415.123 1212.43C411.599 1209.55 407.919 1206.84 404.235 1204.19C402.482 1214.19 402.335 1223.2 403.339 1231.24C406.006 1232.47 408.58 1233.89 411.047 1235.51C410.581 1228.69 411.773 1221.02 415.123 1212.43ZM418.666 1241.44C418.619 1241.27 418.574 1241.1 418.53 1240.93C416.892 1234.58 417.053 1226.66 420.42 1217.02C425.074 1221.33 429.265 1226.07 432.568 1231.53C434.938 1235.44 436.87 1239.76 438.157 1244.61C436.907 1249.98 436.363 1255.84 436.694 1262.29C435.347 1261.59 434.016 1260.82 432.72 1259.96C429.035 1252.8 424.269 1246.55 418.666 1241.44ZM412.937 1245.13C415.772 1253.55 421.314 1259.89 427.599 1264.39C429.92 1269.2 431.73 1274.46 432.93 1280.12C422.468 1273.37 409.733 1260.09 404.803 1239.37C407.478 1240.91 410.026 1242.69 412.424 1244.69C412.596 1244.84 412.767 1244.98 412.937 1245.13ZM397.378 1235.86C387.764 1232.22 376.972 1231.45 365.861 1234.22C371.909 1252.42 384.566 1265.95 398.382 1275.57C411.134 1284.44 424.707 1289.85 434.511 1292.45C434.444 1291.1 434.344 1289.76 434.213 1288.43C420.926 1281.62 402.298 1264.53 397.378 1235.86ZM440.852 1289C440.975 1290.43 441.063 1291.89 441.115 1293.36C441.396 1293.36 441.677 1293.36 441.959 1293.36C442.011 1291.88 442.099 1290.43 442.222 1288.99L441.797 1287.71C441.71 1287.44 441.623 1287.18 441.537 1286.91C441.452 1287.18 441.365 1287.44 441.277 1287.71L440.852 1289ZM448.861 1288.44C448.73 1289.76 448.63 1291.1 448.563 1292.45C458.367 1289.85 471.94 1284.44 484.692 1275.57C498.509 1265.95 511.166 1252.42 517.214 1234.22C506.103 1231.45 495.31 1232.22 485.696 1235.86C480.777 1264.53 462.148 1281.63 448.861 1288.44ZM478.271 1239.37C473.342 1260.09 460.606 1273.37 450.144 1280.12C451.093 1275.64 452.425 1271.41 454.09 1267.46C461.626 1262.7 467.239 1255.43 469.575 1245.61C469.93 1245.3 470.288 1244.99 470.65 1244.69C473.048 1242.69 475.597 1240.91 478.271 1239.37ZM479.735 1231.24C480.739 1223.2 480.593 1214.19 478.839 1204.19C474.832 1207.07 470.827 1210.03 467.024 1213.19C469.77 1221.8 470.937 1229.52 470.75 1236.37C473.601 1234.4 476.605 1232.68 479.735 1231.24ZM463.589 1242.2C463.77 1241.2 463.912 1240.16 464.015 1239.1C464.588 1233.14 463.917 1226.12 461.619 1217.99C457.379 1222.04 453.563 1226.48 450.506 1231.53C448.137 1235.44 446.205 1239.76 444.918 1244.61C446.291 1250.51 446.811 1257 446.257 1264.21C447.176 1263.81 448.068 1263.37 448.932 1262.89C452.61 1254.85 457.6 1247.87 463.589 1242.2ZM445.633 1271.49C445.398 1272.24 445.173 1273 444.959 1273.76C445.099 1273.03 445.229 1272.31 445.349 1271.59C445.444 1271.56 445.539 1271.53 445.633 1271.49ZM441.537 1234.54C440.544 1232.31 439.419 1230.18 438.18 1228.13C434.077 1221.35 428.765 1215.62 423.05 1210.56C427.094 1201.81 433.618 1191.82 443.457 1180.48C450.895 1191.91 456.062 1202.11 459.379 1211.13C453.91 1216.05 448.842 1221.61 444.895 1228.13C443.656 1230.18 442.531 1232.31 441.537 1234.54ZM437.455 1269.87C437.242 1269.78 437.029 1269.69 436.816 1269.59C437.286 1270.96 437.72 1272.35 438.118 1273.77C437.864 1272.45 437.643 1271.14 437.455 1269.87ZM437.741 1299.95L441.174 1300.66V1299.92C442.504 1299.91 443.84 1299.91 445.18 1299.91C479.908 1299.91 511.266 1302.41 533.869 1306.41C545.198 1308.42 554.167 1310.78 560.227 1313.32C563.271 1314.6 565.394 1315.84 566.703 1316.98C568.032 1318.13 568.135 1318.81 568.135 1319.01C568.135 1319.2 568.035 1319.87 566.747 1321C565.586 1322.02 563.762 1323.13 561.192 1324.28L503.409 1318.63L501.783 1324.9L521.602 1333.51C500.499 1336.39 473.999 1338.11 445.18 1338.11C410.453 1338.11 379.095 1335.61 356.491 1331.6C345.163 1329.59 336.194 1327.23 330.133 1324.69C327.09 1323.42 324.966 1322.17 323.658 1321.04C322.329 1319.89 322.225 1319.2 322.225 1319.01C322.225 1318.81 322.329 1318.13 323.658 1316.98C324.966 1315.84 327.09 1314.6 330.133 1313.32C336.194 1310.78 345.163 1308.42 356.491 1306.41C377.469 1302.69 405.987 1300.28 437.741 1299.95ZM128.542 1295.21L130.889 1298.68C139.151 1310.9 145.096 1322.01 149.028 1332.04C153.434 1328.5 157.946 1325.27 162.222 1322.22C162.651 1321.91 163.077 1321.61 163.5 1321.31L167.539 1318.42L168.611 1323.26C171.116 1334.59 171.727 1344.83 170.959 1354.02C181.996 1350.57 194.23 1350.42 206.644 1354.24L209.704 1355.18L208.836 1358.26C202.723 1379.96 188.208 1395.63 172.782 1406.36C165.042 1411.75 157.019 1415.93 149.599 1419.04C176.579 1419.8 200.777 1422.07 219.357 1425.37C230.872 1427.41 240.39 1429.87 247.105 1432.68C250.449 1434.09 253.286 1435.65 255.34 1437.43C257.375 1439.19 259.037 1441.53 259.037 1444.42C259.037 1447.28 257.413 1449.59 255.414 1451.34C253.399 1453.11 250.618 1454.67 247.344 1456.06L246.575 1456.38L207.842 1452.6L229.034 1461.8L218.225 1463.67C195.242 1467.65 163.947 1470.08 129.523 1470.08C94.5326 1470.08 62.7732 1467.57 39.6886 1463.47C28.173 1461.43 18.6554 1458.97 11.94 1456.16C8.59615 1454.75 5.75918 1453.19 3.70471 1451.41C1.67053 1449.65 0.0078125 1447.31 0.0078125 1444.42C0.0078125 1441.53 1.67053 1439.19 3.70471 1437.43C5.75918 1435.65 8.59615 1434.09 11.94 1432.68C18.6554 1429.87 28.173 1427.41 39.6886 1425.37C56.7048 1422.35 78.4344 1420.19 102.697 1419.26C95.1286 1416.13 86.904 1411.88 78.9774 1406.36C63.5514 1395.63 49.0366 1379.96 42.9239 1358.26L42.0556 1355.18L45.1157 1354.24C57.5295 1350.42 69.7639 1350.57 80.8004 1354.02C80.033 1344.83 80.6434 1334.59 83.1485 1323.26L84.2207 1318.42L88.2593 1321.31C88.6826 1321.61 89.1087 1321.91 89.5372 1322.22C93.642 1325.15 97.9638 1328.24 102.201 1331.62C107.052 1321.66 114.674 1310.59 125.736 1298.32L128.542 1295.21ZM99.4654 1337.84C95.9417 1334.97 92.2612 1332.25 88.5776 1329.6C86.8245 1339.6 86.6778 1348.61 87.6817 1356.66C90.348 1357.88 92.9228 1359.31 95.3891 1360.92C94.9229 1354.11 96.1158 1346.43 99.4654 1337.84ZM103.008 1366.85C102.962 1366.68 102.917 1366.51 102.873 1366.34C101.235 1359.99 101.396 1352.08 104.762 1342.43C109.416 1346.74 113.607 1351.48 116.911 1356.94C119.28 1360.85 121.212 1365.18 122.499 1370.03C121.249 1375.39 120.706 1381.26 121.036 1387.7C119.69 1387.01 118.358 1386.23 117.062 1385.37C113.377 1378.21 108.611 1371.97 103.008 1366.85ZM97.2795 1370.54C100.115 1378.97 105.656 1385.3 111.941 1389.8C114.263 1394.61 116.073 1399.87 117.272 1405.54C106.811 1398.79 94.0751 1385.5 89.1457 1364.78C91.8202 1366.32 94.3683 1368.1 96.7669 1370.11C96.9385 1370.25 97.1094 1370.39 97.2795 1370.54ZM81.7208 1361.27C72.1068 1357.63 61.3144 1356.86 50.203 1359.63C56.251 1377.84 68.9082 1391.37 82.7242 1400.98C95.4763 1409.85 109.049 1415.27 118.854 1417.87C118.786 1416.51 118.687 1415.17 118.555 1413.85C105.268 1407.04 86.6402 1389.94 81.7208 1361.27ZM125.194 1414.41C125.317 1415.85 125.405 1417.3 125.458 1418.77C125.739 1418.77 126.02 1418.77 126.301 1418.77C126.354 1417.3 126.442 1415.84 126.565 1414.41L126.14 1413.12C126.052 1412.86 125.965 1412.59 125.88 1412.33C125.794 1412.59 125.708 1412.86 125.62 1413.12L125.194 1414.41ZM133.203 1413.85C133.072 1415.17 132.972 1416.51 132.905 1417.87C142.71 1415.27 156.283 1409.85 169.035 1400.98C182.851 1391.37 195.508 1377.84 201.556 1359.63C190.445 1356.86 179.653 1357.63 170.039 1361.27C165.119 1389.94 146.49 1407.04 133.203 1413.85ZM162.614 1364.78C157.684 1385.5 144.948 1398.79 134.487 1405.54C135.436 1401.06 136.767 1396.82 138.432 1392.87C145.968 1388.12 151.581 1380.84 153.918 1371.03C154.273 1370.71 154.631 1370.41 154.992 1370.11C157.391 1368.1 159.939 1366.32 162.614 1364.78ZM164.078 1356.66C165.082 1348.61 164.935 1339.6 163.182 1329.6C159.174 1332.49 155.169 1335.44 151.367 1338.61C154.112 1347.21 155.279 1354.93 155.092 1361.79C157.943 1359.81 160.947 1358.09 164.078 1356.66ZM147.931 1367.61C148.112 1366.61 148.255 1365.57 148.357 1364.51C148.931 1358.55 148.259 1351.53 145.962 1343.41C141.722 1347.45 137.906 1351.89 134.849 1356.94C132.479 1360.85 130.548 1365.18 129.26 1370.03C130.634 1375.92 131.154 1382.42 130.6 1389.62C131.518 1389.22 132.41 1388.78 133.274 1388.3C136.952 1380.27 141.943 1373.28 147.931 1367.61ZM129.976 1396.9C129.74 1397.65 129.515 1398.41 129.301 1399.17C129.441 1398.44 129.571 1397.72 129.691 1397C129.786 1396.97 129.881 1396.94 129.976 1396.9ZM125.88 1359.95C124.886 1357.72 123.762 1355.59 122.523 1353.54C118.42 1346.76 113.108 1341.03 107.393 1335.97C111.437 1327.23 117.961 1317.23 127.8 1305.89C135.237 1317.32 140.404 1327.53 143.722 1336.54C138.253 1341.46 133.185 1347.02 129.237 1353.54C127.998 1355.59 126.873 1357.72 125.88 1359.95ZM121.797 1395.28C121.584 1395.19 121.372 1395.1 121.159 1395.01C121.628 1396.37 122.063 1397.76 122.46 1399.18C122.206 1397.86 121.985 1396.56 121.797 1395.28ZM122.083 1425.36L125.516 1426.07V1425.33C126.846 1425.32 128.182 1425.32 129.523 1425.32C164.25 1425.32 195.608 1427.82 218.211 1431.83C229.54 1433.83 238.509 1436.19 244.569 1438.73C247.613 1440.01 249.736 1441.26 251.045 1442.39C252.374 1443.54 252.477 1444.22 252.477 1444.42C252.477 1444.61 252.377 1445.28 251.089 1446.41C249.929 1447.43 248.105 1448.54 245.534 1449.69L187.751 1444.04L186.125 1450.31L205.944 1458.92C184.842 1461.8 158.341 1463.52 129.523 1463.52C94.7951 1463.52 63.437 1461.02 40.8337 1457.02C29.5053 1455.01 20.5362 1452.65 14.4759 1450.11C11.432 1448.83 9.30885 1447.59 8.0002 1446.45C6.67126 1445.3 6.56781 1444.62 6.56781 1444.42C6.56781 1444.22 6.67126 1443.54 8.0002 1442.39C9.30885 1441.26 11.432 1440.01 14.4759 1438.73C20.5362 1436.19 29.5053 1433.83 40.8337 1431.83C61.8113 1428.11 90.3294 1425.69 122.083 1425.36ZM444.199 1420.63L446.546 1424.1C454.809 1436.31 460.753 1447.42 464.685 1457.45C469.092 1453.91 473.604 1450.69 477.88 1447.63C478.308 1447.33 478.734 1447.02 479.158 1446.72L483.196 1443.83L484.269 1448.68C486.774 1460.01 487.384 1470.24 486.617 1479.43C497.653 1475.99 509.888 1475.83 522.301 1479.65L525.361 1480.59L524.493 1483.68C518.38 1505.37 503.865 1521.04 488.439 1531.78C480.7 1537.16 472.676 1541.34 465.257 1544.45C492.236 1545.21 516.435 1547.48 535.014 1550.78C546.53 1552.82 556.047 1555.28 562.763 1558.1C566.107 1559.5 568.944 1561.06 570.998 1562.84C573.032 1564.61 574.695 1566.94 574.695 1569.83C574.695 1572.69 573.07 1575.01 571.072 1576.76C569.057 1578.52 566.276 1580.08 563.001 1581.47L562.232 1581.79L523.5 1578.01L544.692 1587.22L533.883 1589.09C510.899 1593.06 479.604 1595.49 445.18 1595.49C410.19 1595.49 378.431 1592.98 355.346 1588.89C343.831 1586.85 334.313 1584.38 327.598 1581.57C324.254 1580.17 321.417 1578.6 319.362 1576.82C317.328 1575.06 315.665 1572.73 315.665 1569.83C315.665 1566.94 317.328 1564.61 319.362 1562.84C321.417 1561.06 324.254 1559.5 327.598 1558.1C334.313 1555.28 343.831 1552.82 355.346 1550.78C372.362 1547.76 394.092 1545.6 418.355 1544.68C410.786 1541.55 402.562 1537.29 394.635 1531.78C379.209 1521.04 364.694 1505.37 358.582 1483.68L357.713 1480.59L360.773 1479.65C373.187 1475.83 385.422 1475.99 396.458 1479.43C395.691 1470.24 396.301 1460.01 398.806 1448.68L399.878 1443.83L403.917 1446.72C404.34 1447.02 404.766 1447.33 405.195 1447.63C409.3 1450.56 413.621 1453.65 417.859 1457.03C422.71 1447.08 430.332 1436 441.394 1423.74L444.199 1420.63ZM415.123 1463.26C411.599 1460.38 407.919 1457.67 404.235 1455.01C402.482 1465.02 402.335 1474.02 403.339 1482.07C406.006 1483.29 408.58 1484.72 411.047 1486.34C410.581 1479.52 411.773 1471.84 415.123 1463.26ZM418.666 1492.26C418.619 1492.09 418.574 1491.92 418.53 1491.75C416.892 1485.4 417.053 1477.49 420.42 1467.85C425.074 1472.15 429.265 1476.89 432.568 1482.35C434.938 1486.27 436.87 1490.59 438.157 1495.44C436.907 1500.81 436.363 1506.67 436.694 1513.11C435.347 1512.42 434.016 1511.64 432.72 1510.79C429.035 1503.62 424.269 1497.38 418.666 1492.26ZM412.937 1495.95C415.772 1504.38 421.314 1510.71 427.599 1515.22C429.92 1520.02 431.73 1525.29 432.93 1530.95C422.468 1524.2 409.733 1510.91 404.803 1490.2C407.478 1491.73 410.026 1493.51 412.424 1495.52C412.596 1495.66 412.767 1495.81 412.937 1495.95ZM397.378 1486.68C387.764 1483.04 376.972 1482.28 365.861 1485.04C371.909 1503.25 384.566 1516.78 398.382 1526.39C411.134 1535.26 424.707 1540.68 434.511 1543.28C434.444 1541.92 434.344 1540.58 434.213 1539.26C420.926 1532.45 402.298 1515.35 397.378 1486.68ZM440.852 1539.82C440.975 1541.26 441.063 1542.71 441.115 1544.18C441.396 1544.18 441.677 1544.18 441.959 1544.18C442.011 1542.71 442.099 1541.26 442.222 1539.82L441.797 1538.53C441.71 1538.27 441.623 1538 441.537 1537.74C441.452 1538 441.365 1538.27 441.277 1538.53L440.852 1539.82ZM448.861 1539.26C448.73 1540.58 448.63 1541.92 448.563 1543.28C458.367 1540.68 471.94 1535.26 484.692 1526.39C498.509 1516.78 511.166 1503.25 517.214 1485.04C506.103 1482.28 495.31 1483.04 485.696 1486.68C480.777 1515.35 462.148 1532.45 448.861 1539.26ZM478.271 1490.2C473.342 1510.91 460.606 1524.2 450.144 1530.95C451.093 1526.47 452.425 1522.24 454.09 1518.28C461.626 1513.53 467.239 1506.26 469.575 1496.44C469.93 1496.13 470.288 1495.82 470.65 1495.52C473.048 1493.51 475.597 1491.73 478.271 1490.2ZM479.735 1482.07C480.739 1474.02 480.593 1465.02 478.839 1455.01C474.832 1457.9 470.827 1460.86 467.024 1464.02C469.77 1472.62 470.937 1480.34 470.75 1487.2C473.601 1485.22 476.605 1483.51 479.735 1482.07ZM463.589 1493.02C463.77 1492.02 463.912 1490.99 464.015 1489.92C464.588 1483.96 463.917 1476.94 461.619 1468.82C457.379 1472.87 453.563 1477.3 450.506 1482.35C448.137 1486.27 446.205 1490.59 444.918 1495.44C446.291 1501.34 446.811 1507.83 446.257 1515.03C447.176 1514.63 448.068 1514.19 448.932 1513.72C452.61 1505.68 457.6 1498.7 463.589 1493.02ZM445.633 1522.32C445.398 1523.07 445.173 1523.82 444.959 1524.58C445.099 1523.85 445.229 1523.13 445.349 1522.42C445.444 1522.38 445.539 1522.35 445.633 1522.32ZM441.537 1485.37C440.544 1483.14 439.419 1481 438.18 1478.96C434.077 1472.18 428.765 1466.44 423.05 1461.38C427.094 1452.64 433.618 1442.65 443.457 1431.3C450.895 1442.74 456.062 1452.94 459.379 1461.96C453.91 1466.88 448.842 1472.43 444.895 1478.96C443.656 1481 442.531 1483.14 441.537 1485.37ZM437.455 1520.69C437.242 1520.6 437.029 1520.51 436.816 1520.42C437.286 1521.79 437.72 1523.18 438.118 1524.59C437.864 1523.27 437.643 1521.97 437.455 1520.69ZM437.741 1550.77L441.174 1551.49V1550.74C442.504 1550.74 443.84 1550.73 445.18 1550.73C479.908 1550.73 511.266 1553.23 533.869 1557.24C545.198 1559.25 554.167 1561.61 560.227 1564.15C563.271 1565.42 565.394 1566.67 566.703 1567.8C568.032 1568.95 568.135 1569.64 568.135 1569.83C568.135 1570.03 568.035 1570.7 566.747 1571.83C565.586 1572.84 563.762 1573.96 561.192 1575.1L503.409 1569.45L501.783 1575.73L521.602 1584.34C500.499 1587.21 473.999 1588.93 445.18 1588.93C410.453 1588.93 379.095 1586.43 356.491 1582.43C345.163 1580.42 336.194 1578.06 330.133 1575.52C327.09 1574.24 324.966 1573 323.658 1571.86C322.329 1570.71 322.225 1570.03 322.225 1569.83C322.225 1569.64 322.329 1568.95 323.658 1567.8C324.966 1566.67 327.09 1565.42 330.133 1564.15C336.194 1561.61 345.163 1559.25 356.491 1557.24C377.469 1553.52 405.987 1551.1 437.741 1550.77ZM128.542 1546.04L130.889 1549.51C139.151 1561.72 145.096 1572.84 149.028 1582.87C153.434 1579.32 157.946 1576.1 162.222 1573.04C162.651 1572.74 163.077 1572.43 163.5 1572.13L167.539 1569.24L168.611 1574.09C171.116 1585.42 171.727 1595.66 170.959 1604.84C181.996 1601.4 194.23 1601.24 206.644 1605.06L209.704 1606.01L208.836 1609.09C202.723 1630.78 188.208 1646.45 172.782 1657.19C165.042 1662.57 157.019 1666.76 149.599 1669.87C176.579 1670.63 200.777 1672.9 219.357 1676.19C230.872 1678.23 240.39 1680.69 247.105 1683.51C250.449 1684.91 253.286 1686.48 255.34 1688.26C257.375 1690.02 259.037 1692.35 259.037 1695.25C259.037 1698.1 257.413 1700.42 255.414 1702.17C253.399 1703.94 250.618 1705.49 247.344 1706.88L246.575 1707.21L207.842 1703.42L229.034 1712.63L218.225 1714.5C195.242 1718.47 163.947 1720.9 129.523 1720.9C94.5326 1720.9 62.7732 1718.39 39.6886 1714.3C28.173 1712.26 18.6554 1709.8 11.94 1706.98C8.59615 1705.58 5.75918 1704.01 3.70471 1702.23C1.67053 1700.47 0.0078125 1698.14 0.0078125 1695.25C0.0078125 1692.35 1.67053 1690.02 3.70471 1688.26C5.75918 1686.48 8.59615 1684.91 11.94 1683.51C18.6554 1680.69 28.173 1678.23 39.6886 1676.19C56.7048 1673.17 78.4344 1671.02 102.697 1670.09C95.1286 1666.96 86.9039 1662.7 78.9774 1657.19C63.5514 1646.45 49.0366 1630.78 42.9239 1609.09L42.0556 1606.01L45.1157 1605.06C57.5295 1601.24 69.7639 1601.4 80.8004 1604.84C80.0329 1595.66 80.6434 1585.42 83.1485 1574.09L84.2207 1569.24L88.2593 1572.13C88.6826 1572.43 89.1087 1572.74 89.5371 1573.04C93.6419 1575.98 97.9637 1579.06 102.201 1582.44C107.052 1572.49 114.674 1561.41 125.736 1549.15L128.542 1546.04ZM99.4655 1588.67C95.9417 1585.79 92.2612 1583.08 88.5776 1580.43C86.8245 1590.43 86.6778 1599.43 87.6817 1607.48C90.348 1608.71 92.9228 1610.13 95.3891 1611.75C94.9229 1604.93 96.1158 1597.25 99.4655 1588.67ZM103.008 1617.68C102.962 1617.51 102.917 1617.34 102.873 1617.17C101.235 1610.82 101.396 1602.9 104.762 1593.26C109.416 1597.57 113.607 1602.31 116.911 1607.76C119.28 1611.68 121.212 1616 122.499 1620.85C121.249 1626.22 120.706 1632.08 121.036 1638.53C119.69 1637.83 118.358 1637.06 117.062 1636.2C113.377 1629.03 108.611 1622.79 103.008 1617.68ZM97.2795 1621.36C100.115 1629.79 105.656 1636.12 111.941 1640.63C114.263 1645.43 116.073 1650.7 117.272 1656.36C106.811 1649.61 94.0752 1636.33 89.1457 1615.61C91.8202 1617.15 94.3683 1618.93 96.7669 1620.93C96.9385 1621.07 97.1094 1621.22 97.2795 1621.36ZM81.7208 1612.09C72.1068 1608.45 61.3144 1607.69 50.203 1610.45C56.251 1628.66 68.9082 1642.19 82.7242 1651.8C95.4763 1660.68 109.049 1666.09 118.854 1668.69C118.786 1667.33 118.687 1665.99 118.555 1664.67C105.268 1657.86 86.6403 1640.76 81.7208 1612.09ZM125.194 1665.23C125.317 1666.67 125.405 1668.13 125.458 1669.6C125.739 1669.6 126.02 1669.59 126.301 1669.59C126.354 1668.12 126.442 1666.67 126.565 1665.23L126.14 1663.95C126.052 1663.68 125.965 1663.42 125.88 1663.15C125.794 1663.42 125.708 1663.68 125.62 1663.95L125.194 1665.23ZM133.203 1664.67C133.072 1666 132.972 1667.34 132.905 1668.69C142.71 1666.09 156.283 1660.68 169.035 1651.8C182.851 1642.19 195.508 1628.66 201.556 1610.45C190.445 1607.69 179.653 1608.45 170.039 1612.09C165.119 1640.77 146.49 1657.86 133.203 1664.67ZM162.614 1615.61C157.684 1636.33 144.948 1649.61 134.487 1656.36C135.436 1651.88 136.767 1647.65 138.432 1643.7C145.968 1638.94 151.581 1631.67 153.918 1621.85C154.273 1621.54 154.631 1621.23 154.992 1620.93C157.391 1618.93 159.939 1617.15 162.614 1615.61ZM164.078 1607.48C165.082 1599.43 164.935 1590.43 163.182 1580.43C159.174 1583.31 155.169 1586.27 151.367 1589.43C154.112 1598.03 155.279 1605.76 155.092 1612.61C157.943 1610.63 160.947 1608.92 164.078 1607.48ZM147.931 1618.44C148.112 1617.43 148.255 1616.4 148.357 1615.33C148.931 1609.37 148.259 1602.35 145.962 1594.23C141.722 1598.28 137.906 1602.72 134.849 1607.76C132.479 1611.68 130.548 1616 129.26 1620.85C130.634 1626.75 131.154 1633.24 130.6 1640.45C131.518 1640.04 132.41 1639.6 133.274 1639.13C136.952 1631.09 141.943 1624.11 147.931 1618.44ZM129.976 1647.73C129.74 1648.48 129.515 1649.23 129.301 1650C129.441 1649.27 129.571 1648.54 129.691 1647.83C129.786 1647.8 129.881 1647.76 129.976 1647.73ZM125.88 1610.78C124.886 1608.55 123.762 1606.41 122.523 1604.37C118.42 1597.59 113.108 1591.85 107.393 1586.79C111.437 1578.05 117.961 1568.06 127.8 1556.72C135.237 1568.15 140.404 1578.35 143.722 1587.37C138.253 1592.29 133.185 1597.85 129.237 1604.37C127.998 1606.41 126.873 1608.55 125.88 1610.78ZM121.797 1646.1C121.584 1646.01 121.372 1645.92 121.159 1645.83C121.628 1647.2 122.063 1648.59 122.46 1650.01C122.206 1648.68 121.985 1647.38 121.797 1646.1ZM122.084 1676.18L125.516 1676.9V1676.16C126.846 1676.15 128.182 1676.15 129.523 1676.15C164.25 1676.15 195.608 1678.64 218.211 1682.65C229.54 1684.66 238.509 1687.02 244.569 1689.56C247.613 1690.84 249.736 1692.08 251.045 1693.21C252.374 1694.37 252.477 1695.05 252.477 1695.25C252.477 1695.44 252.377 1696.11 251.089 1697.24C249.929 1698.26 248.105 1699.37 245.534 1700.51L187.751 1694.87L186.125 1701.14L205.944 1709.75C184.842 1712.62 158.342 1714.34 129.523 1714.34C94.7951 1714.34 63.437 1711.85 40.8337 1707.84C29.5053 1705.83 20.5362 1703.47 14.4759 1700.93C11.432 1699.66 9.30885 1698.41 8.0002 1697.28C6.67126 1696.13 6.56781 1695.44 6.56781 1695.25C6.56781 1695.05 6.67126 1694.37 8.0002 1693.21C9.30885 1692.08 11.432 1690.84 14.4759 1689.56C20.5362 1687.02 29.5053 1684.66 40.8337 1682.65C61.8113 1678.93 90.3296 1676.51 122.084 1676.18ZM444.199 1671.45L446.546 1674.92C454.809 1687.13 460.753 1698.25 464.685 1708.28C469.092 1704.73 473.604 1701.51 477.88 1698.46C478.308 1698.15 478.734 1697.85 479.158 1697.54L483.196 1694.65L484.269 1699.5C486.774 1710.83 487.384 1721.07 486.617 1730.25C497.653 1726.81 509.888 1726.65 522.301 1730.48L525.361 1731.42L524.493 1734.5C518.38 1756.2 503.865 1771.87 488.439 1782.6C480.7 1787.99 472.676 1792.17 465.257 1795.28C492.236 1796.04 516.435 1798.31 535.014 1801.6C546.53 1803.65 556.047 1806.11 562.763 1808.92C566.107 1810.32 568.944 1811.89 570.998 1813.67C573.032 1815.43 574.695 1817.77 574.695 1820.66C574.695 1823.52 573.07 1825.83 571.072 1827.58C569.057 1829.35 566.276 1830.9 563.001 1832.29L562.232 1832.62L523.5 1828.83L544.692 1838.04L533.883 1839.91C510.899 1843.89 479.604 1846.32 445.18 1846.32C410.19 1846.32 378.431 1843.8 355.346 1839.71C343.831 1837.67 334.313 1835.21 327.598 1832.39C324.254 1830.99 321.417 1829.43 319.362 1827.65C317.328 1825.88 315.665 1823.55 315.665 1820.66C315.665 1817.77 317.328 1815.43 319.362 1813.67C321.417 1811.89 324.254 1810.32 327.598 1808.92C334.313 1806.11 343.831 1803.65 355.346 1801.6C372.362 1798.59 394.092 1796.43 418.355 1795.5C410.786 1792.37 402.562 1788.12 394.635 1782.6C379.209 1771.87 364.694 1756.2 358.582 1734.5L357.713 1731.42L360.773 1730.48C373.187 1726.65 385.422 1726.81 396.458 1730.25C395.691 1721.07 396.301 1710.83 398.806 1699.5L399.878 1694.65L403.917 1697.54C404.34 1697.85 404.766 1698.15 405.195 1698.46C409.299 1701.39 413.621 1704.48 417.859 1707.85C422.71 1697.9 430.332 1686.82 441.394 1674.56L444.199 1671.45ZM415.123 1714.08C411.599 1711.2 407.919 1708.49 404.235 1705.84C402.482 1715.84 402.335 1724.85 403.339 1732.89C406.006 1734.12 408.58 1735.54 411.047 1737.16C410.581 1730.34 411.773 1722.67 415.123 1714.08ZM418.666 1743.09C418.619 1742.92 418.574 1742.75 418.53 1742.58C416.892 1736.23 417.054 1728.32 420.42 1718.67C425.074 1722.98 429.265 1727.72 432.568 1733.18C434.938 1737.09 436.87 1741.41 438.157 1746.26C436.907 1751.63 436.363 1757.49 436.694 1763.94C435.347 1763.24 434.016 1762.47 432.72 1761.61C429.035 1754.45 424.269 1748.2 418.666 1743.09ZM412.937 1746.78C415.772 1755.21 421.314 1761.54 427.599 1766.04C429.92 1770.85 431.73 1776.11 432.93 1781.77C422.468 1775.02 409.733 1761.74 404.803 1741.02C407.478 1742.56 410.026 1744.34 412.424 1746.34C412.596 1746.49 412.767 1746.63 412.937 1746.78ZM397.378 1737.51C387.764 1733.87 376.972 1733.1 365.861 1735.87C371.909 1754.07 384.566 1767.6 398.382 1777.22C411.134 1786.09 424.707 1791.51 434.511 1794.1C434.444 1792.75 434.344 1791.41 434.213 1790.09C420.926 1783.27 402.298 1766.18 397.378 1737.51ZM440.852 1790.65C440.975 1792.08 441.063 1793.54 441.115 1795.01C441.396 1795.01 441.677 1795.01 441.959 1795.01C442.011 1793.54 442.099 1792.08 442.222 1790.64L441.797 1789.36C441.71 1789.09 441.623 1788.83 441.537 1788.56C441.452 1788.83 441.365 1789.09 441.277 1789.36L440.852 1790.65ZM448.861 1790.09C448.73 1791.41 448.63 1792.75 448.563 1794.1C458.367 1791.51 471.94 1786.09 484.692 1777.22C498.509 1767.6 511.166 1754.07 517.214 1735.87C506.103 1733.1 495.31 1733.87 485.696 1737.51C480.777 1766.18 462.148 1783.28 448.861 1790.09ZM478.271 1741.02C473.342 1761.74 460.606 1775.03 450.144 1781.77C451.093 1777.29 452.425 1773.06 454.09 1769.11C461.626 1764.35 467.239 1757.08 469.575 1747.26C469.93 1746.95 470.288 1746.65 470.65 1746.34C473.048 1744.34 475.597 1742.56 478.271 1741.02ZM479.735 1732.89C480.739 1724.85 480.593 1715.84 478.839 1705.84C474.832 1708.72 470.827 1711.68 467.024 1714.85C469.77 1723.45 470.937 1731.17 470.75 1738.03C473.601 1736.05 476.605 1734.33 479.735 1732.89ZM463.589 1743.85C463.77 1742.85 463.912 1741.81 464.015 1740.75C464.588 1734.79 463.917 1727.77 461.619 1719.64C457.379 1723.69 453.563 1728.13 450.506 1733.18C448.137 1737.09 446.205 1741.41 444.918 1746.26C446.291 1752.16 446.811 1758.65 446.257 1765.86C447.176 1765.46 448.068 1765.02 448.932 1764.54C452.61 1756.5 457.6 1749.52 463.589 1743.85ZM445.633 1773.14C445.398 1773.89 445.173 1774.65 444.959 1775.41C445.099 1774.68 445.229 1773.96 445.349 1773.24C445.444 1773.21 445.539 1773.18 445.633 1773.14ZM441.537 1736.19C440.544 1733.96 439.419 1731.83 438.18 1729.78C434.077 1723 428.765 1717.27 423.05 1712.21C427.094 1703.46 433.618 1693.47 443.457 1682.13C450.895 1693.56 456.062 1703.77 459.379 1712.78C453.91 1717.7 448.842 1723.26 444.895 1729.78C443.656 1731.83 442.531 1733.96 441.537 1736.19ZM437.455 1771.52C437.242 1771.43 437.029 1771.34 436.816 1771.24C437.286 1772.61 437.72 1774 438.118 1775.42C437.864 1774.1 437.643 1772.8 437.455 1771.52ZM437.741 1801.6L441.174 1802.31V1801.57C442.504 1801.56 443.84 1801.56 445.18 1801.56C479.908 1801.56 511.266 1804.06 533.869 1808.06C545.198 1810.07 554.167 1812.43 560.227 1814.97C563.271 1816.25 565.394 1817.49 566.703 1818.63C568.032 1819.78 568.135 1820.46 568.135 1820.66C568.135 1820.85 568.035 1821.52 566.747 1822.65C565.586 1823.67 563.762 1824.78 561.192 1825.93L503.409 1820.28L501.783 1826.55L521.602 1835.16C500.499 1838.04 473.999 1839.76 445.18 1839.76C410.453 1839.76 379.095 1837.26 356.491 1833.25C345.163 1831.24 336.194 1828.88 330.133 1826.34C327.09 1825.07 324.966 1823.82 323.658 1822.69C322.329 1821.54 322.225 1820.86 322.225 1820.66C322.225 1820.46 322.329 1819.78 323.658 1818.63C324.966 1817.49 327.09 1816.25 330.133 1814.97C336.194 1812.43 345.163 1810.07 356.491 1808.06C377.469 1804.34 405.987 1801.93 437.741 1801.6ZM128.542 1796.86L130.889 1800.33C139.151 1812.55 145.096 1823.66 149.028 1833.69C153.434 1830.15 157.946 1826.92 162.222 1823.87C162.651 1823.56 163.077 1823.26 163.5 1822.96L167.539 1820.07L168.611 1824.92C171.116 1836.24 171.727 1846.48 170.959 1855.67C181.996 1852.22 194.23 1852.07 206.644 1855.89L209.704 1856.83L208.836 1859.91C202.723 1881.61 188.208 1897.28 172.782 1908.01C165.042 1913.4 157.019 1917.58 149.599 1920.69C176.579 1921.45 200.777 1923.72 219.357 1927.02C230.872 1929.06 240.39 1931.52 247.105 1934.33C250.449 1935.74 253.286 1937.3 255.34 1939.08C257.375 1940.84 259.037 1943.18 259.037 1946.07C259.037 1948.93 257.413 1951.24 255.414 1953C253.399 1954.76 250.618 1956.32 247.344 1957.71L246.575 1958.03L207.842 1954.25L229.034 1963.45L218.225 1965.32C195.242 1969.3 163.947 1971.73 129.523 1971.73C94.5326 1971.73 62.7732 1969.22 39.6886 1965.12C28.173 1963.08 18.6554 1960.62 11.94 1957.81C8.59615 1956.41 5.75918 1954.84 3.70471 1953.06C1.67053 1951.3 0.0078125 1948.96 0.0078125 1946.07C0.0078125 1943.18 1.67053 1940.84 3.70471 1939.08C5.75918 1937.3 8.59615 1935.74 11.94 1934.33C18.6554 1931.52 28.173 1929.06 39.6886 1927.02C56.7048 1924 78.4344 1921.84 102.697 1920.92C95.1286 1917.78 86.9039 1913.53 78.9774 1908.01C63.5514 1897.28 49.0366 1881.61 42.9239 1859.91L42.0556 1856.83L45.1157 1855.89C57.5295 1852.07 69.7639 1852.22 80.8004 1855.67C80.0329 1846.48 80.6434 1836.24 83.1485 1824.92L84.2207 1820.07L88.2593 1822.96C88.6826 1823.26 89.1087 1823.56 89.5371 1823.87C93.6419 1826.8 97.9637 1829.89 102.201 1833.27C107.052 1823.31 114.674 1812.24 125.736 1799.97L128.542 1796.86ZM99.4654 1839.49C95.9417 1836.62 92.2612 1833.9 88.5776 1831.25C86.8245 1841.25 86.6778 1850.26 87.6817 1858.31C90.348 1859.53 92.9228 1860.96 95.3891 1862.58C94.9229 1855.76 96.1158 1848.08 99.4654 1839.49ZM103.008 1868.5C102.962 1868.33 102.917 1868.16 102.873 1867.99C101.235 1861.64 101.396 1853.73 104.762 1844.08C109.416 1848.39 113.607 1853.13 116.911 1858.59C119.28 1862.5 121.212 1866.83 122.499 1871.68C121.249 1877.04 120.706 1882.91 121.036 1889.35C119.69 1888.66 118.358 1887.88 117.062 1887.02C113.377 1879.86 108.611 1873.62 103.008 1868.5ZM97.2795 1872.19C100.115 1880.62 105.656 1886.95 111.941 1891.45C114.263 1896.26 116.073 1901.52 117.272 1907.19C106.811 1900.44 94.0752 1887.15 89.1457 1866.43C91.8202 1867.97 94.3683 1869.75 96.7669 1871.76C96.9385 1871.9 97.1094 1872.04 97.2795 1872.19ZM81.7208 1862.92C72.1068 1859.28 61.3144 1858.51 50.203 1861.28C56.251 1879.49 68.9082 1893.02 82.7242 1902.63C95.4763 1911.5 109.049 1916.92 118.854 1919.52C118.786 1918.16 118.687 1916.82 118.555 1915.5C105.268 1908.69 86.6403 1891.59 81.7208 1862.92ZM125.194 1916.06C125.317 1917.5 125.405 1918.95 125.458 1920.42C125.739 1920.42 126.02 1920.42 126.301 1920.42C126.354 1918.95 126.442 1917.49 126.565 1916.06L126.14 1914.77C126.052 1914.51 125.965 1914.24 125.88 1913.98C125.794 1914.24 125.708 1914.51 125.62 1914.77L125.194 1916.06ZM133.203 1915.5C133.072 1916.82 132.972 1918.16 132.905 1919.52C142.71 1916.92 156.283 1911.5 169.035 1902.63C182.851 1893.02 195.508 1879.49 201.556 1861.28C190.445 1858.51 179.653 1859.28 170.039 1862.92C165.119 1891.59 146.49 1908.69 133.203 1915.5ZM162.614 1866.43C157.684 1887.15 144.948 1900.44 134.487 1907.19C135.436 1902.71 136.767 1898.47 138.432 1894.52C145.968 1889.77 151.581 1882.49 153.918 1872.68C154.273 1872.36 154.631 1872.06 154.992 1871.76C157.391 1869.75 159.939 1867.97 162.614 1866.43ZM164.078 1858.31C165.082 1850.26 164.935 1841.25 163.182 1831.25C159.174 1834.14 155.169 1837.09 151.367 1840.26C154.112 1848.86 155.279 1856.58 155.092 1863.44C157.943 1861.46 160.947 1859.74 164.078 1858.31ZM147.931 1869.26C148.112 1868.26 148.255 1867.22 148.357 1866.16C148.931 1860.2 148.259 1853.18 145.962 1845.06C141.722 1849.11 137.906 1853.54 134.849 1858.59C132.479 1862.5 130.548 1866.83 129.26 1871.68C130.634 1877.57 131.154 1884.07 130.6 1891.27C131.518 1890.87 132.41 1890.43 133.274 1889.96C136.952 1881.92 141.943 1874.93 147.931 1869.26ZM129.976 1898.56C129.74 1899.3 129.515 1900.06 129.301 1900.82C129.441 1900.09 129.571 1899.37 129.691 1898.65C129.786 1898.62 129.881 1898.59 129.976 1898.56ZM125.88 1861.6C124.886 1859.37 123.762 1857.24 122.523 1855.19C118.42 1848.42 113.108 1842.68 107.393 1837.62C111.437 1828.88 117.961 1818.88 127.8 1807.54C135.237 1818.97 140.404 1829.18 143.722 1838.19C138.253 1843.11 133.185 1848.67 129.237 1855.19C127.998 1857.24 126.873 1859.37 125.88 1861.6ZM121.797 1896.93C121.584 1896.84 121.372 1896.75 121.159 1896.66C121.628 1898.02 122.063 1899.42 122.46 1900.83C122.206 1899.51 121.985 1898.21 121.797 1896.93ZM122.084 1927.01L125.516 1927.72V1926.98C126.846 1926.98 128.182 1926.97 129.523 1926.97C164.25 1926.97 195.608 1929.47 218.211 1933.48C229.54 1935.48 238.509 1937.84 244.569 1940.38C247.613 1941.66 249.736 1942.91 251.045 1944.04C252.374 1945.19 252.477 1945.87 252.477 1946.07C252.477 1946.27 252.377 1946.93 251.089 1948.06C249.929 1949.08 248.105 1950.19 245.534 1951.34L187.751 1945.69L186.125 1951.96L205.944 1960.57C184.842 1963.45 158.342 1965.17 129.523 1965.17C94.7951 1965.17 63.437 1962.67 40.8337 1958.67C29.5053 1956.66 20.5362 1954.3 14.4759 1951.76C11.432 1950.48 9.30885 1949.24 8.0002 1948.1C6.67126 1946.95 6.56781 1946.27 6.56781 1946.07C6.56781 1945.87 6.67126 1945.19 8.0002 1944.04C9.30885 1942.91 11.432 1941.66 14.4759 1940.38C20.5362 1937.84 29.5053 1935.48 40.8337 1933.48C61.8113 1929.76 90.3296 1927.34 122.084 1927.01Z" fill="url(#paint1_linear_472_6)"/>
<defs>
<linearGradient id="paint0_linear_472_6" x1="287.351" y1="0.220215" x2="287.351" y2="2097.14" gradientUnits="userSpaceOnUse">
<stop stop-color="#FC9898"/>
<stop offset="0.5" stop-color="#FC9898" stop-opacity="0"/>
<stop offset="1" stop-color="#FC9898"/>
</linearGradient>
<linearGradient id="paint1_linear_472_6" x1="287.351" y1="0.220215" x2="287.351" y2="2097.14" gradientUnits="userSpaceOnUse">
<stop stop-color="#FC9898"/>
<stop offset="0.5" stop-color="#FC9898" stop-opacity="0"/>
<stop offset="1" stop-color="#FC9898"/>
</linearGradient>
</defs>
</svg>
