<svg width="418" height="106" viewBox="0 0 418 106" fill="none" xmlns="http://www.w3.org/2000/svg">
<path fill-rule="evenodd" clip-rule="evenodd" d="M83.0291 2.91778C70.1308 3.74245 59.6095 12.0562 51.6421 22.2329C47.0674 28.0762 43.1886 34.563 41.1169 41.4297C31.8388 43.3166 23.9113 49.672 20.6658 58.6038C20.2017 58.569 19.7334 58.556 19.2618 58.5658C14.0559 58.6741 9.42596 61.5923 6.25131 65.7195C3.07095 69.8542 1.59143 75.0465 2.65723 80.1528C3.7757 85.5116 6.81519 90.6879 11.8908 92.7387C16.7651 94.7082 21.971 92.3256 26.5954 89.8251C28.4933 88.7989 30.3619 87.6388 31.9692 86.2617C32.5065 86.6618 33.0522 87.0492 33.6045 87.4233C42.2672 93.2909 53.3333 95.1051 61.9427 89.1595C62.1121 89.0425 62.2804 88.9241 62.4477 88.8042C63.0392 89.1193 63.6396 89.4208 64.2488 89.7082C77.1079 95.7757 92.2017 95.0058 104.77 88.3574C105.608 87.9142 106.426 87.4448 107.224 86.9505C108.755 88.134 110.442 89.1396 112.303 89.9295C118.562 92.5869 124.965 91.5628 131.289 89.1329C134.651 92.8597 138.685 95.9707 143.347 98.2304C154.873 103.818 168.514 104.778 179.867 98.8445C182.447 97.4961 184.758 95.8291 186.818 93.9104C187.307 94.1346 187.795 94.357 188.282 94.5785L188.283 94.5787L188.283 94.5789C189.074 94.939 189.861 95.297 190.636 95.6577C191.291 95.9625 191.949 96.2733 192.609 96.5853L192.611 96.5861L192.616 96.5885L192.618 96.5893C200.146 100.146 208.008 103.859 215.658 100.815C217.963 99.8973 220.083 98.6448 221.991 97.1293C223.182 98.4167 224.583 99.4954 226.254 100.274C232.043 102.972 238.53 101.03 244.376 98.4554C248.612 96.5892 253.064 94.4977 256.153 91.3486C259.444 91.9798 262.918 91.7353 266.082 90.7114C268.34 89.9811 270.437 88.9873 271.976 87.7108C272.195 87.9622 272.454 88.1778 272.764 88.3438C274.081 89.0469 275.727 88.9466 277.017 88.1957C277.068 88.1656 277.119 88.1341 277.169 88.1015C277.345 88.2358 277.537 88.3517 277.742 88.4463C278.634 88.8587 279.683 88.8359 280.543 88.3594C281.187 88.0022 281.583 87.3801 281.82 86.6857C281.885 86.7151 281.95 86.7433 282.016 86.7701C283.641 87.4277 285.39 86.8356 286.959 86.0291C287.692 88.3673 288.809 90.4194 291.002 91.4524C294.706 93.1966 298.78 90.9414 302.395 88.9404L302.758 88.7396C305.044 87.4773 307.33 86.027 308.887 84.0821C311.386 85.6602 314.145 86.9865 316.824 88.2394C323.91 91.5546 331.608 94.7805 338.845 91.8078C341.958 90.5292 344.765 88.6117 347.104 86.2408C349.267 87.4744 351.488 88.6489 353.691 89.8143L353.691 89.8144L353.691 89.8145L353.691 89.8147L353.692 89.8148L353.693 89.8157L353.693 89.8157L353.694 89.8158L353.694 89.8158L353.694 89.8159L353.694 89.816L353.694 89.816L353.694 89.8161C354.415 90.1974 355.134 90.5778 355.849 90.9589C357.03 91.589 358.218 92.2386 359.412 92.8915L359.413 92.8918L359.413 92.8921L359.414 92.8923L359.414 92.8926L359.415 92.8929L359.415 92.8932C369.568 98.4442 380.161 104.236 390.881 100.403C403.612 95.8521 411.574 83.1612 414.549 69.9729C417.4 57.3366 413.648 44.4157 405.845 34.0755C398.094 23.8043 386.7 17.1064 373.875 16.0721C360.17 14.967 345.725 18.1341 336.691 28.4988C333.166 32.5434 330.623 37.2808 329.063 42.3381C328.049 42.2169 327.018 42.1657 325.974 42.1902C318.432 42.367 311.776 46.4974 307.01 52.3461C303.771 56.322 301.004 60.9803 300.043 65.844C299.05 65.6892 298.034 65.6132 297.019 65.5962C292.918 65.5278 288.321 65.8127 285.859 69.0934C284.595 70.7785 284.349 72.7653 284.532 74.8401C282.755 74.7912 281.166 75.8772 280.054 77.2736C279.542 77.9168 279.129 78.633 278.859 79.3892C277.797 78.9578 276.644 79.1752 275.587 79.6373C275.318 79.5453 275.036 79.4852 274.741 79.4636C274.52 79.4473 274.296 79.4416 274.072 79.4477C273.599 78.4044 272.843 77.4267 271.794 76.5792C269.029 74.3441 264.605 73.6655 260.297 73.7315C259.947 73.7369 259.596 73.7472 259.245 73.7628C258.18 70.5303 256.382 67.5031 254.055 64.9843C249.269 59.805 241.959 58.7622 234.907 58.8438C233.054 58.8653 231.144 58.9275 229.259 59.1096C227.995 56.9153 226.436 54.8817 224.605 53.0826C218.507 47.0928 209.377 47.2525 200.839 47.6718C200.453 47.6908 200.067 47.7119 199.681 47.7354C198.494 42.6953 196.303 37.9652 192.853 33.9049C184.882 24.5254 172.16 21.9826 159.851 21.9575C158.595 21.9549 157.329 21.971 156.061 22.0115C149 12.9827 141.429 3.50587 130.273 3.62227C123.384 3.69415 117.719 7.21202 112.841 12.1002C104.501 5.51553 93.8072 2.22867 83.0291 2.91778Z" fill="#FFE8C5"/>
<path d="M51.6421 22.2329L49.8311 20.8151V20.8151L51.6421 22.2329ZM83.0291 2.91778L82.8823 0.622468L83.0291 2.91778ZM41.1169 41.4297L43.3188 42.0941L42.9219 43.4097L41.5752 43.6836L41.1169 41.4297ZM20.6658 58.6038L22.8275 59.3893L22.2322 61.0275L20.494 60.8973L20.6658 58.6038ZM19.2618 58.5658L19.3096 60.8653L19.2618 58.5658ZM6.25131 65.7195L8.0744 67.1218V67.1218L6.25131 65.7195ZM2.65723 80.1528L4.90869 79.6829L4.90872 79.6829L2.65723 80.1528ZM11.8908 92.7387L11.0292 94.8712L11.8908 92.7387ZM26.5954 89.8251L25.5015 87.802L26.5954 89.8251ZM31.9692 86.2617L30.4728 84.5151L31.8687 83.3192L33.3429 84.417L31.9692 86.2617ZM33.6045 87.4233L32.3146 89.3276L32.3146 89.3276L33.6045 87.4233ZM61.9427 89.1595L63.2498 91.052L63.2497 91.052L61.9427 89.1595ZM62.4477 88.8042L61.1082 86.9346L62.2688 86.103L63.5289 86.7742L62.4477 88.8042ZM64.2488 89.7082L63.2673 91.7882L64.2488 89.7082ZM104.77 88.3574L103.695 86.3243H103.695L104.77 88.3574ZM107.224 86.9505L106.012 84.9955L107.368 84.1551L108.63 85.1307L107.224 86.9505ZM112.303 89.9295L111.404 92.0466L112.303 89.9295ZM131.289 89.1329L130.464 86.9859L131.939 86.4194L132.997 87.5924L131.289 89.1329ZM143.347 98.2304L144.35 96.1608L143.347 98.2304ZM179.867 98.8445L178.801 96.8061L179.867 98.8445ZM186.818 93.9104L185.25 92.2275L186.377 91.1776L187.777 91.82L186.818 93.9104ZM188.282 94.5785L189.235 92.485L189.253 92.4935L189.272 92.5023L188.282 94.5785ZM188.283 94.5787L187.293 96.6549L188.283 94.5787ZM188.283 94.5789L187.331 96.6725L187.312 96.664L187.293 96.6551L188.283 94.5789ZM190.636 95.6577L189.666 97.7428L189.666 97.7428L190.636 95.6577ZM192.609 96.5853L191.642 98.6721L191.635 98.6685L191.627 98.6649L192.609 96.5853ZM192.611 96.5861L193.578 94.4993L193.586 94.5027L193.593 94.5063L192.611 96.5861ZM192.616 96.5885L191.648 98.675L191.641 98.6717L191.634 98.6683L192.616 96.5885ZM192.618 96.5893L193.585 94.5027L193.593 94.5062L193.6 94.5097L192.618 96.5893ZM215.658 100.815L214.807 98.6777L215.658 100.815ZM221.991 97.1293L220.561 95.3281L222.231 94.0019L223.679 95.5671L221.991 97.1293ZM226.254 100.274L227.226 98.1895L226.254 100.274ZM244.376 98.4554L243.448 96.3506L244.376 98.4554ZM256.153 91.3486L254.511 89.7379L255.375 88.8575L256.586 89.0898L256.153 91.3486ZM266.082 90.7114L266.79 92.8997L266.082 90.7114ZM271.976 87.7108L270.508 85.9404L272.237 84.5065L273.711 86.2011L271.976 87.7108ZM272.764 88.3438L273.848 86.3152L273.848 86.3152L272.764 88.3438ZM277.017 88.1957L275.859 86.2082L275.859 86.2082L277.017 88.1957ZM277.169 88.1015L275.905 86.1798L277.265 85.2857L278.56 86.2704L277.169 88.1015ZM277.742 88.4463L276.777 90.534L277.742 88.4463ZM280.543 88.3594L281.658 90.371V90.371L280.543 88.3594ZM281.82 86.6857L279.644 85.9421L280.465 83.5374L282.776 84.5938L281.82 86.6857ZM282.016 86.7701L281.153 88.902L281.153 88.902L282.016 86.7701ZM286.959 86.0291L285.907 83.9837L288.336 82.7348L289.153 85.3406L286.959 86.0291ZM291.002 91.4524L291.983 89.3716L291.002 91.4524ZM302.395 88.9404L301.281 86.9281L301.282 86.9277L302.395 88.9404ZM302.758 88.7396L301.645 86.727L301.646 86.7263L302.758 88.7396ZM308.887 84.0821L307.091 82.6447L308.376 81.0397L310.114 82.1373L308.887 84.0821ZM316.824 88.2394L315.849 90.3227H315.849L316.824 88.2394ZM338.845 91.8078L339.719 93.9353H339.719L338.845 91.8078ZM347.104 86.2408L345.466 84.6255L346.708 83.3673L348.243 84.2427L347.104 86.2408ZM353.691 89.8143L352.701 91.8905L352.658 91.8698L352.615 91.8474L353.691 89.8143ZM353.691 89.8144L354.681 87.7382L354.76 87.7762L354.837 87.8202L353.691 89.8144ZM353.691 89.8145L352.545 91.8087L353.691 89.8145ZM353.691 89.8147L354.837 87.8205L353.691 89.8147ZM353.692 89.8148L352.614 91.8467L352.58 91.8284L352.546 91.809L353.692 89.8148ZM353.693 89.8157L352.704 91.8918L352.659 91.8706L352.616 91.8476L353.693 89.8157ZM353.693 89.8157L354.683 87.7395L353.693 89.8157ZM353.694 89.8158L352.704 91.892L353.694 89.8158ZM353.694 89.8158L354.683 87.7397L354.72 87.7573L354.757 87.7763L353.694 89.8158ZM353.694 89.8159L352.631 91.8555L353.694 89.8159ZM353.694 89.816L354.757 87.7764L353.694 89.816ZM353.694 89.816L352.631 91.8556L353.694 89.816ZM353.694 89.8161L354.757 87.7765L354.77 87.7831L353.694 89.8161ZM355.849 90.9589L354.766 92.9883L354.766 92.9883L355.849 90.9589ZM359.412 92.8915L358.337 94.9247L358.323 94.9172L358.309 94.9095L359.412 92.8915ZM359.413 92.8918L360.488 90.8586L360.497 90.8635L360.506 90.8685L359.413 92.8918ZM359.413 92.8921L360.507 90.8688L359.413 92.8921ZM359.414 92.8923L358.32 94.9156L359.414 92.8923ZM359.414 92.8926L358.32 94.9159L359.414 92.8926ZM359.415 92.8929L360.509 90.8697L359.415 92.8929ZM359.415 92.8932L360.509 90.8699L360.519 90.8751L359.415 92.8932ZM390.881 100.403L391.655 102.569L390.881 100.403ZM414.549 69.9729L416.793 70.4791L414.549 69.9729ZM405.845 34.0755L404.009 35.4609L405.845 34.0755ZM373.875 16.0721L374.059 13.7796L373.875 16.0721ZM336.691 28.4988L334.957 26.9876L336.691 28.4988ZM329.063 42.3381L331.261 43.016L330.695 44.8495L328.79 44.6219L329.063 42.3381ZM325.974 42.1902L325.92 39.8908L325.974 42.1902ZM307.01 52.3461L308.794 53.7989L307.01 52.3461ZM300.043 65.844L302.3 66.2898L301.871 68.4567L299.689 68.1165L300.043 65.844ZM297.019 65.5962L297.057 63.2966L297.019 65.5962ZM285.859 69.0934L284.02 67.7131V67.7131L285.859 69.0934ZM284.532 74.8401L286.823 74.6376L287.051 77.2101L284.469 77.1392L284.532 74.8401ZM280.054 77.2736L278.255 75.8411L278.255 75.8411L280.054 77.2736ZM278.859 79.3892L281.026 80.1611L280.22 82.424L277.994 81.5203L278.859 79.3892ZM275.587 79.6373L276.507 81.7448L275.688 82.1027L274.843 81.8137L275.587 79.6373ZM274.741 79.4636L274.572 81.7574H274.572L274.741 79.4636ZM274.072 79.4477L274.135 81.7468L272.609 81.7883L271.978 80.3984L274.072 79.4477ZM271.794 76.5792L273.24 74.7903L271.794 76.5792ZM260.297 73.7315L260.333 76.0312H260.333L260.297 73.7315ZM259.245 73.7628L259.348 76.0605L257.606 76.1381L257.061 74.4825L259.245 73.7628ZM254.055 64.9843L255.744 63.4234V63.4234L254.055 64.9843ZM234.907 58.8438L234.881 56.544L234.907 58.8438ZM229.259 59.1096L229.48 61.3989L228.005 61.5413L227.266 60.2576L229.259 59.1096ZM224.605 53.0826L222.993 54.7235L224.605 53.0826ZM200.839 47.6718L200.727 45.3746L200.839 47.6718ZM199.681 47.7354L199.821 50.0312L197.886 50.1492L197.442 48.2625L199.681 47.7354ZM192.853 33.9049L194.605 32.4154L192.853 33.9049ZM159.851 21.9575L159.846 24.2575L159.851 21.9575ZM156.061 22.0115L156.135 24.3103L154.968 24.3477L154.25 23.4284L156.061 22.0115ZM130.273 3.62227L130.249 1.32239L130.273 3.62227ZM112.841 12.1002L114.469 13.7248L113.023 15.1741L111.416 13.9054L112.841 12.1002ZM49.8311 20.8151C57.9788 10.4081 69.0382 1.50761 82.8823 0.622468L83.1758 5.21309C71.2234 5.97729 61.2402 13.7043 53.4531 23.6508L49.8311 20.8151ZM38.9149 40.7654C41.0958 33.5368 45.1483 26.7964 49.8311 20.8151L53.4531 23.6508C48.9864 29.356 45.2813 35.5893 43.3188 42.0941L38.9149 40.7654ZM18.5041 57.8183C22.0457 48.0715 30.6631 41.2086 40.6585 39.1759L41.5752 43.6836C33.0146 45.4246 25.7768 51.2724 22.8275 59.3893L18.5041 57.8183ZM19.214 56.2663C19.7596 56.255 20.3011 56.27 20.8375 56.3102L20.494 60.8973C20.1023 60.868 19.7073 60.8571 19.3096 60.8653L19.214 56.2663ZM4.42825 64.3172C7.91711 59.7815 13.1473 56.3925 19.214 56.2663L19.3096 60.8653C14.9645 60.9557 10.9348 63.403 8.0744 67.1218L4.42825 64.3172ZM0.405762 80.6228C-0.815857 74.77 0.898315 68.9063 4.42825 64.3172L8.0744 67.1218C5.24362 70.802 3.99872 75.3231 4.90869 79.6829L0.405762 80.6228ZM11.0292 94.8712C4.9722 92.4239 1.61047 86.3948 0.405731 80.6227L4.90872 79.6829C5.94095 84.6285 8.65817 88.9519 12.7525 90.6062L11.0292 94.8712ZM27.6894 91.8483C25.3576 93.1091 22.6975 94.4442 19.928 95.1809C17.1271 95.9259 14.0675 96.0989 11.0292 94.8712L12.7524 90.6062C14.5884 91.348 16.5689 91.3144 18.7456 90.7354C20.9537 90.1481 23.2088 89.0416 25.5015 87.802L27.6894 91.8483ZM33.4657 88.0084C31.6843 89.5346 29.6581 90.7839 27.6894 91.8483L25.5015 87.802C27.3286 86.814 29.0396 85.743 30.4728 84.5151L33.4657 88.0084ZM32.3146 89.3276C31.7343 88.9345 31.1607 88.5273 30.5956 88.1065L33.3429 84.417C33.8523 84.7963 34.37 85.1638 34.8943 85.519L32.3146 89.3276ZM63.2497 91.052C53.5917 97.7218 41.4528 95.5172 32.3146 89.3276L34.8943 85.519C43.0818 91.0646 53.0749 92.4884 60.6357 87.2669L63.2497 91.052ZM63.7872 90.6739C63.6092 90.8015 63.43 90.9275 63.2498 91.052L60.6357 87.2669C60.7941 87.1575 60.9516 87.0467 61.1082 86.9346L63.7872 90.6739ZM63.2673 91.7882C62.6244 91.4849 61.9907 91.1667 61.3665 90.8342L63.5289 86.7742C64.0877 87.0718 64.6549 87.3566 65.2303 87.6281L63.2673 91.7882ZM105.846 90.3905C92.6841 97.3526 76.8279 98.1867 63.2673 91.7882L65.2303 87.6281C77.388 93.3647 91.7193 92.659 103.695 86.3243L105.846 90.3905ZM108.435 88.9055C107.593 89.4272 106.73 89.9227 105.846 90.3905L103.695 86.3243C104.486 85.9057 105.259 85.4624 106.012 84.9955L108.435 88.9055ZM111.404 92.0466C109.355 91.1769 107.498 90.0695 105.817 88.7702L108.63 85.1307C110.012 86.1984 111.529 87.1024 113.202 87.8124L111.404 92.0466ZM132.114 91.2799C125.537 93.8068 118.453 95.0392 111.404 92.0466L113.202 87.8124C118.672 90.1346 124.392 89.3189 130.464 86.9859L132.114 91.2799ZM142.343 100.3C137.402 97.9044 133.131 94.6089 129.581 90.6735L132.997 87.5924C136.171 91.1106 139.969 94.037 144.35 96.1608L142.343 100.3ZM180.932 100.883C168.799 107.224 154.375 106.133 142.343 100.3L144.35 96.1608C155.371 101.504 168.23 102.331 178.801 96.8061L180.932 100.883ZM188.386 95.5933C186.183 97.6452 183.704 99.4342 180.932 100.883L178.801 96.8061C181.19 95.5579 183.333 94.013 185.25 92.2275L188.386 95.5933ZM187.33 96.672C186.843 96.4507 186.351 96.2269 185.859 96.0008L187.777 91.82C188.262 92.0424 188.747 92.2632 189.235 92.485L187.33 96.672ZM187.293 96.6549L187.292 96.6547L189.272 92.5023L189.272 92.5025L187.293 96.6549ZM187.293 96.6551L187.293 96.6549L189.272 92.5025L189.273 92.5028L187.293 96.6551ZM189.666 97.7428C188.901 97.3871 188.124 97.0332 187.331 96.6725L189.236 92.4854C190.025 92.8448 190.821 93.2069 191.607 93.5725L189.666 97.7428ZM191.627 98.6649C190.965 98.3524 190.314 98.0445 189.666 97.7428L191.607 93.5725C192.269 93.8806 192.932 94.1941 193.592 94.5057L191.627 98.6649ZM191.644 98.6729L191.642 98.6721L193.576 94.4985L193.578 94.4993L191.644 98.6729ZM191.634 98.6683L191.629 98.6659L193.593 94.5063L193.598 94.5086L191.634 98.6683ZM191.65 98.6758L191.648 98.675L193.584 94.5019L193.585 94.5027L191.65 98.6758ZM216.508 102.952C212.09 104.71 207.683 104.475 203.52 103.405C199.406 102.348 195.357 100.427 191.635 98.6689L193.6 94.5097C197.407 96.3078 201.052 98.0217 204.664 98.9497C208.227 99.865 211.576 99.9639 214.807 98.6777L216.508 102.952ZM223.421 98.9304C221.346 100.578 219.033 101.947 216.508 102.952L214.807 98.6777C216.893 97.8476 218.819 96.7113 220.561 95.3281L223.421 98.9304ZM225.283 102.359C223.311 101.44 221.674 100.173 220.303 98.6914L223.679 95.5671C224.691 96.6606 225.854 97.5504 227.226 98.1895L225.283 102.359ZM245.303 100.56C239.438 103.143 232.077 105.525 225.283 102.359L227.226 98.1895C232.01 100.419 237.622 98.9168 243.448 96.3506L245.303 100.56ZM257.795 92.9594C254.351 96.4696 249.493 98.7145 245.303 100.56L243.448 96.3506C247.732 94.4638 251.776 92.5257 254.511 89.7379L257.795 92.9594ZM266.79 92.8997C263.27 94.0389 259.404 94.3139 255.72 93.6075L256.586 89.0898C259.485 89.6456 262.566 89.4316 265.374 88.5231L266.79 92.8997ZM273.444 89.4812C271.596 91.014 269.197 92.121 266.79 92.8997L265.374 88.5231C267.482 87.8412 269.278 86.9606 270.508 85.9404L273.444 89.4812ZM271.681 90.3725C271.101 90.0626 270.626 89.663 270.241 89.2205L273.711 86.2011C273.764 86.2614 273.807 86.293 273.848 86.3152L271.681 90.3725ZM278.174 90.1833C276.269 91.2927 273.772 91.4899 271.681 90.3725L273.848 86.3152C274.389 86.6039 275.185 86.6004 275.859 86.2082L278.174 90.1833ZM278.432 90.0233C278.348 90.0785 278.262 90.1319 278.174 90.1833L275.859 86.2082C275.874 86.1992 275.89 86.1898 275.905 86.1798L278.432 90.0233ZM278.56 86.2704C278.606 86.3053 278.655 86.3348 278.707 86.3585L276.777 90.534C276.419 90.3687 276.084 90.1662 275.777 89.9327L278.56 86.2704ZM278.707 86.3585C278.959 86.475 279.234 86.4553 279.428 86.3477L281.658 90.371C280.133 91.2166 278.309 91.2425 276.777 90.534L278.707 86.3585ZM279.428 86.3478C279.428 86.3477 279.428 86.3476 279.429 86.3473C279.429 86.3469 279.431 86.3456 279.434 86.3428C279.44 86.3372 279.455 86.3231 279.475 86.2949C279.519 86.2349 279.581 86.1242 279.644 85.9421L283.996 87.4292C283.653 88.4355 282.978 89.6394 281.658 90.371L279.428 86.3478ZM281.153 88.902C281.055 88.8625 280.959 88.821 280.864 88.7775L282.776 84.5938C282.81 84.6093 282.844 84.6241 282.879 84.6381L281.153 88.902ZM288.01 88.0746C286.374 88.9159 283.792 89.9702 281.153 88.902L282.879 84.6381C283.49 84.8852 284.406 84.7554 285.907 83.9837L288.01 88.0746ZM290.022 93.5331C286.95 92.0861 285.562 89.2623 284.764 86.7176L289.153 85.3406C289.822 87.4723 290.669 88.7528 291.983 89.3716L290.022 93.5331ZM303.509 90.9527C301.747 91.928 299.612 93.1199 297.409 93.7988C295.16 94.4921 292.577 94.7362 290.022 93.5331L291.983 89.3716C293.131 89.9127 294.437 89.9014 296.054 89.4029C297.719 88.89 299.428 87.9538 301.281 86.9281L303.509 90.9527ZM303.871 90.7523L303.508 90.953L301.282 86.9277L301.645 86.727L303.871 90.7523ZM310.682 85.5195C308.822 87.8433 306.185 89.4743 303.87 90.753L301.646 86.7263C303.902 85.4803 305.837 84.2107 307.091 82.6447L310.682 85.5195ZM315.849 90.3227C313.173 89.071 310.294 87.6909 307.659 86.0269L310.114 82.1373C312.478 83.6295 315.117 84.9019 317.798 86.1561L315.849 90.3227ZM339.719 93.9353C331.411 97.3481 322.774 93.5625 315.849 90.3227L317.798 86.1561C325.046 89.5467 331.806 92.2128 337.971 89.6803L339.719 93.9353ZM348.741 87.856C346.193 90.439 343.129 92.5346 339.719 93.9353L337.971 89.6803C340.787 88.5237 343.337 86.7844 345.466 84.6255L348.741 87.856ZM352.615 91.8474C350.418 90.6849 348.165 89.4935 345.965 88.2388L348.243 84.2427C350.37 85.4553 352.558 86.6129 354.766 87.7812L352.615 91.8474ZM352.701 91.8906L352.701 91.8905L354.68 87.7381L354.681 87.7382L352.701 91.8906ZM352.545 91.8087L352.545 91.8086L354.837 87.8202L354.837 87.8204L352.545 91.8087ZM352.545 91.8088L352.545 91.8087L354.837 87.8204L354.837 87.8205L352.545 91.8088ZM352.546 91.809L352.545 91.8088L354.837 87.8205L354.838 87.8206L352.546 91.809ZM352.616 91.8476L352.614 91.8467L354.769 87.7829L354.771 87.7837L352.616 91.8476ZM352.704 91.8919L352.704 91.8918L354.683 87.7395L354.683 87.7395L352.704 91.8919ZM352.704 91.892L352.704 91.8919L354.683 87.7395L354.683 87.7396L352.704 91.892ZM352.704 91.892L352.704 91.892L354.683 87.7396L354.683 87.7397L352.704 91.892ZM352.631 91.8555L352.631 91.8554L354.757 87.7763L354.757 87.7764L352.631 91.8555ZM352.631 91.8555L352.631 91.8555L354.757 87.7764L354.757 87.7764L352.631 91.8555ZM352.631 91.8556L352.631 91.8555L354.757 87.7764L354.757 87.7765L352.631 91.8556ZM352.631 91.8557L352.631 91.8556L354.757 87.7765L354.757 87.7766L352.631 91.8557ZM354.766 92.9883C354.056 92.6093 353.34 92.2308 352.619 91.8492L354.77 87.7831C355.49 88.1641 356.212 88.5462 356.931 88.9295L354.766 92.9883ZM358.309 94.9095C357.113 94.2556 355.935 93.6118 354.766 92.9883L356.931 88.9295C358.125 89.5662 359.323 90.2215 360.516 90.8734L358.309 94.9095ZM358.337 94.9249L358.337 94.9247L360.487 90.8583L360.488 90.8586L358.337 94.9249ZM358.319 94.9153L358.319 94.915L360.506 90.8685L360.507 90.8688L358.319 94.9153ZM358.32 94.9156L358.319 94.9153L360.507 90.8688L360.508 90.8691L358.32 94.9156ZM358.32 94.9159L358.32 94.9156L360.508 90.8691L360.508 90.8694L358.32 94.9159ZM358.321 94.9162L358.32 94.9159L360.508 90.8694L360.509 90.8697L358.321 94.9162ZM358.322 94.9165L358.321 94.9162L360.509 90.8697L360.509 90.8699L358.322 94.9165ZM391.655 102.569C385.675 104.707 379.804 104.119 374.242 102.36C368.732 100.618 363.346 97.6634 358.312 94.9113L360.519 90.8751C365.638 93.674 370.624 96.3912 375.629 97.9742C380.582 99.5407 385.368 99.9319 390.107 98.2376L391.655 102.569ZM416.793 70.4791C413.72 84.0965 405.405 97.6537 391.655 102.569L390.107 98.2376C401.819 94.0504 409.427 82.2259 412.305 69.4668L416.793 70.4791ZM407.681 32.6901C415.812 43.4648 419.819 57.0642 416.793 70.4791L412.305 69.4668C414.981 57.6089 411.484 45.3666 404.009 35.4609L407.681 32.6901ZM374.059 13.7796C387.591 14.8707 399.566 21.9366 407.681 32.6901L404.009 35.4609C396.622 25.672 385.81 19.3421 373.69 18.3647L374.059 13.7796ZM334.957 26.9876C344.661 15.8538 359.976 12.6439 374.059 13.7796L373.69 18.3647C360.363 17.2901 346.788 20.4145 338.425 30.0101L334.957 26.9876ZM326.865 41.6602C328.513 36.3175 331.206 31.291 334.957 26.9876L338.425 30.0101C335.125 33.7957 332.733 38.2441 331.261 43.016L326.865 41.6602ZM325.92 39.8908C327.075 39.8638 328.215 39.9204 329.336 40.0543L328.79 44.6219C327.883 44.5135 326.961 44.4677 326.028 44.4896L325.92 39.8908ZM305.227 50.8932C310.297 44.671 317.536 40.0873 325.92 39.8908L326.028 44.4896C319.328 44.6466 313.255 48.3239 308.794 53.7989L305.227 50.8932ZM297.787 65.3981C298.85 60.0189 301.866 55.0183 305.227 50.8932L308.794 53.7989C305.675 57.6257 303.159 61.9416 302.3 66.2898L297.787 65.3981ZM297.057 63.2966C298.16 63.315 299.283 63.3978 300.397 63.5714L299.689 68.1165C298.817 67.9806 297.908 67.9114 296.98 67.8959L297.057 63.2966ZM284.02 67.7131C285.673 65.5085 287.99 64.4038 290.287 63.8524C292.555 63.3082 294.973 63.2618 297.057 63.2966L296.98 67.8959C294.963 67.8623 293.033 67.9242 291.361 68.3254C289.719 68.7196 288.506 69.3976 287.699 70.4736L284.02 67.7131ZM282.241 75.0425C282.033 72.6798 282.278 70.034 284.02 67.7131L287.699 70.4736C286.912 71.5229 286.666 72.8507 286.823 74.6376L282.241 75.0425ZM278.255 75.8411C279.607 74.1424 281.815 72.4646 284.596 72.5409L284.469 77.1392C283.695 77.1179 282.725 77.612 281.854 78.7061L278.255 75.8411ZM276.693 78.6174C277.057 77.5957 277.603 76.6595 278.255 75.8411L281.854 78.7061C281.481 79.174 281.201 79.6702 281.026 80.1611L276.693 78.6174ZM274.666 77.5297C275.982 76.9546 277.836 76.4915 279.725 77.2582L277.994 81.5203C277.757 81.4241 277.306 81.3957 276.507 81.7448L274.666 77.5297ZM274.91 77.1698C275.41 77.2065 275.885 77.3086 276.33 77.4609L274.843 81.8137C274.75 81.7821 274.662 81.7639 274.572 81.7574L274.91 77.1698ZM274.01 77.1485C274.315 77.1402 274.616 77.1481 274.91 77.1698L274.572 81.7574C274.425 81.7465 274.278 81.7429 274.135 81.7468L274.01 77.1485ZM273.24 74.7903C274.544 75.8442 275.533 77.1016 276.167 78.4969L271.978 80.3984C271.664 79.7071 271.142 79.0091 270.349 78.368L273.24 74.7903ZM260.262 71.4318C264.678 71.3641 269.812 72.0201 273.24 74.7903L270.349 78.368C268.245 76.6681 264.532 75.9668 260.333 76.0312L260.262 71.4318ZM259.143 71.4651C259.517 71.4484 259.89 71.4375 260.262 71.4318L260.333 76.0312C260.004 76.0363 259.675 76.046 259.348 76.0605L259.143 71.4651ZM255.744 63.4234C258.29 66.1783 260.259 69.4908 261.43 73.0431L257.061 74.4825C256.101 71.5697 254.475 68.8278 252.365 66.5452L255.744 63.4234ZM234.881 56.544C242.034 56.4611 250.247 57.4739 255.744 63.4234L252.365 66.5452C248.291 62.1361 241.883 61.0632 234.934 61.1437L234.881 56.544ZM229.037 56.8202C231.016 56.6291 232.999 56.5658 234.881 56.544L234.934 61.1437C233.109 61.1648 231.272 61.2258 229.48 61.3989L229.037 56.8202ZM226.217 51.4418C228.201 53.3912 229.886 55.5916 231.252 57.9615L227.266 60.2576C226.103 58.239 224.672 56.3722 222.993 54.7235L226.217 51.4418ZM200.727 45.3746C204.984 45.1655 209.622 45.0038 214 45.7025C218.415 46.4074 222.723 48.0098 226.217 51.4418L222.993 54.7235C220.389 52.1656 217.083 50.853 213.274 50.245C209.428 49.631 205.233 49.7588 200.952 49.9691L200.727 45.3746ZM199.541 45.4397C199.937 45.4155 200.332 45.394 200.727 45.3746L200.952 49.9691C200.574 49.9876 200.197 50.0082 199.821 50.0312L199.541 45.4397ZM194.605 32.4154C198.323 36.7896 200.661 41.8626 201.919 47.2083L197.442 48.2625C196.327 43.528 194.284 39.1408 191.1 35.3943L194.605 32.4154ZM159.856 19.6575C172.349 19.683 185.959 22.2414 194.605 32.4154L191.1 35.3943C183.805 26.8095 171.97 24.2822 159.846 24.2575L159.856 19.6575ZM155.988 19.7127C157.285 19.6712 158.577 19.6549 159.856 19.6575L159.846 24.2575C158.612 24.255 157.373 24.2707 156.135 24.3103L155.988 19.7127ZM130.249 1.32239C136.55 1.25665 141.745 3.92013 146.177 7.6223C150.566 11.288 154.368 16.1135 157.873 20.5946L154.25 23.4284C150.693 18.8807 147.18 14.4534 143.228 11.1526C139.32 7.88825 135.152 5.87148 130.297 5.92214L130.249 1.32239ZM111.213 10.4756C116.31 5.36826 122.517 1.40307 130.249 1.32239L130.297 5.92214C124.251 5.98523 119.128 9.05579 114.469 13.7248L111.213 10.4756ZM82.8823 0.622468C94.2151 -0.102106 105.471 3.35128 114.266 10.295L111.416 13.9054C103.53 7.67979 93.3992 4.55945 83.1758 5.21309L82.8823 0.622468Z" fill="#FFC978"/>
</svg>
