<svg width="418" height="106" viewBox="0 0 418 106" fill="none" xmlns="http://www.w3.org/2000/svg">
<path fill-rule="evenodd" clip-rule="evenodd" d="M334.972 2.91778C347.87 3.74245 358.391 12.0562 366.359 22.2329C370.934 28.0762 374.812 34.563 376.884 41.4297C386.162 43.3166 394.09 49.672 397.335 58.6038C397.799 58.569 398.268 58.556 398.739 58.5658C403.945 58.6741 408.575 61.5923 411.75 65.7195C414.93 69.8542 416.41 75.0465 415.344 80.1528C414.225 85.5116 411.186 90.6879 406.11 92.7387C401.236 94.7082 396.03 92.3256 391.406 89.8251C389.508 88.7989 387.639 87.6388 386.032 86.2617C385.495 86.6618 384.949 87.0492 384.397 87.4233C375.734 93.2909 364.668 95.1051 356.058 89.1595C355.889 89.0425 355.721 88.9241 355.553 88.8042C354.962 89.1193 354.361 89.4208 353.752 89.7082C340.893 95.7757 325.799 95.0058 313.231 88.3574C312.393 87.9142 311.575 87.4448 310.777 86.9505C309.246 88.134 307.559 89.1396 305.698 89.9295C299.439 92.5869 293.036 91.5628 286.712 89.1329C283.35 92.8597 279.316 95.9707 274.654 98.2304C263.128 103.818 249.487 104.778 238.134 98.8445C235.554 97.4961 233.243 95.8291 231.183 93.9104C230.694 94.1346 230.206 94.357 229.719 94.5785L229.718 94.5787L229.718 94.5789C228.927 94.939 228.14 95.297 227.365 95.6577C226.71 95.9625 226.052 96.2733 225.392 96.5853L225.39 96.5861L225.385 96.5885L225.383 96.5893C217.855 100.146 209.993 103.859 202.343 100.815C200.038 99.8973 197.918 98.6448 196.01 97.1293C194.819 98.4167 193.418 99.4954 191.747 100.274C185.958 102.972 179.471 101.03 173.625 98.4554C169.389 96.5892 164.937 94.4977 161.848 91.3486C158.557 91.9798 155.083 91.7353 151.919 90.7114C149.661 89.9811 147.564 88.9873 146.025 87.7108C145.806 87.9622 145.547 88.1778 145.236 88.3438C143.92 89.0469 142.274 88.9466 140.984 88.1957C140.933 88.1656 140.882 88.1341 140.832 88.1015C140.656 88.2358 140.464 88.3517 140.259 88.4463C139.367 88.8587 138.318 88.8359 137.458 88.3594C136.814 88.0022 136.418 87.3801 136.181 86.6857C136.116 86.7151 136.051 86.7433 135.985 86.7701C134.36 87.4277 132.611 86.8356 131.042 86.0291C130.309 88.3673 129.192 90.4194 126.998 91.4524C123.295 93.1966 119.221 90.9414 115.606 88.9404L115.243 88.7396C112.957 87.4773 110.671 86.027 109.114 84.0821C106.615 85.6602 103.856 86.9865 101.177 88.2394C94.0908 91.5546 86.3927 94.7805 79.1559 91.8078C76.0432 90.5292 73.2362 88.6117 70.8972 86.2408C68.7335 87.4744 66.5133 88.6489 64.3102 89.8143L64.31 89.8144L64.3097 89.8145L64.3095 89.8147L64.3093 89.8148L64.3077 89.8157L64.3076 89.8157L64.3074 89.8158L64.3073 89.8158L64.3072 89.8159L64.307 89.816L64.3069 89.816L64.3068 89.8161C63.586 90.1974 62.867 90.5778 62.1525 90.9589C60.971 91.589 59.783 92.2386 58.5888 92.8915L58.5883 92.8918L58.5878 92.8921L58.5872 92.8923L58.5867 92.8926L58.5862 92.8929L58.5856 92.8932C48.4328 98.4442 37.8397 104.236 27.1198 100.403C14.3892 95.8521 6.42739 83.1612 3.45205 69.9729C0.601224 57.3366 4.35306 44.4157 12.1559 34.0755C19.9067 23.8043 31.3006 17.1064 44.1264 16.0721C57.8312 14.967 72.2761 18.1341 81.3101 28.4988C84.8354 32.5434 87.3781 37.2808 88.9381 42.3381C89.9522 42.2169 90.9826 42.1657 92.0266 42.1902C99.5688 42.367 106.225 46.4974 110.991 52.3461C114.23 56.322 116.997 60.9803 117.958 65.844C118.951 65.6892 119.967 65.6132 120.982 65.5962C125.083 65.5278 129.68 65.8127 132.142 69.0934C133.406 70.7785 133.652 72.7653 133.469 74.8401C135.246 74.7912 136.835 75.8772 137.947 77.2736C138.459 77.9168 138.872 78.633 139.142 79.3892C140.204 78.9578 141.357 79.1752 142.414 79.6373C142.683 79.5453 142.965 79.4852 143.26 79.4636C143.481 79.4473 143.705 79.4416 143.929 79.4477C144.402 78.4044 145.158 77.4267 146.207 76.5792C148.972 74.3441 153.396 73.6655 157.704 73.7315C158.054 73.7369 158.405 73.7472 158.756 73.7628C159.821 70.5303 161.619 67.5031 163.946 64.9843C168.732 59.805 176.042 58.7622 183.094 58.8438C184.947 58.8653 186.857 58.9275 188.742 59.1096C190.006 56.9153 191.565 54.8817 193.396 53.0826C199.494 47.0928 208.624 47.2525 217.162 47.6718C217.548 47.6908 217.934 47.7119 218.32 47.7354C219.507 42.6953 221.698 37.9652 225.148 33.9049C233.119 24.5254 245.841 21.9826 258.15 21.9575C259.406 21.9549 260.672 21.971 261.94 22.0115C269.001 12.9827 276.572 3.50587 287.728 3.62227C294.617 3.69415 300.282 7.21202 305.16 12.1002C313.5 5.51553 324.194 2.22867 334.972 2.91778Z" fill="#FFE8C5"/>
<path d="M366.359 22.2329L368.17 20.8151V20.8151L366.359 22.2329ZM334.972 2.91778L335.119 0.622468L334.972 2.91778ZM376.884 41.4297L374.682 42.0941L375.079 43.4097L376.426 43.6836L376.884 41.4297ZM397.335 58.6038L395.173 59.3893L395.769 61.0275L397.507 60.8973L397.335 58.6038ZM398.739 58.5658L398.691 60.8653L398.739 58.5658ZM411.75 65.7195L409.927 67.1218V67.1218L411.75 65.7195ZM415.344 80.1528L413.092 79.6829L413.092 79.6829L415.344 80.1528ZM406.11 92.7387L406.972 94.8712L406.11 92.7387ZM391.406 89.8251L392.5 87.802L391.406 89.8251ZM386.032 86.2617L387.528 84.5151L386.132 83.3192L384.658 84.417L386.032 86.2617ZM384.397 87.4233L385.686 89.3276L385.686 89.3276L384.397 87.4233ZM356.058 89.1595L354.751 91.052L354.751 91.052L356.058 89.1595ZM355.553 88.8042L356.893 86.9346L355.732 86.103L354.472 86.7742L355.553 88.8042ZM353.752 89.7082L354.734 91.7882L353.752 89.7082ZM313.231 88.3574L314.306 86.3243H314.306L313.231 88.3574ZM310.777 86.9505L311.989 84.9955L310.633 84.1551L309.371 85.1307L310.777 86.9505ZM305.698 89.9295L306.597 92.0466L305.698 89.9295ZM286.712 89.1329L287.537 86.9859L286.062 86.4194L285.004 87.5924L286.712 89.1329ZM274.654 98.2304L273.651 96.1608L274.654 98.2304ZM238.134 98.8445L239.2 96.8061L238.134 98.8445ZM231.183 93.9104L232.751 92.2275L231.624 91.1776L230.224 91.82L231.183 93.9104ZM229.719 94.5785L228.766 92.485L228.748 92.4935L228.729 92.5023L229.719 94.5785ZM229.718 94.5787L230.708 96.6549L229.718 94.5787ZM229.718 94.5789L230.67 96.6725L230.689 96.664L230.708 96.6551L229.718 94.5789ZM227.365 95.6577L228.335 97.7428L228.335 97.7428L227.365 95.6577ZM225.392 96.5853L226.359 98.6721L226.366 98.6685L226.374 98.6649L225.392 96.5853ZM225.39 96.5861L224.423 94.4993L224.415 94.5027L224.408 94.5063L225.39 96.5861ZM225.385 96.5885L226.353 98.675L226.36 98.6717L226.367 98.6683L225.385 96.5885ZM225.383 96.5893L224.415 94.5027L224.408 94.5062L224.401 94.5097L225.383 96.5893ZM202.343 100.815L203.194 98.6777L202.343 100.815ZM196.01 97.1293L197.44 95.3281L195.77 94.0019L194.322 95.5671L196.01 97.1293ZM191.747 100.274L190.775 98.1895L191.747 100.274ZM173.625 98.4554L174.553 96.3506L173.625 98.4554ZM161.848 91.3486L163.49 89.7379L162.626 88.8575L161.415 89.0898L161.848 91.3486ZM151.919 90.7114L151.21 92.8997L151.919 90.7114ZM146.025 87.7108L147.493 85.9404L145.764 84.5065L144.29 86.2011L146.025 87.7108ZM145.236 88.3438L144.153 86.3152L144.153 86.3152L145.236 88.3438ZM140.984 88.1957L142.142 86.2082L142.142 86.2082L140.984 88.1957ZM140.832 88.1015L142.096 86.1798L140.736 85.2857L139.441 86.2704L140.832 88.1015ZM140.259 88.4463L141.224 90.534L140.259 88.4463ZM137.458 88.3594L136.343 90.371V90.371L137.458 88.3594ZM136.181 86.6857L138.357 85.9421L137.536 83.5374L135.225 84.5938L136.181 86.6857ZM135.985 86.7701L136.848 88.902L136.848 88.902L135.985 86.7701ZM131.042 86.0291L132.094 83.9837L129.665 82.7348L128.848 85.3406L131.042 86.0291ZM126.998 91.4524L126.018 89.3716L126.998 91.4524ZM115.606 88.9404L116.72 86.9281L116.719 86.9277L115.606 88.9404ZM115.243 88.7396L116.356 86.727L116.355 86.7263L115.243 88.7396ZM109.114 84.0821L110.91 82.6447L109.625 81.0397L107.886 82.1373L109.114 84.0821ZM101.177 88.2394L102.152 90.3227H102.152L101.177 88.2394ZM79.1559 91.8078L78.282 93.9353H78.282L79.1559 91.8078ZM70.8972 86.2408L72.5346 84.6255L71.2934 83.3673L69.758 84.2427L70.8972 86.2408ZM64.3102 89.8143L65.2999 91.8905L65.3432 91.8698L65.3857 91.8474L64.3102 89.8143ZM64.31 89.8144L63.3203 87.7382L63.2406 87.7762L63.164 87.8202L64.31 89.8144ZM64.3097 89.8145L65.4557 91.8087L64.3097 89.8145ZM64.3095 89.8147L63.1635 87.8205L64.3095 89.8147ZM64.3093 89.8148L65.3869 91.8467L65.4214 91.8284L65.4553 91.809L64.3093 89.8148ZM64.3077 89.8157L65.2974 91.8918L65.3418 91.8706L65.3854 91.8476L64.3077 89.8157ZM64.3076 89.8157L63.3179 87.7395L64.3076 89.8157ZM64.3074 89.8158L65.2971 91.892L64.3074 89.8158ZM64.3073 89.8158L63.3176 87.7397L63.2806 87.7573L63.2441 87.7763L64.3073 89.8158ZM64.3072 89.8159L65.3703 91.8555L64.3072 89.8159ZM64.307 89.816L63.2439 87.7764L64.307 89.816ZM64.3069 89.816L65.37 91.8556L64.3069 89.816ZM64.3068 89.8161L63.2436 87.7765L63.2313 87.7831L64.3068 89.8161ZM62.1525 90.9589L63.2349 92.9883L63.2349 92.9883L62.1525 90.9589ZM58.5888 92.8915L59.6641 94.9247L59.6782 94.9172L59.6922 94.9095L58.5888 92.8915ZM58.5883 92.8918L57.5131 90.8586L57.5037 90.8635L57.4945 90.8685L58.5883 92.8918ZM58.5878 92.8921L57.4939 90.8688L58.5878 92.8921ZM58.5872 92.8923L59.6811 94.9156L58.5872 92.8923ZM58.5867 92.8926L59.6805 94.9159L58.5867 92.8926ZM58.5862 92.8929L57.4924 90.8697L58.5862 92.8929ZM58.5856 92.8932L57.4918 90.8699L57.4823 90.8751L58.5856 92.8932ZM27.1198 100.403L26.3456 102.569L27.1198 100.403ZM3.45205 69.9729L1.20844 70.4791L3.45205 69.9729ZM12.1559 34.0755L13.9919 35.4609L12.1559 34.0755ZM44.1264 16.0721L43.9416 13.7796L44.1264 16.0721ZM81.3101 28.4988L83.044 26.9876L81.3101 28.4988ZM88.9381 42.3381L86.7403 43.016L87.3058 44.8495L89.2109 44.6219L88.9381 42.3381ZM92.0266 42.1902L92.0805 39.8908L92.0266 42.1902ZM110.991 52.3461L109.207 53.7989L110.991 52.3461ZM117.958 65.844L115.701 66.2898L116.13 68.4567L118.312 68.1165L117.958 65.844ZM120.982 65.5962L120.944 63.2966L120.982 65.5962ZM132.142 69.0934L133.981 67.7131V67.7131L132.142 69.0934ZM133.469 74.8401L131.178 74.6376L130.95 77.2101L133.532 77.1392L133.469 74.8401ZM137.947 77.2736L139.746 75.8411L139.746 75.8411L137.947 77.2736ZM139.142 79.3892L136.975 80.1611L137.781 82.424L140.007 81.5203L139.142 79.3892ZM142.414 79.6373L141.493 81.7448L142.312 82.1027L143.158 81.8137L142.414 79.6373ZM143.26 79.4636L143.429 81.7574H143.429L143.26 79.4636ZM143.929 79.4477L143.866 81.7468L145.392 81.7883L146.023 80.3984L143.929 79.4477ZM146.207 76.5792L144.761 74.7903L146.207 76.5792ZM157.704 73.7315L157.668 76.0312H157.668L157.704 73.7315ZM158.756 73.7628L158.653 76.0605L160.395 76.1381L160.94 74.4825L158.756 73.7628ZM163.946 64.9843L162.257 63.4234V63.4234L163.946 64.9843ZM183.094 58.8438L183.12 56.544L183.094 58.8438ZM188.742 59.1096L188.521 61.3989L189.996 61.5413L190.735 60.2576L188.742 59.1096ZM193.396 53.0826L195.008 54.7235L193.396 53.0826ZM217.162 47.6718L217.274 45.3746L217.162 47.6718ZM218.32 47.7354L218.18 50.0312L220.115 50.1492L220.559 48.2625L218.32 47.7354ZM225.148 33.9049L223.396 32.4154L225.148 33.9049ZM258.15 21.9575L258.155 24.2575L258.15 21.9575ZM261.94 22.0115L261.866 24.3103L263.033 24.3477L263.751 23.4284L261.94 22.0115ZM287.728 3.62227L287.752 1.32239L287.728 3.62227ZM305.16 12.1002L303.532 13.7248L304.978 15.1741L306.585 13.9054L305.16 12.1002ZM368.17 20.8151C360.022 10.4081 348.963 1.50761 335.119 0.622468L334.825 5.21309C346.778 5.97729 356.761 13.7043 364.548 23.6508L368.17 20.8151ZM379.086 40.7654C376.905 33.5368 372.853 26.7964 368.17 20.8151L364.548 23.6508C369.015 29.356 372.72 35.5893 374.682 42.0941L379.086 40.7654ZM399.497 57.8183C395.955 48.0715 387.338 41.2086 377.342 39.1759L376.426 43.6836C384.986 45.4246 392.224 51.2724 395.173 59.3893L399.497 57.8183ZM398.787 56.2663C398.241 56.255 397.7 56.27 397.163 56.3102L397.507 60.8973C397.899 60.868 398.294 60.8571 398.691 60.8653L398.787 56.2663ZM413.573 64.3172C410.084 59.7815 404.854 56.3925 398.787 56.2663L398.691 60.8653C403.036 60.9557 407.066 63.403 409.927 67.1218L413.573 64.3172ZM417.595 80.6228C418.817 74.77 417.103 68.9063 413.573 64.3172L409.927 67.1218C412.757 70.802 414.002 75.3231 413.092 79.6829L417.595 80.6228ZM406.972 94.8712C413.029 92.4239 416.391 86.3948 417.595 80.6227L413.092 79.6829C412.06 84.6285 409.343 88.9519 405.249 90.6062L406.972 94.8712ZM390.312 91.8483C392.643 93.1091 395.303 94.4442 398.073 95.1809C400.874 95.9259 403.933 96.0989 406.972 94.8712L405.249 90.6062C403.413 91.348 401.432 91.3144 399.255 90.7354C397.047 90.1481 394.792 89.0416 392.5 87.802L390.312 91.8483ZM384.535 88.0084C386.317 89.5346 388.343 90.7839 390.312 91.8483L392.5 87.802C390.672 86.814 388.961 85.743 387.528 84.5151L384.535 88.0084ZM385.686 89.3276C386.267 88.9345 386.84 88.5273 387.405 88.1065L384.658 84.417C384.149 84.7963 383.631 85.1638 383.107 85.519L385.686 89.3276ZM354.751 91.052C364.409 97.7218 376.548 95.5172 385.686 89.3276L383.107 85.519C374.919 91.0646 364.926 92.4884 357.365 87.2669L354.751 91.052ZM354.214 90.6739C354.392 90.8015 354.571 90.9275 354.751 91.052L357.365 87.2669C357.207 87.1575 357.049 87.0467 356.893 86.9346L354.214 90.6739ZM354.734 91.7882C355.377 91.4849 356.01 91.1667 356.635 90.8342L354.472 86.7742C353.913 87.0718 353.346 87.3566 352.771 87.6281L354.734 91.7882ZM312.155 90.3905C325.317 97.3526 341.173 98.1867 354.734 91.7882L352.771 87.6281C340.613 93.3647 326.282 92.659 314.306 86.3243L312.155 90.3905ZM309.566 88.9055C310.408 89.4272 311.271 89.9227 312.155 90.3905L314.306 86.3243C313.515 85.9057 312.742 85.4624 311.989 84.9955L309.566 88.9055ZM306.597 92.0466C308.646 91.1769 310.503 90.0695 312.184 88.7702L309.371 85.1307C307.989 86.1984 306.472 87.1024 304.799 87.8124L306.597 92.0466ZM285.887 91.2799C292.464 93.8068 299.548 95.0392 306.597 92.0466L304.799 87.8124C299.329 90.1346 293.609 89.3189 287.537 86.9859L285.887 91.2799ZM275.658 100.3C280.599 97.9044 284.87 94.6089 288.42 90.6735L285.004 87.5924C281.83 91.1106 278.032 94.037 273.651 96.1608L275.658 100.3ZM237.069 100.883C249.202 107.224 263.626 106.133 275.658 100.3L273.651 96.1608C262.63 101.504 249.771 102.331 239.2 96.8061L237.069 100.883ZM229.615 95.5933C231.818 97.6452 234.297 99.4342 237.069 100.883L239.2 96.8061C236.811 95.5579 234.668 94.013 232.751 92.2275L229.615 95.5933ZM230.671 96.672C231.158 96.4507 231.65 96.2269 232.142 96.0008L230.224 91.82C229.739 92.0424 229.254 92.2632 228.766 92.485L230.671 96.672ZM230.708 96.6549L230.709 96.6547L228.729 92.5023L228.729 92.5025L230.708 96.6549ZM230.708 96.6551L230.708 96.6549L228.729 92.5025L228.728 92.5028L230.708 96.6551ZM228.335 97.7428C229.1 97.3871 229.877 97.0332 230.67 96.6725L228.765 92.4854C227.976 92.8448 227.18 93.2069 226.394 93.5725L228.335 97.7428ZM226.374 98.6649C227.035 98.3524 227.687 98.0445 228.335 97.7428L226.394 93.5725C225.732 93.8806 225.069 94.1941 224.409 94.5057L226.374 98.6649ZM226.357 98.6729L226.359 98.6721L224.425 94.4985L224.423 94.4993L226.357 98.6729ZM226.367 98.6683L226.372 98.6659L224.408 94.5063L224.403 94.5086L226.367 98.6683ZM226.351 98.6758L226.353 98.675L224.417 94.5019L224.415 94.5027L226.351 98.6758ZM201.493 102.952C205.911 104.71 210.318 104.475 214.481 103.405C218.594 102.348 222.644 100.427 226.366 98.6689L224.401 94.5097C220.594 96.3078 216.949 98.0217 213.337 98.9497C209.774 99.865 206.425 99.9639 203.194 98.6777L201.493 102.952ZM194.58 98.9304C196.655 100.578 198.968 101.947 201.493 102.952L203.194 98.6777C201.108 97.8476 199.182 96.7113 197.44 95.3281L194.58 98.9304ZM192.718 102.359C194.69 101.44 196.327 100.173 197.698 98.6914L194.322 95.5671C193.31 96.6606 192.147 97.5504 190.775 98.1895L192.718 102.359ZM172.698 100.56C178.563 103.143 185.924 105.525 192.718 102.359L190.775 98.1895C185.991 100.419 180.379 98.9168 174.553 96.3506L172.698 100.56ZM160.206 92.9594C163.65 96.4696 168.508 98.7145 172.698 100.56L174.553 96.3506C170.269 94.4638 166.225 92.5257 163.49 89.7379L160.206 92.9594ZM151.21 92.8997C154.731 94.0389 158.597 94.3139 162.281 93.6075L161.415 89.0898C158.516 89.6456 155.435 89.4316 152.627 88.5231L151.21 92.8997ZM144.557 89.4812C146.405 91.014 148.804 92.121 151.21 92.8997L152.627 88.5231C150.519 87.8412 148.723 86.9606 147.493 85.9404L144.557 89.4812ZM146.32 90.3725C146.9 90.0626 147.375 89.663 147.76 89.2205L144.29 86.2011C144.237 86.2614 144.194 86.293 144.153 86.3152L146.32 90.3725ZM139.827 90.1833C141.732 91.2927 144.229 91.4899 146.32 90.3725L144.153 86.3152C143.612 86.6039 142.815 86.6004 142.142 86.2082L139.827 90.1833ZM139.569 90.0233C139.653 90.0785 139.739 90.1319 139.827 90.1833L142.142 86.2082C142.127 86.1992 142.111 86.1898 142.096 86.1798L139.569 90.0233ZM139.441 86.2704C139.395 86.3053 139.346 86.3348 139.294 86.3585L141.224 90.534C141.582 90.3687 141.917 90.1662 142.224 89.9327L139.441 86.2704ZM139.294 86.3585C139.042 86.475 138.767 86.4553 138.573 86.3477L136.343 90.371C137.868 91.2166 139.692 91.2425 141.224 90.534L139.294 86.3585ZM138.573 86.3478C138.573 86.3477 138.573 86.3476 138.572 86.3473C138.572 86.3469 138.57 86.3456 138.567 86.3428C138.561 86.3372 138.546 86.3231 138.526 86.2949C138.482 86.2349 138.42 86.1242 138.357 85.9421L134.004 87.4292C134.348 88.4355 135.023 89.6394 136.343 90.371L138.573 86.3478ZM136.848 88.902C136.946 88.8625 137.042 88.821 137.137 88.7775L135.225 84.5938C135.191 84.6093 135.157 84.6241 135.122 84.6381L136.848 88.902ZM129.991 88.0746C131.627 88.9159 134.209 89.9702 136.848 88.902L135.122 84.6381C134.511 84.8852 133.595 84.7554 132.094 83.9837L129.991 88.0746ZM127.979 93.5331C131.051 92.0861 132.439 89.2623 133.237 86.7176L128.848 85.3406C128.179 87.4723 127.332 88.7528 126.018 89.3716L127.979 93.5331ZM114.492 90.9527C116.254 91.928 118.389 93.1199 120.592 93.7988C122.841 94.4921 125.424 94.7362 127.979 93.5331L126.018 89.3716C124.87 89.9127 123.564 89.9014 121.947 89.4029C120.282 88.89 118.573 87.9538 116.72 86.9281L114.492 90.9527ZM114.13 90.7523L114.493 90.953L116.719 86.9277L116.356 86.727L114.13 90.7523ZM107.319 85.5195C109.179 87.8433 111.816 89.4743 114.131 90.753L116.355 86.7263C114.099 85.4803 112.164 84.2107 110.91 82.6447L107.319 85.5195ZM102.152 90.3227C104.827 89.071 107.707 87.6909 110.342 86.0269L107.886 82.1373C105.523 83.6295 102.884 84.9019 100.203 86.1561L102.152 90.3227ZM78.282 93.9353C86.5902 97.3481 95.2266 93.5625 102.152 90.3227L100.203 86.1561C92.9549 89.5467 86.1952 92.2128 80.0299 89.6803L78.282 93.9353ZM69.2599 87.856C71.808 90.439 74.8722 92.5346 78.282 93.9353L80.0299 89.6803C77.2141 88.5237 74.6644 86.7844 72.5346 84.6255L69.2599 87.856ZM65.3857 91.8474C67.5833 90.6849 69.8358 89.4935 72.0364 88.2388L69.758 84.2427C67.6312 85.4553 65.4433 86.6129 63.2347 87.7812L65.3857 91.8474ZM65.2996 91.8906L65.2999 91.8905L63.3205 87.7381L63.3203 87.7382L65.2996 91.8906ZM65.4557 91.8087L65.456 91.8086L63.164 87.8202L63.1638 87.8204L65.4557 91.8087ZM65.4555 91.8088L65.4557 91.8087L63.1638 87.8204L63.1635 87.8205L65.4555 91.8088ZM65.4553 91.809L65.4555 91.8088L63.1635 87.8205L63.1633 87.8206L65.4553 91.809ZM65.3854 91.8476L65.3869 91.8467L63.2316 87.7829L63.23 87.7837L65.3854 91.8476ZM65.2972 91.8919L65.2974 91.8918L63.318 87.7395L63.3179 87.7395L65.2972 91.8919ZM65.2971 91.892L65.2972 91.8919L63.3179 87.7395L63.3178 87.7396L65.2971 91.892ZM65.297 91.892L65.2971 91.892L63.3178 87.7396L63.3176 87.7397L65.297 91.892ZM65.3703 91.8555L65.3704 91.8554L63.2441 87.7763L63.244 87.7764L65.3703 91.8555ZM65.3702 91.8555L65.3703 91.8555L63.244 87.7764L63.2439 87.7764L65.3702 91.8555ZM65.37 91.8556L65.3702 91.8555L63.2439 87.7764L63.2438 87.7765L65.37 91.8556ZM65.3699 91.8557L65.37 91.8556L63.2438 87.7765L63.2436 87.7766L65.3699 91.8557ZM63.2349 92.9883C63.9454 92.6093 64.6609 92.2308 65.3823 91.8492L63.2313 87.7831C62.5111 88.1641 61.7886 88.5462 61.07 88.9295L63.2349 92.9883ZM59.6922 94.9095C60.8882 94.2556 62.0657 93.6118 63.2349 92.9883L61.0701 88.9295C59.8763 89.5662 58.6778 90.2215 57.4855 90.8734L59.6922 94.9095ZM59.6635 94.9249L59.6641 94.9247L57.5136 90.8583L57.5131 90.8586L59.6635 94.9249ZM59.6816 94.9153L59.6821 94.915L57.4945 90.8685L57.4939 90.8688L59.6816 94.9153ZM59.6811 94.9156L59.6816 94.9153L57.4939 90.8688L57.4934 90.8691L59.6811 94.9156ZM59.6805 94.9159L59.6811 94.9156L57.4934 90.8691L57.4929 90.8694L59.6805 94.9159ZM59.68 94.9162L59.6805 94.9159L57.4929 90.8694L57.4924 90.8697L59.68 94.9162ZM59.6795 94.9165L59.68 94.9162L57.4924 90.8697L57.4918 90.8699L59.6795 94.9165ZM26.3456 102.569C32.3264 104.707 38.1975 104.119 43.7589 102.36C49.2685 100.618 54.6553 97.6634 59.689 94.9113L57.4823 90.8751C52.3631 93.674 47.3769 96.3912 42.3718 97.9742C37.4186 99.5407 32.6331 99.9319 27.8941 98.2376L26.3456 102.569ZM1.20844 70.4791C4.2806 84.0965 12.5964 97.6537 26.3456 102.569L27.8941 98.2376C16.182 94.0504 8.57419 82.2259 5.69566 69.4668L1.20844 70.4791ZM10.32 32.6901C2.18921 43.4648 -1.81803 57.0642 1.20844 70.4791L5.69566 69.4668C3.02048 57.6089 6.5169 45.3666 13.9919 35.4609L10.32 32.6901ZM43.9416 13.7796C30.4104 14.8707 18.4347 21.9366 10.32 32.6901L13.9919 35.4609C21.3787 25.672 32.1907 19.3421 44.3113 18.3647L43.9416 13.7796ZM83.044 26.9876C73.3396 15.8538 58.0248 12.6439 43.9416 13.7796L44.3113 18.3647C57.6376 17.2901 71.2126 20.4145 79.5763 30.0101L83.044 26.9876ZM91.1359 41.6602C89.4879 36.3175 86.7949 31.291 83.044 26.9876L79.5763 30.0101C82.8759 33.7957 85.2683 38.2441 86.7403 43.016L91.1359 41.6602ZM92.0805 39.8908C90.9256 39.8638 89.786 39.9204 88.6652 40.0543L89.2109 44.6219C90.1184 44.5135 91.0396 44.4677 91.9727 44.4896L92.0805 39.8908ZM112.774 50.8932C107.704 44.671 100.465 40.0873 92.0805 39.8908L91.9727 44.4896C98.6727 44.6466 104.746 48.3239 109.207 53.7989L112.774 50.8932ZM120.214 65.3981C119.151 60.0189 116.135 55.0183 112.774 50.8932L109.207 53.7989C112.326 57.6257 114.842 61.9416 115.701 66.2898L120.214 65.3981ZM120.944 63.2966C119.841 63.315 118.718 63.3978 117.603 63.5714L118.312 68.1165C119.184 67.9806 120.093 67.9114 121.021 67.8959L120.944 63.2966ZM133.981 67.7131C132.327 65.5085 130.011 64.4038 127.714 63.8524C125.446 63.3082 123.027 63.2618 120.944 63.2966L121.021 67.8959C123.038 67.8623 124.968 67.9242 126.64 68.3254C128.282 68.7196 129.495 69.3976 130.302 70.4736L133.981 67.7131ZM135.76 75.0425C135.968 72.6798 135.723 70.034 133.981 67.7131L130.302 70.4736C131.089 71.5229 131.335 72.8507 131.178 74.6376L135.76 75.0425ZM139.746 75.8411C138.394 74.1424 136.186 72.4646 133.405 72.5409L133.532 77.1392C134.306 77.1179 135.276 77.612 136.147 78.7061L139.746 75.8411ZM141.308 78.6174C140.944 77.5957 140.398 76.6595 139.746 75.8411L136.147 78.7061C136.52 79.174 136.8 79.6702 136.975 80.1611L141.308 78.6174ZM143.335 77.5297C142.019 76.9546 140.165 76.4915 138.276 77.2582L140.007 81.5203C140.244 81.4241 140.695 81.3957 141.493 81.7448L143.335 77.5297ZM143.091 77.1698C142.591 77.2065 142.116 77.3086 141.671 77.4609L143.158 81.8137C143.251 81.7821 143.339 81.7639 143.429 81.7574L143.091 77.1698ZM143.991 77.1485C143.686 77.1402 143.385 77.1481 143.091 77.1698L143.429 81.7574C143.576 81.7465 143.723 81.7429 143.866 81.7468L143.991 77.1485ZM144.761 74.7903C143.457 75.8442 142.468 77.1016 141.834 78.4969L146.023 80.3984C146.337 79.7071 146.859 79.0091 147.652 78.368L144.761 74.7903ZM157.739 71.4318C153.323 71.3641 148.189 72.0201 144.761 74.7903L147.652 78.368C149.756 76.6681 153.469 75.9668 157.668 76.0312L157.739 71.4318ZM158.858 71.4651C158.484 71.4484 158.111 71.4375 157.739 71.4318L157.668 76.0312C157.997 76.0363 158.326 76.046 158.653 76.0605L158.858 71.4651ZM162.257 63.4234C159.711 66.1783 157.742 69.4908 156.571 73.0431L160.94 74.4825C161.9 71.5697 163.526 68.8278 165.636 66.5452L162.257 63.4234ZM183.12 56.544C175.967 56.4611 167.754 57.4739 162.257 63.4234L165.636 66.5452C169.71 62.1361 176.118 61.0632 183.067 61.1437L183.12 56.544ZM188.964 56.8202C186.985 56.6291 185.002 56.5658 183.12 56.544L183.067 61.1437C184.892 61.1648 186.729 61.2258 188.521 61.3989L188.964 56.8202ZM191.784 51.4418C189.8 53.3912 188.115 55.5916 186.749 57.9615L190.735 60.2576C191.898 58.239 193.329 56.3722 195.008 54.7235L191.784 51.4418ZM217.274 45.3746C213.017 45.1655 208.379 45.0038 204.001 45.7025C199.586 46.4074 195.278 48.0098 191.784 51.4418L195.008 54.7235C197.612 52.1656 200.918 50.853 204.727 50.245C208.573 49.631 212.768 49.7588 217.049 49.9691L217.274 45.3746ZM218.46 45.4397C218.064 45.4155 217.669 45.394 217.274 45.3746L217.049 49.9691C217.427 49.9876 217.804 50.0082 218.18 50.0312L218.46 45.4397ZM223.396 32.4154C219.678 36.7896 217.34 41.8626 216.082 47.2083L220.559 48.2625C221.674 43.528 223.717 39.1408 226.901 35.3943L223.396 32.4154ZM258.145 19.6575C245.652 19.683 232.042 22.2414 223.396 32.4154L226.901 35.3943C234.196 26.8095 246.031 24.2822 258.155 24.2575L258.145 19.6575ZM262.013 19.7127C260.716 19.6712 259.424 19.6549 258.145 19.6575L258.155 24.2575C259.389 24.255 260.628 24.2707 261.866 24.3103L262.013 19.7127ZM287.752 1.32239C281.451 1.25665 276.256 3.92013 271.824 7.6223C267.435 11.288 263.633 16.1135 260.128 20.5946L263.751 23.4284C267.308 18.8807 270.821 14.4534 274.773 11.1526C278.681 7.88825 282.849 5.87148 287.704 5.92214L287.752 1.32239ZM306.788 10.4756C301.691 5.36826 295.484 1.40307 287.752 1.32239L287.704 5.92214C293.75 5.98523 298.873 9.05579 303.532 13.7248L306.788 10.4756ZM335.119 0.622468C323.786 -0.102106 312.53 3.35128 303.735 10.295L306.585 13.9054C314.47 7.67979 324.602 4.55945 334.825 5.21309L335.119 0.622468Z" fill="#FFC978"/>
</svg>
